{
	"asset":{
		"generator":"Khronos glTF Blender I/O v4.2.60",
		"version":"2.0"
	},
	"scene":0,
	"scenes":[
		{
			"name":"Scene",
			"nodes":[
				1
			]
		}
	],
	"nodes":[
		{
			"mesh":0,
			"name":"Cube.009",
			"scale":[
				0.6250005960464478,
				34.23915100097656,
				0.5000001192092896
			],
			"translation":[
				0.4556845724582672,
				0.268096923828125,
				-0.03223533555865288
			]
		},
		{
			"children":[
				0
			],
			"name":"Bar6",
			"scale":[
				1,
				0.0009999871253967285,
				1
			],
			"translation":[
				-0.4556846022605896,
				-0.2681085765361786,
				0.03223533555865288
			]
		}
	],
	"animations":[
		{
			"channels":[
				{
					"sampler":0,
					"target":{
						"node":1,
						"path":"scale"
					}
				}
			],
			"name":"Empty.001Action.008",
			"samplers":[
				{
					"input":5,
					"interpolation":"LINEAR",
					"output":6
				}
			]
		}
	],
	"materials":[
		{
			"doubleSided":true,
			"name":"PencereSolar.006",
			"pbrMetallicRoughness":{
				"baseColorFactor":[
					0.9822452664375305,
					0.38132646679878235,
					0.0030353753827512264,
					1
				],
				"metallicFactor":0,
				"roughnessFactor":0.5
			}
		}
	],
	"meshes":[
		{
			"name":"Cube.040",
			"primitives":[
				{
					"attributes":{
						"POSITION":0,
						"NORMAL":1,
						"COLOR_0":2,
						"COLOR_1":3
					},
					"indices":4,
					"material":0
				}
			]
		}
	],
	"accessors":[
		{
			"bufferView":0,
			"componentType":5126,
			"count":24,
			"max":[
				-0.7190945148468018,
				-0.007830468006432056,
				0.074470654129982
			],
			"min":[
				-0.7390944957733154,
				-0.028214270249009132,
				0.05447065830230713
			],
			"type":"VEC3"
		},
		{
			"bufferView":1,
			"componentType":5126,
			"count":24,
			"type":"VEC3"
		},
		{
			"bufferView":2,
			"componentType":5121,
			"count":24,
			"normalized":true,
			"type":"VEC4"
		},
		{
			"bufferView":3,
			"componentType":5126,
			"count":24,
			"type":"VEC3"
		},
		{
			"bufferView":4,
			"componentType":5123,
			"count":36,
			"type":"SCALAR"
		},
		{
			"bufferView":5,
			"componentType":5126,
			"count":29,
			"max":[
				1.1666666666666667
			],
			"min":[
				0
			],
			"type":"SCALAR"
		},
		{
			"bufferView":6,
			"componentType":5126,
			"count":29,
			"type":"VEC3"
		}
	],
	"bufferViews":[
		{
			"buffer":0,
			"byteLength":288,
			"byteOffset":0,
			"target":34962
		},
		{
			"buffer":0,
			"byteLength":288,
			"byteOffset":288,
			"target":34962
		},
		{
			"buffer":0,
			"byteLength":96,
			"byteOffset":576,
			"target":34962
		},
		{
			"buffer":0,
			"byteLength":288,
			"byteOffset":672,
			"target":34962
		},
		{
			"buffer":0,
			"byteLength":72,
			"byteOffset":960,
			"target":34963
		},
		{
			"buffer":0,
			"byteLength":116,
			"byteOffset":1032
		},
		{
			"buffer":0,
			"byteLength":348,
			"byteOffset":1148
		}
	],
	"buffers":[
		{
			"byteLength":1496,
			"uri":"BarV2-6.bin"
		}
	]
}
