{
	"asset":{
		"generator":"Khronos glTF Blender I/O v4.2.60",
		"version":"2.0"
	},
	"scene":0,
	"scenes":[
		{
			"name":"Scene",
			"nodes":[
				0
			]
		}
	],
	"nodes":[
		{
			"mesh":0,
			"name":"\u015fimsek2metin.001",
			"rotation":[
				0.7071068286895752,
				0,
				0,
				0.7071068286895752
			],
			"scale":[
				3.1506853103637695,
				1.5891201496124268,
				3.1506857872009277
			],
			"translation":[
				0,
				0,
				0.027235258370637894
			]
		}
	],
	"materials":[
		{
			"doubleSided":true,
			"name":"PencereSolar.009",
			"pbrMetallicRoughness":{
				"baseColorFactor":[
					0.9822452664375305,
					0.38132646679878235,
					0.0030353753827512264,
					1
				],
				"metallicFactor":0,
				"roughnessFactor":0.5
			}
		}
	],
	"meshes":[
		{
			"name":"Text.066",
			"primitives":[
				{
					"attributes":{
						"POSITION":0,
						"NORMAL":1,
						"TEXCOORD_0":2
					},
					"indices":3,
					"material":0
				}
			]
		}
	],
	"accessors":[
		{
			"bufferView":0,
			"componentType":5126,
			"count":2407,
			"max":[
				-0.09592446684837341,
				0.0010000000474974513,
				0.3494639992713928
			],
			"min":[
				-0.14580334722995758,
				-0.0010000000474974513,
				0.34247907996177673
			],
			"type":"VEC3"
		},
		{
			"bufferView":1,
			"componentType":5126,
			"count":2407,
			"type":"VEC3"
		},
		{
			"bufferView":2,
			"componentType":5126,
			"count":2407,
			"type":"VEC2"
		},
		{
			"bufferView":3,
			"componentType":5123,
			"count":7080,
			"type":"SCALAR"
		}
	],
	"bufferViews":[
		{
			"buffer":0,
			"byteLength":28884,
			"byteOffset":0,
			"target":34962
		},
		{
			"buffer":0,
			"byteLength":28884,
			"byteOffset":28884,
			"target":34962
		},
		{
			"buffer":0,
			"byteLength":19256,
			"byteOffset":57768,
			"target":34962
		},
		{
			"buffer":0,
			"byteLength":14160,
			"byteOffset":77024,
			"target":34963
		}
	],
	"buffers":[
		{
			"byteLength":91184,
			"uri":"Simsek2text.bin"
		}
	]
}
