{
	"asset":{
		"generator":"Khronos glTF Blender I/O v4.2.60",
		"version":"2.0"
	},
	"scene":0,
	"scenes":[
		{
			"name":"Scene",
			"nodes":[
				0,
				1
			]
		}
	],
	"nodes":[
		{
			"mesh":0,
			"name":"Text.008",
			"rotation":[
				0.7071068286895752,
				0,
				0,
				0.7071068286895752
			],
			"scale":[
				3.1506853103637695,
				1.5891201496124268,
				3.1506857872009277
			],
			"translation":[
				0,
				0,
				0.027235254645347595
			]
		},
		{
			"mesh":1,
			"name":"Plane.005",
			"scale":[
				0.0010000001639127731,
				0.0010000001639127731,
				0.0010000001639127731
			],
			"translation":[
				-0.380252867937088,
				-1.0187407732009888,
				0.02722230926156044
			]
		}
	],
	"materials":[
		{
			"doubleSided":true,
			"name":"PencereSolar.009",
			"pbrMetallicRoughness":{
				"baseColorFactor":[
					0.9822452664375305,
					0.38132646679878235,
					0.0030353753827512264,
					1
				],
				"metallicFactor":0,
				"roughnessFactor":0.5
			}
		},
		{
			"doubleSided":true,
			"name":"PencereSolar.005",
			"pbrMetallicRoughness":{
				"baseColorFactor":[
					0.9822452664375305,
					0.38132646679878235,
					0.0030353753827512264,
					1
				],
				"metallicFactor":0,
				"roughnessFactor":0.5
			}
		}
	],
	"meshes":[
		{
			"name":"Text.065",
			"primitives":[
				{
					"attributes":{
						"POSITION":0,
						"NORMAL":1,
						"TEXCOORD_0":2
					},
					"indices":3,
					"material":0
				}
			]
		},
		{
			"name":"Plane.008",
			"primitives":[
				{
					"attributes":{
						"POSITION":4,
						"NORMAL":5,
						"TEXCOORD_0":6
					},
					"indices":7,
					"material":1
				}
			]
		}
	],
	"accessors":[
		{
			"bufferView":0,
			"componentType":5126,
			"count":6088,
			"max":[
				-0.09532909840345383,
				0.0010000000474974513,
				0.36327359080314636
			],
			"min":[
				-0.14616431295871735,
				-0.0010000000474974513,
				0.35621365904808044
			],
			"type":"VEC3"
		},
		{
			"bufferView":1,
			"componentType":5126,
			"count":6088,
			"type":"VEC3"
		},
		{
			"bufferView":2,
			"componentType":5126,
			"count":6088,
			"type":"VEC2"
		},
		{
			"bufferView":3,
			"componentType":5123,
			"count":18144,
			"type":"SCALAR"
		},
		{
			"bufferView":4,
			"componentType":5126,
			"count":54,
			"max":[
				-0.17069777846336365,
				-0.4876691699028015,
				0.02063995786011219
			],
			"min":[
				-0.19276303052902222,
				-0.5274246335029602,
				0.013031264767050743
			],
			"type":"VEC3"
		},
		{
			"bufferView":5,
			"componentType":5126,
			"count":54,
			"type":"VEC3"
		},
		{
			"bufferView":6,
			"componentType":5126,
			"count":54,
			"type":"VEC2"
		},
		{
			"bufferView":7,
			"componentType":5123,
			"count":96,
			"type":"SCALAR"
		}
	],
	"bufferViews":[
		{
			"buffer":0,
			"byteLength":73056,
			"byteOffset":0,
			"target":34962
		},
		{
			"buffer":0,
			"byteLength":73056,
			"byteOffset":73056,
			"target":34962
		},
		{
			"buffer":0,
			"byteLength":48704,
			"byteOffset":146112,
			"target":34962
		},
		{
			"buffer":0,
			"byteLength":36288,
			"byteOffset":194816,
			"target":34963
		},
		{
			"buffer":0,
			"byteLength":648,
			"byteOffset":231104,
			"target":34962
		},
		{
			"buffer":0,
			"byteLength":648,
			"byteOffset":231752,
			"target":34962
		},
		{
			"buffer":0,
			"byteLength":432,
			"byteOffset":232400,
			"target":34962
		},
		{
			"buffer":0,
			"byteLength":192,
			"byteOffset":232832,
			"target":34963
		}
	],
	"buffers":[
		{
			"byteLength":233024,
			"uri":"Simsek1.bin"
		}
	]
}
