{
	"asset":{
		"generator":"Khronos glTF Blender I/O v4.2.60",
		"version":"2.0"
	},
	"scene":0,
	"scenes":[
		{
			"name":"Scene",
			"nodes":[
				0,
				1,
				2
			]
		}
	],
	"nodes":[
		{
			"mesh":0,
			"name":"2.004",
			"rotation":[
				0.7071068286895752,
				0,
				0,
				0.7071068286895752
			],
			"scale":[
				4.310130596160889,
				2.17391300201416,
				4.310131549835205
			],
			"translation":[
				0,
				0,
				0.0020000000949949026
			]
		},
		{
			"mesh":1,
			"name":"2.005",
			"rotation":[
				0.7071068286895752,
				0,
				0,
				0.7071068286895752
			],
			"scale":[
				4.310130596160889,
				2.17391300201416,
				4.310131549835205
			],
			"translation":[
				0,
				0,
				0.0020000000949949026
			]
		},
		{
			"mesh":2,
			"name":"2.4",
			"rotation":[
				0.7071068286895752,
				0,
				0,
				0.7071068286895752
			],
			"scale":[
				4.310130596160889,
				2.17391300201416,
				4.310131549835205
			],
			"translation":[
				0,
				0,
				0.0020000000949949026
			]
		}
	],
	"materials":[
		{
			"doubleSided":true,
			"name":"Material.002",
			"pbrMetallicRoughness":{
				"baseColorFactor":[
					0.7758182287216187,
					0.18116439878940582,
					0.0030353262554854155,
					1
				],
				"metallicFactor":0,
				"roughnessFactor":0.5
			}
		}
	],
	"meshes":[
		{
			"name":"Text.011",
			"primitives":[
				{
					"attributes":{
						"POSITION":0,
						"NORMAL":1,
						"TEXCOORD_0":2
					},
					"indices":3,
					"material":0
				}
			]
		},
		{
			"name":"Text.017",
			"primitives":[
				{
					"attributes":{
						"POSITION":4,
						"NORMAL":5,
						"TEXCOORD_0":6
					},
					"indices":7,
					"material":0
				}
			]
		},
		{
			"name":"Text.018",
			"primitives":[
				{
					"attributes":{
						"POSITION":8,
						"NORMAL":9,
						"TEXCOORD_0":10
					},
					"indices":11,
					"material":0
				}
			]
		}
	],
	"accessors":[
		{
			"bufferView":0,
			"componentType":5126,
			"count":3983,
			"max":[
				-0.0439898706972599,
				0.00745999114587903,
				-0.02738683484494686
			],
			"min":[
				-0.07790188491344452,
				0.005459990818053484,
				-0.03527182340621948
			],
			"type":"VEC3"
		},
		{
			"bufferView":1,
			"componentType":5126,
			"count":3983,
			"type":"VEC3"
		},
		{
			"bufferView":2,
			"componentType":5126,
			"count":3983,
			"type":"VEC2"
		},
		{
			"bufferView":3,
			"componentType":5123,
			"count":11748,
			"type":"SCALAR"
		},
		{
			"bufferView":4,
			"componentType":5126,
			"count":3978,
			"max":[
				-0.002633528085425496,
				0.00745999114587903,
				-0.0298901554197073
			],
			"min":[
				-0.04180532693862915,
				0.005459990818053484,
				-0.036903202533721924
			],
			"type":"VEC3"
		},
		{
			"bufferView":5,
			"componentType":5126,
			"count":3978,
			"type":"VEC3"
		},
		{
			"bufferView":6,
			"componentType":5126,
			"count":3978,
			"type":"VEC2"
		},
		{
			"bufferView":7,
			"componentType":5123,
			"count":11724,
			"type":"SCALAR"
		},
		{
			"bufferView":8,
			"componentType":5126,
			"count":3517,
			"max":[
				-0.08033957332372665,
				0.00745999114587903,
				-0.0298901554197073
			],
			"min":[
				-0.1042008101940155,
				0.005459990818053484,
				-0.036903202533721924
			],
			"type":"VEC3"
		},
		{
			"bufferView":9,
			"componentType":5126,
			"count":3517,
			"type":"VEC3"
		},
		{
			"bufferView":10,
			"componentType":5126,
			"count":3517,
			"type":"VEC2"
		},
		{
			"bufferView":11,
			"componentType":5123,
			"count":10404,
			"type":"SCALAR"
		}
	],
	"bufferViews":[
		{
			"buffer":0,
			"byteLength":47796,
			"byteOffset":0,
			"target":34962
		},
		{
			"buffer":0,
			"byteLength":47796,
			"byteOffset":47796,
			"target":34962
		},
		{
			"buffer":0,
			"byteLength":31864,
			"byteOffset":95592,
			"target":34962
		},
		{
			"buffer":0,
			"byteLength":23496,
			"byteOffset":127456,
			"target":34963
		},
		{
			"buffer":0,
			"byteLength":47736,
			"byteOffset":150952,
			"target":34962
		},
		{
			"buffer":0,
			"byteLength":47736,
			"byteOffset":198688,
			"target":34962
		},
		{
			"buffer":0,
			"byteLength":31824,
			"byteOffset":246424,
			"target":34962
		},
		{
			"buffer":0,
			"byteLength":23448,
			"byteOffset":278248,
			"target":34963
		},
		{
			"buffer":0,
			"byteLength":42204,
			"byteOffset":301696,
			"target":34962
		},
		{
			"buffer":0,
			"byteLength":42204,
			"byteOffset":343900,
			"target":34962
		},
		{
			"buffer":0,
			"byteLength":28136,
			"byteOffset":386104,
			"target":34962
		},
		{
			"buffer":0,
			"byteLength":20808,
			"byteOffset":414240,
			"target":34963
		}
	],
	"buffers":[
		{
			"byteLength":435048,
			"uri":"Soru1.2.bin"
		}
	]
}
