{
	"asset":{
		"generator":"Khronos glTF Blender I/O v4.2.60",
		"version":"2.0"
	},
	"scene":0,
	"scenes":[
		{
			"name":"Scene",
			"nodes":[
				0,
				1
			]
		}
	],
	"nodes":[
		{
			"mesh":0,
			"name":"3.2",
			"rotation":[
				0.7071068286895752,
				0,
				0,
				0.7071068286895752
			],
			"scale":[
				4.310130596160889,
				2.17391300201416,
				4.310131549835205
			],
			"translation":[
				0,
				0,
				0.0020000000949949026
			]
		},
		{
			"mesh":1,
			"name":"3.1",
			"rotation":[
				0.7071068286895752,
				0,
				0,
				0.7071068286895752
			],
			"scale":[
				4.310130596160889,
				2.17391300201416,
				4.310131549835205
			],
			"translation":[
				0,
				0,
				0.0020000000949949026
			]
		}
	],
	"materials":[
		{
			"doubleSided":true,
			"name":"Material.002",
			"pbrMetallicRoughness":{
				"baseColorFactor":[
					0.7758182287216187,
					0.18116439878940582,
					0.0030353262554854155,
					1
				],
				"metallicFactor":0,
				"roughnessFactor":0.5
			}
		}
	],
	"meshes":[
		{
			"name":"Text.010",
			"primitives":[
				{
					"attributes":{
						"POSITION":0,
						"NORMAL":1,
						"TEXCOORD_0":2
					},
					"indices":3,
					"material":0
				}
			]
		},
		{
			"name":"Text.019",
			"primitives":[
				{
					"attributes":{
						"POSITION":4,
						"NORMAL":5,
						"TEXCOORD_0":6
					},
					"indices":7,
					"material":0
				}
			]
		}
	],
	"accessors":[
		{
			"bufferView":0,
			"componentType":5126,
			"count":4307,
			"max":[
				-0.026269761845469475,
				0.007459988817572594,
				0.02296195551753044
			],
			"min":[
				-0.06775736063718796,
				0.005459988489747047,
				0.015939533710479736
			],
			"type":"VEC3"
		},
		{
			"bufferView":1,
			"componentType":5126,
			"count":4307,
			"type":"VEC3"
		},
		{
			"bufferView":2,
			"componentType":5126,
			"count":4307,
			"type":"VEC2"
		},
		{
			"bufferView":3,
			"componentType":5123,
			"count":12660,
			"type":"SCALAR"
		},
		{
			"bufferView":4,
			"componentType":5126,
			"count":3978,
			"max":[
				-0.0703263133764267,
				0.007459988817572594,
				0.02546527609229088
			],
			"min":[
				-0.10423832386732101,
				0.005459988489747047,
				0.017580287531018257
			],
			"type":"VEC3"
		},
		{
			"bufferView":5,
			"componentType":5126,
			"count":3978,
			"type":"VEC3"
		},
		{
			"bufferView":6,
			"componentType":5126,
			"count":3978,
			"type":"VEC2"
		},
		{
			"bufferView":7,
			"componentType":5123,
			"count":11748,
			"type":"SCALAR"
		}
	],
	"bufferViews":[
		{
			"buffer":0,
			"byteLength":51684,
			"byteOffset":0,
			"target":34962
		},
		{
			"buffer":0,
			"byteLength":51684,
			"byteOffset":51684,
			"target":34962
		},
		{
			"buffer":0,
			"byteLength":34456,
			"byteOffset":103368,
			"target":34962
		},
		{
			"buffer":0,
			"byteLength":25320,
			"byteOffset":137824,
			"target":34963
		},
		{
			"buffer":0,
			"byteLength":47736,
			"byteOffset":163144,
			"target":34962
		},
		{
			"buffer":0,
			"byteLength":47736,
			"byteOffset":210880,
			"target":34962
		},
		{
			"buffer":0,
			"byteLength":31824,
			"byteOffset":258616,
			"target":34962
		},
		{
			"buffer":0,
			"byteLength":23496,
			"byteOffset":290440,
			"target":34963
		}
	],
	"buffers":[
		{
			"byteLength":313936,
			"uri":"Soru1.5.bin"
		}
	]
}
