{
	"asset":{
		"generator":"Khronos glTF Blender I/O v4.2.60",
		"version":"2.0"
	},
	"scene":0,
	"scenes":[
		{
			"name":"Scene",
			"nodes":[
				0,
				1,
				2,
				3,
				4
			]
		}
	],
	"nodes":[
		{
			"mesh":0,
			"name":"1.1",
			"rotation":[
				0.7071068286895752,
				0,
				0,
				0.7071068286895752
			],
			"scale":[
				4.310130596160889,
				2.17391300201416,
				4.310131549835205
			],
			"translation":[
				0,
				0,
				0.0020000010263174772
			]
		},
		{
			"mesh":1,
			"name":"1.006",
			"rotation":[
				0.7071068286895752,
				0,
				0,
				0.7071068286895752
			],
			"scale":[
				4.310130596160889,
				2.17391300201416,
				4.310131549835205
			],
			"translation":[
				0,
				0,
				0.0020000010263174772
			]
		},
		{
			"mesh":2,
			"name":"1.007",
			"rotation":[
				0.7071068286895752,
				0,
				0,
				0.7071068286895752
			],
			"scale":[
				4.310130596160889,
				2.17391300201416,
				4.310131549835205
			],
			"translation":[
				0,
				0,
				0.0020000010263174772
			]
		},
		{
			"mesh":3,
			"name":"1.008",
			"rotation":[
				0.7071068286895752,
				0,
				0,
				0.7071068286895752
			],
			"scale":[
				4.310130596160889,
				2.17391300201416,
				4.310131549835205
			],
			"translation":[
				0,
				0,
				0.0020000010263174772
			]
		},
		{
			"mesh":4,
			"name":"1.009",
			"rotation":[
				0.7071068286895752,
				0,
				0,
				0.7071068286895752
			],
			"scale":[
				4.310130596160889,
				2.17391300201416,
				4.310131549835205
			],
			"translation":[
				0,
				0,
				0.0020000010263174772
			]
		}
	],
	"materials":[
		{
			"doubleSided":true,
			"name":"Material.002",
			"pbrMetallicRoughness":{
				"baseColorFactor":[
					0.7758182287216187,
					0.18116439878940582,
					0.0030353262554854155,
					1
				],
				"metallicFactor":0,
				"roughnessFactor":0.5
			}
		}
	],
	"meshes":[
		{
			"name":"Text.012",
			"primitives":[
				{
					"attributes":{
						"POSITION":0,
						"NORMAL":1,
						"TEXCOORD_0":2
					},
					"indices":3,
					"material":0
				}
			]
		},
		{
			"name":"Text.013",
			"primitives":[
				{
					"attributes":{
						"POSITION":4,
						"NORMAL":5,
						"TEXCOORD_0":6
					},
					"indices":7,
					"material":0
				}
			]
		},
		{
			"name":"Text.014",
			"primitives":[
				{
					"attributes":{
						"POSITION":8,
						"NORMAL":9,
						"TEXCOORD_0":10
					},
					"indices":11,
					"material":0
				}
			]
		},
		{
			"name":"Text.015",
			"primitives":[
				{
					"attributes":{
						"POSITION":12,
						"NORMAL":13,
						"TEXCOORD_0":14
					},
					"indices":15,
					"material":0
				}
			]
		},
		{
			"name":"Text.016",
			"primitives":[
				{
					"attributes":{
						"POSITION":16,
						"NORMAL":17,
						"TEXCOORD_0":18
					},
					"indices":19,
					"material":0
				}
			]
		}
	],
	"accessors":[
		{
			"bufferView":0,
			"componentType":5126,
			"count":1068,
			"max":[
				-0.08358357101678848,
				0.007459990214556456,
				-0.041281454265117645
			],
			"min":[
				-0.10391952842473984,
				0.005459989886730909,
				-0.04793822392821312
			],
			"type":"VEC3"
		},
		{
			"bufferView":1,
			"componentType":5126,
			"count":1068,
			"type":"VEC3"
		},
		{
			"bufferView":2,
			"componentType":5126,
			"count":1068,
			"type":"VEC2"
		},
		{
			"bufferView":3,
			"componentType":5123,
			"count":3156,
			"type":"SCALAR"
		},
		{
			"bufferView":4,
			"componentType":5126,
			"count":2197,
			"max":[
				-0.05302806571125984,
				0.007459990214556456,
				-0.0388718917965889
			],
			"min":[
				-0.08098649233579636,
				0.005459989886730909,
				-0.04666312411427498
			],
			"type":"VEC3"
		},
		{
			"bufferView":5,
			"componentType":5126,
			"count":2197,
			"type":"VEC3"
		},
		{
			"bufferView":6,
			"componentType":5126,
			"count":2197,
			"type":"VEC2"
		},
		{
			"bufferView":7,
			"componentType":5123,
			"count":6396,
			"type":"SCALAR"
		},
		{
			"bufferView":8,
			"componentType":5126,
			"count":6263,
			"max":[
				-0.006177546456456184,
				0.007459990214556456,
				-0.03877813741564751
			],
			"min":[
				-0.0504591166973114,
				0.005459989886730909,
				-0.04886642098426819
			],
			"type":"VEC3"
		},
		{
			"bufferView":9,
			"componentType":5126,
			"count":6263,
			"type":"VEC3"
		},
		{
			"bufferView":10,
			"componentType":5126,
			"count":6263,
			"type":"VEC2"
		},
		{
			"bufferView":11,
			"componentType":5123,
			"count":18444,
			"type":"SCALAR"
		},
		{
			"bufferView":12,
			"componentType":5126,
			"count":4695,
			"max":[
				0.02527802810072899,
				0.007459990214556456,
				-0.041281454265117645
			],
			"min":[
				-0.003205440239980817,
				0.005459989886730909,
				-0.04829450324177742
			],
			"type":"VEC3"
		},
		{
			"bufferView":13,
			"componentType":5126,
			"count":4695,
			"type":"VEC3"
		},
		{
			"bufferView":14,
			"componentType":5126,
			"count":4695,
			"type":"VEC2"
		},
		{
			"bufferView":15,
			"componentType":5123,
			"count":13908,
			"type":"SCALAR"
		},
		{
			"bufferView":16,
			"componentType":5126,
			"count":6432,
			"max":[
				0.07965725660324097,
				0.007459990214556456,
				-0.03886251524090767
			],
			"min":[
				0.027865730226039886,
				0.005459989886730909,
				-0.04829450324177742
			],
			"type":"VEC3"
		},
		{
			"bufferView":17,
			"componentType":5126,
			"count":6432,
			"type":"VEC3"
		},
		{
			"bufferView":18,
			"componentType":5126,
			"count":6432,
			"type":"VEC2"
		},
		{
			"bufferView":19,
			"componentType":5123,
			"count":19056,
			"type":"SCALAR"
		}
	],
	"bufferViews":[
		{
			"buffer":0,
			"byteLength":12816,
			"byteOffset":0,
			"target":34962
		},
		{
			"buffer":0,
			"byteLength":12816,
			"byteOffset":12816,
			"target":34962
		},
		{
			"buffer":0,
			"byteLength":8544,
			"byteOffset":25632,
			"target":34962
		},
		{
			"buffer":0,
			"byteLength":6312,
			"byteOffset":34176,
			"target":34963
		},
		{
			"buffer":0,
			"byteLength":26364,
			"byteOffset":40488,
			"target":34962
		},
		{
			"buffer":0,
			"byteLength":26364,
			"byteOffset":66852,
			"target":34962
		},
		{
			"buffer":0,
			"byteLength":17576,
			"byteOffset":93216,
			"target":34962
		},
		{
			"buffer":0,
			"byteLength":12792,
			"byteOffset":110792,
			"target":34963
		},
		{
			"buffer":0,
			"byteLength":75156,
			"byteOffset":123584,
			"target":34962
		},
		{
			"buffer":0,
			"byteLength":75156,
			"byteOffset":198740,
			"target":34962
		},
		{
			"buffer":0,
			"byteLength":50104,
			"byteOffset":273896,
			"target":34962
		},
		{
			"buffer":0,
			"byteLength":36888,
			"byteOffset":324000,
			"target":34963
		},
		{
			"buffer":0,
			"byteLength":56340,
			"byteOffset":360888,
			"target":34962
		},
		{
			"buffer":0,
			"byteLength":56340,
			"byteOffset":417228,
			"target":34962
		},
		{
			"buffer":0,
			"byteLength":37560,
			"byteOffset":473568,
			"target":34962
		},
		{
			"buffer":0,
			"byteLength":27816,
			"byteOffset":511128,
			"target":34963
		},
		{
			"buffer":0,
			"byteLength":77184,
			"byteOffset":538944,
			"target":34962
		},
		{
			"buffer":0,
			"byteLength":77184,
			"byteOffset":616128,
			"target":34962
		},
		{
			"buffer":0,
			"byteLength":51456,
			"byteOffset":693312,
			"target":34962
		},
		{
			"buffer":0,
			"byteLength":38112,
			"byteOffset":744768,
			"target":34963
		}
	],
	"buffers":[
		{
			"byteLength":782880,
			"uri":"Soru1.1.bin"
		}
	]
}
