{
	"asset":{
		"generator":"Khronos glTF Blender I/O v4.2.60",
		"version":"2.0"
	},
	"scene":0,
	"scenes":[
		{
			"name":"Scene",
			"nodes":[
				0,
				1,
				2,
				3,
				4,
				5,
				6,
				7,
				8
			]
		}
	],
	"nodes":[
		{
			"mesh":0,
			"name":"Building_008.004"
		},
		{
			"mesh":1,
			"name":"Building_010.004"
		},
		{
			"mesh":2,
			"name":"Pencere12"
		},
		{
			"mesh":3,
			"name":"Pencere20"
		},
		{
			"mesh":4,
			"name":"Pencere3"
		},
		{
			"mesh":5,
			"name":"Pencere4.002"
		},
		{
			"mesh":6,
			"name":"Pencere40"
		},
		{
			"mesh":7,
			"name":"Pencere48"
		},
		{
			"mesh":8,
			"name":"Pencere7.002"
		}
	],
	"materials":[
		{
			"doubleSided":true,
			"name":"PencereSolar",
			"pbrMetallicRoughness":{
				"baseColorFactor":[
					0.9822452664375305,
					0.38132646679878235,
					0.0030353753827512264,
					1
				],
				"metallicFactor":0,
				"roughnessFactor":0.5
			}
		}
	],
	"meshes":[
		{
			"name":"Building_008_Mesh.005",
			"primitives":[
				{
					"attributes":{
						"POSITION":0,
						"NORMAL":1
					},
					"indices":2,
					"material":0
				}
			]
		},
		{
			"name":"Building_010_Mesh.005",
			"primitives":[
				{
					"attributes":{
						"POSITION":3,
						"NORMAL":4
					},
					"indices":5,
					"material":0
				}
			]
		},
		{
			"name":"Building_029_Mesh.001",
			"primitives":[
				{
					"attributes":{
						"POSITION":6,
						"NORMAL":7
					},
					"indices":8,
					"material":0
				}
			]
		},
		{
			"name":"Building_037_Mesh.001",
			"primitives":[
				{
					"attributes":{
						"POSITION":9,
						"NORMAL":10
					},
					"indices":11,
					"material":0
				}
			]
		},
		{
			"name":"Building_019_Mesh.001",
			"primitives":[
				{
					"attributes":{
						"POSITION":12,
						"NORMAL":13
					},
					"indices":14,
					"material":0
				}
			]
		},
		{
			"name":"Building_072_Mesh.020",
			"primitives":[
				{
					"attributes":{
						"POSITION":15,
						"NORMAL":16
					},
					"indices":17,
					"material":0
				}
			]
		},
		{
			"name":"Building_057_Mesh.001",
			"primitives":[
				{
					"attributes":{
						"POSITION":18,
						"NORMAL":19
					},
					"indices":8,
					"material":0
				}
			]
		},
		{
			"name":"Building_065_Mesh.001",
			"primitives":[
				{
					"attributes":{
						"POSITION":20,
						"NORMAL":21
					},
					"indices":22,
					"material":0
				}
			]
		},
		{
			"name":"Building_075_Mesh.020",
			"primitives":[
				{
					"attributes":{
						"POSITION":23,
						"NORMAL":24
					},
					"indices":25,
					"material":0
				}
			]
		}
	],
	"accessors":[
		{
			"bufferView":0,
			"componentType":5126,
			"count":56,
			"max":[
				-0.32282620668411255,
				-0.40434783697128296,
				0.0423913300037384
			],
			"min":[
				-0.3619566261768341,
				-0.4434782564640045,
				0.0423913300037384
			],
			"type":"VEC3"
		},
		{
			"bufferView":1,
			"componentType":5126,
			"count":56,
			"type":"VEC3"
		},
		{
			"bufferView":2,
			"componentType":5123,
			"count":84,
			"type":"SCALAR"
		},
		{
			"bufferView":3,
			"componentType":5126,
			"count":48,
			"max":[
				-0.3315218389034271,
				-0.583695650100708,
				0.06413046270608902
			],
			"min":[
				-0.35326099395751953,
				-0.6413042545318604,
				0.06413046270608902
			],
			"type":"VEC3"
		},
		{
			"bufferView":4,
			"componentType":5126,
			"count":48,
			"type":"VEC3"
		},
		{
			"bufferView":5,
			"componentType":5123,
			"count":72,
			"type":"SCALAR"
		},
		{
			"bufferView":6,
			"componentType":5126,
			"count":36,
			"max":[
				-0.10326102375984192,
				-0.40434783697128296,
				0.0423913300037384
			],
			"min":[
				-0.12500017881393433,
				-0.4434782564640045,
				0.0423913300037384
			],
			"type":"VEC3"
		},
		{
			"bufferView":7,
			"componentType":5126,
			"count":36,
			"type":"VEC3"
		},
		{
			"bufferView":8,
			"componentType":5123,
			"count":54,
			"type":"SCALAR"
		},
		{
			"bufferView":9,
			"componentType":5126,
			"count":60,
			"max":[
				-0.018478423357009888,
				-0.48586955666542053,
				0.05326090008020401
			],
			"min":[
				-0.057608842849731445,
				-0.541304349899292,
				0.05326090008020401
			],
			"type":"VEC3"
		},
		{
			"bufferView":10,
			"componentType":5126,
			"count":60,
			"type":"VEC3"
		},
		{
			"bufferView":11,
			"componentType":5123,
			"count":90,
			"type":"SCALAR"
		},
		{
			"bufferView":12,
			"componentType":5126,
			"count":30,
			"max":[
				-0.24673926830291748,
				-0.9097825884819031,
				0.0423913300037384
			],
			"min":[
				-0.2858697175979614,
				-0.9326087236404419,
				0.0423913300037384
			],
			"type":"VEC3"
		},
		{
			"bufferView":13,
			"componentType":5126,
			"count":30,
			"type":"VEC3"
		},
		{
			"bufferView":14,
			"componentType":5123,
			"count":48,
			"type":"SCALAR"
		},
		{
			"bufferView":15,
			"componentType":5126,
			"count":80,
			"max":[
				0.36195629835128784,
				-0.48586955666542053,
				0.05326090008020401
			],
			"min":[
				0.32282590866088867,
				-0.5456521511077881,
				0.05326090008020401
			],
			"type":"VEC3"
		},
		{
			"bufferView":16,
			"componentType":5126,
			"count":80,
			"type":"VEC3"
		},
		{
			"bufferView":17,
			"componentType":5123,
			"count":120,
			"type":"SCALAR"
		},
		{
			"bufferView":18,
			"componentType":5126,
			"count":36,
			"max":[
				0.20108675956726074,
				-0.40434783697128296,
				0.06413046270608902
			],
			"min":[
				0.17934763431549072,
				-0.44565218687057495,
				0.06413046270608902
			],
			"type":"VEC3"
		},
		{
			"bufferView":19,
			"componentType":5126,
			"count":36,
			"type":"VEC3"
		},
		{
			"bufferView":20,
			"componentType":5126,
			"count":48,
			"max":[
				0.2858693599700928,
				-0.502173900604248,
				0.06413046270608902
			],
			"min":[
				0.2467389702796936,
				-0.54347825050354,
				0.06413046270608902
			],
			"type":"VEC3"
		},
		{
			"bufferView":21,
			"componentType":5126,
			"count":48,
			"type":"VEC3"
		},
		{
			"bufferView":22,
			"componentType":5123,
			"count":72,
			"type":"SCALAR"
		},
		{
			"bufferView":23,
			"componentType":5126,
			"count":32,
			"max":[
				0.36195629835128784,
				-0.811956524848938,
				0.05326090008020401
			],
			"min":[
				0.32282590866088867,
				-0.834782600402832,
				0.05326090008020401
			],
			"type":"VEC3"
		},
		{
			"bufferView":24,
			"componentType":5126,
			"count":32,
			"type":"VEC3"
		},
		{
			"bufferView":25,
			"componentType":5123,
			"count":48,
			"type":"SCALAR"
		}
	],
	"bufferViews":[
		{
			"buffer":0,
			"byteLength":672,
			"byteOffset":0,
			"target":34962
		},
		{
			"buffer":0,
			"byteLength":672,
			"byteOffset":672,
			"target":34962
		},
		{
			"buffer":0,
			"byteLength":168,
			"byteOffset":1344,
			"target":34963
		},
		{
			"buffer":0,
			"byteLength":576,
			"byteOffset":1512,
			"target":34962
		},
		{
			"buffer":0,
			"byteLength":576,
			"byteOffset":2088,
			"target":34962
		},
		{
			"buffer":0,
			"byteLength":144,
			"byteOffset":2664,
			"target":34963
		},
		{
			"buffer":0,
			"byteLength":432,
			"byteOffset":2808,
			"target":34962
		},
		{
			"buffer":0,
			"byteLength":432,
			"byteOffset":3240,
			"target":34962
		},
		{
			"buffer":0,
			"byteLength":108,
			"byteOffset":3672,
			"target":34963
		},
		{
			"buffer":0,
			"byteLength":720,
			"byteOffset":3780,
			"target":34962
		},
		{
			"buffer":0,
			"byteLength":720,
			"byteOffset":4500,
			"target":34962
		},
		{
			"buffer":0,
			"byteLength":180,
			"byteOffset":5220,
			"target":34963
		},
		{
			"buffer":0,
			"byteLength":360,
			"byteOffset":5400,
			"target":34962
		},
		{
			"buffer":0,
			"byteLength":360,
			"byteOffset":5760,
			"target":34962
		},
		{
			"buffer":0,
			"byteLength":96,
			"byteOffset":6120,
			"target":34963
		},
		{
			"buffer":0,
			"byteLength":960,
			"byteOffset":6216,
			"target":34962
		},
		{
			"buffer":0,
			"byteLength":960,
			"byteOffset":7176,
			"target":34962
		},
		{
			"buffer":0,
			"byteLength":240,
			"byteOffset":8136,
			"target":34963
		},
		{
			"buffer":0,
			"byteLength":432,
			"byteOffset":8376,
			"target":34962
		},
		{
			"buffer":0,
			"byteLength":432,
			"byteOffset":8808,
			"target":34962
		},
		{
			"buffer":0,
			"byteLength":576,
			"byteOffset":9240,
			"target":34962
		},
		{
			"buffer":0,
			"byteLength":576,
			"byteOffset":9816,
			"target":34962
		},
		{
			"buffer":0,
			"byteLength":144,
			"byteOffset":10392,
			"target":34963
		},
		{
			"buffer":0,
			"byteLength":384,
			"byteOffset":10536,
			"target":34962
		},
		{
			"buffer":0,
			"byteLength":384,
			"byteOffset":10920,
			"target":34962
		},
		{
			"buffer":0,
			"byteLength":96,
			"byteOffset":11304,
			"target":34963
		}
	],
	"buffers":[
		{
			"byteLength":11400,
			"uri":"PencereGrup3.bin"
		}
	]
}
