{
	"asset":{
		"generator":"Khronos glTF Blender I/O v4.2.60",
		"version":"2.0"
	},
	"scene":0,
	"scenes":[
		{
			"name":"Scene",
			"nodes":[
				0,
				1,
				2,
				3,
				4,
				5,
				6,
				7
			]
		}
	],
	"nodes":[
		{
			"mesh":0,
			"name":"Building_003.004"
		},
		{
			"mesh":1,
			"name":"Building_016.004"
		},
		{
			"mesh":2,
			"name":"Pencere11"
		},
		{
			"mesh":3,
			"name":"Pencere2"
		},
		{
			"mesh":4,
			"name":"Pencere27"
		},
		{
			"mesh":5,
			"name":"Pencere47"
		},
		{
			"mesh":6,
			"name":"Pencere50"
		},
		{
			"mesh":7,
			"name":"Pencere8.002"
		}
	],
	"materials":[
		{
			"doubleSided":true,
			"name":"PencereSolar",
			"pbrMetallicRoughness":{
				"baseColorFactor":[
					0.9822452664375305,
					0.38132646679878235,
					0.0030353753827512264,
					1
				],
				"metallicFactor":0,
				"roughnessFactor":0.5
			}
		}
	],
	"meshes":[
		{
			"name":"Building_003_Mesh.005",
			"primitives":[
				{
					"attributes":{
						"POSITION":0,
						"NORMAL":1
					},
					"indices":2,
					"material":0
				}
			]
		},
		{
			"name":"Building_016_Mesh.005",
			"primitives":[
				{
					"attributes":{
						"POSITION":3,
						"NORMAL":4
					},
					"indices":5,
					"material":0
				}
			]
		},
		{
			"name":"Building_028_Mesh.001",
			"primitives":[
				{
					"attributes":{
						"POSITION":6,
						"NORMAL":7
					},
					"indices":8,
					"material":0
				}
			]
		},
		{
			"name":"Building_020_Mesh.010",
			"primitives":[
				{
					"attributes":{
						"POSITION":9,
						"NORMAL":10
					},
					"indices":11,
					"material":0
				}
			]
		},
		{
			"name":"Building_044_Mesh.001",
			"primitives":[
				{
					"attributes":{
						"POSITION":12,
						"NORMAL":13
					},
					"indices":14,
					"material":0
				}
			]
		},
		{
			"name":"Building_064_Mesh.001",
			"primitives":[
				{
					"attributes":{
						"POSITION":15,
						"NORMAL":16
					},
					"indices":17,
					"material":0
				}
			]
		},
		{
			"name":"Building_067_Mesh.001",
			"primitives":[
				{
					"attributes":{
						"POSITION":18,
						"NORMAL":19
					},
					"indices":20,
					"material":0
				}
			]
		},
		{
			"name":"Building_076_Mesh.020",
			"primitives":[
				{
					"attributes":{
						"POSITION":21,
						"NORMAL":22
					},
					"indices":23,
					"material":0
				}
			]
		}
	],
	"accessors":[
		{
			"bufferView":0,
			"componentType":5126,
			"count":39,
			"max":[
				-0.4076088070869446,
				-0.6000000238418579,
				0.06413046270608902
			],
			"min":[
				-0.4293479323387146,
				-0.6413043737411499,
				0.06413046270608902
			],
			"type":"VEC3"
		},
		{
			"bufferView":1,
			"componentType":5126,
			"count":39,
			"type":"VEC3"
		},
		{
			"bufferView":2,
			"componentType":5123,
			"count":63,
			"type":"SCALAR"
		},
		{
			"bufferView":3,
			"componentType":5126,
			"count":44,
			"max":[
				-0.25543493032455444,
				-0.48586955666542053,
				0.06413045525550842
			],
			"min":[
				-0.27717405557632446,
				-0.54347825050354,
				0.06413045525550842
			],
			"type":"VEC3"
		},
		{
			"bufferView":4,
			"componentType":5126,
			"count":44,
			"type":"VEC3"
		},
		{
			"bufferView":5,
			"componentType":5123,
			"count":66,
			"type":"SCALAR"
		},
		{
			"bufferView":6,
			"componentType":5126,
			"count":38,
			"max":[
				-0.10326102375984192,
				-0.3065217137336731,
				0.0423913300037384
			],
			"min":[
				-0.12500014901161194,
				-0.34565210342407227,
				0.0423913300037384
			],
			"type":"VEC3"
		},
		{
			"bufferView":7,
			"componentType":5126,
			"count":38,
			"type":"VEC3"
		},
		{
			"bufferView":8,
			"componentType":5123,
			"count":60,
			"type":"SCALAR"
		},
		{
			"bufferView":9,
			"componentType":5126,
			"count":64,
			"max":[
				-0.24673926830291748,
				-0.7956521511077881,
				0.06413046270608902
			],
			"min":[
				-0.28586968779563904,
				-0.8369565010070801,
				0.06413046270608902
			],
			"type":"VEC3"
		},
		{
			"bufferView":10,
			"componentType":5126,
			"count":64,
			"type":"VEC3"
		},
		{
			"bufferView":11,
			"componentType":5123,
			"count":96,
			"type":"SCALAR"
		},
		{
			"bufferView":12,
			"componentType":5126,
			"count":28,
			"max":[
				0.05760854482650757,
				-0.518478274345398,
				0.0423913300037384
			],
			"min":[
				0.018478095531463623,
				-0.5456521511077881,
				0.0423913300037384
			],
			"type":"VEC3"
		},
		{
			"bufferView":13,
			"componentType":5126,
			"count":28,
			"type":"VEC3"
		},
		{
			"bufferView":14,
			"componentType":5123,
			"count":42,
			"type":"SCALAR"
		},
		{
			"bufferView":15,
			"componentType":5126,
			"count":56,
			"max":[
				0.2858693599700928,
				-0.38804346323013306,
				0.0423913300037384
			],
			"min":[
				0.24673891067504883,
				-0.44565218687057495,
				0.0423913300037384
			],
			"type":"VEC3"
		},
		{
			"bufferView":16,
			"componentType":5126,
			"count":56,
			"type":"VEC3"
		},
		{
			"bufferView":17,
			"componentType":5123,
			"count":84,
			"type":"SCALAR"
		},
		{
			"bufferView":18,
			"componentType":5126,
			"count":48,
			"max":[
				0.2771736979484558,
				-0.6815217137336731,
				0.06413046270608902
			],
			"min":[
				0.2554345726966858,
				-0.739130437374115,
				0.06413046270608902
			],
			"type":"VEC3"
		},
		{
			"bufferView":19,
			"componentType":5126,
			"count":48,
			"type":"VEC3"
		},
		{
			"bufferView":20,
			"componentType":5123,
			"count":72,
			"type":"SCALAR"
		},
		{
			"bufferView":21,
			"componentType":5126,
			"count":68,
			"max":[
				0.36195629835128784,
				-0.893478274345398,
				0.06413046270608902
			],
			"min":[
				0.32282590866088867,
				-0.936956524848938,
				0.06413046270608902
			],
			"type":"VEC3"
		},
		{
			"bufferView":22,
			"componentType":5126,
			"count":68,
			"type":"VEC3"
		},
		{
			"bufferView":23,
			"componentType":5123,
			"count":102,
			"type":"SCALAR"
		}
	],
	"bufferViews":[
		{
			"buffer":0,
			"byteLength":468,
			"byteOffset":0,
			"target":34962
		},
		{
			"buffer":0,
			"byteLength":468,
			"byteOffset":468,
			"target":34962
		},
		{
			"buffer":0,
			"byteLength":126,
			"byteOffset":936,
			"target":34963
		},
		{
			"buffer":0,
			"byteLength":528,
			"byteOffset":1064,
			"target":34962
		},
		{
			"buffer":0,
			"byteLength":528,
			"byteOffset":1592,
			"target":34962
		},
		{
			"buffer":0,
			"byteLength":132,
			"byteOffset":2120,
			"target":34963
		},
		{
			"buffer":0,
			"byteLength":456,
			"byteOffset":2252,
			"target":34962
		},
		{
			"buffer":0,
			"byteLength":456,
			"byteOffset":2708,
			"target":34962
		},
		{
			"buffer":0,
			"byteLength":120,
			"byteOffset":3164,
			"target":34963
		},
		{
			"buffer":0,
			"byteLength":768,
			"byteOffset":3284,
			"target":34962
		},
		{
			"buffer":0,
			"byteLength":768,
			"byteOffset":4052,
			"target":34962
		},
		{
			"buffer":0,
			"byteLength":192,
			"byteOffset":4820,
			"target":34963
		},
		{
			"buffer":0,
			"byteLength":336,
			"byteOffset":5012,
			"target":34962
		},
		{
			"buffer":0,
			"byteLength":336,
			"byteOffset":5348,
			"target":34962
		},
		{
			"buffer":0,
			"byteLength":84,
			"byteOffset":5684,
			"target":34963
		},
		{
			"buffer":0,
			"byteLength":672,
			"byteOffset":5768,
			"target":34962
		},
		{
			"buffer":0,
			"byteLength":672,
			"byteOffset":6440,
			"target":34962
		},
		{
			"buffer":0,
			"byteLength":168,
			"byteOffset":7112,
			"target":34963
		},
		{
			"buffer":0,
			"byteLength":576,
			"byteOffset":7280,
			"target":34962
		},
		{
			"buffer":0,
			"byteLength":576,
			"byteOffset":7856,
			"target":34962
		},
		{
			"buffer":0,
			"byteLength":144,
			"byteOffset":8432,
			"target":34963
		},
		{
			"buffer":0,
			"byteLength":816,
			"byteOffset":8576,
			"target":34962
		},
		{
			"buffer":0,
			"byteLength":816,
			"byteOffset":9392,
			"target":34962
		},
		{
			"buffer":0,
			"byteLength":204,
			"byteOffset":10208,
			"target":34963
		}
	],
	"buffers":[
		{
			"byteLength":10412,
			"uri":"PencereGrup4.bin"
		}
	]
}
