{
	"asset":{
		"generator":"Khronos glTF Blender I/O v4.2.60",
		"version":"2.0"
	},
	"scene":0,
	"scenes":[
		{
			"name":"Scene",
			"nodes":[
				0,
				1,
				2,
				3,
				4,
				5,
				6,
				7
			]
		}
	],
	"nodes":[
		{
			"mesh":0,
			"name":"Building_006.004"
		},
		{
			"mesh":1,
			"name":"Building_007.004"
		},
		{
			"mesh":2,
			"name":"Pencere10"
		},
		{
			"mesh":3,
			"name":"Pencere19"
		},
		{
			"mesh":4,
			"name":"Pencere2.002"
		},
		{
			"mesh":5,
			"name":"Pencere30"
		},
		{
			"mesh":6,
			"name":"Pencere39"
		},
		{
			"mesh":7,
			"name":"Pencere42"
		}
	],
	"materials":[
		{
			"doubleSided":true,
			"name":"PencereSolar",
			"pbrMetallicRoughness":{
				"baseColorFactor":[
					0.9822452664375305,
					0.38132646679878235,
					0.0030353753827512264,
					1
				],
				"metallicFactor":0,
				"roughnessFactor":0.5
			}
		}
	],
	"meshes":[
		{
			"name":"Building_006_Mesh.005",
			"primitives":[
				{
					"attributes":{
						"POSITION":0,
						"NORMAL":1
					},
					"indices":2,
					"material":0
				}
			]
		},
		{
			"name":"Building_007_Mesh.005",
			"primitives":[
				{
					"attributes":{
						"POSITION":3,
						"NORMAL":4
					},
					"indices":5,
					"material":0
				}
			]
		},
		{
			"name":"Building_027_Mesh.001",
			"primitives":[
				{
					"attributes":{
						"POSITION":6,
						"NORMAL":7
					},
					"indices":8,
					"material":0
				}
			]
		},
		{
			"name":"Building_036_Mesh.001",
			"primitives":[
				{
					"attributes":{
						"POSITION":9,
						"NORMAL":10
					},
					"indices":8,
					"material":0
				}
			]
		},
		{
			"name":"Building_070_Mesh.020",
			"primitives":[
				{
					"attributes":{
						"POSITION":11,
						"NORMAL":12
					},
					"indices":13,
					"material":0
				}
			]
		},
		{
			"name":"Building_047_Mesh.001",
			"primitives":[
				{
					"attributes":{
						"POSITION":14,
						"NORMAL":15
					},
					"indices":16,
					"material":0
				}
			]
		},
		{
			"name":"Building_056_Mesh.001",
			"primitives":[
				{
					"attributes":{
						"POSITION":17,
						"NORMAL":18
					},
					"indices":19,
					"material":0
				}
			]
		},
		{
			"name":"Building_059_Mesh.001",
			"primitives":[
				{
					"attributes":{
						"POSITION":20,
						"NORMAL":21
					},
					"indices":22,
					"material":0
				}
			]
		}
	],
	"accessors":[
		{
			"bufferView":0,
			"componentType":5126,
			"count":76,
			"max":[
				-0.3989131450653076,
				-0.877173900604248,
				0.06413046270608902
			],
			"min":[
				-0.43804359436035156,
				-0.936956524848938,
				0.06413046270608902
			],
			"type":"VEC3"
		},
		{
			"bufferView":1,
			"componentType":5126,
			"count":76,
			"type":"VEC3"
		},
		{
			"bufferView":2,
			"componentType":5123,
			"count":120,
			"type":"SCALAR"
		},
		{
			"bufferView":3,
			"componentType":5126,
			"count":28,
			"max":[
				-0.32282620668411255,
				-0.3228260278701782,
				0.05326090008020401
			],
			"min":[
				-0.3619566261768341,
				-0.34565210342407227,
				0.05326090008020401
			],
			"type":"VEC3"
		},
		{
			"bufferView":4,
			"componentType":5126,
			"count":28,
			"type":"VEC3"
		},
		{
			"bufferView":5,
			"componentType":5123,
			"count":42,
			"type":"SCALAR"
		},
		{
			"bufferView":6,
			"componentType":5126,
			"count":36,
			"max":[
				-0.179347962141037,
				-0.893478274345398,
				0.05326090008020401
			],
			"min":[
				-0.201087087392807,
				-0.936956524848938,
				0.05326090008020401
			],
			"type":"VEC3"
		},
		{
			"bufferView":7,
			"componentType":5126,
			"count":36,
			"type":"VEC3"
		},
		{
			"bufferView":8,
			"componentType":5123,
			"count":54,
			"type":"SCALAR"
		},
		{
			"bufferView":9,
			"componentType":5126,
			"count":36,
			"max":[
				-0.02717408537864685,
				-0.40434783697128296,
				0.05326090008020401
			],
			"min":[
				-0.04891321063041687,
				-0.4434782564640045,
				0.05326090008020401
			],
			"type":"VEC3"
		},
		{
			"bufferView":10,
			"componentType":5126,
			"count":36,
			"type":"VEC3"
		},
		{
			"bufferView":11,
			"componentType":5126,
			"count":38,
			"max":[
				0.3532606363296509,
				-0.3065217137336731,
				0.0423913300037384
			],
			"min":[
				0.33152157068252563,
				-0.34565210342407227,
				0.0423913300037384
			],
			"type":"VEC3"
		},
		{
			"bufferView":12,
			"componentType":5126,
			"count":38,
			"type":"VEC3"
		},
		{
			"bufferView":13,
			"componentType":5123,
			"count":60,
			"type":"SCALAR"
		},
		{
			"bufferView":14,
			"componentType":5126,
			"count":60,
			"max":[
				0.05760854482650757,
				-0.7956521511077881,
				0.05326089262962341
			],
			"min":[
				0.018478095531463623,
				-0.8391304016113281,
				0.05326089262962341
			],
			"type":"VEC3"
		},
		{
			"bufferView":15,
			"componentType":5126,
			"count":60,
			"type":"VEC3"
		},
		{
			"bufferView":16,
			"componentType":5123,
			"count":90,
			"type":"SCALAR"
		},
		{
			"bufferView":17,
			"componentType":5126,
			"count":56,
			"max":[
				0.2097824215888977,
				-0.3065217137336731,
				0.0423913300037384
			],
			"min":[
				0.17065197229385376,
				-0.34565216302871704,
				0.0423913300037384
			],
			"type":"VEC3"
		},
		{
			"bufferView":18,
			"componentType":5126,
			"count":56,
			"type":"VEC3"
		},
		{
			"bufferView":19,
			"componentType":5123,
			"count":84,
			"type":"SCALAR"
		},
		{
			"bufferView":20,
			"componentType":5126,
			"count":64,
			"max":[
				0.2097824215888977,
				-0.5999999642372131,
				0.05326090008020401
			],
			"min":[
				0.17065197229385376,
				-0.6413043737411499,
				0.05326090008020401
			],
			"type":"VEC3"
		},
		{
			"bufferView":21,
			"componentType":5126,
			"count":64,
			"type":"VEC3"
		},
		{
			"bufferView":22,
			"componentType":5123,
			"count":96,
			"type":"SCALAR"
		}
	],
	"bufferViews":[
		{
			"buffer":0,
			"byteLength":912,
			"byteOffset":0,
			"target":34962
		},
		{
			"buffer":0,
			"byteLength":912,
			"byteOffset":912,
			"target":34962
		},
		{
			"buffer":0,
			"byteLength":240,
			"byteOffset":1824,
			"target":34963
		},
		{
			"buffer":0,
			"byteLength":336,
			"byteOffset":2064,
			"target":34962
		},
		{
			"buffer":0,
			"byteLength":336,
			"byteOffset":2400,
			"target":34962
		},
		{
			"buffer":0,
			"byteLength":84,
			"byteOffset":2736,
			"target":34963
		},
		{
			"buffer":0,
			"byteLength":432,
			"byteOffset":2820,
			"target":34962
		},
		{
			"buffer":0,
			"byteLength":432,
			"byteOffset":3252,
			"target":34962
		},
		{
			"buffer":0,
			"byteLength":108,
			"byteOffset":3684,
			"target":34963
		},
		{
			"buffer":0,
			"byteLength":432,
			"byteOffset":3792,
			"target":34962
		},
		{
			"buffer":0,
			"byteLength":432,
			"byteOffset":4224,
			"target":34962
		},
		{
			"buffer":0,
			"byteLength":456,
			"byteOffset":4656,
			"target":34962
		},
		{
			"buffer":0,
			"byteLength":456,
			"byteOffset":5112,
			"target":34962
		},
		{
			"buffer":0,
			"byteLength":120,
			"byteOffset":5568,
			"target":34963
		},
		{
			"buffer":0,
			"byteLength":720,
			"byteOffset":5688,
			"target":34962
		},
		{
			"buffer":0,
			"byteLength":720,
			"byteOffset":6408,
			"target":34962
		},
		{
			"buffer":0,
			"byteLength":180,
			"byteOffset":7128,
			"target":34963
		},
		{
			"buffer":0,
			"byteLength":672,
			"byteOffset":7308,
			"target":34962
		},
		{
			"buffer":0,
			"byteLength":672,
			"byteOffset":7980,
			"target":34962
		},
		{
			"buffer":0,
			"byteLength":168,
			"byteOffset":8652,
			"target":34963
		},
		{
			"buffer":0,
			"byteLength":768,
			"byteOffset":8820,
			"target":34962
		},
		{
			"buffer":0,
			"byteLength":768,
			"byteOffset":9588,
			"target":34962
		},
		{
			"buffer":0,
			"byteLength":192,
			"byteOffset":10356,
			"target":34963
		}
	],
	"buffers":[
		{
			"byteLength":10548,
			"uri":"PencereGrup7.bin"
		}
	]
}
