{
	"asset":{
		"generator":"Khronos glTF Blender I/O v4.2.60",
		"version":"2.0"
	},
	"scene":0,
	"scenes":[
		{
			"name":"Scene",
			"nodes":[
				0,
				1,
				2,
				3,
				4,
				5,
				6,
				7
			]
		}
	],
	"nodes":[
		{
			"mesh":0,
			"name":"Building_002.004"
		},
		{
			"mesh":1,
			"name":"Building_014.004"
		},
		{
			"mesh":2,
			"name":"Pencere10.002"
		},
		{
			"mesh":3,
			"name":"Pencere15.002"
		},
		{
			"mesh":4,
			"name":"Pencere34"
		},
		{
			"mesh":5,
			"name":"Pencere38"
		},
		{
			"mesh":6,
			"name":"Pencere43"
		},
		{
			"mesh":7,
			"name":"Pencere6"
		}
	],
	"materials":[
		{
			"doubleSided":true,
			"name":"PencereSolar",
			"pbrMetallicRoughness":{
				"baseColorFactor":[
					0.9822452664375305,
					0.38132646679878235,
					0.0030353753827512264,
					1
				],
				"metallicFactor":0,
				"roughnessFactor":0.5
			}
		}
	],
	"meshes":[
		{
			"name":"Building_002_Mesh.005",
			"primitives":[
				{
					"attributes":{
						"POSITION":0,
						"NORMAL":1
					},
					"indices":2,
					"material":0
				}
			]
		},
		{
			"name":"Building_014_Mesh.005",
			"primitives":[
				{
					"attributes":{
						"POSITION":3,
						"NORMAL":4
					},
					"indices":5,
					"material":0
				}
			]
		},
		{
			"name":"Building_078_Mesh.020",
			"primitives":[
				{
					"attributes":{
						"POSITION":6,
						"NORMAL":7
					},
					"indices":8,
					"material":0
				}
			]
		},
		{
			"name":"Building_083_Mesh.020",
			"primitives":[
				{
					"attributes":{
						"POSITION":9,
						"NORMAL":10
					},
					"indices":11,
					"material":0
				}
			]
		},
		{
			"name":"Building_051_Mesh.001",
			"primitives":[
				{
					"attributes":{
						"POSITION":12,
						"NORMAL":13
					},
					"indices":14,
					"material":0
				}
			]
		},
		{
			"name":"Building_055_Mesh.001",
			"primitives":[
				{
					"attributes":{
						"POSITION":15,
						"NORMAL":16
					},
					"indices":17,
					"material":0
				}
			]
		},
		{
			"name":"Building_060_Mesh.001",
			"primitives":[
				{
					"attributes":{
						"POSITION":18,
						"NORMAL":19
					},
					"indices":20,
					"material":0
				}
			]
		},
		{
			"name":"Building_023_Mesh.001",
			"primitives":[
				{
					"attributes":{
						"POSITION":21,
						"NORMAL":22
					},
					"indices":23,
					"material":0
				}
			]
		}
	],
	"accessors":[
		{
			"bufferView":0,
			"componentType":5126,
			"count":38,
			"max":[
				-0.4076088070869446,
				-0.502173900604248,
				0.0423913300037384
			],
			"min":[
				-0.4293479323387146,
				-0.541304349899292,
				0.0423913300037384
			],
			"type":"VEC3"
		},
		{
			"bufferView":1,
			"componentType":5126,
			"count":38,
			"type":"VEC3"
		},
		{
			"bufferView":2,
			"componentType":5123,
			"count":60,
			"type":"SCALAR"
		},
		{
			"bufferView":3,
			"componentType":5126,
			"count":32,
			"max":[
				-0.24673926830291748,
				-0.322826087474823,
				0.06413045525550842
			],
			"min":[
				-0.28586968779563904,
				-0.34565216302871704,
				0.06413045525550842
			],
			"type":"VEC3"
		},
		{
			"bufferView":4,
			"componentType":5126,
			"count":32,
			"type":"VEC3"
		},
		{
			"bufferView":5,
			"componentType":5123,
			"count":48,
			"type":"SCALAR"
		},
		{
			"bufferView":6,
			"componentType":5126,
			"count":24,
			"max":[
				0.4380432367324829,
				-0.42065221071243286,
				0.05326090008020401
			],
			"min":[
				0.39891284704208374,
				-0.4478260576725006,
				0.05326090008020401
			],
			"type":"VEC3"
		},
		{
			"bufferView":7,
			"componentType":5126,
			"count":24,
			"type":"VEC3"
		},
		{
			"bufferView":8,
			"componentType":5123,
			"count":36,
			"type":"SCALAR"
		},
		{
			"bufferView":9,
			"componentType":5126,
			"count":28,
			"max":[
				0.4380432963371277,
				-0.9097825884819031,
				0.05326090008020401
			],
			"min":[
				0.39891284704208374,
				-0.9347826242446899,
				0.05326090008020401
			],
			"type":"VEC3"
		},
		{
			"bufferView":10,
			"componentType":5126,
			"count":28,
			"type":"VEC3"
		},
		{
			"bufferView":11,
			"componentType":5123,
			"count":42,
			"type":"SCALAR"
		},
		{
			"bufferView":12,
			"componentType":5126,
			"count":63,
			"max":[
				0.13369548320770264,
				-0.502173900604248,
				0.05326090008020401
			],
			"min":[
				0.09456509351730347,
				-0.541304349899292,
				0.05326090008020401
			],
			"type":"VEC3"
		},
		{
			"bufferView":13,
			"componentType":5126,
			"count":63,
			"type":"VEC3"
		},
		{
			"bufferView":14,
			"componentType":5123,
			"count":93,
			"type":"SCALAR"
		},
		{
			"bufferView":15,
			"componentType":5126,
			"count":30,
			"max":[
				0.1336955428123474,
				-0.9097825884819031,
				0.05326090008020401
			],
			"min":[
				0.09456509351730347,
				-0.9326087236404419,
				0.05326090008020401
			],
			"type":"VEC3"
		},
		{
			"bufferView":16,
			"componentType":5126,
			"count":30,
			"type":"VEC3"
		},
		{
			"bufferView":17,
			"componentType":5123,
			"count":48,
			"type":"SCALAR"
		},
		{
			"bufferView":18,
			"componentType":5126,
			"count":48,
			"max":[
				0.2097824215888977,
				-0.697826087474823,
				0.0423913300037384
			],
			"min":[
				0.17065197229385376,
				-0.7369564771652222,
				0.0423913300037384
			],
			"type":"VEC3"
		},
		{
			"bufferView":19,
			"componentType":5126,
			"count":48,
			"type":"VEC3"
		},
		{
			"bufferView":20,
			"componentType":5123,
			"count":72,
			"type":"SCALAR"
		},
		{
			"bufferView":21,
			"componentType":5126,
			"count":60,
			"max":[
				-0.17065230011940002,
				-0.502173900604248,
				0.0423913300037384
			],
			"min":[
				-0.20978273451328278,
				-0.5456521511077881,
				0.0423913300037384
			],
			"type":"VEC3"
		},
		{
			"bufferView":22,
			"componentType":5126,
			"count":60,
			"type":"VEC3"
		},
		{
			"bufferView":23,
			"componentType":5123,
			"count":90,
			"type":"SCALAR"
		}
	],
	"bufferViews":[
		{
			"buffer":0,
			"byteLength":456,
			"byteOffset":0,
			"target":34962
		},
		{
			"buffer":0,
			"byteLength":456,
			"byteOffset":456,
			"target":34962
		},
		{
			"buffer":0,
			"byteLength":120,
			"byteOffset":912,
			"target":34963
		},
		{
			"buffer":0,
			"byteLength":384,
			"byteOffset":1032,
			"target":34962
		},
		{
			"buffer":0,
			"byteLength":384,
			"byteOffset":1416,
			"target":34962
		},
		{
			"buffer":0,
			"byteLength":96,
			"byteOffset":1800,
			"target":34963
		},
		{
			"buffer":0,
			"byteLength":288,
			"byteOffset":1896,
			"target":34962
		},
		{
			"buffer":0,
			"byteLength":288,
			"byteOffset":2184,
			"target":34962
		},
		{
			"buffer":0,
			"byteLength":72,
			"byteOffset":2472,
			"target":34963
		},
		{
			"buffer":0,
			"byteLength":336,
			"byteOffset":2544,
			"target":34962
		},
		{
			"buffer":0,
			"byteLength":336,
			"byteOffset":2880,
			"target":34962
		},
		{
			"buffer":0,
			"byteLength":84,
			"byteOffset":3216,
			"target":34963
		},
		{
			"buffer":0,
			"byteLength":756,
			"byteOffset":3300,
			"target":34962
		},
		{
			"buffer":0,
			"byteLength":756,
			"byteOffset":4056,
			"target":34962
		},
		{
			"buffer":0,
			"byteLength":186,
			"byteOffset":4812,
			"target":34963
		},
		{
			"buffer":0,
			"byteLength":360,
			"byteOffset":5000,
			"target":34962
		},
		{
			"buffer":0,
			"byteLength":360,
			"byteOffset":5360,
			"target":34962
		},
		{
			"buffer":0,
			"byteLength":96,
			"byteOffset":5720,
			"target":34963
		},
		{
			"buffer":0,
			"byteLength":576,
			"byteOffset":5816,
			"target":34962
		},
		{
			"buffer":0,
			"byteLength":576,
			"byteOffset":6392,
			"target":34962
		},
		{
			"buffer":0,
			"byteLength":144,
			"byteOffset":6968,
			"target":34963
		},
		{
			"buffer":0,
			"byteLength":720,
			"byteOffset":7112,
			"target":34962
		},
		{
			"buffer":0,
			"byteLength":720,
			"byteOffset":7832,
			"target":34962
		},
		{
			"buffer":0,
			"byteLength":180,
			"byteOffset":8552,
			"target":34963
		}
	],
	"buffers":[
		{
			"byteLength":8732,
			"uri":"PencereGrup10.bin"
		}
	]
}
