{
	"asset":{
		"generator":"Khronos glTF Blender I/O v4.2.60",
		"version":"2.0"
	},
	"scene":0,
	"scenes":[
		{
			"name":"Scene",
			"nodes":[
				0,
				1,
				2,
				3,
				4,
				5,
				6,
				7,
				8
			]
		}
	],
	"nodes":[
		{
			"mesh":0,
			"name":"Building_013.004"
		},
		{
			"mesh":1,
			"name":"Building_018.009"
		},
		{
			"mesh":2,
			"name":"Pencere1.002"
		},
		{
			"mesh":3,
			"name":"Pencere18"
		},
		{
			"mesh":4,
			"name":"Pencere28"
		},
		{
			"mesh":5,
			"name":"Pencere29"
		},
		{
			"mesh":6,
			"name":"Pencere41"
		},
		{
			"mesh":7,
			"name":"Pencere46"
		},
		{
			"mesh":8,
			"name":"Pencere9.002"
		}
	],
	"materials":[
		{
			"doubleSided":true,
			"name":"PencereSolar",
			"pbrMetallicRoughness":{
				"baseColorFactor":[
					0.9822452664375305,
					0.38132646679878235,
					0.0030353753827512264,
					1
				],
				"metallicFactor":0,
				"roughnessFactor":0.5
			}
		}
	],
	"meshes":[
		{
			"name":"Building_013_Mesh.005",
			"primitives":[
				{
					"attributes":{
						"POSITION":0,
						"NORMAL":1
					},
					"indices":2,
					"material":0
				}
			]
		},
		{
			"name":"Building_018_Mesh.003",
			"primitives":[
				{
					"attributes":{
						"POSITION":3,
						"NORMAL":4
					},
					"indices":5,
					"material":0
				}
			]
		},
		{
			"name":"Building_069_Mesh.020",
			"primitives":[
				{
					"attributes":{
						"POSITION":6,
						"NORMAL":7
					},
					"indices":8,
					"material":0
				}
			]
		},
		{
			"name":"Building_035_Mesh.001",
			"primitives":[
				{
					"attributes":{
						"POSITION":9,
						"NORMAL":10
					},
					"indices":11,
					"material":0
				}
			]
		},
		{
			"name":"Building_045_Mesh.001",
			"primitives":[
				{
					"attributes":{
						"POSITION":12,
						"NORMAL":13
					},
					"indices":11,
					"material":0
				}
			]
		},
		{
			"name":"Building_046_Mesh.001",
			"primitives":[
				{
					"attributes":{
						"POSITION":14,
						"NORMAL":15
					},
					"indices":16,
					"material":0
				}
			]
		},
		{
			"name":"Building_058_Mesh.001",
			"primitives":[
				{
					"attributes":{
						"POSITION":17,
						"NORMAL":18
					},
					"indices":19,
					"material":0
				}
			]
		},
		{
			"name":"Building_063_Mesh.001",
			"primitives":[
				{
					"attributes":{
						"POSITION":20,
						"NORMAL":21
					},
					"indices":22,
					"material":0
				}
			]
		},
		{
			"name":"Building_077_Mesh.020",
			"primitives":[
				{
					"attributes":{
						"POSITION":23,
						"NORMAL":24
					},
					"indices":5,
					"material":0
				}
			]
		}
	],
	"accessors":[
		{
			"bufferView":0,
			"componentType":5126,
			"count":48,
			"max":[
				-0.32282620668411255,
				-0.893478274345398,
				0.0423913300037384
			],
			"min":[
				-0.3619566261768341,
				-0.9347826242446899,
				0.0423913300037384
			],
			"type":"VEC3"
		},
		{
			"bufferView":1,
			"componentType":5126,
			"count":48,
			"type":"VEC3"
		},
		{
			"bufferView":2,
			"componentType":5123,
			"count":72,
			"type":"SCALAR"
		},
		{
			"bufferView":3,
			"componentType":5126,
			"count":32,
			"max":[
				-0.24673926830291748,
				-0.7141304016113281,
				0.05267394334077835
			],
			"min":[
				-0.28586968779563904,
				-0.741304337978363,
				0.05267394334077835
			],
			"type":"VEC3"
		},
		{
			"bufferView":4,
			"componentType":5126,
			"count":32,
			"type":"VEC3"
		},
		{
			"bufferView":5,
			"componentType":5123,
			"count":48,
			"type":"SCALAR"
		},
		{
			"bufferView":6,
			"componentType":5126,
			"count":36,
			"max":[
				0.2771737575531006,
				-0.893478274345398,
				0.0423913300037384
			],
			"min":[
				0.2554345726966858,
				-0.936956524848938,
				0.0423913300037384
			],
			"type":"VEC3"
		},
		{
			"bufferView":7,
			"componentType":5126,
			"count":36,
			"type":"VEC3"
		},
		{
			"bufferView":8,
			"componentType":5123,
			"count":54,
			"type":"SCALAR"
		},
		{
			"bufferView":9,
			"componentType":5126,
			"count":20,
			"max":[
				-0.027174055576324463,
				-0.322826087474823,
				0.05326090008020401
			],
			"min":[
				-0.04891318082809448,
				-0.3500000238418579,
				0.05326090008020401
			],
			"type":"VEC3"
		},
		{
			"bufferView":10,
			"componentType":5126,
			"count":20,
			"type":"VEC3"
		},
		{
			"bufferView":11,
			"componentType":5123,
			"count":30,
			"type":"SCALAR"
		},
		{
			"bufferView":12,
			"componentType":5126,
			"count":20,
			"max":[
				0.04891291260719299,
				-0.616304337978363,
				0.06413046270608902
			],
			"min":[
				0.027173757553100586,
				-0.643478274345398,
				0.06413046270608902
			],
			"type":"VEC3"
		},
		{
			"bufferView":13,
			"componentType":5126,
			"count":20,
			"type":"VEC3"
		},
		{
			"bufferView":14,
			"componentType":5126,
			"count":18,
			"max":[
				0.048912882804870605,
				-0.7141304016113281,
				0.05326090008020401
			],
			"min":[
				0.027173727750778198,
				-0.739130437374115,
				0.05326090008020401
			],
			"type":"VEC3"
		},
		{
			"bufferView":15,
			"componentType":5126,
			"count":18,
			"type":"VEC3"
		},
		{
			"bufferView":16,
			"componentType":5123,
			"count":30,
			"type":"SCALAR"
		},
		{
			"bufferView":17,
			"componentType":5126,
			"count":16,
			"max":[
				0.20108681917190552,
				-0.518478274345398,
				0.0423913337290287
			],
			"min":[
				0.17934763431549072,
				-0.541304349899292,
				0.0423913337290287
			],
			"type":"VEC3"
		},
		{
			"bufferView":18,
			"componentType":5126,
			"count":16,
			"type":"VEC3"
		},
		{
			"bufferView":19,
			"componentType":5123,
			"count":24,
			"type":"SCALAR"
		},
		{
			"bufferView":20,
			"componentType":5126,
			"count":63,
			"max":[
				0.2858693599700928,
				-0.3065217137336731,
				0.0423913300037384
			],
			"min":[
				0.24673891067504883,
				-0.34565210342407227,
				0.0423913300037384
			],
			"type":"VEC3"
		},
		{
			"bufferView":21,
			"componentType":5126,
			"count":63,
			"type":"VEC3"
		},
		{
			"bufferView":22,
			"componentType":5123,
			"count":93,
			"type":"SCALAR"
		},
		{
			"bufferView":23,
			"componentType":5126,
			"count":32,
			"max":[
				0.4380432963371277,
				-0.322826087474823,
				0.06413046270608902
			],
			"min":[
				0.39891284704208374,
				-0.34999996423721313,
				0.06413046270608902
			],
			"type":"VEC3"
		},
		{
			"bufferView":24,
			"componentType":5126,
			"count":32,
			"type":"VEC3"
		}
	],
	"bufferViews":[
		{
			"buffer":0,
			"byteLength":576,
			"byteOffset":0,
			"target":34962
		},
		{
			"buffer":0,
			"byteLength":576,
			"byteOffset":576,
			"target":34962
		},
		{
			"buffer":0,
			"byteLength":144,
			"byteOffset":1152,
			"target":34963
		},
		{
			"buffer":0,
			"byteLength":384,
			"byteOffset":1296,
			"target":34962
		},
		{
			"buffer":0,
			"byteLength":384,
			"byteOffset":1680,
			"target":34962
		},
		{
			"buffer":0,
			"byteLength":96,
			"byteOffset":2064,
			"target":34963
		},
		{
			"buffer":0,
			"byteLength":432,
			"byteOffset":2160,
			"target":34962
		},
		{
			"buffer":0,
			"byteLength":432,
			"byteOffset":2592,
			"target":34962
		},
		{
			"buffer":0,
			"byteLength":108,
			"byteOffset":3024,
			"target":34963
		},
		{
			"buffer":0,
			"byteLength":240,
			"byteOffset":3132,
			"target":34962
		},
		{
			"buffer":0,
			"byteLength":240,
			"byteOffset":3372,
			"target":34962
		},
		{
			"buffer":0,
			"byteLength":60,
			"byteOffset":3612,
			"target":34963
		},
		{
			"buffer":0,
			"byteLength":240,
			"byteOffset":3672,
			"target":34962
		},
		{
			"buffer":0,
			"byteLength":240,
			"byteOffset":3912,
			"target":34962
		},
		{
			"buffer":0,
			"byteLength":216,
			"byteOffset":4152,
			"target":34962
		},
		{
			"buffer":0,
			"byteLength":216,
			"byteOffset":4368,
			"target":34962
		},
		{
			"buffer":0,
			"byteLength":60,
			"byteOffset":4584,
			"target":34963
		},
		{
			"buffer":0,
			"byteLength":192,
			"byteOffset":4644,
			"target":34962
		},
		{
			"buffer":0,
			"byteLength":192,
			"byteOffset":4836,
			"target":34962
		},
		{
			"buffer":0,
			"byteLength":48,
			"byteOffset":5028,
			"target":34963
		},
		{
			"buffer":0,
			"byteLength":756,
			"byteOffset":5076,
			"target":34962
		},
		{
			"buffer":0,
			"byteLength":756,
			"byteOffset":5832,
			"target":34962
		},
		{
			"buffer":0,
			"byteLength":186,
			"byteOffset":6588,
			"target":34963
		},
		{
			"buffer":0,
			"byteLength":384,
			"byteOffset":6776,
			"target":34962
		},
		{
			"buffer":0,
			"byteLength":384,
			"byteOffset":7160,
			"target":34962
		}
	],
	"buffers":[
		{
			"byteLength":7544,
			"uri":"PencereGrup9.bin"
		}
	]
}
