{
	"asset":{
		"generator":"Khronos glTF Blender I/O v4.2.60",
		"version":"2.0"
	},
	"scene":0,
	"scenes":[
		{
			"name":"Scene",
			"nodes":[
				0,
				1,
				2,
				3,
				4,
				5,
				6,
				7
			]
		}
	],
	"nodes":[
		{
			"mesh":0,
			"name":"Building_001.004"
		},
		{
			"mesh":1,
			"name":"Pencere11.002"
		},
		{
			"mesh":2,
			"name":"Pencere16"
		},
		{
			"mesh":3,
			"name":"Pencere22"
		},
		{
			"mesh":4,
			"name":"Pencere32"
		},
		{
			"mesh":5,
			"name":"Pencere33"
		},
		{
			"mesh":6,
			"name":"Pencere44"
		},
		{
			"mesh":7,
			"name":"Pencere45"
		}
	],
	"materials":[
		{
			"doubleSided":true,
			"name":"PencereSolar",
			"pbrMetallicRoughness":{
				"baseColorFactor":[
					0.9822452664375305,
					0.38132646679878235,
					0.0030353753827512264,
					1
				],
				"metallicFactor":0,
				"roughnessFactor":0.5
			}
		}
	],
	"meshes":[
		{
			"name":"Building_001_Mesh.005",
			"primitives":[
				{
					"attributes":{
						"POSITION":0,
						"NORMAL":1
					},
					"indices":2,
					"material":0
				}
			]
		},
		{
			"name":"Building_079_Mesh.020",
			"primitives":[
				{
					"attributes":{
						"POSITION":3,
						"NORMAL":4
					},
					"indices":5,
					"material":0
				}
			]
		},
		{
			"name":"Building_033_Mesh.001",
			"primitives":[
				{
					"attributes":{
						"POSITION":6,
						"NORMAL":7
					},
					"indices":8,
					"material":0
				}
			]
		},
		{
			"name":"Building_039_Mesh.001",
			"primitives":[
				{
					"attributes":{
						"POSITION":9,
						"NORMAL":10
					},
					"indices":11,
					"material":0
				}
			]
		},
		{
			"name":"Building_049_Mesh.001",
			"primitives":[
				{
					"attributes":{
						"POSITION":12,
						"NORMAL":13
					},
					"indices":14,
					"material":0
				}
			]
		},
		{
			"name":"Building_050_Mesh.001",
			"primitives":[
				{
					"attributes":{
						"POSITION":15,
						"NORMAL":16
					},
					"indices":11,
					"material":0
				}
			]
		},
		{
			"name":"Building_061_Mesh.001",
			"primitives":[
				{
					"attributes":{
						"POSITION":17,
						"NORMAL":18
					},
					"indices":19,
					"material":0
				}
			]
		},
		{
			"name":"Building_062_Mesh.001",
			"primitives":[
				{
					"attributes":{
						"POSITION":20,
						"NORMAL":21
					},
					"indices":22,
					"material":0
				}
			]
		}
	],
	"accessors":[
		{
			"bufferView":0,
			"componentType":5126,
			"count":48,
			"max":[
				-0.3989131450653076,
				-0.40434783697128296,
				0.0423913300037384
			],
			"min":[
				-0.43804359436035156,
				-0.44347822666168213,
				0.0423913300037384
			],
			"type":"VEC3"
		},
		{
			"bufferView":1,
			"componentType":5126,
			"count":48,
			"type":"VEC3"
		},
		{
			"bufferView":2,
			"componentType":5123,
			"count":72,
			"type":"SCALAR"
		},
		{
			"bufferView":3,
			"componentType":5126,
			"count":36,
			"max":[
				0.4293476939201355,
				-0.502173900604248,
				0.0423913300037384
			],
			"min":[
				0.4076085090637207,
				-0.5456521511077881,
				0.0423913300037384
			],
			"type":"VEC3"
		},
		{
			"bufferView":4,
			"componentType":5126,
			"count":36,
			"type":"VEC3"
		},
		{
			"bufferView":5,
			"componentType":5123,
			"count":54,
			"type":"SCALAR"
		},
		{
			"bufferView":6,
			"componentType":5126,
			"count":38,
			"max":[
				-0.10326102375984192,
				-0.7956521511077881,
				0.0423913300037384
			],
			"min":[
				-0.12500014901161194,
				-0.834782600402832,
				0.0423913300037384
			],
			"type":"VEC3"
		},
		{
			"bufferView":7,
			"componentType":5126,
			"count":38,
			"type":"VEC3"
		},
		{
			"bufferView":8,
			"componentType":5123,
			"count":60,
			"type":"SCALAR"
		},
		{
			"bufferView":9,
			"componentType":5126,
			"count":32,
			"max":[
				-0.018478423357009888,
				-0.7141304016113281,
				0.05326090008020401
			],
			"min":[
				-0.057608842849731445,
				-0.7369564771652222,
				0.05326090008020401
			],
			"type":"VEC3"
		},
		{
			"bufferView":10,
			"componentType":5126,
			"count":32,
			"type":"VEC3"
		},
		{
			"bufferView":11,
			"componentType":5123,
			"count":48,
			"type":"SCALAR"
		},
		{
			"bufferView":12,
			"componentType":5126,
			"count":72,
			"max":[
				0.13369548320770264,
				-0.29021739959716797,
				0.06413046270608902
			],
			"min":[
				0.09456509351730347,
				-0.34565216302871704,
				0.06413046270608902
			],
			"type":"VEC3"
		},
		{
			"bufferView":13,
			"componentType":5126,
			"count":72,
			"type":"VEC3"
		},
		{
			"bufferView":14,
			"componentType":5123,
			"count":108,
			"type":"SCALAR"
		},
		{
			"bufferView":15,
			"componentType":5126,
			"count":32,
			"max":[
				0.13369548320770264,
				-0.42065221071243286,
				0.0423913300037384
			],
			"min":[
				0.09456509351730347,
				-0.4434782564640045,
				0.0423913300037384
			],
			"type":"VEC3"
		},
		{
			"bufferView":16,
			"componentType":5126,
			"count":32,
			"type":"VEC3"
		},
		{
			"bufferView":17,
			"componentType":5126,
			"count":76,
			"max":[
				0.2097824215888977,
				-0.7793477773666382,
				0.0423913300037384
			],
			"min":[
				0.17065197229385376,
				-0.834782600402832,
				0.0423913300037384
			],
			"type":"VEC3"
		},
		{
			"bufferView":18,
			"componentType":5126,
			"count":76,
			"type":"VEC3"
		},
		{
			"bufferView":19,
			"componentType":5123,
			"count":114,
			"type":"SCALAR"
		},
		{
			"bufferView":20,
			"componentType":5126,
			"count":39,
			"max":[
				0.20108675956726074,
				-0.893478274345398,
				0.06413046270608902
			],
			"min":[
				0.17934763431549072,
				-0.9347826242446899,
				0.06413046270608902
			],
			"type":"VEC3"
		},
		{
			"bufferView":21,
			"componentType":5126,
			"count":39,
			"type":"VEC3"
		},
		{
			"bufferView":22,
			"componentType":5123,
			"count":63,
			"type":"SCALAR"
		}
	],
	"bufferViews":[
		{
			"buffer":0,
			"byteLength":576,
			"byteOffset":0,
			"target":34962
		},
		{
			"buffer":0,
			"byteLength":576,
			"byteOffset":576,
			"target":34962
		},
		{
			"buffer":0,
			"byteLength":144,
			"byteOffset":1152,
			"target":34963
		},
		{
			"buffer":0,
			"byteLength":432,
			"byteOffset":1296,
			"target":34962
		},
		{
			"buffer":0,
			"byteLength":432,
			"byteOffset":1728,
			"target":34962
		},
		{
			"buffer":0,
			"byteLength":108,
			"byteOffset":2160,
			"target":34963
		},
		{
			"buffer":0,
			"byteLength":456,
			"byteOffset":2268,
			"target":34962
		},
		{
			"buffer":0,
			"byteLength":456,
			"byteOffset":2724,
			"target":34962
		},
		{
			"buffer":0,
			"byteLength":120,
			"byteOffset":3180,
			"target":34963
		},
		{
			"buffer":0,
			"byteLength":384,
			"byteOffset":3300,
			"target":34962
		},
		{
			"buffer":0,
			"byteLength":384,
			"byteOffset":3684,
			"target":34962
		},
		{
			"buffer":0,
			"byteLength":96,
			"byteOffset":4068,
			"target":34963
		},
		{
			"buffer":0,
			"byteLength":864,
			"byteOffset":4164,
			"target":34962
		},
		{
			"buffer":0,
			"byteLength":864,
			"byteOffset":5028,
			"target":34962
		},
		{
			"buffer":0,
			"byteLength":216,
			"byteOffset":5892,
			"target":34963
		},
		{
			"buffer":0,
			"byteLength":384,
			"byteOffset":6108,
			"target":34962
		},
		{
			"buffer":0,
			"byteLength":384,
			"byteOffset":6492,
			"target":34962
		},
		{
			"buffer":0,
			"byteLength":912,
			"byteOffset":6876,
			"target":34962
		},
		{
			"buffer":0,
			"byteLength":912,
			"byteOffset":7788,
			"target":34962
		},
		{
			"buffer":0,
			"byteLength":228,
			"byteOffset":8700,
			"target":34963
		},
		{
			"buffer":0,
			"byteLength":468,
			"byteOffset":8928,
			"target":34962
		},
		{
			"buffer":0,
			"byteLength":468,
			"byteOffset":9396,
			"target":34962
		},
		{
			"buffer":0,
			"byteLength":126,
			"byteOffset":9864,
			"target":34963
		}
	],
	"buffers":[
		{
			"byteLength":9992,
			"uri":"PencereGrup8.bin"
		}
	]
}
