{
	"asset":{
		"generator":"Khronos glTF Blender I/O v4.2.60",
		"version":"2.0"
	},
	"scene":0,
	"scenes":[
		{
			"name":"Scene",
			"nodes":[
				0,
				1,
				2,
				3,
				4,
				5
			]
		}
	],
	"nodes":[
		{
			"mesh":0,
			"name":"Building_071.014"
		},
		{
			"mesh":1,
			"name":"Building_071.015"
		},
		{
			"mesh":2,
			"name":"Building_071.016"
		},
		{
			"mesh":3,
			"name":"Building_082.014"
		},
		{
			"mesh":4,
			"name":"Building_082.015"
		},
		{
			"mesh":5,
			"name":"Building_082.016"
		}
	],
	"materials":[
		{
			"doubleSided":true,
			"name":"BinaGrid",
			"pbrMetallicRoughness":{
				"baseColorFactor":[
					0.2874388098716736,
					0.3371638357639313,
					0.4178852438926697,
					1
				],
				"metallicFactor":0,
				"roughnessFactor":0.5
			}
		},
		{
			"doubleSided":true,
			"name":"PencereGrid",
			"pbrMetallicRoughness":{
				"baseColorFactor":[
					0.1499587893486023,
					0.17464761435985565,
					0.2122308313846588,
					1
				],
				"metallicFactor":0,
				"roughnessFactor":0.699999988079071
			}
		},
		{
			"doubleSided":true,
			"name":"Kap\u0131Grid",
			"pbrMetallicRoughness":{
				"baseColorFactor":[
					0.2874388098716736,
					0.3371638357639313,
					0.4178852438926697,
					1
				],
				"metallicFactor":0,
				"roughnessFactor":0.699999988079071
			}
		}
	],
	"meshes":[
		{
			"name":"Building_071_Mesh.014",
			"primitives":[
				{
					"attributes":{
						"POSITION":0,
						"NORMAL":1
					},
					"indices":2,
					"material":0
				}
			]
		},
		{
			"name":"Building_071_Mesh.015",
			"primitives":[
				{
					"attributes":{
						"POSITION":3,
						"NORMAL":4
					},
					"indices":5,
					"material":1
				}
			]
		},
		{
			"name":"Building_071_Mesh.016",
			"primitives":[
				{
					"attributes":{
						"POSITION":6,
						"NORMAL":7
					},
					"indices":8,
					"material":2
				}
			]
		},
		{
			"name":"Building_082_Mesh.014",
			"primitives":[
				{
					"attributes":{
						"POSITION":9,
						"NORMAL":10
					},
					"indices":11,
					"material":0
				}
			]
		},
		{
			"name":"Building_082_Mesh.015",
			"primitives":[
				{
					"attributes":{
						"POSITION":12,
						"NORMAL":13
					},
					"indices":14,
					"material":1
				}
			]
		},
		{
			"name":"Building_082_Mesh.016",
			"primitives":[
				{
					"attributes":{
						"POSITION":15,
						"NORMAL":16
					},
					"indices":8,
					"material":2
				}
			]
		}
	],
	"accessors":[
		{
			"bufferView":0,
			"componentType":5126,
			"count":1288,
			"max":[
				0.36684757471084595,
				-0.3728260397911072,
				0.05434785038232803
			],
			"min":[
				0.317934513092041,
				-0.45108696818351746,
				2.561137080192566e-08
			],
			"type":"VEC3"
		},
		{
			"bufferView":1,
			"componentType":5126,
			"count":1288,
			"type":"VEC3"
		},
		{
			"bufferView":2,
			"componentType":5123,
			"count":4650,
			"type":"SCALAR"
		},
		{
			"bufferView":3,
			"componentType":5126,
			"count":76,
			"max":[
				0.36195629835128784,
				-0.38804346323013306,
				0.05217394232749939
			],
			"min":[
				0.32282590866088867,
				-0.4434782564640045,
				0.05217394232749939
			],
			"type":"VEC3"
		},
		{
			"bufferView":4,
			"componentType":5126,
			"count":76,
			"type":"VEC3"
		},
		{
			"bufferView":5,
			"componentType":5123,
			"count":114,
			"type":"SCALAR"
		},
		{
			"bufferView":6,
			"componentType":5126,
			"count":4,
			"max":[
				0.36195629835128784,
				-0.436956524848938,
				0.05217394232749939
			],
			"min":[
				0.3554345369338989,
				-0.45108696818351746,
				0.05217394232749939
			],
			"type":"VEC3"
		},
		{
			"bufferView":7,
			"componentType":5126,
			"count":4,
			"type":"VEC3"
		},
		{
			"bufferView":8,
			"componentType":5123,
			"count":6,
			"type":"SCALAR"
		},
		{
			"bufferView":9,
			"componentType":5126,
			"count":308,
			"max":[
				0.43478238582611084,
				-0.7967391014099121,
				0.06521742045879364
			],
			"min":[
				0.4021736979484558,
				-0.8423912525177002,
				2.9802322387695312e-08
			],
			"type":"VEC3"
		},
		{
			"bufferView":10,
			"componentType":5126,
			"count":308,
			"type":"VEC3"
		},
		{
			"bufferView":11,
			"componentType":5123,
			"count":750,
			"type":"SCALAR"
		},
		{
			"bufferView":12,
			"componentType":5126,
			"count":16,
			"max":[
				0.4293476939201355,
				-0.811956524848938,
				0.0630435049533844
			],
			"min":[
				0.4076085090637207,
				-0.834782600402832,
				0.0630435049533844
			],
			"type":"VEC3"
		},
		{
			"bufferView":13,
			"componentType":5126,
			"count":16,
			"type":"VEC3"
		},
		{
			"bufferView":14,
			"componentType":5123,
			"count":24,
			"type":"SCALAR"
		},
		{
			"bufferView":15,
			"componentType":5126,
			"count":4,
			"max":[
				0.4293476343154907,
				-0.8282608389854431,
				0.0630435049533844
			],
			"min":[
				0.420651912689209,
				-0.8423912525177002,
				0.0630435049533844
			],
			"type":"VEC3"
		},
		{
			"bufferView":16,
			"componentType":5126,
			"count":4,
			"type":"VEC3"
		}
	],
	"bufferViews":[
		{
			"buffer":0,
			"byteLength":15456,
			"byteOffset":0,
			"target":34962
		},
		{
			"buffer":0,
			"byteLength":15456,
			"byteOffset":15456,
			"target":34962
		},
		{
			"buffer":0,
			"byteLength":9300,
			"byteOffset":30912,
			"target":34963
		},
		{
			"buffer":0,
			"byteLength":912,
			"byteOffset":40212,
			"target":34962
		},
		{
			"buffer":0,
			"byteLength":912,
			"byteOffset":41124,
			"target":34962
		},
		{
			"buffer":0,
			"byteLength":228,
			"byteOffset":42036,
			"target":34963
		},
		{
			"buffer":0,
			"byteLength":48,
			"byteOffset":42264,
			"target":34962
		},
		{
			"buffer":0,
			"byteLength":48,
			"byteOffset":42312,
			"target":34962
		},
		{
			"buffer":0,
			"byteLength":12,
			"byteOffset":42360,
			"target":34963
		},
		{
			"buffer":0,
			"byteLength":3696,
			"byteOffset":42372,
			"target":34962
		},
		{
			"buffer":0,
			"byteLength":3696,
			"byteOffset":46068,
			"target":34962
		},
		{
			"buffer":0,
			"byteLength":1500,
			"byteOffset":49764,
			"target":34963
		},
		{
			"buffer":0,
			"byteLength":192,
			"byteOffset":51264,
			"target":34962
		},
		{
			"buffer":0,
			"byteLength":192,
			"byteOffset":51456,
			"target":34962
		},
		{
			"buffer":0,
			"byteLength":48,
			"byteOffset":51648,
			"target":34963
		},
		{
			"buffer":0,
			"byteLength":48,
			"byteOffset":51696,
			"target":34962
		},
		{
			"buffer":0,
			"byteLength":48,
			"byteOffset":51744,
			"target":34962
		}
	],
	"buffers":[
		{
			"byteLength":51792,
			"uri":"BinaGrup1.bin"
		}
	]
}
