{
	"asset":{
		"generator":"Khronos glTF Blender I/O v4.2.60",
		"version":"2.0"
	},
	"scene":0,
	"scenes":[
		{
			"name":"Scene",
			"nodes":[
				0,
				1,
				2,
				3,
				4,
				5,
				6,
				7,
				8,
				9,
				10,
				11,
				12,
				13,
				14,
				15,
				16,
				17
			]
		}
	],
	"nodes":[
		{
			"mesh":0,
			"name":"Building_035.016"
		},
		{
			"mesh":1,
			"name":"Building_035.017"
		},
		{
			"mesh":2,
			"name":"Building_035.018"
		},
		{
			"mesh":3,
			"name":"Building_043.016"
		},
		{
			"mesh":4,
			"name":"Building_043.017"
		},
		{
			"mesh":5,
			"name":"Building_043.018"
		},
		{
			"mesh":6,
			"name":"Building_045.016"
		},
		{
			"mesh":7,
			"name":"Building_045.017"
		},
		{
			"mesh":8,
			"name":"Building_045.018"
		},
		{
			"mesh":9,
			"name":"Building_050.016"
		},
		{
			"mesh":10,
			"name":"Building_050.017"
		},
		{
			"mesh":11,
			"name":"Building_050.018"
		},
		{
			"mesh":12,
			"name":"Building_068.016"
		},
		{
			"mesh":13,
			"name":"Building_068.017"
		},
		{
			"mesh":14,
			"name":"Building_068.018"
		},
		{
			"mesh":15,
			"name":"Building_083.014"
		},
		{
			"mesh":16,
			"name":"Building_083.015"
		},
		{
			"mesh":17,
			"name":"Building_083.016"
		}
	],
	"materials":[
		{
			"doubleSided":true,
			"name":"BinaGrid",
			"pbrMetallicRoughness":{
				"baseColorFactor":[
					0.2874388098716736,
					0.3371638357639313,
					0.4178852438926697,
					1
				],
				"metallicFactor":0,
				"roughnessFactor":0.5
			}
		},
		{
			"doubleSided":true,
			"name":"PencereGrid",
			"pbrMetallicRoughness":{
				"baseColorFactor":[
					0.1499587893486023,
					0.17464761435985565,
					0.2122308313846588,
					1
				],
				"metallicFactor":0,
				"roughnessFactor":0.699999988079071
			}
		},
		{
			"doubleSided":true,
			"name":"Kap\u0131Grid",
			"pbrMetallicRoughness":{
				"baseColorFactor":[
					0.2874388098716736,
					0.3371638357639313,
					0.4178852438926697,
					1
				],
				"metallicFactor":0,
				"roughnessFactor":0.699999988079071
			}
		}
	],
	"meshes":[
		{
			"name":"Building_035_Mesh.018",
			"primitives":[
				{
					"attributes":{
						"POSITION":0,
						"NORMAL":1
					},
					"indices":2,
					"material":0
				}
			]
		},
		{
			"name":"Building_035_Mesh.019",
			"primitives":[
				{
					"attributes":{
						"POSITION":3,
						"NORMAL":4
					},
					"indices":5,
					"material":1
				}
			]
		},
		{
			"name":"Building_035_Mesh.020",
			"primitives":[
				{
					"attributes":{
						"POSITION":6,
						"NORMAL":7
					},
					"indices":8,
					"material":2
				}
			]
		},
		{
			"name":"Building_043_Mesh.018",
			"primitives":[
				{
					"attributes":{
						"POSITION":9,
						"NORMAL":10
					},
					"indices":11,
					"material":0
				}
			]
		},
		{
			"name":"Building_043_Mesh.019",
			"primitives":[
				{
					"attributes":{
						"POSITION":12,
						"NORMAL":13
					},
					"indices":14,
					"material":1
				}
			]
		},
		{
			"name":"Building_043_Mesh.020",
			"primitives":[
				{
					"attributes":{
						"POSITION":15,
						"NORMAL":16
					},
					"indices":8,
					"material":2
				}
			]
		},
		{
			"name":"Building_045_Mesh.018",
			"primitives":[
				{
					"attributes":{
						"POSITION":17,
						"NORMAL":18
					},
					"indices":19,
					"material":0
				}
			]
		},
		{
			"name":"Building_045_Mesh.019",
			"primitives":[
				{
					"attributes":{
						"POSITION":20,
						"NORMAL":21
					},
					"indices":5,
					"material":1
				}
			]
		},
		{
			"name":"Building_045_Mesh.020",
			"primitives":[
				{
					"attributes":{
						"POSITION":22,
						"NORMAL":23
					},
					"indices":8,
					"material":2
				}
			]
		},
		{
			"name":"Building_050_Mesh.018",
			"primitives":[
				{
					"attributes":{
						"POSITION":24,
						"NORMAL":25
					},
					"indices":26,
					"material":0
				}
			]
		},
		{
			"name":"Building_050_Mesh.019",
			"primitives":[
				{
					"attributes":{
						"POSITION":27,
						"NORMAL":28
					},
					"indices":29,
					"material":1
				}
			]
		},
		{
			"name":"Building_050_Mesh.020",
			"primitives":[
				{
					"attributes":{
						"POSITION":30,
						"NORMAL":31
					},
					"indices":8,
					"material":2
				}
			]
		},
		{
			"name":"Building_068_Mesh.018",
			"primitives":[
				{
					"attributes":{
						"POSITION":32,
						"NORMAL":33
					},
					"indices":34,
					"material":0
				}
			]
		},
		{
			"name":"Building_068_Mesh.019",
			"primitives":[
				{
					"attributes":{
						"POSITION":35,
						"NORMAL":36
					},
					"indices":37,
					"material":1
				}
			]
		},
		{
			"name":"Building_068_Mesh.020",
			"primitives":[
				{
					"attributes":{
						"POSITION":38,
						"NORMAL":39
					},
					"indices":8,
					"material":2
				}
			]
		},
		{
			"name":"Building_083_Mesh.014",
			"primitives":[
				{
					"attributes":{
						"POSITION":40,
						"NORMAL":41
					},
					"indices":42,
					"material":0
				}
			]
		},
		{
			"name":"Building_083_Mesh.015",
			"primitives":[
				{
					"attributes":{
						"POSITION":43,
						"NORMAL":44
					},
					"indices":45,
					"material":1
				}
			]
		},
		{
			"name":"Building_083_Mesh.016",
			"primitives":[
				{
					"attributes":{
						"POSITION":46,
						"NORMAL":47
					},
					"indices":8,
					"material":2
				}
			]
		}
	],
	"accessors":[
		{
			"bufferView":0,
			"componentType":5126,
			"count":308,
			"max":[
				-0.021403402090072632,
				-0.3076086640357971,
				0.05434785038232803
			],
			"min":[
				-0.05401211977005005,
				-0.3532608151435852,
				2.561137080192566e-08
			],
			"type":"VEC3"
		},
		{
			"bufferView":1,
			"componentType":5126,
			"count":308,
			"type":"VEC3"
		},
		{
			"bufferView":2,
			"componentType":5123,
			"count":750,
			"type":"SCALAR"
		},
		{
			"bufferView":3,
			"componentType":5126,
			"count":20,
			"max":[
				-0.02683815360069275,
				-0.322826087474823,
				0.05217394232749939
			],
			"min":[
				-0.048577308654785156,
				-0.3500000238418579,
				0.05217394232749939
			],
			"type":"VEC3"
		},
		{
			"bufferView":4,
			"componentType":5126,
			"count":20,
			"type":"VEC3"
		},
		{
			"bufferView":5,
			"componentType":5123,
			"count":30,
			"type":"SCALAR"
		},
		{
			"bufferView":6,
			"componentType":5126,
			"count":4,
			"max":[
				-0.03988164663314819,
				-0.3391304016113281,
				0.05217394232749939
			],
			"min":[
				-0.048577338457107544,
				-0.3532608151435852,
				0.05217394232749939
			],
			"type":"VEC3"
		},
		{
			"bufferView":7,
			"componentType":5126,
			"count":4,
			"type":"VEC3"
		},
		{
			"bufferView":8,
			"componentType":5123,
			"count":6,
			"type":"SCALAR"
		},
		{
			"bufferView":9,
			"componentType":5126,
			"count":481,
			"max":[
				0.054683566093444824,
				-0.39782607555389404,
				0.06521742045879364
			],
			"min":[
				0.022074878215789795,
				-0.45108696818351746,
				2.9802322387695312e-08
			],
			"type":"VEC3"
		},
		{
			"bufferView":10,
			"componentType":5126,
			"count":481,
			"type":"VEC3"
		},
		{
			"bufferView":11,
			"componentType":5123,
			"count":1389,
			"type":"SCALAR"
		},
		{
			"bufferView":12,
			"componentType":5126,
			"count":39,
			"max":[
				0.04924875497817993,
				-0.40434783697128296,
				0.0630435049533844
			],
			"min":[
				0.0275096595287323,
				-0.44565218687057495,
				0.0630435049533844
			],
			"type":"VEC3"
		},
		{
			"bufferView":13,
			"componentType":5126,
			"count":39,
			"type":"VEC3"
		},
		{
			"bufferView":14,
			"componentType":5123,
			"count":63,
			"type":"SCALAR"
		},
		{
			"bufferView":15,
			"componentType":5126,
			"count":4,
			"max":[
				0.04924878478050232,
				-0.436956524848938,
				0.0630435049533844
			],
			"min":[
				0.040553122758865356,
				-0.45108696818351746,
				0.0630435049533844
			],
			"type":"VEC3"
		},
		{
			"bufferView":16,
			"componentType":5126,
			"count":4,
			"type":"VEC3"
		},
		{
			"bufferView":17,
			"componentType":5126,
			"count":292,
			"max":[
				0.054683536291122437,
				-0.6097825765609741,
				0.06521742045879364
			],
			"min":[
				0.022074848413467407,
				-0.64673912525177,
				2.9802322387695312e-08
			],
			"type":"VEC3"
		},
		{
			"bufferView":18,
			"componentType":5126,
			"count":292,
			"type":"VEC3"
		},
		{
			"bufferView":19,
			"componentType":5123,
			"count":738,
			"type":"SCALAR"
		},
		{
			"bufferView":20,
			"componentType":5126,
			"count":20,
			"max":[
				0.04924878478050232,
				-0.616304337978363,
				0.0630435049533844
			],
			"min":[
				0.0275096595287323,
				-0.643478274345398,
				0.0630435049533844
			],
			"type":"VEC3"
		},
		{
			"bufferView":21,
			"componentType":5126,
			"count":20,
			"type":"VEC3"
		},
		{
			"bufferView":22,
			"componentType":5126,
			"count":4,
			"max":[
				0.036205291748046875,
				-0.6326086521148682,
				0.0630435049533844
			],
			"min":[
				0.027509629726409912,
				-0.64673912525177,
				0.0630435049533844
			],
			"type":"VEC3"
		},
		{
			"bufferView":23,
			"componentType":5126,
			"count":4,
			"type":"VEC3"
		},
		{
			"bufferView":24,
			"componentType":5126,
			"count":503,
			"max":[
				0.13892269134521484,
				-0.41413044929504395,
				0.04347829148173332
			],
			"min":[
				0.09000962972640991,
				-0.45108696818351746,
				3.3993273973464966e-08
			],
			"type":"VEC3"
		},
		{
			"bufferView":25,
			"componentType":5126,
			"count":503,
			"type":"VEC3"
		},
		{
			"bufferView":26,
			"componentType":5123,
			"count":1476,
			"type":"SCALAR"
		},
		{
			"bufferView":27,
			"componentType":5126,
			"count":32,
			"max":[
				0.13403141498565674,
				-0.42065221071243286,
				0.04130437225103378
			],
			"min":[
				0.09490096569061279,
				-0.4434782564640045,
				0.04130437225103378
			],
			"type":"VEC3"
		},
		{
			"bufferView":28,
			"componentType":5126,
			"count":32,
			"type":"VEC3"
		},
		{
			"bufferView":29,
			"componentType":5123,
			"count":48,
			"type":"SCALAR"
		},
		{
			"bufferView":30,
			"componentType":5126,
			"count":4,
			"max":[
				0.1340314745903015,
				-0.436956524848938,
				0.04130437970161438
			],
			"min":[
				0.1275097131729126,
				-0.45108696818351746,
				0.04130437970161438
			],
			"type":"VEC3"
		},
		{
			"bufferView":31,
			"componentType":5126,
			"count":4,
			"type":"VEC3"
		},
		{
			"bufferView":32,
			"componentType":5126,
			"count":873,
			"max":[
				0.2910965085029602,
				-0.782608687877655,
				0.06521742045879364
			],
			"min":[
				0.24218350648880005,
				-0.8423912525177002,
				2.9802322387695312e-08
			],
			"type":"VEC3"
		},
		{
			"bufferView":33,
			"componentType":5126,
			"count":873,
			"type":"VEC3"
		},
		{
			"bufferView":34,
			"componentType":5123,
			"count":2826,
			"type":"SCALAR"
		},
		{
			"bufferView":35,
			"componentType":5126,
			"count":64,
			"max":[
				0.2862052321434021,
				-0.7956521511077881,
				0.0630435049533844
			],
			"min":[
				0.24707478284835815,
				-0.8369565010070801,
				0.0630435049533844
			],
			"type":"VEC3"
		},
		{
			"bufferView":36,
			"componentType":5126,
			"count":64,
			"type":"VEC3"
		},
		{
			"bufferView":37,
			"componentType":5123,
			"count":96,
			"type":"SCALAR"
		},
		{
			"bufferView":38,
			"componentType":5126,
			"count":4,
			"max":[
				0.2862052917480469,
				-0.8282608389854431,
				0.0630435049533844
			],
			"min":[
				0.27968353033065796,
				-0.8423912525177002,
				0.0630435049533844
			],
			"type":"VEC3"
		},
		{
			"bufferView":39,
			"componentType":5126,
			"count":4,
			"type":"VEC3"
		},
		{
			"bufferView":40,
			"componentType":5126,
			"count":524,
			"max":[
				0.4429345726966858,
				-0.89673912525177,
				0.05434785038232803
			],
			"min":[
				0.39402157068252563,
				-0.9402173757553101,
				2.9802322387695312e-08
			],
			"type":"VEC3"
		},
		{
			"bufferView":41,
			"componentType":5126,
			"count":524,
			"type":"VEC3"
		},
		{
			"bufferView":42,
			"componentType":5123,
			"count":1488,
			"type":"SCALAR"
		},
		{
			"bufferView":43,
			"componentType":5126,
			"count":28,
			"max":[
				0.4380432963371277,
				-0.9097825884819031,
				0.05217394232749939
			],
			"min":[
				0.39891284704208374,
				-0.9347826242446899,
				0.05217394232749939
			],
			"type":"VEC3"
		},
		{
			"bufferView":44,
			"componentType":5126,
			"count":28,
			"type":"VEC3"
		},
		{
			"bufferView":45,
			"componentType":5123,
			"count":42,
			"type":"SCALAR"
		},
		{
			"bufferView":46,
			"componentType":5126,
			"count":4,
			"max":[
				0.4380432963371277,
				-0.9260869026184082,
				0.05217394232749939
			],
			"min":[
				0.431521475315094,
				-0.9402173757553101,
				0.05217394232749939
			],
			"type":"VEC3"
		},
		{
			"bufferView":47,
			"componentType":5126,
			"count":4,
			"type":"VEC3"
		}
	],
	"bufferViews":[
		{
			"buffer":0,
			"byteLength":3696,
			"byteOffset":0,
			"target":34962
		},
		{
			"buffer":0,
			"byteLength":3696,
			"byteOffset":3696,
			"target":34962
		},
		{
			"buffer":0,
			"byteLength":1500,
			"byteOffset":7392,
			"target":34963
		},
		{
			"buffer":0,
			"byteLength":240,
			"byteOffset":8892,
			"target":34962
		},
		{
			"buffer":0,
			"byteLength":240,
			"byteOffset":9132,
			"target":34962
		},
		{
			"buffer":0,
			"byteLength":60,
			"byteOffset":9372,
			"target":34963
		},
		{
			"buffer":0,
			"byteLength":48,
			"byteOffset":9432,
			"target":34962
		},
		{
			"buffer":0,
			"byteLength":48,
			"byteOffset":9480,
			"target":34962
		},
		{
			"buffer":0,
			"byteLength":12,
			"byteOffset":9528,
			"target":34963
		},
		{
			"buffer":0,
			"byteLength":5772,
			"byteOffset":9540,
			"target":34962
		},
		{
			"buffer":0,
			"byteLength":5772,
			"byteOffset":15312,
			"target":34962
		},
		{
			"buffer":0,
			"byteLength":2778,
			"byteOffset":21084,
			"target":34963
		},
		{
			"buffer":0,
			"byteLength":468,
			"byteOffset":23864,
			"target":34962
		},
		{
			"buffer":0,
			"byteLength":468,
			"byteOffset":24332,
			"target":34962
		},
		{
			"buffer":0,
			"byteLength":126,
			"byteOffset":24800,
			"target":34963
		},
		{
			"buffer":0,
			"byteLength":48,
			"byteOffset":24928,
			"target":34962
		},
		{
			"buffer":0,
			"byteLength":48,
			"byteOffset":24976,
			"target":34962
		},
		{
			"buffer":0,
			"byteLength":3504,
			"byteOffset":25024,
			"target":34962
		},
		{
			"buffer":0,
			"byteLength":3504,
			"byteOffset":28528,
			"target":34962
		},
		{
			"buffer":0,
			"byteLength":1476,
			"byteOffset":32032,
			"target":34963
		},
		{
			"buffer":0,
			"byteLength":240,
			"byteOffset":33508,
			"target":34962
		},
		{
			"buffer":0,
			"byteLength":240,
			"byteOffset":33748,
			"target":34962
		},
		{
			"buffer":0,
			"byteLength":48,
			"byteOffset":33988,
			"target":34962
		},
		{
			"buffer":0,
			"byteLength":48,
			"byteOffset":34036,
			"target":34962
		},
		{
			"buffer":0,
			"byteLength":6036,
			"byteOffset":34084,
			"target":34962
		},
		{
			"buffer":0,
			"byteLength":6036,
			"byteOffset":40120,
			"target":34962
		},
		{
			"buffer":0,
			"byteLength":2952,
			"byteOffset":46156,
			"target":34963
		},
		{
			"buffer":0,
			"byteLength":384,
			"byteOffset":49108,
			"target":34962
		},
		{
			"buffer":0,
			"byteLength":384,
			"byteOffset":49492,
			"target":34962
		},
		{
			"buffer":0,
			"byteLength":96,
			"byteOffset":49876,
			"target":34963
		},
		{
			"buffer":0,
			"byteLength":48,
			"byteOffset":49972,
			"target":34962
		},
		{
			"buffer":0,
			"byteLength":48,
			"byteOffset":50020,
			"target":34962
		},
		{
			"buffer":0,
			"byteLength":10476,
			"byteOffset":50068,
			"target":34962
		},
		{
			"buffer":0,
			"byteLength":10476,
			"byteOffset":60544,
			"target":34962
		},
		{
			"buffer":0,
			"byteLength":5652,
			"byteOffset":71020,
			"target":34963
		},
		{
			"buffer":0,
			"byteLength":768,
			"byteOffset":76672,
			"target":34962
		},
		{
			"buffer":0,
			"byteLength":768,
			"byteOffset":77440,
			"target":34962
		},
		{
			"buffer":0,
			"byteLength":192,
			"byteOffset":78208,
			"target":34963
		},
		{
			"buffer":0,
			"byteLength":48,
			"byteOffset":78400,
			"target":34962
		},
		{
			"buffer":0,
			"byteLength":48,
			"byteOffset":78448,
			"target":34962
		},
		{
			"buffer":0,
			"byteLength":6288,
			"byteOffset":78496,
			"target":34962
		},
		{
			"buffer":0,
			"byteLength":6288,
			"byteOffset":84784,
			"target":34962
		},
		{
			"buffer":0,
			"byteLength":2976,
			"byteOffset":91072,
			"target":34963
		},
		{
			"buffer":0,
			"byteLength":336,
			"byteOffset":94048,
			"target":34962
		},
		{
			"buffer":0,
			"byteLength":336,
			"byteOffset":94384,
			"target":34962
		},
		{
			"buffer":0,
			"byteLength":84,
			"byteOffset":94720,
			"target":34963
		},
		{
			"buffer":0,
			"byteLength":48,
			"byteOffset":94804,
			"target":34962
		},
		{
			"buffer":0,
			"byteLength":48,
			"byteOffset":94852,
			"target":34962
		}
	],
	"buffers":[
		{
			"byteLength":94900,
			"uri":"BinaGrup9.bin"
		}
	]
}
