{
	"asset":{
		"generator":"Khronos glTF Blender I/O v4.2.60",
		"version":"2.0"
	},
	"scene":0,
	"scenes":[
		{
			"name":"Scene",
			"nodes":[
				0,
				1,
				2,
				3,
				4,
				5,
				6,
				7,
				8,
				9,
				10,
				11,
				12,
				13,
				14,
				15,
				16,
				17,
				18,
				19,
				20
			]
		}
	],
	"nodes":[
		{
			"mesh":0,
			"name":"Building_020.015"
		},
		{
			"mesh":1,
			"name":"Building_020.016"
		},
		{
			"mesh":2,
			"name":"Building_020.017"
		},
		{
			"mesh":3,
			"name":"Building_028.016"
		},
		{
			"mesh":4,
			"name":"Building_028.017"
		},
		{
			"mesh":5,
			"name":"Building_028.018"
		},
		{
			"mesh":6,
			"name":"Building_041.016"
		},
		{
			"mesh":7,
			"name":"Building_041.017"
		},
		{
			"mesh":8,
			"name":"Building_041.018"
		},
		{
			"mesh":9,
			"name":"Building_066.016"
		},
		{
			"mesh":10,
			"name":"Building_066.017"
		},
		{
			"mesh":11,
			"name":"Building_066.018"
		},
		{
			"mesh":12,
			"name":"Building_074.014"
		},
		{
			"mesh":13,
			"name":"Building_074.015"
		},
		{
			"mesh":14,
			"name":"Building_074.016"
		},
		{
			"mesh":15,
			"name":"Building_077.014"
		},
		{
			"mesh":16,
			"name":"Building_077.015"
		},
		{
			"mesh":17,
			"name":"Building_077.016"
		},
		{
			"mesh":18,
			"name":"Building_078.014"
		},
		{
			"mesh":19,
			"name":"Building_078.015"
		},
		{
			"mesh":20,
			"name":"Building_078.016"
		}
	],
	"materials":[
		{
			"doubleSided":true,
			"name":"BinaGrid",
			"pbrMetallicRoughness":{
				"baseColorFactor":[
					0.2874388098716736,
					0.3371638357639313,
					0.4178852438926697,
					1
				],
				"metallicFactor":0,
				"roughnessFactor":0.5
			}
		},
		{
			"doubleSided":true,
			"name":"Kap\u0131Grid",
			"pbrMetallicRoughness":{
				"baseColorFactor":[
					0.2874388098716736,
					0.3371638357639313,
					0.4178852438926697,
					1
				],
				"metallicFactor":0,
				"roughnessFactor":0.699999988079071
			}
		},
		{
			"doubleSided":true,
			"name":"PencereGrid",
			"pbrMetallicRoughness":{
				"baseColorFactor":[
					0.1499587893486023,
					0.17464761435985565,
					0.2122308313846588,
					1
				],
				"metallicFactor":0,
				"roughnessFactor":0.699999988079071
			}
		}
	],
	"meshes":[
		{
			"name":"Building_020_Mesh.011",
			"primitives":[
				{
					"attributes":{
						"POSITION":0,
						"NORMAL":1
					},
					"indices":2,
					"material":0
				}
			]
		},
		{
			"name":"Building_020_Mesh.019",
			"primitives":[
				{
					"attributes":{
						"POSITION":3,
						"NORMAL":4
					},
					"indices":5,
					"material":1
				}
			]
		},
		{
			"name":"Building_020_Mesh.020",
			"primitives":[
				{
					"attributes":{
						"POSITION":6,
						"NORMAL":7
					},
					"indices":8,
					"material":2
				}
			]
		},
		{
			"name":"Building_028_Mesh.018",
			"primitives":[
				{
					"attributes":{
						"POSITION":9,
						"NORMAL":10
					},
					"indices":11,
					"material":0
				}
			]
		},
		{
			"name":"Building_028_Mesh.019",
			"primitives":[
				{
					"attributes":{
						"POSITION":12,
						"NORMAL":13
					},
					"indices":14,
					"material":2
				}
			]
		},
		{
			"name":"Building_028_Mesh.020",
			"primitives":[
				{
					"attributes":{
						"POSITION":15,
						"NORMAL":16
					},
					"indices":5,
					"material":1
				}
			]
		},
		{
			"name":"Building_041_Mesh.018",
			"primitives":[
				{
					"attributes":{
						"POSITION":17,
						"NORMAL":18
					},
					"indices":19,
					"material":0
				}
			]
		},
		{
			"name":"Building_041_Mesh.019",
			"primitives":[
				{
					"attributes":{
						"POSITION":20,
						"NORMAL":21
					},
					"indices":22,
					"material":2
				}
			]
		},
		{
			"name":"Building_041_Mesh.020",
			"primitives":[
				{
					"attributes":{
						"POSITION":23,
						"NORMAL":24
					},
					"indices":5,
					"material":1
				}
			]
		},
		{
			"name":"Building_066_Mesh.018",
			"primitives":[
				{
					"attributes":{
						"POSITION":25,
						"NORMAL":26
					},
					"indices":27,
					"material":0
				}
			]
		},
		{
			"name":"Building_066_Mesh.019",
			"primitives":[
				{
					"attributes":{
						"POSITION":28,
						"NORMAL":29
					},
					"indices":22,
					"material":2
				}
			]
		},
		{
			"name":"Building_066_Mesh.020",
			"primitives":[
				{
					"attributes":{
						"POSITION":30,
						"NORMAL":31
					},
					"indices":5,
					"material":1
				}
			]
		},
		{
			"name":"Building_074_Mesh.014",
			"primitives":[
				{
					"attributes":{
						"POSITION":32,
						"NORMAL":33
					},
					"indices":34,
					"material":0
				}
			]
		},
		{
			"name":"Building_074_Mesh.015",
			"primitives":[
				{
					"attributes":{
						"POSITION":35,
						"NORMAL":36
					},
					"indices":37,
					"material":2
				}
			]
		},
		{
			"name":"Building_074_Mesh.016",
			"primitives":[
				{
					"attributes":{
						"POSITION":38,
						"NORMAL":39
					},
					"indices":5,
					"material":1
				}
			]
		},
		{
			"name":"Building_077_Mesh.014",
			"primitives":[
				{
					"attributes":{
						"POSITION":40,
						"NORMAL":41
					},
					"indices":42,
					"material":0
				}
			]
		},
		{
			"name":"Building_077_Mesh.015",
			"primitives":[
				{
					"attributes":{
						"POSITION":43,
						"NORMAL":44
					},
					"indices":45,
					"material":2
				}
			]
		},
		{
			"name":"Building_077_Mesh.016",
			"primitives":[
				{
					"attributes":{
						"POSITION":46,
						"NORMAL":47
					},
					"indices":5,
					"material":1
				}
			]
		},
		{
			"name":"Building_078_Mesh.014",
			"primitives":[
				{
					"attributes":{
						"POSITION":48,
						"NORMAL":49
					},
					"indices":50,
					"material":0
				}
			]
		},
		{
			"name":"Building_078_Mesh.015",
			"primitives":[
				{
					"attributes":{
						"POSITION":51,
						"NORMAL":52
					},
					"indices":53,
					"material":2
				}
			]
		},
		{
			"name":"Building_078_Mesh.016",
			"primitives":[
				{
					"attributes":{
						"POSITION":54,
						"NORMAL":55
					},
					"indices":5,
					"material":1
				}
			]
		}
	],
	"accessors":[
		{
			"bufferView":0,
			"componentType":5126,
			"count":847,
			"max":[
				-0.24151206016540527,
				-0.789130449295044,
				0.06521742045879364
			],
			"min":[
				-0.2904251217842102,
				-0.8423912525177002,
				2.9802322387695312e-08
			],
			"type":"VEC3"
		},
		{
			"bufferView":1,
			"componentType":5126,
			"count":847,
			"type":"VEC3"
		},
		{
			"bufferView":2,
			"componentType":5123,
			"count":2814,
			"type":"SCALAR"
		},
		{
			"bufferView":3,
			"componentType":5126,
			"count":4,
			"max":[
				-0.24640336632728577,
				-0.8282608389854431,
				0.0630435049533844
			],
			"min":[
				-0.2529250979423523,
				-0.8423912525177002,
				0.0630435049533844
			],
			"type":"VEC3"
		},
		{
			"bufferView":4,
			"componentType":5126,
			"count":4,
			"type":"VEC3"
		},
		{
			"bufferView":5,
			"componentType":5123,
			"count":6,
			"type":"SCALAR"
		},
		{
			"bufferView":6,
			"componentType":5126,
			"count":64,
			"max":[
				-0.24640336632728577,
				-0.7956521511077881,
				0.0630435049533844
			],
			"min":[
				-0.2855337858200073,
				-0.8369565010070801,
				0.0630435049533844
			],
			"type":"VEC3"
		},
		{
			"bufferView":7,
			"componentType":5126,
			"count":64,
			"type":"VEC3"
		},
		{
			"bufferView":8,
			"componentType":5123,
			"count":96,
			"type":"SCALAR"
		},
		{
			"bufferView":9,
			"componentType":5126,
			"count":501,
			"max":[
				-0.09749037027359009,
				-0.291304349899292,
				0.043478287756443024
			],
			"min":[
				-0.13009905815124512,
				-0.3532608151435852,
				2.9802322387695312e-08
			],
			"type":"VEC3"
		},
		{
			"bufferView":10,
			"componentType":5126,
			"count":501,
			"type":"VEC3"
		},
		{
			"bufferView":11,
			"componentType":5123,
			"count":1404,
			"type":"SCALAR"
		},
		{
			"bufferView":12,
			"componentType":5126,
			"count":38,
			"max":[
				-0.1029251217842102,
				-0.3065217137336731,
				0.04130437225103378
			],
			"min":[
				-0.12466424703598022,
				-0.34565210342407227,
				0.04130437225103378
			],
			"type":"VEC3"
		},
		{
			"bufferView":13,
			"componentType":5126,
			"count":38,
			"type":"VEC3"
		},
		{
			"bufferView":14,
			"componentType":5123,
			"count":60,
			"type":"SCALAR"
		},
		{
			"bufferView":15,
			"componentType":5126,
			"count":4,
			"max":[
				-0.10292509198188782,
				-0.3391304016113281,
				0.04130437970161438
			],
			"min":[
				-0.11162078380584717,
				-0.3532608151435852,
				0.04130437970161438
			],
			"type":"VEC3"
		},
		{
			"bufferView":16,
			"componentType":5126,
			"count":4,
			"type":"VEC3"
		},
		{
			"bufferView":17,
			"componentType":5126,
			"count":497,
			"max":[
				-0.021403372287750244,
				-0.8782608509063721,
				0.043478287756443024
			],
			"min":[
				-0.05401206016540527,
				-0.9402173757553101,
				2.9802322387695312e-08
			],
			"type":"VEC3"
		},
		{
			"bufferView":18,
			"componentType":5126,
			"count":497,
			"type":"VEC3"
		},
		{
			"bufferView":19,
			"componentType":5123,
			"count":1398,
			"type":"SCALAR"
		},
		{
			"bufferView":20,
			"componentType":5126,
			"count":36,
			"max":[
				-0.026838183403015137,
				-0.893478274345398,
				0.04130437225103378
			],
			"min":[
				-0.048577338457107544,
				-0.936956524848938,
				0.04130437225103378
			],
			"type":"VEC3"
		},
		{
			"bufferView":21,
			"componentType":5126,
			"count":36,
			"type":"VEC3"
		},
		{
			"bufferView":22,
			"componentType":5123,
			"count":54,
			"type":"SCALAR"
		},
		{
			"bufferView":23,
			"componentType":5126,
			"count":4,
			"max":[
				-0.03988164663314819,
				-0.9260869026184082,
				0.04130437970161438
			],
			"min":[
				-0.048577338457107544,
				-0.9402173757553101,
				0.04130437970161438
			],
			"type":"VEC3"
		},
		{
			"bufferView":24,
			"componentType":5126,
			"count":4,
			"type":"VEC3"
		},
		{
			"bufferView":25,
			"componentType":5126,
			"count":477,
			"max":[
				0.28294432163238525,
				-0.5934782028198242,
				0.05434785410761833
			],
			"min":[
				0.250335693359375,
				-0.64673912525177,
				2.9802322387695312e-08
			],
			"type":"VEC3"
		},
		{
			"bufferView":26,
			"componentType":5126,
			"count":477,
			"type":"VEC3"
		},
		{
			"bufferView":27,
			"componentType":5123,
			"count":1386,
			"type":"SCALAR"
		},
		{
			"bufferView":28,
			"componentType":5126,
			"count":36,
			"max":[
				0.2775096297264099,
				-0.6000000238418579,
				0.05217394232749939
			],
			"min":[
				0.2557704448699951,
				-0.6391304135322571,
				0.05217394232749939
			],
			"type":"VEC3"
		},
		{
			"bufferView":29,
			"componentType":5126,
			"count":36,
			"type":"VEC3"
		},
		{
			"bufferView":30,
			"componentType":5126,
			"count":4,
			"max":[
				0.2644661068916321,
				-0.6326086521148682,
				0.05217394232749939
			],
			"min":[
				0.2557704448699951,
				-0.64673912525177,
				0.05217394232749939
			],
			"type":"VEC3"
		},
		{
			"bufferView":31,
			"componentType":5126,
			"count":4,
			"type":"VEC3"
		},
		{
			"bufferView":32,
			"componentType":5126,
			"count":826,
			"max":[
				0.3668476939201355,
				-0.6847826242446899,
				0.043478287756443024
			],
			"min":[
				0.31793463230133057,
				-0.7445651888847351,
				2.9802322387695312e-08
			],
			"type":"VEC3"
		},
		{
			"bufferView":33,
			"componentType":5126,
			"count":826,
			"type":"VEC3"
		},
		{
			"bufferView":34,
			"componentType":5123,
			"count":2670,
			"type":"SCALAR"
		},
		{
			"bufferView":35,
			"componentType":5126,
			"count":52,
			"max":[
				0.36195629835128784,
				-0.697826087474823,
				0.04130437225103378
			],
			"min":[
				0.32282590866088867,
				-0.741304337978363,
				0.04130437225103378
			],
			"type":"VEC3"
		},
		{
			"bufferView":36,
			"componentType":5126,
			"count":52,
			"type":"VEC3"
		},
		{
			"bufferView":37,
			"componentType":5123,
			"count":78,
			"type":"SCALAR"
		},
		{
			"bufferView":38,
			"componentType":5126,
			"count":4,
			"max":[
				0.3293476700782776,
				-0.730434775352478,
				0.04130437597632408
			],
			"min":[
				0.32282590866088867,
				-0.7445651888847351,
				0.04130437597632408
			],
			"type":"VEC3"
		},
		{
			"bufferView":39,
			"componentType":5126,
			"count":4,
			"type":"VEC3"
		},
		{
			"bufferView":40,
			"componentType":5126,
			"count":525,
			"max":[
				0.44293463230133057,
				-0.3076086640357971,
				0.06521741300821304
			],
			"min":[
				0.39402157068252563,
				-0.3532608151435852,
				2.561137080192566e-08
			],
			"type":"VEC3"
		},
		{
			"bufferView":41,
			"componentType":5126,
			"count":525,
			"type":"VEC3"
		},
		{
			"bufferView":42,
			"componentType":5123,
			"count":1488,
			"type":"SCALAR"
		},
		{
			"bufferView":43,
			"componentType":5126,
			"count":32,
			"max":[
				0.4380432963371277,
				-0.322826087474823,
				0.0630435049533844
			],
			"min":[
				0.39891284704208374,
				-0.34999996423721313,
				0.0630435049533844
			],
			"type":"VEC3"
		},
		{
			"bufferView":44,
			"componentType":5126,
			"count":32,
			"type":"VEC3"
		},
		{
			"bufferView":45,
			"componentType":5123,
			"count":48,
			"type":"SCALAR"
		},
		{
			"bufferView":46,
			"componentType":5126,
			"count":4,
			"max":[
				0.4380432963371277,
				-0.3391304016113281,
				0.0630435049533844
			],
			"min":[
				0.431521475315094,
				-0.3532608151435852,
				0.0630435049533844
			],
			"type":"VEC3"
		},
		{
			"bufferView":47,
			"componentType":5126,
			"count":4,
			"type":"VEC3"
		},
		{
			"bufferView":48,
			"componentType":5126,
			"count":511,
			"max":[
				0.44293463230133057,
				-0.40326088666915894,
				0.05434786155819893
			],
			"min":[
				0.39402157068252563,
				-0.45108696818351746,
				2.9802322387695312e-08
			],
			"type":"VEC3"
		},
		{
			"bufferView":49,
			"componentType":5126,
			"count":511,
			"type":"VEC3"
		},
		{
			"bufferView":50,
			"componentType":5123,
			"count":1416,
			"type":"SCALAR"
		},
		{
			"bufferView":51,
			"componentType":5126,
			"count":24,
			"max":[
				0.4380432367324829,
				-0.42065221071243286,
				0.05217394232749939
			],
			"min":[
				0.39891284704208374,
				-0.4478260576725006,
				0.05217394232749939
			],
			"type":"VEC3"
		},
		{
			"bufferView":52,
			"componentType":5126,
			"count":24,
			"type":"VEC3"
		},
		{
			"bufferView":53,
			"componentType":5123,
			"count":36,
			"type":"SCALAR"
		},
		{
			"bufferView":54,
			"componentType":5126,
			"count":4,
			"max":[
				0.40543460845947266,
				-0.436956524848938,
				0.05217394232749939
			],
			"min":[
				0.39891284704208374,
				-0.45108696818351746,
				0.05217394232749939
			],
			"type":"VEC3"
		},
		{
			"bufferView":55,
			"componentType":5126,
			"count":4,
			"type":"VEC3"
		}
	],
	"bufferViews":[
		{
			"buffer":0,
			"byteLength":10164,
			"byteOffset":0,
			"target":34962
		},
		{
			"buffer":0,
			"byteLength":10164,
			"byteOffset":10164,
			"target":34962
		},
		{
			"buffer":0,
			"byteLength":5628,
			"byteOffset":20328,
			"target":34963
		},
		{
			"buffer":0,
			"byteLength":48,
			"byteOffset":25956,
			"target":34962
		},
		{
			"buffer":0,
			"byteLength":48,
			"byteOffset":26004,
			"target":34962
		},
		{
			"buffer":0,
			"byteLength":12,
			"byteOffset":26052,
			"target":34963
		},
		{
			"buffer":0,
			"byteLength":768,
			"byteOffset":26064,
			"target":34962
		},
		{
			"buffer":0,
			"byteLength":768,
			"byteOffset":26832,
			"target":34962
		},
		{
			"buffer":0,
			"byteLength":192,
			"byteOffset":27600,
			"target":34963
		},
		{
			"buffer":0,
			"byteLength":6012,
			"byteOffset":27792,
			"target":34962
		},
		{
			"buffer":0,
			"byteLength":6012,
			"byteOffset":33804,
			"target":34962
		},
		{
			"buffer":0,
			"byteLength":2808,
			"byteOffset":39816,
			"target":34963
		},
		{
			"buffer":0,
			"byteLength":456,
			"byteOffset":42624,
			"target":34962
		},
		{
			"buffer":0,
			"byteLength":456,
			"byteOffset":43080,
			"target":34962
		},
		{
			"buffer":0,
			"byteLength":120,
			"byteOffset":43536,
			"target":34963
		},
		{
			"buffer":0,
			"byteLength":48,
			"byteOffset":43656,
			"target":34962
		},
		{
			"buffer":0,
			"byteLength":48,
			"byteOffset":43704,
			"target":34962
		},
		{
			"buffer":0,
			"byteLength":5964,
			"byteOffset":43752,
			"target":34962
		},
		{
			"buffer":0,
			"byteLength":5964,
			"byteOffset":49716,
			"target":34962
		},
		{
			"buffer":0,
			"byteLength":2796,
			"byteOffset":55680,
			"target":34963
		},
		{
			"buffer":0,
			"byteLength":432,
			"byteOffset":58476,
			"target":34962
		},
		{
			"buffer":0,
			"byteLength":432,
			"byteOffset":58908,
			"target":34962
		},
		{
			"buffer":0,
			"byteLength":108,
			"byteOffset":59340,
			"target":34963
		},
		{
			"buffer":0,
			"byteLength":48,
			"byteOffset":59448,
			"target":34962
		},
		{
			"buffer":0,
			"byteLength":48,
			"byteOffset":59496,
			"target":34962
		},
		{
			"buffer":0,
			"byteLength":5724,
			"byteOffset":59544,
			"target":34962
		},
		{
			"buffer":0,
			"byteLength":5724,
			"byteOffset":65268,
			"target":34962
		},
		{
			"buffer":0,
			"byteLength":2772,
			"byteOffset":70992,
			"target":34963
		},
		{
			"buffer":0,
			"byteLength":432,
			"byteOffset":73764,
			"target":34962
		},
		{
			"buffer":0,
			"byteLength":432,
			"byteOffset":74196,
			"target":34962
		},
		{
			"buffer":0,
			"byteLength":48,
			"byteOffset":74628,
			"target":34962
		},
		{
			"buffer":0,
			"byteLength":48,
			"byteOffset":74676,
			"target":34962
		},
		{
			"buffer":0,
			"byteLength":9912,
			"byteOffset":74724,
			"target":34962
		},
		{
			"buffer":0,
			"byteLength":9912,
			"byteOffset":84636,
			"target":34962
		},
		{
			"buffer":0,
			"byteLength":5340,
			"byteOffset":94548,
			"target":34963
		},
		{
			"buffer":0,
			"byteLength":624,
			"byteOffset":99888,
			"target":34962
		},
		{
			"buffer":0,
			"byteLength":624,
			"byteOffset":100512,
			"target":34962
		},
		{
			"buffer":0,
			"byteLength":156,
			"byteOffset":101136,
			"target":34963
		},
		{
			"buffer":0,
			"byteLength":48,
			"byteOffset":101292,
			"target":34962
		},
		{
			"buffer":0,
			"byteLength":48,
			"byteOffset":101340,
			"target":34962
		},
		{
			"buffer":0,
			"byteLength":6300,
			"byteOffset":101388,
			"target":34962
		},
		{
			"buffer":0,
			"byteLength":6300,
			"byteOffset":107688,
			"target":34962
		},
		{
			"buffer":0,
			"byteLength":2976,
			"byteOffset":113988,
			"target":34963
		},
		{
			"buffer":0,
			"byteLength":384,
			"byteOffset":116964,
			"target":34962
		},
		{
			"buffer":0,
			"byteLength":384,
			"byteOffset":117348,
			"target":34962
		},
		{
			"buffer":0,
			"byteLength":96,
			"byteOffset":117732,
			"target":34963
		},
		{
			"buffer":0,
			"byteLength":48,
			"byteOffset":117828,
			"target":34962
		},
		{
			"buffer":0,
			"byteLength":48,
			"byteOffset":117876,
			"target":34962
		},
		{
			"buffer":0,
			"byteLength":6132,
			"byteOffset":117924,
			"target":34962
		},
		{
			"buffer":0,
			"byteLength":6132,
			"byteOffset":124056,
			"target":34962
		},
		{
			"buffer":0,
			"byteLength":2832,
			"byteOffset":130188,
			"target":34963
		},
		{
			"buffer":0,
			"byteLength":288,
			"byteOffset":133020,
			"target":34962
		},
		{
			"buffer":0,
			"byteLength":288,
			"byteOffset":133308,
			"target":34962
		},
		{
			"buffer":0,
			"byteLength":72,
			"byteOffset":133596,
			"target":34963
		},
		{
			"buffer":0,
			"byteLength":48,
			"byteOffset":133668,
			"target":34962
		},
		{
			"buffer":0,
			"byteLength":48,
			"byteOffset":133716,
			"target":34962
		}
	],
	"buffers":[
		{
			"byteLength":133764,
			"uri":"BinaGrup6.bin"
		}
	]
}
