{
	"asset":{
		"generator":"Khronos glTF Blender I/O v4.2.60",
		"version":"2.0"
	},
	"scene":0,
	"scenes":[
		{
			"name":"Scene",
			"nodes":[
				0,
				1,
				2,
				3,
				4,
				5,
				6,
				7,
				8,
				9,
				10,
				11,
				12,
				13,
				14,
				15,
				16,
				17
			]
		}
	],
	"nodes":[
		{
			"mesh":0,
			"name":"Building_023.016"
		},
		{
			"mesh":1,
			"name":"Building_023.017"
		},
		{
			"mesh":2,
			"name":"Building_023.018"
		},
		{
			"mesh":3,
			"name":"Building_052.016"
		},
		{
			"mesh":4,
			"name":"Building_052.017"
		},
		{
			"mesh":5,
			"name":"Building_052.018"
		},
		{
			"mesh":6,
			"name":"Building_061.016"
		},
		{
			"mesh":7,
			"name":"Building_061.017"
		},
		{
			"mesh":8,
			"name":"Building_061.018"
		},
		{
			"mesh":9,
			"name":"Building_065.016"
		},
		{
			"mesh":10,
			"name":"Building_065.017"
		},
		{
			"mesh":11,
			"name":"Building_065.018"
		},
		{
			"mesh":12,
			"name":"Building_072.014"
		},
		{
			"mesh":13,
			"name":"Building_072.015"
		},
		{
			"mesh":14,
			"name":"Building_072.016"
		},
		{
			"mesh":15,
			"name":"Building_081.014"
		},
		{
			"mesh":16,
			"name":"Building_081.015"
		},
		{
			"mesh":17,
			"name":"Building_081.016"
		}
	],
	"materials":[
		{
			"doubleSided":true,
			"name":"BinaGrid",
			"pbrMetallicRoughness":{
				"baseColorFactor":[
					0.2874388098716736,
					0.3371638357639313,
					0.4178852438926697,
					1
				],
				"metallicFactor":0,
				"roughnessFactor":0.5
			}
		},
		{
			"doubleSided":true,
			"name":"PencereGrid",
			"pbrMetallicRoughness":{
				"baseColorFactor":[
					0.1499587893486023,
					0.17464761435985565,
					0.2122308313846588,
					1
				],
				"metallicFactor":0,
				"roughnessFactor":0.699999988079071
			}
		},
		{
			"doubleSided":true,
			"name":"Kap\u0131Grid",
			"pbrMetallicRoughness":{
				"baseColorFactor":[
					0.2874388098716736,
					0.3371638357639313,
					0.4178852438926697,
					1
				],
				"metallicFactor":0,
				"roughnessFactor":0.699999988079071
			}
		}
	],
	"meshes":[
		{
			"name":"Building_023_Mesh.018",
			"primitives":[
				{
					"attributes":{
						"POSITION":0,
						"NORMAL":1
					},
					"indices":2,
					"material":0
				}
			]
		},
		{
			"name":"Building_023_Mesh.019",
			"primitives":[
				{
					"attributes":{
						"POSITION":3,
						"NORMAL":4
					},
					"indices":5,
					"material":1
				}
			]
		},
		{
			"name":"Building_023_Mesh.020",
			"primitives":[
				{
					"attributes":{
						"POSITION":6,
						"NORMAL":7
					},
					"indices":8,
					"material":2
				}
			]
		},
		{
			"name":"Building_052_Mesh.018",
			"primitives":[
				{
					"attributes":{
						"POSITION":9,
						"NORMAL":10
					},
					"indices":11,
					"material":0
				}
			]
		},
		{
			"name":"Building_052_Mesh.019",
			"primitives":[
				{
					"attributes":{
						"POSITION":12,
						"NORMAL":13
					},
					"indices":14,
					"material":1
				}
			]
		},
		{
			"name":"Building_052_Mesh.020",
			"primitives":[
				{
					"attributes":{
						"POSITION":15,
						"NORMAL":16
					},
					"indices":8,
					"material":2
				}
			]
		},
		{
			"name":"Building_061_Mesh.018",
			"primitives":[
				{
					"attributes":{
						"POSITION":17,
						"NORMAL":18
					},
					"indices":19,
					"material":0
				}
			]
		},
		{
			"name":"Building_061_Mesh.019",
			"primitives":[
				{
					"attributes":{
						"POSITION":20,
						"NORMAL":21
					},
					"indices":22,
					"material":1
				}
			]
		},
		{
			"name":"Building_061_Mesh.020",
			"primitives":[
				{
					"attributes":{
						"POSITION":23,
						"NORMAL":24
					},
					"indices":8,
					"material":2
				}
			]
		},
		{
			"name":"Building_065_Mesh.018",
			"primitives":[
				{
					"attributes":{
						"POSITION":25,
						"NORMAL":26
					},
					"indices":27,
					"material":0
				}
			]
		},
		{
			"name":"Building_065_Mesh.019",
			"primitives":[
				{
					"attributes":{
						"POSITION":28,
						"NORMAL":29
					},
					"indices":30,
					"material":1
				}
			]
		},
		{
			"name":"Building_065_Mesh.020",
			"primitives":[
				{
					"attributes":{
						"POSITION":31,
						"NORMAL":32
					},
					"indices":8,
					"material":2
				}
			]
		},
		{
			"name":"Building_072_Mesh.014",
			"primitives":[
				{
					"attributes":{
						"POSITION":33,
						"NORMAL":34
					},
					"indices":35,
					"material":0
				}
			]
		},
		{
			"name":"Building_072_Mesh.015",
			"primitives":[
				{
					"attributes":{
						"POSITION":36,
						"NORMAL":37
					},
					"indices":38,
					"material":1
				}
			]
		},
		{
			"name":"Building_072_Mesh.016",
			"primitives":[
				{
					"attributes":{
						"POSITION":39,
						"NORMAL":40
					},
					"indices":8,
					"material":2
				}
			]
		},
		{
			"name":"Building_081_Mesh.014",
			"primitives":[
				{
					"attributes":{
						"POSITION":41,
						"NORMAL":42
					},
					"indices":43,
					"material":0
				}
			]
		},
		{
			"name":"Building_081_Mesh.015",
			"primitives":[
				{
					"attributes":{
						"POSITION":44,
						"NORMAL":45
					},
					"indices":46,
					"material":1
				}
			]
		},
		{
			"name":"Building_081_Mesh.016",
			"primitives":[
				{
					"attributes":{
						"POSITION":47,
						"NORMAL":48
					},
					"indices":8,
					"material":2
				}
			]
		}
	],
	"accessors":[
		{
			"bufferView":0,
			"componentType":5126,
			"count":857,
			"max":[
				-0.1654251217842102,
				-0.48695647716522217,
				0.04347829148173332
			],
			"min":[
				-0.21433816850185394,
				-0.5489130020141602,
				3.3993273973464966e-08
			],
			"type":"VEC3"
		},
		{
			"bufferView":1,
			"componentType":5126,
			"count":857,
			"type":"VEC3"
		},
		{
			"bufferView":2,
			"componentType":5123,
			"count":2730,
			"type":"SCALAR"
		},
		{
			"bufferView":3,
			"componentType":5126,
			"count":60,
			"max":[
				-0.1703164130449295,
				-0.502173900604248,
				0.04130437225103378
			],
			"min":[
				-0.20944684743881226,
				-0.5456521511077881,
				0.04130437225103378
			],
			"type":"VEC3"
		},
		{
			"bufferView":4,
			"componentType":5126,
			"count":60,
			"type":"VEC3"
		},
		{
			"bufferView":5,
			"componentType":5123,
			"count":90,
			"type":"SCALAR"
		},
		{
			"bufferView":6,
			"componentType":5126,
			"count":4,
			"max":[
				-0.18118597567081451,
				-0.5347825288772583,
				0.04130437970161438
			],
			"min":[
				-0.19857728481292725,
				-0.5489130020141602,
				0.04130437970161438
			],
			"type":"VEC3"
		},
		{
			"bufferView":7,
			"componentType":5126,
			"count":4,
			"type":"VEC3"
		},
		{
			"bufferView":8,
			"componentType":5123,
			"count":6,
			"type":"SCALAR"
		},
		{
			"bufferView":9,
			"componentType":5126,
			"count":491,
			"max":[
				0.13892275094985962,
				-0.6097825765609741,
				0.043478287756443024
			],
			"min":[
				0.09000968933105469,
				-0.64673912525177,
				2.9802322387695312e-08
			],
			"type":"VEC3"
		},
		{
			"bufferView":10,
			"componentType":5126,
			"count":491,
			"type":"VEC3"
		},
		{
			"bufferView":11,
			"componentType":5123,
			"count":1404,
			"type":"SCALAR"
		},
		{
			"bufferView":12,
			"componentType":5126,
			"count":24,
			"max":[
				0.13403141498565674,
				-0.616304337978363,
				0.04130437225103378
			],
			"min":[
				0.09490096569061279,
				-0.643478274345398,
				0.04130437225103378
			],
			"type":"VEC3"
		},
		{
			"bufferView":13,
			"componentType":5126,
			"count":24,
			"type":"VEC3"
		},
		{
			"bufferView":14,
			"componentType":5123,
			"count":36,
			"type":"SCALAR"
		},
		{
			"bufferView":15,
			"componentType":5126,
			"count":4,
			"max":[
				0.10142272710800171,
				-0.6326086521148682,
				0.04130437970161438
			],
			"min":[
				0.09490096569061279,
				-0.64673912525177,
				0.04130437970161438
			],
			"type":"VEC3"
		},
		{
			"bufferView":16,
			"componentType":5126,
			"count":4,
			"type":"VEC3"
		},
		{
			"bufferView":17,
			"componentType":5126,
			"count":1288,
			"max":[
				0.21500957012176514,
				-0.7663043141365051,
				0.04347829148173332
			],
			"min":[
				0.1660965085029602,
				-0.8423912525177002,
				3.3993273973464966e-08
			],
			"type":"VEC3"
		},
		{
			"bufferView":18,
			"componentType":5126,
			"count":1288,
			"type":"VEC3"
		},
		{
			"bufferView":19,
			"componentType":5123,
			"count":4650,
			"type":"SCALAR"
		},
		{
			"bufferView":20,
			"componentType":5126,
			"count":76,
			"max":[
				0.21011829376220703,
				-0.7793477773666382,
				0.04130437225103378
			],
			"min":[
				0.17098784446716309,
				-0.834782600402832,
				0.04130437225103378
			],
			"type":"VEC3"
		},
		{
			"bufferView":21,
			"componentType":5126,
			"count":76,
			"type":"VEC3"
		},
		{
			"bufferView":22,
			"componentType":5123,
			"count":114,
			"type":"SCALAR"
		},
		{
			"bufferView":23,
			"componentType":5126,
			"count":4,
			"max":[
				0.21011829376220703,
				-0.8282608389854431,
				0.04130437970161438
			],
			"min":[
				0.20359653234481812,
				-0.8423912525177002,
				0.04130437970161438
			],
			"type":"VEC3"
		},
		{
			"bufferView":24,
			"componentType":5126,
			"count":4,
			"type":"VEC3"
		},
		{
			"bufferView":25,
			"componentType":5126,
			"count":820,
			"max":[
				0.2910965085029602,
				-0.4956521689891815,
				0.06521741300821304
			],
			"min":[
				0.24218344688415527,
				-0.5489130020141602,
				2.9802322387695312e-08
			],
			"type":"VEC3"
		},
		{
			"bufferView":26,
			"componentType":5126,
			"count":820,
			"type":"VEC3"
		},
		{
			"bufferView":27,
			"componentType":5123,
			"count":2664,
			"type":"SCALAR"
		},
		{
			"bufferView":28,
			"componentType":5126,
			"count":48,
			"max":[
				0.2862052917480469,
				-0.502173900604248,
				0.0630435049533844
			],
			"min":[
				0.24707484245300293,
				-0.54347825050354,
				0.0630435049533844
			],
			"type":"VEC3"
		},
		{
			"bufferView":29,
			"componentType":5126,
			"count":48,
			"type":"VEC3"
		},
		{
			"bufferView":30,
			"componentType":5123,
			"count":72,
			"type":"SCALAR"
		},
		{
			"bufferView":31,
			"componentType":5126,
			"count":4,
			"max":[
				0.2535966634750366,
				-0.5347825288772583,
				0.0630435049533844
			],
			"min":[
				0.24707484245300293,
				-0.5489130020141602,
				0.0630435049533844
			],
			"type":"VEC3"
		},
		{
			"bufferView":32,
			"componentType":5126,
			"count":4,
			"type":"VEC3"
		},
		{
			"bufferView":33,
			"componentType":5126,
			"count":1295,
			"max":[
				0.36684757471084595,
				-0.4728260636329651,
				0.05434786155819893
			],
			"min":[
				0.317934513092041,
				-0.5489130020141602,
				2.9802322387695312e-08
			],
			"type":"VEC3"
		},
		{
			"bufferView":34,
			"componentType":5126,
			"count":1295,
			"type":"VEC3"
		},
		{
			"bufferView":35,
			"componentType":5123,
			"count":4626,
			"type":"SCALAR"
		},
		{
			"bufferView":36,
			"componentType":5126,
			"count":80,
			"max":[
				0.36195629835128784,
				-0.48586955666542053,
				0.05217394232749939
			],
			"min":[
				0.32282590866088867,
				-0.5456521511077881,
				0.05217394232749939
			],
			"type":"VEC3"
		},
		{
			"bufferView":37,
			"componentType":5126,
			"count":80,
			"type":"VEC3"
		},
		{
			"bufferView":38,
			"componentType":5123,
			"count":120,
			"type":"SCALAR"
		},
		{
			"bufferView":39,
			"componentType":5126,
			"count":4,
			"max":[
				0.36195629835128784,
				-0.5347825288772583,
				0.05217394232749939
			],
			"min":[
				0.3554345369338989,
				-0.5489130020141602,
				0.05217394232749939
			],
			"type":"VEC3"
		},
		{
			"bufferView":40,
			"componentType":5126,
			"count":4,
			"type":"VEC3"
		},
		{
			"bufferView":41,
			"componentType":5126,
			"count":487,
			"max":[
				0.43478238582611084,
				-0.6847826242446899,
				0.043478287756443024
			],
			"min":[
				0.4021736979484558,
				-0.7445651888847351,
				2.9802322387695312e-08
			],
			"type":"VEC3"
		},
		{
			"bufferView":42,
			"componentType":5126,
			"count":487,
			"type":"VEC3"
		},
		{
			"bufferView":43,
			"componentType":5123,
			"count":1404,
			"type":"SCALAR"
		},
		{
			"bufferView":44,
			"componentType":5126,
			"count":38,
			"max":[
				0.4293476343154907,
				-0.697826087474823,
				0.04130437225103378
			],
			"min":[
				0.4076085090637207,
				-0.7369564771652222,
				0.04130437225103378
			],
			"type":"VEC3"
		},
		{
			"bufferView":45,
			"componentType":5126,
			"count":38,
			"type":"VEC3"
		},
		{
			"bufferView":46,
			"componentType":5123,
			"count":60,
			"type":"SCALAR"
		},
		{
			"bufferView":47,
			"componentType":5126,
			"count":4,
			"max":[
				0.4293476343154907,
				-0.730434775352478,
				0.04130437597632408
			],
			"min":[
				0.420651912689209,
				-0.7445651888847351,
				0.04130437597632408
			],
			"type":"VEC3"
		},
		{
			"bufferView":48,
			"componentType":5126,
			"count":4,
			"type":"VEC3"
		}
	],
	"bufferViews":[
		{
			"buffer":0,
			"byteLength":10284,
			"byteOffset":0,
			"target":34962
		},
		{
			"buffer":0,
			"byteLength":10284,
			"byteOffset":10284,
			"target":34962
		},
		{
			"buffer":0,
			"byteLength":5460,
			"byteOffset":20568,
			"target":34963
		},
		{
			"buffer":0,
			"byteLength":720,
			"byteOffset":26028,
			"target":34962
		},
		{
			"buffer":0,
			"byteLength":720,
			"byteOffset":26748,
			"target":34962
		},
		{
			"buffer":0,
			"byteLength":180,
			"byteOffset":27468,
			"target":34963
		},
		{
			"buffer":0,
			"byteLength":48,
			"byteOffset":27648,
			"target":34962
		},
		{
			"buffer":0,
			"byteLength":48,
			"byteOffset":27696,
			"target":34962
		},
		{
			"buffer":0,
			"byteLength":12,
			"byteOffset":27744,
			"target":34963
		},
		{
			"buffer":0,
			"byteLength":5892,
			"byteOffset":27756,
			"target":34962
		},
		{
			"buffer":0,
			"byteLength":5892,
			"byteOffset":33648,
			"target":34962
		},
		{
			"buffer":0,
			"byteLength":2808,
			"byteOffset":39540,
			"target":34963
		},
		{
			"buffer":0,
			"byteLength":288,
			"byteOffset":42348,
			"target":34962
		},
		{
			"buffer":0,
			"byteLength":288,
			"byteOffset":42636,
			"target":34962
		},
		{
			"buffer":0,
			"byteLength":72,
			"byteOffset":42924,
			"target":34963
		},
		{
			"buffer":0,
			"byteLength":48,
			"byteOffset":42996,
			"target":34962
		},
		{
			"buffer":0,
			"byteLength":48,
			"byteOffset":43044,
			"target":34962
		},
		{
			"buffer":0,
			"byteLength":15456,
			"byteOffset":43092,
			"target":34962
		},
		{
			"buffer":0,
			"byteLength":15456,
			"byteOffset":58548,
			"target":34962
		},
		{
			"buffer":0,
			"byteLength":9300,
			"byteOffset":74004,
			"target":34963
		},
		{
			"buffer":0,
			"byteLength":912,
			"byteOffset":83304,
			"target":34962
		},
		{
			"buffer":0,
			"byteLength":912,
			"byteOffset":84216,
			"target":34962
		},
		{
			"buffer":0,
			"byteLength":228,
			"byteOffset":85128,
			"target":34963
		},
		{
			"buffer":0,
			"byteLength":48,
			"byteOffset":85356,
			"target":34962
		},
		{
			"buffer":0,
			"byteLength":48,
			"byteOffset":85404,
			"target":34962
		},
		{
			"buffer":0,
			"byteLength":9840,
			"byteOffset":85452,
			"target":34962
		},
		{
			"buffer":0,
			"byteLength":9840,
			"byteOffset":95292,
			"target":34962
		},
		{
			"buffer":0,
			"byteLength":5328,
			"byteOffset":105132,
			"target":34963
		},
		{
			"buffer":0,
			"byteLength":576,
			"byteOffset":110460,
			"target":34962
		},
		{
			"buffer":0,
			"byteLength":576,
			"byteOffset":111036,
			"target":34962
		},
		{
			"buffer":0,
			"byteLength":144,
			"byteOffset":111612,
			"target":34963
		},
		{
			"buffer":0,
			"byteLength":48,
			"byteOffset":111756,
			"target":34962
		},
		{
			"buffer":0,
			"byteLength":48,
			"byteOffset":111804,
			"target":34962
		},
		{
			"buffer":0,
			"byteLength":15540,
			"byteOffset":111852,
			"target":34962
		},
		{
			"buffer":0,
			"byteLength":15540,
			"byteOffset":127392,
			"target":34962
		},
		{
			"buffer":0,
			"byteLength":9252,
			"byteOffset":142932,
			"target":34963
		},
		{
			"buffer":0,
			"byteLength":960,
			"byteOffset":152184,
			"target":34962
		},
		{
			"buffer":0,
			"byteLength":960,
			"byteOffset":153144,
			"target":34962
		},
		{
			"buffer":0,
			"byteLength":240,
			"byteOffset":154104,
			"target":34963
		},
		{
			"buffer":0,
			"byteLength":48,
			"byteOffset":154344,
			"target":34962
		},
		{
			"buffer":0,
			"byteLength":48,
			"byteOffset":154392,
			"target":34962
		},
		{
			"buffer":0,
			"byteLength":5844,
			"byteOffset":154440,
			"target":34962
		},
		{
			"buffer":0,
			"byteLength":5844,
			"byteOffset":160284,
			"target":34962
		},
		{
			"buffer":0,
			"byteLength":2808,
			"byteOffset":166128,
			"target":34963
		},
		{
			"buffer":0,
			"byteLength":456,
			"byteOffset":168936,
			"target":34962
		},
		{
			"buffer":0,
			"byteLength":456,
			"byteOffset":169392,
			"target":34962
		},
		{
			"buffer":0,
			"byteLength":120,
			"byteOffset":169848,
			"target":34963
		},
		{
			"buffer":0,
			"byteLength":48,
			"byteOffset":169968,
			"target":34962
		},
		{
			"buffer":0,
			"byteLength":48,
			"byteOffset":170016,
			"target":34962
		}
	],
	"buffers":[
		{
			"byteLength":170064,
			"uri":"BinaGrup10.bin"
		}
	]
}
