{
	"asset":{
		"generator":"Khronos glTF Blender I/O v4.2.60",
		"version":"2.0"
	},
	"scene":0,
	"scenes":[
		{
			"name":"Scene",
			"nodes":[
				0,
				1,
				2,
				3,
				4,
				5,
				6,
				7,
				8
			]
		}
	],
	"nodes":[
		{
			"mesh":0,
			"name":"Building_070.014"
		},
		{
			"mesh":1,
			"name":"Building_070.015"
		},
		{
			"mesh":2,
			"name":"Building_070.016"
		},
		{
			"mesh":3,
			"name":"Building_079.014"
		},
		{
			"mesh":4,
			"name":"Building_079.015"
		},
		{
			"mesh":5,
			"name":"Building_079.016"
		},
		{
			"mesh":6,
			"name":"Building_080.014"
		},
		{
			"mesh":7,
			"name":"Building_080.015"
		},
		{
			"mesh":8,
			"name":"Building_080.016"
		}
	],
	"materials":[
		{
			"doubleSided":true,
			"name":"BinaGrid",
			"pbrMetallicRoughness":{
				"baseColorFactor":[
					0.2874388098716736,
					0.3371638357639313,
					0.4178852438926697,
					1
				],
				"metallicFactor":0,
				"roughnessFactor":0.5
			}
		},
		{
			"doubleSided":true,
			"name":"PencereGrid",
			"pbrMetallicRoughness":{
				"baseColorFactor":[
					0.1499587893486023,
					0.17464761435985565,
					0.2122308313846588,
					1
				],
				"metallicFactor":0,
				"roughnessFactor":0.699999988079071
			}
		},
		{
			"doubleSided":true,
			"name":"Kap\u0131Grid",
			"pbrMetallicRoughness":{
				"baseColorFactor":[
					0.2874388098716736,
					0.3371638357639313,
					0.4178852438926697,
					1
				],
				"metallicFactor":0,
				"roughnessFactor":0.699999988079071
			}
		}
	],
	"meshes":[
		{
			"name":"Building_070_Mesh.014",
			"primitives":[
				{
					"attributes":{
						"POSITION":0,
						"NORMAL":1
					},
					"indices":2,
					"material":0
				}
			]
		},
		{
			"name":"Building_070_Mesh.015",
			"primitives":[
				{
					"attributes":{
						"POSITION":3,
						"NORMAL":4
					},
					"indices":5,
					"material":1
				}
			]
		},
		{
			"name":"Building_070_Mesh.016",
			"primitives":[
				{
					"attributes":{
						"POSITION":6,
						"NORMAL":7
					},
					"indices":8,
					"material":2
				}
			]
		},
		{
			"name":"Building_079_Mesh.014",
			"primitives":[
				{
					"attributes":{
						"POSITION":9,
						"NORMAL":10
					},
					"indices":11,
					"material":0
				}
			]
		},
		{
			"name":"Building_079_Mesh.015",
			"primitives":[
				{
					"attributes":{
						"POSITION":12,
						"NORMAL":13
					},
					"indices":14,
					"material":1
				}
			]
		},
		{
			"name":"Building_079_Mesh.016",
			"primitives":[
				{
					"attributes":{
						"POSITION":15,
						"NORMAL":16
					},
					"indices":8,
					"material":2
				}
			]
		},
		{
			"name":"Building_080_Mesh.014",
			"primitives":[
				{
					"attributes":{
						"POSITION":17,
						"NORMAL":18
					},
					"indices":19,
					"material":0
				}
			]
		},
		{
			"name":"Building_080_Mesh.015",
			"primitives":[
				{
					"attributes":{
						"POSITION":20,
						"NORMAL":21
					},
					"indices":22,
					"material":1
				}
			]
		},
		{
			"name":"Building_080_Mesh.016",
			"primitives":[
				{
					"attributes":{
						"POSITION":23,
						"NORMAL":24
					},
					"indices":8,
					"material":2
				}
			]
		}
	],
	"accessors":[
		{
			"bufferView":0,
			"componentType":5126,
			"count":501,
			"max":[
				0.35869544744491577,
				-0.291304349899292,
				0.043478287756443024
			],
			"min":[
				0.32608675956726074,
				-0.3532608151435852,
				2.9802322387695312e-08
			],
			"type":"VEC3"
		},
		{
			"bufferView":1,
			"componentType":5126,
			"count":501,
			"type":"VEC3"
		},
		{
			"bufferView":2,
			"componentType":5123,
			"count":1404,
			"type":"SCALAR"
		},
		{
			"bufferView":3,
			"componentType":5126,
			"count":38,
			"max":[
				0.3532606363296509,
				-0.3065217137336731,
				0.04130437225103378
			],
			"min":[
				0.33152157068252563,
				-0.34565210342407227,
				0.04130437225103378
			],
			"type":"VEC3"
		},
		{
			"bufferView":4,
			"componentType":5126,
			"count":38,
			"type":"VEC3"
		},
		{
			"bufferView":5,
			"componentType":5123,
			"count":60,
			"type":"SCALAR"
		},
		{
			"bufferView":6,
			"componentType":5126,
			"count":4,
			"max":[
				0.3532606363296509,
				-0.3391304016113281,
				0.04130437597632408
			],
			"min":[
				0.3445649743080139,
				-0.3532608151435852,
				0.04130437597632408
			],
			"type":"VEC3"
		},
		{
			"bufferView":7,
			"componentType":5126,
			"count":4,
			"type":"VEC3"
		},
		{
			"bufferView":8,
			"componentType":5123,
			"count":6,
			"type":"SCALAR"
		},
		{
			"bufferView":9,
			"componentType":5126,
			"count":477,
			"max":[
				0.43478238582611084,
				-0.4956521689891815,
				0.043478287756443024
			],
			"min":[
				0.4021736979484558,
				-0.5489130020141602,
				2.9802322387695312e-08
			],
			"type":"VEC3"
		},
		{
			"bufferView":10,
			"componentType":5126,
			"count":477,
			"type":"VEC3"
		},
		{
			"bufferView":11,
			"componentType":5123,
			"count":1386,
			"type":"SCALAR"
		},
		{
			"bufferView":12,
			"componentType":5126,
			"count":36,
			"max":[
				0.4293476939201355,
				-0.502173900604248,
				0.04130437225103378
			],
			"min":[
				0.4076085090637207,
				-0.5456521511077881,
				0.04130437225103378
			],
			"type":"VEC3"
		},
		{
			"bufferView":13,
			"componentType":5126,
			"count":36,
			"type":"VEC3"
		},
		{
			"bufferView":14,
			"componentType":5123,
			"count":54,
			"type":"SCALAR"
		},
		{
			"bufferView":15,
			"componentType":5126,
			"count":4,
			"max":[
				0.41630417108535767,
				-0.5347825288772583,
				0.04130437597632408
			],
			"min":[
				0.4076085090637207,
				-0.5489130020141602,
				0.04130437597632408
			],
			"type":"VEC3"
		},
		{
			"bufferView":16,
			"componentType":5126,
			"count":4,
			"type":"VEC3"
		},
		{
			"bufferView":17,
			"componentType":5126,
			"count":501,
			"max":[
				0.43478238582611084,
				-0.5869565010070801,
				0.06521742045879364
			],
			"min":[
				0.4021736979484558,
				-0.64673912525177,
				2.9802322387695312e-08
			],
			"type":"VEC3"
		},
		{
			"bufferView":18,
			"componentType":5126,
			"count":501,
			"type":"VEC3"
		},
		{
			"bufferView":19,
			"componentType":5123,
			"count":1401,
			"type":"SCALAR"
		},
		{
			"bufferView":20,
			"componentType":5126,
			"count":39,
			"max":[
				0.4293476343154907,
				-0.6000000238418579,
				0.0630435049533844
			],
			"min":[
				0.4076085090637207,
				-0.6413043737411499,
				0.0630435049533844
			],
			"type":"VEC3"
		},
		{
			"bufferView":21,
			"componentType":5126,
			"count":39,
			"type":"VEC3"
		},
		{
			"bufferView":22,
			"componentType":5123,
			"count":63,
			"type":"SCALAR"
		},
		{
			"bufferView":23,
			"componentType":5126,
			"count":4,
			"max":[
				0.4293476343154907,
				-0.6326086521148682,
				0.0630435049533844
			],
			"min":[
				0.420651912689209,
				-0.64673912525177,
				0.0630435049533844
			],
			"type":"VEC3"
		},
		{
			"bufferView":24,
			"componentType":5126,
			"count":4,
			"type":"VEC3"
		}
	],
	"bufferViews":[
		{
			"buffer":0,
			"byteLength":6012,
			"byteOffset":0,
			"target":34962
		},
		{
			"buffer":0,
			"byteLength":6012,
			"byteOffset":6012,
			"target":34962
		},
		{
			"buffer":0,
			"byteLength":2808,
			"byteOffset":12024,
			"target":34963
		},
		{
			"buffer":0,
			"byteLength":456,
			"byteOffset":14832,
			"target":34962
		},
		{
			"buffer":0,
			"byteLength":456,
			"byteOffset":15288,
			"target":34962
		},
		{
			"buffer":0,
			"byteLength":120,
			"byteOffset":15744,
			"target":34963
		},
		{
			"buffer":0,
			"byteLength":48,
			"byteOffset":15864,
			"target":34962
		},
		{
			"buffer":0,
			"byteLength":48,
			"byteOffset":15912,
			"target":34962
		},
		{
			"buffer":0,
			"byteLength":12,
			"byteOffset":15960,
			"target":34963
		},
		{
			"buffer":0,
			"byteLength":5724,
			"byteOffset":15972,
			"target":34962
		},
		{
			"buffer":0,
			"byteLength":5724,
			"byteOffset":21696,
			"target":34962
		},
		{
			"buffer":0,
			"byteLength":2772,
			"byteOffset":27420,
			"target":34963
		},
		{
			"buffer":0,
			"byteLength":432,
			"byteOffset":30192,
			"target":34962
		},
		{
			"buffer":0,
			"byteLength":432,
			"byteOffset":30624,
			"target":34962
		},
		{
			"buffer":0,
			"byteLength":108,
			"byteOffset":31056,
			"target":34963
		},
		{
			"buffer":0,
			"byteLength":48,
			"byteOffset":31164,
			"target":34962
		},
		{
			"buffer":0,
			"byteLength":48,
			"byteOffset":31212,
			"target":34962
		},
		{
			"buffer":0,
			"byteLength":6012,
			"byteOffset":31260,
			"target":34962
		},
		{
			"buffer":0,
			"byteLength":6012,
			"byteOffset":37272,
			"target":34962
		},
		{
			"buffer":0,
			"byteLength":2802,
			"byteOffset":43284,
			"target":34963
		},
		{
			"buffer":0,
			"byteLength":468,
			"byteOffset":46088,
			"target":34962
		},
		{
			"buffer":0,
			"byteLength":468,
			"byteOffset":46556,
			"target":34962
		},
		{
			"buffer":0,
			"byteLength":126,
			"byteOffset":47024,
			"target":34963
		},
		{
			"buffer":0,
			"byteLength":48,
			"byteOffset":47152,
			"target":34962
		},
		{
			"buffer":0,
			"byteLength":48,
			"byteOffset":47200,
			"target":34962
		}
	],
	"buffers":[
		{
			"byteLength":47248,
			"uri":"BinaGrup4.bin"
		}
	]
}
