{
	"asset":{
		"generator":"Khronos glTF Blender I/O v4.2.60",
		"version":"2.0"
	},
	"scene":0,
	"scenes":[
		{
			"name":"Scene",
			"nodes":[
				0,
				1,
				2,
				3,
				4,
				5,
				6,
				7,
				8
			]
		}
	],
	"nodes":[
		{
			"mesh":0,
			"name":"Building_069.014"
		},
		{
			"mesh":1,
			"name":"Building_069.015"
		},
		{
			"mesh":2,
			"name":"Building_069.016"
		},
		{
			"mesh":3,
			"name":"Building_071.014"
		},
		{
			"mesh":4,
			"name":"Building_071.015"
		},
		{
			"mesh":5,
			"name":"Building_071.016"
		},
		{
			"mesh":6,
			"name":"Building_082.014"
		},
		{
			"mesh":7,
			"name":"Building_082.015"
		},
		{
			"mesh":8,
			"name":"Building_082.016"
		}
	],
	"materials":[
		{
			"doubleSided":true,
			"name":"BinaGrid",
			"pbrMetallicRoughness":{
				"baseColorFactor":[
					0.2874388098716736,
					0.3371638357639313,
					0.4178852438926697,
					1
				],
				"metallicFactor":0,
				"roughnessFactor":0.5
			}
		},
		{
			"doubleSided":true,
			"name":"PencereGrid",
			"pbrMetallicRoughness":{
				"baseColorFactor":[
					0.1499587893486023,
					0.17464761435985565,
					0.2122308313846588,
					1
				],
				"metallicFactor":0,
				"roughnessFactor":0.699999988079071
			}
		},
		{
			"doubleSided":true,
			"name":"Kap\u0131Grid",
			"pbrMetallicRoughness":{
				"baseColorFactor":[
					0.2874388098716736,
					0.3371638357639313,
					0.4178852438926697,
					1
				],
				"metallicFactor":0,
				"roughnessFactor":0.699999988079071
			}
		}
	],
	"meshes":[
		{
			"name":"Building_069_Mesh.014",
			"primitives":[
				{
					"attributes":{
						"POSITION":0,
						"NORMAL":1
					},
					"indices":2,
					"material":0
				}
			]
		},
		{
			"name":"Building_069_Mesh.015",
			"primitives":[
				{
					"attributes":{
						"POSITION":3,
						"NORMAL":4
					},
					"indices":5,
					"material":1
				}
			]
		},
		{
			"name":"Building_069_Mesh.016",
			"primitives":[
				{
					"attributes":{
						"POSITION":6,
						"NORMAL":7
					},
					"indices":8,
					"material":2
				}
			]
		},
		{
			"name":"Building_071_Mesh.014",
			"primitives":[
				{
					"attributes":{
						"POSITION":9,
						"NORMAL":10
					},
					"indices":11,
					"material":0
				}
			]
		},
		{
			"name":"Building_071_Mesh.015",
			"primitives":[
				{
					"attributes":{
						"POSITION":12,
						"NORMAL":13
					},
					"indices":14,
					"material":1
				}
			]
		},
		{
			"name":"Building_071_Mesh.016",
			"primitives":[
				{
					"attributes":{
						"POSITION":15,
						"NORMAL":16
					},
					"indices":8,
					"material":2
				}
			]
		},
		{
			"name":"Building_082_Mesh.014",
			"primitives":[
				{
					"attributes":{
						"POSITION":17,
						"NORMAL":18
					},
					"indices":19,
					"material":0
				}
			]
		},
		{
			"name":"Building_082_Mesh.015",
			"primitives":[
				{
					"attributes":{
						"POSITION":20,
						"NORMAL":21
					},
					"indices":22,
					"material":1
				}
			]
		},
		{
			"name":"Building_082_Mesh.016",
			"primitives":[
				{
					"attributes":{
						"POSITION":23,
						"NORMAL":24
					},
					"indices":8,
					"material":2
				}
			]
		}
	],
	"accessors":[
		{
			"bufferView":0,
			"componentType":5126,
			"count":497,
			"max":[
				0.2826085090637207,
				-0.876086950302124,
				0.043478287756443024
			],
			"min":[
				0.2499997615814209,
				-0.9402173757553101,
				2.9802322387695312e-08
			],
			"type":"VEC3"
		},
		{
			"bufferView":1,
			"componentType":5126,
			"count":497,
			"type":"VEC3"
		},
		{
			"bufferView":2,
			"componentType":5123,
			"count":1398,
			"type":"SCALAR"
		},
		{
			"bufferView":3,
			"componentType":5126,
			"count":36,
			"max":[
				0.2771737575531006,
				-0.893478274345398,
				0.04130437225103378
			],
			"min":[
				0.2554345726966858,
				-0.936956524848938,
				0.04130437225103378
			],
			"type":"VEC3"
		},
		{
			"bufferView":4,
			"componentType":5126,
			"count":36,
			"type":"VEC3"
		},
		{
			"bufferView":5,
			"componentType":5123,
			"count":54,
			"type":"SCALAR"
		},
		{
			"bufferView":6,
			"componentType":5126,
			"count":4,
			"max":[
				0.26413029432296753,
				-0.9260869026184082,
				0.04130437597632408
			],
			"min":[
				0.2554345726966858,
				-0.9402173757553101,
				0.04130437597632408
			],
			"type":"VEC3"
		},
		{
			"bufferView":7,
			"componentType":5126,
			"count":4,
			"type":"VEC3"
		},
		{
			"bufferView":8,
			"componentType":5123,
			"count":6,
			"type":"SCALAR"
		},
		{
			"bufferView":9,
			"componentType":5126,
			"count":1288,
			"max":[
				0.36684757471084595,
				-0.3728260397911072,
				0.05434785038232803
			],
			"min":[
				0.317934513092041,
				-0.45108696818351746,
				2.561137080192566e-08
			],
			"type":"VEC3"
		},
		{
			"bufferView":10,
			"componentType":5126,
			"count":1288,
			"type":"VEC3"
		},
		{
			"bufferView":11,
			"componentType":5123,
			"count":4650,
			"type":"SCALAR"
		},
		{
			"bufferView":12,
			"componentType":5126,
			"count":76,
			"max":[
				0.36195629835128784,
				-0.38804346323013306,
				0.05217394232749939
			],
			"min":[
				0.32282590866088867,
				-0.4434782564640045,
				0.05217394232749939
			],
			"type":"VEC3"
		},
		{
			"bufferView":13,
			"componentType":5126,
			"count":76,
			"type":"VEC3"
		},
		{
			"bufferView":14,
			"componentType":5123,
			"count":114,
			"type":"SCALAR"
		},
		{
			"bufferView":15,
			"componentType":5126,
			"count":4,
			"max":[
				0.36195629835128784,
				-0.436956524848938,
				0.05217394232749939
			],
			"min":[
				0.3554345369338989,
				-0.45108696818351746,
				0.05217394232749939
			],
			"type":"VEC3"
		},
		{
			"bufferView":16,
			"componentType":5126,
			"count":4,
			"type":"VEC3"
		},
		{
			"bufferView":17,
			"componentType":5126,
			"count":308,
			"max":[
				0.43478238582611084,
				-0.7967391014099121,
				0.06521742045879364
			],
			"min":[
				0.4021736979484558,
				-0.8423912525177002,
				2.9802322387695312e-08
			],
			"type":"VEC3"
		},
		{
			"bufferView":18,
			"componentType":5126,
			"count":308,
			"type":"VEC3"
		},
		{
			"bufferView":19,
			"componentType":5123,
			"count":750,
			"type":"SCALAR"
		},
		{
			"bufferView":20,
			"componentType":5126,
			"count":16,
			"max":[
				0.4293476939201355,
				-0.811956524848938,
				0.0630435049533844
			],
			"min":[
				0.4076085090637207,
				-0.834782600402832,
				0.0630435049533844
			],
			"type":"VEC3"
		},
		{
			"bufferView":21,
			"componentType":5126,
			"count":16,
			"type":"VEC3"
		},
		{
			"bufferView":22,
			"componentType":5123,
			"count":24,
			"type":"SCALAR"
		},
		{
			"bufferView":23,
			"componentType":5126,
			"count":4,
			"max":[
				0.4293476343154907,
				-0.8282608389854431,
				0.0630435049533844
			],
			"min":[
				0.420651912689209,
				-0.8423912525177002,
				0.0630435049533844
			],
			"type":"VEC3"
		},
		{
			"bufferView":24,
			"componentType":5126,
			"count":4,
			"type":"VEC3"
		}
	],
	"bufferViews":[
		{
			"buffer":0,
			"byteLength":5964,
			"byteOffset":0,
			"target":34962
		},
		{
			"buffer":0,
			"byteLength":5964,
			"byteOffset":5964,
			"target":34962
		},
		{
			"buffer":0,
			"byteLength":2796,
			"byteOffset":11928,
			"target":34963
		},
		{
			"buffer":0,
			"byteLength":432,
			"byteOffset":14724,
			"target":34962
		},
		{
			"buffer":0,
			"byteLength":432,
			"byteOffset":15156,
			"target":34962
		},
		{
			"buffer":0,
			"byteLength":108,
			"byteOffset":15588,
			"target":34963
		},
		{
			"buffer":0,
			"byteLength":48,
			"byteOffset":15696,
			"target":34962
		},
		{
			"buffer":0,
			"byteLength":48,
			"byteOffset":15744,
			"target":34962
		},
		{
			"buffer":0,
			"byteLength":12,
			"byteOffset":15792,
			"target":34963
		},
		{
			"buffer":0,
			"byteLength":15456,
			"byteOffset":15804,
			"target":34962
		},
		{
			"buffer":0,
			"byteLength":15456,
			"byteOffset":31260,
			"target":34962
		},
		{
			"buffer":0,
			"byteLength":9300,
			"byteOffset":46716,
			"target":34963
		},
		{
			"buffer":0,
			"byteLength":912,
			"byteOffset":56016,
			"target":34962
		},
		{
			"buffer":0,
			"byteLength":912,
			"byteOffset":56928,
			"target":34962
		},
		{
			"buffer":0,
			"byteLength":228,
			"byteOffset":57840,
			"target":34963
		},
		{
			"buffer":0,
			"byteLength":48,
			"byteOffset":58068,
			"target":34962
		},
		{
			"buffer":0,
			"byteLength":48,
			"byteOffset":58116,
			"target":34962
		},
		{
			"buffer":0,
			"byteLength":3696,
			"byteOffset":58164,
			"target":34962
		},
		{
			"buffer":0,
			"byteLength":3696,
			"byteOffset":61860,
			"target":34962
		},
		{
			"buffer":0,
			"byteLength":1500,
			"byteOffset":65556,
			"target":34963
		},
		{
			"buffer":0,
			"byteLength":192,
			"byteOffset":67056,
			"target":34962
		},
		{
			"buffer":0,
			"byteLength":192,
			"byteOffset":67248,
			"target":34962
		},
		{
			"buffer":0,
			"byteLength":48,
			"byteOffset":67440,
			"target":34963
		},
		{
			"buffer":0,
			"byteLength":48,
			"byteOffset":67488,
			"target":34962
		},
		{
			"buffer":0,
			"byteLength":48,
			"byteOffset":67536,
			"target":34962
		}
	],
	"buffers":[
		{
			"byteLength":67584,
			"uri":"BinaGrup1.bin"
		}
	]
}
