{
	"asset":{
		"generator":"Khronos glTF Blender I/O v4.2.60",
		"version":"2.0"
	},
	"scene":0,
	"scenes":[
		{
			"name":"Scene",
			"nodes":[
				0,
				1,
				2,
				3,
				4,
				5,
				6,
				7,
				8
			]
		}
	],
	"nodes":[
		{
			"mesh":0,
			"name":"Building_072.014"
		},
		{
			"mesh":1,
			"name":"Building_072.015"
		},
		{
			"mesh":2,
			"name":"Building_072.016"
		},
		{
			"mesh":3,
			"name":"Building_076.014"
		},
		{
			"mesh":4,
			"name":"Building_076.015"
		},
		{
			"mesh":5,
			"name":"Building_076.016"
		},
		{
			"mesh":6,
			"name":"Building_081.014"
		},
		{
			"mesh":7,
			"name":"Building_081.015"
		},
		{
			"mesh":8,
			"name":"Building_081.016"
		}
	],
	"materials":[
		{
			"doubleSided":true,
			"name":"BinaGrid",
			"pbrMetallicRoughness":{
				"baseColorFactor":[
					0.2874388098716736,
					0.3371638357639313,
					0.4178852438926697,
					1
				],
				"metallicFactor":0,
				"roughnessFactor":0.5
			}
		},
		{
			"doubleSided":true,
			"name":"PencereGrid",
			"pbrMetallicRoughness":{
				"baseColorFactor":[
					0.1499587893486023,
					0.17464761435985565,
					0.2122308313846588,
					1
				],
				"metallicFactor":0,
				"roughnessFactor":0.699999988079071
			}
		},
		{
			"doubleSided":true,
			"name":"Kap\u0131Grid",
			"pbrMetallicRoughness":{
				"baseColorFactor":[
					0.2874388098716736,
					0.3371638357639313,
					0.4178852438926697,
					1
				],
				"metallicFactor":0,
				"roughnessFactor":0.699999988079071
			}
		}
	],
	"meshes":[
		{
			"name":"Building_072_Mesh.014",
			"primitives":[
				{
					"attributes":{
						"POSITION":0,
						"NORMAL":1
					},
					"indices":2,
					"material":0
				}
			]
		},
		{
			"name":"Building_072_Mesh.015",
			"primitives":[
				{
					"attributes":{
						"POSITION":3,
						"NORMAL":4
					},
					"indices":5,
					"material":1
				}
			]
		},
		{
			"name":"Building_072_Mesh.016",
			"primitives":[
				{
					"attributes":{
						"POSITION":6,
						"NORMAL":7
					},
					"indices":8,
					"material":2
				}
			]
		},
		{
			"name":"Building_076_Mesh.014",
			"primitives":[
				{
					"attributes":{
						"POSITION":9,
						"NORMAL":10
					},
					"indices":11,
					"material":0
				}
			]
		},
		{
			"name":"Building_076_Mesh.015",
			"primitives":[
				{
					"attributes":{
						"POSITION":12,
						"NORMAL":13
					},
					"indices":14,
					"material":1
				}
			]
		},
		{
			"name":"Building_076_Mesh.016",
			"primitives":[
				{
					"attributes":{
						"POSITION":15,
						"NORMAL":16
					},
					"indices":8,
					"material":2
				}
			]
		},
		{
			"name":"Building_081_Mesh.014",
			"primitives":[
				{
					"attributes":{
						"POSITION":17,
						"NORMAL":18
					},
					"indices":19,
					"material":0
				}
			]
		},
		{
			"name":"Building_081_Mesh.015",
			"primitives":[
				{
					"attributes":{
						"POSITION":20,
						"NORMAL":21
					},
					"indices":22,
					"material":1
				}
			]
		},
		{
			"name":"Building_081_Mesh.016",
			"primitives":[
				{
					"attributes":{
						"POSITION":23,
						"NORMAL":24
					},
					"indices":8,
					"material":2
				}
			]
		}
	],
	"accessors":[
		{
			"bufferView":0,
			"componentType":5126,
			"count":1294,
			"max":[
				0.36684757471084595,
				-0.4728260636329651,
				0.05434786155819893
			],
			"min":[
				0.317934513092041,
				-0.5489130020141602,
				2.9802322387695312e-08
			],
			"type":"VEC3"
		},
		{
			"bufferView":1,
			"componentType":5126,
			"count":1294,
			"type":"VEC3"
		},
		{
			"bufferView":2,
			"componentType":5123,
			"count":4626,
			"type":"SCALAR"
		},
		{
			"bufferView":3,
			"componentType":5126,
			"count":80,
			"max":[
				0.36195629835128784,
				-0.48586955666542053,
				0.05217394232749939
			],
			"min":[
				0.32282590866088867,
				-0.5456521511077881,
				0.05217394232749939
			],
			"type":"VEC3"
		},
		{
			"bufferView":4,
			"componentType":5126,
			"count":80,
			"type":"VEC3"
		},
		{
			"bufferView":5,
			"componentType":5123,
			"count":120,
			"type":"SCALAR"
		},
		{
			"bufferView":6,
			"componentType":5126,
			"count":4,
			"max":[
				0.36195629835128784,
				-0.5347825288772583,
				0.05217394232749939
			],
			"min":[
				0.3554345369338989,
				-0.5489130020141602,
				0.05217394232749939
			],
			"type":"VEC3"
		},
		{
			"bufferView":7,
			"componentType":5126,
			"count":4,
			"type":"VEC3"
		},
		{
			"bufferView":8,
			"componentType":5123,
			"count":6,
			"type":"SCALAR"
		},
		{
			"bufferView":9,
			"componentType":5126,
			"count":889,
			"max":[
				0.36684757471084595,
				-0.8804347515106201,
				0.06521742045879364
			],
			"min":[
				0.31793463230133057,
				-0.9402173757553101,
				2.9802322387695312e-08
			],
			"type":"VEC3"
		},
		{
			"bufferView":10,
			"componentType":5126,
			"count":889,
			"type":"VEC3"
		},
		{
			"bufferView":11,
			"componentType":5123,
			"count":2820,
			"type":"SCALAR"
		},
		{
			"bufferView":12,
			"componentType":5126,
			"count":68,
			"max":[
				0.36195629835128784,
				-0.893478274345398,
				0.0630435049533844
			],
			"min":[
				0.32282590866088867,
				-0.936956524848938,
				0.0630435049533844
			],
			"type":"VEC3"
		},
		{
			"bufferView":13,
			"componentType":5126,
			"count":68,
			"type":"VEC3"
		},
		{
			"bufferView":14,
			"componentType":5123,
			"count":102,
			"type":"SCALAR"
		},
		{
			"bufferView":15,
			"componentType":5126,
			"count":4,
			"max":[
				0.36195629835128784,
				-0.9260869026184082,
				0.0630435049533844
			],
			"min":[
				0.3554345369338989,
				-0.9402173757553101,
				0.0630435049533844
			],
			"type":"VEC3"
		},
		{
			"bufferView":16,
			"componentType":5126,
			"count":4,
			"type":"VEC3"
		},
		{
			"bufferView":17,
			"componentType":5126,
			"count":487,
			"max":[
				0.43478238582611084,
				-0.6847826242446899,
				0.043478287756443024
			],
			"min":[
				0.4021736979484558,
				-0.7445651888847351,
				2.9802322387695312e-08
			],
			"type":"VEC3"
		},
		{
			"bufferView":18,
			"componentType":5126,
			"count":487,
			"type":"VEC3"
		},
		{
			"bufferView":19,
			"componentType":5123,
			"count":1404,
			"type":"SCALAR"
		},
		{
			"bufferView":20,
			"componentType":5126,
			"count":38,
			"max":[
				0.4293476343154907,
				-0.697826087474823,
				0.04130437225103378
			],
			"min":[
				0.4076085090637207,
				-0.7369564771652222,
				0.04130437225103378
			],
			"type":"VEC3"
		},
		{
			"bufferView":21,
			"componentType":5126,
			"count":38,
			"type":"VEC3"
		},
		{
			"bufferView":22,
			"componentType":5123,
			"count":60,
			"type":"SCALAR"
		},
		{
			"bufferView":23,
			"componentType":5126,
			"count":4,
			"max":[
				0.4293476343154907,
				-0.730434775352478,
				0.04130437597632408
			],
			"min":[
				0.420651912689209,
				-0.7445651888847351,
				0.04130437597632408
			],
			"type":"VEC3"
		},
		{
			"bufferView":24,
			"componentType":5126,
			"count":4,
			"type":"VEC3"
		}
	],
	"bufferViews":[
		{
			"buffer":0,
			"byteLength":15528,
			"byteOffset":0,
			"target":34962
		},
		{
			"buffer":0,
			"byteLength":15528,
			"byteOffset":15528,
			"target":34962
		},
		{
			"buffer":0,
			"byteLength":9252,
			"byteOffset":31056,
			"target":34963
		},
		{
			"buffer":0,
			"byteLength":960,
			"byteOffset":40308,
			"target":34962
		},
		{
			"buffer":0,
			"byteLength":960,
			"byteOffset":41268,
			"target":34962
		},
		{
			"buffer":0,
			"byteLength":240,
			"byteOffset":42228,
			"target":34963
		},
		{
			"buffer":0,
			"byteLength":48,
			"byteOffset":42468,
			"target":34962
		},
		{
			"buffer":0,
			"byteLength":48,
			"byteOffset":42516,
			"target":34962
		},
		{
			"buffer":0,
			"byteLength":12,
			"byteOffset":42564,
			"target":34963
		},
		{
			"buffer":0,
			"byteLength":10668,
			"byteOffset":42576,
			"target":34962
		},
		{
			"buffer":0,
			"byteLength":10668,
			"byteOffset":53244,
			"target":34962
		},
		{
			"buffer":0,
			"byteLength":5640,
			"byteOffset":63912,
			"target":34963
		},
		{
			"buffer":0,
			"byteLength":816,
			"byteOffset":69552,
			"target":34962
		},
		{
			"buffer":0,
			"byteLength":816,
			"byteOffset":70368,
			"target":34962
		},
		{
			"buffer":0,
			"byteLength":204,
			"byteOffset":71184,
			"target":34963
		},
		{
			"buffer":0,
			"byteLength":48,
			"byteOffset":71388,
			"target":34962
		},
		{
			"buffer":0,
			"byteLength":48,
			"byteOffset":71436,
			"target":34962
		},
		{
			"buffer":0,
			"byteLength":5844,
			"byteOffset":71484,
			"target":34962
		},
		{
			"buffer":0,
			"byteLength":5844,
			"byteOffset":77328,
			"target":34962
		},
		{
			"buffer":0,
			"byteLength":2808,
			"byteOffset":83172,
			"target":34963
		},
		{
			"buffer":0,
			"byteLength":456,
			"byteOffset":85980,
			"target":34962
		},
		{
			"buffer":0,
			"byteLength":456,
			"byteOffset":86436,
			"target":34962
		},
		{
			"buffer":0,
			"byteLength":120,
			"byteOffset":86892,
			"target":34963
		},
		{
			"buffer":0,
			"byteLength":48,
			"byteOffset":87012,
			"target":34962
		},
		{
			"buffer":0,
			"byteLength":48,
			"byteOffset":87060,
			"target":34962
		}
	],
	"buffers":[
		{
			"byteLength":87108,
			"uri":"BinaGrup5.bin"
		}
	]
}
