{
	"asset":{
		"generator":"Khronos glTF Blender I/O v4.2.60",
		"version":"2.0"
	},
	"scene":0,
	"scenes":[
		{
			"name":"Scene",
			"nodes":[
				0,
				1,
				2,
				3,
				4,
				5,
				6,
				7,
				8
			]
		}
	],
	"nodes":[
		{
			"mesh":0,
			"name":"Building_073.014"
		},
		{
			"mesh":1,
			"name":"Building_073.015"
		},
		{
			"mesh":2,
			"name":"Building_073.016"
		},
		{
			"mesh":3,
			"name":"Building_075.014"
		},
		{
			"mesh":4,
			"name":"Building_075.015"
		},
		{
			"mesh":5,
			"name":"Building_075.016"
		},
		{
			"mesh":6,
			"name":"Building_083.014"
		},
		{
			"mesh":7,
			"name":"Building_083.015"
		},
		{
			"mesh":8,
			"name":"Building_083.016"
		}
	],
	"materials":[
		{
			"doubleSided":true,
			"name":"BinaGrid",
			"pbrMetallicRoughness":{
				"baseColorFactor":[
					0.2874388098716736,
					0.3371638357639313,
					0.4178852438926697,
					1
				],
				"metallicFactor":0,
				"roughnessFactor":0.5
			}
		},
		{
			"doubleSided":true,
			"name":"PencereGrid",
			"pbrMetallicRoughness":{
				"baseColorFactor":[
					0.1499587893486023,
					0.17464761435985565,
					0.2122308313846588,
					1
				],
				"metallicFactor":0,
				"roughnessFactor":0.699999988079071
			}
		},
		{
			"doubleSided":true,
			"name":"Kap\u0131Grid",
			"pbrMetallicRoughness":{
				"baseColorFactor":[
					0.2874388098716736,
					0.3371638357639313,
					0.4178852438926697,
					1
				],
				"metallicFactor":0,
				"roughnessFactor":0.699999988079071
			}
		}
	],
	"meshes":[
		{
			"name":"Building_073_Mesh.014",
			"primitives":[
				{
					"attributes":{
						"POSITION":0,
						"NORMAL":1
					},
					"indices":2,
					"material":0
				}
			]
		},
		{
			"name":"Building_073_Mesh.015",
			"primitives":[
				{
					"attributes":{
						"POSITION":3,
						"NORMAL":4
					},
					"indices":5,
					"material":1
				}
			]
		},
		{
			"name":"Building_073_Mesh.016",
			"primitives":[
				{
					"attributes":{
						"POSITION":6,
						"NORMAL":7
					},
					"indices":8,
					"material":2
				}
			]
		},
		{
			"name":"Building_075_Mesh.014",
			"primitives":[
				{
					"attributes":{
						"POSITION":9,
						"NORMAL":10
					},
					"indices":11,
					"material":0
				}
			]
		},
		{
			"name":"Building_075_Mesh.015",
			"primitives":[
				{
					"attributes":{
						"POSITION":12,
						"NORMAL":13
					},
					"indices":14,
					"material":1
				}
			]
		},
		{
			"name":"Building_075_Mesh.016",
			"primitives":[
				{
					"attributes":{
						"POSITION":15,
						"NORMAL":16
					},
					"indices":8,
					"material":2
				}
			]
		},
		{
			"name":"Building_083_Mesh.014",
			"primitives":[
				{
					"attributes":{
						"POSITION":17,
						"NORMAL":18
					},
					"indices":19,
					"material":0
				}
			]
		},
		{
			"name":"Building_083_Mesh.015",
			"primitives":[
				{
					"attributes":{
						"POSITION":20,
						"NORMAL":21
					},
					"indices":22,
					"material":1
				}
			]
		},
		{
			"name":"Building_083_Mesh.016",
			"primitives":[
				{
					"attributes":{
						"POSITION":23,
						"NORMAL":24
					},
					"indices":8,
					"material":2
				}
			]
		}
	],
	"accessors":[
		{
			"bufferView":0,
			"componentType":5126,
			"count":308,
			"max":[
				0.35869544744491577,
				-0.60326087474823,
				0.05434785410761833
			],
			"min":[
				0.32608675956726074,
				-0.64673912525177,
				2.9802322387695312e-08
			],
			"type":"VEC3"
		},
		{
			"bufferView":1,
			"componentType":5126,
			"count":308,
			"type":"VEC3"
		},
		{
			"bufferView":2,
			"componentType":5123,
			"count":750,
			"type":"SCALAR"
		},
		{
			"bufferView":3,
			"componentType":5126,
			"count":16,
			"max":[
				0.35326069593429565,
				-0.616304337978363,
				0.05217394232749939
			],
			"min":[
				0.33152157068252563,
				-0.6391304135322571,
				0.05217394232749939
			],
			"type":"VEC3"
		},
		{
			"bufferView":4,
			"componentType":5126,
			"count":16,
			"type":"VEC3"
		},
		{
			"bufferView":5,
			"componentType":5123,
			"count":24,
			"type":"SCALAR"
		},
		{
			"bufferView":6,
			"componentType":5126,
			"count":4,
			"max":[
				0.3532606363296509,
				-0.6326086521148682,
				0.05217394232749939
			],
			"min":[
				0.3445649743080139,
				-0.64673912525177,
				0.05217394232749939
			],
			"type":"VEC3"
		},
		{
			"bufferView":7,
			"componentType":5126,
			"count":4,
			"type":"VEC3"
		},
		{
			"bufferView":8,
			"componentType":5123,
			"count":6,
			"type":"SCALAR"
		},
		{
			"bufferView":9,
			"componentType":5126,
			"count":514,
			"max":[
				0.36684757471084595,
				-0.7945652008056641,
				0.05434786155819893
			],
			"min":[
				0.317934513092041,
				-0.8423912525177002,
				2.9802322387695312e-08
			],
			"type":"VEC3"
		},
		{
			"bufferView":10,
			"componentType":5126,
			"count":514,
			"type":"VEC3"
		},
		{
			"bufferView":11,
			"componentType":5123,
			"count":1434,
			"type":"SCALAR"
		},
		{
			"bufferView":12,
			"componentType":5126,
			"count":32,
			"max":[
				0.36195629835128784,
				-0.811956524848938,
				0.05217394232749939
			],
			"min":[
				0.32282590866088867,
				-0.834782600402832,
				0.05217394232749939
			],
			"type":"VEC3"
		},
		{
			"bufferView":13,
			"componentType":5126,
			"count":32,
			"type":"VEC3"
		},
		{
			"bufferView":14,
			"componentType":5123,
			"count":48,
			"type":"SCALAR"
		},
		{
			"bufferView":15,
			"componentType":5126,
			"count":4,
			"max":[
				0.3510867953300476,
				-0.8282608389854431,
				0.05217394232749939
			],
			"min":[
				0.3336954116821289,
				-0.8423912525177002,
				0.05217394232749939
			],
			"type":"VEC3"
		},
		{
			"bufferView":16,
			"componentType":5126,
			"count":4,
			"type":"VEC3"
		},
		{
			"bufferView":17,
			"componentType":5126,
			"count":524,
			"max":[
				0.4429345726966858,
				-0.89673912525177,
				0.05434785038232803
			],
			"min":[
				0.39402157068252563,
				-0.9402173757553101,
				2.9802322387695312e-08
			],
			"type":"VEC3"
		},
		{
			"bufferView":18,
			"componentType":5126,
			"count":524,
			"type":"VEC3"
		},
		{
			"bufferView":19,
			"componentType":5123,
			"count":1488,
			"type":"SCALAR"
		},
		{
			"bufferView":20,
			"componentType":5126,
			"count":28,
			"max":[
				0.4380432963371277,
				-0.9097825884819031,
				0.05217394232749939
			],
			"min":[
				0.39891284704208374,
				-0.9347826242446899,
				0.05217394232749939
			],
			"type":"VEC3"
		},
		{
			"bufferView":21,
			"componentType":5126,
			"count":28,
			"type":"VEC3"
		},
		{
			"bufferView":22,
			"componentType":5123,
			"count":42,
			"type":"SCALAR"
		},
		{
			"bufferView":23,
			"componentType":5126,
			"count":4,
			"max":[
				0.4380432963371277,
				-0.9260869026184082,
				0.05217394232749939
			],
			"min":[
				0.431521475315094,
				-0.9402173757553101,
				0.05217394232749939
			],
			"type":"VEC3"
		},
		{
			"bufferView":24,
			"componentType":5126,
			"count":4,
			"type":"VEC3"
		}
	],
	"bufferViews":[
		{
			"buffer":0,
			"byteLength":3696,
			"byteOffset":0,
			"target":34962
		},
		{
			"buffer":0,
			"byteLength":3696,
			"byteOffset":3696,
			"target":34962
		},
		{
			"buffer":0,
			"byteLength":1500,
			"byteOffset":7392,
			"target":34963
		},
		{
			"buffer":0,
			"byteLength":192,
			"byteOffset":8892,
			"target":34962
		},
		{
			"buffer":0,
			"byteLength":192,
			"byteOffset":9084,
			"target":34962
		},
		{
			"buffer":0,
			"byteLength":48,
			"byteOffset":9276,
			"target":34963
		},
		{
			"buffer":0,
			"byteLength":48,
			"byteOffset":9324,
			"target":34962
		},
		{
			"buffer":0,
			"byteLength":48,
			"byteOffset":9372,
			"target":34962
		},
		{
			"buffer":0,
			"byteLength":12,
			"byteOffset":9420,
			"target":34963
		},
		{
			"buffer":0,
			"byteLength":6168,
			"byteOffset":9432,
			"target":34962
		},
		{
			"buffer":0,
			"byteLength":6168,
			"byteOffset":15600,
			"target":34962
		},
		{
			"buffer":0,
			"byteLength":2868,
			"byteOffset":21768,
			"target":34963
		},
		{
			"buffer":0,
			"byteLength":384,
			"byteOffset":24636,
			"target":34962
		},
		{
			"buffer":0,
			"byteLength":384,
			"byteOffset":25020,
			"target":34962
		},
		{
			"buffer":0,
			"byteLength":96,
			"byteOffset":25404,
			"target":34963
		},
		{
			"buffer":0,
			"byteLength":48,
			"byteOffset":25500,
			"target":34962
		},
		{
			"buffer":0,
			"byteLength":48,
			"byteOffset":25548,
			"target":34962
		},
		{
			"buffer":0,
			"byteLength":6288,
			"byteOffset":25596,
			"target":34962
		},
		{
			"buffer":0,
			"byteLength":6288,
			"byteOffset":31884,
			"target":34962
		},
		{
			"buffer":0,
			"byteLength":2976,
			"byteOffset":38172,
			"target":34963
		},
		{
			"buffer":0,
			"byteLength":336,
			"byteOffset":41148,
			"target":34962
		},
		{
			"buffer":0,
			"byteLength":336,
			"byteOffset":41484,
			"target":34962
		},
		{
			"buffer":0,
			"byteLength":84,
			"byteOffset":41820,
			"target":34963
		},
		{
			"buffer":0,
			"byteLength":48,
			"byteOffset":41904,
			"target":34962
		},
		{
			"buffer":0,
			"byteLength":48,
			"byteOffset":41952,
			"target":34962
		}
	],
	"buffers":[
		{
			"byteLength":42000,
			"uri":"BinaGrup2.bin"
		}
	]
}
