{
	"asset":{
		"generator":"Khronos glTF Blender I/O v4.2.60",
		"version":"2.0"
	},
	"scene":0,
	"scenes":[
		{
			"name":"Scene",
			"nodes":[
				0,
				1,
				2,
				3,
				4,
				5,
				6,
				7,
				8
			]
		}
	],
	"nodes":[
		{
			"mesh":0,
			"name":"Building_074.014"
		},
		{
			"mesh":1,
			"name":"Building_074.015"
		},
		{
			"mesh":2,
			"name":"Building_074.016"
		},
		{
			"mesh":3,
			"name":"Building_077.014"
		},
		{
			"mesh":4,
			"name":"Building_077.015"
		},
		{
			"mesh":5,
			"name":"Building_077.016"
		},
		{
			"mesh":6,
			"name":"Building_078.014"
		},
		{
			"mesh":7,
			"name":"Building_078.015"
		},
		{
			"mesh":8,
			"name":"Building_078.016"
		}
	],
	"materials":[
		{
			"doubleSided":true,
			"name":"BinaGrid",
			"pbrMetallicRoughness":{
				"baseColorFactor":[
					0.2874388098716736,
					0.3371638357639313,
					0.4178852438926697,
					1
				],
				"metallicFactor":0,
				"roughnessFactor":0.5
			}
		},
		{
			"doubleSided":true,
			"name":"PencereGrid",
			"pbrMetallicRoughness":{
				"baseColorFactor":[
					0.1499587893486023,
					0.17464761435985565,
					0.2122308313846588,
					1
				],
				"metallicFactor":0,
				"roughnessFactor":0.699999988079071
			}
		},
		{
			"doubleSided":true,
			"name":"Kap\u0131Grid",
			"pbrMetallicRoughness":{
				"baseColorFactor":[
					0.2874388098716736,
					0.3371638357639313,
					0.4178852438926697,
					1
				],
				"metallicFactor":0,
				"roughnessFactor":0.699999988079071
			}
		}
	],
	"meshes":[
		{
			"name":"Building_074_Mesh.014",
			"primitives":[
				{
					"attributes":{
						"POSITION":0,
						"NORMAL":1
					},
					"indices":2,
					"material":0
				}
			]
		},
		{
			"name":"Building_074_Mesh.015",
			"primitives":[
				{
					"attributes":{
						"POSITION":3,
						"NORMAL":4
					},
					"indices":5,
					"material":1
				}
			]
		},
		{
			"name":"Building_074_Mesh.016",
			"primitives":[
				{
					"attributes":{
						"POSITION":6,
						"NORMAL":7
					},
					"indices":8,
					"material":2
				}
			]
		},
		{
			"name":"Building_077_Mesh.014",
			"primitives":[
				{
					"attributes":{
						"POSITION":9,
						"NORMAL":10
					},
					"indices":11,
					"material":0
				}
			]
		},
		{
			"name":"Building_077_Mesh.015",
			"primitives":[
				{
					"attributes":{
						"POSITION":12,
						"NORMAL":13
					},
					"indices":14,
					"material":1
				}
			]
		},
		{
			"name":"Building_077_Mesh.016",
			"primitives":[
				{
					"attributes":{
						"POSITION":15,
						"NORMAL":16
					},
					"indices":8,
					"material":2
				}
			]
		},
		{
			"name":"Building_078_Mesh.014",
			"primitives":[
				{
					"attributes":{
						"POSITION":17,
						"NORMAL":18
					},
					"indices":19,
					"material":0
				}
			]
		},
		{
			"name":"Building_078_Mesh.015",
			"primitives":[
				{
					"attributes":{
						"POSITION":20,
						"NORMAL":21
					},
					"indices":22,
					"material":1
				}
			]
		},
		{
			"name":"Building_078_Mesh.016",
			"primitives":[
				{
					"attributes":{
						"POSITION":23,
						"NORMAL":24
					},
					"indices":8,
					"material":2
				}
			]
		}
	],
	"accessors":[
		{
			"bufferView":0,
			"componentType":5126,
			"count":826,
			"max":[
				0.3668476939201355,
				-0.6847826242446899,
				0.043478287756443024
			],
			"min":[
				0.31793463230133057,
				-0.7445651888847351,
				2.9802322387695312e-08
			],
			"type":"VEC3"
		},
		{
			"bufferView":1,
			"componentType":5126,
			"count":826,
			"type":"VEC3"
		},
		{
			"bufferView":2,
			"componentType":5123,
			"count":2670,
			"type":"SCALAR"
		},
		{
			"bufferView":3,
			"componentType":5126,
			"count":52,
			"max":[
				0.36195629835128784,
				-0.697826087474823,
				0.04130437225103378
			],
			"min":[
				0.32282590866088867,
				-0.741304337978363,
				0.04130437225103378
			],
			"type":"VEC3"
		},
		{
			"bufferView":4,
			"componentType":5126,
			"count":52,
			"type":"VEC3"
		},
		{
			"bufferView":5,
			"componentType":5123,
			"count":78,
			"type":"SCALAR"
		},
		{
			"bufferView":6,
			"componentType":5126,
			"count":4,
			"max":[
				0.3293476700782776,
				-0.730434775352478,
				0.04130437597632408
			],
			"min":[
				0.32282590866088867,
				-0.7445651888847351,
				0.04130437597632408
			],
			"type":"VEC3"
		},
		{
			"bufferView":7,
			"componentType":5126,
			"count":4,
			"type":"VEC3"
		},
		{
			"bufferView":8,
			"componentType":5123,
			"count":6,
			"type":"SCALAR"
		},
		{
			"bufferView":9,
			"componentType":5126,
			"count":525,
			"max":[
				0.44293463230133057,
				-0.3076086640357971,
				0.06521741300821304
			],
			"min":[
				0.39402157068252563,
				-0.3532608151435852,
				2.561137080192566e-08
			],
			"type":"VEC3"
		},
		{
			"bufferView":10,
			"componentType":5126,
			"count":525,
			"type":"VEC3"
		},
		{
			"bufferView":11,
			"componentType":5123,
			"count":1488,
			"type":"SCALAR"
		},
		{
			"bufferView":12,
			"componentType":5126,
			"count":32,
			"max":[
				0.4380432963371277,
				-0.322826087474823,
				0.0630435049533844
			],
			"min":[
				0.39891284704208374,
				-0.34999996423721313,
				0.0630435049533844
			],
			"type":"VEC3"
		},
		{
			"bufferView":13,
			"componentType":5126,
			"count":32,
			"type":"VEC3"
		},
		{
			"bufferView":14,
			"componentType":5123,
			"count":48,
			"type":"SCALAR"
		},
		{
			"bufferView":15,
			"componentType":5126,
			"count":4,
			"max":[
				0.4380432963371277,
				-0.3391304016113281,
				0.0630435049533844
			],
			"min":[
				0.431521475315094,
				-0.3532608151435852,
				0.0630435049533844
			],
			"type":"VEC3"
		},
		{
			"bufferView":16,
			"componentType":5126,
			"count":4,
			"type":"VEC3"
		},
		{
			"bufferView":17,
			"componentType":5126,
			"count":511,
			"max":[
				0.44293463230133057,
				-0.40326088666915894,
				0.05434786155819893
			],
			"min":[
				0.39402157068252563,
				-0.45108696818351746,
				2.9802322387695312e-08
			],
			"type":"VEC3"
		},
		{
			"bufferView":18,
			"componentType":5126,
			"count":511,
			"type":"VEC3"
		},
		{
			"bufferView":19,
			"componentType":5123,
			"count":1416,
			"type":"SCALAR"
		},
		{
			"bufferView":20,
			"componentType":5126,
			"count":24,
			"max":[
				0.4380432367324829,
				-0.42065221071243286,
				0.05217394232749939
			],
			"min":[
				0.39891284704208374,
				-0.4478260576725006,
				0.05217394232749939
			],
			"type":"VEC3"
		},
		{
			"bufferView":21,
			"componentType":5126,
			"count":24,
			"type":"VEC3"
		},
		{
			"bufferView":22,
			"componentType":5123,
			"count":36,
			"type":"SCALAR"
		},
		{
			"bufferView":23,
			"componentType":5126,
			"count":4,
			"max":[
				0.40543460845947266,
				-0.436956524848938,
				0.05217394232749939
			],
			"min":[
				0.39891284704208374,
				-0.45108696818351746,
				0.05217394232749939
			],
			"type":"VEC3"
		},
		{
			"bufferView":24,
			"componentType":5126,
			"count":4,
			"type":"VEC3"
		}
	],
	"bufferViews":[
		{
			"buffer":0,
			"byteLength":9912,
			"byteOffset":0,
			"target":34962
		},
		{
			"buffer":0,
			"byteLength":9912,
			"byteOffset":9912,
			"target":34962
		},
		{
			"buffer":0,
			"byteLength":5340,
			"byteOffset":19824,
			"target":34963
		},
		{
			"buffer":0,
			"byteLength":624,
			"byteOffset":25164,
			"target":34962
		},
		{
			"buffer":0,
			"byteLength":624,
			"byteOffset":25788,
			"target":34962
		},
		{
			"buffer":0,
			"byteLength":156,
			"byteOffset":26412,
			"target":34963
		},
		{
			"buffer":0,
			"byteLength":48,
			"byteOffset":26568,
			"target":34962
		},
		{
			"buffer":0,
			"byteLength":48,
			"byteOffset":26616,
			"target":34962
		},
		{
			"buffer":0,
			"byteLength":12,
			"byteOffset":26664,
			"target":34963
		},
		{
			"buffer":0,
			"byteLength":6300,
			"byteOffset":26676,
			"target":34962
		},
		{
			"buffer":0,
			"byteLength":6300,
			"byteOffset":32976,
			"target":34962
		},
		{
			"buffer":0,
			"byteLength":2976,
			"byteOffset":39276,
			"target":34963
		},
		{
			"buffer":0,
			"byteLength":384,
			"byteOffset":42252,
			"target":34962
		},
		{
			"buffer":0,
			"byteLength":384,
			"byteOffset":42636,
			"target":34962
		},
		{
			"buffer":0,
			"byteLength":96,
			"byteOffset":43020,
			"target":34963
		},
		{
			"buffer":0,
			"byteLength":48,
			"byteOffset":43116,
			"target":34962
		},
		{
			"buffer":0,
			"byteLength":48,
			"byteOffset":43164,
			"target":34962
		},
		{
			"buffer":0,
			"byteLength":6132,
			"byteOffset":43212,
			"target":34962
		},
		{
			"buffer":0,
			"byteLength":6132,
			"byteOffset":49344,
			"target":34962
		},
		{
			"buffer":0,
			"byteLength":2832,
			"byteOffset":55476,
			"target":34963
		},
		{
			"buffer":0,
			"byteLength":288,
			"byteOffset":58308,
			"target":34962
		},
		{
			"buffer":0,
			"byteLength":288,
			"byteOffset":58596,
			"target":34962
		},
		{
			"buffer":0,
			"byteLength":72,
			"byteOffset":58884,
			"target":34963
		},
		{
			"buffer":0,
			"byteLength":48,
			"byteOffset":58956,
			"target":34962
		},
		{
			"buffer":0,
			"byteLength":48,
			"byteOffset":59004,
			"target":34962
		}
	],
	"buffers":[
		{
			"byteLength":59052,
			"uri":"BinaGrup3.bin"
		}
	]
}
