{
	"asset":{
		"generator":"Khronos glTF Blender I/O v4.2.60",
		"version":"2.0"
	},
	"scene":0,
	"scenes":[
		{
			"name":"Scene",
			"nodes":[
				0,
				1,
				2,
				3,
				4,
				5,
				6,
				7,
				8,
				9,
				10,
				11,
				12,
				13,
				14,
				15,
				16,
				17
			]
		}
	],
	"nodes":[
		{
			"mesh":0,
			"name":"Building_021.016"
		},
		{
			"mesh":1,
			"name":"Building_021.017"
		},
		{
			"mesh":2,
			"name":"Building_021.018"
		},
		{
			"mesh":3,
			"name":"Building_036.016"
		},
		{
			"mesh":4,
			"name":"Building_036.017"
		},
		{
			"mesh":5,
			"name":"Building_036.018"
		},
		{
			"mesh":6,
			"name":"Building_039.016"
		},
		{
			"mesh":7,
			"name":"Building_039.017"
		},
		{
			"mesh":8,
			"name":"Building_039.018"
		},
		{
			"mesh":9,
			"name":"Building_062.016"
		},
		{
			"mesh":10,
			"name":"Building_062.017"
		},
		{
			"mesh":11,
			"name":"Building_062.018"
		},
		{
			"mesh":12,
			"name":"Building_079.014"
		},
		{
			"mesh":13,
			"name":"Building_079.015"
		},
		{
			"mesh":14,
			"name":"Building_079.016"
		},
		{
			"mesh":15,
			"name":"Building_080.014"
		},
		{
			"mesh":16,
			"name":"Building_080.015"
		},
		{
			"mesh":17,
			"name":"Building_080.016"
		}
	],
	"materials":[
		{
			"doubleSided":true,
			"name":"BinaGrid",
			"pbrMetallicRoughness":{
				"baseColorFactor":[
					0.2874388098716736,
					0.3371638357639313,
					0.4178852438926697,
					1
				],
				"metallicFactor":0,
				"roughnessFactor":0.5
			}
		},
		{
			"doubleSided":true,
			"name":"PencereGrid",
			"pbrMetallicRoughness":{
				"baseColorFactor":[
					0.1499587893486023,
					0.17464761435985565,
					0.2122308313846588,
					1
				],
				"metallicFactor":0,
				"roughnessFactor":0.699999988079071
			}
		},
		{
			"doubleSided":true,
			"name":"Kap\u0131Grid",
			"pbrMetallicRoughness":{
				"baseColorFactor":[
					0.2874388098716736,
					0.3371638357639313,
					0.4178852438926697,
					1
				],
				"metallicFactor":0,
				"roughnessFactor":0.699999988079071
			}
		}
	],
	"meshes":[
		{
			"name":"Building_021_Mesh.018",
			"primitives":[
				{
					"attributes":{
						"POSITION":0,
						"NORMAL":1
					},
					"indices":2,
					"material":0
				}
			]
		},
		{
			"name":"Building_021_Mesh.019",
			"primitives":[
				{
					"attributes":{
						"POSITION":3,
						"NORMAL":4
					},
					"indices":5,
					"material":1
				}
			]
		},
		{
			"name":"Building_021_Mesh.020",
			"primitives":[
				{
					"attributes":{
						"POSITION":6,
						"NORMAL":7
					},
					"indices":8,
					"material":2
				}
			]
		},
		{
			"name":"Building_036_Mesh.018",
			"primitives":[
				{
					"attributes":{
						"POSITION":9,
						"NORMAL":10
					},
					"indices":11,
					"material":0
				}
			]
		},
		{
			"name":"Building_036_Mesh.019",
			"primitives":[
				{
					"attributes":{
						"POSITION":12,
						"NORMAL":13
					},
					"indices":5,
					"material":1
				}
			]
		},
		{
			"name":"Building_036_Mesh.020",
			"primitives":[
				{
					"attributes":{
						"POSITION":14,
						"NORMAL":15
					},
					"indices":8,
					"material":2
				}
			]
		},
		{
			"name":"Building_039_Mesh.018",
			"primitives":[
				{
					"attributes":{
						"POSITION":16,
						"NORMAL":17
					},
					"indices":18,
					"material":0
				}
			]
		},
		{
			"name":"Building_039_Mesh.019",
			"primitives":[
				{
					"attributes":{
						"POSITION":19,
						"NORMAL":20
					},
					"indices":21,
					"material":1
				}
			]
		},
		{
			"name":"Building_039_Mesh.020",
			"primitives":[
				{
					"attributes":{
						"POSITION":22,
						"NORMAL":23
					},
					"indices":8,
					"material":2
				}
			]
		},
		{
			"name":"Building_062_Mesh.018",
			"primitives":[
				{
					"attributes":{
						"POSITION":24,
						"NORMAL":25
					},
					"indices":26,
					"material":0
				}
			]
		},
		{
			"name":"Building_062_Mesh.019",
			"primitives":[
				{
					"attributes":{
						"POSITION":27,
						"NORMAL":28
					},
					"indices":29,
					"material":1
				}
			]
		},
		{
			"name":"Building_062_Mesh.020",
			"primitives":[
				{
					"attributes":{
						"POSITION":30,
						"NORMAL":31
					},
					"indices":8,
					"material":2
				}
			]
		},
		{
			"name":"Building_079_Mesh.014",
			"primitives":[
				{
					"attributes":{
						"POSITION":32,
						"NORMAL":33
					},
					"indices":34,
					"material":0
				}
			]
		},
		{
			"name":"Building_079_Mesh.015",
			"primitives":[
				{
					"attributes":{
						"POSITION":35,
						"NORMAL":36
					},
					"indices":5,
					"material":1
				}
			]
		},
		{
			"name":"Building_079_Mesh.016",
			"primitives":[
				{
					"attributes":{
						"POSITION":37,
						"NORMAL":38
					},
					"indices":8,
					"material":2
				}
			]
		},
		{
			"name":"Building_080_Mesh.014",
			"primitives":[
				{
					"attributes":{
						"POSITION":39,
						"NORMAL":40
					},
					"indices":41,
					"material":0
				}
			]
		},
		{
			"name":"Building_080_Mesh.015",
			"primitives":[
				{
					"attributes":{
						"POSITION":42,
						"NORMAL":43
					},
					"indices":29,
					"material":1
				}
			]
		},
		{
			"name":"Building_080_Mesh.016",
			"primitives":[
				{
					"attributes":{
						"POSITION":44,
						"NORMAL":45
					},
					"indices":8,
					"material":2
				}
			]
		}
	],
	"accessors":[
		{
			"bufferView":0,
			"componentType":5126,
			"count":497,
			"max":[
				-0.17357729375362396,
				-0.28913038969039917,
				0.043478287756443024
			],
			"min":[
				-0.206185981631279,
				-0.3532608151435852,
				2.9802322387695312e-08
			],
			"type":"VEC3"
		},
		{
			"bufferView":1,
			"componentType":5126,
			"count":497,
			"type":"VEC3"
		},
		{
			"bufferView":2,
			"componentType":5123,
			"count":1398,
			"type":"SCALAR"
		},
		{
			"bufferView":3,
			"componentType":5126,
			"count":36,
			"max":[
				-0.17901206016540527,
				-0.3065217137336731,
				0.04130437225103378
			],
			"min":[
				-0.2007511854171753,
				-0.3500000238418579,
				0.04130437225103378
			],
			"type":"VEC3"
		},
		{
			"bufferView":4,
			"componentType":5126,
			"count":36,
			"type":"VEC3"
		},
		{
			"bufferView":5,
			"componentType":5123,
			"count":54,
			"type":"SCALAR"
		},
		{
			"bufferView":6,
			"componentType":5126,
			"count":4,
			"max":[
				-0.19205555319786072,
				-0.3391304016113281,
				0.04130437970161438
			],
			"min":[
				-0.2007511854171753,
				-0.3532608151435852,
				0.04130437970161438
			],
			"type":"VEC3"
		},
		{
			"bufferView":7,
			"componentType":5126,
			"count":4,
			"type":"VEC3"
		},
		{
			"bufferView":8,
			"componentType":5123,
			"count":6,
			"type":"SCALAR"
		},
		{
			"bufferView":9,
			"componentType":5126,
			"count":497,
			"max":[
				-0.021403372287750244,
				-0.38695651292800903,
				0.05434785410761833
			],
			"min":[
				-0.05401206016540527,
				-0.45108696818351746,
				2.9802322387695312e-08
			],
			"type":"VEC3"
		},
		{
			"bufferView":10,
			"componentType":5126,
			"count":497,
			"type":"VEC3"
		},
		{
			"bufferView":11,
			"componentType":5123,
			"count":1398,
			"type":"SCALAR"
		},
		{
			"bufferView":12,
			"componentType":5126,
			"count":36,
			"max":[
				-0.026838183403015137,
				-0.40434783697128296,
				0.05217394232749939
			],
			"min":[
				-0.048577338457107544,
				-0.4434782564640045,
				0.05217394232749939
			],
			"type":"VEC3"
		},
		{
			"bufferView":13,
			"componentType":5126,
			"count":36,
			"type":"VEC3"
		},
		{
			"bufferView":14,
			"componentType":5126,
			"count":4,
			"max":[
				-0.03988164663314819,
				-0.436956524848938,
				0.05217394232749939
			],
			"min":[
				-0.048577338457107544,
				-0.45108696818351746,
				0.05217394232749939
			],
			"type":"VEC3"
		},
		{
			"bufferView":15,
			"componentType":5126,
			"count":4,
			"type":"VEC3"
		},
		{
			"bufferView":16,
			"componentType":5126,
			"count":507,
			"max":[
				-0.01325121521949768,
				-0.6967390775680542,
				0.05434785410761833
			],
			"min":[
				-0.062164247035980225,
				-0.7445651888847351,
				2.9802322387695312e-08
			],
			"type":"VEC3"
		},
		{
			"bufferView":17,
			"componentType":5126,
			"count":507,
			"type":"VEC3"
		},
		{
			"bufferView":18,
			"componentType":5123,
			"count":1488,
			"type":"SCALAR"
		},
		{
			"bufferView":19,
			"componentType":5126,
			"count":32,
			"max":[
				-0.018142521381378174,
				-0.7141304016113281,
				0.05217394232749939
			],
			"min":[
				-0.05727297067642212,
				-0.7369564771652222,
				0.05217394232749939
			],
			"type":"VEC3"
		},
		{
			"bufferView":20,
			"componentType":5126,
			"count":32,
			"type":"VEC3"
		},
		{
			"bufferView":21,
			"componentType":5123,
			"count":48,
			"type":"SCALAR"
		},
		{
			"bufferView":22,
			"componentType":5126,
			"count":4,
			"max":[
				-0.01814255118370056,
				-0.730434775352478,
				0.05217394232749939
			],
			"min":[
				-0.02466428279876709,
				-0.7445651888847351,
				0.05217394232749939
			],
			"type":"VEC3"
		},
		{
			"bufferView":23,
			"componentType":5126,
			"count":4,
			"type":"VEC3"
		},
		{
			"bufferView":24,
			"componentType":5126,
			"count":481,
			"max":[
				0.20685744285583496,
				-0.886956512928009,
				0.06521742045879364
			],
			"min":[
				0.1742488145828247,
				-0.9402173757553101,
				2.9802322387695312e-08
			],
			"type":"VEC3"
		},
		{
			"bufferView":25,
			"componentType":5126,
			"count":481,
			"type":"VEC3"
		},
		{
			"bufferView":26,
			"componentType":5123,
			"count":1389,
			"type":"SCALAR"
		},
		{
			"bufferView":27,
			"componentType":5126,
			"count":39,
			"max":[
				0.20142263174057007,
				-0.893478274345398,
				0.0630435049533844
			],
			"min":[
				0.17968350648880005,
				-0.9347826242446899,
				0.0630435049533844
			],
			"type":"VEC3"
		},
		{
			"bufferView":28,
			"componentType":5126,
			"count":39,
			"type":"VEC3"
		},
		{
			"bufferView":29,
			"componentType":5123,
			"count":63,
			"type":"SCALAR"
		},
		{
			"bufferView":30,
			"componentType":5126,
			"count":4,
			"max":[
				0.20142269134521484,
				-0.9260869026184082,
				0.0630435049533844
			],
			"min":[
				0.19272702932357788,
				-0.9402173757553101,
				0.0630435049533844
			],
			"type":"VEC3"
		},
		{
			"bufferView":31,
			"componentType":5126,
			"count":4,
			"type":"VEC3"
		},
		{
			"bufferView":32,
			"componentType":5126,
			"count":477,
			"max":[
				0.43478238582611084,
				-0.4956521689891815,
				0.043478287756443024
			],
			"min":[
				0.4021736979484558,
				-0.5489130020141602,
				2.9802322387695312e-08
			],
			"type":"VEC3"
		},
		{
			"bufferView":33,
			"componentType":5126,
			"count":477,
			"type":"VEC3"
		},
		{
			"bufferView":34,
			"componentType":5123,
			"count":1386,
			"type":"SCALAR"
		},
		{
			"bufferView":35,
			"componentType":5126,
			"count":36,
			"max":[
				0.4293476939201355,
				-0.502173900604248,
				0.04130437225103378
			],
			"min":[
				0.4076085090637207,
				-0.5456521511077881,
				0.04130437225103378
			],
			"type":"VEC3"
		},
		{
			"bufferView":36,
			"componentType":5126,
			"count":36,
			"type":"VEC3"
		},
		{
			"bufferView":37,
			"componentType":5126,
			"count":4,
			"max":[
				0.41630417108535767,
				-0.5347825288772583,
				0.04130437597632408
			],
			"min":[
				0.4076085090637207,
				-0.5489130020141602,
				0.04130437597632408
			],
			"type":"VEC3"
		},
		{
			"bufferView":38,
			"componentType":5126,
			"count":4,
			"type":"VEC3"
		},
		{
			"bufferView":39,
			"componentType":5126,
			"count":501,
			"max":[
				0.43478238582611084,
				-0.5869565010070801,
				0.06521742045879364
			],
			"min":[
				0.4021736979484558,
				-0.64673912525177,
				2.9802322387695312e-08
			],
			"type":"VEC3"
		},
		{
			"bufferView":40,
			"componentType":5126,
			"count":501,
			"type":"VEC3"
		},
		{
			"bufferView":41,
			"componentType":5123,
			"count":1401,
			"type":"SCALAR"
		},
		{
			"bufferView":42,
			"componentType":5126,
			"count":39,
			"max":[
				0.4293476343154907,
				-0.6000000238418579,
				0.0630435049533844
			],
			"min":[
				0.4076085090637207,
				-0.6413043737411499,
				0.0630435049533844
			],
			"type":"VEC3"
		},
		{
			"bufferView":43,
			"componentType":5126,
			"count":39,
			"type":"VEC3"
		},
		{
			"bufferView":44,
			"componentType":5126,
			"count":4,
			"max":[
				0.4293476343154907,
				-0.6326086521148682,
				0.0630435049533844
			],
			"min":[
				0.420651912689209,
				-0.64673912525177,
				0.0630435049533844
			],
			"type":"VEC3"
		},
		{
			"bufferView":45,
			"componentType":5126,
			"count":4,
			"type":"VEC3"
		}
	],
	"bufferViews":[
		{
			"buffer":0,
			"byteLength":5964,
			"byteOffset":0,
			"target":34962
		},
		{
			"buffer":0,
			"byteLength":5964,
			"byteOffset":5964,
			"target":34962
		},
		{
			"buffer":0,
			"byteLength":2796,
			"byteOffset":11928,
			"target":34963
		},
		{
			"buffer":0,
			"byteLength":432,
			"byteOffset":14724,
			"target":34962
		},
		{
			"buffer":0,
			"byteLength":432,
			"byteOffset":15156,
			"target":34962
		},
		{
			"buffer":0,
			"byteLength":108,
			"byteOffset":15588,
			"target":34963
		},
		{
			"buffer":0,
			"byteLength":48,
			"byteOffset":15696,
			"target":34962
		},
		{
			"buffer":0,
			"byteLength":48,
			"byteOffset":15744,
			"target":34962
		},
		{
			"buffer":0,
			"byteLength":12,
			"byteOffset":15792,
			"target":34963
		},
		{
			"buffer":0,
			"byteLength":5964,
			"byteOffset":15804,
			"target":34962
		},
		{
			"buffer":0,
			"byteLength":5964,
			"byteOffset":21768,
			"target":34962
		},
		{
			"buffer":0,
			"byteLength":2796,
			"byteOffset":27732,
			"target":34963
		},
		{
			"buffer":0,
			"byteLength":432,
			"byteOffset":30528,
			"target":34962
		},
		{
			"buffer":0,
			"byteLength":432,
			"byteOffset":30960,
			"target":34962
		},
		{
			"buffer":0,
			"byteLength":48,
			"byteOffset":31392,
			"target":34962
		},
		{
			"buffer":0,
			"byteLength":48,
			"byteOffset":31440,
			"target":34962
		},
		{
			"buffer":0,
			"byteLength":6084,
			"byteOffset":31488,
			"target":34962
		},
		{
			"buffer":0,
			"byteLength":6084,
			"byteOffset":37572,
			"target":34962
		},
		{
			"buffer":0,
			"byteLength":2976,
			"byteOffset":43656,
			"target":34963
		},
		{
			"buffer":0,
			"byteLength":384,
			"byteOffset":46632,
			"target":34962
		},
		{
			"buffer":0,
			"byteLength":384,
			"byteOffset":47016,
			"target":34962
		},
		{
			"buffer":0,
			"byteLength":96,
			"byteOffset":47400,
			"target":34963
		},
		{
			"buffer":0,
			"byteLength":48,
			"byteOffset":47496,
			"target":34962
		},
		{
			"buffer":0,
			"byteLength":48,
			"byteOffset":47544,
			"target":34962
		},
		{
			"buffer":0,
			"byteLength":5772,
			"byteOffset":47592,
			"target":34962
		},
		{
			"buffer":0,
			"byteLength":5772,
			"byteOffset":53364,
			"target":34962
		},
		{
			"buffer":0,
			"byteLength":2778,
			"byteOffset":59136,
			"target":34963
		},
		{
			"buffer":0,
			"byteLength":468,
			"byteOffset":61916,
			"target":34962
		},
		{
			"buffer":0,
			"byteLength":468,
			"byteOffset":62384,
			"target":34962
		},
		{
			"buffer":0,
			"byteLength":126,
			"byteOffset":62852,
			"target":34963
		},
		{
			"buffer":0,
			"byteLength":48,
			"byteOffset":62980,
			"target":34962
		},
		{
			"buffer":0,
			"byteLength":48,
			"byteOffset":63028,
			"target":34962
		},
		{
			"buffer":0,
			"byteLength":5724,
			"byteOffset":63076,
			"target":34962
		},
		{
			"buffer":0,
			"byteLength":5724,
			"byteOffset":68800,
			"target":34962
		},
		{
			"buffer":0,
			"byteLength":2772,
			"byteOffset":74524,
			"target":34963
		},
		{
			"buffer":0,
			"byteLength":432,
			"byteOffset":77296,
			"target":34962
		},
		{
			"buffer":0,
			"byteLength":432,
			"byteOffset":77728,
			"target":34962
		},
		{
			"buffer":0,
			"byteLength":48,
			"byteOffset":78160,
			"target":34962
		},
		{
			"buffer":0,
			"byteLength":48,
			"byteOffset":78208,
			"target":34962
		},
		{
			"buffer":0,
			"byteLength":6012,
			"byteOffset":78256,
			"target":34962
		},
		{
			"buffer":0,
			"byteLength":6012,
			"byteOffset":84268,
			"target":34962
		},
		{
			"buffer":0,
			"byteLength":2802,
			"byteOffset":90280,
			"target":34963
		},
		{
			"buffer":0,
			"byteLength":468,
			"byteOffset":93084,
			"target":34962
		},
		{
			"buffer":0,
			"byteLength":468,
			"byteOffset":93552,
			"target":34962
		},
		{
			"buffer":0,
			"byteLength":48,
			"byteOffset":94020,
			"target":34962
		},
		{
			"buffer":0,
			"byteLength":48,
			"byteOffset":94068,
			"target":34962
		}
	],
	"buffers":[
		{
			"byteLength":94116,
			"uri":"BinaGrup8.bin"
		}
	]
}
