{
	"asset":{
		"generator":"Khronos glTF Blender I/O v4.2.60",
		"version":"2.0"
	},
	"scene":0,
	"scenes":[
		{
			"name":"Scene",
			"nodes":[
				0
			]
		}
	],
	"nodes":[
		{
			"mesh":0,
			"name":"Building_001_RoofCap_0.004"
		}
	],
	"materials":[
		{
			"doubleSided":true,
			"name":"Mat_Roof_Cap",
			"pbrMetallicRoughness":{
				"baseColorFactor":[
					0.9822452664375305,
					0.38132646679878235,
					0.0030353753827512264,
					1
				],
				"metallicFactor":0,
				"roughnessFactor":0.699999988079071
			}
		},
		{
			"doubleSided":true,
			"name":"BinaSolar",
			"pbrMetallicRoughness":{
				"baseColorFactor":[
					0,
					0.08021967113018036,
					0.7230553030967712,
					1
				],
				"metallicFactor":0,
				"roughnessFactor":0.699999988079071
			}
		},
		{
			"doubleSided":true,
			"name":"PencereSolarKapal\u0131",
			"pbrMetallicRoughness":{
				"baseColorFactor":[
					0,
					0.04817177355289459,
					0.3185468912124634,
					1
				],
				"metallicFactor":0,
				"roughnessFactor":0.699999988079071
			}
		}
	],
	"meshes":[
		{
			"name":"Building_001_RoofCap_0_Mesh.004",
			"primitives":[
				{
					"attributes":{
						"POSITION":0,
						"NORMAL":1
					},
					"indices":2,
					"material":0
				},
				{
					"attributes":{
						"POSITION":3,
						"NORMAL":4
					},
					"indices":5,
					"material":1
				},
				{
					"attributes":{
						"POSITION":6,
						"NORMAL":7
					},
					"indices":8,
					"material":2
				}
			]
		}
	],
	"accessors":[
		{
			"bufferView":0,
			"componentType":5126,
			"count":24,
			"max":[
				-0.39808568358421326,
				-0.294400691986084,
				0.03933337703347206
			],
			"min":[
				-0.4372161030769348,
				-0.2998259663581848,
				0.004347854293882847
			],
			"type":"VEC3"
		},
		{
			"bufferView":1,
			"componentType":5126,
			"count":24,
			"type":"VEC3"
		},
		{
			"bufferView":2,
			"componentType":5123,
			"count":36,
			"type":"SCALAR"
		},
		{
			"bufferView":3,
			"componentType":5126,
			"count":820,
			"max":[
				-0.3940218389034271,
				-0.2999998927116394,
				0.043478287756443024
			],
			"min":[
				-0.44293490052223206,
				-0.3532607853412628,
				2.9802322387695312e-08
			],
			"type":"VEC3"
		},
		{
			"bufferView":4,
			"componentType":5126,
			"count":820,
			"type":"VEC3"
		},
		{
			"bufferView":5,
			"componentType":5123,
			"count":2664,
			"type":"SCALAR"
		},
		{
			"bufferView":6,
			"componentType":5126,
			"count":52,
			"max":[
				-0.3989131450653076,
				-0.3065216541290283,
				0.04130437597632408
			],
			"min":[
				-0.43804359436035156,
				-0.3532607853412628,
				0.04130437597632408
			],
			"type":"VEC3"
		},
		{
			"bufferView":7,
			"componentType":5126,
			"count":52,
			"type":"VEC3"
		},
		{
			"bufferView":8,
			"componentType":5123,
			"count":78,
			"type":"SCALAR"
		}
	],
	"bufferViews":[
		{
			"buffer":0,
			"byteLength":288,
			"byteOffset":0,
			"target":34962
		},
		{
			"buffer":0,
			"byteLength":288,
			"byteOffset":288,
			"target":34962
		},
		{
			"buffer":0,
			"byteLength":72,
			"byteOffset":576,
			"target":34963
		},
		{
			"buffer":0,
			"byteLength":9840,
			"byteOffset":648,
			"target":34962
		},
		{
			"buffer":0,
			"byteLength":9840,
			"byteOffset":10488,
			"target":34962
		},
		{
			"buffer":0,
			"byteLength":5328,
			"byteOffset":20328,
			"target":34963
		},
		{
			"buffer":0,
			"byteLength":624,
			"byteOffset":25656,
			"target":34962
		},
		{
			"buffer":0,
			"byteLength":624,
			"byteOffset":26280,
			"target":34962
		},
		{
			"buffer":0,
			"byteLength":156,
			"byteOffset":26904,
			"target":34963
		}
	],
	"buffers":[
		{
			"byteLength":27060,
			"uri":"ghostbina1.bin"
		}
	]
}
