{
	"asset":{
		"generator":"Khronos glTF Blender I/O v4.2.60",
		"version":"2.0"
	},
	"scene":0,
	"scenes":[
		{
			"name":"Scene",
			"nodes":[
				0,
				1,
				2,
				3,
				4,
				5,
				6,
				7,
				8,
				9,
				10,
				11,
				12,
				13,
				14,
				15,
				16,
				17
			]
		}
	],
	"nodes":[
		{
			"mesh":0,
			"name":"Building_023.011"
		},
		{
			"mesh":1,
			"name":"Building_023.012"
		},
		{
			"mesh":2,
			"name":"Building_023.013"
		},
		{
			"mesh":3,
			"name":"Building_035.011"
		},
		{
			"mesh":4,
			"name":"Building_035.012"
		},
		{
			"mesh":5,
			"name":"Building_035.013"
		},
		{
			"mesh":6,
			"name":"Building_043.011"
		},
		{
			"mesh":7,
			"name":"Building_043.012"
		},
		{
			"mesh":8,
			"name":"Building_043.013"
		},
		{
			"mesh":9,
			"name":"Building_052.011"
		},
		{
			"mesh":10,
			"name":"Building_052.012"
		},
		{
			"mesh":11,
			"name":"Building_052.013"
		},
		{
			"mesh":12,
			"name":"Building_061.011"
		},
		{
			"mesh":13,
			"name":"Building_061.012"
		},
		{
			"mesh":14,
			"name":"Building_061.013"
		},
		{
			"mesh":15,
			"name":"Building_068.011"
		},
		{
			"mesh":16,
			"name":"Building_068.012"
		},
		{
			"mesh":17,
			"name":"Building_068.013"
		}
	],
	"materials":[
		{
			"doubleSided":true,
			"name":"BinaGrid",
			"pbrMetallicRoughness":{
				"baseColorFactor":[
					0.2874388098716736,
					0.3371638357639313,
					0.4178852438926697,
					1
				],
				"metallicFactor":0,
				"roughnessFactor":0.5
			}
		},
		{
			"doubleSided":true,
			"name":"PencereGrid",
			"pbrMetallicRoughness":{
				"baseColorFactor":[
					0.1499587893486023,
					0.17464761435985565,
					0.2122308313846588,
					1
				],
				"metallicFactor":0,
				"roughnessFactor":0.699999988079071
			}
		},
		{
			"doubleSided":true,
			"name":"Kap\u0131Grid",
			"pbrMetallicRoughness":{
				"baseColorFactor":[
					0.2874388098716736,
					0.3371638357639313,
					0.4178852438926697,
					1
				],
				"metallicFactor":0,
				"roughnessFactor":0.699999988079071
			}
		}
	],
	"meshes":[
		{
			"name":"Building_023_Mesh.002",
			"primitives":[
				{
					"attributes":{
						"POSITION":0,
						"NORMAL":1
					},
					"indices":2,
					"material":0
				}
			]
		},
		{
			"name":"Building_023_Mesh.012",
			"primitives":[
				{
					"attributes":{
						"POSITION":3,
						"NORMAL":4
					},
					"indices":5,
					"material":1
				}
			]
		},
		{
			"name":"Building_023_Mesh.013",
			"primitives":[
				{
					"attributes":{
						"POSITION":6,
						"NORMAL":7
					},
					"indices":8,
					"material":2
				}
			]
		},
		{
			"name":"Building_035_Mesh.002",
			"primitives":[
				{
					"attributes":{
						"POSITION":9,
						"NORMAL":10
					},
					"indices":11,
					"material":0
				}
			]
		},
		{
			"name":"Building_035_Mesh.012",
			"primitives":[
				{
					"attributes":{
						"POSITION":12,
						"NORMAL":13
					},
					"indices":14,
					"material":1
				}
			]
		},
		{
			"name":"Building_035_Mesh.013",
			"primitives":[
				{
					"attributes":{
						"POSITION":15,
						"NORMAL":16
					},
					"indices":8,
					"material":2
				}
			]
		},
		{
			"name":"Building_043_Mesh.002",
			"primitives":[
				{
					"attributes":{
						"POSITION":17,
						"NORMAL":18
					},
					"indices":19,
					"material":0
				}
			]
		},
		{
			"name":"Building_043_Mesh.012",
			"primitives":[
				{
					"attributes":{
						"POSITION":20,
						"NORMAL":21
					},
					"indices":22,
					"material":1
				}
			]
		},
		{
			"name":"Building_043_Mesh.013",
			"primitives":[
				{
					"attributes":{
						"POSITION":23,
						"NORMAL":24
					},
					"indices":8,
					"material":2
				}
			]
		},
		{
			"name":"Building_052_Mesh.002",
			"primitives":[
				{
					"attributes":{
						"POSITION":25,
						"NORMAL":26
					},
					"indices":27,
					"material":0
				}
			]
		},
		{
			"name":"Building_052_Mesh.012",
			"primitives":[
				{
					"attributes":{
						"POSITION":28,
						"NORMAL":29
					},
					"indices":30,
					"material":1
				}
			]
		},
		{
			"name":"Building_052_Mesh.013",
			"primitives":[
				{
					"attributes":{
						"POSITION":31,
						"NORMAL":32
					},
					"indices":8,
					"material":2
				}
			]
		},
		{
			"name":"Building_061_Mesh.002",
			"primitives":[
				{
					"attributes":{
						"POSITION":33,
						"NORMAL":34
					},
					"indices":35,
					"material":0
				}
			]
		},
		{
			"name":"Building_061_Mesh.012",
			"primitives":[
				{
					"attributes":{
						"POSITION":36,
						"NORMAL":37
					},
					"indices":38,
					"material":1
				}
			]
		},
		{
			"name":"Building_061_Mesh.013",
			"primitives":[
				{
					"attributes":{
						"POSITION":39,
						"NORMAL":40
					},
					"indices":8,
					"material":2
				}
			]
		},
		{
			"name":"Building_068_Mesh.002",
			"primitives":[
				{
					"attributes":{
						"POSITION":41,
						"NORMAL":42
					},
					"indices":43,
					"material":0
				}
			]
		},
		{
			"name":"Building_068_Mesh.012",
			"primitives":[
				{
					"attributes":{
						"POSITION":44,
						"NORMAL":45
					},
					"indices":46,
					"material":1
				}
			]
		},
		{
			"name":"Building_068_Mesh.013",
			"primitives":[
				{
					"attributes":{
						"POSITION":47,
						"NORMAL":48
					},
					"indices":8,
					"material":2
				}
			]
		}
	],
	"accessors":[
		{
			"bufferView":0,
			"componentType":5126,
			"count":857,
			"max":[
				-0.1654251217842102,
				-0.48695647716522217,
				0.04347829148173332
			],
			"min":[
				-0.21433816850185394,
				-0.5489130020141602,
				3.3993273973464966e-08
			],
			"type":"VEC3"
		},
		{
			"bufferView":1,
			"componentType":5126,
			"count":857,
			"type":"VEC3"
		},
		{
			"bufferView":2,
			"componentType":5123,
			"count":2730,
			"type":"SCALAR"
		},
		{
			"bufferView":3,
			"componentType":5126,
			"count":60,
			"max":[
				-0.1703164130449295,
				-0.502173900604248,
				0.04130437225103378
			],
			"min":[
				-0.20944684743881226,
				-0.5456521511077881,
				0.04130437225103378
			],
			"type":"VEC3"
		},
		{
			"bufferView":4,
			"componentType":5126,
			"count":60,
			"type":"VEC3"
		},
		{
			"bufferView":5,
			"componentType":5123,
			"count":90,
			"type":"SCALAR"
		},
		{
			"bufferView":6,
			"componentType":5126,
			"count":4,
			"max":[
				-0.18118597567081451,
				-0.5347825288772583,
				0.04130437970161438
			],
			"min":[
				-0.19857728481292725,
				-0.5489130020141602,
				0.04130437970161438
			],
			"type":"VEC3"
		},
		{
			"bufferView":7,
			"componentType":5126,
			"count":4,
			"type":"VEC3"
		},
		{
			"bufferView":8,
			"componentType":5123,
			"count":6,
			"type":"SCALAR"
		},
		{
			"bufferView":9,
			"componentType":5126,
			"count":308,
			"max":[
				-0.021403402090072632,
				-0.3076086640357971,
				0.05434785038232803
			],
			"min":[
				-0.05401211977005005,
				-0.3532608151435852,
				2.561137080192566e-08
			],
			"type":"VEC3"
		},
		{
			"bufferView":10,
			"componentType":5126,
			"count":308,
			"type":"VEC3"
		},
		{
			"bufferView":11,
			"componentType":5123,
			"count":750,
			"type":"SCALAR"
		},
		{
			"bufferView":12,
			"componentType":5126,
			"count":20,
			"max":[
				-0.02683815360069275,
				-0.322826087474823,
				0.05217394232749939
			],
			"min":[
				-0.048577308654785156,
				-0.3500000238418579,
				0.05217394232749939
			],
			"type":"VEC3"
		},
		{
			"bufferView":13,
			"componentType":5126,
			"count":20,
			"type":"VEC3"
		},
		{
			"bufferView":14,
			"componentType":5123,
			"count":30,
			"type":"SCALAR"
		},
		{
			"bufferView":15,
			"componentType":5126,
			"count":4,
			"max":[
				-0.03988164663314819,
				-0.3391304016113281,
				0.05217394232749939
			],
			"min":[
				-0.048577338457107544,
				-0.3532608151435852,
				0.05217394232749939
			],
			"type":"VEC3"
		},
		{
			"bufferView":16,
			"componentType":5126,
			"count":4,
			"type":"VEC3"
		},
		{
			"bufferView":17,
			"componentType":5126,
			"count":481,
			"max":[
				0.054683566093444824,
				-0.39782607555389404,
				0.06521742045879364
			],
			"min":[
				0.022074878215789795,
				-0.45108696818351746,
				2.9802322387695312e-08
			],
			"type":"VEC3"
		},
		{
			"bufferView":18,
			"componentType":5126,
			"count":481,
			"type":"VEC3"
		},
		{
			"bufferView":19,
			"componentType":5123,
			"count":1389,
			"type":"SCALAR"
		},
		{
			"bufferView":20,
			"componentType":5126,
			"count":39,
			"max":[
				0.04924875497817993,
				-0.40434783697128296,
				0.0630435049533844
			],
			"min":[
				0.0275096595287323,
				-0.44565218687057495,
				0.0630435049533844
			],
			"type":"VEC3"
		},
		{
			"bufferView":21,
			"componentType":5126,
			"count":39,
			"type":"VEC3"
		},
		{
			"bufferView":22,
			"componentType":5123,
			"count":63,
			"type":"SCALAR"
		},
		{
			"bufferView":23,
			"componentType":5126,
			"count":4,
			"max":[
				0.04924878478050232,
				-0.436956524848938,
				0.0630435049533844
			],
			"min":[
				0.040553122758865356,
				-0.45108696818351746,
				0.0630435049533844
			],
			"type":"VEC3"
		},
		{
			"bufferView":24,
			"componentType":5126,
			"count":4,
			"type":"VEC3"
		},
		{
			"bufferView":25,
			"componentType":5126,
			"count":491,
			"max":[
				0.13892275094985962,
				-0.6097825765609741,
				0.043478287756443024
			],
			"min":[
				0.09000968933105469,
				-0.64673912525177,
				2.9802322387695312e-08
			],
			"type":"VEC3"
		},
		{
			"bufferView":26,
			"componentType":5126,
			"count":491,
			"type":"VEC3"
		},
		{
			"bufferView":27,
			"componentType":5123,
			"count":1404,
			"type":"SCALAR"
		},
		{
			"bufferView":28,
			"componentType":5126,
			"count":24,
			"max":[
				0.13403141498565674,
				-0.616304337978363,
				0.04130437225103378
			],
			"min":[
				0.09490096569061279,
				-0.643478274345398,
				0.04130437225103378
			],
			"type":"VEC3"
		},
		{
			"bufferView":29,
			"componentType":5126,
			"count":24,
			"type":"VEC3"
		},
		{
			"bufferView":30,
			"componentType":5123,
			"count":36,
			"type":"SCALAR"
		},
		{
			"bufferView":31,
			"componentType":5126,
			"count":4,
			"max":[
				0.10142272710800171,
				-0.6326086521148682,
				0.04130437970161438
			],
			"min":[
				0.09490096569061279,
				-0.64673912525177,
				0.04130437970161438
			],
			"type":"VEC3"
		},
		{
			"bufferView":32,
			"componentType":5126,
			"count":4,
			"type":"VEC3"
		},
		{
			"bufferView":33,
			"componentType":5126,
			"count":1288,
			"max":[
				0.21500957012176514,
				-0.7663043141365051,
				0.04347829148173332
			],
			"min":[
				0.1660965085029602,
				-0.8423912525177002,
				3.3993273973464966e-08
			],
			"type":"VEC3"
		},
		{
			"bufferView":34,
			"componentType":5126,
			"count":1288,
			"type":"VEC3"
		},
		{
			"bufferView":35,
			"componentType":5123,
			"count":4650,
			"type":"SCALAR"
		},
		{
			"bufferView":36,
			"componentType":5126,
			"count":76,
			"max":[
				0.21011829376220703,
				-0.7793477773666382,
				0.04130437225103378
			],
			"min":[
				0.17098784446716309,
				-0.834782600402832,
				0.04130437225103378
			],
			"type":"VEC3"
		},
		{
			"bufferView":37,
			"componentType":5126,
			"count":76,
			"type":"VEC3"
		},
		{
			"bufferView":38,
			"componentType":5123,
			"count":114,
			"type":"SCALAR"
		},
		{
			"bufferView":39,
			"componentType":5126,
			"count":4,
			"max":[
				0.21011829376220703,
				-0.8282608389854431,
				0.04130437970161438
			],
			"min":[
				0.20359653234481812,
				-0.8423912525177002,
				0.04130437970161438
			],
			"type":"VEC3"
		},
		{
			"bufferView":40,
			"componentType":5126,
			"count":4,
			"type":"VEC3"
		},
		{
			"bufferView":41,
			"componentType":5126,
			"count":873,
			"max":[
				0.2910965085029602,
				-0.782608687877655,
				0.06521742045879364
			],
			"min":[
				0.24218350648880005,
				-0.8423912525177002,
				2.9802322387695312e-08
			],
			"type":"VEC3"
		},
		{
			"bufferView":42,
			"componentType":5126,
			"count":873,
			"type":"VEC3"
		},
		{
			"bufferView":43,
			"componentType":5123,
			"count":2826,
			"type":"SCALAR"
		},
		{
			"bufferView":44,
			"componentType":5126,
			"count":64,
			"max":[
				0.2862052321434021,
				-0.7956521511077881,
				0.0630435049533844
			],
			"min":[
				0.24707478284835815,
				-0.8369565010070801,
				0.0630435049533844
			],
			"type":"VEC3"
		},
		{
			"bufferView":45,
			"componentType":5126,
			"count":64,
			"type":"VEC3"
		},
		{
			"bufferView":46,
			"componentType":5123,
			"count":96,
			"type":"SCALAR"
		},
		{
			"bufferView":47,
			"componentType":5126,
			"count":4,
			"max":[
				0.2862052917480469,
				-0.8282608389854431,
				0.0630435049533844
			],
			"min":[
				0.27968353033065796,
				-0.8423912525177002,
				0.0630435049533844
			],
			"type":"VEC3"
		},
		{
			"bufferView":48,
			"componentType":5126,
			"count":4,
			"type":"VEC3"
		}
	],
	"bufferViews":[
		{
			"buffer":0,
			"byteLength":10284,
			"byteOffset":0,
			"target":34962
		},
		{
			"buffer":0,
			"byteLength":10284,
			"byteOffset":10284,
			"target":34962
		},
		{
			"buffer":0,
			"byteLength":5460,
			"byteOffset":20568,
			"target":34963
		},
		{
			"buffer":0,
			"byteLength":720,
			"byteOffset":26028,
			"target":34962
		},
		{
			"buffer":0,
			"byteLength":720,
			"byteOffset":26748,
			"target":34962
		},
		{
			"buffer":0,
			"byteLength":180,
			"byteOffset":27468,
			"target":34963
		},
		{
			"buffer":0,
			"byteLength":48,
			"byteOffset":27648,
			"target":34962
		},
		{
			"buffer":0,
			"byteLength":48,
			"byteOffset":27696,
			"target":34962
		},
		{
			"buffer":0,
			"byteLength":12,
			"byteOffset":27744,
			"target":34963
		},
		{
			"buffer":0,
			"byteLength":3696,
			"byteOffset":27756,
			"target":34962
		},
		{
			"buffer":0,
			"byteLength":3696,
			"byteOffset":31452,
			"target":34962
		},
		{
			"buffer":0,
			"byteLength":1500,
			"byteOffset":35148,
			"target":34963
		},
		{
			"buffer":0,
			"byteLength":240,
			"byteOffset":36648,
			"target":34962
		},
		{
			"buffer":0,
			"byteLength":240,
			"byteOffset":36888,
			"target":34962
		},
		{
			"buffer":0,
			"byteLength":60,
			"byteOffset":37128,
			"target":34963
		},
		{
			"buffer":0,
			"byteLength":48,
			"byteOffset":37188,
			"target":34962
		},
		{
			"buffer":0,
			"byteLength":48,
			"byteOffset":37236,
			"target":34962
		},
		{
			"buffer":0,
			"byteLength":5772,
			"byteOffset":37284,
			"target":34962
		},
		{
			"buffer":0,
			"byteLength":5772,
			"byteOffset":43056,
			"target":34962
		},
		{
			"buffer":0,
			"byteLength":2778,
			"byteOffset":48828,
			"target":34963
		},
		{
			"buffer":0,
			"byteLength":468,
			"byteOffset":51608,
			"target":34962
		},
		{
			"buffer":0,
			"byteLength":468,
			"byteOffset":52076,
			"target":34962
		},
		{
			"buffer":0,
			"byteLength":126,
			"byteOffset":52544,
			"target":34963
		},
		{
			"buffer":0,
			"byteLength":48,
			"byteOffset":52672,
			"target":34962
		},
		{
			"buffer":0,
			"byteLength":48,
			"byteOffset":52720,
			"target":34962
		},
		{
			"buffer":0,
			"byteLength":5892,
			"byteOffset":52768,
			"target":34962
		},
		{
			"buffer":0,
			"byteLength":5892,
			"byteOffset":58660,
			"target":34962
		},
		{
			"buffer":0,
			"byteLength":2808,
			"byteOffset":64552,
			"target":34963
		},
		{
			"buffer":0,
			"byteLength":288,
			"byteOffset":67360,
			"target":34962
		},
		{
			"buffer":0,
			"byteLength":288,
			"byteOffset":67648,
			"target":34962
		},
		{
			"buffer":0,
			"byteLength":72,
			"byteOffset":67936,
			"target":34963
		},
		{
			"buffer":0,
			"byteLength":48,
			"byteOffset":68008,
			"target":34962
		},
		{
			"buffer":0,
			"byteLength":48,
			"byteOffset":68056,
			"target":34962
		},
		{
			"buffer":0,
			"byteLength":15456,
			"byteOffset":68104,
			"target":34962
		},
		{
			"buffer":0,
			"byteLength":15456,
			"byteOffset":83560,
			"target":34962
		},
		{
			"buffer":0,
			"byteLength":9300,
			"byteOffset":99016,
			"target":34963
		},
		{
			"buffer":0,
			"byteLength":912,
			"byteOffset":108316,
			"target":34962
		},
		{
			"buffer":0,
			"byteLength":912,
			"byteOffset":109228,
			"target":34962
		},
		{
			"buffer":0,
			"byteLength":228,
			"byteOffset":110140,
			"target":34963
		},
		{
			"buffer":0,
			"byteLength":48,
			"byteOffset":110368,
			"target":34962
		},
		{
			"buffer":0,
			"byteLength":48,
			"byteOffset":110416,
			"target":34962
		},
		{
			"buffer":0,
			"byteLength":10476,
			"byteOffset":110464,
			"target":34962
		},
		{
			"buffer":0,
			"byteLength":10476,
			"byteOffset":120940,
			"target":34962
		},
		{
			"buffer":0,
			"byteLength":5652,
			"byteOffset":131416,
			"target":34963
		},
		{
			"buffer":0,
			"byteLength":768,
			"byteOffset":137068,
			"target":34962
		},
		{
			"buffer":0,
			"byteLength":768,
			"byteOffset":137836,
			"target":34962
		},
		{
			"buffer":0,
			"byteLength":192,
			"byteOffset":138604,
			"target":34963
		},
		{
			"buffer":0,
			"byteLength":48,
			"byteOffset":138796,
			"target":34962
		},
		{
			"buffer":0,
			"byteLength":48,
			"byteOffset":138844,
			"target":34962
		}
	],
	"buffers":[
		{
			"byteLength":138892,
			"uri":"BinaGrup5.bin"
		}
	]
}
