{
	"asset":{
		"generator":"Khronos glTF Blender I/O v4.2.60",
		"version":"2.0"
	},
	"scene":0,
	"scenes":[
		{
			"name":"Scene",
			"nodes":[
				0,
				1,
				2,
				3,
				4,
				5,
				6,
				7,
				8,
				9,
				10,
				11,
				12,
				13,
				14,
				15,
				16,
				17
			]
		}
	],
	"nodes":[
		{
			"mesh":0,
			"name":"Building_020.010"
		},
		{
			"mesh":1,
			"name":"Building_020.011"
		},
		{
			"mesh":2,
			"name":"Building_020.012"
		},
		{
			"mesh":3,
			"name":"Building_025.011"
		},
		{
			"mesh":4,
			"name":"Building_025.012"
		},
		{
			"mesh":5,
			"name":"Building_025.013"
		},
		{
			"mesh":6,
			"name":"Building_030.011"
		},
		{
			"mesh":7,
			"name":"Building_030.012"
		},
		{
			"mesh":8,
			"name":"Building_030.013"
		},
		{
			"mesh":9,
			"name":"Building_048.011"
		},
		{
			"mesh":10,
			"name":"Building_048.012"
		},
		{
			"mesh":11,
			"name":"Building_048.013"
		},
		{
			"mesh":12,
			"name":"Building_054.011"
		},
		{
			"mesh":13,
			"name":"Building_054.012"
		},
		{
			"mesh":14,
			"name":"Building_054.013"
		},
		{
			"mesh":15,
			"name":"Building_058.011"
		},
		{
			"mesh":16,
			"name":"Building_058.012"
		},
		{
			"mesh":17,
			"name":"Building_058.013"
		}
	],
	"materials":[
		{
			"doubleSided":true,
			"name":"BinaGrid",
			"pbrMetallicRoughness":{
				"baseColorFactor":[
					0.2874388098716736,
					0.3371638357639313,
					0.4178852438926697,
					1
				],
				"metallicFactor":0,
				"roughnessFactor":0.5
			}
		},
		{
			"doubleSided":true,
			"name":"Kap\u0131Grid",
			"pbrMetallicRoughness":{
				"baseColorFactor":[
					0.2874388098716736,
					0.3371638357639313,
					0.4178852438926697,
					1
				],
				"metallicFactor":0,
				"roughnessFactor":0.699999988079071
			}
		},
		{
			"doubleSided":true,
			"name":"PencereGrid",
			"pbrMetallicRoughness":{
				"baseColorFactor":[
					0.1499587893486023,
					0.17464761435985565,
					0.2122308313846588,
					1
				],
				"metallicFactor":0,
				"roughnessFactor":0.699999988079071
			}
		}
	],
	"meshes":[
		{
			"name":"Building_020_Mesh.012",
			"primitives":[
				{
					"attributes":{
						"POSITION":0,
						"NORMAL":1
					},
					"indices":2,
					"material":0
				}
			]
		},
		{
			"name":"Building_020_Mesh.013",
			"primitives":[
				{
					"attributes":{
						"POSITION":3,
						"NORMAL":4
					},
					"indices":5,
					"material":1
				}
			]
		},
		{
			"name":"Building_020_Mesh.014",
			"primitives":[
				{
					"attributes":{
						"POSITION":6,
						"NORMAL":7
					},
					"indices":8,
					"material":2
				}
			]
		},
		{
			"name":"Building_025_Mesh.002",
			"primitives":[
				{
					"attributes":{
						"POSITION":9,
						"NORMAL":10
					},
					"indices":11,
					"material":0
				}
			]
		},
		{
			"name":"Building_025_Mesh.012",
			"primitives":[
				{
					"attributes":{
						"POSITION":12,
						"NORMAL":13
					},
					"indices":14,
					"material":2
				}
			]
		},
		{
			"name":"Building_025_Mesh.013",
			"primitives":[
				{
					"attributes":{
						"POSITION":15,
						"NORMAL":16
					},
					"indices":5,
					"material":1
				}
			]
		},
		{
			"name":"Building_030_Mesh.002",
			"primitives":[
				{
					"attributes":{
						"POSITION":17,
						"NORMAL":18
					},
					"indices":19,
					"material":0
				}
			]
		},
		{
			"name":"Building_030_Mesh.012",
			"primitives":[
				{
					"attributes":{
						"POSITION":20,
						"NORMAL":21
					},
					"indices":22,
					"material":2
				}
			]
		},
		{
			"name":"Building_030_Mesh.013",
			"primitives":[
				{
					"attributes":{
						"POSITION":23,
						"NORMAL":24
					},
					"indices":5,
					"material":1
				}
			]
		},
		{
			"name":"Building_048_Mesh.002",
			"primitives":[
				{
					"attributes":{
						"POSITION":25,
						"NORMAL":26
					},
					"indices":27,
					"material":0
				}
			]
		},
		{
			"name":"Building_048_Mesh.012",
			"primitives":[
				{
					"attributes":{
						"POSITION":28,
						"NORMAL":29
					},
					"indices":30,
					"material":2
				}
			]
		},
		{
			"name":"Building_048_Mesh.013",
			"primitives":[
				{
					"attributes":{
						"POSITION":31,
						"NORMAL":32
					},
					"indices":5,
					"material":1
				}
			]
		},
		{
			"name":"Building_054_Mesh.002",
			"primitives":[
				{
					"attributes":{
						"POSITION":33,
						"NORMAL":34
					},
					"indices":35,
					"material":0
				}
			]
		},
		{
			"name":"Building_054_Mesh.012",
			"primitives":[
				{
					"attributes":{
						"POSITION":36,
						"NORMAL":37
					},
					"indices":14,
					"material":2
				}
			]
		},
		{
			"name":"Building_054_Mesh.013",
			"primitives":[
				{
					"attributes":{
						"POSITION":38,
						"NORMAL":39
					},
					"indices":5,
					"material":1
				}
			]
		},
		{
			"name":"Building_058_Mesh.002",
			"primitives":[
				{
					"attributes":{
						"POSITION":40,
						"NORMAL":41
					},
					"indices":42,
					"material":0
				}
			]
		},
		{
			"name":"Building_058_Mesh.012",
			"primitives":[
				{
					"attributes":{
						"POSITION":43,
						"NORMAL":44
					},
					"indices":45,
					"material":2
				}
			]
		},
		{
			"name":"Building_058_Mesh.013",
			"primitives":[
				{
					"attributes":{
						"POSITION":46,
						"NORMAL":47
					},
					"indices":5,
					"material":1
				}
			]
		}
	],
	"accessors":[
		{
			"bufferView":0,
			"componentType":5126,
			"count":847,
			"max":[
				-0.24151206016540527,
				-0.789130449295044,
				0.06521742045879364
			],
			"min":[
				-0.2904251217842102,
				-0.8423912525177002,
				2.9802322387695312e-08
			],
			"type":"VEC3"
		},
		{
			"bufferView":1,
			"componentType":5126,
			"count":847,
			"type":"VEC3"
		},
		{
			"bufferView":2,
			"componentType":5123,
			"count":2814,
			"type":"SCALAR"
		},
		{
			"bufferView":3,
			"componentType":5126,
			"count":4,
			"max":[
				-0.24640336632728577,
				-0.8282608389854431,
				0.0630435049533844
			],
			"min":[
				-0.2529250979423523,
				-0.8423912525177002,
				0.0630435049533844
			],
			"type":"VEC3"
		},
		{
			"bufferView":4,
			"componentType":5126,
			"count":4,
			"type":"VEC3"
		},
		{
			"bufferView":5,
			"componentType":5123,
			"count":6,
			"type":"SCALAR"
		},
		{
			"bufferView":6,
			"componentType":5126,
			"count":64,
			"max":[
				-0.24640336632728577,
				-0.7956521511077881,
				0.0630435049533844
			],
			"min":[
				-0.2855337858200073,
				-0.8369565010070801,
				0.0630435049533844
			],
			"type":"VEC3"
		},
		{
			"bufferView":7,
			"componentType":5126,
			"count":64,
			"type":"VEC3"
		},
		{
			"bufferView":8,
			"componentType":5123,
			"count":96,
			"type":"SCALAR"
		},
		{
			"bufferView":9,
			"componentType":5126,
			"count":483,
			"max":[
				-0.17357729375362396,
				-0.6826087236404419,
				0.06521742045879364
			],
			"min":[
				-0.206185981631279,
				-0.7445651888847351,
				2.9802322387695312e-08
			],
			"type":"VEC3"
		},
		{
			"bufferView":10,
			"componentType":5126,
			"count":483,
			"type":"VEC3"
		},
		{
			"bufferView":11,
			"componentType":5123,
			"count":1392,
			"type":"SCALAR"
		},
		{
			"bufferView":12,
			"componentType":5126,
			"count":36,
			"max":[
				-0.17901206016540527,
				-0.6978260278701782,
				0.0630435049533844
			],
			"min":[
				-0.2007511854171753,
				-0.7369564771652222,
				0.0630435049533844
			],
			"type":"VEC3"
		},
		{
			"bufferView":13,
			"componentType":5126,
			"count":36,
			"type":"VEC3"
		},
		{
			"bufferView":14,
			"componentType":5123,
			"count":54,
			"type":"SCALAR"
		},
		{
			"bufferView":15,
			"componentType":5126,
			"count":4,
			"max":[
				-0.19205555319786072,
				-0.730434775352478,
				0.0630435049533844
			],
			"min":[
				-0.2007511854171753,
				-0.7445651888847351,
				0.0630435049533844
			],
			"type":"VEC3"
		},
		{
			"bufferView":16,
			"componentType":5126,
			"count":4,
			"type":"VEC3"
		},
		{
			"bufferView":17,
			"componentType":5126,
			"count":501,
			"max":[
				-0.09749037027359009,
				-0.48695650696754456,
				0.043478287756443024
			],
			"min":[
				-0.13009905815124512,
				-0.5489130020141602,
				2.9802322387695312e-08
			],
			"type":"VEC3"
		},
		{
			"bufferView":18,
			"componentType":5126,
			"count":501,
			"type":"VEC3"
		},
		{
			"bufferView":19,
			"componentType":5123,
			"count":1401,
			"type":"SCALAR"
		},
		{
			"bufferView":20,
			"componentType":5126,
			"count":37,
			"max":[
				-0.1029251217842102,
				-0.502173900604248,
				0.04130437225103378
			],
			"min":[
				-0.12466424703598022,
				-0.54347825050354,
				0.04130437225103378
			],
			"type":"VEC3"
		},
		{
			"bufferView":21,
			"componentType":5126,
			"count":37,
			"type":"VEC3"
		},
		{
			"bufferView":22,
			"componentType":5123,
			"count":63,
			"type":"SCALAR"
		},
		{
			"bufferView":23,
			"componentType":5126,
			"count":4,
			"max":[
				-0.10292509198188782,
				-0.5347825288772583,
				0.04130437970161438
			],
			"min":[
				-0.11162078380584717,
				-0.5489130020141602,
				0.04130437970161438
			],
			"type":"VEC3"
		},
		{
			"bufferView":24,
			"componentType":5126,
			"count":4,
			"type":"VEC3"
		},
		{
			"bufferView":25,
			"componentType":5126,
			"count":820,
			"max":[
				0.06283572316169739,
				-0.886956512928009,
				0.05434786155819893
			],
			"min":[
				0.013922721147537231,
				-0.9402173757553101,
				3.3993273973464966e-08
			],
			"type":"VEC3"
		},
		{
			"bufferView":26,
			"componentType":5126,
			"count":820,
			"type":"VEC3"
		},
		{
			"bufferView":27,
			"componentType":5123,
			"count":2664,
			"type":"SCALAR"
		},
		{
			"bufferView":28,
			"componentType":5126,
			"count":48,
			"max":[
				0.05794438719749451,
				-0.893478274345398,
				0.05217394232749939
			],
			"min":[
				0.01881396770477295,
				-0.9347826242446899,
				0.05217394232749939
			],
			"type":"VEC3"
		},
		{
			"bufferView":29,
			"componentType":5126,
			"count":48,
			"type":"VEC3"
		},
		{
			"bufferView":30,
			"componentType":5123,
			"count":72,
			"type":"SCALAR"
		},
		{
			"bufferView":31,
			"componentType":5126,
			"count":4,
			"max":[
				0.025335729122161865,
				-0.9260869026184082,
				0.05217394232749939
			],
			"min":[
				0.018814027309417725,
				-0.9402173757553101,
				0.05217394232749939
			],
			"type":"VEC3"
		},
		{
			"bufferView":32,
			"componentType":5126,
			"count":4,
			"type":"VEC3"
		},
		{
			"bufferView":33,
			"componentType":5126,
			"count":477,
			"max":[
				0.1307705044746399,
				-0.789130449295044,
				0.05434785410761833
			],
			"min":[
				0.09816181659698486,
				-0.8423912525177002,
				2.9802322387695312e-08
			],
			"type":"VEC3"
		},
		{
			"bufferView":34,
			"componentType":5126,
			"count":477,
			"type":"VEC3"
		},
		{
			"bufferView":35,
			"componentType":5123,
			"count":1386,
			"type":"SCALAR"
		},
		{
			"bufferView":36,
			"componentType":5126,
			"count":36,
			"max":[
				0.12533575296401978,
				-0.7956521511077881,
				0.05217394232749939
			],
			"min":[
				0.10359662771224976,
				-0.834782600402832,
				0.05217394232749939
			],
			"type":"VEC3"
		},
		{
			"bufferView":37,
			"componentType":5126,
			"count":36,
			"type":"VEC3"
		},
		{
			"bufferView":38,
			"componentType":5126,
			"count":4,
			"max":[
				0.11229228973388672,
				-0.8282608389854431,
				0.05217394232749939
			],
			"min":[
				0.10359662771224976,
				-0.8423912525177002,
				0.05217394232749939
			],
			"type":"VEC3"
		},
		{
			"bufferView":39,
			"componentType":5126,
			"count":4,
			"type":"VEC3"
		},
		{
			"bufferView":40,
			"componentType":5126,
			"count":308,
			"max":[
				0.20685738325119019,
				-0.501086950302124,
				0.04347829148173332
			],
			"min":[
				0.17424875497817993,
				-0.5489130020141602,
				3.3993273973464966e-08
			],
			"type":"VEC3"
		},
		{
			"bufferView":41,
			"componentType":5126,
			"count":308,
			"type":"VEC3"
		},
		{
			"bufferView":42,
			"componentType":5123,
			"count":750,
			"type":"SCALAR"
		},
		{
			"bufferView":43,
			"componentType":5126,
			"count":16,
			"max":[
				0.20142275094985962,
				-0.518478274345398,
				0.04130437597632408
			],
			"min":[
				0.17968356609344482,
				-0.541304349899292,
				0.04130437597632408
			],
			"type":"VEC3"
		},
		{
			"bufferView":44,
			"componentType":5126,
			"count":16,
			"type":"VEC3"
		},
		{
			"bufferView":45,
			"componentType":5123,
			"count":24,
			"type":"SCALAR"
		},
		{
			"bufferView":46,
			"componentType":5126,
			"count":4,
			"max":[
				0.20142269134521484,
				-0.5347825288772583,
				0.04130437970161438
			],
			"min":[
				0.19272702932357788,
				-0.5489130020141602,
				0.04130437970161438
			],
			"type":"VEC3"
		},
		{
			"bufferView":47,
			"componentType":5126,
			"count":4,
			"type":"VEC3"
		}
	],
	"bufferViews":[
		{
			"buffer":0,
			"byteLength":10164,
			"byteOffset":0,
			"target":34962
		},
		{
			"buffer":0,
			"byteLength":10164,
			"byteOffset":10164,
			"target":34962
		},
		{
			"buffer":0,
			"byteLength":5628,
			"byteOffset":20328,
			"target":34963
		},
		{
			"buffer":0,
			"byteLength":48,
			"byteOffset":25956,
			"target":34962
		},
		{
			"buffer":0,
			"byteLength":48,
			"byteOffset":26004,
			"target":34962
		},
		{
			"buffer":0,
			"byteLength":12,
			"byteOffset":26052,
			"target":34963
		},
		{
			"buffer":0,
			"byteLength":768,
			"byteOffset":26064,
			"target":34962
		},
		{
			"buffer":0,
			"byteLength":768,
			"byteOffset":26832,
			"target":34962
		},
		{
			"buffer":0,
			"byteLength":192,
			"byteOffset":27600,
			"target":34963
		},
		{
			"buffer":0,
			"byteLength":5796,
			"byteOffset":27792,
			"target":34962
		},
		{
			"buffer":0,
			"byteLength":5796,
			"byteOffset":33588,
			"target":34962
		},
		{
			"buffer":0,
			"byteLength":2784,
			"byteOffset":39384,
			"target":34963
		},
		{
			"buffer":0,
			"byteLength":432,
			"byteOffset":42168,
			"target":34962
		},
		{
			"buffer":0,
			"byteLength":432,
			"byteOffset":42600,
			"target":34962
		},
		{
			"buffer":0,
			"byteLength":108,
			"byteOffset":43032,
			"target":34963
		},
		{
			"buffer":0,
			"byteLength":48,
			"byteOffset":43140,
			"target":34962
		},
		{
			"buffer":0,
			"byteLength":48,
			"byteOffset":43188,
			"target":34962
		},
		{
			"buffer":0,
			"byteLength":6012,
			"byteOffset":43236,
			"target":34962
		},
		{
			"buffer":0,
			"byteLength":6012,
			"byteOffset":49248,
			"target":34962
		},
		{
			"buffer":0,
			"byteLength":2802,
			"byteOffset":55260,
			"target":34963
		},
		{
			"buffer":0,
			"byteLength":444,
			"byteOffset":58064,
			"target":34962
		},
		{
			"buffer":0,
			"byteLength":444,
			"byteOffset":58508,
			"target":34962
		},
		{
			"buffer":0,
			"byteLength":126,
			"byteOffset":58952,
			"target":34963
		},
		{
			"buffer":0,
			"byteLength":48,
			"byteOffset":59080,
			"target":34962
		},
		{
			"buffer":0,
			"byteLength":48,
			"byteOffset":59128,
			"target":34962
		},
		{
			"buffer":0,
			"byteLength":9840,
			"byteOffset":59176,
			"target":34962
		},
		{
			"buffer":0,
			"byteLength":9840,
			"byteOffset":69016,
			"target":34962
		},
		{
			"buffer":0,
			"byteLength":5328,
			"byteOffset":78856,
			"target":34963
		},
		{
			"buffer":0,
			"byteLength":576,
			"byteOffset":84184,
			"target":34962
		},
		{
			"buffer":0,
			"byteLength":576,
			"byteOffset":84760,
			"target":34962
		},
		{
			"buffer":0,
			"byteLength":144,
			"byteOffset":85336,
			"target":34963
		},
		{
			"buffer":0,
			"byteLength":48,
			"byteOffset":85480,
			"target":34962
		},
		{
			"buffer":0,
			"byteLength":48,
			"byteOffset":85528,
			"target":34962
		},
		{
			"buffer":0,
			"byteLength":5724,
			"byteOffset":85576,
			"target":34962
		},
		{
			"buffer":0,
			"byteLength":5724,
			"byteOffset":91300,
			"target":34962
		},
		{
			"buffer":0,
			"byteLength":2772,
			"byteOffset":97024,
			"target":34963
		},
		{
			"buffer":0,
			"byteLength":432,
			"byteOffset":99796,
			"target":34962
		},
		{
			"buffer":0,
			"byteLength":432,
			"byteOffset":100228,
			"target":34962
		},
		{
			"buffer":0,
			"byteLength":48,
			"byteOffset":100660,
			"target":34962
		},
		{
			"buffer":0,
			"byteLength":48,
			"byteOffset":100708,
			"target":34962
		},
		{
			"buffer":0,
			"byteLength":3696,
			"byteOffset":100756,
			"target":34962
		},
		{
			"buffer":0,
			"byteLength":3696,
			"byteOffset":104452,
			"target":34962
		},
		{
			"buffer":0,
			"byteLength":1500,
			"byteOffset":108148,
			"target":34963
		},
		{
			"buffer":0,
			"byteLength":192,
			"byteOffset":109648,
			"target":34962
		},
		{
			"buffer":0,
			"byteLength":192,
			"byteOffset":109840,
			"target":34962
		},
		{
			"buffer":0,
			"byteLength":48,
			"byteOffset":110032,
			"target":34963
		},
		{
			"buffer":0,
			"byteLength":48,
			"byteOffset":110080,
			"target":34962
		},
		{
			"buffer":0,
			"byteLength":48,
			"byteOffset":110128,
			"target":34962
		}
	],
	"buffers":[
		{
			"byteLength":110176,
			"uri":"BinaGrup7.bin"
		}
	]
}
