{
	"asset":{
		"generator":"Khronos glTF Blender I/O v4.2.60",
		"version":"2.0"
	},
	"scene":0,
	"scenes":[
		{
			"name":"Scene",
			"nodes":[
				0,
				1,
				2,
				3,
				4,
				5,
				6,
				7,
				8
			]
		}
	],
	"nodes":[
		{
			"mesh":0,
			"name":"Building_032.011"
		},
		{
			"mesh":1,
			"name":"Building_032.012"
		},
		{
			"mesh":2,
			"name":"Building_032.013"
		},
		{
			"mesh":3,
			"name":"Building_038.011"
		},
		{
			"mesh":4,
			"name":"Building_038.012"
		},
		{
			"mesh":5,
			"name":"Building_038.013"
		},
		{
			"mesh":6,
			"name":"Building_047.011"
		},
		{
			"mesh":7,
			"name":"Building_047.012"
		},
		{
			"mesh":8,
			"name":"Building_047.013"
		}
	],
	"materials":[
		{
			"doubleSided":true,
			"name":"BinaGrid",
			"pbrMetallicRoughness":{
				"baseColorFactor":[
					0.2874388098716736,
					0.3371638357639313,
					0.4178852438926697,
					1
				],
				"metallicFactor":0,
				"roughnessFactor":0.5
			}
		},
		{
			"doubleSided":true,
			"name":"PencereGrid",
			"pbrMetallicRoughness":{
				"baseColorFactor":[
					0.1499587893486023,
					0.17464761435985565,
					0.2122308313846588,
					1
				],
				"metallicFactor":0,
				"roughnessFactor":0.699999988079071
			}
		},
		{
			"doubleSided":true,
			"name":"Kap\u0131Grid",
			"pbrMetallicRoughness":{
				"baseColorFactor":[
					0.2874388098716736,
					0.3371638357639313,
					0.4178852438926697,
					1
				],
				"metallicFactor":0,
				"roughnessFactor":0.699999988079071
			}
		}
	],
	"meshes":[
		{
			"name":"Building_032_Mesh.002",
			"primitives":[
				{
					"attributes":{
						"POSITION":0,
						"NORMAL":1
					},
					"indices":2,
					"material":0
				}
			]
		},
		{
			"name":"Building_032_Mesh.012",
			"primitives":[
				{
					"attributes":{
						"POSITION":3,
						"NORMAL":4
					},
					"indices":5,
					"material":1
				}
			]
		},
		{
			"name":"Building_032_Mesh.013",
			"primitives":[
				{
					"attributes":{
						"POSITION":6,
						"NORMAL":7
					},
					"indices":8,
					"material":2
				}
			]
		},
		{
			"name":"Building_038_Mesh.002",
			"primitives":[
				{
					"attributes":{
						"POSITION":9,
						"NORMAL":10
					},
					"indices":11,
					"material":0
				}
			]
		},
		{
			"name":"Building_038_Mesh.012",
			"primitives":[
				{
					"attributes":{
						"POSITION":12,
						"NORMAL":13
					},
					"indices":14,
					"material":1
				}
			]
		},
		{
			"name":"Building_038_Mesh.013",
			"primitives":[
				{
					"attributes":{
						"POSITION":15,
						"NORMAL":16
					},
					"indices":8,
					"material":2
				}
			]
		},
		{
			"name":"Building_047_Mesh.002",
			"primitives":[
				{
					"attributes":{
						"POSITION":17,
						"NORMAL":18
					},
					"indices":19,
					"material":0
				}
			]
		},
		{
			"name":"Building_047_Mesh.012",
			"primitives":[
				{
					"attributes":{
						"POSITION":20,
						"NORMAL":21
					},
					"indices":22,
					"material":1
				}
			]
		},
		{
			"name":"Building_047_Mesh.013",
			"primitives":[
				{
					"attributes":{
						"POSITION":23,
						"NORMAL":24
					},
					"indices":8,
					"material":2
				}
			]
		}
	],
	"accessors":[
		{
			"bufferView":0,
			"componentType":5126,
			"count":496,
			"max":[
				-0.08933818340301514,
				-0.6989129781723022,
				0.04347829148173332
			],
			"min":[
				-0.13825121521949768,
				-0.7445651888847351,
				3.3993273973464966e-08
			],
			"type":"VEC3"
		},
		{
			"bufferView":1,
			"componentType":5126,
			"count":496,
			"type":"VEC3"
		},
		{
			"bufferView":2,
			"componentType":5123,
			"count":1416,
			"type":"SCALAR"
		},
		{
			"bufferView":3,
			"componentType":5126,
			"count":24,
			"max":[
				-0.09422945976257324,
				-0.7141304016113281,
				0.04130437225103378
			],
			"min":[
				-0.1333599090576172,
				-0.741304337978363,
				0.04130437225103378
			],
			"type":"VEC3"
		},
		{
			"bufferView":4,
			"componentType":5126,
			"count":24,
			"type":"VEC3"
		},
		{
			"bufferView":5,
			"componentType":5123,
			"count":36,
			"type":"SCALAR"
		},
		{
			"bufferView":6,
			"componentType":5126,
			"count":4,
			"max":[
				-0.12683820724487305,
				-0.730434775352478,
				0.04130437970161438
			],
			"min":[
				-0.1333599090576172,
				-0.7445651888847351,
				0.04130437970161438
			],
			"type":"VEC3"
		},
		{
			"bufferView":7,
			"componentType":5126,
			"count":4,
			"type":"VEC3"
		},
		{
			"bufferView":8,
			"componentType":5123,
			"count":6,
			"type":"SCALAR"
		},
		{
			"bufferView":9,
			"componentType":5126,
			"count":292,
			"max":[
				-0.021403402090072632,
				-0.6097825765609741,
				0.043478287756443024
			],
			"min":[
				-0.05401211977005005,
				-0.64673912525177,
				2.9802322387695312e-08
			],
			"type":"VEC3"
		},
		{
			"bufferView":10,
			"componentType":5126,
			"count":292,
			"type":"VEC3"
		},
		{
			"bufferView":11,
			"componentType":5123,
			"count":732,
			"type":"SCALAR"
		},
		{
			"bufferView":12,
			"componentType":5126,
			"count":20,
			"max":[
				-0.026838183403015137,
				-0.616304337978363,
				0.04130437597632408
			],
			"min":[
				-0.048577338457107544,
				-0.643478274345398,
				0.04130437597632408
			],
			"type":"VEC3"
		},
		{
			"bufferView":13,
			"componentType":5126,
			"count":20,
			"type":"VEC3"
		},
		{
			"bufferView":14,
			"componentType":5123,
			"count":30,
			"type":"SCALAR"
		},
		{
			"bufferView":15,
			"componentType":5126,
			"count":4,
			"max":[
				-0.02683815360069275,
				-0.6326086521148682,
				0.04130437970161438
			],
			"min":[
				-0.03553381562232971,
				-0.64673912525177,
				0.04130437970161438
			],
			"type":"VEC3"
		},
		{
			"bufferView":16,
			"componentType":5126,
			"count":4,
			"type":"VEC3"
		},
		{
			"bufferView":17,
			"componentType":5126,
			"count":831,
			"max":[
				0.06283572316169739,
				-0.789130449295044,
				0.05434785410761833
			],
			"min":[
				0.013922661542892456,
				-0.8423912525177002,
				2.9802322387695312e-08
			],
			"type":"VEC3"
		},
		{
			"bufferView":18,
			"componentType":5126,
			"count":831,
			"type":"VEC3"
		},
		{
			"bufferView":19,
			"componentType":5123,
			"count":2718,
			"type":"SCALAR"
		},
		{
			"bufferView":20,
			"componentType":5126,
			"count":60,
			"max":[
				0.057944416999816895,
				-0.7956521511077881,
				0.05217394232749939
			],
			"min":[
				0.01881396770477295,
				-0.8391304016113281,
				0.05217394232749939
			],
			"type":"VEC3"
		},
		{
			"bufferView":21,
			"componentType":5126,
			"count":60,
			"type":"VEC3"
		},
		{
			"bufferView":22,
			"componentType":5123,
			"count":90,
			"type":"SCALAR"
		},
		{
			"bufferView":23,
			"componentType":5126,
			"count":4,
			"max":[
				0.047074854373931885,
				-0.8282608389854431,
				0.05217394232749939
			],
			"min":[
				0.029683560132980347,
				-0.8423912525177002,
				0.05217394232749939
			],
			"type":"VEC3"
		},
		{
			"bufferView":24,
			"componentType":5126,
			"count":4,
			"type":"VEC3"
		}
	],
	"bufferViews":[
		{
			"buffer":0,
			"byteLength":5952,
			"byteOffset":0,
			"target":34962
		},
		{
			"buffer":0,
			"byteLength":5952,
			"byteOffset":5952,
			"target":34962
		},
		{
			"buffer":0,
			"byteLength":2832,
			"byteOffset":11904,
			"target":34963
		},
		{
			"buffer":0,
			"byteLength":288,
			"byteOffset":14736,
			"target":34962
		},
		{
			"buffer":0,
			"byteLength":288,
			"byteOffset":15024,
			"target":34962
		},
		{
			"buffer":0,
			"byteLength":72,
			"byteOffset":15312,
			"target":34963
		},
		{
			"buffer":0,
			"byteLength":48,
			"byteOffset":15384,
			"target":34962
		},
		{
			"buffer":0,
			"byteLength":48,
			"byteOffset":15432,
			"target":34962
		},
		{
			"buffer":0,
			"byteLength":12,
			"byteOffset":15480,
			"target":34963
		},
		{
			"buffer":0,
			"byteLength":3504,
			"byteOffset":15492,
			"target":34962
		},
		{
			"buffer":0,
			"byteLength":3504,
			"byteOffset":18996,
			"target":34962
		},
		{
			"buffer":0,
			"byteLength":1464,
			"byteOffset":22500,
			"target":34963
		},
		{
			"buffer":0,
			"byteLength":240,
			"byteOffset":23964,
			"target":34962
		},
		{
			"buffer":0,
			"byteLength":240,
			"byteOffset":24204,
			"target":34962
		},
		{
			"buffer":0,
			"byteLength":60,
			"byteOffset":24444,
			"target":34963
		},
		{
			"buffer":0,
			"byteLength":48,
			"byteOffset":24504,
			"target":34962
		},
		{
			"buffer":0,
			"byteLength":48,
			"byteOffset":24552,
			"target":34962
		},
		{
			"buffer":0,
			"byteLength":9972,
			"byteOffset":24600,
			"target":34962
		},
		{
			"buffer":0,
			"byteLength":9972,
			"byteOffset":34572,
			"target":34962
		},
		{
			"buffer":0,
			"byteLength":5436,
			"byteOffset":44544,
			"target":34963
		},
		{
			"buffer":0,
			"byteLength":720,
			"byteOffset":49980,
			"target":34962
		},
		{
			"buffer":0,
			"byteLength":720,
			"byteOffset":50700,
			"target":34962
		},
		{
			"buffer":0,
			"byteLength":180,
			"byteOffset":51420,
			"target":34963
		},
		{
			"buffer":0,
			"byteLength":48,
			"byteOffset":51600,
			"target":34962
		},
		{
			"buffer":0,
			"byteLength":48,
			"byteOffset":51648,
			"target":34962
		}
	],
	"buffers":[
		{
			"byteLength":51696,
			"uri":"BinaGrup9.bin"
		}
	]
}
