{
	"asset":{
		"generator":"Khronos glTF Blender I/O v4.2.60",
		"version":"2.0"
	},
	"scene":0,
	"scenes":[
		{
			"name":"Scene",
			"nodes":[
				0,
				1,
				2,
				3,
				4,
				5,
				6,
				7,
				8,
				9,
				10,
				11,
				12,
				13,
				14,
				15,
				16,
				17
			]
		}
	],
	"nodes":[
		{
			"mesh":0,
			"name":"Building_027.011"
		},
		{
			"mesh":1,
			"name":"Building_027.012"
		},
		{
			"mesh":2,
			"name":"Building_027.013"
		},
		{
			"mesh":3,
			"name":"Building_028.011"
		},
		{
			"mesh":4,
			"name":"Building_028.012"
		},
		{
			"mesh":5,
			"name":"Building_028.013"
		},
		{
			"mesh":6,
			"name":"Building_041.011"
		},
		{
			"mesh":7,
			"name":"Building_041.012"
		},
		{
			"mesh":8,
			"name":"Building_041.013"
		},
		{
			"mesh":9,
			"name":"Building_046.011"
		},
		{
			"mesh":10,
			"name":"Building_046.012"
		},
		{
			"mesh":11,
			"name":"Building_046.013"
		},
		{
			"mesh":12,
			"name":"Building_064.011"
		},
		{
			"mesh":13,
			"name":"Building_064.012"
		},
		{
			"mesh":14,
			"name":"Building_064.013"
		},
		{
			"mesh":15,
			"name":"Building_066.011"
		},
		{
			"mesh":16,
			"name":"Building_066.012"
		},
		{
			"mesh":17,
			"name":"Building_066.013"
		}
	],
	"materials":[
		{
			"doubleSided":true,
			"name":"BinaGrid",
			"pbrMetallicRoughness":{
				"baseColorFactor":[
					0.2874388098716736,
					0.3371638357639313,
					0.4178852438926697,
					1
				],
				"metallicFactor":0,
				"roughnessFactor":0.5
			}
		},
		{
			"doubleSided":true,
			"name":"PencereGrid",
			"pbrMetallicRoughness":{
				"baseColorFactor":[
					0.1499587893486023,
					0.17464761435985565,
					0.2122308313846588,
					1
				],
				"metallicFactor":0,
				"roughnessFactor":0.699999988079071
			}
		},
		{
			"doubleSided":true,
			"name":"Kap\u0131Grid",
			"pbrMetallicRoughness":{
				"baseColorFactor":[
					0.2874388098716736,
					0.3371638357639313,
					0.4178852438926697,
					1
				],
				"metallicFactor":0,
				"roughnessFactor":0.699999988079071
			}
		}
	],
	"meshes":[
		{
			"name":"Building_027_Mesh.002",
			"primitives":[
				{
					"attributes":{
						"POSITION":0,
						"NORMAL":1
					},
					"indices":2,
					"material":0
				}
			]
		},
		{
			"name":"Building_027_Mesh.012",
			"primitives":[
				{
					"attributes":{
						"POSITION":3,
						"NORMAL":4
					},
					"indices":5,
					"material":1
				}
			]
		},
		{
			"name":"Building_027_Mesh.013",
			"primitives":[
				{
					"attributes":{
						"POSITION":6,
						"NORMAL":7
					},
					"indices":8,
					"material":2
				}
			]
		},
		{
			"name":"Building_028_Mesh.002",
			"primitives":[
				{
					"attributes":{
						"POSITION":9,
						"NORMAL":10
					},
					"indices":11,
					"material":0
				}
			]
		},
		{
			"name":"Building_028_Mesh.012",
			"primitives":[
				{
					"attributes":{
						"POSITION":12,
						"NORMAL":13
					},
					"indices":14,
					"material":1
				}
			]
		},
		{
			"name":"Building_028_Mesh.013",
			"primitives":[
				{
					"attributes":{
						"POSITION":15,
						"NORMAL":16
					},
					"indices":8,
					"material":2
				}
			]
		},
		{
			"name":"Building_041_Mesh.002",
			"primitives":[
				{
					"attributes":{
						"POSITION":17,
						"NORMAL":18
					},
					"indices":19,
					"material":0
				}
			]
		},
		{
			"name":"Building_041_Mesh.012",
			"primitives":[
				{
					"attributes":{
						"POSITION":20,
						"NORMAL":21
					},
					"indices":5,
					"material":1
				}
			]
		},
		{
			"name":"Building_041_Mesh.013",
			"primitives":[
				{
					"attributes":{
						"POSITION":22,
						"NORMAL":23
					},
					"indices":8,
					"material":2
				}
			]
		},
		{
			"name":"Building_046_Mesh.002",
			"primitives":[
				{
					"attributes":{
						"POSITION":24,
						"NORMAL":25
					},
					"indices":26,
					"material":0
				}
			]
		},
		{
			"name":"Building_046_Mesh.012",
			"primitives":[
				{
					"attributes":{
						"POSITION":27,
						"NORMAL":28
					},
					"indices":29,
					"material":1
				}
			]
		},
		{
			"name":"Building_046_Mesh.013",
			"primitives":[
				{
					"attributes":{
						"POSITION":30,
						"NORMAL":31
					},
					"indices":8,
					"material":2
				}
			]
		},
		{
			"name":"Building_064_Mesh.002",
			"primitives":[
				{
					"attributes":{
						"POSITION":32,
						"NORMAL":33
					},
					"indices":34,
					"material":0
				}
			]
		},
		{
			"name":"Building_064_Mesh.012",
			"primitives":[
				{
					"attributes":{
						"POSITION":35,
						"NORMAL":36
					},
					"indices":37,
					"material":1
				}
			]
		},
		{
			"name":"Building_064_Mesh.013",
			"primitives":[
				{
					"attributes":{
						"POSITION":38,
						"NORMAL":39
					},
					"indices":8,
					"material":2
				}
			]
		},
		{
			"name":"Building_066_Mesh.002",
			"primitives":[
				{
					"attributes":{
						"POSITION":40,
						"NORMAL":41
					},
					"indices":42,
					"material":0
				}
			]
		},
		{
			"name":"Building_066_Mesh.012",
			"primitives":[
				{
					"attributes":{
						"POSITION":43,
						"NORMAL":44
					},
					"indices":5,
					"material":1
				}
			]
		},
		{
			"name":"Building_066_Mesh.013",
			"primitives":[
				{
					"attributes":{
						"POSITION":45,
						"NORMAL":46
					},
					"indices":8,
					"material":2
				}
			]
		}
	],
	"accessors":[
		{
			"bufferView":0,
			"componentType":5126,
			"count":497,
			"max":[
				-0.17357729375362396,
				-0.876086950302124,
				0.05434785410761833
			],
			"min":[
				-0.206185981631279,
				-0.9402173757553101,
				2.9802322387695312e-08
			],
			"type":"VEC3"
		},
		{
			"bufferView":1,
			"componentType":5126,
			"count":497,
			"type":"VEC3"
		},
		{
			"bufferView":2,
			"componentType":5123,
			"count":1398,
			"type":"SCALAR"
		},
		{
			"bufferView":3,
			"componentType":5126,
			"count":36,
			"max":[
				-0.17901206016540527,
				-0.893478274345398,
				0.05217394232749939
			],
			"min":[
				-0.2007511854171753,
				-0.936956524848938,
				0.05217394232749939
			],
			"type":"VEC3"
		},
		{
			"bufferView":4,
			"componentType":5126,
			"count":36,
			"type":"VEC3"
		},
		{
			"bufferView":5,
			"componentType":5123,
			"count":54,
			"type":"SCALAR"
		},
		{
			"bufferView":6,
			"componentType":5126,
			"count":4,
			"max":[
				-0.19205555319786072,
				-0.9260869026184082,
				0.05217394232749939
			],
			"min":[
				-0.2007511854171753,
				-0.9402173757553101,
				0.05217394232749939
			],
			"type":"VEC3"
		},
		{
			"bufferView":7,
			"componentType":5126,
			"count":4,
			"type":"VEC3"
		},
		{
			"bufferView":8,
			"componentType":5123,
			"count":6,
			"type":"SCALAR"
		},
		{
			"bufferView":9,
			"componentType":5126,
			"count":501,
			"max":[
				-0.09749037027359009,
				-0.291304349899292,
				0.043478287756443024
			],
			"min":[
				-0.13009905815124512,
				-0.3532608151435852,
				2.9802322387695312e-08
			],
			"type":"VEC3"
		},
		{
			"bufferView":10,
			"componentType":5126,
			"count":501,
			"type":"VEC3"
		},
		{
			"bufferView":11,
			"componentType":5123,
			"count":1404,
			"type":"SCALAR"
		},
		{
			"bufferView":12,
			"componentType":5126,
			"count":38,
			"max":[
				-0.1029251217842102,
				-0.3065217137336731,
				0.04130437225103378
			],
			"min":[
				-0.12466424703598022,
				-0.34565210342407227,
				0.04130437225103378
			],
			"type":"VEC3"
		},
		{
			"bufferView":13,
			"componentType":5126,
			"count":38,
			"type":"VEC3"
		},
		{
			"bufferView":14,
			"componentType":5123,
			"count":60,
			"type":"SCALAR"
		},
		{
			"bufferView":15,
			"componentType":5126,
			"count":4,
			"max":[
				-0.10292509198188782,
				-0.3391304016113281,
				0.04130437970161438
			],
			"min":[
				-0.11162078380584717,
				-0.3532608151435852,
				0.04130437970161438
			],
			"type":"VEC3"
		},
		{
			"bufferView":16,
			"componentType":5126,
			"count":4,
			"type":"VEC3"
		},
		{
			"bufferView":17,
			"componentType":5126,
			"count":497,
			"max":[
				-0.021403372287750244,
				-0.8782608509063721,
				0.043478287756443024
			],
			"min":[
				-0.05401206016540527,
				-0.9402173757553101,
				2.9802322387695312e-08
			],
			"type":"VEC3"
		},
		{
			"bufferView":18,
			"componentType":5126,
			"count":497,
			"type":"VEC3"
		},
		{
			"bufferView":19,
			"componentType":5123,
			"count":1398,
			"type":"SCALAR"
		},
		{
			"bufferView":20,
			"componentType":5126,
			"count":36,
			"max":[
				-0.026838183403015137,
				-0.893478274345398,
				0.04130437225103378
			],
			"min":[
				-0.048577338457107544,
				-0.936956524848938,
				0.04130437225103378
			],
			"type":"VEC3"
		},
		{
			"bufferView":21,
			"componentType":5126,
			"count":36,
			"type":"VEC3"
		},
		{
			"bufferView":22,
			"componentType":5126,
			"count":4,
			"max":[
				-0.03988164663314819,
				-0.9260869026184082,
				0.04130437970161438
			],
			"min":[
				-0.048577338457107544,
				-0.9402173757553101,
				0.04130437970161438
			],
			"type":"VEC3"
		},
		{
			"bufferView":23,
			"componentType":5126,
			"count":4,
			"type":"VEC3"
		},
		{
			"bufferView":24,
			"componentType":5126,
			"count":281,
			"max":[
				0.054683536291122437,
				-0.707608699798584,
				0.05434785410761833
			],
			"min":[
				0.022074848413467407,
				-0.7445651888847351,
				2.9802322387695312e-08
			],
			"type":"VEC3"
		},
		{
			"bufferView":25,
			"componentType":5126,
			"count":281,
			"type":"VEC3"
		},
		{
			"bufferView":26,
			"componentType":5123,
			"count":732,
			"type":"SCALAR"
		},
		{
			"bufferView":27,
			"componentType":5126,
			"count":20,
			"max":[
				0.04924875497817993,
				-0.7141304016113281,
				0.05217394232749939
			],
			"min":[
				0.027509629726409912,
				-0.739130437374115,
				0.05217394232749939
			],
			"type":"VEC3"
		},
		{
			"bufferView":28,
			"componentType":5126,
			"count":20,
			"type":"VEC3"
		},
		{
			"bufferView":29,
			"componentType":5123,
			"count":30,
			"type":"SCALAR"
		},
		{
			"bufferView":30,
			"componentType":5126,
			"count":4,
			"max":[
				0.04924878478050232,
				-0.730434775352478,
				0.05217394232749939
			],
			"min":[
				0.040553122758865356,
				-0.7445651888847351,
				0.05217394232749939
			],
			"type":"VEC3"
		},
		{
			"bufferView":31,
			"componentType":5126,
			"count":4,
			"type":"VEC3"
		},
		{
			"bufferView":32,
			"componentType":5126,
			"count":1257,
			"max":[
				0.29109662771224976,
				-0.375,
				0.04347829148173332
			],
			"min":[
				0.24218356609344482,
				-0.45108696818351746,
				3.3993273973464966e-08
			],
			"type":"VEC3"
		},
		{
			"bufferView":33,
			"componentType":5126,
			"count":1257,
			"type":"VEC3"
		},
		{
			"bufferView":34,
			"componentType":5123,
			"count":4446,
			"type":"SCALAR"
		},
		{
			"bufferView":35,
			"componentType":5126,
			"count":56,
			"max":[
				0.2862052917480469,
				-0.38804346323013306,
				0.04130437225103378
			],
			"min":[
				0.24707484245300293,
				-0.44565218687057495,
				0.04130437225103378
			],
			"type":"VEC3"
		},
		{
			"bufferView":36,
			"componentType":5126,
			"count":56,
			"type":"VEC3"
		},
		{
			"bufferView":37,
			"componentType":5123,
			"count":84,
			"type":"SCALAR"
		},
		{
			"bufferView":38,
			"componentType":5126,
			"count":4,
			"max":[
				0.2535966634750366,
				-0.436956524848938,
				0.04130437970161438
			],
			"min":[
				0.24707484245300293,
				-0.45108696818351746,
				0.04130437970161438
			],
			"type":"VEC3"
		},
		{
			"bufferView":39,
			"componentType":5126,
			"count":4,
			"type":"VEC3"
		},
		{
			"bufferView":40,
			"componentType":5126,
			"count":477,
			"max":[
				0.28294432163238525,
				-0.5934782028198242,
				0.05434785410761833
			],
			"min":[
				0.250335693359375,
				-0.64673912525177,
				2.9802322387695312e-08
			],
			"type":"VEC3"
		},
		{
			"bufferView":41,
			"componentType":5126,
			"count":477,
			"type":"VEC3"
		},
		{
			"bufferView":42,
			"componentType":5123,
			"count":1386,
			"type":"SCALAR"
		},
		{
			"bufferView":43,
			"componentType":5126,
			"count":36,
			"max":[
				0.2775096297264099,
				-0.6000000238418579,
				0.05217394232749939
			],
			"min":[
				0.2557704448699951,
				-0.6391304135322571,
				0.05217394232749939
			],
			"type":"VEC3"
		},
		{
			"bufferView":44,
			"componentType":5126,
			"count":36,
			"type":"VEC3"
		},
		{
			"bufferView":45,
			"componentType":5126,
			"count":4,
			"max":[
				0.2644661068916321,
				-0.6326086521148682,
				0.05217394232749939
			],
			"min":[
				0.2557704448699951,
				-0.64673912525177,
				0.05217394232749939
			],
			"type":"VEC3"
		},
		{
			"bufferView":46,
			"componentType":5126,
			"count":4,
			"type":"VEC3"
		}
	],
	"bufferViews":[
		{
			"buffer":0,
			"byteLength":5964,
			"byteOffset":0,
			"target":34962
		},
		{
			"buffer":0,
			"byteLength":5964,
			"byteOffset":5964,
			"target":34962
		},
		{
			"buffer":0,
			"byteLength":2796,
			"byteOffset":11928,
			"target":34963
		},
		{
			"buffer":0,
			"byteLength":432,
			"byteOffset":14724,
			"target":34962
		},
		{
			"buffer":0,
			"byteLength":432,
			"byteOffset":15156,
			"target":34962
		},
		{
			"buffer":0,
			"byteLength":108,
			"byteOffset":15588,
			"target":34963
		},
		{
			"buffer":0,
			"byteLength":48,
			"byteOffset":15696,
			"target":34962
		},
		{
			"buffer":0,
			"byteLength":48,
			"byteOffset":15744,
			"target":34962
		},
		{
			"buffer":0,
			"byteLength":12,
			"byteOffset":15792,
			"target":34963
		},
		{
			"buffer":0,
			"byteLength":6012,
			"byteOffset":15804,
			"target":34962
		},
		{
			"buffer":0,
			"byteLength":6012,
			"byteOffset":21816,
			"target":34962
		},
		{
			"buffer":0,
			"byteLength":2808,
			"byteOffset":27828,
			"target":34963
		},
		{
			"buffer":0,
			"byteLength":456,
			"byteOffset":30636,
			"target":34962
		},
		{
			"buffer":0,
			"byteLength":456,
			"byteOffset":31092,
			"target":34962
		},
		{
			"buffer":0,
			"byteLength":120,
			"byteOffset":31548,
			"target":34963
		},
		{
			"buffer":0,
			"byteLength":48,
			"byteOffset":31668,
			"target":34962
		},
		{
			"buffer":0,
			"byteLength":48,
			"byteOffset":31716,
			"target":34962
		},
		{
			"buffer":0,
			"byteLength":5964,
			"byteOffset":31764,
			"target":34962
		},
		{
			"buffer":0,
			"byteLength":5964,
			"byteOffset":37728,
			"target":34962
		},
		{
			"buffer":0,
			"byteLength":2796,
			"byteOffset":43692,
			"target":34963
		},
		{
			"buffer":0,
			"byteLength":432,
			"byteOffset":46488,
			"target":34962
		},
		{
			"buffer":0,
			"byteLength":432,
			"byteOffset":46920,
			"target":34962
		},
		{
			"buffer":0,
			"byteLength":48,
			"byteOffset":47352,
			"target":34962
		},
		{
			"buffer":0,
			"byteLength":48,
			"byteOffset":47400,
			"target":34962
		},
		{
			"buffer":0,
			"byteLength":3372,
			"byteOffset":47448,
			"target":34962
		},
		{
			"buffer":0,
			"byteLength":3372,
			"byteOffset":50820,
			"target":34962
		},
		{
			"buffer":0,
			"byteLength":1464,
			"byteOffset":54192,
			"target":34963
		},
		{
			"buffer":0,
			"byteLength":240,
			"byteOffset":55656,
			"target":34962
		},
		{
			"buffer":0,
			"byteLength":240,
			"byteOffset":55896,
			"target":34962
		},
		{
			"buffer":0,
			"byteLength":60,
			"byteOffset":56136,
			"target":34963
		},
		{
			"buffer":0,
			"byteLength":48,
			"byteOffset":56196,
			"target":34962
		},
		{
			"buffer":0,
			"byteLength":48,
			"byteOffset":56244,
			"target":34962
		},
		{
			"buffer":0,
			"byteLength":15084,
			"byteOffset":56292,
			"target":34962
		},
		{
			"buffer":0,
			"byteLength":15084,
			"byteOffset":71376,
			"target":34962
		},
		{
			"buffer":0,
			"byteLength":8892,
			"byteOffset":86460,
			"target":34963
		},
		{
			"buffer":0,
			"byteLength":672,
			"byteOffset":95352,
			"target":34962
		},
		{
			"buffer":0,
			"byteLength":672,
			"byteOffset":96024,
			"target":34962
		},
		{
			"buffer":0,
			"byteLength":168,
			"byteOffset":96696,
			"target":34963
		},
		{
			"buffer":0,
			"byteLength":48,
			"byteOffset":96864,
			"target":34962
		},
		{
			"buffer":0,
			"byteLength":48,
			"byteOffset":96912,
			"target":34962
		},
		{
			"buffer":0,
			"byteLength":5724,
			"byteOffset":96960,
			"target":34962
		},
		{
			"buffer":0,
			"byteLength":5724,
			"byteOffset":102684,
			"target":34962
		},
		{
			"buffer":0,
			"byteLength":2772,
			"byteOffset":108408,
			"target":34963
		},
		{
			"buffer":0,
			"byteLength":432,
			"byteOffset":111180,
			"target":34962
		},
		{
			"buffer":0,
			"byteLength":432,
			"byteOffset":111612,
			"target":34962
		},
		{
			"buffer":0,
			"byteLength":48,
			"byteOffset":112044,
			"target":34962
		},
		{
			"buffer":0,
			"byteLength":48,
			"byteOffset":112092,
			"target":34962
		}
	],
	"buffers":[
		{
			"byteLength":112140,
			"uri":"BinaGrup3.bin"
		}
	]
}
