{
	"asset":{
		"generator":"Khronos glTF Blender I/O v4.2.60",
		"version":"2.0"
	},
	"scene":0,
	"scenes":[
		{
			"name":"Scene",
			"nodes":[
				0,
				1,
				2,
				3,
				4,
				5,
				6,
				7,
				8,
				9,
				10,
				11,
				12,
				13,
				14,
				15,
				16,
				17
			]
		}
	],
	"nodes":[
		{
			"mesh":0,
			"name":"Building_036.011"
		},
		{
			"mesh":1,
			"name":"Building_036.012"
		},
		{
			"mesh":2,
			"name":"Building_036.013"
		},
		{
			"mesh":3,
			"name":"Building_044.011"
		},
		{
			"mesh":4,
			"name":"Building_044.012"
		},
		{
			"mesh":5,
			"name":"Building_044.013"
		},
		{
			"mesh":6,
			"name":"Building_045.011"
		},
		{
			"mesh":7,
			"name":"Building_045.012"
		},
		{
			"mesh":8,
			"name":"Building_045.013"
		},
		{
			"mesh":9,
			"name":"Building_049.011"
		},
		{
			"mesh":10,
			"name":"Building_049.012"
		},
		{
			"mesh":11,
			"name":"Building_049.013"
		},
		{
			"mesh":12,
			"name":"Building_050.011"
		},
		{
			"mesh":13,
			"name":"Building_050.012"
		},
		{
			"mesh":14,
			"name":"Building_050.013"
		},
		{
			"mesh":15,
			"name":"Building_065.011"
		},
		{
			"mesh":16,
			"name":"Building_065.012"
		},
		{
			"mesh":17,
			"name":"Building_065.013"
		}
	],
	"materials":[
		{
			"doubleSided":true,
			"name":"BinaGrid",
			"pbrMetallicRoughness":{
				"baseColorFactor":[
					0.2874388098716736,
					0.3371638357639313,
					0.4178852438926697,
					1
				],
				"metallicFactor":0,
				"roughnessFactor":0.5
			}
		},
		{
			"doubleSided":true,
			"name":"PencereGrid",
			"pbrMetallicRoughness":{
				"baseColorFactor":[
					0.1499587893486023,
					0.17464761435985565,
					0.2122308313846588,
					1
				],
				"metallicFactor":0,
				"roughnessFactor":0.699999988079071
			}
		},
		{
			"doubleSided":true,
			"name":"Kap\u0131Grid",
			"pbrMetallicRoughness":{
				"baseColorFactor":[
					0.2874388098716736,
					0.3371638357639313,
					0.4178852438926697,
					1
				],
				"metallicFactor":0,
				"roughnessFactor":0.699999988079071
			}
		}
	],
	"meshes":[
		{
			"name":"Building_036_Mesh.002",
			"primitives":[
				{
					"attributes":{
						"POSITION":0,
						"NORMAL":1
					},
					"indices":2,
					"material":0
				}
			]
		},
		{
			"name":"Building_036_Mesh.012",
			"primitives":[
				{
					"attributes":{
						"POSITION":3,
						"NORMAL":4
					},
					"indices":5,
					"material":1
				}
			]
		},
		{
			"name":"Building_036_Mesh.013",
			"primitives":[
				{
					"attributes":{
						"POSITION":6,
						"NORMAL":7
					},
					"indices":8,
					"material":2
				}
			]
		},
		{
			"name":"Building_044_Mesh.002",
			"primitives":[
				{
					"attributes":{
						"POSITION":9,
						"NORMAL":10
					},
					"indices":11,
					"material":0
				}
			]
		},
		{
			"name":"Building_044_Mesh.012",
			"primitives":[
				{
					"attributes":{
						"POSITION":12,
						"NORMAL":13
					},
					"indices":14,
					"material":1
				}
			]
		},
		{
			"name":"Building_044_Mesh.013",
			"primitives":[
				{
					"attributes":{
						"POSITION":15,
						"NORMAL":16
					},
					"indices":8,
					"material":2
				}
			]
		},
		{
			"name":"Building_045_Mesh.002",
			"primitives":[
				{
					"attributes":{
						"POSITION":17,
						"NORMAL":18
					},
					"indices":19,
					"material":0
				}
			]
		},
		{
			"name":"Building_045_Mesh.012",
			"primitives":[
				{
					"attributes":{
						"POSITION":20,
						"NORMAL":21
					},
					"indices":22,
					"material":1
				}
			]
		},
		{
			"name":"Building_045_Mesh.013",
			"primitives":[
				{
					"attributes":{
						"POSITION":23,
						"NORMAL":24
					},
					"indices":8,
					"material":2
				}
			]
		},
		{
			"name":"Building_049_Mesh.002",
			"primitives":[
				{
					"attributes":{
						"POSITION":25,
						"NORMAL":26
					},
					"indices":27,
					"material":0
				}
			]
		},
		{
			"name":"Building_049_Mesh.012",
			"primitives":[
				{
					"attributes":{
						"POSITION":28,
						"NORMAL":29
					},
					"indices":30,
					"material":1
				}
			]
		},
		{
			"name":"Building_049_Mesh.013",
			"primitives":[
				{
					"attributes":{
						"POSITION":31,
						"NORMAL":32
					},
					"indices":8,
					"material":2
				}
			]
		},
		{
			"name":"Building_050_Mesh.002",
			"primitives":[
				{
					"attributes":{
						"POSITION":33,
						"NORMAL":34
					},
					"indices":35,
					"material":0
				}
			]
		},
		{
			"name":"Building_050_Mesh.012",
			"primitives":[
				{
					"attributes":{
						"POSITION":36,
						"NORMAL":37
					},
					"indices":38,
					"material":1
				}
			]
		},
		{
			"name":"Building_050_Mesh.013",
			"primitives":[
				{
					"attributes":{
						"POSITION":39,
						"NORMAL":40
					},
					"indices":8,
					"material":2
				}
			]
		},
		{
			"name":"Building_065_Mesh.002",
			"primitives":[
				{
					"attributes":{
						"POSITION":41,
						"NORMAL":42
					},
					"indices":43,
					"material":0
				}
			]
		},
		{
			"name":"Building_065_Mesh.012",
			"primitives":[
				{
					"attributes":{
						"POSITION":44,
						"NORMAL":45
					},
					"indices":46,
					"material":1
				}
			]
		},
		{
			"name":"Building_065_Mesh.013",
			"primitives":[
				{
					"attributes":{
						"POSITION":47,
						"NORMAL":48
					},
					"indices":8,
					"material":2
				}
			]
		}
	],
	"accessors":[
		{
			"bufferView":0,
			"componentType":5126,
			"count":497,
			"max":[
				-0.021403372287750244,
				-0.38695651292800903,
				0.05434785410761833
			],
			"min":[
				-0.05401206016540527,
				-0.45108696818351746,
				2.9802322387695312e-08
			],
			"type":"VEC3"
		},
		{
			"bufferView":1,
			"componentType":5126,
			"count":497,
			"type":"VEC3"
		},
		{
			"bufferView":2,
			"componentType":5123,
			"count":1398,
			"type":"SCALAR"
		},
		{
			"bufferView":3,
			"componentType":5126,
			"count":36,
			"max":[
				-0.026838183403015137,
				-0.40434783697128296,
				0.05217394232749939
			],
			"min":[
				-0.048577338457107544,
				-0.4434782564640045,
				0.05217394232749939
			],
			"type":"VEC3"
		},
		{
			"bufferView":4,
			"componentType":5126,
			"count":36,
			"type":"VEC3"
		},
		{
			"bufferView":5,
			"componentType":5123,
			"count":54,
			"type":"SCALAR"
		},
		{
			"bufferView":6,
			"componentType":5126,
			"count":4,
			"max":[
				-0.03988164663314819,
				-0.436956524848938,
				0.05217394232749939
			],
			"min":[
				-0.048577338457107544,
				-0.45108696818351746,
				0.05217394232749939
			],
			"type":"VEC3"
		},
		{
			"bufferView":7,
			"componentType":5126,
			"count":4,
			"type":"VEC3"
		},
		{
			"bufferView":8,
			"componentType":5123,
			"count":6,
			"type":"SCALAR"
		},
		{
			"bufferView":9,
			"componentType":5126,
			"count":515,
			"max":[
				0.06283572316169739,
				-0.5032608509063721,
				0.043478287756443024
			],
			"min":[
				0.013922721147537231,
				-0.5489130020141602,
				2.9802322387695312e-08
			],
			"type":"VEC3"
		},
		{
			"bufferView":10,
			"componentType":5126,
			"count":515,
			"type":"VEC3"
		},
		{
			"bufferView":11,
			"componentType":5123,
			"count":1434,
			"type":"SCALAR"
		},
		{
			"bufferView":12,
			"componentType":5126,
			"count":28,
			"max":[
				0.057944416999816895,
				-0.518478274345398,
				0.04130437225103378
			],
			"min":[
				0.01881396770477295,
				-0.5456521511077881,
				0.04130437225103378
			],
			"type":"VEC3"
		},
		{
			"bufferView":13,
			"componentType":5126,
			"count":28,
			"type":"VEC3"
		},
		{
			"bufferView":14,
			"componentType":5123,
			"count":42,
			"type":"SCALAR"
		},
		{
			"bufferView":15,
			"componentType":5126,
			"count":4,
			"max":[
				0.047074854373931885,
				-0.5347825288772583,
				0.04130437970161438
			],
			"min":[
				0.029683560132980347,
				-0.5489130020141602,
				0.04130437970161438
			],
			"type":"VEC3"
		},
		{
			"bufferView":16,
			"componentType":5126,
			"count":4,
			"type":"VEC3"
		},
		{
			"bufferView":17,
			"componentType":5126,
			"count":292,
			"max":[
				0.054683536291122437,
				-0.6097825765609741,
				0.06521742045879364
			],
			"min":[
				0.022074848413467407,
				-0.64673912525177,
				2.9802322387695312e-08
			],
			"type":"VEC3"
		},
		{
			"bufferView":18,
			"componentType":5126,
			"count":292,
			"type":"VEC3"
		},
		{
			"bufferView":19,
			"componentType":5123,
			"count":738,
			"type":"SCALAR"
		},
		{
			"bufferView":20,
			"componentType":5126,
			"count":20,
			"max":[
				0.04924878478050232,
				-0.616304337978363,
				0.0630435049533844
			],
			"min":[
				0.0275096595287323,
				-0.643478274345398,
				0.0630435049533844
			],
			"type":"VEC3"
		},
		{
			"bufferView":21,
			"componentType":5126,
			"count":20,
			"type":"VEC3"
		},
		{
			"bufferView":22,
			"componentType":5123,
			"count":30,
			"type":"SCALAR"
		},
		{
			"bufferView":23,
			"componentType":5126,
			"count":4,
			"max":[
				0.036205291748046875,
				-0.6326086521148682,
				0.0630435049533844
			],
			"min":[
				0.027509629726409912,
				-0.64673912525177,
				0.0630435049533844
			],
			"type":"VEC3"
		},
		{
			"bufferView":24,
			"componentType":5126,
			"count":4,
			"type":"VEC3"
		},
		{
			"bufferView":25,
			"componentType":5126,
			"count":1267,
			"max":[
				0.13892269134521484,
				-0.2749999165534973,
				0.06521741300821304
			],
			"min":[
				0.09000962972640991,
				-0.3532608151435852,
				2.9802322387695312e-08
			],
			"type":"VEC3"
		},
		{
			"bufferView":26,
			"componentType":5126,
			"count":1267,
			"type":"VEC3"
		},
		{
			"bufferView":27,
			"componentType":5123,
			"count":4512,
			"type":"SCALAR"
		},
		{
			"bufferView":28,
			"componentType":5126,
			"count":72,
			"max":[
				0.13403135538101196,
				-0.29021739959716797,
				0.0630435049533844
			],
			"min":[
				0.09490090608596802,
				-0.34565216302871704,
				0.0630435049533844
			],
			"type":"VEC3"
		},
		{
			"bufferView":29,
			"componentType":5126,
			"count":72,
			"type":"VEC3"
		},
		{
			"bufferView":30,
			"componentType":5123,
			"count":108,
			"type":"SCALAR"
		},
		{
			"bufferView":31,
			"componentType":5126,
			"count":4,
			"max":[
				0.12316179275512695,
				-0.3391304016113281,
				0.0630435049533844
			],
			"min":[
				0.1057705283164978,
				-0.3532608151435852,
				0.0630435049533844
			],
			"type":"VEC3"
		},
		{
			"bufferView":32,
			"componentType":5126,
			"count":4,
			"type":"VEC3"
		},
		{
			"bufferView":33,
			"componentType":5126,
			"count":503,
			"max":[
				0.13892269134521484,
				-0.41413044929504395,
				0.04347829148173332
			],
			"min":[
				0.09000962972640991,
				-0.45108696818351746,
				3.3993273973464966e-08
			],
			"type":"VEC3"
		},
		{
			"bufferView":34,
			"componentType":5126,
			"count":503,
			"type":"VEC3"
		},
		{
			"bufferView":35,
			"componentType":5123,
			"count":1476,
			"type":"SCALAR"
		},
		{
			"bufferView":36,
			"componentType":5126,
			"count":32,
			"max":[
				0.13403141498565674,
				-0.42065221071243286,
				0.04130437225103378
			],
			"min":[
				0.09490096569061279,
				-0.4434782564640045,
				0.04130437225103378
			],
			"type":"VEC3"
		},
		{
			"bufferView":37,
			"componentType":5126,
			"count":32,
			"type":"VEC3"
		},
		{
			"bufferView":38,
			"componentType":5123,
			"count":48,
			"type":"SCALAR"
		},
		{
			"bufferView":39,
			"componentType":5126,
			"count":4,
			"max":[
				0.1340314745903015,
				-0.436956524848938,
				0.04130437970161438
			],
			"min":[
				0.1275097131729126,
				-0.45108696818351746,
				0.04130437970161438
			],
			"type":"VEC3"
		},
		{
			"bufferView":40,
			"componentType":5126,
			"count":4,
			"type":"VEC3"
		},
		{
			"bufferView":41,
			"componentType":5126,
			"count":820,
			"max":[
				0.2910965085029602,
				-0.4956521689891815,
				0.06521741300821304
			],
			"min":[
				0.24218344688415527,
				-0.5489130020141602,
				2.9802322387695312e-08
			],
			"type":"VEC3"
		},
		{
			"bufferView":42,
			"componentType":5126,
			"count":820,
			"type":"VEC3"
		},
		{
			"bufferView":43,
			"componentType":5123,
			"count":2664,
			"type":"SCALAR"
		},
		{
			"bufferView":44,
			"componentType":5126,
			"count":48,
			"max":[
				0.2862052917480469,
				-0.502173900604248,
				0.0630435049533844
			],
			"min":[
				0.24707484245300293,
				-0.54347825050354,
				0.0630435049533844
			],
			"type":"VEC3"
		},
		{
			"bufferView":45,
			"componentType":5126,
			"count":48,
			"type":"VEC3"
		},
		{
			"bufferView":46,
			"componentType":5123,
			"count":72,
			"type":"SCALAR"
		},
		{
			"bufferView":47,
			"componentType":5126,
			"count":4,
			"max":[
				0.2535966634750366,
				-0.5347825288772583,
				0.0630435049533844
			],
			"min":[
				0.24707484245300293,
				-0.5489130020141602,
				0.0630435049533844
			],
			"type":"VEC3"
		},
		{
			"bufferView":48,
			"componentType":5126,
			"count":4,
			"type":"VEC3"
		}
	],
	"bufferViews":[
		{
			"buffer":0,
			"byteLength":5964,
			"byteOffset":0,
			"target":34962
		},
		{
			"buffer":0,
			"byteLength":5964,
			"byteOffset":5964,
			"target":34962
		},
		{
			"buffer":0,
			"byteLength":2796,
			"byteOffset":11928,
			"target":34963
		},
		{
			"buffer":0,
			"byteLength":432,
			"byteOffset":14724,
			"target":34962
		},
		{
			"buffer":0,
			"byteLength":432,
			"byteOffset":15156,
			"target":34962
		},
		{
			"buffer":0,
			"byteLength":108,
			"byteOffset":15588,
			"target":34963
		},
		{
			"buffer":0,
			"byteLength":48,
			"byteOffset":15696,
			"target":34962
		},
		{
			"buffer":0,
			"byteLength":48,
			"byteOffset":15744,
			"target":34962
		},
		{
			"buffer":0,
			"byteLength":12,
			"byteOffset":15792,
			"target":34963
		},
		{
			"buffer":0,
			"byteLength":6180,
			"byteOffset":15804,
			"target":34962
		},
		{
			"buffer":0,
			"byteLength":6180,
			"byteOffset":21984,
			"target":34962
		},
		{
			"buffer":0,
			"byteLength":2868,
			"byteOffset":28164,
			"target":34963
		},
		{
			"buffer":0,
			"byteLength":336,
			"byteOffset":31032,
			"target":34962
		},
		{
			"buffer":0,
			"byteLength":336,
			"byteOffset":31368,
			"target":34962
		},
		{
			"buffer":0,
			"byteLength":84,
			"byteOffset":31704,
			"target":34963
		},
		{
			"buffer":0,
			"byteLength":48,
			"byteOffset":31788,
			"target":34962
		},
		{
			"buffer":0,
			"byteLength":48,
			"byteOffset":31836,
			"target":34962
		},
		{
			"buffer":0,
			"byteLength":3504,
			"byteOffset":31884,
			"target":34962
		},
		{
			"buffer":0,
			"byteLength":3504,
			"byteOffset":35388,
			"target":34962
		},
		{
			"buffer":0,
			"byteLength":1476,
			"byteOffset":38892,
			"target":34963
		},
		{
			"buffer":0,
			"byteLength":240,
			"byteOffset":40368,
			"target":34962
		},
		{
			"buffer":0,
			"byteLength":240,
			"byteOffset":40608,
			"target":34962
		},
		{
			"buffer":0,
			"byteLength":60,
			"byteOffset":40848,
			"target":34963
		},
		{
			"buffer":0,
			"byteLength":48,
			"byteOffset":40908,
			"target":34962
		},
		{
			"buffer":0,
			"byteLength":48,
			"byteOffset":40956,
			"target":34962
		},
		{
			"buffer":0,
			"byteLength":15204,
			"byteOffset":41004,
			"target":34962
		},
		{
			"buffer":0,
			"byteLength":15204,
			"byteOffset":56208,
			"target":34962
		},
		{
			"buffer":0,
			"byteLength":9024,
			"byteOffset":71412,
			"target":34963
		},
		{
			"buffer":0,
			"byteLength":864,
			"byteOffset":80436,
			"target":34962
		},
		{
			"buffer":0,
			"byteLength":864,
			"byteOffset":81300,
			"target":34962
		},
		{
			"buffer":0,
			"byteLength":216,
			"byteOffset":82164,
			"target":34963
		},
		{
			"buffer":0,
			"byteLength":48,
			"byteOffset":82380,
			"target":34962
		},
		{
			"buffer":0,
			"byteLength":48,
			"byteOffset":82428,
			"target":34962
		},
		{
			"buffer":0,
			"byteLength":6036,
			"byteOffset":82476,
			"target":34962
		},
		{
			"buffer":0,
			"byteLength":6036,
			"byteOffset":88512,
			"target":34962
		},
		{
			"buffer":0,
			"byteLength":2952,
			"byteOffset":94548,
			"target":34963
		},
		{
			"buffer":0,
			"byteLength":384,
			"byteOffset":97500,
			"target":34962
		},
		{
			"buffer":0,
			"byteLength":384,
			"byteOffset":97884,
			"target":34962
		},
		{
			"buffer":0,
			"byteLength":96,
			"byteOffset":98268,
			"target":34963
		},
		{
			"buffer":0,
			"byteLength":48,
			"byteOffset":98364,
			"target":34962
		},
		{
			"buffer":0,
			"byteLength":48,
			"byteOffset":98412,
			"target":34962
		},
		{
			"buffer":0,
			"byteLength":9840,
			"byteOffset":98460,
			"target":34962
		},
		{
			"buffer":0,
			"byteLength":9840,
			"byteOffset":108300,
			"target":34962
		},
		{
			"buffer":0,
			"byteLength":5328,
			"byteOffset":118140,
			"target":34963
		},
		{
			"buffer":0,
			"byteLength":576,
			"byteOffset":123468,
			"target":34962
		},
		{
			"buffer":0,
			"byteLength":576,
			"byteOffset":124044,
			"target":34962
		},
		{
			"buffer":0,
			"byteLength":144,
			"byteOffset":124620,
			"target":34963
		},
		{
			"buffer":0,
			"byteLength":48,
			"byteOffset":124764,
			"target":34962
		},
		{
			"buffer":0,
			"byteLength":48,
			"byteOffset":124812,
			"target":34962
		}
	],
	"buffers":[
		{
			"byteLength":124860,
			"uri":"BinaGrup6.bin"
		}
	]
}
