{
	"asset":{
		"generator":"Khronos glTF Blender I/O v4.2.60",
		"version":"2.0"
	},
	"scene":0,
	"scenes":[
		{
			"name":"Scene",
			"nodes":[
				0,
				1,
				2,
				3,
				4,
				5,
				6,
				7,
				8,
				9,
				10,
				11,
				12,
				13,
				14,
				15,
				16,
				17
			]
		}
	],
	"nodes":[
		{
			"mesh":0,
			"name":"Building_026.011"
		},
		{
			"mesh":1,
			"name":"Building_026.012"
		},
		{
			"mesh":2,
			"name":"Building_026.013"
		},
		{
			"mesh":3,
			"name":"Building_034.011"
		},
		{
			"mesh":4,
			"name":"Building_034.012"
		},
		{
			"mesh":5,
			"name":"Building_034.013"
		},
		{
			"mesh":6,
			"name":"Building_040.011"
		},
		{
			"mesh":7,
			"name":"Building_040.012"
		},
		{
			"mesh":8,
			"name":"Building_040.013"
		},
		{
			"mesh":9,
			"name":"Building_053.011"
		},
		{
			"mesh":10,
			"name":"Building_053.012"
		},
		{
			"mesh":11,
			"name":"Building_053.013"
		},
		{
			"mesh":12,
			"name":"Building_059.011"
		},
		{
			"mesh":13,
			"name":"Building_059.012"
		},
		{
			"mesh":14,
			"name":"Building_059.013"
		},
		{
			"mesh":15,
			"name":"Building_067.011"
		},
		{
			"mesh":16,
			"name":"Building_067.012"
		},
		{
			"mesh":17,
			"name":"Building_067.013"
		}
	],
	"materials":[
		{
			"doubleSided":true,
			"name":"BinaGrid",
			"pbrMetallicRoughness":{
				"baseColorFactor":[
					0.2874388098716736,
					0.3371638357639313,
					0.4178852438926697,
					1
				],
				"metallicFactor":0,
				"roughnessFactor":0.5
			}
		},
		{
			"doubleSided":true,
			"name":"PencereGrid",
			"pbrMetallicRoughness":{
				"baseColorFactor":[
					0.1499587893486023,
					0.17464761435985565,
					0.2122308313846588,
					1
				],
				"metallicFactor":0,
				"roughnessFactor":0.699999988079071
			}
		},
		{
			"doubleSided":true,
			"name":"Kap\u0131Grid",
			"pbrMetallicRoughness":{
				"baseColorFactor":[
					0.2874388098716736,
					0.3371638357639313,
					0.4178852438926697,
					1
				],
				"metallicFactor":0,
				"roughnessFactor":0.699999988079071
			}
		}
	],
	"meshes":[
		{
			"name":"Building_026_Mesh.002",
			"primitives":[
				{
					"attributes":{
						"POSITION":0,
						"NORMAL":1
					},
					"indices":2,
					"material":0
				}
			]
		},
		{
			"name":"Building_026_Mesh.012",
			"primitives":[
				{
					"attributes":{
						"POSITION":3,
						"NORMAL":4
					},
					"indices":5,
					"material":1
				}
			]
		},
		{
			"name":"Building_026_Mesh.013",
			"primitives":[
				{
					"attributes":{
						"POSITION":6,
						"NORMAL":7
					},
					"indices":8,
					"material":2
				}
			]
		},
		{
			"name":"Building_034_Mesh.002",
			"primitives":[
				{
					"attributes":{
						"POSITION":9,
						"NORMAL":10
					},
					"indices":11,
					"material":0
				}
			]
		},
		{
			"name":"Building_034_Mesh.012",
			"primitives":[
				{
					"attributes":{
						"POSITION":12,
						"NORMAL":13
					},
					"indices":14,
					"material":1
				}
			]
		},
		{
			"name":"Building_034_Mesh.013",
			"primitives":[
				{
					"attributes":{
						"POSITION":15,
						"NORMAL":16
					},
					"indices":8,
					"material":2
				}
			]
		},
		{
			"name":"Building_040_Mesh.002",
			"primitives":[
				{
					"attributes":{
						"POSITION":17,
						"NORMAL":18
					},
					"indices":19,
					"material":0
				}
			]
		},
		{
			"name":"Building_040_Mesh.012",
			"primitives":[
				{
					"attributes":{
						"POSITION":20,
						"NORMAL":21
					},
					"indices":22,
					"material":1
				}
			]
		},
		{
			"name":"Building_040_Mesh.013",
			"primitives":[
				{
					"attributes":{
						"POSITION":23,
						"NORMAL":24
					},
					"indices":8,
					"material":2
				}
			]
		},
		{
			"name":"Building_053_Mesh.002",
			"primitives":[
				{
					"attributes":{
						"POSITION":25,
						"NORMAL":26
					},
					"indices":27,
					"material":0
				}
			]
		},
		{
			"name":"Building_053_Mesh.012",
			"primitives":[
				{
					"attributes":{
						"POSITION":28,
						"NORMAL":29
					},
					"indices":30,
					"material":1
				}
			]
		},
		{
			"name":"Building_053_Mesh.013",
			"primitives":[
				{
					"attributes":{
						"POSITION":31,
						"NORMAL":32
					},
					"indices":8,
					"material":2
				}
			]
		},
		{
			"name":"Building_059_Mesh.002",
			"primitives":[
				{
					"attributes":{
						"POSITION":33,
						"NORMAL":34
					},
					"indices":35,
					"material":0
				}
			]
		},
		{
			"name":"Building_059_Mesh.012",
			"primitives":[
				{
					"attributes":{
						"POSITION":36,
						"NORMAL":37
					},
					"indices":38,
					"material":1
				}
			]
		},
		{
			"name":"Building_059_Mesh.013",
			"primitives":[
				{
					"attributes":{
						"POSITION":39,
						"NORMAL":40
					},
					"indices":8,
					"material":2
				}
			]
		},
		{
			"name":"Building_067_Mesh.002",
			"primitives":[
				{
					"attributes":{
						"POSITION":41,
						"NORMAL":42
					},
					"indices":43,
					"material":0
				}
			]
		},
		{
			"name":"Building_067_Mesh.012",
			"primitives":[
				{
					"attributes":{
						"POSITION":44,
						"NORMAL":45
					},
					"indices":14,
					"material":1
				}
			]
		},
		{
			"name":"Building_067_Mesh.013",
			"primitives":[
				{
					"attributes":{
						"POSITION":46,
						"NORMAL":47
					},
					"indices":8,
					"material":2
				}
			]
		}
	],
	"accessors":[
		{
			"bufferView":0,
			"componentType":5126,
			"count":308,
			"max":[
				-0.17357729375362396,
				-0.7967391014099121,
				0.05434785038232803
			],
			"min":[
				-0.206185981631279,
				-0.8423912525177002,
				2.561137080192566e-08
			],
			"type":"VEC3"
		},
		{
			"bufferView":1,
			"componentType":5126,
			"count":308,
			"type":"VEC3"
		},
		{
			"bufferView":2,
			"componentType":5123,
			"count":750,
			"type":"SCALAR"
		},
		{
			"bufferView":3,
			"componentType":5126,
			"count":20,
			"max":[
				-0.17901207506656647,
				-0.811956524848938,
				0.05217394232749939
			],
			"min":[
				-0.2007512003183365,
				-0.8369565010070801,
				0.05217394232749939
			],
			"type":"VEC3"
		},
		{
			"bufferView":4,
			"componentType":5126,
			"count":20,
			"type":"VEC3"
		},
		{
			"bufferView":5,
			"componentType":5123,
			"count":30,
			"type":"SCALAR"
		},
		{
			"bufferView":6,
			"componentType":5126,
			"count":4,
			"max":[
				-0.19205555319786072,
				-0.8282608389854431,
				0.05217394232749939
			],
			"min":[
				-0.2007511854171753,
				-0.8423912525177002,
				0.05217394232749939
			],
			"type":"VEC3"
		},
		{
			"bufferView":7,
			"componentType":5126,
			"count":4,
			"type":"VEC3"
		},
		{
			"bufferView":8,
			"componentType":5123,
			"count":6,
			"type":"SCALAR"
		},
		{
			"bufferView":9,
			"componentType":5126,
			"count":722,
			"max":[
				-0.09749031066894531,
				-0.8619564771652222,
				0.05434785410761833
			],
			"min":[
				-0.13009902834892273,
				-0.9402173757553101,
				2.9802322387695312e-08
			],
			"type":"VEC3"
		},
		{
			"bufferView":10,
			"componentType":5126,
			"count":722,
			"type":"VEC3"
		},
		{
			"bufferView":11,
			"componentType":5123,
			"count":2286,
			"type":"SCALAR"
		},
		{
			"bufferView":12,
			"componentType":5126,
			"count":48,
			"max":[
				-0.1029251217842102,
				-0.877173900604248,
				0.05217394232749939
			],
			"min":[
				-0.12466427683830261,
				-0.936956524848938,
				0.05217394232749939
			],
			"type":"VEC3"
		},
		{
			"bufferView":13,
			"componentType":5126,
			"count":48,
			"type":"VEC3"
		},
		{
			"bufferView":14,
			"componentType":5123,
			"count":72,
			"type":"SCALAR"
		},
		{
			"bufferView":15,
			"componentType":5126,
			"count":4,
			"max":[
				-0.11596861481666565,
				-0.9260869026184082,
				0.05217394232749939
			],
			"min":[
				-0.12466427683830261,
				-0.9402173757553101,
				0.05217394232749939
			],
			"type":"VEC3"
		},
		{
			"bufferView":16,
			"componentType":5126,
			"count":4,
			"type":"VEC3"
		},
		{
			"bufferView":17,
			"componentType":5126,
			"count":501,
			"max":[
				-0.021403402090072632,
				-0.7782608270645142,
				0.06521742045879364
			],
			"min":[
				-0.05401211977005005,
				-0.8423912525177002,
				2.9802322387695312e-08
			],
			"type":"VEC3"
		},
		{
			"bufferView":18,
			"componentType":5126,
			"count":501,
			"type":"VEC3"
		},
		{
			"bufferView":19,
			"componentType":5123,
			"count":1401,
			"type":"SCALAR"
		},
		{
			"bufferView":20,
			"componentType":5126,
			"count":39,
			"max":[
				-0.026838183403015137,
				-0.7956521511077881,
				0.0630435049533844
			],
			"min":[
				-0.048577308654785156,
				-0.8369565010070801,
				0.0630435049533844
			],
			"type":"VEC3"
		},
		{
			"bufferView":21,
			"componentType":5126,
			"count":39,
			"type":"VEC3"
		},
		{
			"bufferView":22,
			"componentType":5123,
			"count":63,
			"type":"SCALAR"
		},
		{
			"bufferView":23,
			"componentType":5126,
			"count":4,
			"max":[
				-0.02683815360069275,
				-0.8282608389854431,
				0.0630435049533844
			],
			"min":[
				-0.03553381562232971,
				-0.8423912525177002,
				0.0630435049533844
			],
			"type":"VEC3"
		},
		{
			"bufferView":24,
			"componentType":5126,
			"count":4,
			"type":"VEC3"
		},
		{
			"bufferView":25,
			"componentType":5126,
			"count":826,
			"max":[
				0.13892269134521484,
				-0.6804347634315491,
				0.05434786155819893
			],
			"min":[
				0.09000962972640991,
				-0.7445651888847351,
				3.3993273973464966e-08
			],
			"type":"VEC3"
		},
		{
			"bufferView":26,
			"componentType":5126,
			"count":826,
			"type":"VEC3"
		},
		{
			"bufferView":27,
			"componentType":5123,
			"count":2670,
			"type":"SCALAR"
		},
		{
			"bufferView":28,
			"componentType":5126,
			"count":52,
			"max":[
				0.13403141498565674,
				-0.697826087474823,
				0.05217394232749939
			],
			"min":[
				0.09490096569061279,
				-0.741304337978363,
				0.05217394232749939
			],
			"type":"VEC3"
		},
		{
			"bufferView":29,
			"componentType":5126,
			"count":52,
			"type":"VEC3"
		},
		{
			"bufferView":30,
			"componentType":5123,
			"count":78,
			"type":"SCALAR"
		},
		{
			"bufferView":31,
			"componentType":5126,
			"count":4,
			"max":[
				0.10142272710800171,
				-0.730434775352478,
				0.05217394232749939
			],
			"min":[
				0.09490096569061279,
				-0.7445651888847351,
				0.05217394232749939
			],
			"type":"VEC3"
		},
		{
			"bufferView":32,
			"componentType":5126,
			"count":4,
			"type":"VEC3"
		},
		{
			"bufferView":33,
			"componentType":5126,
			"count":873,
			"max":[
				0.2150096297264099,
				-0.584782600402832,
				0.05434786155819893
			],
			"min":[
				0.16609662771224976,
				-0.64673912525177,
				3.3993273973464966e-08
			],
			"type":"VEC3"
		},
		{
			"bufferView":34,
			"componentType":5126,
			"count":873,
			"type":"VEC3"
		},
		{
			"bufferView":35,
			"componentType":5123,
			"count":2826,
			"type":"SCALAR"
		},
		{
			"bufferView":36,
			"componentType":5126,
			"count":64,
			"max":[
				0.2101183533668518,
				-0.5999999642372131,
				0.05217394232749939
			],
			"min":[
				0.17098790407180786,
				-0.6413043737411499,
				0.05217394232749939
			],
			"type":"VEC3"
		},
		{
			"bufferView":37,
			"componentType":5126,
			"count":64,
			"type":"VEC3"
		},
		{
			"bufferView":38,
			"componentType":5123,
			"count":96,
			"type":"SCALAR"
		},
		{
			"bufferView":39,
			"componentType":5126,
			"count":4,
			"max":[
				0.21011829376220703,
				-0.6326086521148682,
				0.05217394232749939
			],
			"min":[
				0.20359653234481812,
				-0.64673912525177,
				0.05217394232749939
			],
			"type":"VEC3"
		},
		{
			"bufferView":40,
			"componentType":5126,
			"count":4,
			"type":"VEC3"
		},
		{
			"bufferView":41,
			"componentType":5126,
			"count":705,
			"max":[
				0.2829444408416748,
				-0.664130449295044,
				0.06521741300821304
			],
			"min":[
				0.250335693359375,
				-0.7445651888847351,
				2.9802322387695312e-08
			],
			"type":"VEC3"
		},
		{
			"bufferView":42,
			"componentType":5126,
			"count":705,
			"type":"VEC3"
		},
		{
			"bufferView":43,
			"componentType":5123,
			"count":2286,
			"type":"SCALAR"
		},
		{
			"bufferView":44,
			"componentType":5126,
			"count":48,
			"max":[
				0.27750957012176514,
				-0.6815217137336731,
				0.0630435049533844
			],
			"min":[
				0.2557704448699951,
				-0.739130437374115,
				0.0630435049533844
			],
			"type":"VEC3"
		},
		{
			"bufferView":45,
			"componentType":5126,
			"count":48,
			"type":"VEC3"
		},
		{
			"bufferView":46,
			"componentType":5126,
			"count":4,
			"max":[
				0.2644661068916321,
				-0.730434775352478,
				0.0630435049533844
			],
			"min":[
				0.2557704448699951,
				-0.7445651888847351,
				0.0630435049533844
			],
			"type":"VEC3"
		},
		{
			"bufferView":47,
			"componentType":5126,
			"count":4,
			"type":"VEC3"
		}
	],
	"bufferViews":[
		{
			"buffer":0,
			"byteLength":3696,
			"byteOffset":0,
			"target":34962
		},
		{
			"buffer":0,
			"byteLength":3696,
			"byteOffset":3696,
			"target":34962
		},
		{
			"buffer":0,
			"byteLength":1500,
			"byteOffset":7392,
			"target":34963
		},
		{
			"buffer":0,
			"byteLength":240,
			"byteOffset":8892,
			"target":34962
		},
		{
			"buffer":0,
			"byteLength":240,
			"byteOffset":9132,
			"target":34962
		},
		{
			"buffer":0,
			"byteLength":60,
			"byteOffset":9372,
			"target":34963
		},
		{
			"buffer":0,
			"byteLength":48,
			"byteOffset":9432,
			"target":34962
		},
		{
			"buffer":0,
			"byteLength":48,
			"byteOffset":9480,
			"target":34962
		},
		{
			"buffer":0,
			"byteLength":12,
			"byteOffset":9528,
			"target":34963
		},
		{
			"buffer":0,
			"byteLength":8664,
			"byteOffset":9540,
			"target":34962
		},
		{
			"buffer":0,
			"byteLength":8664,
			"byteOffset":18204,
			"target":34962
		},
		{
			"buffer":0,
			"byteLength":4572,
			"byteOffset":26868,
			"target":34963
		},
		{
			"buffer":0,
			"byteLength":576,
			"byteOffset":31440,
			"target":34962
		},
		{
			"buffer":0,
			"byteLength":576,
			"byteOffset":32016,
			"target":34962
		},
		{
			"buffer":0,
			"byteLength":144,
			"byteOffset":32592,
			"target":34963
		},
		{
			"buffer":0,
			"byteLength":48,
			"byteOffset":32736,
			"target":34962
		},
		{
			"buffer":0,
			"byteLength":48,
			"byteOffset":32784,
			"target":34962
		},
		{
			"buffer":0,
			"byteLength":6012,
			"byteOffset":32832,
			"target":34962
		},
		{
			"buffer":0,
			"byteLength":6012,
			"byteOffset":38844,
			"target":34962
		},
		{
			"buffer":0,
			"byteLength":2802,
			"byteOffset":44856,
			"target":34963
		},
		{
			"buffer":0,
			"byteLength":468,
			"byteOffset":47660,
			"target":34962
		},
		{
			"buffer":0,
			"byteLength":468,
			"byteOffset":48128,
			"target":34962
		},
		{
			"buffer":0,
			"byteLength":126,
			"byteOffset":48596,
			"target":34963
		},
		{
			"buffer":0,
			"byteLength":48,
			"byteOffset":48724,
			"target":34962
		},
		{
			"buffer":0,
			"byteLength":48,
			"byteOffset":48772,
			"target":34962
		},
		{
			"buffer":0,
			"byteLength":9912,
			"byteOffset":48820,
			"target":34962
		},
		{
			"buffer":0,
			"byteLength":9912,
			"byteOffset":58732,
			"target":34962
		},
		{
			"buffer":0,
			"byteLength":5340,
			"byteOffset":68644,
			"target":34963
		},
		{
			"buffer":0,
			"byteLength":624,
			"byteOffset":73984,
			"target":34962
		},
		{
			"buffer":0,
			"byteLength":624,
			"byteOffset":74608,
			"target":34962
		},
		{
			"buffer":0,
			"byteLength":156,
			"byteOffset":75232,
			"target":34963
		},
		{
			"buffer":0,
			"byteLength":48,
			"byteOffset":75388,
			"target":34962
		},
		{
			"buffer":0,
			"byteLength":48,
			"byteOffset":75436,
			"target":34962
		},
		{
			"buffer":0,
			"byteLength":10476,
			"byteOffset":75484,
			"target":34962
		},
		{
			"buffer":0,
			"byteLength":10476,
			"byteOffset":85960,
			"target":34962
		},
		{
			"buffer":0,
			"byteLength":5652,
			"byteOffset":96436,
			"target":34963
		},
		{
			"buffer":0,
			"byteLength":768,
			"byteOffset":102088,
			"target":34962
		},
		{
			"buffer":0,
			"byteLength":768,
			"byteOffset":102856,
			"target":34962
		},
		{
			"buffer":0,
			"byteLength":192,
			"byteOffset":103624,
			"target":34963
		},
		{
			"buffer":0,
			"byteLength":48,
			"byteOffset":103816,
			"target":34962
		},
		{
			"buffer":0,
			"byteLength":48,
			"byteOffset":103864,
			"target":34962
		},
		{
			"buffer":0,
			"byteLength":8460,
			"byteOffset":103912,
			"target":34962
		},
		{
			"buffer":0,
			"byteLength":8460,
			"byteOffset":112372,
			"target":34962
		},
		{
			"buffer":0,
			"byteLength":4572,
			"byteOffset":120832,
			"target":34963
		},
		{
			"buffer":0,
			"byteLength":576,
			"byteOffset":125404,
			"target":34962
		},
		{
			"buffer":0,
			"byteLength":576,
			"byteOffset":125980,
			"target":34962
		},
		{
			"buffer":0,
			"byteLength":48,
			"byteOffset":126556,
			"target":34962
		},
		{
			"buffer":0,
			"byteLength":48,
			"byteOffset":126604,
			"target":34962
		}
	],
	"buffers":[
		{
			"byteLength":126652,
			"uri":"BinaGrup8.bin"
		}
	]
}
