{
	"asset":{
		"generator":"Khronos glTF Blender I/O v4.2.60",
		"version":"2.0"
	},
	"scene":0,
	"scenes":[
		{
			"name":"Scene",
			"nodes":[
				0,
				1,
				2,
				3,
				4,
				5,
				6,
				7,
				8,
				9,
				10,
				11,
				12,
				13,
				14,
				15,
				16,
				17
			]
		}
	],
	"nodes":[
		{
			"mesh":0,
			"name":"Building_022.011"
		},
		{
			"mesh":1,
			"name":"Building_022.012"
		},
		{
			"mesh":2,
			"name":"Building_022.013"
		},
		{
			"mesh":3,
			"name":"Building_031.011"
		},
		{
			"mesh":4,
			"name":"Building_031.012"
		},
		{
			"mesh":5,
			"name":"Building_031.013"
		},
		{
			"mesh":6,
			"name":"Building_042.011"
		},
		{
			"mesh":7,
			"name":"Building_042.012"
		},
		{
			"mesh":8,
			"name":"Building_042.013"
		},
		{
			"mesh":9,
			"name":"Building_051.011"
		},
		{
			"mesh":10,
			"name":"Building_051.012"
		},
		{
			"mesh":11,
			"name":"Building_051.013"
		},
		{
			"mesh":12,
			"name":"Building_060.011"
		},
		{
			"mesh":13,
			"name":"Building_060.012"
		},
		{
			"mesh":14,
			"name":"Building_060.013"
		},
		{
			"mesh":15,
			"name":"Building_063.011"
		},
		{
			"mesh":16,
			"name":"Building_063.012"
		},
		{
			"mesh":17,
			"name":"Building_063.013"
		}
	],
	"materials":[
		{
			"doubleSided":true,
			"name":"BinaGrid",
			"pbrMetallicRoughness":{
				"baseColorFactor":[
					0.2874388098716736,
					0.3371638357639313,
					0.4178852438926697,
					1
				],
				"metallicFactor":0,
				"roughnessFactor":0.5
			}
		},
		{
			"doubleSided":true,
			"name":"PencereGrid",
			"pbrMetallicRoughness":{
				"baseColorFactor":[
					0.1499587893486023,
					0.17464761435985565,
					0.2122308313846588,
					1
				],
				"metallicFactor":0,
				"roughnessFactor":0.699999988079071
			}
		},
		{
			"doubleSided":true,
			"name":"Kap\u0131Grid",
			"pbrMetallicRoughness":{
				"baseColorFactor":[
					0.2874388098716736,
					0.3371638357639313,
					0.4178852438926697,
					1
				],
				"metallicFactor":0,
				"roughnessFactor":0.699999988079071
			}
		}
	],
	"meshes":[
		{
			"name":"Building_022_Mesh.002",
			"primitives":[
				{
					"attributes":{
						"POSITION":0,
						"NORMAL":1
					},
					"indices":2,
					"material":0
				}
			]
		},
		{
			"name":"Building_022_Mesh.012",
			"primitives":[
				{
					"attributes":{
						"POSITION":3,
						"NORMAL":4
					},
					"indices":5,
					"material":1
				}
			]
		},
		{
			"name":"Building_022_Mesh.013",
			"primitives":[
				{
					"attributes":{
						"POSITION":6,
						"NORMAL":7
					},
					"indices":8,
					"material":2
				}
			]
		},
		{
			"name":"Building_031_Mesh.002",
			"primitives":[
				{
					"attributes":{
						"POSITION":9,
						"NORMAL":10
					},
					"indices":11,
					"material":0
				}
			]
		},
		{
			"name":"Building_031_Mesh.012",
			"primitives":[
				{
					"attributes":{
						"POSITION":12,
						"NORMAL":13
					},
					"indices":14,
					"material":1
				}
			]
		},
		{
			"name":"Building_031_Mesh.013",
			"primitives":[
				{
					"attributes":{
						"POSITION":15,
						"NORMAL":16
					},
					"indices":8,
					"material":2
				}
			]
		},
		{
			"name":"Building_042_Mesh.002",
			"primitives":[
				{
					"attributes":{
						"POSITION":17,
						"NORMAL":18
					},
					"indices":19,
					"material":0
				}
			]
		},
		{
			"name":"Building_042_Mesh.012",
			"primitives":[
				{
					"attributes":{
						"POSITION":20,
						"NORMAL":21
					},
					"indices":14,
					"material":1
				}
			]
		},
		{
			"name":"Building_042_Mesh.013",
			"primitives":[
				{
					"attributes":{
						"POSITION":22,
						"NORMAL":23
					},
					"indices":8,
					"material":2
				}
			]
		},
		{
			"name":"Building_051_Mesh.002",
			"primitives":[
				{
					"attributes":{
						"POSITION":24,
						"NORMAL":25
					},
					"indices":26,
					"material":0
				}
			]
		},
		{
			"name":"Building_051_Mesh.012",
			"primitives":[
				{
					"attributes":{
						"POSITION":27,
						"NORMAL":28
					},
					"indices":29,
					"material":1
				}
			]
		},
		{
			"name":"Building_051_Mesh.013",
			"primitives":[
				{
					"attributes":{
						"POSITION":30,
						"NORMAL":31
					},
					"indices":8,
					"material":2
				}
			]
		},
		{
			"name":"Building_060_Mesh.002",
			"primitives":[
				{
					"attributes":{
						"POSITION":32,
						"NORMAL":33
					},
					"indices":34,
					"material":0
				}
			]
		},
		{
			"name":"Building_060_Mesh.012",
			"primitives":[
				{
					"attributes":{
						"POSITION":35,
						"NORMAL":36
					},
					"indices":37,
					"material":1
				}
			]
		},
		{
			"name":"Building_060_Mesh.013",
			"primitives":[
				{
					"attributes":{
						"POSITION":38,
						"NORMAL":39
					},
					"indices":8,
					"material":2
				}
			]
		},
		{
			"name":"Building_063_Mesh.002",
			"primitives":[
				{
					"attributes":{
						"POSITION":40,
						"NORMAL":41
					},
					"indices":42,
					"material":0
				}
			]
		},
		{
			"name":"Building_063_Mesh.012",
			"primitives":[
				{
					"attributes":{
						"POSITION":43,
						"NORMAL":44
					},
					"indices":29,
					"material":1
				}
			]
		},
		{
			"name":"Building_063_Mesh.013",
			"primitives":[
				{
					"attributes":{
						"POSITION":45,
						"NORMAL":46
					},
					"indices":8,
					"material":2
				}
			]
		}
	],
	"accessors":[
		{
			"bufferView":0,
			"componentType":5126,
			"count":857,
			"max":[
				-0.1654251217842102,
				-0.38913047313690186,
				0.06521741300821304
			],
			"min":[
				-0.21433816850185394,
				-0.45108696818351746,
				2.9802322387695312e-08
			],
			"type":"VEC3"
		},
		{
			"bufferView":1,
			"componentType":5126,
			"count":857,
			"type":"VEC3"
		},
		{
			"bufferView":2,
			"componentType":5123,
			"count":2730,
			"type":"SCALAR"
		},
		{
			"bufferView":3,
			"componentType":5126,
			"count":60,
			"max":[
				-0.1703164130449295,
				-0.40434783697128296,
				0.0630435049533844
			],
			"min":[
				-0.20944684743881226,
				-0.4478261172771454,
				0.0630435049533844
			],
			"type":"VEC3"
		},
		{
			"bufferView":4,
			"componentType":5126,
			"count":60,
			"type":"VEC3"
		},
		{
			"bufferView":5,
			"componentType":5123,
			"count":90,
			"type":"SCALAR"
		},
		{
			"bufferView":6,
			"componentType":5126,
			"count":4,
			"max":[
				-0.18118597567081451,
				-0.436956524848938,
				0.0630435049533844
			],
			"min":[
				-0.19857728481292725,
				-0.45108696818351746,
				0.0630435049533844
			],
			"type":"VEC3"
		},
		{
			"bufferView":7,
			"componentType":5126,
			"count":4,
			"type":"VEC3"
		},
		{
			"bufferView":8,
			"componentType":5123,
			"count":6,
			"type":"SCALAR"
		},
		{
			"bufferView":9,
			"componentType":5126,
			"count":495,
			"max":[
				-0.08933818340301514,
				-0.6097825765609741,
				0.04347829148173332
			],
			"min":[
				-0.13825121521949768,
				-0.64673912525177,
				3.3993273973464966e-08
			],
			"type":"VEC3"
		},
		{
			"bufferView":10,
			"componentType":5126,
			"count":495,
			"type":"VEC3"
		},
		{
			"bufferView":11,
			"componentType":5123,
			"count":1422,
			"type":"SCALAR"
		},
		{
			"bufferView":12,
			"componentType":5126,
			"count":28,
			"max":[
				-0.09422945976257324,
				-0.616304337978363,
				0.04130437225103378
			],
			"min":[
				-0.1333599090576172,
				-0.643478274345398,
				0.04130437225103378
			],
			"type":"VEC3"
		},
		{
			"bufferView":13,
			"componentType":5126,
			"count":28,
			"type":"VEC3"
		},
		{
			"bufferView":14,
			"componentType":5123,
			"count":42,
			"type":"SCALAR"
		},
		{
			"bufferView":15,
			"componentType":5126,
			"count":4,
			"max":[
				-0.10509905219078064,
				-0.6326086521148682,
				0.04130437970161438
			],
			"min":[
				-0.12249031662940979,
				-0.64673912525177,
				0.04130437970161438
			],
			"type":"VEC3"
		},
		{
			"bufferView":16,
			"componentType":5126,
			"count":4,
			"type":"VEC3"
		},
		{
			"bufferView":17,
			"componentType":5126,
			"count":515,
			"max":[
				0.06283572316169739,
				-0.3054347038269043,
				0.05434785410761833
			],
			"min":[
				0.013922721147537231,
				-0.3532608151435852,
				2.9802322387695312e-08
			],
			"type":"VEC3"
		},
		{
			"bufferView":18,
			"componentType":5126,
			"count":515,
			"type":"VEC3"
		},
		{
			"bufferView":19,
			"componentType":5123,
			"count":1434,
			"type":"SCALAR"
		},
		{
			"bufferView":20,
			"componentType":5126,
			"count":28,
			"max":[
				0.057944416999816895,
				-0.322826087474823,
				0.05217394232749939
			],
			"min":[
				0.01881396770477295,
				-0.34999996423721313,
				0.05217394232749939
			],
			"type":"VEC3"
		},
		{
			"bufferView":21,
			"componentType":5126,
			"count":28,
			"type":"VEC3"
		},
		{
			"bufferView":22,
			"componentType":5126,
			"count":4,
			"max":[
				0.047074854373931885,
				-0.3391304016113281,
				0.05217394232749939
			],
			"min":[
				0.029683560132980347,
				-0.3532608151435852,
				0.05217394232749939
			],
			"type":"VEC3"
		},
		{
			"bufferView":23,
			"componentType":5126,
			"count":4,
			"type":"VEC3"
		},
		{
			"bufferView":24,
			"componentType":5126,
			"count":874,
			"max":[
				0.13892275094985962,
				-0.4891304075717926,
				0.05434786155819893
			],
			"min":[
				0.09000968933105469,
				-0.5489130020141602,
				3.3993273973464966e-08
			],
			"type":"VEC3"
		},
		{
			"bufferView":25,
			"componentType":5126,
			"count":874,
			"type":"VEC3"
		},
		{
			"bufferView":26,
			"componentType":5123,
			"count":2829,
			"type":"SCALAR"
		},
		{
			"bufferView":27,
			"componentType":5126,
			"count":63,
			"max":[
				0.13403141498565674,
				-0.502173900604248,
				0.05217394232749939
			],
			"min":[
				0.09490096569061279,
				-0.541304349899292,
				0.05217394232749939
			],
			"type":"VEC3"
		},
		{
			"bufferView":28,
			"componentType":5126,
			"count":63,
			"type":"VEC3"
		},
		{
			"bufferView":29,
			"componentType":5123,
			"count":93,
			"type":"SCALAR"
		},
		{
			"bufferView":30,
			"componentType":5126,
			"count":4,
			"max":[
				0.1340314745903015,
				-0.5347825288772583,
				0.05217394232749939
			],
			"min":[
				0.1275097131729126,
				-0.5489130020141602,
				0.05217394232749939
			],
			"type":"VEC3"
		},
		{
			"bufferView":31,
			"componentType":5126,
			"count":4,
			"type":"VEC3"
		},
		{
			"bufferView":32,
			"componentType":5126,
			"count":800,
			"max":[
				0.2150096297264099,
				-0.6913043260574341,
				0.04347829148173332
			],
			"min":[
				0.16609656810760498,
				-0.7445651888847351,
				3.3993273973464966e-08
			],
			"type":"VEC3"
		},
		{
			"bufferView":33,
			"componentType":5126,
			"count":800,
			"type":"VEC3"
		},
		{
			"bufferView":34,
			"componentType":5123,
			"count":2664,
			"type":"SCALAR"
		},
		{
			"bufferView":35,
			"componentType":5126,
			"count":48,
			"max":[
				0.21011829376220703,
				-0.697826087474823,
				0.04130437970161438
			],
			"min":[
				0.17098784446716309,
				-0.7369564771652222,
				0.04130437970161438
			],
			"type":"VEC3"
		},
		{
			"bufferView":36,
			"componentType":5126,
			"count":48,
			"type":"VEC3"
		},
		{
			"bufferView":37,
			"componentType":5123,
			"count":72,
			"type":"SCALAR"
		},
		{
			"bufferView":38,
			"componentType":5126,
			"count":4,
			"max":[
				0.177509605884552,
				-0.730434775352478,
				0.04130437970161438
			],
			"min":[
				0.17098784446716309,
				-0.7445651888847351,
				0.04130437970161438
			],
			"type":"VEC3"
		},
		{
			"bufferView":39,
			"componentType":5126,
			"count":4,
			"type":"VEC3"
		},
		{
			"bufferView":40,
			"componentType":5126,
			"count":884,
			"max":[
				0.2910965085029602,
				-0.2913042902946472,
				0.043478287756443024
			],
			"min":[
				0.24218344688415527,
				-0.35326075553894043,
				2.9802322387695312e-08
			],
			"type":"VEC3"
		},
		{
			"bufferView":41,
			"componentType":5126,
			"count":884,
			"type":"VEC3"
		},
		{
			"bufferView":42,
			"componentType":5123,
			"count":2829,
			"type":"SCALAR"
		},
		{
			"bufferView":43,
			"componentType":5126,
			"count":63,
			"max":[
				0.2862052917480469,
				-0.3065217137336731,
				0.04130437970161438
			],
			"min":[
				0.24707484245300293,
				-0.34565210342407227,
				0.04130437970161438
			],
			"type":"VEC3"
		},
		{
			"bufferView":44,
			"componentType":5126,
			"count":63,
			"type":"VEC3"
		},
		{
			"bufferView":45,
			"componentType":5126,
			"count":4,
			"max":[
				0.2862052917480469,
				-0.3391304016113281,
				0.04130437970161438
			],
			"min":[
				0.27968353033065796,
				-0.3532608151435852,
				0.04130437970161438
			],
			"type":"VEC3"
		},
		{
			"bufferView":46,
			"componentType":5126,
			"count":4,
			"type":"VEC3"
		}
	],
	"bufferViews":[
		{
			"buffer":0,
			"byteLength":10284,
			"byteOffset":0,
			"target":34962
		},
		{
			"buffer":0,
			"byteLength":10284,
			"byteOffset":10284,
			"target":34962
		},
		{
			"buffer":0,
			"byteLength":5460,
			"byteOffset":20568,
			"target":34963
		},
		{
			"buffer":0,
			"byteLength":720,
			"byteOffset":26028,
			"target":34962
		},
		{
			"buffer":0,
			"byteLength":720,
			"byteOffset":26748,
			"target":34962
		},
		{
			"buffer":0,
			"byteLength":180,
			"byteOffset":27468,
			"target":34963
		},
		{
			"buffer":0,
			"byteLength":48,
			"byteOffset":27648,
			"target":34962
		},
		{
			"buffer":0,
			"byteLength":48,
			"byteOffset":27696,
			"target":34962
		},
		{
			"buffer":0,
			"byteLength":12,
			"byteOffset":27744,
			"target":34963
		},
		{
			"buffer":0,
			"byteLength":5940,
			"byteOffset":27756,
			"target":34962
		},
		{
			"buffer":0,
			"byteLength":5940,
			"byteOffset":33696,
			"target":34962
		},
		{
			"buffer":0,
			"byteLength":2844,
			"byteOffset":39636,
			"target":34963
		},
		{
			"buffer":0,
			"byteLength":336,
			"byteOffset":42480,
			"target":34962
		},
		{
			"buffer":0,
			"byteLength":336,
			"byteOffset":42816,
			"target":34962
		},
		{
			"buffer":0,
			"byteLength":84,
			"byteOffset":43152,
			"target":34963
		},
		{
			"buffer":0,
			"byteLength":48,
			"byteOffset":43236,
			"target":34962
		},
		{
			"buffer":0,
			"byteLength":48,
			"byteOffset":43284,
			"target":34962
		},
		{
			"buffer":0,
			"byteLength":6180,
			"byteOffset":43332,
			"target":34962
		},
		{
			"buffer":0,
			"byteLength":6180,
			"byteOffset":49512,
			"target":34962
		},
		{
			"buffer":0,
			"byteLength":2868,
			"byteOffset":55692,
			"target":34963
		},
		{
			"buffer":0,
			"byteLength":336,
			"byteOffset":58560,
			"target":34962
		},
		{
			"buffer":0,
			"byteLength":336,
			"byteOffset":58896,
			"target":34962
		},
		{
			"buffer":0,
			"byteLength":48,
			"byteOffset":59232,
			"target":34962
		},
		{
			"buffer":0,
			"byteLength":48,
			"byteOffset":59280,
			"target":34962
		},
		{
			"buffer":0,
			"byteLength":10488,
			"byteOffset":59328,
			"target":34962
		},
		{
			"buffer":0,
			"byteLength":10488,
			"byteOffset":69816,
			"target":34962
		},
		{
			"buffer":0,
			"byteLength":5658,
			"byteOffset":80304,
			"target":34963
		},
		{
			"buffer":0,
			"byteLength":756,
			"byteOffset":85964,
			"target":34962
		},
		{
			"buffer":0,
			"byteLength":756,
			"byteOffset":86720,
			"target":34962
		},
		{
			"buffer":0,
			"byteLength":186,
			"byteOffset":87476,
			"target":34963
		},
		{
			"buffer":0,
			"byteLength":48,
			"byteOffset":87664,
			"target":34962
		},
		{
			"buffer":0,
			"byteLength":48,
			"byteOffset":87712,
			"target":34962
		},
		{
			"buffer":0,
			"byteLength":9600,
			"byteOffset":87760,
			"target":34962
		},
		{
			"buffer":0,
			"byteLength":9600,
			"byteOffset":97360,
			"target":34962
		},
		{
			"buffer":0,
			"byteLength":5328,
			"byteOffset":106960,
			"target":34963
		},
		{
			"buffer":0,
			"byteLength":576,
			"byteOffset":112288,
			"target":34962
		},
		{
			"buffer":0,
			"byteLength":576,
			"byteOffset":112864,
			"target":34962
		},
		{
			"buffer":0,
			"byteLength":144,
			"byteOffset":113440,
			"target":34963
		},
		{
			"buffer":0,
			"byteLength":48,
			"byteOffset":113584,
			"target":34962
		},
		{
			"buffer":0,
			"byteLength":48,
			"byteOffset":113632,
			"target":34962
		},
		{
			"buffer":0,
			"byteLength":10608,
			"byteOffset":113680,
			"target":34962
		},
		{
			"buffer":0,
			"byteLength":10608,
			"byteOffset":124288,
			"target":34962
		},
		{
			"buffer":0,
			"byteLength":5658,
			"byteOffset":134896,
			"target":34963
		},
		{
			"buffer":0,
			"byteLength":756,
			"byteOffset":140556,
			"target":34962
		},
		{
			"buffer":0,
			"byteLength":756,
			"byteOffset":141312,
			"target":34962
		},
		{
			"buffer":0,
			"byteLength":48,
			"byteOffset":142068,
			"target":34962
		},
		{
			"buffer":0,
			"byteLength":48,
			"byteOffset":142116,
			"target":34962
		}
	],
	"buffers":[
		{
			"byteLength":142164,
			"uri":"BinaGrup2.bin"
		}
	]
}
