{
	"asset":{
		"generator":"Khronos glTF Blender I/O v4.2.60",
		"version":"2.0"
	},
	"scene":0,
	"scenes":[
		{
			"name":"Scene",
			"nodes":[
				0,
				1,
				2,
				3,
				4,
				5,
				6,
				7,
				8,
				9,
				10,
				11,
				12,
				13,
				14,
				15,
				16,
				17
			]
		}
	],
	"nodes":[
		{
			"mesh":0,
			"name":"Building_018.010"
		},
		{
			"mesh":1,
			"name":"Building_018.011"
		},
		{
			"mesh":2,
			"name":"Building_018.012"
		},
		{
			"mesh":3,
			"name":"Building_024.011"
		},
		{
			"mesh":4,
			"name":"Building_024.012"
		},
		{
			"mesh":5,
			"name":"Building_024.013"
		},
		{
			"mesh":6,
			"name":"Building_033.011"
		},
		{
			"mesh":7,
			"name":"Building_033.012"
		},
		{
			"mesh":8,
			"name":"Building_033.013"
		},
		{
			"mesh":9,
			"name":"Building_037.011"
		},
		{
			"mesh":10,
			"name":"Building_037.012"
		},
		{
			"mesh":11,
			"name":"Building_037.013"
		},
		{
			"mesh":12,
			"name":"Building_055.011"
		},
		{
			"mesh":13,
			"name":"Building_055.012"
		},
		{
			"mesh":14,
			"name":"Building_055.013"
		},
		{
			"mesh":15,
			"name":"Building_057.011"
		},
		{
			"mesh":16,
			"name":"Building_057.012"
		},
		{
			"mesh":17,
			"name":"Building_057.013"
		}
	],
	"materials":[
		{
			"doubleSided":true,
			"name":"BinaGrid",
			"pbrMetallicRoughness":{
				"baseColorFactor":[
					0.2874388098716736,
					0.3371638357639313,
					0.4178852438926697,
					1
				],
				"metallicFactor":0,
				"roughnessFactor":0.5
			}
		},
		{
			"doubleSided":true,
			"name":"Kap\u0131Grid",
			"pbrMetallicRoughness":{
				"baseColorFactor":[
					0.2874388098716736,
					0.3371638357639313,
					0.4178852438926697,
					1
				],
				"metallicFactor":0,
				"roughnessFactor":0.699999988079071
			}
		},
		{
			"doubleSided":true,
			"name":"PencereGrid",
			"pbrMetallicRoughness":{
				"baseColorFactor":[
					0.1499587893486023,
					0.17464761435985565,
					0.2122308313846588,
					1
				],
				"metallicFactor":0,
				"roughnessFactor":0.699999988079071
			}
		}
	],
	"meshes":[
		{
			"name":"Building_018_Mesh.012",
			"primitives":[
				{
					"attributes":{
						"POSITION":0,
						"NORMAL":1
					},
					"indices":2,
					"material":0
				}
			]
		},
		{
			"name":"Building_018_Mesh.013",
			"primitives":[
				{
					"attributes":{
						"POSITION":3,
						"NORMAL":4
					},
					"indices":5,
					"material":1
				}
			]
		},
		{
			"name":"Building_018_Mesh.014",
			"primitives":[
				{
					"attributes":{
						"POSITION":6,
						"NORMAL":7
					},
					"indices":8,
					"material":2
				}
			]
		},
		{
			"name":"Building_024_Mesh.002",
			"primitives":[
				{
					"attributes":{
						"POSITION":9,
						"NORMAL":10
					},
					"indices":11,
					"material":0
				}
			]
		},
		{
			"name":"Building_024_Mesh.012",
			"primitives":[
				{
					"attributes":{
						"POSITION":12,
						"NORMAL":13
					},
					"indices":14,
					"material":2
				}
			]
		},
		{
			"name":"Building_024_Mesh.013",
			"primitives":[
				{
					"attributes":{
						"POSITION":15,
						"NORMAL":16
					},
					"indices":5,
					"material":1
				}
			]
		},
		{
			"name":"Building_033_Mesh.002",
			"primitives":[
				{
					"attributes":{
						"POSITION":17,
						"NORMAL":18
					},
					"indices":19,
					"material":0
				}
			]
		},
		{
			"name":"Building_033_Mesh.012",
			"primitives":[
				{
					"attributes":{
						"POSITION":20,
						"NORMAL":21
					},
					"indices":22,
					"material":2
				}
			]
		},
		{
			"name":"Building_033_Mesh.013",
			"primitives":[
				{
					"attributes":{
						"POSITION":23,
						"NORMAL":24
					},
					"indices":5,
					"material":1
				}
			]
		},
		{
			"name":"Building_037_Mesh.002",
			"primitives":[
				{
					"attributes":{
						"POSITION":25,
						"NORMAL":26
					},
					"indices":27,
					"material":0
				}
			]
		},
		{
			"name":"Building_037_Mesh.012",
			"primitives":[
				{
					"attributes":{
						"POSITION":28,
						"NORMAL":29
					},
					"indices":30,
					"material":2
				}
			]
		},
		{
			"name":"Building_037_Mesh.013",
			"primitives":[
				{
					"attributes":{
						"POSITION":31,
						"NORMAL":32
					},
					"indices":5,
					"material":1
				}
			]
		},
		{
			"name":"Building_055_Mesh.002",
			"primitives":[
				{
					"attributes":{
						"POSITION":33,
						"NORMAL":34
					},
					"indices":35,
					"material":0
				}
			]
		},
		{
			"name":"Building_055_Mesh.012",
			"primitives":[
				{
					"attributes":{
						"POSITION":36,
						"NORMAL":37
					},
					"indices":38,
					"material":2
				}
			]
		},
		{
			"name":"Building_055_Mesh.013",
			"primitives":[
				{
					"attributes":{
						"POSITION":39,
						"NORMAL":40
					},
					"indices":5,
					"material":1
				}
			]
		},
		{
			"name":"Building_057_Mesh.002",
			"primitives":[
				{
					"attributes":{
						"POSITION":41,
						"NORMAL":42
					},
					"indices":43,
					"material":0
				}
			]
		},
		{
			"name":"Building_057_Mesh.012",
			"primitives":[
				{
					"attributes":{
						"POSITION":44,
						"NORMAL":45
					},
					"indices":46,
					"material":2
				}
			]
		},
		{
			"name":"Building_057_Mesh.013",
			"primitives":[
				{
					"attributes":{
						"POSITION":47,
						"NORMAL":48
					},
					"indices":5,
					"material":1
				}
			]
		}
	],
	"accessors":[
		{
			"bufferView":0,
			"componentType":5126,
			"count":505,
			"max":[
				-0.24151206016540527,
				-0.707608699798584,
				0.05434785038232803
			],
			"min":[
				-0.2904250919818878,
				-0.7445651888847351,
				2.561137080192566e-08
			],
			"type":"VEC3"
		},
		{
			"bufferView":1,
			"componentType":5126,
			"count":505,
			"type":"VEC3"
		},
		{
			"bufferView":2,
			"componentType":5123,
			"count":1476,
			"type":"SCALAR"
		},
		{
			"bufferView":3,
			"componentType":5126,
			"count":4,
			"max":[
				-0.24640336632728577,
				-0.730434775352478,
				0.05217394232749939
			],
			"min":[
				-0.2529250979423523,
				-0.7445651888847351,
				0.05217394232749939
			],
			"type":"VEC3"
		},
		{
			"bufferView":4,
			"componentType":5126,
			"count":4,
			"type":"VEC3"
		},
		{
			"bufferView":5,
			"componentType":5123,
			"count":6,
			"type":"SCALAR"
		},
		{
			"bufferView":6,
			"componentType":5126,
			"count":32,
			"max":[
				-0.24640339612960815,
				-0.7141304016113281,
				0.05217394232749939
			],
			"min":[
				-0.2855337858200073,
				-0.741304337978363,
				0.05217394232749939
			],
			"type":"VEC3"
		},
		{
			"bufferView":7,
			"componentType":5126,
			"count":32,
			"type":"VEC3"
		},
		{
			"bufferView":8,
			"componentType":5123,
			"count":48,
			"type":"SCALAR"
		},
		{
			"bufferView":9,
			"componentType":5126,
			"count":831,
			"max":[
				-0.1654251217842102,
				-0.5934782028198242,
				0.043478287756443024
			],
			"min":[
				-0.21433816850185394,
				-0.64673912525177,
				2.9802322387695312e-08
			],
			"type":"VEC3"
		},
		{
			"bufferView":10,
			"componentType":5126,
			"count":831,
			"type":"VEC3"
		},
		{
			"bufferView":11,
			"componentType":5123,
			"count":2724,
			"type":"SCALAR"
		},
		{
			"bufferView":12,
			"componentType":5126,
			"count":56,
			"max":[
				-0.1703164279460907,
				-0.5999999642372131,
				0.04130437970161438
			],
			"min":[
				-0.20944686233997345,
				-0.6413042545318604,
				0.04130437970161438
			],
			"type":"VEC3"
		},
		{
			"bufferView":13,
			"componentType":5126,
			"count":56,
			"type":"VEC3"
		},
		{
			"bufferView":14,
			"componentType":5123,
			"count":84,
			"type":"SCALAR"
		},
		{
			"bufferView":15,
			"componentType":5126,
			"count":4,
			"max":[
				-0.18118597567081451,
				-0.6326086521148682,
				0.04130437970161438
			],
			"min":[
				-0.19857728481292725,
				-0.64673912525177,
				0.04130437970161438
			],
			"type":"VEC3"
		},
		{
			"bufferView":16,
			"componentType":5126,
			"count":4,
			"type":"VEC3"
		},
		{
			"bufferView":17,
			"componentType":5126,
			"count":481,
			"max":[
				-0.09749031066894531,
				-0.789130449295044,
				0.043478287756443024
			],
			"min":[
				-0.13009902834892273,
				-0.8423912525177002,
				2.9802322387695312e-08
			],
			"type":"VEC3"
		},
		{
			"bufferView":18,
			"componentType":5126,
			"count":481,
			"type":"VEC3"
		},
		{
			"bufferView":19,
			"componentType":5123,
			"count":1392,
			"type":"SCALAR"
		},
		{
			"bufferView":20,
			"componentType":5126,
			"count":38,
			"max":[
				-0.1029251217842102,
				-0.7956521511077881,
				0.04130437225103378
			],
			"min":[
				-0.12466424703598022,
				-0.834782600402832,
				0.04130437225103378
			],
			"type":"VEC3"
		},
		{
			"bufferView":21,
			"componentType":5126,
			"count":38,
			"type":"VEC3"
		},
		{
			"bufferView":22,
			"componentType":5123,
			"count":60,
			"type":"SCALAR"
		},
		{
			"bufferView":23,
			"componentType":5126,
			"count":4,
			"max":[
				-0.10292509198188782,
				-0.8282608389854431,
				0.04130437970161438
			],
			"min":[
				-0.11162078380584717,
				-0.8423912525177002,
				0.04130437970161438
			],
			"type":"VEC3"
		},
		{
			"bufferView":24,
			"componentType":5126,
			"count":4,
			"type":"VEC3"
		},
		{
			"bufferView":25,
			"componentType":5126,
			"count":1258,
			"max":[
				-0.01325121521949768,
				-0.47065216302871704,
				0.05434785038232803
			],
			"min":[
				-0.06216427683830261,
				-0.5489130020141602,
				2.561137080192566e-08
			],
			"type":"VEC3"
		},
		{
			"bufferView":26,
			"componentType":5126,
			"count":1258,
			"type":"VEC3"
		},
		{
			"bufferView":27,
			"componentType":5123,
			"count":4458,
			"type":"SCALAR"
		},
		{
			"bufferView":28,
			"componentType":5126,
			"count":60,
			"max":[
				-0.018142521381378174,
				-0.48586955666542053,
				0.05217394232749939
			],
			"min":[
				-0.05727297067642212,
				-0.541304349899292,
				0.05217394232749939
			],
			"type":"VEC3"
		},
		{
			"bufferView":29,
			"componentType":5126,
			"count":60,
			"type":"VEC3"
		},
		{
			"bufferView":30,
			"componentType":5123,
			"count":90,
			"type":"SCALAR"
		},
		{
			"bufferView":31,
			"componentType":5126,
			"count":4,
			"max":[
				-0.0507512092590332,
				-0.5347825288772583,
				0.05217394232749939
			],
			"min":[
				-0.05727294087409973,
				-0.5489130020141602,
				0.05217394232749939
			],
			"type":"VEC3"
		},
		{
			"bufferView":32,
			"componentType":5126,
			"count":4,
			"type":"VEC3"
		},
		{
			"bufferView":33,
			"componentType":5126,
			"count":492,
			"max":[
				0.13892275094985962,
				-0.9032608270645142,
				0.05434785410761833
			],
			"min":[
				0.09000968933105469,
				-0.9402173757553101,
				2.9802322387695312e-08
			],
			"type":"VEC3"
		},
		{
			"bufferView":34,
			"componentType":5126,
			"count":492,
			"type":"VEC3"
		},
		{
			"bufferView":35,
			"componentType":5123,
			"count":1422,
			"type":"SCALAR"
		},
		{
			"bufferView":36,
			"componentType":5126,
			"count":30,
			"max":[
				0.13403141498565674,
				-0.9097825884819031,
				0.05217394232749939
			],
			"min":[
				0.09490096569061279,
				-0.9326087236404419,
				0.05217394232749939
			],
			"type":"VEC3"
		},
		{
			"bufferView":37,
			"componentType":5126,
			"count":30,
			"type":"VEC3"
		},
		{
			"bufferView":38,
			"componentType":5123,
			"count":48,
			"type":"SCALAR"
		},
		{
			"bufferView":39,
			"componentType":5126,
			"count":4,
			"max":[
				0.12316179275512695,
				-0.9260869026184082,
				0.05217394232749939
			],
			"min":[
				0.1057705283164978,
				-0.9402173757553101,
				0.05217394232749939
			],
			"type":"VEC3"
		},
		{
			"bufferView":40,
			"componentType":5126,
			"count":4,
			"type":"VEC3"
		},
		{
			"bufferView":41,
			"componentType":5126,
			"count":477,
			"max":[
				0.20685744285583496,
				-0.39782607555389404,
				0.06521742045879364
			],
			"min":[
				0.1742488145828247,
				-0.45108696818351746,
				2.9802322387695312e-08
			],
			"type":"VEC3"
		},
		{
			"bufferView":42,
			"componentType":5126,
			"count":477,
			"type":"VEC3"
		},
		{
			"bufferView":43,
			"componentType":5123,
			"count":1386,
			"type":"SCALAR"
		},
		{
			"bufferView":44,
			"componentType":5126,
			"count":36,
			"max":[
				0.20142275094985962,
				-0.40434783697128296,
				0.0630435049533844
			],
			"min":[
				0.17968356609344482,
				-0.44565218687057495,
				0.0630435049533844
			],
			"type":"VEC3"
		},
		{
			"bufferView":45,
			"componentType":5126,
			"count":36,
			"type":"VEC3"
		},
		{
			"bufferView":46,
			"componentType":5123,
			"count":54,
			"type":"SCALAR"
		},
		{
			"bufferView":47,
			"componentType":5126,
			"count":4,
			"max":[
				0.1883792281150818,
				-0.436956524848938,
				0.0630435049533844
			],
			"min":[
				0.17968356609344482,
				-0.45108696818351746,
				0.0630435049533844
			],
			"type":"VEC3"
		},
		{
			"bufferView":48,
			"componentType":5126,
			"count":4,
			"type":"VEC3"
		}
	],
	"bufferViews":[
		{
			"buffer":0,
			"byteLength":6060,
			"byteOffset":0,
			"target":34962
		},
		{
			"buffer":0,
			"byteLength":6060,
			"byteOffset":6060,
			"target":34962
		},
		{
			"buffer":0,
			"byteLength":2952,
			"byteOffset":12120,
			"target":34963
		},
		{
			"buffer":0,
			"byteLength":48,
			"byteOffset":15072,
			"target":34962
		},
		{
			"buffer":0,
			"byteLength":48,
			"byteOffset":15120,
			"target":34962
		},
		{
			"buffer":0,
			"byteLength":12,
			"byteOffset":15168,
			"target":34963
		},
		{
			"buffer":0,
			"byteLength":384,
			"byteOffset":15180,
			"target":34962
		},
		{
			"buffer":0,
			"byteLength":384,
			"byteOffset":15564,
			"target":34962
		},
		{
			"buffer":0,
			"byteLength":96,
			"byteOffset":15948,
			"target":34963
		},
		{
			"buffer":0,
			"byteLength":9972,
			"byteOffset":16044,
			"target":34962
		},
		{
			"buffer":0,
			"byteLength":9972,
			"byteOffset":26016,
			"target":34962
		},
		{
			"buffer":0,
			"byteLength":5448,
			"byteOffset":35988,
			"target":34963
		},
		{
			"buffer":0,
			"byteLength":672,
			"byteOffset":41436,
			"target":34962
		},
		{
			"buffer":0,
			"byteLength":672,
			"byteOffset":42108,
			"target":34962
		},
		{
			"buffer":0,
			"byteLength":168,
			"byteOffset":42780,
			"target":34963
		},
		{
			"buffer":0,
			"byteLength":48,
			"byteOffset":42948,
			"target":34962
		},
		{
			"buffer":0,
			"byteLength":48,
			"byteOffset":42996,
			"target":34962
		},
		{
			"buffer":0,
			"byteLength":5772,
			"byteOffset":43044,
			"target":34962
		},
		{
			"buffer":0,
			"byteLength":5772,
			"byteOffset":48816,
			"target":34962
		},
		{
			"buffer":0,
			"byteLength":2784,
			"byteOffset":54588,
			"target":34963
		},
		{
			"buffer":0,
			"byteLength":456,
			"byteOffset":57372,
			"target":34962
		},
		{
			"buffer":0,
			"byteLength":456,
			"byteOffset":57828,
			"target":34962
		},
		{
			"buffer":0,
			"byteLength":120,
			"byteOffset":58284,
			"target":34963
		},
		{
			"buffer":0,
			"byteLength":48,
			"byteOffset":58404,
			"target":34962
		},
		{
			"buffer":0,
			"byteLength":48,
			"byteOffset":58452,
			"target":34962
		},
		{
			"buffer":0,
			"byteLength":15096,
			"byteOffset":58500,
			"target":34962
		},
		{
			"buffer":0,
			"byteLength":15096,
			"byteOffset":73596,
			"target":34962
		},
		{
			"buffer":0,
			"byteLength":8916,
			"byteOffset":88692,
			"target":34963
		},
		{
			"buffer":0,
			"byteLength":720,
			"byteOffset":97608,
			"target":34962
		},
		{
			"buffer":0,
			"byteLength":720,
			"byteOffset":98328,
			"target":34962
		},
		{
			"buffer":0,
			"byteLength":180,
			"byteOffset":99048,
			"target":34963
		},
		{
			"buffer":0,
			"byteLength":48,
			"byteOffset":99228,
			"target":34962
		},
		{
			"buffer":0,
			"byteLength":48,
			"byteOffset":99276,
			"target":34962
		},
		{
			"buffer":0,
			"byteLength":5904,
			"byteOffset":99324,
			"target":34962
		},
		{
			"buffer":0,
			"byteLength":5904,
			"byteOffset":105228,
			"target":34962
		},
		{
			"buffer":0,
			"byteLength":2844,
			"byteOffset":111132,
			"target":34963
		},
		{
			"buffer":0,
			"byteLength":360,
			"byteOffset":113976,
			"target":34962
		},
		{
			"buffer":0,
			"byteLength":360,
			"byteOffset":114336,
			"target":34962
		},
		{
			"buffer":0,
			"byteLength":96,
			"byteOffset":114696,
			"target":34963
		},
		{
			"buffer":0,
			"byteLength":48,
			"byteOffset":114792,
			"target":34962
		},
		{
			"buffer":0,
			"byteLength":48,
			"byteOffset":114840,
			"target":34962
		},
		{
			"buffer":0,
			"byteLength":5724,
			"byteOffset":114888,
			"target":34962
		},
		{
			"buffer":0,
			"byteLength":5724,
			"byteOffset":120612,
			"target":34962
		},
		{
			"buffer":0,
			"byteLength":2772,
			"byteOffset":126336,
			"target":34963
		},
		{
			"buffer":0,
			"byteLength":432,
			"byteOffset":129108,
			"target":34962
		},
		{
			"buffer":0,
			"byteLength":432,
			"byteOffset":129540,
			"target":34962
		},
		{
			"buffer":0,
			"byteLength":108,
			"byteOffset":129972,
			"target":34963
		},
		{
			"buffer":0,
			"byteLength":48,
			"byteOffset":130080,
			"target":34962
		},
		{
			"buffer":0,
			"byteLength":48,
			"byteOffset":130128,
			"target":34962
		}
	],
	"buffers":[
		{
			"byteLength":130176,
			"uri":"BinaGrup1.bin"
		}
	]
}
