{
	"asset":{
		"generator":"Khronos glTF Blender I/O v4.2.60",
		"version":"2.0"
	},
	"scene":0,
	"scenes":[
		{
			"name":"Scene",
			"nodes":[
				0,
				1,
				2,
				3,
				4,
				5,
				6,
				7,
				8,
				9,
				10,
				11,
				12,
				13,
				14,
				15,
				16,
				17
			]
		}
	],
	"nodes":[
		{
			"mesh":0,
			"name":"Building_019.011"
		},
		{
			"mesh":1,
			"name":"Building_019.012"
		},
		{
			"mesh":2,
			"name":"Building_019.013"
		},
		{
			"mesh":3,
			"name":"Building_021.011"
		},
		{
			"mesh":4,
			"name":"Building_021.012"
		},
		{
			"mesh":5,
			"name":"Building_021.013"
		},
		{
			"mesh":6,
			"name":"Building_029.011"
		},
		{
			"mesh":7,
			"name":"Building_029.012"
		},
		{
			"mesh":8,
			"name":"Building_029.013"
		},
		{
			"mesh":9,
			"name":"Building_039.011"
		},
		{
			"mesh":10,
			"name":"Building_039.012"
		},
		{
			"mesh":11,
			"name":"Building_039.013"
		},
		{
			"mesh":12,
			"name":"Building_056.011"
		},
		{
			"mesh":13,
			"name":"Building_056.012"
		},
		{
			"mesh":14,
			"name":"Building_056.013"
		},
		{
			"mesh":15,
			"name":"Building_062.011"
		},
		{
			"mesh":16,
			"name":"Building_062.012"
		},
		{
			"mesh":17,
			"name":"Building_062.013"
		}
	],
	"materials":[
		{
			"doubleSided":true,
			"name":"BinaGrid",
			"pbrMetallicRoughness":{
				"baseColorFactor":[
					0.2874388098716736,
					0.3371638357639313,
					0.4178852438926697,
					1
				],
				"metallicFactor":0,
				"roughnessFactor":0.5
			}
		},
		{
			"doubleSided":true,
			"name":"PencereGrid",
			"pbrMetallicRoughness":{
				"baseColorFactor":[
					0.1499587893486023,
					0.17464761435985565,
					0.2122308313846588,
					1
				],
				"metallicFactor":0,
				"roughnessFactor":0.699999988079071
			}
		},
		{
			"doubleSided":true,
			"name":"Kap\u0131Grid",
			"pbrMetallicRoughness":{
				"baseColorFactor":[
					0.2874388098716736,
					0.3371638357639313,
					0.4178852438926697,
					1
				],
				"metallicFactor":0,
				"roughnessFactor":0.699999988079071
			}
		}
	],
	"meshes":[
		{
			"name":"Building_019_Mesh.002",
			"primitives":[
				{
					"attributes":{
						"POSITION":0,
						"NORMAL":1
					},
					"indices":2,
					"material":0
				}
			]
		},
		{
			"name":"Building_019_Mesh.012",
			"primitives":[
				{
					"attributes":{
						"POSITION":3,
						"NORMAL":4
					},
					"indices":5,
					"material":1
				}
			]
		},
		{
			"name":"Building_019_Mesh.013",
			"primitives":[
				{
					"attributes":{
						"POSITION":6,
						"NORMAL":7
					},
					"indices":8,
					"material":2
				}
			]
		},
		{
			"name":"Building_021_Mesh.002",
			"primitives":[
				{
					"attributes":{
						"POSITION":9,
						"NORMAL":10
					},
					"indices":11,
					"material":0
				}
			]
		},
		{
			"name":"Building_021_Mesh.012",
			"primitives":[
				{
					"attributes":{
						"POSITION":12,
						"NORMAL":13
					},
					"indices":14,
					"material":1
				}
			]
		},
		{
			"name":"Building_021_Mesh.013",
			"primitives":[
				{
					"attributes":{
						"POSITION":15,
						"NORMAL":16
					},
					"indices":8,
					"material":2
				}
			]
		},
		{
			"name":"Building_029_Mesh.002",
			"primitives":[
				{
					"attributes":{
						"POSITION":17,
						"NORMAL":18
					},
					"indices":19,
					"material":0
				}
			]
		},
		{
			"name":"Building_029_Mesh.012",
			"primitives":[
				{
					"attributes":{
						"POSITION":20,
						"NORMAL":21
					},
					"indices":14,
					"material":1
				}
			]
		},
		{
			"name":"Building_029_Mesh.013",
			"primitives":[
				{
					"attributes":{
						"POSITION":22,
						"NORMAL":23
					},
					"indices":8,
					"material":2
				}
			]
		},
		{
			"name":"Building_039_Mesh.002",
			"primitives":[
				{
					"attributes":{
						"POSITION":24,
						"NORMAL":25
					},
					"indices":26,
					"material":0
				}
			]
		},
		{
			"name":"Building_039_Mesh.012",
			"primitives":[
				{
					"attributes":{
						"POSITION":27,
						"NORMAL":28
					},
					"indices":29,
					"material":1
				}
			]
		},
		{
			"name":"Building_039_Mesh.013",
			"primitives":[
				{
					"attributes":{
						"POSITION":30,
						"NORMAL":31
					},
					"indices":8,
					"material":2
				}
			]
		},
		{
			"name":"Building_056_Mesh.002",
			"primitives":[
				{
					"attributes":{
						"POSITION":32,
						"NORMAL":33
					},
					"indices":34,
					"material":0
				}
			]
		},
		{
			"name":"Building_056_Mesh.012",
			"primitives":[
				{
					"attributes":{
						"POSITION":35,
						"NORMAL":36
					},
					"indices":37,
					"material":1
				}
			]
		},
		{
			"name":"Building_056_Mesh.013",
			"primitives":[
				{
					"attributes":{
						"POSITION":38,
						"NORMAL":39
					},
					"indices":8,
					"material":2
				}
			]
		},
		{
			"name":"Building_062_Mesh.002",
			"primitives":[
				{
					"attributes":{
						"POSITION":40,
						"NORMAL":41
					},
					"indices":42,
					"material":0
				}
			]
		},
		{
			"name":"Building_062_Mesh.012",
			"primitives":[
				{
					"attributes":{
						"POSITION":43,
						"NORMAL":44
					},
					"indices":45,
					"material":1
				}
			]
		},
		{
			"name":"Building_062_Mesh.013",
			"primitives":[
				{
					"attributes":{
						"POSITION":46,
						"NORMAL":47
					},
					"indices":8,
					"material":2
				}
			]
		}
	],
	"accessors":[
		{
			"bufferView":0,
			"componentType":5126,
			"count":512,
			"max":[
				-0.24151206016540527,
				-0.894565224647522,
				0.043478287756443024
			],
			"min":[
				-0.2904250919818878,
				-0.9402173757553101,
				2.9802322387695312e-08
			],
			"type":"VEC3"
		},
		{
			"bufferView":1,
			"componentType":5126,
			"count":512,
			"type":"VEC3"
		},
		{
			"bufferView":2,
			"componentType":5123,
			"count":1434,
			"type":"SCALAR"
		},
		{
			"bufferView":3,
			"componentType":5126,
			"count":30,
			"max":[
				-0.24640339612960815,
				-0.9097825884819031,
				0.04130437225103378
			],
			"min":[
				-0.2855337858200073,
				-0.9326087236404419,
				0.04130437225103378
			],
			"type":"VEC3"
		},
		{
			"bufferView":4,
			"componentType":5126,
			"count":30,
			"type":"VEC3"
		},
		{
			"bufferView":5,
			"componentType":5123,
			"count":48,
			"type":"SCALAR"
		},
		{
			"bufferView":6,
			"componentType":5126,
			"count":4,
			"max":[
				-0.2572729289531708,
				-0.9260869026184082,
				0.04130437970161438
			],
			"min":[
				-0.2746642231941223,
				-0.9402173757553101,
				0.04130437970161438
			],
			"type":"VEC3"
		},
		{
			"bufferView":7,
			"componentType":5126,
			"count":4,
			"type":"VEC3"
		},
		{
			"bufferView":8,
			"componentType":5123,
			"count":6,
			"type":"SCALAR"
		},
		{
			"bufferView":9,
			"componentType":5126,
			"count":497,
			"max":[
				-0.17357729375362396,
				-0.28913038969039917,
				0.043478287756443024
			],
			"min":[
				-0.206185981631279,
				-0.3532608151435852,
				2.9802322387695312e-08
			],
			"type":"VEC3"
		},
		{
			"bufferView":10,
			"componentType":5126,
			"count":497,
			"type":"VEC3"
		},
		{
			"bufferView":11,
			"componentType":5123,
			"count":1398,
			"type":"SCALAR"
		},
		{
			"bufferView":12,
			"componentType":5126,
			"count":36,
			"max":[
				-0.17901206016540527,
				-0.3065217137336731,
				0.04130437225103378
			],
			"min":[
				-0.2007511854171753,
				-0.3500000238418579,
				0.04130437225103378
			],
			"type":"VEC3"
		},
		{
			"bufferView":13,
			"componentType":5126,
			"count":36,
			"type":"VEC3"
		},
		{
			"bufferView":14,
			"componentType":5123,
			"count":54,
			"type":"SCALAR"
		},
		{
			"bufferView":15,
			"componentType":5126,
			"count":4,
			"max":[
				-0.19205555319786072,
				-0.3391304016113281,
				0.04130437970161438
			],
			"min":[
				-0.2007511854171753,
				-0.3532608151435852,
				0.04130437970161438
			],
			"type":"VEC3"
		},
		{
			"bufferView":16,
			"componentType":5126,
			"count":4,
			"type":"VEC3"
		},
		{
			"bufferView":17,
			"componentType":5126,
			"count":497,
			"max":[
				-0.09749031066894531,
				-0.38695651292800903,
				0.043478287756443024
			],
			"min":[
				-0.13009902834892273,
				-0.45108696818351746,
				2.9802322387695312e-08
			],
			"type":"VEC3"
		},
		{
			"bufferView":18,
			"componentType":5126,
			"count":497,
			"type":"VEC3"
		},
		{
			"bufferView":19,
			"componentType":5123,
			"count":1398,
			"type":"SCALAR"
		},
		{
			"bufferView":20,
			"componentType":5126,
			"count":36,
			"max":[
				-0.1029251217842102,
				-0.40434783697128296,
				0.04130437225103378
			],
			"min":[
				-0.12466427683830261,
				-0.4434782564640045,
				0.04130437225103378
			],
			"type":"VEC3"
		},
		{
			"bufferView":21,
			"componentType":5126,
			"count":36,
			"type":"VEC3"
		},
		{
			"bufferView":22,
			"componentType":5126,
			"count":4,
			"max":[
				-0.11596861481666565,
				-0.436956524848938,
				0.04130437970161438
			],
			"min":[
				-0.12466427683830261,
				-0.45108696818351746,
				0.04130437970161438
			],
			"type":"VEC3"
		},
		{
			"bufferView":23,
			"componentType":5126,
			"count":4,
			"type":"VEC3"
		},
		{
			"bufferView":24,
			"componentType":5126,
			"count":507,
			"max":[
				-0.01325121521949768,
				-0.6967390775680542,
				0.05434785410761833
			],
			"min":[
				-0.062164247035980225,
				-0.7445651888847351,
				2.9802322387695312e-08
			],
			"type":"VEC3"
		},
		{
			"bufferView":25,
			"componentType":5126,
			"count":507,
			"type":"VEC3"
		},
		{
			"bufferView":26,
			"componentType":5123,
			"count":1488,
			"type":"SCALAR"
		},
		{
			"bufferView":27,
			"componentType":5126,
			"count":32,
			"max":[
				-0.018142521381378174,
				-0.7141304016113281,
				0.05217394232749939
			],
			"min":[
				-0.05727297067642212,
				-0.7369564771652222,
				0.05217394232749939
			],
			"type":"VEC3"
		},
		{
			"bufferView":28,
			"componentType":5126,
			"count":32,
			"type":"VEC3"
		},
		{
			"bufferView":29,
			"componentType":5123,
			"count":48,
			"type":"SCALAR"
		},
		{
			"bufferView":30,
			"componentType":5126,
			"count":4,
			"max":[
				-0.01814255118370056,
				-0.730434775352478,
				0.05217394232749939
			],
			"min":[
				-0.02466428279876709,
				-0.7445651888847351,
				0.05217394232749939
			],
			"type":"VEC3"
		},
		{
			"bufferView":31,
			"componentType":5126,
			"count":4,
			"type":"VEC3"
		},
		{
			"bufferView":32,
			"componentType":5126,
			"count":857,
			"max":[
				0.21500957012176514,
				-0.28913044929504395,
				0.04347829148173332
			],
			"min":[
				0.16609656810760498,
				-0.3532608151435852,
				3.3993273973464966e-08
			],
			"type":"VEC3"
		},
		{
			"bufferView":33,
			"componentType":5126,
			"count":857,
			"type":"VEC3"
		},
		{
			"bufferView":34,
			"componentType":5123,
			"count":2736,
			"type":"SCALAR"
		},
		{
			"bufferView":35,
			"componentType":5126,
			"count":56,
			"max":[
				0.2101183533668518,
				-0.3065217137336731,
				0.04130437970161438
			],
			"min":[
				0.17098790407180786,
				-0.34565216302871704,
				0.04130437970161438
			],
			"type":"VEC3"
		},
		{
			"bufferView":36,
			"componentType":5126,
			"count":56,
			"type":"VEC3"
		},
		{
			"bufferView":37,
			"componentType":5123,
			"count":84,
			"type":"SCALAR"
		},
		{
			"bufferView":38,
			"componentType":5126,
			"count":4,
			"max":[
				0.19924873113632202,
				-0.3391304016113281,
				0.04130437970161438
			],
			"min":[
				0.1818574070930481,
				-0.3532608151435852,
				0.04130437970161438
			],
			"type":"VEC3"
		},
		{
			"bufferView":39,
			"componentType":5126,
			"count":4,
			"type":"VEC3"
		},
		{
			"bufferView":40,
			"componentType":5126,
			"count":481,
			"max":[
				0.20685744285583496,
				-0.886956512928009,
				0.06521742045879364
			],
			"min":[
				0.1742488145828247,
				-0.9402173757553101,
				2.9802322387695312e-08
			],
			"type":"VEC3"
		},
		{
			"bufferView":41,
			"componentType":5126,
			"count":481,
			"type":"VEC3"
		},
		{
			"bufferView":42,
			"componentType":5123,
			"count":1389,
			"type":"SCALAR"
		},
		{
			"bufferView":43,
			"componentType":5126,
			"count":39,
			"max":[
				0.20142263174057007,
				-0.893478274345398,
				0.0630435049533844
			],
			"min":[
				0.17968350648880005,
				-0.9347826242446899,
				0.0630435049533844
			],
			"type":"VEC3"
		},
		{
			"bufferView":44,
			"componentType":5126,
			"count":39,
			"type":"VEC3"
		},
		{
			"bufferView":45,
			"componentType":5123,
			"count":63,
			"type":"SCALAR"
		},
		{
			"bufferView":46,
			"componentType":5126,
			"count":4,
			"max":[
				0.20142269134521484,
				-0.9260869026184082,
				0.0630435049533844
			],
			"min":[
				0.19272702932357788,
				-0.9402173757553101,
				0.0630435049533844
			],
			"type":"VEC3"
		},
		{
			"bufferView":47,
			"componentType":5126,
			"count":4,
			"type":"VEC3"
		}
	],
	"bufferViews":[
		{
			"buffer":0,
			"byteLength":6144,
			"byteOffset":0,
			"target":34962
		},
		{
			"buffer":0,
			"byteLength":6144,
			"byteOffset":6144,
			"target":34962
		},
		{
			"buffer":0,
			"byteLength":2868,
			"byteOffset":12288,
			"target":34963
		},
		{
			"buffer":0,
			"byteLength":360,
			"byteOffset":15156,
			"target":34962
		},
		{
			"buffer":0,
			"byteLength":360,
			"byteOffset":15516,
			"target":34962
		},
		{
			"buffer":0,
			"byteLength":96,
			"byteOffset":15876,
			"target":34963
		},
		{
			"buffer":0,
			"byteLength":48,
			"byteOffset":15972,
			"target":34962
		},
		{
			"buffer":0,
			"byteLength":48,
			"byteOffset":16020,
			"target":34962
		},
		{
			"buffer":0,
			"byteLength":12,
			"byteOffset":16068,
			"target":34963
		},
		{
			"buffer":0,
			"byteLength":5964,
			"byteOffset":16080,
			"target":34962
		},
		{
			"buffer":0,
			"byteLength":5964,
			"byteOffset":22044,
			"target":34962
		},
		{
			"buffer":0,
			"byteLength":2796,
			"byteOffset":28008,
			"target":34963
		},
		{
			"buffer":0,
			"byteLength":432,
			"byteOffset":30804,
			"target":34962
		},
		{
			"buffer":0,
			"byteLength":432,
			"byteOffset":31236,
			"target":34962
		},
		{
			"buffer":0,
			"byteLength":108,
			"byteOffset":31668,
			"target":34963
		},
		{
			"buffer":0,
			"byteLength":48,
			"byteOffset":31776,
			"target":34962
		},
		{
			"buffer":0,
			"byteLength":48,
			"byteOffset":31824,
			"target":34962
		},
		{
			"buffer":0,
			"byteLength":5964,
			"byteOffset":31872,
			"target":34962
		},
		{
			"buffer":0,
			"byteLength":5964,
			"byteOffset":37836,
			"target":34962
		},
		{
			"buffer":0,
			"byteLength":2796,
			"byteOffset":43800,
			"target":34963
		},
		{
			"buffer":0,
			"byteLength":432,
			"byteOffset":46596,
			"target":34962
		},
		{
			"buffer":0,
			"byteLength":432,
			"byteOffset":47028,
			"target":34962
		},
		{
			"buffer":0,
			"byteLength":48,
			"byteOffset":47460,
			"target":34962
		},
		{
			"buffer":0,
			"byteLength":48,
			"byteOffset":47508,
			"target":34962
		},
		{
			"buffer":0,
			"byteLength":6084,
			"byteOffset":47556,
			"target":34962
		},
		{
			"buffer":0,
			"byteLength":6084,
			"byteOffset":53640,
			"target":34962
		},
		{
			"buffer":0,
			"byteLength":2976,
			"byteOffset":59724,
			"target":34963
		},
		{
			"buffer":0,
			"byteLength":384,
			"byteOffset":62700,
			"target":34962
		},
		{
			"buffer":0,
			"byteLength":384,
			"byteOffset":63084,
			"target":34962
		},
		{
			"buffer":0,
			"byteLength":96,
			"byteOffset":63468,
			"target":34963
		},
		{
			"buffer":0,
			"byteLength":48,
			"byteOffset":63564,
			"target":34962
		},
		{
			"buffer":0,
			"byteLength":48,
			"byteOffset":63612,
			"target":34962
		},
		{
			"buffer":0,
			"byteLength":10284,
			"byteOffset":63660,
			"target":34962
		},
		{
			"buffer":0,
			"byteLength":10284,
			"byteOffset":73944,
			"target":34962
		},
		{
			"buffer":0,
			"byteLength":5472,
			"byteOffset":84228,
			"target":34963
		},
		{
			"buffer":0,
			"byteLength":672,
			"byteOffset":89700,
			"target":34962
		},
		{
			"buffer":0,
			"byteLength":672,
			"byteOffset":90372,
			"target":34962
		},
		{
			"buffer":0,
			"byteLength":168,
			"byteOffset":91044,
			"target":34963
		},
		{
			"buffer":0,
			"byteLength":48,
			"byteOffset":91212,
			"target":34962
		},
		{
			"buffer":0,
			"byteLength":48,
			"byteOffset":91260,
			"target":34962
		},
		{
			"buffer":0,
			"byteLength":5772,
			"byteOffset":91308,
			"target":34962
		},
		{
			"buffer":0,
			"byteLength":5772,
			"byteOffset":97080,
			"target":34962
		},
		{
			"buffer":0,
			"byteLength":2778,
			"byteOffset":102852,
			"target":34963
		},
		{
			"buffer":0,
			"byteLength":468,
			"byteOffset":105632,
			"target":34962
		},
		{
			"buffer":0,
			"byteLength":468,
			"byteOffset":106100,
			"target":34962
		},
		{
			"buffer":0,
			"byteLength":126,
			"byteOffset":106568,
			"target":34963
		},
		{
			"buffer":0,
			"byteLength":48,
			"byteOffset":106696,
			"target":34962
		},
		{
			"buffer":0,
			"byteLength":48,
			"byteOffset":106744,
			"target":34962
		}
	],
	"buffers":[
		{
			"byteLength":106792,
			"uri":"BinaGrup4.bin"
		}
	]
}
