{
	"asset":{
		"generator":"Khronos glTF Blender I/O v4.2.60",
		"version":"2.0"
	},
	"scene":0,
	"scenes":[
		{
			"name":"Scene",
			"nodes":[
				0,
				1
			]
		}
	],
	"nodes":[
		{
			"mesh":0,
			"name":"Text.009",
			"rotation":[
				0.7071068286895752,
				0,
				0,
				0.7071068286895752
			],
			"scale":[
				5.247999668121338,
				2.17391300201416,
				5.248000621795654
			],
			"translation":[
				0,
				0,
				0.002173925982788205
			]
		},
		{
			"mesh":1,
			"name":"Text.018",
			"rotation":[
				0.7071068286895752,
				0,
				0,
				0.7071068286895752
			],
			"scale":[
				5.247999668121338,
				2.17391300201416,
				5.248000621795654
			],
			"translation":[
				0,
				0,
				0.002173926215618849
			]
		}
	],
	"materials":[
		{
			"doubleSided":true,
			"name":"Material.001",
			"pbrMetallicRoughness":{
				"metallicFactor":0,
				"roughnessFactor":0.5
			}
		}
	],
	"meshes":[
		{
			"name":"Text.002",
			"primitives":[
				{
					"attributes":{
						"POSITION":0,
						"NORMAL":1,
						"TEXCOORD_0":2
					},
					"indices":3,
					"material":0
				}
			]
		},
		{
			"name":"Text.005",
			"primitives":[
				{
					"attributes":{
						"POSITION":4,
						"NORMAL":5,
						"TEXCOORD_0":6
					},
					"indices":7,
					"material":0
				}
			]
		}
	],
	"accessors":[
		{
			"bufferView":0,
			"componentType":5126,
			"count":805,
			"max":[
				-0.06072557345032692,
				0.0010000000474974513,
				0.043779343366622925
			],
			"min":[
				-0.07171392440795898,
				-0.0010000000474974513,
				0.03678504750132561
			],
			"type":"VEC3"
		},
		{
			"bufferView":1,
			"componentType":5126,
			"count":805,
			"type":"VEC3"
		},
		{
			"bufferView":2,
			"componentType":5126,
			"count":805,
			"type":"VEC2"
		},
		{
			"bufferView":3,
			"componentType":5123,
			"count":2376,
			"type":"SCALAR"
		},
		{
			"bufferView":4,
			"componentType":5126,
			"count":2124,
			"max":[
				0.07276864349842072,
				0.0010000000474974513,
				0.04376058652997017
			],
			"min":[
				0.06168653070926666,
				-0.0010000000474974513,
				0.036738164722919464
			],
			"type":"VEC3"
		},
		{
			"bufferView":5,
			"componentType":5126,
			"count":2124,
			"type":"VEC3"
		},
		{
			"bufferView":6,
			"componentType":5126,
			"count":2124,
			"type":"VEC2"
		},
		{
			"bufferView":7,
			"componentType":5123,
			"count":6348,
			"type":"SCALAR"
		}
	],
	"bufferViews":[
		{
			"buffer":0,
			"byteLength":9660,
			"byteOffset":0,
			"target":34962
		},
		{
			"buffer":0,
			"byteLength":9660,
			"byteOffset":9660,
			"target":34962
		},
		{
			"buffer":0,
			"byteLength":6440,
			"byteOffset":19320,
			"target":34962
		},
		{
			"buffer":0,
			"byteLength":4752,
			"byteOffset":25760,
			"target":34963
		},
		{
			"buffer":0,
			"byteLength":25488,
			"byteOffset":30512,
			"target":34962
		},
		{
			"buffer":0,
			"byteLength":25488,
			"byteOffset":56000,
			"target":34962
		},
		{
			"buffer":0,
			"byteLength":16992,
			"byteOffset":81488,
			"target":34962
		},
		{
			"buffer":0,
			"byteLength":12696,
			"byteOffset":98480,
			"target":34963
		}
	],
	"buffers":[
		{
			"byteLength":111176,
			"uri":"sayi1.bin"
		}
	]
}
