{
	"asset":{
		"generator":"Khronos glTF Blender I/O v4.2.60",
		"version":"2.0"
	},
	"scene":0,
	"scenes":[
		{
			"name":"Scene",
			"nodes":[
				0,
				1
			]
		}
	],
	"nodes":[
		{
			"mesh":0,
			"name":"Text.032",
			"rotation":[
				0.7071068286895752,
				0,
				0,
				0.7071068286895752
			],
			"scale":[
				5.247999668121338,
				2.17391300201416,
				5.248000621795654
			],
			"translation":[
				0,
				0,
				0.002173925982788205
			]
		},
		{
			"mesh":1,
			"name":"Text.033",
			"rotation":[
				0.7071068286895752,
				0,
				0,
				0.7071068286895752
			],
			"scale":[
				5.247999668121338,
				2.17391300201416,
				5.248000621795654
			],
			"translation":[
				0,
				0,
				0.002173926215618849
			]
		}
	],
	"materials":[
		{
			"doubleSided":true,
			"name":"Material.001",
			"pbrMetallicRoughness":{
				"metallicFactor":0,
				"roughnessFactor":0.5
			}
		}
	],
	"meshes":[
		{
			"name":"Text.031",
			"primitives":[
				{
					"attributes":{
						"POSITION":0,
						"NORMAL":1,
						"TEXCOORD_0":2
					},
					"indices":3,
					"material":0
				}
			]
		},
		{
			"name":"Text.032",
			"primitives":[
				{
					"attributes":{
						"POSITION":4,
						"NORMAL":5,
						"TEXCOORD_0":6
					},
					"indices":7,
					"material":0
				}
			]
		}
	],
	"accessors":[
		{
			"bufferView":0,
			"componentType":5126,
			"count":898,
			"max":[
				-0.06106777861714363,
				0.0010000000474974513,
				0.043779343366622925
			],
			"min":[
				-0.07151234894990921,
				-0.0010000000474974513,
				0.036794424057006836
			],
			"type":"VEC3"
		},
		{
			"bufferView":1,
			"componentType":5126,
			"count":898,
			"type":"VEC3"
		},
		{
			"bufferView":2,
			"componentType":5126,
			"count":898,
			"type":"VEC2"
		},
		{
			"bufferView":3,
			"componentType":5123,
			"count":2664,
			"type":"SCALAR"
		},
		{
			"bufferView":4,
			"componentType":5126,
			"count":90,
			"max":[
				0.07171856611967087,
				0.0010000000474974513,
				0.04372308403253555
			],
			"min":[
				0.06246471777558327,
				-0.0010000000474974513,
				0.036878801882267
			],
			"type":"VEC3"
		},
		{
			"bufferView":5,
			"componentType":5126,
			"count":90,
			"type":"VEC3"
		},
		{
			"bufferView":6,
			"componentType":5126,
			"count":90,
			"type":"VEC2"
		},
		{
			"bufferView":7,
			"componentType":5123,
			"count":228,
			"type":"SCALAR"
		}
	],
	"bufferViews":[
		{
			"buffer":0,
			"byteLength":10776,
			"byteOffset":0,
			"target":34962
		},
		{
			"buffer":0,
			"byteLength":10776,
			"byteOffset":10776,
			"target":34962
		},
		{
			"buffer":0,
			"byteLength":7184,
			"byteOffset":21552,
			"target":34962
		},
		{
			"buffer":0,
			"byteLength":5328,
			"byteOffset":28736,
			"target":34963
		},
		{
			"buffer":0,
			"byteLength":1080,
			"byteOffset":34064,
			"target":34962
		},
		{
			"buffer":0,
			"byteLength":1080,
			"byteOffset":35144,
			"target":34962
		},
		{
			"buffer":0,
			"byteLength":720,
			"byteOffset":36224,
			"target":34962
		},
		{
			"buffer":0,
			"byteLength":456,
			"byteOffset":36944,
			"target":34963
		}
	],
	"buffers":[
		{
			"byteLength":37400,
			"uri":"sayi9.bin"
		}
	]
}
