{
	"asset":{
		"generator":"Khronos glTF Blender I/O v4.2.60",
		"version":"2.0"
	},
	"scene":0,
	"scenes":[
		{
			"name":"Scene",
			"nodes":[
				0,
				1
			]
		}
	],
	"nodes":[
		{
			"mesh":0,
			"name":"Text.017",
			"rotation":[
				0.7071068286895752,
				0,
				0,
				0.7071068286895752
			],
			"scale":[
				5.247999668121338,
				2.17391300201416,
				5.248000621795654
			],
			"translation":[
				0,
				0,
				0.002173925982788205
			]
		},
		{
			"mesh":1,
			"name":"Text.019",
			"rotation":[
				0.7071068286895752,
				0,
				0,
				0.7071068286895752
			],
			"scale":[
				5.247999668121338,
				2.17391300201416,
				5.248000621795654
			],
			"translation":[
				0,
				0,
				0.002173926215618849
			]
		}
	],
	"materials":[
		{
			"doubleSided":true,
			"name":"Material.001",
			"pbrMetallicRoughness":{
				"metallicFactor":0,
				"roughnessFactor":0.5
			}
		}
	],
	"meshes":[
		{
			"name":"Text.017",
			"primitives":[
				{
					"attributes":{
						"POSITION":0,
						"NORMAL":1,
						"TEXCOORD_0":2
					},
					"indices":3,
					"material":0
				}
			]
		},
		{
			"name":"Text.018",
			"primitives":[
				{
					"attributes":{
						"POSITION":4,
						"NORMAL":5,
						"TEXCOORD_0":6
					},
					"indices":7,
					"material":0
				}
			]
		}
	],
	"accessors":[
		{
			"bufferView":0,
			"componentType":5126,
			"count":2142,
			"max":[
				-0.060739628970623016,
				0.0010000000474974513,
				0.0438356027007103
			],
			"min":[
				-0.07170923799276352,
				-0.0010000000474974513,
				0.03677567467093468
			],
			"type":"VEC3"
		},
		{
			"bufferView":1,
			"componentType":5126,
			"count":2142,
			"type":"VEC3"
		},
		{
			"bufferView":2,
			"componentType":5126,
			"count":2142,
			"type":"VEC2"
		},
		{
			"bufferView":3,
			"componentType":5123,
			"count":6396,
			"type":"SCALAR"
		},
		{
			"bufferView":4,
			"componentType":5126,
			"count":964,
			"max":[
				0.07300304621458054,
				0.0010000000474974513,
				0.04372308403253555
			],
			"min":[
				0.06171466037631035,
				-0.0010000000474974513,
				0.03686942532658577
			],
			"type":"VEC3"
		},
		{
			"bufferView":5,
			"componentType":5126,
			"count":964,
			"type":"VEC3"
		},
		{
			"bufferView":6,
			"componentType":5126,
			"count":964,
			"type":"VEC2"
		},
		{
			"bufferView":7,
			"componentType":5123,
			"count":2832,
			"type":"SCALAR"
		}
	],
	"bufferViews":[
		{
			"buffer":0,
			"byteLength":25704,
			"byteOffset":0,
			"target":34962
		},
		{
			"buffer":0,
			"byteLength":25704,
			"byteOffset":25704,
			"target":34962
		},
		{
			"buffer":0,
			"byteLength":17136,
			"byteOffset":51408,
			"target":34962
		},
		{
			"buffer":0,
			"byteLength":12792,
			"byteOffset":68544,
			"target":34963
		},
		{
			"buffer":0,
			"byteLength":11568,
			"byteOffset":81336,
			"target":34962
		},
		{
			"buffer":0,
			"byteLength":11568,
			"byteOffset":92904,
			"target":34962
		},
		{
			"buffer":0,
			"byteLength":7712,
			"byteOffset":104472,
			"target":34962
		},
		{
			"buffer":0,
			"byteLength":5664,
			"byteOffset":112184,
			"target":34963
		}
	],
	"buffers":[
		{
			"byteLength":117848,
			"uri":"sayi2.bin"
		}
	]
}
