{
	"asset":{
		"generator":"Khronos glTF Blender I/O v4.2.60",
		"version":"2.0"
	},
	"scene":0,
	"scenes":[
		{
			"name":"Scene",
			"nodes":[
				0,
				1
			]
		}
	],
	"nodes":[
		{
			"mesh":0,
			"name":"Text.024",
			"rotation":[
				0.7071068286895752,
				0,
				0,
				0.7071068286895752
			],
			"scale":[
				5.247999668121338,
				2.17391300201416,
				5.248000621795654
			],
			"translation":[
				0,
				0,
				0.002173925982788205
			]
		},
		{
			"mesh":1,
			"name":"Text.025",
			"rotation":[
				0.7071068286895752,
				0,
				0,
				0.7071068286895752
			],
			"scale":[
				5.247999668121338,
				2.17391300201416,
				5.248000621795654
			],
			"translation":[
				0,
				0,
				0.002173926215618849
			]
		}
	],
	"materials":[
		{
			"doubleSided":true,
			"name":"Material.001",
			"pbrMetallicRoughness":{
				"metallicFactor":0,
				"roughnessFactor":0.5
			}
		}
	],
	"meshes":[
		{
			"name":"Text.023",
			"primitives":[
				{
					"attributes":{
						"POSITION":0,
						"NORMAL":1,
						"TEXCOORD_0":2
					},
					"indices":3,
					"material":0
				}
			]
		},
		{
			"name":"Text.024",
			"primitives":[
				{
					"attributes":{
						"POSITION":4,
						"NORMAL":5,
						"TEXCOORD_0":6
					},
					"indices":7,
					"material":0
				}
			]
		}
	],
	"accessors":[
		{
			"bufferView":0,
			"componentType":5126,
			"count":1752,
			"max":[
				-0.06050524115562439,
				0.0010000000474974513,
				0.04391060397028923
			],
			"min":[
				-0.0719623789191246,
				-0.0010000000474974513,
				0.036794424057006836
			],
			"type":"VEC3"
		},
		{
			"bufferView":1,
			"componentType":5126,
			"count":1752,
			"type":"VEC3"
		},
		{
			"bufferView":2,
			"componentType":5126,
			"count":1752,
			"type":"VEC2"
		},
		{
			"bufferView":3,
			"componentType":5123,
			"count":5220,
			"type":"SCALAR"
		},
		{
			"bufferView":4,
			"componentType":5126,
			"count":2530,
			"max":[
				0.07248268276453018,
				0.0010000000474974513,
				0.043779339641332626
			],
			"min":[
				0.06171935051679611,
				-0.0010000000474974513,
				0.03671941161155701
			],
			"type":"VEC3"
		},
		{
			"bufferView":5,
			"componentType":5126,
			"count":2530,
			"type":"VEC3"
		},
		{
			"bufferView":6,
			"componentType":5126,
			"count":2530,
			"type":"VEC2"
		},
		{
			"bufferView":7,
			"componentType":5123,
			"count":7560,
			"type":"SCALAR"
		}
	],
	"bufferViews":[
		{
			"buffer":0,
			"byteLength":21024,
			"byteOffset":0,
			"target":34962
		},
		{
			"buffer":0,
			"byteLength":21024,
			"byteOffset":21024,
			"target":34962
		},
		{
			"buffer":0,
			"byteLength":14016,
			"byteOffset":42048,
			"target":34962
		},
		{
			"buffer":0,
			"byteLength":10440,
			"byteOffset":56064,
			"target":34963
		},
		{
			"buffer":0,
			"byteLength":30360,
			"byteOffset":66504,
			"target":34962
		},
		{
			"buffer":0,
			"byteLength":30360,
			"byteOffset":96864,
			"target":34962
		},
		{
			"buffer":0,
			"byteLength":20240,
			"byteOffset":127224,
			"target":34962
		},
		{
			"buffer":0,
			"byteLength":15120,
			"byteOffset":147464,
			"target":34963
		}
	],
	"buffers":[
		{
			"byteLength":162584,
			"uri":"sayi5.bin"
		}
	]
}
