{
	"asset":{
		"generator":"Khronos glTF Blender I/O v4.2.60",
		"version":"2.0"
	},
	"scene":0,
	"scenes":[
		{
			"name":"Scene",
			"nodes":[
				0,
				1
			]
		}
	],
	"nodes":[
		{
			"mesh":0,
			"name":"Text.026",
			"rotation":[
				0.7071068286895752,
				0,
				0,
				0.7071068286895752
			],
			"scale":[
				5.247999668121338,
				2.17391300201416,
				5.248000621795654
			],
			"translation":[
				0,
				0,
				0.002173925982788205
			]
		},
		{
			"mesh":1,
			"name":"Text.027",
			"rotation":[
				0.7071068286895752,
				0,
				0,
				0.7071068286895752
			],
			"scale":[
				5.247999668121338,
				2.17391300201416,
				5.248000621795654
			],
			"translation":[
				0,
				0,
				0.002173926215618849
			]
		}
	],
	"materials":[
		{
			"doubleSided":true,
			"name":"Material.001",
			"pbrMetallicRoughness":{
				"metallicFactor":0,
				"roughnessFactor":0.5
			}
		}
	],
	"meshes":[
		{
			"name":"Text.025",
			"primitives":[
				{
					"attributes":{
						"POSITION":0,
						"NORMAL":1,
						"TEXCOORD_0":2
					},
					"indices":3,
					"material":0
				}
			]
		},
		{
			"name":"Text.026",
			"primitives":[
				{
					"attributes":{
						"POSITION":4,
						"NORMAL":5,
						"TEXCOORD_0":6
					},
					"indices":7,
					"material":0
				}
			]
		}
	],
	"accessors":[
		{
			"bufferView":0,
			"componentType":5126,
			"count":960,
			"max":[
				-0.060355231165885925,
				0.0010000000474974513,
				0.043779343366622925
			],
			"min":[
				-0.07164360582828522,
				-0.0010000000474974513,
				0.03692568838596344
			],
			"type":"VEC3"
		},
		{
			"bufferView":1,
			"componentType":5126,
			"count":960,
			"type":"VEC3"
		},
		{
			"bufferView":2,
			"componentType":5126,
			"count":960,
			"type":"VEC2"
		},
		{
			"bufferView":3,
			"componentType":5123,
			"count":2832,
			"type":"SCALAR"
		},
		{
			"bufferView":4,
			"componentType":5126,
			"count":2142,
			"max":[
				0.07261863350868225,
				0.0010000000474974513,
				0.043779339641332626
			],
			"min":[
				0.061649031937122345,
				-0.0010000000474974513,
				0.03671941161155701
			],
			"type":"VEC3"
		},
		{
			"bufferView":5,
			"componentType":5126,
			"count":2142,
			"type":"VEC3"
		},
		{
			"bufferView":6,
			"componentType":5126,
			"count":2142,
			"type":"VEC2"
		},
		{
			"bufferView":7,
			"componentType":5123,
			"count":6396,
			"type":"SCALAR"
		}
	],
	"bufferViews":[
		{
			"buffer":0,
			"byteLength":11520,
			"byteOffset":0,
			"target":34962
		},
		{
			"buffer":0,
			"byteLength":11520,
			"byteOffset":11520,
			"target":34962
		},
		{
			"buffer":0,
			"byteLength":7680,
			"byteOffset":23040,
			"target":34962
		},
		{
			"buffer":0,
			"byteLength":5664,
			"byteOffset":30720,
			"target":34963
		},
		{
			"buffer":0,
			"byteLength":25704,
			"byteOffset":36384,
			"target":34962
		},
		{
			"buffer":0,
			"byteLength":25704,
			"byteOffset":62088,
			"target":34962
		},
		{
			"buffer":0,
			"byteLength":17136,
			"byteOffset":87792,
			"target":34962
		},
		{
			"buffer":0,
			"byteLength":12792,
			"byteOffset":104928,
			"target":34963
		}
	],
	"buffers":[
		{
			"byteLength":117720,
			"uri":"sayi6.bin"
		}
	]
}
