{
	"asset":{
		"generator":"Khronos glTF Blender I/O v4.2.60",
		"version":"2.0"
	},
	"scene":0,
	"scenes":[
		{
			"name":"Scene",
			"nodes":[
				0,
				1
			]
		}
	],
	"nodes":[
		{
			"mesh":0,
			"name":"Text.032",
			"rotation":[
				0.7071068286895752,
				0,
				0,
				0.7071068286895752
			],
			"scale":[
				5.247999668121338,
				2.17391300201416,
				5.248000621795654
			],
			"translation":[
				0,
				0,
				0.002173925982788205
			]
		},
		{
			"mesh":1,
			"name":"Text.033",
			"rotation":[
				0.7071068286895752,
				0,
				0,
				0.7071068286895752
			],
			"scale":[
				5.247999668121338,
				2.17391300201416,
				5.248000621795654
			],
			"translation":[
				0,
				0,
				0.002173926215618849
			]
		}
	],
	"materials":[
		{
			"doubleSided":true,
			"name":"Material.001",
			"pbrMetallicRoughness":{
				"metallicFactor":0,
				"roughnessFactor":0.5
			}
		}
	],
	"meshes":[
		{
			"name":"Text.031",
			"primitives":[
				{
					"attributes":{
						"POSITION":0,
						"NORMAL":1,
						"TEXCOORD_0":2
					},
					"indices":3,
					"material":0
				}
			]
		},
		{
			"name":"Text.032",
			"primitives":[
				{
					"attributes":{
						"POSITION":4,
						"NORMAL":5,
						"TEXCOORD_0":6
					},
					"indices":7,
					"material":0
				}
			]
		}
	],
	"accessors":[
		{
			"bufferView":0,
			"componentType":5126,
			"count":2560,
			"max":[
				-0.06077244505286217,
				0.0010000000474974513,
				0.04381684586405754
			],
			"min":[
				-0.07149827480316162,
				-0.0010000000474974513,
				0.03677567467093468
			],
			"type":"VEC3"
		},
		{
			"bufferView":1,
			"componentType":5126,
			"count":2560,
			"type":"VEC3"
		},
		{
			"bufferView":2,
			"componentType":5126,
			"count":2560,
			"type":"VEC2"
		},
		{
			"bufferView":3,
			"componentType":5123,
			"count":7656,
			"type":"SCALAR"
		},
		{
			"bufferView":4,
			"componentType":5126,
			"count":926,
			"max":[
				0.07149823755025864,
				0.0010000000474974513,
				0.04372308403253555
			],
			"min":[
				0.06259129196405411,
				-0.0010000000474974513,
				0.03686942532658577
			],
			"type":"VEC3"
		},
		{
			"bufferView":5,
			"componentType":5126,
			"count":926,
			"type":"VEC3"
		},
		{
			"bufferView":6,
			"componentType":5126,
			"count":926,
			"type":"VEC2"
		},
		{
			"bufferView":7,
			"componentType":5123,
			"count":2724,
			"type":"SCALAR"
		}
	],
	"bufferViews":[
		{
			"buffer":0,
			"byteLength":30720,
			"byteOffset":0,
			"target":34962
		},
		{
			"buffer":0,
			"byteLength":30720,
			"byteOffset":30720,
			"target":34962
		},
		{
			"buffer":0,
			"byteLength":20480,
			"byteOffset":61440,
			"target":34962
		},
		{
			"buffer":0,
			"byteLength":15312,
			"byteOffset":81920,
			"target":34963
		},
		{
			"buffer":0,
			"byteLength":11112,
			"byteOffset":97232,
			"target":34962
		},
		{
			"buffer":0,
			"byteLength":11112,
			"byteOffset":108344,
			"target":34962
		},
		{
			"buffer":0,
			"byteLength":7408,
			"byteOffset":119456,
			"target":34962
		},
		{
			"buffer":0,
			"byteLength":5448,
			"byteOffset":126864,
			"target":34963
		}
	],
	"buffers":[
		{
			"byteLength":132312,
			"uri":"sayi9.bin"
		}
	]
}
