{
	"asset":{
		"generator":"Khronos glTF Blender I/O v4.2.60",
		"version":"2.0"
	},
	"scene":0,
	"scenes":[
		{
			"name":"Scene",
			"nodes":[
				0,
				1
			]
		}
	],
	"nodes":[
		{
			"mesh":0,
			"name":"Text.020",
			"rotation":[
				0.7071068286895752,
				0,
				0,
				0.7071068286895752
			],
			"scale":[
				5.247999668121338,
				2.17391300201416,
				5.248000621795654
			],
			"translation":[
				0,
				0,
				0.002173925982788205
			]
		},
		{
			"mesh":1,
			"name":"Text.021",
			"rotation":[
				0.7071068286895752,
				0,
				0,
				0.7071068286895752
			],
			"scale":[
				5.247999668121338,
				2.17391300201416,
				5.248000621795654
			],
			"translation":[
				0,
				0,
				0.002173926215618849
			]
		}
	],
	"materials":[
		{
			"doubleSided":true,
			"name":"Material.001",
			"pbrMetallicRoughness":{
				"metallicFactor":0,
				"roughnessFactor":0.5
			}
		}
	],
	"meshes":[
		{
			"name":"Text.019",
			"primitives":[
				{
					"attributes":{
						"POSITION":0,
						"NORMAL":1,
						"TEXCOORD_0":2
					},
					"indices":3,
					"material":0
				}
			]
		},
		{
			"name":"Text.020",
			"primitives":[
				{
					"attributes":{
						"POSITION":4,
						"NORMAL":5,
						"TEXCOORD_0":6
					},
					"indices":7,
					"material":0
				}
			]
		}
	],
	"accessors":[
		{
			"bufferView":0,
			"componentType":5126,
			"count":2530,
			"max":[
				-0.060875583440065384,
				0.0010000000474974513,
				0.0438356027007103
			],
			"min":[
				-0.07163891941308975,
				-0.0010000000474974513,
				0.03677567467093468
			],
			"type":"VEC3"
		},
		{
			"bufferView":1,
			"componentType":5126,
			"count":2530,
			"type":"VEC3"
		},
		{
			"bufferView":2,
			"componentType":5126,
			"count":2530,
			"type":"VEC2"
		},
		{
			"bufferView":3,
			"componentType":5123,
			"count":7560,
			"type":"SCALAR"
		},
		{
			"bufferView":4,
			"componentType":5126,
			"count":1753,
			"max":[
				0.07285302132368088,
				0.0010000000474974513,
				0.04385434463620186
			],
			"min":[
				0.061395883560180664,
				-0.0010000000474974513,
				0.036738164722919464
			],
			"type":"VEC3"
		},
		{
			"bufferView":5,
			"componentType":5126,
			"count":1753,
			"type":"VEC3"
		},
		{
			"bufferView":6,
			"componentType":5126,
			"count":1753,
			"type":"VEC2"
		},
		{
			"bufferView":7,
			"componentType":5123,
			"count":5220,
			"type":"SCALAR"
		}
	],
	"bufferViews":[
		{
			"buffer":0,
			"byteLength":30360,
			"byteOffset":0,
			"target":34962
		},
		{
			"buffer":0,
			"byteLength":30360,
			"byteOffset":30360,
			"target":34962
		},
		{
			"buffer":0,
			"byteLength":20240,
			"byteOffset":60720,
			"target":34962
		},
		{
			"buffer":0,
			"byteLength":15120,
			"byteOffset":80960,
			"target":34963
		},
		{
			"buffer":0,
			"byteLength":21036,
			"byteOffset":96080,
			"target":34962
		},
		{
			"buffer":0,
			"byteLength":21036,
			"byteOffset":117116,
			"target":34962
		},
		{
			"buffer":0,
			"byteLength":14024,
			"byteOffset":138152,
			"target":34962
		},
		{
			"buffer":0,
			"byteLength":10440,
			"byteOffset":152176,
			"target":34963
		}
	],
	"buffers":[
		{
			"byteLength":162616,
			"uri":"sayi3.bin"
		}
	]
}
