{
	"asset":{
		"generator":"Khronos glTF Blender I/O v4.2.60",
		"version":"2.0"
	},
	"scene":0,
	"scenes":[
		{
			"name":"Scene",
			"nodes":[
				0,
				1
			]
		}
	],
	"nodes":[
		{
			"mesh":0,
			"name":"Text.028",
			"rotation":[
				0.7071068286895752,
				0,
				0,
				0.7071068286895752
			],
			"scale":[
				5.247999668121338,
				2.17391300201416,
				5.248000621795654
			],
			"translation":[
				0,
				0,
				0.002173925982788205
			]
		},
		{
			"mesh":1,
			"name":"Text.029",
			"rotation":[
				0.7071068286895752,
				0,
				0,
				0.7071068286895752
			],
			"scale":[
				5.247999668121338,
				2.17391300201416,
				5.248000621795654
			],
			"translation":[
				0,
				0,
				0.002173926215618849
			]
		}
	],
	"materials":[
		{
			"doubleSided":true,
			"name":"Material.001",
			"pbrMetallicRoughness":{
				"metallicFactor":0,
				"roughnessFactor":0.5
			}
		}
	],
	"meshes":[
		{
			"name":"Text.027",
			"primitives":[
				{
					"attributes":{
						"POSITION":0,
						"NORMAL":1,
						"TEXCOORD_0":2
					},
					"indices":3,
					"material":0
				}
			]
		},
		{
			"name":"Text.028",
			"primitives":[
				{
					"attributes":{
						"POSITION":4,
						"NORMAL":5,
						"TEXCOORD_0":6
					},
					"indices":7,
					"material":0
				}
			]
		}
	],
	"accessors":[
		{
			"bufferView":0,
			"componentType":5126,
			"count":2124,
			"max":[
				-0.06058962270617485,
				0.0010000000474974513,
				0.04381684586405754
			],
			"min":[
				-0.0716717317700386,
				-0.0010000000474974513,
				0.036794424057006836
			],
			"type":"VEC3"
		},
		{
			"bufferView":1,
			"componentType":5126,
			"count":2124,
			"type":"VEC3"
		},
		{
			"bufferView":2,
			"componentType":5126,
			"count":2124,
			"type":"VEC2"
		},
		{
			"bufferView":3,
			"componentType":5123,
			"count":6348,
			"type":"SCALAR"
		},
		{
			"bufferView":4,
			"componentType":5126,
			"count":808,
			"max":[
				0.07263270020484924,
				0.0010000000474974513,
				0.04372308403253555
			],
			"min":[
				0.06164434179663658,
				-0.0010000000474974513,
				0.036728788167238235
			],
			"type":"VEC3"
		},
		{
			"bufferView":5,
			"componentType":5126,
			"count":808,
			"type":"VEC3"
		},
		{
			"bufferView":6,
			"componentType":5126,
			"count":808,
			"type":"VEC2"
		},
		{
			"bufferView":7,
			"componentType":5123,
			"count":2376,
			"type":"SCALAR"
		}
	],
	"bufferViews":[
		{
			"buffer":0,
			"byteLength":25488,
			"byteOffset":0,
			"target":34962
		},
		{
			"buffer":0,
			"byteLength":25488,
			"byteOffset":25488,
			"target":34962
		},
		{
			"buffer":0,
			"byteLength":16992,
			"byteOffset":50976,
			"target":34962
		},
		{
			"buffer":0,
			"byteLength":12696,
			"byteOffset":67968,
			"target":34963
		},
		{
			"buffer":0,
			"byteLength":9696,
			"byteOffset":80664,
			"target":34962
		},
		{
			"buffer":0,
			"byteLength":9696,
			"byteOffset":90360,
			"target":34962
		},
		{
			"buffer":0,
			"byteLength":6464,
			"byteOffset":100056,
			"target":34962
		},
		{
			"buffer":0,
			"byteLength":4752,
			"byteOffset":106520,
			"target":34963
		}
	],
	"buffers":[
		{
			"byteLength":111272,
			"uri":"sayi7.bin"
		}
	]
}
