{
	"asset":{
		"generator":"Khronos glTF Blender I/O v4.2.60",
		"version":"2.0"
	},
	"scene":0,
	"scenes":[
		{
			"name":"Scene",
			"nodes":[
				0,
				1
			]
		}
	],
	"nodes":[
		{
			"mesh":0,
			"name":"Text.030",
			"rotation":[
				0.7071068286895752,
				0,
				0,
				0.7071068286895752
			],
			"scale":[
				5.247999668121338,
				2.17391300201416,
				5.248000621795654
			],
			"translation":[
				0,
				0,
				0.002173925982788205
			]
		},
		{
			"mesh":1,
			"name":"Text.031",
			"rotation":[
				0.7071068286895752,
				0,
				0,
				0.7071068286895752
			],
			"scale":[
				5.247999668121338,
				2.17391300201416,
				5.248000621795654
			],
			"translation":[
				0,
				0,
				0.002173926215618849
			]
		}
	],
	"materials":[
		{
			"doubleSided":true,
			"name":"Material.001",
			"pbrMetallicRoughness":{
				"metallicFactor":0,
				"roughnessFactor":0.5
			}
		}
	],
	"meshes":[
		{
			"name":"Text.029",
			"primitives":[
				{
					"attributes":{
						"POSITION":0,
						"NORMAL":1,
						"TEXCOORD_0":2
					},
					"indices":3,
					"material":0
				}
			]
		},
		{
			"name":"Text.030",
			"primitives":[
				{
					"attributes":{
						"POSITION":4,
						"NORMAL":5,
						"TEXCOORD_0":6
					},
					"indices":7,
					"material":0
				}
			]
		}
	],
	"accessors":[
		{
			"bufferView":0,
			"componentType":5126,
			"count":2512,
			"max":[
				-0.06072556972503662,
				0.0010000000474974513,
				0.04381684586405754
			],
			"min":[
				-0.07160141319036484,
				-0.0010000000474974513,
				0.036794424057006836
			],
			"type":"VEC3"
		},
		{
			"bufferView":1,
			"componentType":5126,
			"count":2512,
			"type":"VEC3"
		},
		{
			"bufferView":2,
			"componentType":5126,
			"count":2512,
			"type":"VEC2"
		},
		{
			"bufferView":3,
			"componentType":5123,
			"count":7512,
			"type":"SCALAR"
		},
		{
			"bufferView":4,
			"componentType":5126,
			"count":1712,
			"max":[
				0.07144197821617126,
				0.0010000000474974513,
				0.04385434463620186
			],
			"min":[
				0.06260066479444504,
				-0.0010000000474974513,
				0.036738164722919464
			],
			"type":"VEC3"
		},
		{
			"bufferView":5,
			"componentType":5126,
			"count":1712,
			"type":"VEC3"
		},
		{
			"bufferView":6,
			"componentType":5126,
			"count":1712,
			"type":"VEC2"
		},
		{
			"bufferView":7,
			"componentType":5123,
			"count":5112,
			"type":"SCALAR"
		}
	],
	"bufferViews":[
		{
			"buffer":0,
			"byteLength":30144,
			"byteOffset":0,
			"target":34962
		},
		{
			"buffer":0,
			"byteLength":30144,
			"byteOffset":30144,
			"target":34962
		},
		{
			"buffer":0,
			"byteLength":20096,
			"byteOffset":60288,
			"target":34962
		},
		{
			"buffer":0,
			"byteLength":15024,
			"byteOffset":80384,
			"target":34963
		},
		{
			"buffer":0,
			"byteLength":20544,
			"byteOffset":95408,
			"target":34962
		},
		{
			"buffer":0,
			"byteLength":20544,
			"byteOffset":115952,
			"target":34962
		},
		{
			"buffer":0,
			"byteLength":13696,
			"byteOffset":136496,
			"target":34962
		},
		{
			"buffer":0,
			"byteLength":10224,
			"byteOffset":150192,
			"target":34963
		}
	],
	"buffers":[
		{
			"byteLength":160416,
			"uri":"sayi8.bin"
		}
	]
}
