{
	"asset":{
		"generator":"Khronos glTF Blender I/O v4.2.60",
		"version":"2.0"
	},
	"scene":0,
	"scenes":[
		{
			"name":"Scene",
			"nodes":[
				0,
				1,
				2,
				3,
				4,
				5,
				6,
				7,
				8,
				9,
				10,
				11,
				12,
				13
			]
		}
	],
	"nodes":[
		{
			"mesh":0,
			"name":"Building_070.017"
		},
		{
			"mesh":1,
			"name":"Building_070.018"
		},
		{
			"mesh":2,
			"name":"Building_070.019"
		},
		{
			"mesh":3,
			"name":"Building_070_RoofCap_0.001"
		},
		{
			"mesh":4,
			"name":"Building_070_RoofCap_1.001"
		},
		{
			"mesh":5,
			"name":"Building_079.017"
		},
		{
			"mesh":6,
			"name":"Building_079.018"
		},
		{
			"mesh":7,
			"name":"Building_079.019"
		},
		{
			"mesh":8,
			"name":"Building_079_RoofCap_0.001"
		},
		{
			"mesh":9,
			"name":"Building_080.017"
		},
		{
			"mesh":10,
			"name":"Building_080.018"
		},
		{
			"mesh":11,
			"name":"Building_080.019"
		},
		{
			"mesh":12,
			"name":"Building_080_RoofCap_0.001"
		},
		{
			"mesh":13,
			"name":"Building_080_RoofCap_1.001"
		}
	],
	"materials":[
		{
			"doubleSided":true,
			"name":"BinaSolar",
			"pbrMetallicRoughness":{
				"baseColorFactor":[
					0,
					0.08021967113018036,
					0.7230553030967712,
					1
				],
				"metallicFactor":0,
				"roughnessFactor":0.699999988079071
			}
		},
		{
			"doubleSided":true,
			"name":"PencereSolarKapal\u0131",
			"pbrMetallicRoughness":{
				"baseColorFactor":[
					0,
					0.04817177355289459,
					0.3185468912124634,
					1
				],
				"metallicFactor":0,
				"roughnessFactor":0.699999988079071
			}
		},
		{
			"doubleSided":true,
			"name":"Mat_Roof_Cap",
			"pbrMetallicRoughness":{
				"baseColorFactor":[
					0.9822452664375305,
					0.38132646679878235,
					0.0030353753827512264,
					1
				],
				"metallicFactor":0,
				"roughnessFactor":0.699999988079071
			}
		}
	],
	"meshes":[
		{
			"name":"Building_070_Mesh.017",
			"primitives":[
				{
					"attributes":{
						"POSITION":0,
						"NORMAL":1
					},
					"indices":2,
					"material":0
				}
			]
		},
		{
			"name":"Building_070_Mesh.018",
			"primitives":[
				{
					"attributes":{
						"POSITION":3,
						"NORMAL":4
					},
					"indices":5,
					"material":0
				}
			]
		},
		{
			"name":"Building_070_Mesh.019",
			"primitives":[
				{
					"attributes":{
						"POSITION":6,
						"NORMAL":7
					},
					"indices":8,
					"material":1
				}
			]
		},
		{
			"name":"Building_070_RoofCap_0_Mesh.002",
			"primitives":[
				{
					"attributes":{
						"POSITION":9,
						"NORMAL":10
					},
					"indices":11,
					"material":2
				}
			]
		},
		{
			"name":"Building_070_RoofCap_1_Mesh.002",
			"primitives":[
				{
					"attributes":{
						"POSITION":12,
						"NORMAL":13
					},
					"indices":14,
					"material":2
				}
			]
		},
		{
			"name":"Building_079_Mesh.017",
			"primitives":[
				{
					"attributes":{
						"POSITION":15,
						"NORMAL":16
					},
					"indices":17,
					"material":0
				}
			]
		},
		{
			"name":"Building_079_Mesh.018",
			"primitives":[
				{
					"attributes":{
						"POSITION":18,
						"NORMAL":19
					},
					"indices":5,
					"material":0
				}
			]
		},
		{
			"name":"Building_079_Mesh.019",
			"primitives":[
				{
					"attributes":{
						"POSITION":20,
						"NORMAL":21
					},
					"indices":22,
					"material":1
				}
			]
		},
		{
			"name":"Building_079_RoofCap_0_Mesh.002",
			"primitives":[
				{
					"attributes":{
						"POSITION":23,
						"NORMAL":24
					},
					"indices":11,
					"material":2
				}
			]
		},
		{
			"name":"Building_080_Mesh.017",
			"primitives":[
				{
					"attributes":{
						"POSITION":25,
						"NORMAL":26
					},
					"indices":27,
					"material":0
				}
			]
		},
		{
			"name":"Building_080_Mesh.018",
			"primitives":[
				{
					"attributes":{
						"POSITION":28,
						"NORMAL":29
					},
					"indices":5,
					"material":0
				}
			]
		},
		{
			"name":"Building_080_Mesh.019",
			"primitives":[
				{
					"attributes":{
						"POSITION":30,
						"NORMAL":31
					},
					"indices":32,
					"material":1
				}
			]
		},
		{
			"name":"Building_080_RoofCap_0_Mesh.002",
			"primitives":[
				{
					"attributes":{
						"POSITION":33,
						"NORMAL":34
					},
					"indices":35,
					"material":2
				}
			]
		},
		{
			"name":"Building_080_RoofCap_1_Mesh.002",
			"primitives":[
				{
					"attributes":{
						"POSITION":36,
						"NORMAL":37
					},
					"indices":38,
					"material":2
				}
			]
		}
	],
	"accessors":[
		{
			"bufferView":0,
			"componentType":5126,
			"count":501,
			"max":[
				0.35869544744491577,
				-0.291304349899292,
				0.043478287756443024
			],
			"min":[
				0.32608675956726074,
				-0.3532608151435852,
				2.9802322387695312e-08
			],
			"type":"VEC3"
		},
		{
			"bufferView":1,
			"componentType":5126,
			"count":501,
			"type":"VEC3"
		},
		{
			"bufferView":2,
			"componentType":5123,
			"count":1404,
			"type":"SCALAR"
		},
		{
			"bufferView":3,
			"componentType":5126,
			"count":4,
			"max":[
				0.3532606363296509,
				-0.3391304016113281,
				0.04130437597632408
			],
			"min":[
				0.3445649743080139,
				-0.3532608151435852,
				0.04130437597632408
			],
			"type":"VEC3"
		},
		{
			"bufferView":4,
			"componentType":5126,
			"count":4,
			"type":"VEC3"
		},
		{
			"bufferView":5,
			"componentType":5123,
			"count":6,
			"type":"SCALAR"
		},
		{
			"bufferView":6,
			"componentType":5126,
			"count":38,
			"max":[
				0.3532606363296509,
				-0.3065217137336731,
				0.04130437225103378
			],
			"min":[
				0.33152157068252563,
				-0.34565210342407227,
				0.04130437225103378
			],
			"type":"VEC3"
		},
		{
			"bufferView":7,
			"componentType":5126,
			"count":38,
			"type":"VEC3"
		},
		{
			"bufferView":8,
			"componentType":5123,
			"count":60,
			"type":"SCALAR"
		},
		{
			"bufferView":9,
			"componentType":5126,
			"count":24,
			"max":[
				0.3539859652519226,
				-0.2908945679664612,
				0.039937835186719894
			],
			"min":[
				0.33442074060440063,
				-0.29813045263290405,
				0.02608698606491089
			],
			"type":"VEC3"
		},
		{
			"bufferView":10,
			"componentType":5126,
			"count":24,
			"type":"VEC3"
		},
		{
			"bufferView":11,
			"componentType":5123,
			"count":36,
			"type":"SCALAR"
		},
		{
			"bufferView":12,
			"componentType":5126,
			"count":24,
			"max":[
				0.3516107201576233,
				-0.28998154401779175,
				0.019565243273973465
			],
			"min":[
				0.3320454955101013,
				-0.2989564538002014,
				0.001366569660604
			],
			"type":"VEC3"
		},
		{
			"bufferView":13,
			"componentType":5126,
			"count":24,
			"type":"VEC3"
		},
		{
			"bufferView":14,
			"componentType":5123,
			"count":36,
			"type":"SCALAR"
		},
		{
			"bufferView":15,
			"componentType":5126,
			"count":477,
			"max":[
				0.43478238582611084,
				-0.4956521689891815,
				0.043478287756443024
			],
			"min":[
				0.4021736979484558,
				-0.5489130020141602,
				2.9802322387695312e-08
			],
			"type":"VEC3"
		},
		{
			"bufferView":16,
			"componentType":5126,
			"count":477,
			"type":"VEC3"
		},
		{
			"bufferView":17,
			"componentType":5123,
			"count":1386,
			"type":"SCALAR"
		},
		{
			"bufferView":18,
			"componentType":5126,
			"count":4,
			"max":[
				0.41630417108535767,
				-0.5347825288772583,
				0.04130437597632408
			],
			"min":[
				0.4076085090637207,
				-0.5489130020141602,
				0.04130437597632408
			],
			"type":"VEC3"
		},
		{
			"bufferView":19,
			"componentType":5126,
			"count":4,
			"type":"VEC3"
		},
		{
			"bufferView":20,
			"componentType":5126,
			"count":36,
			"max":[
				0.4293476939201355,
				-0.502173900604248,
				0.04130437225103378
			],
			"min":[
				0.4076085090637207,
				-0.5456521511077881,
				0.04130437225103378
			],
			"type":"VEC3"
		},
		{
			"bufferView":21,
			"componentType":5126,
			"count":36,
			"type":"VEC3"
		},
		{
			"bufferView":22,
			"componentType":5123,
			"count":54,
			"type":"SCALAR"
		},
		{
			"bufferView":23,
			"componentType":5126,
			"count":24,
			"max":[
				0.4296690821647644,
				-0.4900529086589813,
				0.03933337703347206
			],
			"min":[
				0.4035820960998535,
				-0.49547824263572693,
				0.004347854293882847
			],
			"type":"VEC3"
		},
		{
			"bufferView":24,
			"componentType":5126,
			"count":24,
			"type":"VEC3"
		},
		{
			"bufferView":25,
			"componentType":5126,
			"count":501,
			"max":[
				0.43478238582611084,
				-0.5869565010070801,
				0.06521742045879364
			],
			"min":[
				0.4021736979484558,
				-0.64673912525177,
				2.9802322387695312e-08
			],
			"type":"VEC3"
		},
		{
			"bufferView":26,
			"componentType":5126,
			"count":501,
			"type":"VEC3"
		},
		{
			"bufferView":27,
			"componentType":5123,
			"count":1401,
			"type":"SCALAR"
		},
		{
			"bufferView":28,
			"componentType":5126,
			"count":4,
			"max":[
				0.4293476343154907,
				-0.6326086521148682,
				0.0630435049533844
			],
			"min":[
				0.420651912689209,
				-0.64673912525177,
				0.0630435049533844
			],
			"type":"VEC3"
		},
		{
			"bufferView":29,
			"componentType":5126,
			"count":4,
			"type":"VEC3"
		},
		{
			"bufferView":30,
			"componentType":5126,
			"count":39,
			"max":[
				0.4293476343154907,
				-0.6000000238418579,
				0.0630435049533844
			],
			"min":[
				0.4076085090637207,
				-0.6413043737411499,
				0.0630435049533844
			],
			"type":"VEC3"
		},
		{
			"bufferView":31,
			"componentType":5126,
			"count":39,
			"type":"VEC3"
		},
		{
			"bufferView":32,
			"componentType":5123,
			"count":63,
			"type":"SCALAR"
		},
		{
			"bufferView":33,
			"componentType":5126,
			"count":24,
			"max":[
				0.42989540100097656,
				-0.5859987139701843,
				0.05912202224135399
			],
			"min":[
				0.4038083553314209,
				-0.5920434594154358,
				0.03913046047091484
			],
			"type":"VEC3"
		},
		{
			"bufferView":34,
			"componentType":5126,
			"count":24,
			"type":"VEC3"
		},
		{
			"bufferView":35,
			"componentType":5123,
			"count":36,
			"type":"SCALAR"
		},
		{
			"bufferView":36,
			"componentType":5126,
			"count":24,
			"max":[
				0.43391144275665283,
				-0.5853030681610107,
				0.02934785559773445
			],
			"min":[
				0.40782445669174194,
				-0.5926521420478821,
				0.002834560349583626
			],
			"type":"VEC3"
		},
		{
			"bufferView":37,
			"componentType":5126,
			"count":24,
			"type":"VEC3"
		},
		{
			"bufferView":38,
			"componentType":5123,
			"count":36,
			"type":"SCALAR"
		}
	],
	"bufferViews":[
		{
			"buffer":0,
			"byteLength":6012,
			"byteOffset":0,
			"target":34962
		},
		{
			"buffer":0,
			"byteLength":6012,
			"byteOffset":6012,
			"target":34962
		},
		{
			"buffer":0,
			"byteLength":2808,
			"byteOffset":12024,
			"target":34963
		},
		{
			"buffer":0,
			"byteLength":48,
			"byteOffset":14832,
			"target":34962
		},
		{
			"buffer":0,
			"byteLength":48,
			"byteOffset":14880,
			"target":34962
		},
		{
			"buffer":0,
			"byteLength":12,
			"byteOffset":14928,
			"target":34963
		},
		{
			"buffer":0,
			"byteLength":456,
			"byteOffset":14940,
			"target":34962
		},
		{
			"buffer":0,
			"byteLength":456,
			"byteOffset":15396,
			"target":34962
		},
		{
			"buffer":0,
			"byteLength":120,
			"byteOffset":15852,
			"target":34963
		},
		{
			"buffer":0,
			"byteLength":288,
			"byteOffset":15972,
			"target":34962
		},
		{
			"buffer":0,
			"byteLength":288,
			"byteOffset":16260,
			"target":34962
		},
		{
			"buffer":0,
			"byteLength":72,
			"byteOffset":16548,
			"target":34963
		},
		{
			"buffer":0,
			"byteLength":288,
			"byteOffset":16620,
			"target":34962
		},
		{
			"buffer":0,
			"byteLength":288,
			"byteOffset":16908,
			"target":34962
		},
		{
			"buffer":0,
			"byteLength":72,
			"byteOffset":17196,
			"target":34963
		},
		{
			"buffer":0,
			"byteLength":5724,
			"byteOffset":17268,
			"target":34962
		},
		{
			"buffer":0,
			"byteLength":5724,
			"byteOffset":22992,
			"target":34962
		},
		{
			"buffer":0,
			"byteLength":2772,
			"byteOffset":28716,
			"target":34963
		},
		{
			"buffer":0,
			"byteLength":48,
			"byteOffset":31488,
			"target":34962
		},
		{
			"buffer":0,
			"byteLength":48,
			"byteOffset":31536,
			"target":34962
		},
		{
			"buffer":0,
			"byteLength":432,
			"byteOffset":31584,
			"target":34962
		},
		{
			"buffer":0,
			"byteLength":432,
			"byteOffset":32016,
			"target":34962
		},
		{
			"buffer":0,
			"byteLength":108,
			"byteOffset":32448,
			"target":34963
		},
		{
			"buffer":0,
			"byteLength":288,
			"byteOffset":32556,
			"target":34962
		},
		{
			"buffer":0,
			"byteLength":288,
			"byteOffset":32844,
			"target":34962
		},
		{
			"buffer":0,
			"byteLength":6012,
			"byteOffset":33132,
			"target":34962
		},
		{
			"buffer":0,
			"byteLength":6012,
			"byteOffset":39144,
			"target":34962
		},
		{
			"buffer":0,
			"byteLength":2802,
			"byteOffset":45156,
			"target":34963
		},
		{
			"buffer":0,
			"byteLength":48,
			"byteOffset":47960,
			"target":34962
		},
		{
			"buffer":0,
			"byteLength":48,
			"byteOffset":48008,
			"target":34962
		},
		{
			"buffer":0,
			"byteLength":468,
			"byteOffset":48056,
			"target":34962
		},
		{
			"buffer":0,
			"byteLength":468,
			"byteOffset":48524,
			"target":34962
		},
		{
			"buffer":0,
			"byteLength":126,
			"byteOffset":48992,
			"target":34963
		},
		{
			"buffer":0,
			"byteLength":288,
			"byteOffset":49120,
			"target":34962
		},
		{
			"buffer":0,
			"byteLength":288,
			"byteOffset":49408,
			"target":34962
		},
		{
			"buffer":0,
			"byteLength":72,
			"byteOffset":49696,
			"target":34963
		},
		{
			"buffer":0,
			"byteLength":288,
			"byteOffset":49768,
			"target":34962
		},
		{
			"buffer":0,
			"byteLength":288,
			"byteOffset":50056,
			"target":34962
		},
		{
			"buffer":0,
			"byteLength":72,
			"byteOffset":50344,
			"target":34963
		}
	],
	"buffers":[
		{
			"byteLength":50416,
			"uri":"BinaGrup4.bin"
		}
	]
}
