{
	"asset":{
		"generator":"Khronos glTF Blender I/O v4.2.60",
		"version":"2.0"
	},
	"scene":0,
	"scenes":[
		{
			"name":"Scene",
			"nodes":[
				0,
				1,
				2,
				3,
				4,
				5,
				6,
				7,
				8,
				9
			]
		}
	],
	"nodes":[
		{
			"mesh":0,
			"name":"Building_071.017"
		},
		{
			"mesh":1,
			"name":"Building_071.018"
		},
		{
			"mesh":2,
			"name":"Building_071.019"
		},
		{
			"mesh":3,
			"name":"Building_071_RoofCap_0.001"
		},
		{
			"mesh":4,
			"name":"Building_071_RoofCap_1.001"
		},
		{
			"mesh":5,
			"name":"Building_082.017"
		},
		{
			"mesh":6,
			"name":"Building_082.018"
		},
		{
			"mesh":7,
			"name":"Building_082.019"
		},
		{
			"mesh":8,
			"name":"Building_082_RoofCap_0.001"
		},
		{
			"mesh":9,
			"name":"Building_082_RoofCap_1.001"
		}
	],
	"materials":[
		{
			"doubleSided":true,
			"name":"BinaSolar",
			"pbrMetallicRoughness":{
				"baseColorFactor":[
					0,
					0.08021967113018036,
					0.7230553030967712,
					1
				],
				"metallicFactor":0,
				"roughnessFactor":0.699999988079071
			}
		},
		{
			"doubleSided":true,
			"name":"PencereSolarKapal\u0131",
			"pbrMetallicRoughness":{
				"baseColorFactor":[
					0,
					0.04817177355289459,
					0.3185468912124634,
					1
				],
				"metallicFactor":0,
				"roughnessFactor":0.699999988079071
			}
		},
		{
			"doubleSided":true,
			"name":"Mat_Roof_Cap",
			"pbrMetallicRoughness":{
				"baseColorFactor":[
					0.9822452664375305,
					0.38132646679878235,
					0.0030353753827512264,
					1
				],
				"metallicFactor":0,
				"roughnessFactor":0.699999988079071
			}
		}
	],
	"meshes":[
		{
			"name":"Building_071_Mesh.017",
			"primitives":[
				{
					"attributes":{
						"POSITION":0,
						"NORMAL":1
					},
					"indices":2,
					"material":0
				}
			]
		},
		{
			"name":"Building_071_Mesh.018",
			"primitives":[
				{
					"attributes":{
						"POSITION":3,
						"NORMAL":4
					},
					"indices":5,
					"material":0
				}
			]
		},
		{
			"name":"Building_071_Mesh.019",
			"primitives":[
				{
					"attributes":{
						"POSITION":6,
						"NORMAL":7
					},
					"indices":8,
					"material":1
				}
			]
		},
		{
			"name":"Building_071_RoofCap_0_Mesh.002",
			"primitives":[
				{
					"attributes":{
						"POSITION":9,
						"NORMAL":10
					},
					"indices":11,
					"material":2
				}
			]
		},
		{
			"name":"Building_071_RoofCap_1_Mesh.002",
			"primitives":[
				{
					"attributes":{
						"POSITION":12,
						"NORMAL":13
					},
					"indices":14,
					"material":2
				}
			]
		},
		{
			"name":"Building_082_Mesh.017",
			"primitives":[
				{
					"attributes":{
						"POSITION":15,
						"NORMAL":16
					},
					"indices":17,
					"material":0
				}
			]
		},
		{
			"name":"Building_082_Mesh.018",
			"primitives":[
				{
					"attributes":{
						"POSITION":18,
						"NORMAL":19
					},
					"indices":5,
					"material":0
				}
			]
		},
		{
			"name":"Building_082_Mesh.019",
			"primitives":[
				{
					"attributes":{
						"POSITION":20,
						"NORMAL":21
					},
					"indices":22,
					"material":1
				}
			]
		},
		{
			"name":"Building_082_RoofCap_0_Mesh.002",
			"primitives":[
				{
					"attributes":{
						"POSITION":23,
						"NORMAL":24
					},
					"indices":25,
					"material":2
				}
			]
		},
		{
			"name":"Building_082_RoofCap_1_Mesh.002",
			"primitives":[
				{
					"attributes":{
						"POSITION":26,
						"NORMAL":27
					},
					"indices":28,
					"material":2
				}
			]
		}
	],
	"accessors":[
		{
			"bufferView":0,
			"componentType":5126,
			"count":1288,
			"max":[
				0.36684757471084595,
				-0.3728260397911072,
				0.05434785038232803
			],
			"min":[
				0.317934513092041,
				-0.45108696818351746,
				2.561137080192566e-08
			],
			"type":"VEC3"
		},
		{
			"bufferView":1,
			"componentType":5126,
			"count":1288,
			"type":"VEC3"
		},
		{
			"bufferView":2,
			"componentType":5123,
			"count":4650,
			"type":"SCALAR"
		},
		{
			"bufferView":3,
			"componentType":5126,
			"count":4,
			"max":[
				0.36195629835128784,
				-0.436956524848938,
				0.05217394232749939
			],
			"min":[
				0.3554345369338989,
				-0.45108696818351746,
				0.05217394232749939
			],
			"type":"VEC3"
		},
		{
			"bufferView":4,
			"componentType":5126,
			"count":4,
			"type":"VEC3"
		},
		{
			"bufferView":5,
			"componentType":5123,
			"count":6,
			"type":"SCALAR"
		},
		{
			"bufferView":6,
			"componentType":5126,
			"count":76,
			"max":[
				0.36195629835128784,
				-0.38804346323013306,
				0.05217394232749939
			],
			"min":[
				0.32282590866088867,
				-0.4434782564640045,
				0.05217394232749939
			],
			"type":"VEC3"
		},
		{
			"bufferView":7,
			"componentType":5126,
			"count":76,
			"type":"VEC3"
		},
		{
			"bufferView":8,
			"componentType":5123,
			"count":114,
			"type":"SCALAR"
		},
		{
			"bufferView":9,
			"componentType":5126,
			"count":24,
			"max":[
				0.3599594235420227,
				-0.3714512586593628,
				0.052293017506599426
			],
			"min":[
				0.32082897424697876,
				-0.38047826290130615,
				0.029891332611441612
			],
			"type":"VEC3"
		},
		{
			"bufferView":10,
			"componentType":5126,
			"count":24,
			"type":"VEC3"
		},
		{
			"bufferView":11,
			"componentType":5123,
			"count":36,
			"type":"SCALAR"
		},
		{
			"bufferView":12,
			"componentType":5126,
			"count":24,
			"max":[
				0.3666318655014038,
				-0.37327730655670166,
				0.019021768122911453
			],
			"min":[
				0.32750141620635986,
				-0.3788261413574219,
				0.007489646784961224
			],
			"type":"VEC3"
		},
		{
			"bufferView":13,
			"componentType":5126,
			"count":24,
			"type":"VEC3"
		},
		{
			"bufferView":14,
			"componentType":5123,
			"count":36,
			"type":"SCALAR"
		},
		{
			"bufferView":15,
			"componentType":5126,
			"count":308,
			"max":[
				0.43478238582611084,
				-0.7967391014099121,
				0.06521742045879364
			],
			"min":[
				0.4021736979484558,
				-0.8423912525177002,
				2.9802322387695312e-08
			],
			"type":"VEC3"
		},
		{
			"bufferView":16,
			"componentType":5126,
			"count":308,
			"type":"VEC3"
		},
		{
			"bufferView":17,
			"componentType":5123,
			"count":750,
			"type":"SCALAR"
		},
		{
			"bufferView":18,
			"componentType":5126,
			"count":4,
			"max":[
				0.4293476343154907,
				-0.8282608389854431,
				0.0630435049533844
			],
			"min":[
				0.420651912689209,
				-0.8423912525177002,
				0.0630435049533844
			],
			"type":"VEC3"
		},
		{
			"bufferView":19,
			"componentType":5126,
			"count":4,
			"type":"VEC3"
		},
		{
			"bufferView":20,
			"componentType":5126,
			"count":16,
			"max":[
				0.4293476939201355,
				-0.811956524848938,
				0.0630435049533844
			],
			"min":[
				0.4076085090637207,
				-0.834782600402832,
				0.0630435049533844
			],
			"type":"VEC3"
		},
		{
			"bufferView":21,
			"componentType":5126,
			"count":16,
			"type":"VEC3"
		},
		{
			"bufferView":22,
			"componentType":5123,
			"count":24,
			"type":"SCALAR"
		},
		{
			"bufferView":23,
			"componentType":5126,
			"count":24,
			"max":[
				0.4285435080528259,
				-0.7953342795372009,
				0.06251668184995651
			],
			"min":[
				0.40245652198791504,
				-0.8043912649154663,
				0.03586959466338158
			],
			"type":"VEC3"
		},
		{
			"bufferView":24,
			"componentType":5126,
			"count":24,
			"type":"VEC3"
		},
		{
			"bufferView":25,
			"componentType":5123,
			"count":36,
			"type":"SCALAR"
		},
		{
			"bufferView":26,
			"componentType":5126,
			"count":24,
			"max":[
				0.42771339416503906,
				-0.7971603870391846,
				0.022826116532087326
			],
			"min":[
				0.4081481695175171,
				-0.802739143371582,
				0.009222501888871193
			],
			"type":"VEC3"
		},
		{
			"bufferView":27,
			"componentType":5126,
			"count":24,
			"type":"VEC3"
		},
		{
			"bufferView":28,
			"componentType":5123,
			"count":36,
			"type":"SCALAR"
		}
	],
	"bufferViews":[
		{
			"buffer":0,
			"byteLength":15456,
			"byteOffset":0,
			"target":34962
		},
		{
			"buffer":0,
			"byteLength":15456,
			"byteOffset":15456,
			"target":34962
		},
		{
			"buffer":0,
			"byteLength":9300,
			"byteOffset":30912,
			"target":34963
		},
		{
			"buffer":0,
			"byteLength":48,
			"byteOffset":40212,
			"target":34962
		},
		{
			"buffer":0,
			"byteLength":48,
			"byteOffset":40260,
			"target":34962
		},
		{
			"buffer":0,
			"byteLength":12,
			"byteOffset":40308,
			"target":34963
		},
		{
			"buffer":0,
			"byteLength":912,
			"byteOffset":40320,
			"target":34962
		},
		{
			"buffer":0,
			"byteLength":912,
			"byteOffset":41232,
			"target":34962
		},
		{
			"buffer":0,
			"byteLength":228,
			"byteOffset":42144,
			"target":34963
		},
		{
			"buffer":0,
			"byteLength":288,
			"byteOffset":42372,
			"target":34962
		},
		{
			"buffer":0,
			"byteLength":288,
			"byteOffset":42660,
			"target":34962
		},
		{
			"buffer":0,
			"byteLength":72,
			"byteOffset":42948,
			"target":34963
		},
		{
			"buffer":0,
			"byteLength":288,
			"byteOffset":43020,
			"target":34962
		},
		{
			"buffer":0,
			"byteLength":288,
			"byteOffset":43308,
			"target":34962
		},
		{
			"buffer":0,
			"byteLength":72,
			"byteOffset":43596,
			"target":34963
		},
		{
			"buffer":0,
			"byteLength":3696,
			"byteOffset":43668,
			"target":34962
		},
		{
			"buffer":0,
			"byteLength":3696,
			"byteOffset":47364,
			"target":34962
		},
		{
			"buffer":0,
			"byteLength":1500,
			"byteOffset":51060,
			"target":34963
		},
		{
			"buffer":0,
			"byteLength":48,
			"byteOffset":52560,
			"target":34962
		},
		{
			"buffer":0,
			"byteLength":48,
			"byteOffset":52608,
			"target":34962
		},
		{
			"buffer":0,
			"byteLength":192,
			"byteOffset":52656,
			"target":34962
		},
		{
			"buffer":0,
			"byteLength":192,
			"byteOffset":52848,
			"target":34962
		},
		{
			"buffer":0,
			"byteLength":48,
			"byteOffset":53040,
			"target":34963
		},
		{
			"buffer":0,
			"byteLength":288,
			"byteOffset":53088,
			"target":34962
		},
		{
			"buffer":0,
			"byteLength":288,
			"byteOffset":53376,
			"target":34962
		},
		{
			"buffer":0,
			"byteLength":72,
			"byteOffset":53664,
			"target":34963
		},
		{
			"buffer":0,
			"byteLength":288,
			"byteOffset":53736,
			"target":34962
		},
		{
			"buffer":0,
			"byteLength":288,
			"byteOffset":54024,
			"target":34962
		},
		{
			"buffer":0,
			"byteLength":72,
			"byteOffset":54312,
			"target":34963
		}
	],
	"buffers":[
		{
			"byteLength":54384,
			"uri":"BinaGrup1.bin"
		}
	]
}
