{
	"asset":{
		"generator":"Khronos glTF Blender I/O v4.2.60",
		"version":"2.0"
	},
	"scene":0,
	"scenes":[
		{
			"name":"Scene",
			"nodes":[
				0,
				1,
				2,
				3,
				4,
				5,
				6,
				7,
				8,
				9,
				10,
				11,
				12,
				13,
				14
			]
		}
	],
	"nodes":[
		{
			"mesh":0,
			"name":"Building_072.017"
		},
		{
			"mesh":1,
			"name":"Building_072.018"
		},
		{
			"mesh":2,
			"name":"Building_072.019"
		},
		{
			"mesh":3,
			"name":"Building_072_RoofCap_0.001"
		},
		{
			"mesh":4,
			"name":"Building_072_RoofCap_1.001"
		},
		{
			"mesh":5,
			"name":"Building_076.017"
		},
		{
			"mesh":6,
			"name":"Building_076.018"
		},
		{
			"mesh":7,
			"name":"Building_076.019"
		},
		{
			"mesh":8,
			"name":"Building_076_RoofCap_0.001"
		},
		{
			"mesh":9,
			"name":"Building_076_RoofCap_1.001"
		},
		{
			"mesh":10,
			"name":"Building_081.017"
		},
		{
			"mesh":11,
			"name":"Building_081.018"
		},
		{
			"mesh":12,
			"name":"Building_081.019"
		},
		{
			"mesh":13,
			"name":"Building_081_RoofCap_0.001"
		},
		{
			"mesh":14,
			"name":"Building_081_RoofCap_1.001"
		}
	],
	"materials":[
		{
			"doubleSided":true,
			"name":"BinaSolar",
			"pbrMetallicRoughness":{
				"baseColorFactor":[
					0,
					0.08021967113018036,
					0.7230553030967712,
					1
				],
				"metallicFactor":0,
				"roughnessFactor":0.699999988079071
			}
		},
		{
			"doubleSided":true,
			"name":"PencereSolarKapal\u0131",
			"pbrMetallicRoughness":{
				"baseColorFactor":[
					0,
					0.04817177355289459,
					0.3185468912124634,
					1
				],
				"metallicFactor":0,
				"roughnessFactor":0.699999988079071
			}
		},
		{
			"doubleSided":true,
			"name":"Mat_Roof_Cap",
			"pbrMetallicRoughness":{
				"baseColorFactor":[
					0.9822452664375305,
					0.38132646679878235,
					0.0030353753827512264,
					1
				],
				"metallicFactor":0,
				"roughnessFactor":0.699999988079071
			}
		}
	],
	"meshes":[
		{
			"name":"Building_072_Mesh.017",
			"primitives":[
				{
					"attributes":{
						"POSITION":0,
						"NORMAL":1
					},
					"indices":2,
					"material":0
				}
			]
		},
		{
			"name":"Building_072_Mesh.018",
			"primitives":[
				{
					"attributes":{
						"POSITION":3,
						"NORMAL":4
					},
					"indices":5,
					"material":0
				}
			]
		},
		{
			"name":"Building_072_Mesh.019",
			"primitives":[
				{
					"attributes":{
						"POSITION":6,
						"NORMAL":7
					},
					"indices":8,
					"material":1
				}
			]
		},
		{
			"name":"Building_072_RoofCap_0_Mesh.002",
			"primitives":[
				{
					"attributes":{
						"POSITION":9,
						"NORMAL":10
					},
					"indices":11,
					"material":2
				}
			]
		},
		{
			"name":"Building_072_RoofCap_1_Mesh.002",
			"primitives":[
				{
					"attributes":{
						"POSITION":12,
						"NORMAL":13
					},
					"indices":14,
					"material":2
				}
			]
		},
		{
			"name":"Building_076_Mesh.017",
			"primitives":[
				{
					"attributes":{
						"POSITION":15,
						"NORMAL":16
					},
					"indices":17,
					"material":0
				}
			]
		},
		{
			"name":"Building_076_Mesh.018",
			"primitives":[
				{
					"attributes":{
						"POSITION":18,
						"NORMAL":19
					},
					"indices":5,
					"material":0
				}
			]
		},
		{
			"name":"Building_076_Mesh.019",
			"primitives":[
				{
					"attributes":{
						"POSITION":20,
						"NORMAL":21
					},
					"indices":22,
					"material":1
				}
			]
		},
		{
			"name":"Building_076_RoofCap_0_Mesh.002",
			"primitives":[
				{
					"attributes":{
						"POSITION":23,
						"NORMAL":24
					},
					"indices":25,
					"material":2
				}
			]
		},
		{
			"name":"Building_076_RoofCap_1_Mesh.002",
			"primitives":[
				{
					"attributes":{
						"POSITION":26,
						"NORMAL":27
					},
					"indices":28,
					"material":2
				}
			]
		},
		{
			"name":"Building_081_Mesh.017",
			"primitives":[
				{
					"attributes":{
						"POSITION":29,
						"NORMAL":30
					},
					"indices":31,
					"material":0
				}
			]
		},
		{
			"name":"Building_081_Mesh.018",
			"primitives":[
				{
					"attributes":{
						"POSITION":32,
						"NORMAL":33
					},
					"indices":5,
					"material":0
				}
			]
		},
		{
			"name":"Building_081_Mesh.019",
			"primitives":[
				{
					"attributes":{
						"POSITION":34,
						"NORMAL":35
					},
					"indices":36,
					"material":1
				}
			]
		},
		{
			"name":"Building_081_RoofCap_0_Mesh.002",
			"primitives":[
				{
					"attributes":{
						"POSITION":37,
						"NORMAL":38
					},
					"indices":11,
					"material":2
				}
			]
		},
		{
			"name":"Building_081_RoofCap_1_Mesh.002",
			"primitives":[
				{
					"attributes":{
						"POSITION":39,
						"NORMAL":40
					},
					"indices":14,
					"material":2
				}
			]
		}
	],
	"accessors":[
		{
			"bufferView":0,
			"componentType":5126,
			"count":1294,
			"max":[
				0.36684757471084595,
				-0.4728260636329651,
				0.05434786155819893
			],
			"min":[
				0.317934513092041,
				-0.5489130020141602,
				2.9802322387695312e-08
			],
			"type":"VEC3"
		},
		{
			"bufferView":1,
			"componentType":5126,
			"count":1294,
			"type":"VEC3"
		},
		{
			"bufferView":2,
			"componentType":5123,
			"count":4626,
			"type":"SCALAR"
		},
		{
			"bufferView":3,
			"componentType":5126,
			"count":4,
			"max":[
				0.36195629835128784,
				-0.5347825288772583,
				0.05217394232749939
			],
			"min":[
				0.3554345369338989,
				-0.5489130020141602,
				0.05217394232749939
			],
			"type":"VEC3"
		},
		{
			"bufferView":4,
			"componentType":5126,
			"count":4,
			"type":"VEC3"
		},
		{
			"bufferView":5,
			"componentType":5123,
			"count":6,
			"type":"SCALAR"
		},
		{
			"bufferView":6,
			"componentType":5126,
			"count":80,
			"max":[
				0.36195629835128784,
				-0.48586955666542053,
				0.05217394232749939
			],
			"min":[
				0.32282590866088867,
				-0.5456521511077881,
				0.05217394232749939
			],
			"type":"VEC3"
		},
		{
			"bufferView":7,
			"componentType":5126,
			"count":80,
			"type":"VEC3"
		},
		{
			"bufferView":8,
			"componentType":5123,
			"count":120,
			"type":"SCALAR"
		},
		{
			"bufferView":9,
			"componentType":5126,
			"count":24,
			"max":[
				0.36321091651916504,
				-0.47258174419403076,
				0.04670301452279091
			],
			"min":[
				0.3240804672241211,
				-0.4773043394088745,
				0.035326115787029266
			],
			"type":"VEC3"
		},
		{
			"bufferView":10,
			"componentType":5126,
			"count":24,
			"type":"VEC3"
		},
		{
			"bufferView":11,
			"componentType":5123,
			"count":36,
			"type":"SCALAR"
		},
		{
			"bufferView":12,
			"componentType":5126,
			"count":24,
			"max":[
				0.3574506640434265,
				-0.4718860685825348,
				0.021739158779382706
			],
			"min":[
				0.31832021474838257,
				-0.4779129922389984,
				0.004927479662001133
			],
			"type":"VEC3"
		},
		{
			"bufferView":13,
			"componentType":5126,
			"count":24,
			"type":"VEC3"
		},
		{
			"bufferView":14,
			"componentType":5123,
			"count":36,
			"type":"SCALAR"
		},
		{
			"bufferView":15,
			"componentType":5126,
			"count":889,
			"max":[
				0.36684757471084595,
				-0.8804347515106201,
				0.06521742045879364
			],
			"min":[
				0.31793463230133057,
				-0.9402173757553101,
				2.9802322387695312e-08
			],
			"type":"VEC3"
		},
		{
			"bufferView":16,
			"componentType":5126,
			"count":889,
			"type":"VEC3"
		},
		{
			"bufferView":17,
			"componentType":5123,
			"count":2820,
			"type":"SCALAR"
		},
		{
			"bufferView":18,
			"componentType":5126,
			"count":4,
			"max":[
				0.36195629835128784,
				-0.9260869026184082,
				0.0630435049533844
			],
			"min":[
				0.3554345369338989,
				-0.9402173757553101,
				0.0630435049533844
			],
			"type":"VEC3"
		},
		{
			"bufferView":19,
			"componentType":5126,
			"count":4,
			"type":"VEC3"
		},
		{
			"bufferView":20,
			"componentType":5126,
			"count":68,
			"max":[
				0.36195629835128784,
				-0.893478274345398,
				0.0630435049533844
			],
			"min":[
				0.32282590866088867,
				-0.936956524848938,
				0.0630435049533844
			],
			"type":"VEC3"
		},
		{
			"bufferView":21,
			"componentType":5126,
			"count":68,
			"type":"VEC3"
		},
		{
			"bufferView":22,
			"componentType":5123,
			"count":102,
			"type":"SCALAR"
		},
		{
			"bufferView":23,
			"componentType":5126,
			"count":24,
			"max":[
				0.3464322090148926,
				-0.8787813186645508,
				0.06238288804888725
			],
			"min":[
				0.3268669843673706,
				-0.8861304521560669,
				0.03586959466338158
			],
			"type":"VEC3"
		},
		{
			"bufferView":24,
			"componentType":5126,
			"count":24,
			"type":"VEC3"
		},
		{
			"bufferView":25,
			"componentType":5123,
			"count":36,
			"type":"SCALAR"
		},
		{
			"bufferView":26,
			"componentType":5126,
			"count":24,
			"max":[
				0.3443906307220459,
				-0.8787813186645508,
				0.02934785559773445
			],
			"min":[
				0.3248254060745239,
				-0.8861304521560669,
				0.002834560349583626
			],
			"type":"VEC3"
		},
		{
			"bufferView":27,
			"componentType":5126,
			"count":24,
			"type":"VEC3"
		},
		{
			"bufferView":28,
			"componentType":5123,
			"count":36,
			"type":"SCALAR"
		},
		{
			"bufferView":29,
			"componentType":5126,
			"count":487,
			"max":[
				0.43478238582611084,
				-0.6847826242446899,
				0.043478287756443024
			],
			"min":[
				0.4021736979484558,
				-0.7445651888847351,
				2.9802322387695312e-08
			],
			"type":"VEC3"
		},
		{
			"bufferView":30,
			"componentType":5126,
			"count":487,
			"type":"VEC3"
		},
		{
			"bufferView":31,
			"componentType":5123,
			"count":1404,
			"type":"SCALAR"
		},
		{
			"bufferView":32,
			"componentType":5126,
			"count":4,
			"max":[
				0.4293476343154907,
				-0.730434775352478,
				0.04130437597632408
			],
			"min":[
				0.420651912689209,
				-0.7445651888847351,
				0.04130437597632408
			],
			"type":"VEC3"
		},
		{
			"bufferView":33,
			"componentType":5126,
			"count":4,
			"type":"VEC3"
		},
		{
			"bufferView":34,
			"componentType":5126,
			"count":38,
			"max":[
				0.4293476343154907,
				-0.697826087474823,
				0.04130437225103378
			],
			"min":[
				0.4076085090637207,
				-0.7369564771652222,
				0.04130437225103378
			],
			"type":"VEC3"
		},
		{
			"bufferView":35,
			"componentType":5126,
			"count":38,
			"type":"VEC3"
		},
		{
			"bufferView":36,
			"componentType":5123,
			"count":60,
			"type":"SCALAR"
		},
		{
			"bufferView":37,
			"componentType":5126,
			"count":24,
			"max":[
				0.4176972508430481,
				-0.6831786036491394,
				0.04192904755473137
			],
			"min":[
				0.40465378761291504,
				-0.6904782652854919,
				0.023913070559501648
			],
			"type":"VEC3"
		},
		{
			"bufferView":38,
			"componentType":5126,
			"count":24,
			"type":"VEC3"
		},
		{
			"bufferView":39,
			"componentType":5126,
			"count":24,
			"max":[
				0.4298062324523926,
				-0.6831786036491394,
				0.019565248861908913
			],
			"min":[
				0.4167627692222595,
				-0.6904782652854919,
				0.0015492746606469154
			],
			"type":"VEC3"
		},
		{
			"bufferView":40,
			"componentType":5126,
			"count":24,
			"type":"VEC3"
		}
	],
	"bufferViews":[
		{
			"buffer":0,
			"byteLength":15528,
			"byteOffset":0,
			"target":34962
		},
		{
			"buffer":0,
			"byteLength":15528,
			"byteOffset":15528,
			"target":34962
		},
		{
			"buffer":0,
			"byteLength":9252,
			"byteOffset":31056,
			"target":34963
		},
		{
			"buffer":0,
			"byteLength":48,
			"byteOffset":40308,
			"target":34962
		},
		{
			"buffer":0,
			"byteLength":48,
			"byteOffset":40356,
			"target":34962
		},
		{
			"buffer":0,
			"byteLength":12,
			"byteOffset":40404,
			"target":34963
		},
		{
			"buffer":0,
			"byteLength":960,
			"byteOffset":40416,
			"target":34962
		},
		{
			"buffer":0,
			"byteLength":960,
			"byteOffset":41376,
			"target":34962
		},
		{
			"buffer":0,
			"byteLength":240,
			"byteOffset":42336,
			"target":34963
		},
		{
			"buffer":0,
			"byteLength":288,
			"byteOffset":42576,
			"target":34962
		},
		{
			"buffer":0,
			"byteLength":288,
			"byteOffset":42864,
			"target":34962
		},
		{
			"buffer":0,
			"byteLength":72,
			"byteOffset":43152,
			"target":34963
		},
		{
			"buffer":0,
			"byteLength":288,
			"byteOffset":43224,
			"target":34962
		},
		{
			"buffer":0,
			"byteLength":288,
			"byteOffset":43512,
			"target":34962
		},
		{
			"buffer":0,
			"byteLength":72,
			"byteOffset":43800,
			"target":34963
		},
		{
			"buffer":0,
			"byteLength":10668,
			"byteOffset":43872,
			"target":34962
		},
		{
			"buffer":0,
			"byteLength":10668,
			"byteOffset":54540,
			"target":34962
		},
		{
			"buffer":0,
			"byteLength":5640,
			"byteOffset":65208,
			"target":34963
		},
		{
			"buffer":0,
			"byteLength":48,
			"byteOffset":70848,
			"target":34962
		},
		{
			"buffer":0,
			"byteLength":48,
			"byteOffset":70896,
			"target":34962
		},
		{
			"buffer":0,
			"byteLength":816,
			"byteOffset":70944,
			"target":34962
		},
		{
			"buffer":0,
			"byteLength":816,
			"byteOffset":71760,
			"target":34962
		},
		{
			"buffer":0,
			"byteLength":204,
			"byteOffset":72576,
			"target":34963
		},
		{
			"buffer":0,
			"byteLength":288,
			"byteOffset":72780,
			"target":34962
		},
		{
			"buffer":0,
			"byteLength":288,
			"byteOffset":73068,
			"target":34962
		},
		{
			"buffer":0,
			"byteLength":72,
			"byteOffset":73356,
			"target":34963
		},
		{
			"buffer":0,
			"byteLength":288,
			"byteOffset":73428,
			"target":34962
		},
		{
			"buffer":0,
			"byteLength":288,
			"byteOffset":73716,
			"target":34962
		},
		{
			"buffer":0,
			"byteLength":72,
			"byteOffset":74004,
			"target":34963
		},
		{
			"buffer":0,
			"byteLength":5844,
			"byteOffset":74076,
			"target":34962
		},
		{
			"buffer":0,
			"byteLength":5844,
			"byteOffset":79920,
			"target":34962
		},
		{
			"buffer":0,
			"byteLength":2808,
			"byteOffset":85764,
			"target":34963
		},
		{
			"buffer":0,
			"byteLength":48,
			"byteOffset":88572,
			"target":34962
		},
		{
			"buffer":0,
			"byteLength":48,
			"byteOffset":88620,
			"target":34962
		},
		{
			"buffer":0,
			"byteLength":456,
			"byteOffset":88668,
			"target":34962
		},
		{
			"buffer":0,
			"byteLength":456,
			"byteOffset":89124,
			"target":34962
		},
		{
			"buffer":0,
			"byteLength":120,
			"byteOffset":89580,
			"target":34963
		},
		{
			"buffer":0,
			"byteLength":288,
			"byteOffset":89700,
			"target":34962
		},
		{
			"buffer":0,
			"byteLength":288,
			"byteOffset":89988,
			"target":34962
		},
		{
			"buffer":0,
			"byteLength":288,
			"byteOffset":90276,
			"target":34962
		},
		{
			"buffer":0,
			"byteLength":288,
			"byteOffset":90564,
			"target":34962
		}
	],
	"buffers":[
		{
			"byteLength":90852,
			"uri":"BinaGrup5.bin"
		}
	]
}
