{
	"asset":{
		"generator":"Khronos glTF Blender I/O v4.2.60",
		"version":"2.0"
	},
	"scene":0,
	"scenes":[
		{
			"name":"Scene",
			"nodes":[
				0,
				1,
				2,
				3,
				4,
				5,
				6,
				7,
				8,
				9,
				10,
				11,
				12,
				13,
				14
			]
		}
	],
	"nodes":[
		{
			"mesh":0,
			"name":"Building_073.017"
		},
		{
			"mesh":1,
			"name":"Building_073.018"
		},
		{
			"mesh":2,
			"name":"Building_073.019"
		},
		{
			"mesh":3,
			"name":"Building_073_RoofCap_0.001"
		},
		{
			"mesh":4,
			"name":"Building_073_RoofCap_1.001"
		},
		{
			"mesh":5,
			"name":"Building_075.017"
		},
		{
			"mesh":6,
			"name":"Building_075.018"
		},
		{
			"mesh":7,
			"name":"Building_075.019"
		},
		{
			"mesh":8,
			"name":"Building_075_RoofCap_0.001"
		},
		{
			"mesh":9,
			"name":"Building_075_RoofCap_1.001"
		},
		{
			"mesh":10,
			"name":"Building_083.017"
		},
		{
			"mesh":11,
			"name":"Building_083.018"
		},
		{
			"mesh":12,
			"name":"Building_083.019"
		},
		{
			"mesh":13,
			"name":"Building_083_RoofCap_0.001"
		},
		{
			"mesh":14,
			"name":"Building_083_RoofCap_1.001"
		}
	],
	"materials":[
		{
			"doubleSided":true,
			"name":"BinaSolar",
			"pbrMetallicRoughness":{
				"baseColorFactor":[
					0,
					0.08021967113018036,
					0.7230553030967712,
					1
				],
				"metallicFactor":0,
				"roughnessFactor":0.699999988079071
			}
		},
		{
			"doubleSided":true,
			"name":"PencereSolarKapal\u0131",
			"pbrMetallicRoughness":{
				"baseColorFactor":[
					0,
					0.04817177355289459,
					0.3185468912124634,
					1
				],
				"metallicFactor":0,
				"roughnessFactor":0.699999988079071
			}
		},
		{
			"doubleSided":true,
			"name":"Mat_Roof_Cap",
			"pbrMetallicRoughness":{
				"baseColorFactor":[
					0.9822452664375305,
					0.38132646679878235,
					0.0030353753827512264,
					1
				],
				"metallicFactor":0,
				"roughnessFactor":0.699999988079071
			}
		}
	],
	"meshes":[
		{
			"name":"Building_073_Mesh.017",
			"primitives":[
				{
					"attributes":{
						"POSITION":0,
						"NORMAL":1
					},
					"indices":2,
					"material":0
				}
			]
		},
		{
			"name":"Building_073_Mesh.018",
			"primitives":[
				{
					"attributes":{
						"POSITION":3,
						"NORMAL":4
					},
					"indices":5,
					"material":0
				}
			]
		},
		{
			"name":"Building_073_Mesh.019",
			"primitives":[
				{
					"attributes":{
						"POSITION":6,
						"NORMAL":7
					},
					"indices":8,
					"material":1
				}
			]
		},
		{
			"name":"Building_073_RoofCap_0_Mesh.002",
			"primitives":[
				{
					"attributes":{
						"POSITION":9,
						"NORMAL":10
					},
					"indices":11,
					"material":2
				}
			]
		},
		{
			"name":"Building_073_RoofCap_1_Mesh.002",
			"primitives":[
				{
					"attributes":{
						"POSITION":12,
						"NORMAL":13
					},
					"indices":14,
					"material":2
				}
			]
		},
		{
			"name":"Building_075_Mesh.017",
			"primitives":[
				{
					"attributes":{
						"POSITION":15,
						"NORMAL":16
					},
					"indices":17,
					"material":0
				}
			]
		},
		{
			"name":"Building_075_Mesh.018",
			"primitives":[
				{
					"attributes":{
						"POSITION":18,
						"NORMAL":19
					},
					"indices":5,
					"material":0
				}
			]
		},
		{
			"name":"Building_075_Mesh.019",
			"primitives":[
				{
					"attributes":{
						"POSITION":20,
						"NORMAL":21
					},
					"indices":22,
					"material":1
				}
			]
		},
		{
			"name":"Building_075_RoofCap_0_Mesh.002",
			"primitives":[
				{
					"attributes":{
						"POSITION":23,
						"NORMAL":24
					},
					"indices":25,
					"material":2
				}
			]
		},
		{
			"name":"Building_075_RoofCap_1_Mesh.002",
			"primitives":[
				{
					"attributes":{
						"POSITION":26,
						"NORMAL":27
					},
					"indices":28,
					"material":2
				}
			]
		},
		{
			"name":"Building_083_Mesh.017",
			"primitives":[
				{
					"attributes":{
						"POSITION":29,
						"NORMAL":30
					},
					"indices":31,
					"material":0
				}
			]
		},
		{
			"name":"Building_083_Mesh.018",
			"primitives":[
				{
					"attributes":{
						"POSITION":32,
						"NORMAL":33
					},
					"indices":5,
					"material":0
				}
			]
		},
		{
			"name":"Building_083_Mesh.019",
			"primitives":[
				{
					"attributes":{
						"POSITION":34,
						"NORMAL":35
					},
					"indices":36,
					"material":1
				}
			]
		},
		{
			"name":"Building_083_RoofCap_0_Mesh.002",
			"primitives":[
				{
					"attributes":{
						"POSITION":37,
						"NORMAL":38
					},
					"indices":39,
					"material":2
				}
			]
		},
		{
			"name":"Building_083_RoofCap_1_Mesh.002",
			"primitives":[
				{
					"attributes":{
						"POSITION":40,
						"NORMAL":41
					},
					"indices":14,
					"material":2
				}
			]
		}
	],
	"accessors":[
		{
			"bufferView":0,
			"componentType":5126,
			"count":308,
			"max":[
				0.35869544744491577,
				-0.60326087474823,
				0.05434785410761833
			],
			"min":[
				0.32608675956726074,
				-0.64673912525177,
				2.9802322387695312e-08
			],
			"type":"VEC3"
		},
		{
			"bufferView":1,
			"componentType":5126,
			"count":308,
			"type":"VEC3"
		},
		{
			"bufferView":2,
			"componentType":5123,
			"count":750,
			"type":"SCALAR"
		},
		{
			"bufferView":3,
			"componentType":5126,
			"count":4,
			"max":[
				0.3532606363296509,
				-0.6326086521148682,
				0.05217394232749939
			],
			"min":[
				0.3445649743080139,
				-0.64673912525177,
				0.05217394232749939
			],
			"type":"VEC3"
		},
		{
			"bufferView":4,
			"componentType":5126,
			"count":4,
			"type":"VEC3"
		},
		{
			"bufferView":5,
			"componentType":5123,
			"count":6,
			"type":"SCALAR"
		},
		{
			"bufferView":6,
			"componentType":5126,
			"count":16,
			"max":[
				0.35326069593429565,
				-0.616304337978363,
				0.05217394232749939
			],
			"min":[
				0.33152157068252563,
				-0.6391304135322571,
				0.05217394232749939
			],
			"type":"VEC3"
		},
		{
			"bufferView":7,
			"componentType":5126,
			"count":16,
			"type":"VEC3"
		},
		{
			"bufferView":8,
			"componentType":5123,
			"count":24,
			"type":"SCALAR"
		},
		{
			"bufferView":9,
			"componentType":5126,
			"count":24,
			"max":[
				0.3525761365890503,
				-0.6030165553092957,
				0.04670301452279091
			],
			"min":[
				0.3330109119415283,
				-0.6077390909194946,
				0.035326115787029266
			],
			"type":"VEC3"
		},
		{
			"bufferView":10,
			"componentType":5126,
			"count":24,
			"type":"VEC3"
		},
		{
			"bufferView":11,
			"componentType":5123,
			"count":36,
			"type":"SCALAR"
		},
		{
			"bufferView":12,
			"componentType":5126,
			"count":24,
			"max":[
				0.344157874584198,
				-0.6023209095001221,
				0.021739158779382706
			],
			"min":[
				0.33111441135406494,
				-0.6083478331565857,
				0.004927479662001133
			],
			"type":"VEC3"
		},
		{
			"bufferView":13,
			"componentType":5126,
			"count":24,
			"type":"VEC3"
		},
		{
			"bufferView":14,
			"componentType":5123,
			"count":36,
			"type":"SCALAR"
		},
		{
			"bufferView":15,
			"componentType":5126,
			"count":514,
			"max":[
				0.36684757471084595,
				-0.7945652008056641,
				0.05434786155819893
			],
			"min":[
				0.317934513092041,
				-0.8423912525177002,
				2.9802322387695312e-08
			],
			"type":"VEC3"
		},
		{
			"bufferView":16,
			"componentType":5126,
			"count":514,
			"type":"VEC3"
		},
		{
			"bufferView":17,
			"componentType":5123,
			"count":1434,
			"type":"SCALAR"
		},
		{
			"bufferView":18,
			"componentType":5126,
			"count":4,
			"max":[
				0.3510867953300476,
				-0.8282608389854431,
				0.05217394232749939
			],
			"min":[
				0.3336954116821289,
				-0.8423912525177002,
				0.05217394232749939
			],
			"type":"VEC3"
		},
		{
			"bufferView":19,
			"componentType":5126,
			"count":4,
			"type":"VEC3"
		},
		{
			"bufferView":20,
			"componentType":5126,
			"count":32,
			"max":[
				0.36195629835128784,
				-0.811956524848938,
				0.05217394232749939
			],
			"min":[
				0.32282590866088867,
				-0.834782600402832,
				0.05217394232749939
			],
			"type":"VEC3"
		},
		{
			"bufferView":21,
			"componentType":5126,
			"count":32,
			"type":"VEC3"
		},
		{
			"bufferView":22,
			"componentType":5123,
			"count":48,
			"type":"SCALAR"
		},
		{
			"bufferView":23,
			"componentType":5126,
			"count":24,
			"max":[
				0.36337316036224365,
				-0.7957206964492798,
				0.04700305312871933
			],
			"min":[
				0.33402538299560547,
				-0.8020869493484497,
				0.035326115787029266
			],
			"type":"VEC3"
		},
		{
			"bufferView":24,
			"componentType":5126,
			"count":24,
			"type":"VEC3"
		},
		{
			"bufferView":25,
			"componentType":5123,
			"count":36,
			"type":"SCALAR"
		},
		{
			"bufferView":26,
			"componentType":5126,
			"count":24,
			"max":[
				0.35730475187301636,
				-0.7945902347564697,
				0.021739158779382706
			],
			"min":[
				0.3377395272254944,
				-0.8031303882598877,
				0.00462743965908885
			],
			"type":"VEC3"
		},
		{
			"bufferView":27,
			"componentType":5126,
			"count":24,
			"type":"VEC3"
		},
		{
			"bufferView":28,
			"componentType":5123,
			"count":36,
			"type":"SCALAR"
		},
		{
			"bufferView":29,
			"componentType":5126,
			"count":524,
			"max":[
				0.4429345726966858,
				-0.89673912525177,
				0.05434785038232803
			],
			"min":[
				0.39402157068252563,
				-0.9402173757553101,
				2.9802322387695312e-08
			],
			"type":"VEC3"
		},
		{
			"bufferView":30,
			"componentType":5126,
			"count":524,
			"type":"VEC3"
		},
		{
			"bufferView":31,
			"componentType":5123,
			"count":1488,
			"type":"SCALAR"
		},
		{
			"bufferView":32,
			"componentType":5126,
			"count":4,
			"max":[
				0.4380432963371277,
				-0.9260869026184082,
				0.05217394232749939
			],
			"min":[
				0.431521475315094,
				-0.9402173757553101,
				0.05217394232749939
			],
			"type":"VEC3"
		},
		{
			"bufferView":33,
			"componentType":5126,
			"count":4,
			"type":"VEC3"
		},
		{
			"bufferView":34,
			"componentType":5126,
			"count":28,
			"max":[
				0.4380432963371277,
				-0.9097825884819031,
				0.05217394232749939
			],
			"min":[
				0.39891284704208374,
				-0.9347826242446899,
				0.05217394232749939
			],
			"type":"VEC3"
		},
		{
			"bufferView":35,
			"componentType":5126,
			"count":28,
			"type":"VEC3"
		},
		{
			"bufferView":36,
			"componentType":5123,
			"count":42,
			"type":"SCALAR"
		},
		{
			"bufferView":37,
			"componentType":5126,
			"count":24,
			"max":[
				0.42480725049972534,
				-0.8951034545898438,
				0.052137795835733414
			],
			"min":[
				0.39545947313308716,
				-0.902434766292572,
				0.029891332611441612
			],
			"type":"VEC3"
		},
		{
			"bufferView":38,
			"componentType":5126,
			"count":24,
			"type":"VEC3"
		},
		{
			"bufferView":39,
			"componentType":5123,
			"count":36,
			"type":"SCALAR"
		},
		{
			"bufferView":40,
			"componentType":5126,
			"count":24,
			"max":[
				0.4346030354499817,
				-0.8951034545898438,
				0.024456551298499107
			],
			"min":[
				0.39547258615493774,
				-0.902434766292572,
				0.0022100876085460186
			],
			"type":"VEC3"
		},
		{
			"bufferView":41,
			"componentType":5126,
			"count":24,
			"type":"VEC3"
		}
	],
	"bufferViews":[
		{
			"buffer":0,
			"byteLength":3696,
			"byteOffset":0,
			"target":34962
		},
		{
			"buffer":0,
			"byteLength":3696,
			"byteOffset":3696,
			"target":34962
		},
		{
			"buffer":0,
			"byteLength":1500,
			"byteOffset":7392,
			"target":34963
		},
		{
			"buffer":0,
			"byteLength":48,
			"byteOffset":8892,
			"target":34962
		},
		{
			"buffer":0,
			"byteLength":48,
			"byteOffset":8940,
			"target":34962
		},
		{
			"buffer":0,
			"byteLength":12,
			"byteOffset":8988,
			"target":34963
		},
		{
			"buffer":0,
			"byteLength":192,
			"byteOffset":9000,
			"target":34962
		},
		{
			"buffer":0,
			"byteLength":192,
			"byteOffset":9192,
			"target":34962
		},
		{
			"buffer":0,
			"byteLength":48,
			"byteOffset":9384,
			"target":34963
		},
		{
			"buffer":0,
			"byteLength":288,
			"byteOffset":9432,
			"target":34962
		},
		{
			"buffer":0,
			"byteLength":288,
			"byteOffset":9720,
			"target":34962
		},
		{
			"buffer":0,
			"byteLength":72,
			"byteOffset":10008,
			"target":34963
		},
		{
			"buffer":0,
			"byteLength":288,
			"byteOffset":10080,
			"target":34962
		},
		{
			"buffer":0,
			"byteLength":288,
			"byteOffset":10368,
			"target":34962
		},
		{
			"buffer":0,
			"byteLength":72,
			"byteOffset":10656,
			"target":34963
		},
		{
			"buffer":0,
			"byteLength":6168,
			"byteOffset":10728,
			"target":34962
		},
		{
			"buffer":0,
			"byteLength":6168,
			"byteOffset":16896,
			"target":34962
		},
		{
			"buffer":0,
			"byteLength":2868,
			"byteOffset":23064,
			"target":34963
		},
		{
			"buffer":0,
			"byteLength":48,
			"byteOffset":25932,
			"target":34962
		},
		{
			"buffer":0,
			"byteLength":48,
			"byteOffset":25980,
			"target":34962
		},
		{
			"buffer":0,
			"byteLength":384,
			"byteOffset":26028,
			"target":34962
		},
		{
			"buffer":0,
			"byteLength":384,
			"byteOffset":26412,
			"target":34962
		},
		{
			"buffer":0,
			"byteLength":96,
			"byteOffset":26796,
			"target":34963
		},
		{
			"buffer":0,
			"byteLength":288,
			"byteOffset":26892,
			"target":34962
		},
		{
			"buffer":0,
			"byteLength":288,
			"byteOffset":27180,
			"target":34962
		},
		{
			"buffer":0,
			"byteLength":72,
			"byteOffset":27468,
			"target":34963
		},
		{
			"buffer":0,
			"byteLength":288,
			"byteOffset":27540,
			"target":34962
		},
		{
			"buffer":0,
			"byteLength":288,
			"byteOffset":27828,
			"target":34962
		},
		{
			"buffer":0,
			"byteLength":72,
			"byteOffset":28116,
			"target":34963
		},
		{
			"buffer":0,
			"byteLength":6288,
			"byteOffset":28188,
			"target":34962
		},
		{
			"buffer":0,
			"byteLength":6288,
			"byteOffset":34476,
			"target":34962
		},
		{
			"buffer":0,
			"byteLength":2976,
			"byteOffset":40764,
			"target":34963
		},
		{
			"buffer":0,
			"byteLength":48,
			"byteOffset":43740,
			"target":34962
		},
		{
			"buffer":0,
			"byteLength":48,
			"byteOffset":43788,
			"target":34962
		},
		{
			"buffer":0,
			"byteLength":336,
			"byteOffset":43836,
			"target":34962
		},
		{
			"buffer":0,
			"byteLength":336,
			"byteOffset":44172,
			"target":34962
		},
		{
			"buffer":0,
			"byteLength":84,
			"byteOffset":44508,
			"target":34963
		},
		{
			"buffer":0,
			"byteLength":288,
			"byteOffset":44592,
			"target":34962
		},
		{
			"buffer":0,
			"byteLength":288,
			"byteOffset":44880,
			"target":34962
		},
		{
			"buffer":0,
			"byteLength":72,
			"byteOffset":45168,
			"target":34963
		},
		{
			"buffer":0,
			"byteLength":288,
			"byteOffset":45240,
			"target":34962
		},
		{
			"buffer":0,
			"byteLength":288,
			"byteOffset":45528,
			"target":34962
		}
	],
	"buffers":[
		{
			"byteLength":45816,
			"uri":"BinaGrup2.bin"
		}
	]
}
