{
	"asset":{
		"generator":"Khronos glTF Blender I/O v4.2.60",
		"version":"2.0"
	},
	"scene":0,
	"scenes":[
		{
			"name":"Scene",
			"nodes":[
				0,
				1,
				2,
				3,
				4,
				5,
				6,
				7,
				8,
				9,
				10,
				11,
				12,
				13,
				14,
				15,
				16,
				17,
				18,
				19,
				20,
				21,
				22,
				23,
				24,
				25,
				26
			]
		}
	],
	"nodes":[
		{
			"mesh":0,
			"name":"Building_035.019"
		},
		{
			"mesh":1,
			"name":"Building_035.020"
		},
		{
			"mesh":2,
			"name":"Building_035.021"
		},
		{
			"mesh":3,
			"name":"Building_035_RoofCap_0.004"
		},
		{
			"mesh":4,
			"name":"Building_035_RoofCap_1.004"
		},
		{
			"mesh":5,
			"name":"Building_043.019"
		},
		{
			"mesh":6,
			"name":"Building_043.020"
		},
		{
			"mesh":7,
			"name":"Building_043.021"
		},
		{
			"mesh":8,
			"name":"Building_043_RoofCap_0.004"
		},
		{
			"mesh":9,
			"name":"Building_045.019"
		},
		{
			"mesh":10,
			"name":"Building_045.020"
		},
		{
			"mesh":11,
			"name":"Building_045.021"
		},
		{
			"mesh":12,
			"name":"Building_045_RoofCap_0.004"
		},
		{
			"mesh":13,
			"name":"Building_050.019"
		},
		{
			"mesh":14,
			"name":"Building_050.020"
		},
		{
			"mesh":15,
			"name":"Building_050.021"
		},
		{
			"mesh":16,
			"name":"Building_050_RoofCap_0.004"
		},
		{
			"mesh":17,
			"name":"Building_068.019"
		},
		{
			"mesh":18,
			"name":"Building_068.020"
		},
		{
			"mesh":19,
			"name":"Building_068.021"
		},
		{
			"mesh":20,
			"name":"Building_068_RoofCap_0.004"
		},
		{
			"mesh":21,
			"name":"Building_068_RoofCap_1.004"
		},
		{
			"mesh":22,
			"name":"Building_083.017"
		},
		{
			"mesh":23,
			"name":"Building_083.018"
		},
		{
			"mesh":24,
			"name":"Building_083.019"
		},
		{
			"mesh":25,
			"name":"Building_083_RoofCap_0.001"
		},
		{
			"mesh":26,
			"name":"Building_083_RoofCap_1.001"
		}
	],
	"materials":[
		{
			"doubleSided":true,
			"name":"BinaSolar",
			"pbrMetallicRoughness":{
				"baseColorFactor":[
					0,
					0.08021967113018036,
					0.7230553030967712,
					1
				],
				"metallicFactor":0,
				"roughnessFactor":0.699999988079071
			}
		},
		{
			"doubleSided":true,
			"name":"PencereSolarKapal\u0131",
			"pbrMetallicRoughness":{
				"baseColorFactor":[
					0,
					0.04817177355289459,
					0.3185468912124634,
					1
				],
				"metallicFactor":0,
				"roughnessFactor":0.699999988079071
			}
		},
		{
			"doubleSided":true,
			"name":"Mat_Roof_Cap",
			"pbrMetallicRoughness":{
				"baseColorFactor":[
					0.9822452664375305,
					0.38132646679878235,
					0.0030353753827512264,
					1
				],
				"metallicFactor":0,
				"roughnessFactor":0.699999988079071
			}
		}
	],
	"meshes":[
		{
			"name":"Building_035_Mesh.021",
			"primitives":[
				{
					"attributes":{
						"POSITION":0,
						"NORMAL":1
					},
					"indices":2,
					"material":0
				}
			]
		},
		{
			"name":"Building_035_Mesh.022",
			"primitives":[
				{
					"attributes":{
						"POSITION":3,
						"NORMAL":4
					},
					"indices":5,
					"material":1
				}
			]
		},
		{
			"name":"Building_035_Mesh.023",
			"primitives":[
				{
					"attributes":{
						"POSITION":6,
						"NORMAL":7
					},
					"indices":8,
					"material":0
				}
			]
		},
		{
			"name":"Building_035_RoofCap_0_Mesh.004",
			"primitives":[
				{
					"attributes":{
						"POSITION":9,
						"NORMAL":10
					},
					"indices":11,
					"material":2
				}
			]
		},
		{
			"name":"Building_035_RoofCap_1_Mesh.004",
			"primitives":[
				{
					"attributes":{
						"POSITION":12,
						"NORMAL":13
					},
					"indices":14,
					"material":2
				}
			]
		},
		{
			"name":"Building_043_Mesh.021",
			"primitives":[
				{
					"attributes":{
						"POSITION":15,
						"NORMAL":16
					},
					"indices":17,
					"material":0
				}
			]
		},
		{
			"name":"Building_043_Mesh.022",
			"primitives":[
				{
					"attributes":{
						"POSITION":18,
						"NORMAL":19
					},
					"indices":20,
					"material":1
				}
			]
		},
		{
			"name":"Building_043_Mesh.023",
			"primitives":[
				{
					"attributes":{
						"POSITION":21,
						"NORMAL":22
					},
					"indices":8,
					"material":0
				}
			]
		},
		{
			"name":"Building_043_RoofCap_0_Mesh.004",
			"primitives":[
				{
					"attributes":{
						"POSITION":23,
						"NORMAL":24
					},
					"indices":25,
					"material":2
				}
			]
		},
		{
			"name":"Building_045_Mesh.021",
			"primitives":[
				{
					"attributes":{
						"POSITION":26,
						"NORMAL":27
					},
					"indices":28,
					"material":0
				}
			]
		},
		{
			"name":"Building_045_Mesh.022",
			"primitives":[
				{
					"attributes":{
						"POSITION":29,
						"NORMAL":30
					},
					"indices":5,
					"material":1
				}
			]
		},
		{
			"name":"Building_045_Mesh.023",
			"primitives":[
				{
					"attributes":{
						"POSITION":31,
						"NORMAL":32
					},
					"indices":8,
					"material":0
				}
			]
		},
		{
			"name":"Building_045_RoofCap_0_Mesh.004",
			"primitives":[
				{
					"attributes":{
						"POSITION":33,
						"NORMAL":34
					},
					"indices":11,
					"material":2
				}
			]
		},
		{
			"name":"Building_050_Mesh.021",
			"primitives":[
				{
					"attributes":{
						"POSITION":35,
						"NORMAL":36
					},
					"indices":37,
					"material":0
				}
			]
		},
		{
			"name":"Building_050_Mesh.022",
			"primitives":[
				{
					"attributes":{
						"POSITION":38,
						"NORMAL":39
					},
					"indices":40,
					"material":1
				}
			]
		},
		{
			"name":"Building_050_Mesh.023",
			"primitives":[
				{
					"attributes":{
						"POSITION":41,
						"NORMAL":42
					},
					"indices":8,
					"material":0
				}
			]
		},
		{
			"name":"Building_050_RoofCap_0_Mesh.004",
			"primitives":[
				{
					"attributes":{
						"POSITION":43,
						"NORMAL":44
					},
					"indices":11,
					"material":2
				}
			]
		},
		{
			"name":"Building_068_Mesh.021",
			"primitives":[
				{
					"attributes":{
						"POSITION":45,
						"NORMAL":46
					},
					"indices":47,
					"material":0
				}
			]
		},
		{
			"name":"Building_068_Mesh.022",
			"primitives":[
				{
					"attributes":{
						"POSITION":48,
						"NORMAL":49
					},
					"indices":50,
					"material":1
				}
			]
		},
		{
			"name":"Building_068_Mesh.023",
			"primitives":[
				{
					"attributes":{
						"POSITION":51,
						"NORMAL":52
					},
					"indices":8,
					"material":0
				}
			]
		},
		{
			"name":"Building_068_RoofCap_0_Mesh.004",
			"primitives":[
				{
					"attributes":{
						"POSITION":53,
						"NORMAL":54
					},
					"indices":11,
					"material":2
				}
			]
		},
		{
			"name":"Building_068_RoofCap_1_Mesh.004",
			"primitives":[
				{
					"attributes":{
						"POSITION":55,
						"NORMAL":56
					},
					"indices":57,
					"material":2
				}
			]
		},
		{
			"name":"Building_083_Mesh.017",
			"primitives":[
				{
					"attributes":{
						"POSITION":58,
						"NORMAL":59
					},
					"indices":60,
					"material":0
				}
			]
		},
		{
			"name":"Building_083_Mesh.018",
			"primitives":[
				{
					"attributes":{
						"POSITION":61,
						"NORMAL":62
					},
					"indices":8,
					"material":0
				}
			]
		},
		{
			"name":"Building_083_Mesh.019",
			"primitives":[
				{
					"attributes":{
						"POSITION":63,
						"NORMAL":64
					},
					"indices":65,
					"material":1
				}
			]
		},
		{
			"name":"Building_083_RoofCap_0_Mesh.002",
			"primitives":[
				{
					"attributes":{
						"POSITION":66,
						"NORMAL":67
					},
					"indices":68,
					"material":2
				}
			]
		},
		{
			"name":"Building_083_RoofCap_1_Mesh.002",
			"primitives":[
				{
					"attributes":{
						"POSITION":69,
						"NORMAL":70
					},
					"indices":14,
					"material":2
				}
			]
		}
	],
	"accessors":[
		{
			"bufferView":0,
			"componentType":5126,
			"count":308,
			"max":[
				-0.021739304065704346,
				-0.3076086640357971,
				0.05434786155819893
			],
			"min":[
				-0.054347991943359375,
				-0.3532608151435852,
				2.9802322387695312e-08
			],
			"type":"VEC3"
		},
		{
			"bufferView":1,
			"componentType":5126,
			"count":308,
			"type":"VEC3"
		},
		{
			"bufferView":2,
			"componentType":5123,
			"count":750,
			"type":"SCALAR"
		},
		{
			"bufferView":3,
			"componentType":5126,
			"count":20,
			"max":[
				-0.027174055576324463,
				-0.322826087474823,
				0.05217394232749939
			],
			"min":[
				-0.04891318082809448,
				-0.3500000238418579,
				0.05217394232749939
			],
			"type":"VEC3"
		},
		{
			"bufferView":4,
			"componentType":5126,
			"count":20,
			"type":"VEC3"
		},
		{
			"bufferView":5,
			"componentType":5123,
			"count":30,
			"type":"SCALAR"
		},
		{
			"bufferView":6,
			"componentType":5126,
			"count":4,
			"max":[
				-0.04021754860877991,
				-0.3391304016113281,
				0.05217394232749939
			],
			"min":[
				-0.04891321063041687,
				-0.3532608151435852,
				0.05217394232749939
			],
			"type":"VEC3"
		},
		{
			"bufferView":7,
			"componentType":5126,
			"count":4,
			"type":"VEC3"
		},
		{
			"bufferView":8,
			"componentType":5123,
			"count":6,
			"type":"SCALAR"
		},
		{
			"bufferView":9,
			"componentType":5126,
			"count":24,
			"max":[
				-0.030398458242416382,
				-0.30623382329940796,
				0.052293017506599426
			],
			"min":[
				-0.049963682889938354,
				-0.3152608275413513,
				0.029891332611441612
			],
			"type":"VEC3"
		},
		{
			"bufferView":10,
			"componentType":5126,
			"count":24,
			"type":"VEC3"
		},
		{
			"bufferView":11,
			"componentType":5123,
			"count":36,
			"type":"SCALAR"
		},
		{
			"bufferView":12,
			"componentType":5126,
			"count":24,
			"max":[
				-0.025336921215057373,
				-0.3080599308013916,
				0.019021768122911453
			],
			"min":[
				-0.044902145862579346,
				-0.31360870599746704,
				0.007489646784961224
			],
			"type":"VEC3"
		},
		{
			"bufferView":13,
			"componentType":5126,
			"count":24,
			"type":"VEC3"
		},
		{
			"bufferView":14,
			"componentType":5123,
			"count":36,
			"type":"SCALAR"
		},
		{
			"bufferView":15,
			"componentType":5126,
			"count":481,
			"max":[
				0.05434766411781311,
				-0.39782607555389404,
				0.06521742045879364
			],
			"min":[
				0.02173897624015808,
				-0.45108696818351746,
				2.9802322387695312e-08
			],
			"type":"VEC3"
		},
		{
			"bufferView":16,
			"componentType":5126,
			"count":481,
			"type":"VEC3"
		},
		{
			"bufferView":17,
			"componentType":5123,
			"count":1389,
			"type":"SCALAR"
		},
		{
			"bufferView":18,
			"componentType":5126,
			"count":39,
			"max":[
				0.048912882804870605,
				-0.40434783697128296,
				0.0630435049533844
			],
			"min":[
				0.027173757553100586,
				-0.44565218687057495,
				0.0630435049533844
			],
			"type":"VEC3"
		},
		{
			"bufferView":19,
			"componentType":5126,
			"count":39,
			"type":"VEC3"
		},
		{
			"bufferView":20,
			"componentType":5123,
			"count":63,
			"type":"SCALAR"
		},
		{
			"bufferView":21,
			"componentType":5126,
			"count":4,
			"max":[
				0.04891291260719299,
				-0.436956524848938,
				0.0630435049533844
			],
			"min":[
				0.04021722078323364,
				-0.45108696818351746,
				0.0630435049533844
			],
			"type":"VEC3"
		},
		{
			"bufferView":22,
			"componentType":5126,
			"count":4,
			"type":"VEC3"
		},
		{
			"bufferView":23,
			"componentType":5126,
			"count":24,
			"max":[
				0.04445365071296692,
				-0.39222168922424316,
				0.05883128568530083
			],
			"min":[
				0.031410157680511475,
				-0.39765220880508423,
				0.006521767936646938
			],
			"type":"VEC3"
		},
		{
			"bufferView":24,
			"componentType":5126,
			"count":24,
			"type":"VEC3"
		},
		{
			"bufferView":25,
			"componentType":5123,
			"count":36,
			"type":"SCALAR"
		},
		{
			"bufferView":26,
			"componentType":5126,
			"count":292,
			"max":[
				0.05434763431549072,
				-0.6097825765609741,
				0.06521742045879364
			],
			"min":[
				0.021738946437835693,
				-0.64673912525177,
				2.9802322387695312e-08
			],
			"type":"VEC3"
		},
		{
			"bufferView":27,
			"componentType":5126,
			"count":292,
			"type":"VEC3"
		},
		{
			"bufferView":28,
			"componentType":5123,
			"count":738,
			"type":"SCALAR"
		},
		{
			"bufferView":29,
			"componentType":5126,
			"count":20,
			"max":[
				0.04891291260719299,
				-0.616304337978363,
				0.0630435049533844
			],
			"min":[
				0.027173757553100586,
				-0.643478274345398,
				0.0630435049533844
			],
			"type":"VEC3"
		},
		{
			"bufferView":30,
			"componentType":5126,
			"count":20,
			"type":"VEC3"
		},
		{
			"bufferView":31,
			"componentType":5126,
			"count":4,
			"max":[
				0.03586938977241516,
				-0.6326086521148682,
				0.0630435049533844
			],
			"min":[
				0.027173727750778198,
				-0.64673912525177,
				0.0630435049533844
			],
			"type":"VEC3"
		},
		{
			"bufferView":32,
			"componentType":5126,
			"count":4,
			"type":"VEC3"
		},
		{
			"bufferView":33,
			"componentType":5126,
			"count":24,
			"max":[
				0.036603063344955444,
				-0.6041781306266785,
				0.05883128568530083
			],
			"min":[
				0.023559540510177612,
				-0.6096086502075195,
				0.006521767936646938
			],
			"type":"VEC3"
		},
		{
			"bufferView":34,
			"componentType":5126,
			"count":24,
			"type":"VEC3"
		},
		{
			"bufferView":35,
			"componentType":5126,
			"count":503,
			"max":[
				0.13858681917190552,
				-0.41413044929504395,
				0.043478287756443024
			],
			"min":[
				0.08967375755310059,
				-0.45108696818351746,
				2.9802322387695312e-08
			],
			"type":"VEC3"
		},
		{
			"bufferView":36,
			"componentType":5126,
			"count":503,
			"type":"VEC3"
		},
		{
			"bufferView":37,
			"componentType":5123,
			"count":1476,
			"type":"SCALAR"
		},
		{
			"bufferView":38,
			"componentType":5126,
			"count":32,
			"max":[
				0.13369548320770264,
				-0.42065221071243286,
				0.04130437225103378
			],
			"min":[
				0.09456509351730347,
				-0.4434782564640045,
				0.04130437225103378
			],
			"type":"VEC3"
		},
		{
			"bufferView":39,
			"componentType":5126,
			"count":32,
			"type":"VEC3"
		},
		{
			"bufferView":40,
			"componentType":5123,
			"count":48,
			"type":"SCALAR"
		},
		{
			"bufferView":41,
			"componentType":5126,
			"count":4,
			"max":[
				0.1336955428123474,
				-0.436956524848938,
				0.04130437597632408
			],
			"min":[
				0.1271737813949585,
				-0.45108696818351746,
				0.04130437597632408
			],
			"type":"VEC3"
		},
		{
			"bufferView":42,
			"componentType":5126,
			"count":4,
			"type":"VEC3"
		},
		{
			"bufferView":43,
			"componentType":5126,
			"count":24,
			"max":[
				0.12125372886657715,
				-0.4085312485694885,
				0.03933337703347206
			],
			"min":[
				0.09190589189529419,
				-0.41395652294158936,
				0.004347854293882847
			],
			"type":"VEC3"
		},
		{
			"bufferView":44,
			"componentType":5126,
			"count":24,
			"type":"VEC3"
		},
		{
			"bufferView":45,
			"componentType":5126,
			"count":873,
			"max":[
				0.2907606363296509,
				-0.782608687877655,
				0.06521742045879364
			],
			"min":[
				0.24184763431549072,
				-0.8423912525177002,
				2.9802322387695312e-08
			],
			"type":"VEC3"
		},
		{
			"bufferView":46,
			"componentType":5126,
			"count":873,
			"type":"VEC3"
		},
		{
			"bufferView":47,
			"componentType":5123,
			"count":2826,
			"type":"SCALAR"
		},
		{
			"bufferView":48,
			"componentType":5126,
			"count":64,
			"max":[
				0.2858693599700928,
				-0.7956521511077881,
				0.0630435049533844
			],
			"min":[
				0.24673891067504883,
				-0.8369565010070801,
				0.0630435049533844
			],
			"type":"VEC3"
		},
		{
			"bufferView":49,
			"componentType":5126,
			"count":64,
			"type":"VEC3"
		},
		{
			"bufferView":50,
			"componentType":5123,
			"count":96,
			"type":"SCALAR"
		},
		{
			"bufferView":51,
			"componentType":5126,
			"count":4,
			"max":[
				0.2858693599700928,
				-0.8282608389854431,
				0.0630435049533844
			],
			"min":[
				0.27934759855270386,
				-0.8423912525177002,
				0.0630435049533844
			],
			"type":"VEC3"
		},
		{
			"bufferView":52,
			"componentType":5126,
			"count":4,
			"type":"VEC3"
		},
		{
			"bufferView":53,
			"componentType":5126,
			"count":24,
			"max":[
				0.27002257108688354,
				-0.7809552550315857,
				0.06238288804888725
			],
			"min":[
				0.2504573464393616,
				-0.788304328918457,
				0.03586959466338158
			],
			"type":"VEC3"
		},
		{
			"bufferView":54,
			"componentType":5126,
			"count":24,
			"type":"VEC3"
		},
		{
			"bufferView":55,
			"componentType":5126,
			"count":24,
			"max":[
				0.26857948303222656,
				-0.7809552550315857,
				0.02934785559773445
			],
			"min":[
				0.2490142583847046,
				-0.788304328918457,
				0.002834560349583626
			],
			"type":"VEC3"
		},
		{
			"bufferView":56,
			"componentType":5126,
			"count":24,
			"type":"VEC3"
		},
		{
			"bufferView":57,
			"componentType":5123,
			"count":36,
			"type":"SCALAR"
		},
		{
			"bufferView":58,
			"componentType":5126,
			"count":524,
			"max":[
				0.4429345726966858,
				-0.89673912525177,
				0.05434785038232803
			],
			"min":[
				0.39402157068252563,
				-0.9402173757553101,
				2.9802322387695312e-08
			],
			"type":"VEC3"
		},
		{
			"bufferView":59,
			"componentType":5126,
			"count":524,
			"type":"VEC3"
		},
		{
			"bufferView":60,
			"componentType":5123,
			"count":1488,
			"type":"SCALAR"
		},
		{
			"bufferView":61,
			"componentType":5126,
			"count":4,
			"max":[
				0.4380432963371277,
				-0.9260869026184082,
				0.05217394232749939
			],
			"min":[
				0.431521475315094,
				-0.9402173757553101,
				0.05217394232749939
			],
			"type":"VEC3"
		},
		{
			"bufferView":62,
			"componentType":5126,
			"count":4,
			"type":"VEC3"
		},
		{
			"bufferView":63,
			"componentType":5126,
			"count":28,
			"max":[
				0.4380432963371277,
				-0.9097825884819031,
				0.05217394232749939
			],
			"min":[
				0.39891284704208374,
				-0.9347826242446899,
				0.05217394232749939
			],
			"type":"VEC3"
		},
		{
			"bufferView":64,
			"componentType":5126,
			"count":28,
			"type":"VEC3"
		},
		{
			"bufferView":65,
			"componentType":5123,
			"count":42,
			"type":"SCALAR"
		},
		{
			"bufferView":66,
			"componentType":5126,
			"count":24,
			"max":[
				0.42480725049972534,
				-0.8951034545898438,
				0.052137795835733414
			],
			"min":[
				0.39545947313308716,
				-0.902434766292572,
				0.029891332611441612
			],
			"type":"VEC3"
		},
		{
			"bufferView":67,
			"componentType":5126,
			"count":24,
			"type":"VEC3"
		},
		{
			"bufferView":68,
			"componentType":5123,
			"count":36,
			"type":"SCALAR"
		},
		{
			"bufferView":69,
			"componentType":5126,
			"count":24,
			"max":[
				0.4346030354499817,
				-0.8951034545898438,
				0.024456551298499107
			],
			"min":[
				0.39547258615493774,
				-0.902434766292572,
				0.0022100876085460186
			],
			"type":"VEC3"
		},
		{
			"bufferView":70,
			"componentType":5126,
			"count":24,
			"type":"VEC3"
		}
	],
	"bufferViews":[
		{
			"buffer":0,
			"byteLength":3696,
			"byteOffset":0,
			"target":34962
		},
		{
			"buffer":0,
			"byteLength":3696,
			"byteOffset":3696,
			"target":34962
		},
		{
			"buffer":0,
			"byteLength":1500,
			"byteOffset":7392,
			"target":34963
		},
		{
			"buffer":0,
			"byteLength":240,
			"byteOffset":8892,
			"target":34962
		},
		{
			"buffer":0,
			"byteLength":240,
			"byteOffset":9132,
			"target":34962
		},
		{
			"buffer":0,
			"byteLength":60,
			"byteOffset":9372,
			"target":34963
		},
		{
			"buffer":0,
			"byteLength":48,
			"byteOffset":9432,
			"target":34962
		},
		{
			"buffer":0,
			"byteLength":48,
			"byteOffset":9480,
			"target":34962
		},
		{
			"buffer":0,
			"byteLength":12,
			"byteOffset":9528,
			"target":34963
		},
		{
			"buffer":0,
			"byteLength":288,
			"byteOffset":9540,
			"target":34962
		},
		{
			"buffer":0,
			"byteLength":288,
			"byteOffset":9828,
			"target":34962
		},
		{
			"buffer":0,
			"byteLength":72,
			"byteOffset":10116,
			"target":34963
		},
		{
			"buffer":0,
			"byteLength":288,
			"byteOffset":10188,
			"target":34962
		},
		{
			"buffer":0,
			"byteLength":288,
			"byteOffset":10476,
			"target":34962
		},
		{
			"buffer":0,
			"byteLength":72,
			"byteOffset":10764,
			"target":34963
		},
		{
			"buffer":0,
			"byteLength":5772,
			"byteOffset":10836,
			"target":34962
		},
		{
			"buffer":0,
			"byteLength":5772,
			"byteOffset":16608,
			"target":34962
		},
		{
			"buffer":0,
			"byteLength":2778,
			"byteOffset":22380,
			"target":34963
		},
		{
			"buffer":0,
			"byteLength":468,
			"byteOffset":25160,
			"target":34962
		},
		{
			"buffer":0,
			"byteLength":468,
			"byteOffset":25628,
			"target":34962
		},
		{
			"buffer":0,
			"byteLength":126,
			"byteOffset":26096,
			"target":34963
		},
		{
			"buffer":0,
			"byteLength":48,
			"byteOffset":26224,
			"target":34962
		},
		{
			"buffer":0,
			"byteLength":48,
			"byteOffset":26272,
			"target":34962
		},
		{
			"buffer":0,
			"byteLength":288,
			"byteOffset":26320,
			"target":34962
		},
		{
			"buffer":0,
			"byteLength":288,
			"byteOffset":26608,
			"target":34962
		},
		{
			"buffer":0,
			"byteLength":72,
			"byteOffset":26896,
			"target":34963
		},
		{
			"buffer":0,
			"byteLength":3504,
			"byteOffset":26968,
			"target":34962
		},
		{
			"buffer":0,
			"byteLength":3504,
			"byteOffset":30472,
			"target":34962
		},
		{
			"buffer":0,
			"byteLength":1476,
			"byteOffset":33976,
			"target":34963
		},
		{
			"buffer":0,
			"byteLength":240,
			"byteOffset":35452,
			"target":34962
		},
		{
			"buffer":0,
			"byteLength":240,
			"byteOffset":35692,
			"target":34962
		},
		{
			"buffer":0,
			"byteLength":48,
			"byteOffset":35932,
			"target":34962
		},
		{
			"buffer":0,
			"byteLength":48,
			"byteOffset":35980,
			"target":34962
		},
		{
			"buffer":0,
			"byteLength":288,
			"byteOffset":36028,
			"target":34962
		},
		{
			"buffer":0,
			"byteLength":288,
			"byteOffset":36316,
			"target":34962
		},
		{
			"buffer":0,
			"byteLength":6036,
			"byteOffset":36604,
			"target":34962
		},
		{
			"buffer":0,
			"byteLength":6036,
			"byteOffset":42640,
			"target":34962
		},
		{
			"buffer":0,
			"byteLength":2952,
			"byteOffset":48676,
			"target":34963
		},
		{
			"buffer":0,
			"byteLength":384,
			"byteOffset":51628,
			"target":34962
		},
		{
			"buffer":0,
			"byteLength":384,
			"byteOffset":52012,
			"target":34962
		},
		{
			"buffer":0,
			"byteLength":96,
			"byteOffset":52396,
			"target":34963
		},
		{
			"buffer":0,
			"byteLength":48,
			"byteOffset":52492,
			"target":34962
		},
		{
			"buffer":0,
			"byteLength":48,
			"byteOffset":52540,
			"target":34962
		},
		{
			"buffer":0,
			"byteLength":288,
			"byteOffset":52588,
			"target":34962
		},
		{
			"buffer":0,
			"byteLength":288,
			"byteOffset":52876,
			"target":34962
		},
		{
			"buffer":0,
			"byteLength":10476,
			"byteOffset":53164,
			"target":34962
		},
		{
			"buffer":0,
			"byteLength":10476,
			"byteOffset":63640,
			"target":34962
		},
		{
			"buffer":0,
			"byteLength":5652,
			"byteOffset":74116,
			"target":34963
		},
		{
			"buffer":0,
			"byteLength":768,
			"byteOffset":79768,
			"target":34962
		},
		{
			"buffer":0,
			"byteLength":768,
			"byteOffset":80536,
			"target":34962
		},
		{
			"buffer":0,
			"byteLength":192,
			"byteOffset":81304,
			"target":34963
		},
		{
			"buffer":0,
			"byteLength":48,
			"byteOffset":81496,
			"target":34962
		},
		{
			"buffer":0,
			"byteLength":48,
			"byteOffset":81544,
			"target":34962
		},
		{
			"buffer":0,
			"byteLength":288,
			"byteOffset":81592,
			"target":34962
		},
		{
			"buffer":0,
			"byteLength":288,
			"byteOffset":81880,
			"target":34962
		},
		{
			"buffer":0,
			"byteLength":288,
			"byteOffset":82168,
			"target":34962
		},
		{
			"buffer":0,
			"byteLength":288,
			"byteOffset":82456,
			"target":34962
		},
		{
			"buffer":0,
			"byteLength":72,
			"byteOffset":82744,
			"target":34963
		},
		{
			"buffer":0,
			"byteLength":6288,
			"byteOffset":82816,
			"target":34962
		},
		{
			"buffer":0,
			"byteLength":6288,
			"byteOffset":89104,
			"target":34962
		},
		{
			"buffer":0,
			"byteLength":2976,
			"byteOffset":95392,
			"target":34963
		},
		{
			"buffer":0,
			"byteLength":48,
			"byteOffset":98368,
			"target":34962
		},
		{
			"buffer":0,
			"byteLength":48,
			"byteOffset":98416,
			"target":34962
		},
		{
			"buffer":0,
			"byteLength":336,
			"byteOffset":98464,
			"target":34962
		},
		{
			"buffer":0,
			"byteLength":336,
			"byteOffset":98800,
			"target":34962
		},
		{
			"buffer":0,
			"byteLength":84,
			"byteOffset":99136,
			"target":34963
		},
		{
			"buffer":0,
			"byteLength":288,
			"byteOffset":99220,
			"target":34962
		},
		{
			"buffer":0,
			"byteLength":288,
			"byteOffset":99508,
			"target":34962
		},
		{
			"buffer":0,
			"byteLength":72,
			"byteOffset":99796,
			"target":34963
		},
		{
			"buffer":0,
			"byteLength":288,
			"byteOffset":99868,
			"target":34962
		},
		{
			"buffer":0,
			"byteLength":288,
			"byteOffset":100156,
			"target":34962
		}
	],
	"buffers":[
		{
			"byteLength":100444,
			"uri":"BinaGrup9.bin"
		}
	]
}
