{
	"asset":{
		"generator":"Khronos glTF Blender I/O v4.2.60",
		"version":"2.0"
	},
	"scene":0,
	"scenes":[
		{
			"name":"Scene",
			"nodes":[
				0,
				1,
				2,
				3,
				4,
				5,
				6,
				7,
				8,
				9,
				10,
				11,
				12,
				13,
				14
			]
		}
	],
	"nodes":[
		{
			"mesh":0,
			"name":"Building_074.017"
		},
		{
			"mesh":1,
			"name":"Building_074.018"
		},
		{
			"mesh":2,
			"name":"Building_074.019"
		},
		{
			"mesh":3,
			"name":"Building_074_RoofCap_0.001"
		},
		{
			"mesh":4,
			"name":"Building_074_RoofCap_1.001"
		},
		{
			"mesh":5,
			"name":"Building_077.017"
		},
		{
			"mesh":6,
			"name":"Building_077.018"
		},
		{
			"mesh":7,
			"name":"Building_077.019"
		},
		{
			"mesh":8,
			"name":"Building_077_RoofCap_0.001"
		},
		{
			"mesh":9,
			"name":"Building_077_RoofCap_1.001"
		},
		{
			"mesh":10,
			"name":"Building_078.017"
		},
		{
			"mesh":11,
			"name":"Building_078.018"
		},
		{
			"mesh":12,
			"name":"Building_078.019"
		},
		{
			"mesh":13,
			"name":"Building_078_RoofCap_0.001"
		},
		{
			"mesh":14,
			"name":"Building_078_RoofCap_1.001"
		}
	],
	"materials":[
		{
			"doubleSided":true,
			"name":"BinaSolar",
			"pbrMetallicRoughness":{
				"baseColorFactor":[
					0,
					0.08021967113018036,
					0.7230553030967712,
					1
				],
				"metallicFactor":0,
				"roughnessFactor":0.699999988079071
			}
		},
		{
			"doubleSided":true,
			"name":"PencereSolarKapal\u0131",
			"pbrMetallicRoughness":{
				"baseColorFactor":[
					0,
					0.04817177355289459,
					0.3185468912124634,
					1
				],
				"metallicFactor":0,
				"roughnessFactor":0.699999988079071
			}
		},
		{
			"doubleSided":true,
			"name":"Mat_Roof_Cap",
			"pbrMetallicRoughness":{
				"baseColorFactor":[
					0.9822452664375305,
					0.38132646679878235,
					0.0030353753827512264,
					1
				],
				"metallicFactor":0,
				"roughnessFactor":0.699999988079071
			}
		}
	],
	"meshes":[
		{
			"name":"Building_074_Mesh.017",
			"primitives":[
				{
					"attributes":{
						"POSITION":0,
						"NORMAL":1
					},
					"indices":2,
					"material":0
				}
			]
		},
		{
			"name":"Building_074_Mesh.018",
			"primitives":[
				{
					"attributes":{
						"POSITION":3,
						"NORMAL":4
					},
					"indices":5,
					"material":0
				}
			]
		},
		{
			"name":"Building_074_Mesh.019",
			"primitives":[
				{
					"attributes":{
						"POSITION":6,
						"NORMAL":7
					},
					"indices":8,
					"material":1
				}
			]
		},
		{
			"name":"Building_074_RoofCap_0_Mesh.002",
			"primitives":[
				{
					"attributes":{
						"POSITION":9,
						"NORMAL":10
					},
					"indices":11,
					"material":2
				}
			]
		},
		{
			"name":"Building_074_RoofCap_1_Mesh.002",
			"primitives":[
				{
					"attributes":{
						"POSITION":12,
						"NORMAL":13
					},
					"indices":14,
					"material":2
				}
			]
		},
		{
			"name":"Building_077_Mesh.017",
			"primitives":[
				{
					"attributes":{
						"POSITION":15,
						"NORMAL":16
					},
					"indices":17,
					"material":0
				}
			]
		},
		{
			"name":"Building_077_Mesh.018",
			"primitives":[
				{
					"attributes":{
						"POSITION":18,
						"NORMAL":19
					},
					"indices":5,
					"material":0
				}
			]
		},
		{
			"name":"Building_077_Mesh.019",
			"primitives":[
				{
					"attributes":{
						"POSITION":20,
						"NORMAL":21
					},
					"indices":22,
					"material":1
				}
			]
		},
		{
			"name":"Building_077_RoofCap_0_Mesh.002",
			"primitives":[
				{
					"attributes":{
						"POSITION":23,
						"NORMAL":24
					},
					"indices":25,
					"material":2
				}
			]
		},
		{
			"name":"Building_077_RoofCap_1_Mesh.002",
			"primitives":[
				{
					"attributes":{
						"POSITION":26,
						"NORMAL":27
					},
					"indices":28,
					"material":2
				}
			]
		},
		{
			"name":"Building_078_Mesh.017",
			"primitives":[
				{
					"attributes":{
						"POSITION":29,
						"NORMAL":30
					},
					"indices":31,
					"material":0
				}
			]
		},
		{
			"name":"Building_078_Mesh.018",
			"primitives":[
				{
					"attributes":{
						"POSITION":32,
						"NORMAL":33
					},
					"indices":5,
					"material":0
				}
			]
		},
		{
			"name":"Building_078_Mesh.019",
			"primitives":[
				{
					"attributes":{
						"POSITION":34,
						"NORMAL":35
					},
					"indices":36,
					"material":1
				}
			]
		},
		{
			"name":"Building_078_RoofCap_0_Mesh.002",
			"primitives":[
				{
					"attributes":{
						"POSITION":37,
						"NORMAL":38
					},
					"indices":39,
					"material":2
				}
			]
		},
		{
			"name":"Building_078_RoofCap_1_Mesh.002",
			"primitives":[
				{
					"attributes":{
						"POSITION":40,
						"NORMAL":41
					},
					"indices":14,
					"material":2
				}
			]
		}
	],
	"accessors":[
		{
			"bufferView":0,
			"componentType":5126,
			"count":826,
			"max":[
				0.3668476939201355,
				-0.6847826242446899,
				0.043478287756443024
			],
			"min":[
				0.31793463230133057,
				-0.7445651888847351,
				2.9802322387695312e-08
			],
			"type":"VEC3"
		},
		{
			"bufferView":1,
			"componentType":5126,
			"count":826,
			"type":"VEC3"
		},
		{
			"bufferView":2,
			"componentType":5123,
			"count":2670,
			"type":"SCALAR"
		},
		{
			"bufferView":3,
			"componentType":5126,
			"count":4,
			"max":[
				0.3293476700782776,
				-0.730434775352478,
				0.04130437597632408
			],
			"min":[
				0.32282590866088867,
				-0.7445651888847351,
				0.04130437597632408
			],
			"type":"VEC3"
		},
		{
			"bufferView":4,
			"componentType":5126,
			"count":4,
			"type":"VEC3"
		},
		{
			"bufferView":5,
			"componentType":5123,
			"count":6,
			"type":"SCALAR"
		},
		{
			"bufferView":6,
			"componentType":5126,
			"count":52,
			"max":[
				0.36195629835128784,
				-0.697826087474823,
				0.04130437225103378
			],
			"min":[
				0.32282590866088867,
				-0.741304337978363,
				0.04130437225103378
			],
			"type":"VEC3"
		},
		{
			"bufferView":7,
			"componentType":5126,
			"count":52,
			"type":"VEC3"
		},
		{
			"bufferView":8,
			"componentType":5123,
			"count":78,
			"type":"SCALAR"
		},
		{
			"bufferView":9,
			"componentType":5126,
			"count":24,
			"max":[
				0.3627430200576782,
				-0.6831786036491394,
				0.04192904755473137
			],
			"min":[
				0.34317779541015625,
				-0.6904782652854919,
				0.023913070559501648
			],
			"type":"VEC3"
		},
		{
			"bufferView":10,
			"componentType":5126,
			"count":24,
			"type":"VEC3"
		},
		{
			"bufferView":11,
			"componentType":5123,
			"count":36,
			"type":"SCALAR"
		},
		{
			"bufferView":12,
			"componentType":5126,
			"count":24,
			"max":[
				0.3662072420120239,
				-0.6845699548721313,
				0.015217420645058155
			],
			"min":[
				0.33685946464538574,
				-0.6892608404159546,
				0.0058970982208848
			],
			"type":"VEC3"
		},
		{
			"bufferView":13,
			"componentType":5126,
			"count":24,
			"type":"VEC3"
		},
		{
			"bufferView":14,
			"componentType":5123,
			"count":36,
			"type":"SCALAR"
		},
		{
			"bufferView":15,
			"componentType":5126,
			"count":525,
			"max":[
				0.44293463230133057,
				-0.3076086640357971,
				0.06521741300821304
			],
			"min":[
				0.39402157068252563,
				-0.3532608151435852,
				2.561137080192566e-08
			],
			"type":"VEC3"
		},
		{
			"bufferView":16,
			"componentType":5126,
			"count":525,
			"type":"VEC3"
		},
		{
			"bufferView":17,
			"componentType":5123,
			"count":1488,
			"type":"SCALAR"
		},
		{
			"bufferView":18,
			"componentType":5126,
			"count":4,
			"max":[
				0.4380432963371277,
				-0.3391304016113281,
				0.0630435049533844
			],
			"min":[
				0.431521475315094,
				-0.3532608151435852,
				0.0630435049533844
			],
			"type":"VEC3"
		},
		{
			"bufferView":19,
			"componentType":5126,
			"count":4,
			"type":"VEC3"
		},
		{
			"bufferView":20,
			"componentType":5126,
			"count":32,
			"max":[
				0.4380432963371277,
				-0.322826087474823,
				0.0630435049533844
			],
			"min":[
				0.39891284704208374,
				-0.34999996423721313,
				0.0630435049533844
			],
			"type":"VEC3"
		},
		{
			"bufferView":21,
			"componentType":5126,
			"count":32,
			"type":"VEC3"
		},
		{
			"bufferView":22,
			"componentType":5123,
			"count":48,
			"type":"SCALAR"
		},
		{
			"bufferView":23,
			"componentType":5126,
			"count":24,
			"max":[
				0.43541473150253296,
				-0.3080299496650696,
				0.055994946509599686
			],
			"min":[
				0.4060669541358948,
				-0.31360864639282227,
				0.0423913300037384
			],
			"type":"VEC3"
		},
		{
			"bufferView":24,
			"componentType":5126,
			"count":24,
			"type":"VEC3"
		},
		{
			"bufferView":25,
			"componentType":5123,
			"count":36,
			"type":"SCALAR"
		},
		{
			"bufferView":26,
			"componentType":5126,
			"count":24,
			"max":[
				0.42400944232940674,
				-0.30711686611175537,
				0.02608698606491089
			],
			"min":[
				0.39466166496276855,
				-0.3144347667694092,
				0.005961630959063768
			],
			"type":"VEC3"
		},
		{
			"bufferView":27,
			"componentType":5126,
			"count":24,
			"type":"VEC3"
		},
		{
			"bufferView":28,
			"componentType":5123,
			"count":36,
			"type":"SCALAR"
		},
		{
			"bufferView":29,
			"componentType":5126,
			"count":511,
			"max":[
				0.44293463230133057,
				-0.40326088666915894,
				0.05434786155819893
			],
			"min":[
				0.39402157068252563,
				-0.45108696818351746,
				2.9802322387695312e-08
			],
			"type":"VEC3"
		},
		{
			"bufferView":30,
			"componentType":5126,
			"count":511,
			"type":"VEC3"
		},
		{
			"bufferView":31,
			"componentType":5123,
			"count":1416,
			"type":"SCALAR"
		},
		{
			"bufferView":32,
			"componentType":5126,
			"count":4,
			"max":[
				0.40543460845947266,
				-0.436956524848938,
				0.05217394232749939
			],
			"min":[
				0.39891284704208374,
				-0.45108696818351746,
				0.05217394232749939
			],
			"type":"VEC3"
		},
		{
			"bufferView":33,
			"componentType":5126,
			"count":4,
			"type":"VEC3"
		},
		{
			"bufferView":34,
			"componentType":5126,
			"count":24,
			"max":[
				0.4380432367324829,
				-0.42065221071243286,
				0.05217394232749939
			],
			"min":[
				0.39891284704208374,
				-0.4478260576725006,
				0.05217394232749939
			],
			"type":"VEC3"
		},
		{
			"bufferView":35,
			"componentType":5126,
			"count":24,
			"type":"VEC3"
		},
		{
			"bufferView":36,
			"componentType":5123,
			"count":36,
			"type":"SCALAR"
		},
		{
			"bufferView":37,
			"componentType":5126,
			"count":24,
			"max":[
				0.42876696586608887,
				-0.4021555185317993,
				0.052437834441661835
			],
			"min":[
				0.3994191884994507,
				-0.41286957263946533,
				0.029891332611441612
			],
			"type":"VEC3"
		},
		{
			"bufferView":38,
			"componentType":5126,
			"count":24,
			"type":"VEC3"
		},
		{
			"bufferView":39,
			"componentType":5123,
			"count":36,
			"type":"SCALAR"
		},
		{
			"bufferView":40,
			"componentType":5126,
			"count":24,
			"max":[
				0.4251629114151001,
				-0.4032859206199646,
				0.021739158779382706
			],
			"min":[
				0.3958151340484619,
				-0.41182607412338257,
				0.00462743965908885
			],
			"type":"VEC3"
		},
		{
			"bufferView":41,
			"componentType":5126,
			"count":24,
			"type":"VEC3"
		}
	],
	"bufferViews":[
		{
			"buffer":0,
			"byteLength":9912,
			"byteOffset":0,
			"target":34962
		},
		{
			"buffer":0,
			"byteLength":9912,
			"byteOffset":9912,
			"target":34962
		},
		{
			"buffer":0,
			"byteLength":5340,
			"byteOffset":19824,
			"target":34963
		},
		{
			"buffer":0,
			"byteLength":48,
			"byteOffset":25164,
			"target":34962
		},
		{
			"buffer":0,
			"byteLength":48,
			"byteOffset":25212,
			"target":34962
		},
		{
			"buffer":0,
			"byteLength":12,
			"byteOffset":25260,
			"target":34963
		},
		{
			"buffer":0,
			"byteLength":624,
			"byteOffset":25272,
			"target":34962
		},
		{
			"buffer":0,
			"byteLength":624,
			"byteOffset":25896,
			"target":34962
		},
		{
			"buffer":0,
			"byteLength":156,
			"byteOffset":26520,
			"target":34963
		},
		{
			"buffer":0,
			"byteLength":288,
			"byteOffset":26676,
			"target":34962
		},
		{
			"buffer":0,
			"byteLength":288,
			"byteOffset":26964,
			"target":34962
		},
		{
			"buffer":0,
			"byteLength":72,
			"byteOffset":27252,
			"target":34963
		},
		{
			"buffer":0,
			"byteLength":288,
			"byteOffset":27324,
			"target":34962
		},
		{
			"buffer":0,
			"byteLength":288,
			"byteOffset":27612,
			"target":34962
		},
		{
			"buffer":0,
			"byteLength":72,
			"byteOffset":27900,
			"target":34963
		},
		{
			"buffer":0,
			"byteLength":6300,
			"byteOffset":27972,
			"target":34962
		},
		{
			"buffer":0,
			"byteLength":6300,
			"byteOffset":34272,
			"target":34962
		},
		{
			"buffer":0,
			"byteLength":2976,
			"byteOffset":40572,
			"target":34963
		},
		{
			"buffer":0,
			"byteLength":48,
			"byteOffset":43548,
			"target":34962
		},
		{
			"buffer":0,
			"byteLength":48,
			"byteOffset":43596,
			"target":34962
		},
		{
			"buffer":0,
			"byteLength":384,
			"byteOffset":43644,
			"target":34962
		},
		{
			"buffer":0,
			"byteLength":384,
			"byteOffset":44028,
			"target":34962
		},
		{
			"buffer":0,
			"byteLength":96,
			"byteOffset":44412,
			"target":34963
		},
		{
			"buffer":0,
			"byteLength":288,
			"byteOffset":44508,
			"target":34962
		},
		{
			"buffer":0,
			"byteLength":288,
			"byteOffset":44796,
			"target":34962
		},
		{
			"buffer":0,
			"byteLength":72,
			"byteOffset":45084,
			"target":34963
		},
		{
			"buffer":0,
			"byteLength":288,
			"byteOffset":45156,
			"target":34962
		},
		{
			"buffer":0,
			"byteLength":288,
			"byteOffset":45444,
			"target":34962
		},
		{
			"buffer":0,
			"byteLength":72,
			"byteOffset":45732,
			"target":34963
		},
		{
			"buffer":0,
			"byteLength":6132,
			"byteOffset":45804,
			"target":34962
		},
		{
			"buffer":0,
			"byteLength":6132,
			"byteOffset":51936,
			"target":34962
		},
		{
			"buffer":0,
			"byteLength":2832,
			"byteOffset":58068,
			"target":34963
		},
		{
			"buffer":0,
			"byteLength":48,
			"byteOffset":60900,
			"target":34962
		},
		{
			"buffer":0,
			"byteLength":48,
			"byteOffset":60948,
			"target":34962
		},
		{
			"buffer":0,
			"byteLength":288,
			"byteOffset":60996,
			"target":34962
		},
		{
			"buffer":0,
			"byteLength":288,
			"byteOffset":61284,
			"target":34962
		},
		{
			"buffer":0,
			"byteLength":72,
			"byteOffset":61572,
			"target":34963
		},
		{
			"buffer":0,
			"byteLength":288,
			"byteOffset":61644,
			"target":34962
		},
		{
			"buffer":0,
			"byteLength":288,
			"byteOffset":61932,
			"target":34962
		},
		{
			"buffer":0,
			"byteLength":72,
			"byteOffset":62220,
			"target":34963
		},
		{
			"buffer":0,
			"byteLength":288,
			"byteOffset":62292,
			"target":34962
		},
		{
			"buffer":0,
			"byteLength":288,
			"byteOffset":62580,
			"target":34962
		}
	],
	"buffers":[
		{
			"byteLength":62868,
			"uri":"BinaGrup3.bin"
		}
	]
}
