{
	"asset":{
		"generator":"Khronos glTF Blender I/O v4.2.60",
		"version":"2.0"
	},
	"scene":0,
	"scenes":[
		{
			"name":"Scene",
			"nodes":[
				0,
				1,
				2,
				3,
				4,
				5,
				6,
				7,
				8,
				9,
				10,
				11,
				12,
				13,
				14
			]
		}
	],
	"nodes":[
		{
			"mesh":0,
			"name":"Building_069.017"
		},
		{
			"mesh":1,
			"name":"Building_069.018"
		},
		{
			"mesh":2,
			"name":"Building_069.019"
		},
		{
			"mesh":3,
			"name":"Building_069_RoofCap_0.001"
		},
		{
			"mesh":4,
			"name":"Building_069_RoofCap_1.001"
		},
		{
			"mesh":5,
			"name":"Building_071.017"
		},
		{
			"mesh":6,
			"name":"Building_071.018"
		},
		{
			"mesh":7,
			"name":"Building_071.019"
		},
		{
			"mesh":8,
			"name":"Building_071_RoofCap_0.001"
		},
		{
			"mesh":9,
			"name":"Building_071_RoofCap_1.001"
		},
		{
			"mesh":10,
			"name":"Building_082.017"
		},
		{
			"mesh":11,
			"name":"Building_082.018"
		},
		{
			"mesh":12,
			"name":"Building_082.019"
		},
		{
			"mesh":13,
			"name":"Building_082_RoofCap_0.001"
		},
		{
			"mesh":14,
			"name":"Building_082_RoofCap_1.001"
		}
	],
	"materials":[
		{
			"doubleSided":true,
			"name":"BinaSolar",
			"pbrMetallicRoughness":{
				"baseColorFactor":[
					0,
					0.08021967113018036,
					0.7230553030967712,
					1
				],
				"metallicFactor":0,
				"roughnessFactor":0.699999988079071
			}
		},
		{
			"doubleSided":true,
			"name":"PencereSolarKapal\u0131",
			"pbrMetallicRoughness":{
				"baseColorFactor":[
					0,
					0.04817177355289459,
					0.3185468912124634,
					1
				],
				"metallicFactor":0,
				"roughnessFactor":0.699999988079071
			}
		},
		{
			"doubleSided":true,
			"name":"Mat_Roof_Cap",
			"pbrMetallicRoughness":{
				"baseColorFactor":[
					0.9822452664375305,
					0.38132646679878235,
					0.0030353753827512264,
					1
				],
				"metallicFactor":0,
				"roughnessFactor":0.699999988079071
			}
		}
	],
	"meshes":[
		{
			"name":"Building_069_Mesh.017",
			"primitives":[
				{
					"attributes":{
						"POSITION":0,
						"NORMAL":1
					},
					"indices":2,
					"material":0
				}
			]
		},
		{
			"name":"Building_069_Mesh.018",
			"primitives":[
				{
					"attributes":{
						"POSITION":3,
						"NORMAL":4
					},
					"indices":5,
					"material":0
				}
			]
		},
		{
			"name":"Building_069_Mesh.019",
			"primitives":[
				{
					"attributes":{
						"POSITION":6,
						"NORMAL":7
					},
					"indices":8,
					"material":1
				}
			]
		},
		{
			"name":"Building_069_RoofCap_0_Mesh.002",
			"primitives":[
				{
					"attributes":{
						"POSITION":9,
						"NORMAL":10
					},
					"indices":11,
					"material":2
				}
			]
		},
		{
			"name":"Building_069_RoofCap_1_Mesh.002",
			"primitives":[
				{
					"attributes":{
						"POSITION":12,
						"NORMAL":13
					},
					"indices":14,
					"material":2
				}
			]
		},
		{
			"name":"Building_071_Mesh.017",
			"primitives":[
				{
					"attributes":{
						"POSITION":15,
						"NORMAL":16
					},
					"indices":17,
					"material":0
				}
			]
		},
		{
			"name":"Building_071_Mesh.018",
			"primitives":[
				{
					"attributes":{
						"POSITION":18,
						"NORMAL":19
					},
					"indices":5,
					"material":0
				}
			]
		},
		{
			"name":"Building_071_Mesh.019",
			"primitives":[
				{
					"attributes":{
						"POSITION":20,
						"NORMAL":21
					},
					"indices":22,
					"material":1
				}
			]
		},
		{
			"name":"Building_071_RoofCap_0_Mesh.002",
			"primitives":[
				{
					"attributes":{
						"POSITION":23,
						"NORMAL":24
					},
					"indices":11,
					"material":2
				}
			]
		},
		{
			"name":"Building_071_RoofCap_1_Mesh.002",
			"primitives":[
				{
					"attributes":{
						"POSITION":25,
						"NORMAL":26
					},
					"indices":27,
					"material":2
				}
			]
		},
		{
			"name":"Building_082_Mesh.017",
			"primitives":[
				{
					"attributes":{
						"POSITION":28,
						"NORMAL":29
					},
					"indices":30,
					"material":0
				}
			]
		},
		{
			"name":"Building_082_Mesh.018",
			"primitives":[
				{
					"attributes":{
						"POSITION":31,
						"NORMAL":32
					},
					"indices":5,
					"material":0
				}
			]
		},
		{
			"name":"Building_082_Mesh.019",
			"primitives":[
				{
					"attributes":{
						"POSITION":33,
						"NORMAL":34
					},
					"indices":35,
					"material":1
				}
			]
		},
		{
			"name":"Building_082_RoofCap_0_Mesh.002",
			"primitives":[
				{
					"attributes":{
						"POSITION":36,
						"NORMAL":37
					},
					"indices":38,
					"material":2
				}
			]
		},
		{
			"name":"Building_082_RoofCap_1_Mesh.002",
			"primitives":[
				{
					"attributes":{
						"POSITION":39,
						"NORMAL":40
					},
					"indices":14,
					"material":2
				}
			]
		}
	],
	"accessors":[
		{
			"bufferView":0,
			"componentType":5126,
			"count":497,
			"max":[
				0.2826085090637207,
				-0.876086950302124,
				0.043478287756443024
			],
			"min":[
				0.2499997615814209,
				-0.9402173757553101,
				2.9802322387695312e-08
			],
			"type":"VEC3"
		},
		{
			"bufferView":1,
			"componentType":5126,
			"count":497,
			"type":"VEC3"
		},
		{
			"bufferView":2,
			"componentType":5123,
			"count":1398,
			"type":"SCALAR"
		},
		{
			"bufferView":3,
			"componentType":5126,
			"count":4,
			"max":[
				0.26413029432296753,
				-0.9260869026184082,
				0.04130437597632408
			],
			"min":[
				0.2554345726966858,
				-0.9402173757553101,
				0.04130437597632408
			],
			"type":"VEC3"
		},
		{
			"bufferView":4,
			"componentType":5126,
			"count":4,
			"type":"VEC3"
		},
		{
			"bufferView":5,
			"componentType":5123,
			"count":6,
			"type":"SCALAR"
		},
		{
			"bufferView":6,
			"componentType":5126,
			"count":36,
			"max":[
				0.2771737575531006,
				-0.893478274345398,
				0.04130437225103378
			],
			"min":[
				0.2554345726966858,
				-0.936956524848938,
				0.04130437225103378
			],
			"type":"VEC3"
		},
		{
			"bufferView":7,
			"componentType":5126,
			"count":36,
			"type":"VEC3"
		},
		{
			"bufferView":8,
			"componentType":5123,
			"count":54,
			"type":"SCALAR"
		},
		{
			"bufferView":9,
			"componentType":5126,
			"count":24,
			"max":[
				0.2778855562210083,
				-0.8750555515289307,
				0.04227657988667488
			],
			"min":[
				0.25832033157348633,
				-0.8856956362724304,
				0.023913072422146797
			],
			"type":"VEC3"
		},
		{
			"bufferView":10,
			"componentType":5126,
			"count":24,
			"type":"VEC3"
		},
		{
			"bufferView":11,
			"componentType":5123,
			"count":36,
			"type":"SCALAR"
		},
		{
			"bufferView":12,
			"componentType":5126,
			"count":24,
			"max":[
				0.27614808082580566,
				-0.8750555515289307,
				0.019565245136618614
			],
			"min":[
				0.25006103515625,
				-0.8856956362724304,
				0.0012017395347356796
			],
			"type":"VEC3"
		},
		{
			"bufferView":13,
			"componentType":5126,
			"count":24,
			"type":"VEC3"
		},
		{
			"bufferView":14,
			"componentType":5123,
			"count":36,
			"type":"SCALAR"
		},
		{
			"bufferView":15,
			"componentType":5126,
			"count":1288,
			"max":[
				0.36684757471084595,
				-0.3728260397911072,
				0.05434785038232803
			],
			"min":[
				0.317934513092041,
				-0.45108696818351746,
				2.561137080192566e-08
			],
			"type":"VEC3"
		},
		{
			"bufferView":16,
			"componentType":5126,
			"count":1288,
			"type":"VEC3"
		},
		{
			"bufferView":17,
			"componentType":5123,
			"count":4650,
			"type":"SCALAR"
		},
		{
			"bufferView":18,
			"componentType":5126,
			"count":4,
			"max":[
				0.36195629835128784,
				-0.436956524848938,
				0.05217394232749939
			],
			"min":[
				0.3554345369338989,
				-0.45108696818351746,
				0.05217394232749939
			],
			"type":"VEC3"
		},
		{
			"bufferView":19,
			"componentType":5126,
			"count":4,
			"type":"VEC3"
		},
		{
			"bufferView":20,
			"componentType":5126,
			"count":76,
			"max":[
				0.36195629835128784,
				-0.38804346323013306,
				0.05217394232749939
			],
			"min":[
				0.32282590866088867,
				-0.4434782564640045,
				0.05217394232749939
			],
			"type":"VEC3"
		},
		{
			"bufferView":21,
			"componentType":5126,
			"count":76,
			"type":"VEC3"
		},
		{
			"bufferView":22,
			"componentType":5123,
			"count":114,
			"type":"SCALAR"
		},
		{
			"bufferView":23,
			"componentType":5126,
			"count":24,
			"max":[
				0.3599594235420227,
				-0.3714512586593628,
				0.052293017506599426
			],
			"min":[
				0.32082897424697876,
				-0.38047826290130615,
				0.029891332611441612
			],
			"type":"VEC3"
		},
		{
			"bufferView":24,
			"componentType":5126,
			"count":24,
			"type":"VEC3"
		},
		{
			"bufferView":25,
			"componentType":5126,
			"count":24,
			"max":[
				0.3666318655014038,
				-0.37327730655670166,
				0.019021768122911453
			],
			"min":[
				0.32750141620635986,
				-0.3788261413574219,
				0.007489646784961224
			],
			"type":"VEC3"
		},
		{
			"bufferView":26,
			"componentType":5126,
			"count":24,
			"type":"VEC3"
		},
		{
			"bufferView":27,
			"componentType":5123,
			"count":36,
			"type":"SCALAR"
		},
		{
			"bufferView":28,
			"componentType":5126,
			"count":308,
			"max":[
				0.43478238582611084,
				-0.7967391014099121,
				0.06521742045879364
			],
			"min":[
				0.4021736979484558,
				-0.8423912525177002,
				2.9802322387695312e-08
			],
			"type":"VEC3"
		},
		{
			"bufferView":29,
			"componentType":5126,
			"count":308,
			"type":"VEC3"
		},
		{
			"bufferView":30,
			"componentType":5123,
			"count":750,
			"type":"SCALAR"
		},
		{
			"bufferView":31,
			"componentType":5126,
			"count":4,
			"max":[
				0.4293476343154907,
				-0.8282608389854431,
				0.0630435049533844
			],
			"min":[
				0.420651912689209,
				-0.8423912525177002,
				0.0630435049533844
			],
			"type":"VEC3"
		},
		{
			"bufferView":32,
			"componentType":5126,
			"count":4,
			"type":"VEC3"
		},
		{
			"bufferView":33,
			"componentType":5126,
			"count":16,
			"max":[
				0.4293476939201355,
				-0.811956524848938,
				0.0630435049533844
			],
			"min":[
				0.4076085090637207,
				-0.834782600402832,
				0.0630435049533844
			],
			"type":"VEC3"
		},
		{
			"bufferView":34,
			"componentType":5126,
			"count":16,
			"type":"VEC3"
		},
		{
			"bufferView":35,
			"componentType":5123,
			"count":24,
			"type":"SCALAR"
		},
		{
			"bufferView":36,
			"componentType":5126,
			"count":24,
			"max":[
				0.4285435080528259,
				-0.7953342795372009,
				0.06251668184995651
			],
			"min":[
				0.40245652198791504,
				-0.8043912649154663,
				0.03586959466338158
			],
			"type":"VEC3"
		},
		{
			"bufferView":37,
			"componentType":5126,
			"count":24,
			"type":"VEC3"
		},
		{
			"bufferView":38,
			"componentType":5123,
			"count":36,
			"type":"SCALAR"
		},
		{
			"bufferView":39,
			"componentType":5126,
			"count":24,
			"max":[
				0.42771339416503906,
				-0.7971603870391846,
				0.022826116532087326
			],
			"min":[
				0.4081481695175171,
				-0.802739143371582,
				0.009222501888871193
			],
			"type":"VEC3"
		},
		{
			"bufferView":40,
			"componentType":5126,
			"count":24,
			"type":"VEC3"
		}
	],
	"bufferViews":[
		{
			"buffer":0,
			"byteLength":5964,
			"byteOffset":0,
			"target":34962
		},
		{
			"buffer":0,
			"byteLength":5964,
			"byteOffset":5964,
			"target":34962
		},
		{
			"buffer":0,
			"byteLength":2796,
			"byteOffset":11928,
			"target":34963
		},
		{
			"buffer":0,
			"byteLength":48,
			"byteOffset":14724,
			"target":34962
		},
		{
			"buffer":0,
			"byteLength":48,
			"byteOffset":14772,
			"target":34962
		},
		{
			"buffer":0,
			"byteLength":12,
			"byteOffset":14820,
			"target":34963
		},
		{
			"buffer":0,
			"byteLength":432,
			"byteOffset":14832,
			"target":34962
		},
		{
			"buffer":0,
			"byteLength":432,
			"byteOffset":15264,
			"target":34962
		},
		{
			"buffer":0,
			"byteLength":108,
			"byteOffset":15696,
			"target":34963
		},
		{
			"buffer":0,
			"byteLength":288,
			"byteOffset":15804,
			"target":34962
		},
		{
			"buffer":0,
			"byteLength":288,
			"byteOffset":16092,
			"target":34962
		},
		{
			"buffer":0,
			"byteLength":72,
			"byteOffset":16380,
			"target":34963
		},
		{
			"buffer":0,
			"byteLength":288,
			"byteOffset":16452,
			"target":34962
		},
		{
			"buffer":0,
			"byteLength":288,
			"byteOffset":16740,
			"target":34962
		},
		{
			"buffer":0,
			"byteLength":72,
			"byteOffset":17028,
			"target":34963
		},
		{
			"buffer":0,
			"byteLength":15456,
			"byteOffset":17100,
			"target":34962
		},
		{
			"buffer":0,
			"byteLength":15456,
			"byteOffset":32556,
			"target":34962
		},
		{
			"buffer":0,
			"byteLength":9300,
			"byteOffset":48012,
			"target":34963
		},
		{
			"buffer":0,
			"byteLength":48,
			"byteOffset":57312,
			"target":34962
		},
		{
			"buffer":0,
			"byteLength":48,
			"byteOffset":57360,
			"target":34962
		},
		{
			"buffer":0,
			"byteLength":912,
			"byteOffset":57408,
			"target":34962
		},
		{
			"buffer":0,
			"byteLength":912,
			"byteOffset":58320,
			"target":34962
		},
		{
			"buffer":0,
			"byteLength":228,
			"byteOffset":59232,
			"target":34963
		},
		{
			"buffer":0,
			"byteLength":288,
			"byteOffset":59460,
			"target":34962
		},
		{
			"buffer":0,
			"byteLength":288,
			"byteOffset":59748,
			"target":34962
		},
		{
			"buffer":0,
			"byteLength":288,
			"byteOffset":60036,
			"target":34962
		},
		{
			"buffer":0,
			"byteLength":288,
			"byteOffset":60324,
			"target":34962
		},
		{
			"buffer":0,
			"byteLength":72,
			"byteOffset":60612,
			"target":34963
		},
		{
			"buffer":0,
			"byteLength":3696,
			"byteOffset":60684,
			"target":34962
		},
		{
			"buffer":0,
			"byteLength":3696,
			"byteOffset":64380,
			"target":34962
		},
		{
			"buffer":0,
			"byteLength":1500,
			"byteOffset":68076,
			"target":34963
		},
		{
			"buffer":0,
			"byteLength":48,
			"byteOffset":69576,
			"target":34962
		},
		{
			"buffer":0,
			"byteLength":48,
			"byteOffset":69624,
			"target":34962
		},
		{
			"buffer":0,
			"byteLength":192,
			"byteOffset":69672,
			"target":34962
		},
		{
			"buffer":0,
			"byteLength":192,
			"byteOffset":69864,
			"target":34962
		},
		{
			"buffer":0,
			"byteLength":48,
			"byteOffset":70056,
			"target":34963
		},
		{
			"buffer":0,
			"byteLength":288,
			"byteOffset":70104,
			"target":34962
		},
		{
			"buffer":0,
			"byteLength":288,
			"byteOffset":70392,
			"target":34962
		},
		{
			"buffer":0,
			"byteLength":72,
			"byteOffset":70680,
			"target":34963
		},
		{
			"buffer":0,
			"byteLength":288,
			"byteOffset":70752,
			"target":34962
		},
		{
			"buffer":0,
			"byteLength":288,
			"byteOffset":71040,
			"target":34962
		}
	],
	"buffers":[
		{
			"byteLength":71328,
			"uri":"BinaGrup1.bin"
		}
	]
}
