{
	"asset":{
		"generator":"Khronos glTF Blender I/O v4.2.60",
		"version":"2.0"
	},
	"scene":0,
	"scenes":[
		{
			"name":"Scene",
			"nodes":[
				0,
				1,
				2,
				3,
				4,
				5
			]
		}
	],
	"nodes":[
		{
			"mesh":0,
			"name":"Building_001_RoofCap_0.001"
		},
		{
			"mesh":1,
			"name":"Building_002.005"
		},
		{
			"mesh":2,
			"name":"Building_008_RoofCap_0.001"
		},
		{
			"mesh":3,
			"name":"Building_009_RoofCap_0.001"
		},
		{
			"mesh":4,
			"name":"Building_011.005"
		},
		{
			"mesh":5,
			"name":"Building_013.005"
		}
	],
	"materials":[
		{
			"doubleSided":true,
			"name":"Mat_Roof_Cap",
			"pbrMetallicRoughness":{
				"baseColorFactor":[
					0.9822452664375305,
					0.38132646679878235,
					0.0030353753827512264,
					1
				],
				"metallicFactor":0,
				"roughnessFactor":0.699999988079071
			}
		},
		{
			"doubleSided":true,
			"name":"BinaSolar",
			"pbrMetallicRoughness":{
				"baseColorFactor":[
					0,
					0.08021967113018036,
					0.7230553030967712,
					1
				],
				"metallicFactor":0,
				"roughnessFactor":0.699999988079071
			}
		},
		{
			"doubleSided":true,
			"name":"PencereSolarKapal\u0131",
			"pbrMetallicRoughness":{
				"baseColorFactor":[
					0,
					0.04817177355289459,
					0.3185468912124634,
					1
				],
				"metallicFactor":0,
				"roughnessFactor":0.699999988079071
			}
		}
	],
	"meshes":[
		{
			"name":"Building_001_RoofCap_0_Mesh.003",
			"primitives":[
				{
					"attributes":{
						"POSITION":0,
						"NORMAL":1
					},
					"indices":2,
					"material":0
				},
				{
					"attributes":{
						"POSITION":3,
						"NORMAL":4
					},
					"indices":5,
					"material":1
				},
				{
					"attributes":{
						"POSITION":6,
						"NORMAL":7
					},
					"indices":8,
					"material":2
				}
			]
		},
		{
			"name":"Building_002_Mesh.012",
			"primitives":[
				{
					"attributes":{
						"POSITION":9,
						"NORMAL":10
					},
					"indices":11,
					"material":1
				},
				{
					"attributes":{
						"POSITION":12,
						"NORMAL":13
					},
					"indices":14,
					"material":2
				},
				{
					"attributes":{
						"POSITION":15,
						"NORMAL":16
					},
					"indices":2,
					"material":0
				}
			]
		},
		{
			"name":"Building_008_RoofCap_0_Mesh.003",
			"primitives":[
				{
					"attributes":{
						"POSITION":17,
						"NORMAL":18
					},
					"indices":19,
					"material":0
				},
				{
					"attributes":{
						"POSITION":20,
						"NORMAL":21
					},
					"indices":22,
					"material":2
				},
				{
					"attributes":{
						"POSITION":23,
						"NORMAL":24
					},
					"indices":25,
					"material":1
				}
			]
		},
		{
			"name":"Building_009_RoofCap_0_Mesh.003",
			"primitives":[
				{
					"attributes":{
						"POSITION":26,
						"NORMAL":27
					},
					"indices":28,
					"material":0
				},
				{
					"attributes":{
						"POSITION":29,
						"NORMAL":30
					},
					"indices":31,
					"material":1
				},
				{
					"attributes":{
						"POSITION":32,
						"NORMAL":33
					},
					"indices":34,
					"material":2
				}
			]
		},
		{
			"name":"Building_011_Mesh.012",
			"primitives":[
				{
					"attributes":{
						"POSITION":35,
						"NORMAL":36
					},
					"indices":37,
					"material":1
				},
				{
					"attributes":{
						"POSITION":38,
						"NORMAL":39
					},
					"indices":40,
					"material":2
				},
				{
					"attributes":{
						"POSITION":41,
						"NORMAL":42
					},
					"indices":43,
					"material":0
				}
			]
		},
		{
			"name":"Building_013_Mesh.012",
			"primitives":[
				{
					"attributes":{
						"POSITION":44,
						"NORMAL":45
					},
					"indices":46,
					"material":1
				},
				{
					"attributes":{
						"POSITION":47,
						"NORMAL":48
					},
					"indices":8,
					"material":2
				},
				{
					"attributes":{
						"POSITION":49,
						"NORMAL":50
					},
					"indices":51,
					"material":0
				}
			]
		}
	],
	"accessors":[
		{
			"bufferView":0,
			"componentType":5126,
			"count":24,
			"max":[
				-0.39808568358421326,
				-0.3922268748283386,
				0.03933337703347206
			],
			"min":[
				-0.4372161030769348,
				-0.39765214920043945,
				0.004347854293882847
			],
			"type":"VEC3"
		},
		{
			"bufferView":1,
			"componentType":5126,
			"count":24,
			"type":"VEC3"
		},
		{
			"bufferView":2,
			"componentType":5123,
			"count":36,
			"type":"SCALAR"
		},
		{
			"bufferView":3,
			"componentType":5126,
			"count":820,
			"max":[
				-0.3940218389034271,
				-0.39782607555389404,
				0.043478287756443024
			],
			"min":[
				-0.44293490052223206,
				-0.45108696818351746,
				2.9802322387695312e-08
			],
			"type":"VEC3"
		},
		{
			"bufferView":4,
			"componentType":5126,
			"count":820,
			"type":"VEC3"
		},
		{
			"bufferView":5,
			"componentType":5123,
			"count":2664,
			"type":"SCALAR"
		},
		{
			"bufferView":6,
			"componentType":5126,
			"count":52,
			"max":[
				-0.3989131450653076,
				-0.40434783697128296,
				0.04130437597632408
			],
			"min":[
				-0.43804359436035156,
				-0.45108696818351746,
				0.04130437597632408
			],
			"type":"VEC3"
		},
		{
			"bufferView":7,
			"componentType":5126,
			"count":52,
			"type":"VEC3"
		},
		{
			"bufferView":8,
			"componentType":5123,
			"count":78,
			"type":"SCALAR"
		},
		{
			"bufferView":9,
			"componentType":5126,
			"count":481,
			"max":[
				-0.4021740257740021,
				-0.4956521689891815,
				0.043478287756443024
			],
			"min":[
				-0.4347827136516571,
				-0.5489130020141602,
				2.9802322387695312e-08
			],
			"type":"VEC3"
		},
		{
			"bufferView":10,
			"componentType":5126,
			"count":481,
			"type":"VEC3"
		},
		{
			"bufferView":11,
			"componentType":5123,
			"count":1392,
			"type":"SCALAR"
		},
		{
			"bufferView":12,
			"componentType":5126,
			"count":42,
			"max":[
				-0.4076088070869446,
				-0.502173900604248,
				0.04130437225103378
			],
			"min":[
				-0.4293479323387146,
				-0.5489130020141602,
				0.04130437225103378
			],
			"type":"VEC3"
		},
		{
			"bufferView":13,
			"componentType":5126,
			"count":42,
			"type":"VEC3"
		},
		{
			"bufferView":14,
			"componentType":5123,
			"count":66,
			"type":"SCALAR"
		},
		{
			"bufferView":15,
			"componentType":5126,
			"count":24,
			"max":[
				-0.4074382483959198,
				-0.49016764760017395,
				0.030835434794425964
			],
			"min":[
				-0.4270034730434418,
				-0.49556517601013184,
				0.013043505139648914
			],
			"type":"VEC3"
		},
		{
			"bufferView":16,
			"componentType":5126,
			"count":24,
			"type":"VEC3"
		},
		{
			"bufferView":17,
			"componentType":5126,
			"count":48,
			"max":[
				-0.3255631923675537,
				-0.38592517375946045,
				0.04227657988667488
			],
			"min":[
				-0.3662720024585724,
				-0.3965652585029602,
				0.0012017395347356796
			],
			"type":"VEC3"
		},
		{
			"bufferView":18,
			"componentType":5126,
			"count":48,
			"type":"VEC3"
		},
		{
			"bufferView":19,
			"componentType":5123,
			"count":72,
			"type":"SCALAR"
		},
		{
			"bufferView":20,
			"componentType":5126,
			"count":60,
			"max":[
				-0.32282620668411255,
				-0.40434783697128296,
				0.04130437597632408
			],
			"min":[
				-0.3619566261768341,
				-0.45108696818351746,
				0.04130437597632408
			],
			"type":"VEC3"
		},
		{
			"bufferView":21,
			"componentType":5126,
			"count":60,
			"type":"VEC3"
		},
		{
			"bufferView":22,
			"componentType":5123,
			"count":90,
			"type":"SCALAR"
		},
		{
			"bufferView":23,
			"componentType":5126,
			"count":857,
			"max":[
				-0.31793490052223206,
				-0.38695651292800903,
				0.043478287756443024
			],
			"min":[
				-0.3668479323387146,
				-0.45108696818351746,
				2.9802322387695312e-08
			],
			"type":"VEC3"
		},
		{
			"bufferView":24,
			"componentType":5126,
			"count":857,
			"type":"VEC3"
		},
		{
			"bufferView":25,
			"componentType":5123,
			"count":2736,
			"type":"SCALAR"
		},
		{
			"bufferView":26,
			"componentType":5126,
			"count":48,
			"max":[
				-0.3285979628562927,
				-0.48375120759010315,
				0.04010266810655594
			],
			"min":[
				-0.3549378514289856,
				-0.4943912923336029,
				0.0012017413973808289
			],
			"type":"VEC3"
		},
		{
			"bufferView":27,
			"componentType":5126,
			"count":48,
			"type":"VEC3"
		},
		{
			"bufferView":28,
			"componentType":5123,
			"count":72,
			"type":"SCALAR"
		},
		{
			"bufferView":29,
			"componentType":5126,
			"count":497,
			"max":[
				-0.3260870575904846,
				-0.4847826063632965,
				0.043478287756443024
			],
			"min":[
				-0.35869574546813965,
				-0.5489130020141602,
				2.9802322387695312e-08
			],
			"type":"VEC3"
		},
		{
			"bufferView":30,
			"componentType":5126,
			"count":497,
			"type":"VEC3"
		},
		{
			"bufferView":31,
			"componentType":5123,
			"count":1398,
			"type":"SCALAR"
		},
		{
			"bufferView":32,
			"componentType":5126,
			"count":40,
			"max":[
				-0.3315218687057495,
				-0.502173900604248,
				0.04130437970161438
			],
			"min":[
				-0.35326099395751953,
				-0.5489130020141602,
				0.04130437970161438
			],
			"type":"VEC3"
		},
		{
			"bufferView":33,
			"componentType":5126,
			"count":40,
			"type":"VEC3"
		},
		{
			"bufferView":34,
			"componentType":5123,
			"count":60,
			"type":"SCALAR"
		},
		{
			"bufferView":35,
			"componentType":5126,
			"count":857,
			"max":[
				-0.31793490052223206,
				-0.6826087236404419,
				0.043478287756443024
			],
			"min":[
				-0.3668479323387146,
				-0.7445651888847351,
				2.9802322387695312e-08
			],
			"type":"VEC3"
		},
		{
			"bufferView":36,
			"componentType":5126,
			"count":857,
			"type":"VEC3"
		},
		{
			"bufferView":37,
			"componentType":5123,
			"count":2730,
			"type":"SCALAR"
		},
		{
			"bufferView":38,
			"componentType":5126,
			"count":64,
			"max":[
				-0.32282620668411255,
				-0.697826087474823,
				0.04130437597632408
			],
			"min":[
				-0.3619566261768341,
				-0.7445651888847351,
				0.04130437225103378
			],
			"type":"VEC3"
		},
		{
			"bufferView":39,
			"componentType":5126,
			"count":64,
			"type":"VEC3"
		},
		{
			"bufferView":40,
			"componentType":5123,
			"count":96,
			"type":"SCALAR"
		},
		{
			"bufferView":41,
			"componentType":5126,
			"count":48,
			"max":[
				-0.33427777886390686,
				-0.6812859177589417,
				0.04211174696683884
			],
			"min":[
				-0.35867324471473694,
				-0.6902608275413513,
				0.0013665715232491493
			],
			"type":"VEC3"
		},
		{
			"bufferView":42,
			"componentType":5126,
			"count":48,
			"type":"VEC3"
		},
		{
			"bufferView":43,
			"componentType":5123,
			"count":72,
			"type":"SCALAR"
		},
		{
			"bufferView":44,
			"componentType":5126,
			"count":846,
			"max":[
				-0.31793490052223206,
				-0.876086950302124,
				0.043478287756443024
			],
			"min":[
				-0.3668479323387146,
				-0.9402173757553101,
				2.9802322387695312e-08
			],
			"type":"VEC3"
		},
		{
			"bufferView":45,
			"componentType":5126,
			"count":846,
			"type":"VEC3"
		},
		{
			"bufferView":46,
			"componentType":5123,
			"count":2676,
			"type":"SCALAR"
		},
		{
			"bufferView":47,
			"componentType":5126,
			"count":52,
			"max":[
				-0.32282620668411255,
				-0.893478274345398,
				0.04130437597632408
			],
			"min":[
				-0.3619566261768341,
				-0.9402173757553101,
				0.04130437597632408
			],
			"type":"VEC3"
		},
		{
			"bufferView":48,
			"componentType":5126,
			"count":52,
			"type":"VEC3"
		},
		{
			"bufferView":49,
			"componentType":5126,
			"count":48,
			"max":[
				-0.31872349977493286,
				-0.8750555515289307,
				0.04227657988667488
			],
			"min":[
				-0.3657294809818268,
				-0.8856956362724304,
				0.0012017395347356796
			],
			"type":"VEC3"
		},
		{
			"bufferView":50,
			"componentType":5126,
			"count":48,
			"type":"VEC3"
		},
		{
			"bufferView":51,
			"componentType":5123,
			"count":72,
			"type":"SCALAR"
		}
	],
	"bufferViews":[
		{
			"buffer":0,
			"byteLength":288,
			"byteOffset":0,
			"target":34962
		},
		{
			"buffer":0,
			"byteLength":288,
			"byteOffset":288,
			"target":34962
		},
		{
			"buffer":0,
			"byteLength":72,
			"byteOffset":576,
			"target":34963
		},
		{
			"buffer":0,
			"byteLength":9840,
			"byteOffset":648,
			"target":34962
		},
		{
			"buffer":0,
			"byteLength":9840,
			"byteOffset":10488,
			"target":34962
		},
		{
			"buffer":0,
			"byteLength":5328,
			"byteOffset":20328,
			"target":34963
		},
		{
			"buffer":0,
			"byteLength":624,
			"byteOffset":25656,
			"target":34962
		},
		{
			"buffer":0,
			"byteLength":624,
			"byteOffset":26280,
			"target":34962
		},
		{
			"buffer":0,
			"byteLength":156,
			"byteOffset":26904,
			"target":34963
		},
		{
			"buffer":0,
			"byteLength":5772,
			"byteOffset":27060,
			"target":34962
		},
		{
			"buffer":0,
			"byteLength":5772,
			"byteOffset":32832,
			"target":34962
		},
		{
			"buffer":0,
			"byteLength":2784,
			"byteOffset":38604,
			"target":34963
		},
		{
			"buffer":0,
			"byteLength":504,
			"byteOffset":41388,
			"target":34962
		},
		{
			"buffer":0,
			"byteLength":504,
			"byteOffset":41892,
			"target":34962
		},
		{
			"buffer":0,
			"byteLength":132,
			"byteOffset":42396,
			"target":34963
		},
		{
			"buffer":0,
			"byteLength":288,
			"byteOffset":42528,
			"target":34962
		},
		{
			"buffer":0,
			"byteLength":288,
			"byteOffset":42816,
			"target":34962
		},
		{
			"buffer":0,
			"byteLength":576,
			"byteOffset":43104,
			"target":34962
		},
		{
			"buffer":0,
			"byteLength":576,
			"byteOffset":43680,
			"target":34962
		},
		{
			"buffer":0,
			"byteLength":144,
			"byteOffset":44256,
			"target":34963
		},
		{
			"buffer":0,
			"byteLength":720,
			"byteOffset":44400,
			"target":34962
		},
		{
			"buffer":0,
			"byteLength":720,
			"byteOffset":45120,
			"target":34962
		},
		{
			"buffer":0,
			"byteLength":180,
			"byteOffset":45840,
			"target":34963
		},
		{
			"buffer":0,
			"byteLength":10284,
			"byteOffset":46020,
			"target":34962
		},
		{
			"buffer":0,
			"byteLength":10284,
			"byteOffset":56304,
			"target":34962
		},
		{
			"buffer":0,
			"byteLength":5472,
			"byteOffset":66588,
			"target":34963
		},
		{
			"buffer":0,
			"byteLength":576,
			"byteOffset":72060,
			"target":34962
		},
		{
			"buffer":0,
			"byteLength":576,
			"byteOffset":72636,
			"target":34962
		},
		{
			"buffer":0,
			"byteLength":144,
			"byteOffset":73212,
			"target":34963
		},
		{
			"buffer":0,
			"byteLength":5964,
			"byteOffset":73356,
			"target":34962
		},
		{
			"buffer":0,
			"byteLength":5964,
			"byteOffset":79320,
			"target":34962
		},
		{
			"buffer":0,
			"byteLength":2796,
			"byteOffset":85284,
			"target":34963
		},
		{
			"buffer":0,
			"byteLength":480,
			"byteOffset":88080,
			"target":34962
		},
		{
			"buffer":0,
			"byteLength":480,
			"byteOffset":88560,
			"target":34962
		},
		{
			"buffer":0,
			"byteLength":120,
			"byteOffset":89040,
			"target":34963
		},
		{
			"buffer":0,
			"byteLength":10284,
			"byteOffset":89160,
			"target":34962
		},
		{
			"buffer":0,
			"byteLength":10284,
			"byteOffset":99444,
			"target":34962
		},
		{
			"buffer":0,
			"byteLength":5460,
			"byteOffset":109728,
			"target":34963
		},
		{
			"buffer":0,
			"byteLength":768,
			"byteOffset":115188,
			"target":34962
		},
		{
			"buffer":0,
			"byteLength":768,
			"byteOffset":115956,
			"target":34962
		},
		{
			"buffer":0,
			"byteLength":192,
			"byteOffset":116724,
			"target":34963
		},
		{
			"buffer":0,
			"byteLength":576,
			"byteOffset":116916,
			"target":34962
		},
		{
			"buffer":0,
			"byteLength":576,
			"byteOffset":117492,
			"target":34962
		},
		{
			"buffer":0,
			"byteLength":144,
			"byteOffset":118068,
			"target":34963
		},
		{
			"buffer":0,
			"byteLength":10152,
			"byteOffset":118212,
			"target":34962
		},
		{
			"buffer":0,
			"byteLength":10152,
			"byteOffset":128364,
			"target":34962
		},
		{
			"buffer":0,
			"byteLength":5352,
			"byteOffset":138516,
			"target":34963
		},
		{
			"buffer":0,
			"byteLength":624,
			"byteOffset":143868,
			"target":34962
		},
		{
			"buffer":0,
			"byteLength":624,
			"byteOffset":144492,
			"target":34962
		},
		{
			"buffer":0,
			"byteLength":576,
			"byteOffset":145116,
			"target":34962
		},
		{
			"buffer":0,
			"byteLength":576,
			"byteOffset":145692,
			"target":34962
		},
		{
			"buffer":0,
			"byteLength":144,
			"byteOffset":146268,
			"target":34963
		}
	],
	"buffers":[
		{
			"byteLength":146412,
			"uri":"GhostBina1.bin"
		}
	]
}
