{
	"asset":{
		"generator":"Khronos glTF Blender I/O v4.2.60",
		"version":"2.0"
	},
	"scene":0,
	"scenes":[
		{
			"name":"Scene",
			"nodes":[
				0,
				1,
				2,
				3
			]
		}
	],
	"nodes":[
		{
			"mesh":0,
			"name":"Building_004.006"
		},
		{
			"mesh":1,
			"name":"Building_007_RoofCap_0.001"
		},
		{
			"mesh":2,
			"name":"Building_012.005"
		},
		{
			"mesh":3,
			"name":"Building_015.006"
		}
	],
	"materials":[
		{
			"doubleSided":true,
			"name":"PencereSolarKapal\u0131",
			"pbrMetallicRoughness":{
				"baseColorFactor":[
					0,
					0.04817177355289459,
					0.3185468912124634,
					1
				],
				"metallicFactor":0,
				"roughnessFactor":0.699999988079071
			}
		},
		{
			"doubleSided":true,
			"name":"BinaSolar",
			"pbrMetallicRoughness":{
				"baseColorFactor":[
					0,
					0.08021967113018036,
					0.7230553030967712,
					1
				],
				"metallicFactor":0,
				"roughnessFactor":0.699999988079071
			}
		},
		{
			"doubleSided":true,
			"name":"Mat_Roof_Cap",
			"pbrMetallicRoughness":{
				"baseColorFactor":[
					0.9822452664375305,
					0.38132646679878235,
					0.0030353753827512264,
					1
				],
				"metallicFactor":0,
				"roughnessFactor":0.699999988079071
			}
		}
	],
	"meshes":[
		{
			"name":"Building_004_Mesh.013",
			"primitives":[
				{
					"attributes":{
						"POSITION":0,
						"NORMAL":1
					},
					"indices":2,
					"material":0
				},
				{
					"attributes":{
						"POSITION":3,
						"NORMAL":4
					},
					"indices":5,
					"material":1
				},
				{
					"attributes":{
						"POSITION":6,
						"NORMAL":7
					},
					"indices":8,
					"material":2
				}
			]
		},
		{
			"name":"Building_007_RoofCap_0_Mesh.003",
			"primitives":[
				{
					"attributes":{
						"POSITION":9,
						"NORMAL":10
					},
					"indices":11,
					"material":2
				},
				{
					"attributes":{
						"POSITION":12,
						"NORMAL":13
					},
					"indices":14,
					"material":1
				},
				{
					"attributes":{
						"POSITION":15,
						"NORMAL":16
					},
					"indices":17,
					"material":0
				}
			]
		},
		{
			"name":"Building_012_Mesh.012",
			"primitives":[
				{
					"attributes":{
						"POSITION":18,
						"NORMAL":19
					},
					"indices":20,
					"material":1
				},
				{
					"attributes":{
						"POSITION":21,
						"NORMAL":22
					},
					"indices":23,
					"material":0
				},
				{
					"attributes":{
						"POSITION":24,
						"NORMAL":25
					},
					"indices":26,
					"material":2
				}
			]
		},
		{
			"name":"Building_015_Mesh.013",
			"primitives":[
				{
					"attributes":{
						"POSITION":27,
						"NORMAL":28
					},
					"indices":29,
					"material":0
				},
				{
					"attributes":{
						"POSITION":30,
						"NORMAL":31
					},
					"indices":32,
					"material":1
				},
				{
					"attributes":{
						"POSITION":33,
						"NORMAL":34
					},
					"indices":35,
					"material":2
				}
			]
		}
	],
	"accessors":[
		{
			"bufferView":0,
			"componentType":5126,
			"count":43,
			"max":[
				-0.4076088070869446,
				-0.697826087474823,
				0.05217394232749939
			],
			"min":[
				-0.4293479323387146,
				-0.7445651888847351,
				0.05217394232749939
			],
			"type":"VEC3"
		},
		{
			"bufferView":1,
			"componentType":5126,
			"count":43,
			"type":"VEC3"
		},
		{
			"bufferView":2,
			"componentType":5123,
			"count":69,
			"type":"SCALAR"
		},
		{
			"bufferView":3,
			"componentType":5126,
			"count":501,
			"max":[
				-0.4021740257740021,
				-0.6847826242446899,
				0.05434786155819893
			],
			"min":[
				-0.4347827136516571,
				-0.7445651888847351,
				2.9802322387695312e-08
			],
			"type":"VEC3"
		},
		{
			"bufferView":4,
			"componentType":5126,
			"count":501,
			"type":"VEC3"
		},
		{
			"bufferView":5,
			"componentType":5123,
			"count":1401,
			"type":"SCALAR"
		},
		{
			"bufferView":6,
			"componentType":5126,
			"count":48,
			"max":[
				-0.4069780111312866,
				-0.6831469535827637,
				0.04942040517926216
			],
			"min":[
				-0.4330649673938751,
				-0.6904782652854919,
				0.0022100908681750298
			],
			"type":"VEC3"
		},
		{
			"bufferView":7,
			"componentType":5126,
			"count":48,
			"type":"VEC3"
		},
		{
			"bufferView":8,
			"componentType":5123,
			"count":72,
			"type":"SCALAR"
		},
		{
			"bufferView":9,
			"componentType":5126,
			"count":24,
			"max":[
				-0.3209688067436218,
				-0.310749888420105,
				0.04369460791349411
			],
			"min":[
				-0.3600992262363434,
				-0.3161739110946655,
				0.010869596153497696
			],
			"type":"VEC3"
		},
		{
			"bufferView":10,
			"componentType":5126,
			"count":24,
			"type":"VEC3"
		},
		{
			"bufferView":11,
			"componentType":5123,
			"count":36,
			"type":"SCALAR"
		},
		{
			"bufferView":12,
			"componentType":5126,
			"count":248,
			"max":[
				-0.31793490052223206,
				-0.3163043260574341,
				0.05434786155819893
			],
			"min":[
				-0.3668479323387146,
				-0.3532608151435852,
				2.9802322387695312e-08
			],
			"type":"VEC3"
		},
		{
			"bufferView":13,
			"componentType":5126,
			"count":248,
			"type":"VEC3"
		},
		{
			"bufferView":14,
			"componentType":5123,
			"count":561,
			"type":"SCALAR"
		},
		{
			"bufferView":15,
			"componentType":5126,
			"count":32,
			"max":[
				-0.32282620668411255,
				-0.3228260278701782,
				0.05217394232749939
			],
			"min":[
				-0.3619566261768341,
				-0.3532608151435852,
				0.05217394232749939
			],
			"type":"VEC3"
		},
		{
			"bufferView":16,
			"componentType":5126,
			"count":32,
			"type":"VEC3"
		},
		{
			"bufferView":17,
			"componentType":5123,
			"count":48,
			"type":"SCALAR"
		},
		{
			"bufferView":18,
			"componentType":5126,
			"count":511,
			"max":[
				-0.31793490052223206,
				-0.7967391014099121,
				0.05434786155819893
			],
			"min":[
				-0.3668479323387146,
				-0.8423912525177002,
				2.9802322387695312e-08
			],
			"type":"VEC3"
		},
		{
			"bufferView":19,
			"componentType":5126,
			"count":511,
			"type":"VEC3"
		},
		{
			"bufferView":20,
			"componentType":5123,
			"count":1416,
			"type":"SCALAR"
		},
		{
			"bufferView":21,
			"componentType":5126,
			"count":28,
			"max":[
				-0.32282620668411255,
				-0.811956524848938,
				0.05217394232749939
			],
			"min":[
				-0.3619566261768341,
				-0.8423912525177002,
				0.05217394232749939
			],
			"type":"VEC3"
		},
		{
			"bufferView":22,
			"componentType":5126,
			"count":28,
			"type":"VEC3"
		},
		{
			"bufferView":23,
			"componentType":5123,
			"count":42,
			"type":"SCALAR"
		},
		{
			"bufferView":24,
			"componentType":5126,
			"count":48,
			"max":[
				-0.31937259435653687,
				-0.7962773442268372,
				0.049575626850128174
			],
			"min":[
				-0.35572588443756104,
				-0.8035652041435242,
				0.004772260785102844
			],
			"type":"VEC3"
		},
		{
			"bufferView":25,
			"componentType":5126,
			"count":48,
			"type":"VEC3"
		},
		{
			"bufferView":26,
			"componentType":5123,
			"count":72,
			"type":"SCALAR"
		},
		{
			"bufferView":27,
			"componentType":5126,
			"count":40,
			"max":[
				-0.25543490052223206,
				-0.40434783697128296,
				0.05217394232749939
			],
			"min":[
				-0.2771740257740021,
				-0.45108696818351746,
				0.05217394232749939
			],
			"type":"VEC3"
		},
		{
			"bufferView":28,
			"componentType":5126,
			"count":40,
			"type":"VEC3"
		},
		{
			"bufferView":29,
			"componentType":5123,
			"count":60,
			"type":"SCALAR"
		},
		{
			"bufferView":30,
			"componentType":5126,
			"count":497,
			"max":[
				-0.25000011920928955,
				-0.38913047313690186,
				0.05434785410761833
			],
			"min":[
				-0.2826088070869446,
				-0.45108696818351746,
				2.9802322387695312e-08
			],
			"type":"VEC3"
		},
		{
			"bufferView":31,
			"componentType":5126,
			"count":497,
			"type":"VEC3"
		},
		{
			"bufferView":32,
			"componentType":5123,
			"count":1398,
			"type":"SCALAR"
		},
		{
			"bufferView":33,
			"componentType":5126,
			"count":48,
			"max":[
				-0.25456535816192627,
				-0.3877556324005127,
				0.052293017506599426
			],
			"min":[
				-0.2824265658855438,
				-0.3967825770378113,
				0.002054864540696144
			],
			"type":"VEC3"
		},
		{
			"bufferView":34,
			"componentType":5126,
			"count":48,
			"type":"VEC3"
		},
		{
			"bufferView":35,
			"componentType":5123,
			"count":72,
			"type":"SCALAR"
		}
	],
	"bufferViews":[
		{
			"buffer":0,
			"byteLength":516,
			"byteOffset":0,
			"target":34962
		},
		{
			"buffer":0,
			"byteLength":516,
			"byteOffset":516,
			"target":34962
		},
		{
			"buffer":0,
			"byteLength":138,
			"byteOffset":1032,
			"target":34963
		},
		{
			"buffer":0,
			"byteLength":6012,
			"byteOffset":1172,
			"target":34962
		},
		{
			"buffer":0,
			"byteLength":6012,
			"byteOffset":7184,
			"target":34962
		},
		{
			"buffer":0,
			"byteLength":2802,
			"byteOffset":13196,
			"target":34963
		},
		{
			"buffer":0,
			"byteLength":576,
			"byteOffset":16000,
			"target":34962
		},
		{
			"buffer":0,
			"byteLength":576,
			"byteOffset":16576,
			"target":34962
		},
		{
			"buffer":0,
			"byteLength":144,
			"byteOffset":17152,
			"target":34963
		},
		{
			"buffer":0,
			"byteLength":288,
			"byteOffset":17296,
			"target":34962
		},
		{
			"buffer":0,
			"byteLength":288,
			"byteOffset":17584,
			"target":34962
		},
		{
			"buffer":0,
			"byteLength":72,
			"byteOffset":17872,
			"target":34963
		},
		{
			"buffer":0,
			"byteLength":2976,
			"byteOffset":17944,
			"target":34962
		},
		{
			"buffer":0,
			"byteLength":2976,
			"byteOffset":20920,
			"target":34962
		},
		{
			"buffer":0,
			"byteLength":1122,
			"byteOffset":23896,
			"target":34963
		},
		{
			"buffer":0,
			"byteLength":384,
			"byteOffset":25020,
			"target":34962
		},
		{
			"buffer":0,
			"byteLength":384,
			"byteOffset":25404,
			"target":34962
		},
		{
			"buffer":0,
			"byteLength":96,
			"byteOffset":25788,
			"target":34963
		},
		{
			"buffer":0,
			"byteLength":6132,
			"byteOffset":25884,
			"target":34962
		},
		{
			"buffer":0,
			"byteLength":6132,
			"byteOffset":32016,
			"target":34962
		},
		{
			"buffer":0,
			"byteLength":2832,
			"byteOffset":38148,
			"target":34963
		},
		{
			"buffer":0,
			"byteLength":336,
			"byteOffset":40980,
			"target":34962
		},
		{
			"buffer":0,
			"byteLength":336,
			"byteOffset":41316,
			"target":34962
		},
		{
			"buffer":0,
			"byteLength":84,
			"byteOffset":41652,
			"target":34963
		},
		{
			"buffer":0,
			"byteLength":576,
			"byteOffset":41736,
			"target":34962
		},
		{
			"buffer":0,
			"byteLength":576,
			"byteOffset":42312,
			"target":34962
		},
		{
			"buffer":0,
			"byteLength":144,
			"byteOffset":42888,
			"target":34963
		},
		{
			"buffer":0,
			"byteLength":480,
			"byteOffset":43032,
			"target":34962
		},
		{
			"buffer":0,
			"byteLength":480,
			"byteOffset":43512,
			"target":34962
		},
		{
			"buffer":0,
			"byteLength":120,
			"byteOffset":43992,
			"target":34963
		},
		{
			"buffer":0,
			"byteLength":5964,
			"byteOffset":44112,
			"target":34962
		},
		{
			"buffer":0,
			"byteLength":5964,
			"byteOffset":50076,
			"target":34962
		},
		{
			"buffer":0,
			"byteLength":2796,
			"byteOffset":56040,
			"target":34963
		},
		{
			"buffer":0,
			"byteLength":576,
			"byteOffset":58836,
			"target":34962
		},
		{
			"buffer":0,
			"byteLength":576,
			"byteOffset":59412,
			"target":34962
		},
		{
			"buffer":0,
			"byteLength":144,
			"byteOffset":59988,
			"target":34963
		}
	],
	"buffers":[
		{
			"byteLength":60132,
			"uri":"GhostBina2.bin"
		}
	]
}
