{
	"asset":{
		"generator":"Khronos glTF Blender I/O v4.2.60",
		"version":"2.0"
	},
	"scene":0,
	"scenes":[
		{
			"name":"Scene",
			"nodes":[
				0,
				1,
				2,
				3,
				4,
				5,
				6,
				7
			]
		}
	],
	"nodes":[
		{
			"mesh":0,
			"name":"Building_000.005"
		},
		{
			"mesh":1,
			"name":"Building_003.005"
		},
		{
			"mesh":2,
			"name":"Building_005.010"
		},
		{
			"mesh":3,
			"name":"Building_006.005"
		},
		{
			"mesh":4,
			"name":"Building_010.005"
		},
		{
			"mesh":5,
			"name":"Building_014_RoofCap_0.001"
		},
		{
			"mesh":6,
			"name":"Building_016.010"
		},
		{
			"mesh":7,
			"name":"Building_017_RoofCap_0.001"
		}
	],
	"materials":[
		{
			"doubleSided":true,
			"name":"BinaSolar",
			"pbrMetallicRoughness":{
				"baseColorFactor":[
					0,
					0.08021967113018036,
					0.7230553030967712,
					1
				],
				"metallicFactor":0,
				"roughnessFactor":0.699999988079071
			}
		},
		{
			"doubleSided":true,
			"name":"PencereSolarKapal\u0131",
			"pbrMetallicRoughness":{
				"baseColorFactor":[
					0,
					0.04817177355289459,
					0.3185468912124634,
					1
				],
				"metallicFactor":0,
				"roughnessFactor":0.699999988079071
			}
		},
		{
			"doubleSided":true,
			"name":"Mat_Roof_Cap",
			"pbrMetallicRoughness":{
				"baseColorFactor":[
					0.9822452664375305,
					0.38132646679878235,
					0.0030353753827512264,
					1
				],
				"metallicFactor":0,
				"roughnessFactor":0.699999988079071
			}
		}
	],
	"meshes":[
		{
			"name":"Building_000_Mesh.008",
			"primitives":[
				{
					"attributes":{
						"POSITION":0,
						"NORMAL":1
					},
					"indices":2,
					"material":0
				},
				{
					"attributes":{
						"POSITION":3,
						"NORMAL":4
					},
					"indices":5,
					"material":1
				},
				{
					"attributes":{
						"POSITION":6,
						"NORMAL":7
					},
					"indices":8,
					"material":2
				}
			]
		},
		{
			"name":"Building_003_Mesh.012",
			"primitives":[
				{
					"attributes":{
						"POSITION":9,
						"NORMAL":10
					},
					"indices":11,
					"material":0
				},
				{
					"attributes":{
						"POSITION":12,
						"NORMAL":13
					},
					"indices":14,
					"material":1
				},
				{
					"attributes":{
						"POSITION":15,
						"NORMAL":16
					},
					"indices":17,
					"material":2
				}
			]
		},
		{
			"name":"Building_005_Mesh.014",
			"primitives":[
				{
					"attributes":{
						"POSITION":18,
						"NORMAL":19
					},
					"indices":20,
					"material":1
				},
				{
					"attributes":{
						"POSITION":21,
						"NORMAL":22
					},
					"indices":23,
					"material":0
				},
				{
					"attributes":{
						"POSITION":24,
						"NORMAL":25
					},
					"indices":26,
					"material":2
				}
			]
		},
		{
			"name":"Building_006_Mesh.012",
			"primitives":[
				{
					"attributes":{
						"POSITION":27,
						"NORMAL":28
					},
					"indices":29,
					"material":0
				},
				{
					"attributes":{
						"POSITION":30,
						"NORMAL":31
					},
					"indices":32,
					"material":1
				},
				{
					"attributes":{
						"POSITION":33,
						"NORMAL":34
					},
					"indices":35,
					"material":2
				}
			]
		},
		{
			"name":"Building_010_Mesh.012",
			"primitives":[
				{
					"attributes":{
						"POSITION":36,
						"NORMAL":37
					},
					"indices":38,
					"material":0
				},
				{
					"attributes":{
						"POSITION":39,
						"NORMAL":40
					},
					"indices":41,
					"material":1
				},
				{
					"attributes":{
						"POSITION":42,
						"NORMAL":43
					},
					"indices":44,
					"material":2
				}
			]
		},
		{
			"name":"Building_014_RoofCap_0_Mesh.003",
			"primitives":[
				{
					"attributes":{
						"POSITION":45,
						"NORMAL":46
					},
					"indices":35,
					"material":2
				},
				{
					"attributes":{
						"POSITION":47,
						"NORMAL":48
					},
					"indices":49,
					"material":1
				},
				{
					"attributes":{
						"POSITION":50,
						"NORMAL":51
					},
					"indices":52,
					"material":0
				}
			]
		},
		{
			"name":"Building_016_Mesh.014",
			"primitives":[
				{
					"attributes":{
						"POSITION":53,
						"NORMAL":54
					},
					"indices":55,
					"material":1
				},
				{
					"attributes":{
						"POSITION":56,
						"NORMAL":57
					},
					"indices":58,
					"material":0
				},
				{
					"attributes":{
						"POSITION":59,
						"NORMAL":60
					},
					"indices":61,
					"material":2
				}
			]
		},
		{
			"name":"Building_017_RoofCap_0_Mesh.003",
			"primitives":[
				{
					"attributes":{
						"POSITION":62,
						"NORMAL":63
					},
					"indices":61,
					"material":2
				},
				{
					"attributes":{
						"POSITION":64,
						"NORMAL":65
					},
					"indices":66,
					"material":0
				},
				{
					"attributes":{
						"POSITION":67,
						"NORMAL":68
					},
					"indices":69,
					"material":1
				}
			]
		}
	],
	"accessors":[
		{
			"bufferView":0,
			"componentType":5126,
			"count":306,
			"max":[
				-0.3940218389034271,
				-0.2934783101081848,
				0.06521742045879364
			],
			"min":[
				-0.44293490052223206,
				-0.3532608151435852,
				2.9802322387695312e-08
			],
			"type":"VEC3"
		},
		{
			"bufferView":1,
			"componentType":5126,
			"count":306,
			"type":"VEC3"
		},
		{
			"bufferView":2,
			"componentType":5123,
			"count":666,
			"type":"SCALAR"
		},
		{
			"bufferView":3,
			"componentType":5126,
			"count":52,
			"max":[
				-0.3989131450653076,
				-0.3065217137336731,
				0.0630435049533844
			],
			"min":[
				-0.43804359436035156,
				-0.3532608151435852,
				0.0630435049533844
			],
			"type":"VEC3"
		},
		{
			"bufferView":4,
			"componentType":5126,
			"count":52,
			"type":"VEC3"
		},
		{
			"bufferView":5,
			"componentType":5123,
			"count":78,
			"type":"SCALAR"
		},
		{
			"bufferView":6,
			"componentType":5126,
			"count":48,
			"max":[
				-0.39974331855773926,
				-0.2918247580528259,
				0.06238288804888725
			],
			"min":[
				-0.43674299120903015,
				-0.29917389154434204,
				0.002834560349583626
			],
			"type":"VEC3"
		},
		{
			"bufferView":7,
			"componentType":5126,
			"count":48,
			"type":"VEC3"
		},
		{
			"bufferView":8,
			"componentType":5123,
			"count":72,
			"type":"SCALAR"
		},
		{
			"bufferView":9,
			"componentType":5126,
			"count":501,
			"max":[
				-0.4021740257740021,
				-0.582608699798584,
				0.06521742045879364
			],
			"min":[
				-0.4347827136516571,
				-0.64673912525177,
				2.9802322387695312e-08
			],
			"type":"VEC3"
		},
		{
			"bufferView":10,
			"componentType":5126,
			"count":501,
			"type":"VEC3"
		},
		{
			"bufferView":11,
			"componentType":5123,
			"count":1401,
			"type":"SCALAR"
		},
		{
			"bufferView":12,
			"componentType":5126,
			"count":43,
			"max":[
				-0.4076088070869446,
				-0.6000000238418579,
				0.0630435049533844
			],
			"min":[
				-0.4293479323387146,
				-0.64673912525177,
				0.0630435049533844
			],
			"type":"VEC3"
		},
		{
			"bufferView":13,
			"componentType":5126,
			"count":43,
			"type":"VEC3"
		},
		{
			"bufferView":14,
			"componentType":5123,
			"count":69,
			"type":"SCALAR"
		},
		{
			"bufferView":15,
			"componentType":5126,
			"count":48,
			"max":[
				-0.4037987291812897,
				-0.5814593434333801,
				0.05938313156366348
			],
			"min":[
				-0.4298856854438782,
				-0.5922173261642456,
				0.002573448233306408
			],
			"type":"VEC3"
		},
		{
			"bufferView":16,
			"componentType":5126,
			"count":48,
			"type":"VEC3"
		},
		{
			"bufferView":17,
			"componentType":5123,
			"count":72,
			"type":"SCALAR"
		},
		{
			"bufferView":18,
			"componentType":5126,
			"count":52,
			"max":[
				-0.3989131450653076,
				-0.7956521511077881,
				0.0630435049533844
			],
			"min":[
				-0.43804359436035156,
				-0.8423912525177002,
				0.0630435049533844
			],
			"type":"VEC3"
		},
		{
			"bufferView":19,
			"componentType":5126,
			"count":52,
			"type":"VEC3"
		},
		{
			"bufferView":20,
			"componentType":5123,
			"count":78,
			"type":"SCALAR"
		},
		{
			"bufferView":21,
			"componentType":5126,
			"count":846,
			"max":[
				-0.3940218389034271,
				-0.782608687877655,
				0.06521742045879364
			],
			"min":[
				-0.44293490052223206,
				-0.8423912525177002,
				2.9802322387695312e-08
			],
			"type":"VEC3"
		},
		{
			"bufferView":22,
			"componentType":5126,
			"count":846,
			"type":"VEC3"
		},
		{
			"bufferView":23,
			"componentType":5123,
			"count":2676,
			"type":"SCALAR"
		},
		{
			"bufferView":24,
			"componentType":5126,
			"count":48,
			"max":[
				-0.39794522523880005,
				-0.7809552550315857,
				0.06238288804888725
			],
			"min":[
				-0.4370756447315216,
				-0.788304328918457,
				0.009356298483908176
			],
			"type":"VEC3"
		},
		{
			"bufferView":25,
			"componentType":5126,
			"count":48,
			"type":"VEC3"
		},
		{
			"bufferView":26,
			"componentType":5123,
			"count":72,
			"type":"SCALAR"
		},
		{
			"bufferView":27,
			"componentType":5126,
			"count":1288,
			"max":[
				-0.3940218687057495,
				-0.8706520795822144,
				0.06521742045879364
			],
			"min":[
				-0.44293493032455444,
				-0.9402173757553101,
				2.9802322387695312e-08
			],
			"type":"VEC3"
		},
		{
			"bufferView":28,
			"componentType":5126,
			"count":1288,
			"type":"VEC3"
		},
		{
			"bufferView":29,
			"componentType":5123,
			"count":4614,
			"type":"SCALAR"
		},
		{
			"bufferView":30,
			"componentType":5126,
			"count":80,
			"max":[
				-0.3989131450653076,
				-0.877173900604248,
				0.0630435049533844
			],
			"min":[
				-0.43804359436035156,
				-0.9402173757553101,
				0.0630435049533844
			],
			"type":"VEC3"
		},
		{
			"bufferView":31,
			"componentType":5126,
			"count":80,
			"type":"VEC3"
		},
		{
			"bufferView":32,
			"componentType":5123,
			"count":126,
			"type":"SCALAR"
		},
		{
			"bufferView":33,
			"componentType":5126,
			"count":24,
			"max":[
				-0.39762139320373535,
				-0.8650476932525635,
				0.05883128568530083
			],
			"min":[
				-0.4269692301750183,
				-0.8704782724380493,
				0.006521767936646938
			],
			"type":"VEC3"
		},
		{
			"bufferView":34,
			"componentType":5126,
			"count":24,
			"type":"VEC3"
		},
		{
			"bufferView":35,
			"componentType":5123,
			"count":36,
			"type":"SCALAR"
		},
		{
			"bufferView":36,
			"componentType":5126,
			"count":722,
			"max":[
				-0.3260870575904846,
				-0.5684782266616821,
				0.06521741300821304
			],
			"min":[
				-0.35869577527046204,
				-0.64673912525177,
				2.9802322387695312e-08
			],
			"type":"VEC3"
		},
		{
			"bufferView":37,
			"componentType":5126,
			"count":722,
			"type":"VEC3"
		},
		{
			"bufferView":38,
			"componentType":5123,
			"count":2286,
			"type":"SCALAR"
		},
		{
			"bufferView":39,
			"componentType":5126,
			"count":52,
			"max":[
				-0.3315218389034271,
				-0.583695650100708,
				0.0630435049533844
			],
			"min":[
				-0.35326099395751953,
				-0.64673912525177,
				0.0630435049533844
			],
			"type":"VEC3"
		},
		{
			"bufferView":40,
			"componentType":5126,
			"count":52,
			"type":"VEC3"
		},
		{
			"bufferView":41,
			"componentType":5123,
			"count":78,
			"type":"SCALAR"
		},
		{
			"bufferView":42,
			"componentType":5126,
			"count":48,
			"max":[
				-0.33221349120140076,
				-0.5670733451843262,
				0.06251668184995651
			],
			"min":[
				-0.3583424687385559,
				-0.5761304497718811,
				0.009222500026226044
			],
			"type":"VEC3"
		},
		{
			"bufferView":43,
			"componentType":5126,
			"count":48,
			"type":"VEC3"
		},
		{
			"bufferView":44,
			"componentType":5123,
			"count":72,
			"type":"SCALAR"
		},
		{
			"bufferView":45,
			"componentType":5126,
			"count":24,
			"max":[
				-0.24922192096710205,
				-0.3106998801231384,
				0.05883128568530083
			],
			"min":[
				-0.288352370262146,
				-0.3161303997039795,
				0.006521767936646938
			],
			"type":"VEC3"
		},
		{
			"bufferView":46,
			"componentType":5126,
			"count":24,
			"type":"VEC3"
		},
		{
			"bufferView":47,
			"componentType":5126,
			"count":36,
			"max":[
				-0.24673926830291748,
				-0.322826087474823,
				0.0630435049533844
			],
			"min":[
				-0.28586968779563904,
				-0.3532608151435852,
				0.0630435049533844
			],
			"type":"VEC3"
		},
		{
			"bufferView":48,
			"componentType":5126,
			"count":36,
			"type":"VEC3"
		},
		{
			"bufferView":49,
			"componentType":5123,
			"count":54,
			"type":"SCALAR"
		},
		{
			"bufferView":50,
			"componentType":5126,
			"count":277,
			"max":[
				-0.2418479323387146,
				-0.3163043260574341,
				0.06521741300821304
			],
			"min":[
				-0.29076099395751953,
				-0.3532608151435852,
				2.9802322387695312e-08
			],
			"type":"VEC3"
		},
		{
			"bufferView":51,
			"componentType":5126,
			"count":277,
			"type":"VEC3"
		},
		{
			"bufferView":52,
			"componentType":5123,
			"count":648,
			"type":"SCALAR"
		},
		{
			"bufferView":53,
			"componentType":5126,
			"count":48,
			"max":[
				-0.25543493032455444,
				-0.48586955666542053,
				0.0630435049533844
			],
			"min":[
				-0.27717405557632446,
				-0.5489130020141602,
				0.0630435049533844
			],
			"type":"VEC3"
		},
		{
			"bufferView":54,
			"componentType":5126,
			"count":48,
			"type":"VEC3"
		},
		{
			"bufferView":55,
			"componentType":5123,
			"count":72,
			"type":"SCALAR"
		},
		{
			"bufferView":56,
			"componentType":5126,
			"count":724,
			"max":[
				-0.25000014901161194,
				-0.47065213322639465,
				0.06521742045879364
			],
			"min":[
				-0.28260883688926697,
				-0.5489130020141602,
				2.9802322387695312e-08
			],
			"type":"VEC3"
		},
		{
			"bufferView":57,
			"componentType":5126,
			"count":724,
			"type":"VEC3"
		},
		{
			"bufferView":58,
			"componentType":5123,
			"count":2286,
			"type":"SCALAR"
		},
		{
			"bufferView":59,
			"componentType":5126,
			"count":48,
			"max":[
				-0.25193357467651367,
				-0.4692472815513611,
				0.05925581604242325
			],
			"min":[
				-0.2780205011367798,
				-0.47830432653427124,
				0.0027007637545466423
			],
			"type":"VEC3"
		},
		{
			"bufferView":60,
			"componentType":5126,
			"count":48,
			"type":"VEC3"
		},
		{
			"bufferView":61,
			"componentType":5123,
			"count":72,
			"type":"SCALAR"
		},
		{
			"bufferView":62,
			"componentType":5126,
			"count":48,
			"max":[
				-0.24940747022628784,
				-0.5853030681610107,
				0.06238288804888725
			],
			"min":[
				-0.27892738580703735,
				-0.5926521420478821,
				0.002834560349583626
			],
			"type":"VEC3"
		},
		{
			"bufferView":63,
			"componentType":5126,
			"count":48,
			"type":"VEC3"
		},
		{
			"bufferView":64,
			"componentType":5126,
			"count":873,
			"max":[
				-0.241847962141037,
				-0.5869565010070801,
				0.06521742045879364
			],
			"min":[
				-0.29076099395751953,
				-0.64673912525177,
				2.9802322387695312e-08
			],
			"type":"VEC3"
		},
		{
			"bufferView":65,
			"componentType":5126,
			"count":873,
			"type":"VEC3"
		},
		{
			"bufferView":66,
			"componentType":5123,
			"count":2826,
			"type":"SCALAR"
		},
		{
			"bufferView":67,
			"componentType":5126,
			"count":68,
			"max":[
				-0.24673926830291748,
				-0.5999999642372131,
				0.0630435049533844
			],
			"min":[
				-0.28586968779563904,
				-0.64673912525177,
				0.0630435049533844
			],
			"type":"VEC3"
		},
		{
			"bufferView":68,
			"componentType":5126,
			"count":68,
			"type":"VEC3"
		},
		{
			"bufferView":69,
			"componentType":5123,
			"count":102,
			"type":"SCALAR"
		}
	],
	"bufferViews":[
		{
			"buffer":0,
			"byteLength":3672,
			"byteOffset":0,
			"target":34962
		},
		{
			"buffer":0,
			"byteLength":3672,
			"byteOffset":3672,
			"target":34962
		},
		{
			"buffer":0,
			"byteLength":1332,
			"byteOffset":7344,
			"target":34963
		},
		{
			"buffer":0,
			"byteLength":624,
			"byteOffset":8676,
			"target":34962
		},
		{
			"buffer":0,
			"byteLength":624,
			"byteOffset":9300,
			"target":34962
		},
		{
			"buffer":0,
			"byteLength":156,
			"byteOffset":9924,
			"target":34963
		},
		{
			"buffer":0,
			"byteLength":576,
			"byteOffset":10080,
			"target":34962
		},
		{
			"buffer":0,
			"byteLength":576,
			"byteOffset":10656,
			"target":34962
		},
		{
			"buffer":0,
			"byteLength":144,
			"byteOffset":11232,
			"target":34963
		},
		{
			"buffer":0,
			"byteLength":6012,
			"byteOffset":11376,
			"target":34962
		},
		{
			"buffer":0,
			"byteLength":6012,
			"byteOffset":17388,
			"target":34962
		},
		{
			"buffer":0,
			"byteLength":2802,
			"byteOffset":23400,
			"target":34963
		},
		{
			"buffer":0,
			"byteLength":516,
			"byteOffset":26204,
			"target":34962
		},
		{
			"buffer":0,
			"byteLength":516,
			"byteOffset":26720,
			"target":34962
		},
		{
			"buffer":0,
			"byteLength":138,
			"byteOffset":27236,
			"target":34963
		},
		{
			"buffer":0,
			"byteLength":576,
			"byteOffset":27376,
			"target":34962
		},
		{
			"buffer":0,
			"byteLength":576,
			"byteOffset":27952,
			"target":34962
		},
		{
			"buffer":0,
			"byteLength":144,
			"byteOffset":28528,
			"target":34963
		},
		{
			"buffer":0,
			"byteLength":624,
			"byteOffset":28672,
			"target":34962
		},
		{
			"buffer":0,
			"byteLength":624,
			"byteOffset":29296,
			"target":34962
		},
		{
			"buffer":0,
			"byteLength":156,
			"byteOffset":29920,
			"target":34963
		},
		{
			"buffer":0,
			"byteLength":10152,
			"byteOffset":30076,
			"target":34962
		},
		{
			"buffer":0,
			"byteLength":10152,
			"byteOffset":40228,
			"target":34962
		},
		{
			"buffer":0,
			"byteLength":5352,
			"byteOffset":50380,
			"target":34963
		},
		{
			"buffer":0,
			"byteLength":576,
			"byteOffset":55732,
			"target":34962
		},
		{
			"buffer":0,
			"byteLength":576,
			"byteOffset":56308,
			"target":34962
		},
		{
			"buffer":0,
			"byteLength":144,
			"byteOffset":56884,
			"target":34963
		},
		{
			"buffer":0,
			"byteLength":15456,
			"byteOffset":57028,
			"target":34962
		},
		{
			"buffer":0,
			"byteLength":15456,
			"byteOffset":72484,
			"target":34962
		},
		{
			"buffer":0,
			"byteLength":9228,
			"byteOffset":87940,
			"target":34963
		},
		{
			"buffer":0,
			"byteLength":960,
			"byteOffset":97168,
			"target":34962
		},
		{
			"buffer":0,
			"byteLength":960,
			"byteOffset":98128,
			"target":34962
		},
		{
			"buffer":0,
			"byteLength":252,
			"byteOffset":99088,
			"target":34963
		},
		{
			"buffer":0,
			"byteLength":288,
			"byteOffset":99340,
			"target":34962
		},
		{
			"buffer":0,
			"byteLength":288,
			"byteOffset":99628,
			"target":34962
		},
		{
			"buffer":0,
			"byteLength":72,
			"byteOffset":99916,
			"target":34963
		},
		{
			"buffer":0,
			"byteLength":8664,
			"byteOffset":99988,
			"target":34962
		},
		{
			"buffer":0,
			"byteLength":8664,
			"byteOffset":108652,
			"target":34962
		},
		{
			"buffer":0,
			"byteLength":4572,
			"byteOffset":117316,
			"target":34963
		},
		{
			"buffer":0,
			"byteLength":624,
			"byteOffset":121888,
			"target":34962
		},
		{
			"buffer":0,
			"byteLength":624,
			"byteOffset":122512,
			"target":34962
		},
		{
			"buffer":0,
			"byteLength":156,
			"byteOffset":123136,
			"target":34963
		},
		{
			"buffer":0,
			"byteLength":576,
			"byteOffset":123292,
			"target":34962
		},
		{
			"buffer":0,
			"byteLength":576,
			"byteOffset":123868,
			"target":34962
		},
		{
			"buffer":0,
			"byteLength":144,
			"byteOffset":124444,
			"target":34963
		},
		{
			"buffer":0,
			"byteLength":288,
			"byteOffset":124588,
			"target":34962
		},
		{
			"buffer":0,
			"byteLength":288,
			"byteOffset":124876,
			"target":34962
		},
		{
			"buffer":0,
			"byteLength":432,
			"byteOffset":125164,
			"target":34962
		},
		{
			"buffer":0,
			"byteLength":432,
			"byteOffset":125596,
			"target":34962
		},
		{
			"buffer":0,
			"byteLength":108,
			"byteOffset":126028,
			"target":34963
		},
		{
			"buffer":0,
			"byteLength":3324,
			"byteOffset":126136,
			"target":34962
		},
		{
			"buffer":0,
			"byteLength":3324,
			"byteOffset":129460,
			"target":34962
		},
		{
			"buffer":0,
			"byteLength":1296,
			"byteOffset":132784,
			"target":34963
		},
		{
			"buffer":0,
			"byteLength":576,
			"byteOffset":134080,
			"target":34962
		},
		{
			"buffer":0,
			"byteLength":576,
			"byteOffset":134656,
			"target":34962
		},
		{
			"buffer":0,
			"byteLength":144,
			"byteOffset":135232,
			"target":34963
		},
		{
			"buffer":0,
			"byteLength":8688,
			"byteOffset":135376,
			"target":34962
		},
		{
			"buffer":0,
			"byteLength":8688,
			"byteOffset":144064,
			"target":34962
		},
		{
			"buffer":0,
			"byteLength":4572,
			"byteOffset":152752,
			"target":34963
		},
		{
			"buffer":0,
			"byteLength":576,
			"byteOffset":157324,
			"target":34962
		},
		{
			"buffer":0,
			"byteLength":576,
			"byteOffset":157900,
			"target":34962
		},
		{
			"buffer":0,
			"byteLength":144,
			"byteOffset":158476,
			"target":34963
		},
		{
			"buffer":0,
			"byteLength":576,
			"byteOffset":158620,
			"target":34962
		},
		{
			"buffer":0,
			"byteLength":576,
			"byteOffset":159196,
			"target":34962
		},
		{
			"buffer":0,
			"byteLength":10476,
			"byteOffset":159772,
			"target":34962
		},
		{
			"buffer":0,
			"byteLength":10476,
			"byteOffset":170248,
			"target":34962
		},
		{
			"buffer":0,
			"byteLength":5652,
			"byteOffset":180724,
			"target":34963
		},
		{
			"buffer":0,
			"byteLength":816,
			"byteOffset":186376,
			"target":34962
		},
		{
			"buffer":0,
			"byteLength":816,
			"byteOffset":187192,
			"target":34962
		},
		{
			"buffer":0,
			"byteLength":204,
			"byteOffset":188008,
			"target":34963
		}
	],
	"buffers":[
		{
			"byteLength":188212,
			"uri":"GhostBina3.bin"
		}
	]
}
