{
	"asset":{
		"generator":"Khronos glTF Blender I/O v4.2.60",
		"version":"2.0"
	},
	"scene":0,
	"scenes":[
		{
			"name":"Scene",
			"nodes":[
				0
			]
		}
	],
	"nodes":[
		{
			"mesh":0,
			"name":"Plane.025",
			"rotation":[
				0.7071068286895752,
				0,
				0,
				0.7071068286895752
			],
			"scale":[
				0.49621954560279846,
				4.725897789001465,
				2.4347822666168213
			]
		}
	],
	"materials":[
		{
			"alphaMode":"BLEND",
			"doubleSided":true,
			"name":"Material.004",
			"pbrMetallicRoughness":{
				"baseColorFactor":[
					0.9822452664375305,
					0.38132646679878235,
					0.0030353753827512264,
					0.5
				],
				"metallicFactor":0,
				"roughnessFactor":0.5
			}
		}
	],
	"meshes":[
		{
			"name":"Plane.031",
			"primitives":[
				{
					"attributes":{
						"POSITION":0,
						"NORMAL":1,
						"TEXCOORD_0":2
					},
					"indices":3,
					"material":0
				}
			]
		}
	],
	"accessors":[
		{
			"bufferView":0,
			"componentType":5126,
			"count":5,
			"max":[
				0.920337438583374,
				5.271993064326352e-09,
				0.39376625418663025
			],
			"min":[
				-0.9190011024475098,
				-1.1715033387815765e-08,
				0.10626623779535294
			],
			"type":"VEC3"
		},
		{
			"bufferView":1,
			"componentType":5126,
			"count":5,
			"type":"VEC3"
		},
		{
			"bufferView":2,
			"componentType":5126,
			"count":5,
			"type":"VEC2"
		},
		{
			"bufferView":3,
			"componentType":5123,
			"count":9,
			"type":"SCALAR"
		}
	],
	"bufferViews":[
		{
			"buffer":0,
			"byteLength":60,
			"byteOffset":0,
			"target":34962
		},
		{
			"buffer":0,
			"byteLength":60,
			"byteOffset":60,
			"target":34962
		},
		{
			"buffer":0,
			"byteLength":40,
			"byteOffset":120,
			"target":34962
		},
		{
			"buffer":0,
			"byteLength":18,
			"byteOffset":160,
			"target":34963
		}
	],
	"buffers":[
		{
			"byteLength":180,
			"uri":"arkaplan.bin"
		}
	]
}
