{
	"asset":{
		"generator":"Khronos glTF Blender I/O v4.2.60",
		"version":"2.0"
	},
	"scene":0,
	"scenes":[
		{
			"name":"Scene",
			"nodes":[
				1
			]
		}
	],
	"nodes":[
		{
			"mesh":0,
			"name":"Cube.045",
			"rotation":[
				-1,
				0,
				0,
				1.0852407967831823e-06
			],
			"scale":[
				1,
				1.0208207368850708,
				1
			],
			"translation":[
				-0.4806140065193176,
				0.209716796875,
				-0.032235585153102875
			]
		},
		{
			"children":[
				0
			],
			"name":"Bar3.002",
			"scale":[
				1,
				0.0010000000474974513,
				1
			],
			"translation":[
				0.4806140065193176,
				-1.0071742534637451,
				0.032235585153102875
			]
		}
	],
	"animations":[
		{
			"channels":[
				{
					"sampler":0,
					"target":{
						"node":1,
						"path":"translation"
					}
				},
				{
					"sampler":1,
					"target":{
						"node":1,
						"path":"scale"
					}
				}
			],
			"name":"Empty.005Action.001",
			"samplers":[
				{
					"input":3,
					"interpolation":"STEP",
					"output":4
				},
				{
					"input":5,
					"interpolation":"LINEAR",
					"output":6
				}
			]
		}
	],
	"materials":[
		{
			"doubleSided":true,
			"name":"PencereSolar.008",
			"pbrMetallicRoughness":{
				"baseColorFactor":[
					0.9822452664375305,
					0.38132646679878235,
					0.0030353753827512264,
					1
				],
				"metallicFactor":0,
				"roughnessFactor":0.5
			}
		}
	],
	"meshes":[
		{
			"name":"Cube.020",
			"primitives":[
				{
					"attributes":{
						"POSITION":0,
						"NORMAL":1
					},
					"indices":2,
					"material":0
				}
			]
		}
	],
	"accessors":[
		{
			"bufferView":0,
			"componentType":5126,
			"count":24,
			"max":[
				0.4868636131286621,
				0.2054198980331421,
				-0.027236199006438255
			],
			"min":[
				0.47436362504959106,
				0.0893913060426712,
				-0.03723619878292084
			],
			"type":"VEC3"
		},
		{
			"bufferView":1,
			"componentType":5126,
			"count":24,
			"type":"VEC3"
		},
		{
			"bufferView":2,
			"componentType":5123,
			"count":36,
			"type":"SCALAR"
		},
		{
			"bufferView":3,
			"componentType":5126,
			"count":2,
			"max":[
				1.0833333333333333
			],
			"min":[
				0
			],
			"type":"SCALAR"
		},
		{
			"bufferView":4,
			"componentType":5126,
			"count":2,
			"type":"VEC3"
		},
		{
			"bufferView":5,
			"componentType":5126,
			"count":27,
			"max":[
				1.0833333333333333
			],
			"min":[
				0
			],
			"type":"SCALAR"
		},
		{
			"bufferView":6,
			"componentType":5126,
			"count":27,
			"type":"VEC3"
		}
	],
	"bufferViews":[
		{
			"buffer":0,
			"byteLength":288,
			"byteOffset":0,
			"target":34962
		},
		{
			"buffer":0,
			"byteLength":288,
			"byteOffset":288,
			"target":34962
		},
		{
			"buffer":0,
			"byteLength":72,
			"byteOffset":576,
			"target":34963
		},
		{
			"buffer":0,
			"byteLength":8,
			"byteOffset":648
		},
		{
			"buffer":0,
			"byteLength":24,
			"byteOffset":656
		},
		{
			"buffer":0,
			"byteLength":108,
			"byteOffset":680
		},
		{
			"buffer":0,
			"byteLength":324,
			"byteOffset":788
		}
	],
	"buffers":[
		{
			"byteLength":1112,
			"uri":"Bar3.bin"
		}
	]
}
