{
	"asset":{
		"generator":"Khronos glTF Blender I/O v4.2.60",
		"version":"2.0"
	},
	"scene":0,
	"scenes":[
		{
			"name":"Scene",
			"nodes":[
				1
			]
		}
	],
	"nodes":[
		{
			"mesh":0,
			"name":"Cube.042",
			"rotation":[
				0.49999433755874634,
				-0.49999427795410156,
				-0.4999942481517792,
				0.5000171661376953
			],
			"scale":[
				1.6666550636291504,
				4.715169429779053,
				1.3333332538604736
			],
			"translation":[
				-0.4820672869682312,
				0.5542522072792053,
				-0.32297515869140625
			]
		},
		{
			"children":[
				0
			],
			"name":"Bar5",
			"rotation":[
				0,
				0.2588190734386444,
				0,
				0.965925931930542
			],
			"scale":[
				1,
				1,
				0.0009999871253967285
			],
			"translation":[
				0.5762064456939697,
				-0.5542522072792053,
				0.03388424590229988
			]
		}
	],
	"animations":[
		{
			"channels":[
				{
					"sampler":0,
					"target":{
						"node":1,
						"path":"scale"
					}
				}
			],
			"name":"EmptyAction.007",
			"samplers":[
				{
					"input":3,
					"interpolation":"LINEAR",
					"output":4
				}
			]
		}
	],
	"materials":[
		{
			"doubleSided":true,
			"name":"PencereSolar.008",
			"pbrMetallicRoughness":{
				"baseColorFactor":[
					0.9822452664375305,
					0.38132646679878235,
					0.0030353753827512264,
					1
				],
				"metallicFactor":0,
				"roughnessFactor":0.5
			}
		}
	],
	"meshes":[
		{
			"name":"Cube.028",
			"primitives":[
				{
					"attributes":{
						"POSITION":0,
						"NORMAL":1
					},
					"indices":2,
					"material":0
				}
			]
		}
	],
	"accessors":[
		{
			"bufferView":0,
			"componentType":5126,
			"count":24,
			"max":[
				0.3363036811351776,
				0.06849822402000427,
				-0.35780054330825806
			],
			"min":[
				0.3288036286830902,
				0.04339432343840599,
				-0.3653005361557007
			],
			"type":"VEC3"
		},
		{
			"bufferView":1,
			"componentType":5126,
			"count":24,
			"type":"VEC3"
		},
		{
			"bufferView":2,
			"componentType":5123,
			"count":36,
			"type":"SCALAR"
		},
		{
			"bufferView":3,
			"componentType":5126,
			"count":13,
			"max":[
				0.5
			],
			"min":[
				0
			],
			"type":"SCALAR"
		},
		{
			"bufferView":4,
			"componentType":5126,
			"count":13,
			"type":"VEC3"
		}
	],
	"bufferViews":[
		{
			"buffer":0,
			"byteLength":288,
			"byteOffset":0,
			"target":34962
		},
		{
			"buffer":0,
			"byteLength":288,
			"byteOffset":288,
			"target":34962
		},
		{
			"buffer":0,
			"byteLength":72,
			"byteOffset":576,
			"target":34963
		},
		{
			"buffer":0,
			"byteLength":52,
			"byteOffset":648
		},
		{
			"buffer":0,
			"byteLength":156,
			"byteOffset":700
		}
	],
	"buffers":[
		{
			"byteLength":856,
			"uri":"Bar5.bin"
		}
	]
}
