{
	"asset":{
		"generator":"Khronos glTF Blender I/O v4.2.60",
		"version":"2.0"
	},
	"scene":0,
	"scenes":[
		{
			"name":"Scene",
			"nodes":[
				0,
				1
			]
		}
	],
	"nodes":[
		{
			"mesh":0,
			"name":"Simsek3.008",
			"rotation":[
				0,
				0.8660253882408142,
				0,
				0.4999999701976776
			],
			"scale":[
				1.9600000381469727,
				1.9600000381469727,
				1.9600000381469727
			],
			"translation":[
				0.5237903594970703,
				0.46650803089141846,
				0.007346827536821365
			]
		},
		{
			"mesh":1,
			"name":"Cube.002",
			"rotation":[
				0.3535534143447876,
				-0.3535533845424652,
				-0.6123723983764648,
				0.6123724579811096
			],
			"scale":[
				1.6666550636291504,
				4.634394645690918,
				1.3333332538604736
			]
		}
	],
	"materials":[
		{
			"doubleSided":true,
			"name":"PencereSolar.009",
			"pbrMetallicRoughness":{
				"baseColorFactor":[
					0.9822452664375305,
					0.38132646679878235,
					0.0030353753827512264,
					1
				],
				"metallicFactor":0,
				"roughnessFactor":0.5
			}
		},
		{
			"doubleSided":true,
			"name":"PencereSolar.008",
			"pbrMetallicRoughness":{
				"baseColorFactor":[
					0.9822452664375305,
					0.38132646679878235,
					0.0030353753827512264,
					1
				],
				"metallicFactor":0,
				"roughnessFactor":0.5
			}
		},
		{
			"doubleSided":true,
			"name":"PencereSolar.003",
			"pbrMetallicRoughness":{
				"baseColorFactor":[
					0.9822452664375305,
					0.38132646679878235,
					0.0030353753827512264,
					1
				],
				"metallicFactor":0,
				"roughnessFactor":0.5
			}
		}
	],
	"meshes":[
		{
			"name":"Plane.049",
			"primitives":[
				{
					"attributes":{
						"POSITION":0,
						"NORMAL":1,
						"TEXCOORD_0":2
					},
					"indices":3,
					"material":0
				}
			]
		},
		{
			"name":"Cube.029",
			"primitives":[
				{
					"attributes":{
						"POSITION":4,
						"NORMAL":5,
						"TEXCOORD_0":6
					},
					"indices":7,
					"material":1
				},
				{
					"attributes":{
						"POSITION":8,
						"NORMAL":9,
						"TEXCOORD_0":10
					},
					"indices":11,
					"material":2
				}
			]
		}
	],
	"accessors":[
		{
			"bufferView":0,
			"componentType":5126,
			"count":54,
			"max":[
				0.011948555707931519,
				-0.5316380262374878,
				0.016345933079719543
			],
			"min":[
				-0.01011669635772705,
				-0.5713934898376465,
				0.008737236261367798
			],
			"type":"VEC3"
		},
		{
			"bufferView":1,
			"componentType":5126,
			"count":54,
			"type":"VEC3"
		},
		{
			"bufferView":2,
			"componentType":5126,
			"count":54,
			"type":"VEC2"
		},
		{
			"bufferView":3,
			"componentType":5123,
			"count":96,
			"type":"SCALAR"
		},
		{
			"bufferView":4,
			"componentType":5126,
			"count":24,
			"max":[
				0.33930373191833496,
				0.06849822402000427,
				-0.35780054330825806
			],
			"min":[
				0.32580357789993286,
				0.05158765986561775,
				-0.3653005361557007
			],
			"type":"VEC3"
		},
		{
			"bufferView":5,
			"componentType":5126,
			"count":24,
			"type":"VEC3"
		},
		{
			"bufferView":6,
			"componentType":5126,
			"count":24,
			"type":"VEC2"
		},
		{
			"bufferView":7,
			"componentType":5123,
			"count":36,
			"type":"SCALAR"
		},
		{
			"bufferView":8,
			"componentType":5126,
			"count":22,
			"max":[
				0.34754303097724915,
				0.05158765986561775,
				-0.3578006327152252
			],
			"min":[
				0.3175641596317291,
				0.04619705304503441,
				-0.36529380083084106
			],
			"type":"VEC3"
		},
		{
			"bufferView":9,
			"componentType":5126,
			"count":22,
			"type":"VEC3"
		},
		{
			"bufferView":10,
			"componentType":5126,
			"count":22,
			"type":"VEC2"
		},
		{
			"bufferView":11,
			"componentType":5123,
			"count":36,
			"type":"SCALAR"
		}
	],
	"bufferViews":[
		{
			"buffer":0,
			"byteLength":648,
			"byteOffset":0,
			"target":34962
		},
		{
			"buffer":0,
			"byteLength":648,
			"byteOffset":648,
			"target":34962
		},
		{
			"buffer":0,
			"byteLength":432,
			"byteOffset":1296,
			"target":34962
		},
		{
			"buffer":0,
			"byteLength":192,
			"byteOffset":1728,
			"target":34963
		},
		{
			"buffer":0,
			"byteLength":288,
			"byteOffset":1920,
			"target":34962
		},
		{
			"buffer":0,
			"byteLength":288,
			"byteOffset":2208,
			"target":34962
		},
		{
			"buffer":0,
			"byteLength":192,
			"byteOffset":2496,
			"target":34962
		},
		{
			"buffer":0,
			"byteLength":72,
			"byteOffset":2688,
			"target":34963
		},
		{
			"buffer":0,
			"byteLength":264,
			"byteOffset":2760,
			"target":34962
		},
		{
			"buffer":0,
			"byteLength":264,
			"byteOffset":3024,
			"target":34962
		},
		{
			"buffer":0,
			"byteLength":176,
			"byteOffset":3288,
			"target":34962
		},
		{
			"buffer":0,
			"byteLength":72,
			"byteOffset":3464,
			"target":34963
		}
	],
	"buffers":[
		{
			"byteLength":3536,
			"uri":"baryanson.bin"
		}
	]
}
