{
	"asset":{
		"generator":"Khronos glTF Blender I/O v4.2.60",
		"version":"2.0"
	},
	"scene":0,
	"scenes":[
		{
			"name":"Scene",
			"nodes":[
				0,
				1
			]
		}
	],
	"nodes":[
		{
			"mesh":0,
			"name":"Cube.059",
			"rotation":[
				-0.8001032471656799,
				0.3314136266708374,
				-0.46193981170654297,
				0.19134169816970825
			],
			"scale":[
				1.666668176651001,
				0.7921751141548157,
				1.3333346843719482
			]
		},
		{
			"mesh":1,
			"name":"Simsek3.008",
			"rotation":[
				0,
				0.8660253882408142,
				0,
				0.4999999701976776
			],
			"scale":[
				1.9600000381469727,
				1.9600000381469727,
				1.9600000381469727
			],
			"translation":[
				0.5037903785705566,
				0.4466719627380371,
				-0.027294188737869263
			]
		}
	],
	"materials":[
		{
			"doubleSided":true,
			"name":"PencereSolar.003",
			"pbrMetallicRoughness":{
				"baseColorFactor":[
					0.9822452664375305,
					0.38132646679878235,
					0.0030353753827512264,
					1
				],
				"metallicFactor":0,
				"roughnessFactor":0.5
			}
		},
		{
			"doubleSided":true,
			"name":"PencereSolar.008",
			"pbrMetallicRoughness":{
				"baseColorFactor":[
					0.9822452664375305,
					0.38132646679878235,
					0.0030353753827512264,
					1
				],
				"metallicFactor":0,
				"roughnessFactor":0.5
			}
		},
		{
			"doubleSided":true,
			"name":"PencereSolar.009",
			"pbrMetallicRoughness":{
				"baseColorFactor":[
					0.9822452664375305,
					0.38132646679878235,
					0.0030353753827512264,
					1
				],
				"metallicFactor":0,
				"roughnessFactor":0.5
			}
		}
	],
	"meshes":[
		{
			"name":"Cube.076",
			"primitives":[
				{
					"attributes":{
						"POSITION":0,
						"NORMAL":1
					},
					"indices":2,
					"material":0
				},
				{
					"attributes":{
						"POSITION":3,
						"NORMAL":4
					},
					"indices":5,
					"material":1
				}
			]
		},
		{
			"name":"Plane.049",
			"primitives":[
				{
					"attributes":{
						"POSITION":6,
						"NORMAL":7,
						"TEXCOORD_0":8
					},
					"indices":9,
					"material":2
				}
			]
		}
	],
	"accessors":[
		{
			"bufferView":0,
			"componentType":5126,
			"count":48,
			"max":[
				0.33506250381469727,
				0.3223941922187805,
				0.36529338359832764
			],
			"min":[
				0.31706249713897705,
				0.28452378511428833,
				0.357793390750885
			],
			"type":"VEC3"
		},
		{
			"bufferView":1,
			"componentType":5126,
			"count":48,
			"type":"VEC3"
		},
		{
			"bufferView":2,
			"componentType":5123,
			"count":72,
			"type":"SCALAR"
		},
		{
			"bufferView":3,
			"componentType":5126,
			"count":24,
			"max":[
				0.3724822700023651,
				0.3208017349243164,
				0.36530017852783203
			],
			"min":[
				0.3178195655345917,
				0.20579607784748077,
				0.35780012607574463
			],
			"type":"VEC3"
		},
		{
			"bufferView":4,
			"componentType":5126,
			"count":24,
			"type":"VEC3"
		},
		{
			"bufferView":5,
			"componentType":5123,
			"count":36,
			"type":"SCALAR"
		},
		{
			"bufferView":6,
			"componentType":5126,
			"count":54,
			"max":[
				0.011948555707931519,
				-0.5316380262374878,
				0.016345933079719543
			],
			"min":[
				-0.01011669635772705,
				-0.5713934898376465,
				0.008737236261367798
			],
			"type":"VEC3"
		},
		{
			"bufferView":7,
			"componentType":5126,
			"count":54,
			"type":"VEC3"
		},
		{
			"bufferView":8,
			"componentType":5126,
			"count":54,
			"type":"VEC2"
		},
		{
			"bufferView":9,
			"componentType":5123,
			"count":96,
			"type":"SCALAR"
		}
	],
	"bufferViews":[
		{
			"buffer":0,
			"byteLength":576,
			"byteOffset":0,
			"target":34962
		},
		{
			"buffer":0,
			"byteLength":576,
			"byteOffset":576,
			"target":34962
		},
		{
			"buffer":0,
			"byteLength":144,
			"byteOffset":1152,
			"target":34963
		},
		{
			"buffer":0,
			"byteLength":288,
			"byteOffset":1296,
			"target":34962
		},
		{
			"buffer":0,
			"byteLength":288,
			"byteOffset":1584,
			"target":34962
		},
		{
			"buffer":0,
			"byteLength":72,
			"byteOffset":1872,
			"target":34963
		},
		{
			"buffer":0,
			"byteLength":648,
			"byteOffset":1944,
			"target":34962
		},
		{
			"buffer":0,
			"byteLength":648,
			"byteOffset":2592,
			"target":34962
		},
		{
			"buffer":0,
			"byteLength":432,
			"byteOffset":3240,
			"target":34962
		},
		{
			"buffer":0,
			"byteLength":192,
			"byteOffset":3672,
			"target":34963
		}
	],
	"buffers":[
		{
			"byteLength":3864,
			"uri":"baryanson.bin"
		}
	]
}
