{
	"asset":{
		"generator":"Khronos glTF Blender I/O v4.2.60",
		"version":"2.0"
	},
	"scene":0,
	"scenes":[
		{
			"name":"Scene",
			"nodes":[
				1
			]
		}
	],
	"nodes":[
		{
			"mesh":0,
			"name":"Cube.040",
			"rotation":[
				0,
				0,
				-0.9238795638084412,
				0.3826834261417389
			],
			"scale":[
				1.666668176651001,
				0.7921751737594604,
				1.3333346843719482
			],
			"translation":[
				0.19907766580581665,
				-0.44488525390625,
				0.4820629358291626
			]
		},
		{
			"children":[
				0
			],
			"name":"Ok1",
			"scale":[
				1,
				0.0009999871253967285,
				1
			],
			"translation":[
				0.022129999473690987,
				-1.0009243488311768,
				0.03223533555865288
			]
		}
	],
	"animations":[
		{
			"channels":[
				{
					"sampler":0,
					"target":{
						"node":1,
						"path":"translation"
					}
				},
				{
					"sampler":1,
					"target":{
						"node":1,
						"path":"rotation"
					}
				},
				{
					"sampler":2,
					"target":{
						"node":1,
						"path":"scale"
					}
				}
			],
			"name":"Bar11.001Action.003",
			"samplers":[
				{
					"input":3,
					"interpolation":"LINEAR",
					"output":4
				},
				{
					"input":3,
					"interpolation":"LINEAR",
					"output":5
				},
				{
					"input":3,
					"interpolation":"LINEAR",
					"output":6
				}
			]
		}
	],
	"materials":[
		{
			"doubleSided":true,
			"name":"PencereSolar.003",
			"pbrMetallicRoughness":{
				"baseColorFactor":[
					0.9822452664375305,
					0.38132646679878235,
					0.0030353753827512264,
					1
				],
				"metallicFactor":0,
				"roughnessFactor":0.5
			}
		}
	],
	"meshes":[
		{
			"name":"Cube.015",
			"primitives":[
				{
					"attributes":{
						"POSITION":0,
						"NORMAL":1
					},
					"indices":2,
					"material":0
				}
			]
		}
	],
	"accessors":[
		{
			"bufferView":0,
			"componentType":5126,
			"count":48,
			"max":[
				-0.08883800357580185,
				-0.5694558620452881,
				-0.35780036449432373
			],
			"min":[
				-0.10683801025152206,
				-0.6073262691497803,
				-0.36530035734176636
			],
			"type":"VEC3"
		},
		{
			"bufferView":1,
			"componentType":5126,
			"count":48,
			"type":"VEC3"
		},
		{
			"bufferView":2,
			"componentType":5123,
			"count":72,
			"type":"SCALAR"
		},
		{
			"bufferView":3,
			"componentType":5126,
			"count":101,
			"max":[
				4.166666666666667
			],
			"min":[
				0
			],
			"type":"SCALAR"
		},
		{
			"bufferView":4,
			"componentType":5126,
			"count":101,
			"type":"VEC3"
		},
		{
			"bufferView":5,
			"componentType":5126,
			"count":101,
			"type":"VEC4"
		},
		{
			"bufferView":6,
			"componentType":5126,
			"count":101,
			"type":"VEC3"
		}
	],
	"bufferViews":[
		{
			"buffer":0,
			"byteLength":576,
			"byteOffset":0,
			"target":34962
		},
		{
			"buffer":0,
			"byteLength":576,
			"byteOffset":576,
			"target":34962
		},
		{
			"buffer":0,
			"byteLength":144,
			"byteOffset":1152,
			"target":34963
		},
		{
			"buffer":0,
			"byteLength":404,
			"byteOffset":1296
		},
		{
			"buffer":0,
			"byteLength":1212,
			"byteOffset":1700
		},
		{
			"buffer":0,
			"byteLength":1616,
			"byteOffset":2912
		},
		{
			"buffer":0,
			"byteLength":1212,
			"byteOffset":4528
		}
	],
	"buffers":[
		{
			"byteLength":5740,
			"uri":"Ok.bin"
		}
	]
}
