{
	"asset":{
		"generator":"Khronos glTF Blender I/O v4.2.60",
		"version":"2.0"
	},
	"scene":0,
	"scenes":[
		{
			"name":"Scene",
			"nodes":[
				1
			]
		}
	],
	"nodes":[
		{
			"mesh":0,
			"name":"Plane.051",
			"rotation":[
				0.27059808373451233,
				-0.6532815098762512,
				-0.6532815098762512,
				0.27059802412986755
			],
			"scale":[
				0.035330161452293396,
				0.028868278488516808,
				0.03533000126481056
			],
			"translation":[
				0.19907765090465546,
				0.5543212890625,
				-0.482062965631485
			]
		},
		{
			"children":[
				0
			],
			"name":"Ok1",
			"scale":[
				1,
				0.0009999871253967285,
				1
			],
			"translation":[
				0.022129999473690987,
				-0.9979779720306396,
				0.03223533555865288
			]
		}
	],
	"animations":[
		{
			"channels":[
				{
					"sampler":0,
					"target":{
						"node":1,
						"path":"translation"
					}
				},
				{
					"sampler":1,
					"target":{
						"node":1,
						"path":"rotation"
					}
				},
				{
					"sampler":2,
					"target":{
						"node":1,
						"path":"scale"
					}
				}
			],
			"name":"Bar11.001Action.005",
			"samplers":[
				{
					"input":4,
					"interpolation":"LINEAR",
					"output":5
				},
				{
					"input":4,
					"interpolation":"LINEAR",
					"output":6
				},
				{
					"input":4,
					"interpolation":"LINEAR",
					"output":7
				}
			]
		}
	],
	"materials":[
		{
			"doubleSided":true,
			"name":"PencereSolar.003",
			"pbrMetallicRoughness":{
				"baseColorFactor":[
					0.9822452664375305,
					0.38132646679878235,
					0.0030353753827512264,
					1
				],
				"metallicFactor":0,
				"roughnessFactor":0.5
			}
		}
	],
	"meshes":[
		{
			"name":"Plane.069",
			"primitives":[
				{
					"attributes":{
						"POSITION":0,
						"NORMAL":1,
						"TEXCOORD_0":2
					},
					"indices":3,
					"material":0
				}
			]
		}
	],
	"accessors":[
		{
			"bufferView":0,
			"componentType":5126,
			"count":22,
			"max":[
				15.577330589294434,
				16.871749877929688,
				-6.608587265014648
			],
			"min":[
				14.577330589294434,
				16.525348663330078,
				-7.608587265014648
			],
			"type":"VEC3"
		},
		{
			"bufferView":1,
			"componentType":5126,
			"count":22,
			"type":"VEC3"
		},
		{
			"bufferView":2,
			"componentType":5126,
			"count":22,
			"type":"VEC2"
		},
		{
			"bufferView":3,
			"componentType":5123,
			"count":36,
			"type":"SCALAR"
		},
		{
			"bufferView":4,
			"componentType":5126,
			"count":101,
			"max":[
				4.166666666666667
			],
			"min":[
				0
			],
			"type":"SCALAR"
		},
		{
			"bufferView":5,
			"componentType":5126,
			"count":101,
			"type":"VEC3"
		},
		{
			"bufferView":6,
			"componentType":5126,
			"count":101,
			"type":"VEC4"
		},
		{
			"bufferView":7,
			"componentType":5126,
			"count":101,
			"type":"VEC3"
		}
	],
	"bufferViews":[
		{
			"buffer":0,
			"byteLength":264,
			"byteOffset":0,
			"target":34962
		},
		{
			"buffer":0,
			"byteLength":264,
			"byteOffset":264,
			"target":34962
		},
		{
			"buffer":0,
			"byteLength":176,
			"byteOffset":528,
			"target":34962
		},
		{
			"buffer":0,
			"byteLength":72,
			"byteOffset":704,
			"target":34963
		},
		{
			"buffer":0,
			"byteLength":404,
			"byteOffset":776
		},
		{
			"buffer":0,
			"byteLength":1212,
			"byteOffset":1180
		},
		{
			"buffer":0,
			"byteLength":1616,
			"byteOffset":2392
		},
		{
			"buffer":0,
			"byteLength":1212,
			"byteOffset":4008
		}
	],
	"buffers":[
		{
			"byteLength":5220,
			"uri":"Ok.bin"
		}
	]
}
