{
	"asset":{
		"generator":"Khronos glTF Blender I/O v4.2.60",
		"version":"2.0"
	},
	"scene":0,
	"scenes":[
		{
			"name":"Scene",
			"nodes":[
				0,
				1
			]
		}
	],
	"nodes":[
		{
			"mesh":0,
			"name":"Text.056",
			"rotation":[
				0.7071068286895752,
				0,
				0,
				0.7071068286895752
			],
			"scale":[
				5.247999668121338,
				2.17391300201416,
				5.248000621795654
			],
			"translation":[
				0,
				0,
				0.002173925982788205
			]
		},
		{
			"mesh":1,
			"name":"Text.057",
			"rotation":[
				0.7071068286895752,
				0,
				0,
				0.7071068286895752
			],
			"scale":[
				5.247999668121338,
				2.17391300201416,
				5.248000621795654
			],
			"translation":[
				0,
				0,
				0.002173926215618849
			]
		}
	],
	"materials":[
		{
			"doubleSided":true,
			"name":"Material.001",
			"pbrMetallicRoughness":{
				"metallicFactor":0,
				"roughnessFactor":0.5
			}
		}
	],
	"meshes":[
		{
			"name":"Text.055",
			"primitives":[
				{
					"attributes":{
						"POSITION":0,
						"NORMAL":1,
						"TEXCOORD_0":2
					},
					"indices":3,
					"material":0
				}
			]
		},
		{
			"name":"Text.056",
			"primitives":[
				{
					"attributes":{
						"POSITION":4,
						"NORMAL":5,
						"TEXCOORD_0":6
					},
					"indices":7,
					"material":0
				}
			]
		}
	],
	"accessors":[
		{
			"bufferView":0,
			"componentType":5126,
			"count":930,
			"max":[
				-0.061114657670259476,
				0.0010000000474974513,
				0.043779343366622925
			],
			"min":[
				-0.07150296866893768,
				-0.0010000000474974513,
				0.03692568838596344
			],
			"type":"VEC3"
		},
		{
			"bufferView":1,
			"componentType":5126,
			"count":930,
			"type":"VEC3"
		},
		{
			"bufferView":2,
			"componentType":5126,
			"count":930,
			"type":"VEC2"
		},
		{
			"bufferView":3,
			"componentType":5123,
			"count":2736,
			"type":"SCALAR"
		},
		{
			"bufferView":4,
			"componentType":5126,
			"count":1304,
			"max":[
				0.06959964334964752,
				0.0010000000474974513,
				0.04375120997428894
			],
			"min":[
				0.06475239992141724,
				-0.0010000000474974513,
				0.03671941161155701
			],
			"type":"VEC3"
		},
		{
			"bufferView":5,
			"componentType":5126,
			"count":1304,
			"type":"VEC3"
		},
		{
			"bufferView":6,
			"componentType":5126,
			"count":1304,
			"type":"VEC2"
		},
		{
			"bufferView":7,
			"componentType":5123,
			"count":3900,
			"type":"SCALAR"
		}
	],
	"bufferViews":[
		{
			"buffer":0,
			"byteLength":11160,
			"byteOffset":0,
			"target":34962
		},
		{
			"buffer":0,
			"byteLength":11160,
			"byteOffset":11160,
			"target":34962
		},
		{
			"buffer":0,
			"byteLength":7440,
			"byteOffset":22320,
			"target":34962
		},
		{
			"buffer":0,
			"byteLength":5472,
			"byteOffset":29760,
			"target":34963
		},
		{
			"buffer":0,
			"byteLength":15648,
			"byteOffset":35232,
			"target":34962
		},
		{
			"buffer":0,
			"byteLength":15648,
			"byteOffset":50880,
			"target":34962
		},
		{
			"buffer":0,
			"byteLength":10432,
			"byteOffset":66528,
			"target":34962
		},
		{
			"buffer":0,
			"byteLength":7800,
			"byteOffset":76960,
			"target":34963
		}
	],
	"buffers":[
		{
			"byteLength":84760,
			"uri":"sayi2.bin"
		}
	]
}
