{
	"asset":{
		"generator":"Khronos glTF Blender I/O v4.2.60",
		"version":"2.0"
	},
	"scene":0,
	"scenes":[
		{
			"name":"Scene",
			"nodes":[
				0,
				1
			]
		}
	],
	"nodes":[
		{
			"mesh":0,
			"name":"Text.054",
			"rotation":[
				0.7071068286895752,
				0,
				0,
				0.7071068286895752
			],
			"scale":[
				5.247999668121338,
				2.17391300201416,
				5.248000621795654
			],
			"translation":[
				0,
				0,
				0.002173925982788205
			]
		},
		{
			"mesh":1,
			"name":"Text.055",
			"rotation":[
				0.7071068286895752,
				0,
				0,
				0.7071068286895752
			],
			"scale":[
				5.247999668121338,
				2.17391300201416,
				5.248000621795654
			],
			"translation":[
				0,
				0,
				0.002173926215618849
			]
		}
	],
	"materials":[
		{
			"doubleSided":true,
			"name":"Material.001",
			"pbrMetallicRoughness":{
				"metallicFactor":0,
				"roughnessFactor":0.5
			}
		}
	],
	"meshes":[
		{
			"name":"Text.053",
			"primitives":[
				{
					"attributes":{
						"POSITION":0,
						"NORMAL":1,
						"TEXCOORD_0":2
					},
					"indices":3,
					"material":0
				}
			]
		},
		{
			"name":"Text.054",
			"primitives":[
				{
					"attributes":{
						"POSITION":4,
						"NORMAL":5,
						"TEXCOORD_0":6
					},
					"indices":7,
					"material":0
				}
			]
		}
	],
	"accessors":[
		{
			"bufferView":0,
			"componentType":5126,
			"count":772,
			"max":[
				-0.06130686774849892,
				0.0010000000474974513,
				0.043779343366622925
			],
			"min":[
				-0.07113263010978699,
				-0.0010000000474974513,
				0.03678504750132561
			],
			"type":"VEC3"
		},
		{
			"bufferView":1,
			"componentType":5126,
			"count":772,
			"type":"VEC3"
		},
		{
			"bufferView":2,
			"componentType":5126,
			"count":772,
			"type":"VEC2"
		},
		{
			"bufferView":3,
			"componentType":5123,
			"count":2280,
			"type":"SCALAR"
		},
		{
			"bufferView":4,
			"componentType":5126,
			"count":768,
			"max":[
				0.07130604237318039,
				0.0010000000474974513,
				0.04372308403253555
			],
			"min":[
				0.0629616305232048,
				-0.0010000000474974513,
				0.036728788167238235
			],
			"type":"VEC3"
		},
		{
			"bufferView":5,
			"componentType":5126,
			"count":768,
			"type":"VEC3"
		},
		{
			"bufferView":6,
			"componentType":5126,
			"count":768,
			"type":"VEC2"
		},
		{
			"bufferView":7,
			"componentType":5123,
			"count":2268,
			"type":"SCALAR"
		}
	],
	"bufferViews":[
		{
			"buffer":0,
			"byteLength":9264,
			"byteOffset":0,
			"target":34962
		},
		{
			"buffer":0,
			"byteLength":9264,
			"byteOffset":9264,
			"target":34962
		},
		{
			"buffer":0,
			"byteLength":6176,
			"byteOffset":18528,
			"target":34962
		},
		{
			"buffer":0,
			"byteLength":4560,
			"byteOffset":24704,
			"target":34963
		},
		{
			"buffer":0,
			"byteLength":9216,
			"byteOffset":29264,
			"target":34962
		},
		{
			"buffer":0,
			"byteLength":9216,
			"byteOffset":38480,
			"target":34962
		},
		{
			"buffer":0,
			"byteLength":6144,
			"byteOffset":47696,
			"target":34962
		},
		{
			"buffer":0,
			"byteLength":4536,
			"byteOffset":53840,
			"target":34963
		}
	],
	"buffers":[
		{
			"byteLength":58376,
			"uri":"sayi1.bin"
		}
	]
}
