{
	"asset":{
		"generator":"Khronos glTF Blender I/O v4.2.60",
		"version":"2.0"
	},
	"scene":0,
	"scenes":[
		{
			"name":"Scene",
			"nodes":[
				0,
				1
			]
		}
	],
	"nodes":[
		{
			"mesh":0,
			"name":"Text.060",
			"rotation":[
				0.7071068286895752,
				0,
				0,
				0.7071068286895752
			],
			"scale":[
				5.247999668121338,
				2.17391300201416,
				5.248000621795654
			],
			"translation":[
				0,
				0,
				0.002173925982788205
			]
		},
		{
			"mesh":1,
			"name":"Text.061",
			"rotation":[
				0.7071068286895752,
				0,
				0,
				0.7071068286895752
			],
			"scale":[
				5.247999668121338,
				2.17391300201416,
				5.248000621795654
			],
			"translation":[
				0,
				0,
				0.002173926215618849
			]
		}
	],
	"materials":[
		{
			"doubleSided":true,
			"name":"Material.001",
			"pbrMetallicRoughness":{
				"metallicFactor":0,
				"roughnessFactor":0.5
			}
		}
	],
	"meshes":[
		{
			"name":"Text.059",
			"primitives":[
				{
					"attributes":{
						"POSITION":0,
						"NORMAL":1,
						"TEXCOORD_0":2
					},
					"indices":3,
					"material":0
				}
			]
		},
		{
			"name":"Text.060",
			"primitives":[
				{
					"attributes":{
						"POSITION":4,
						"NORMAL":5,
						"TEXCOORD_0":6
					},
					"indices":7,
					"material":0
				}
			]
		}
	],
	"accessors":[
		{
			"bufferView":0,
			"componentType":5126,
			"count":1753,
			"max":[
				-0.06036460027098656,
				0.0010000000474974513,
				0.04391060397028923
			],
			"min":[
				-0.07191550731658936,
				-0.0010000000474974513,
				0.036794424057006836
			],
			"type":"VEC3"
		},
		{
			"bufferView":1,
			"componentType":5126,
			"count":1753,
			"type":"VEC3"
		},
		{
			"bufferView":2,
			"componentType":5126,
			"count":1753,
			"type":"VEC2"
		},
		{
			"bufferView":3,
			"componentType":5123,
			"count":5220,
			"type":"SCALAR"
		},
		{
			"bufferView":4,
			"componentType":5126,
			"count":868,
			"max":[
				0.06978247314691544,
				0.0010000000474974513,
				0.043694958090782166
			],
			"min":[
				0.06451331079006195,
				-0.0010000000474974513,
				0.036738164722919464
			],
			"type":"VEC3"
		},
		{
			"bufferView":5,
			"componentType":5126,
			"count":868,
			"type":"VEC3"
		},
		{
			"bufferView":6,
			"componentType":5126,
			"count":868,
			"type":"VEC2"
		},
		{
			"bufferView":7,
			"componentType":5123,
			"count":2592,
			"type":"SCALAR"
		}
	],
	"bufferViews":[
		{
			"buffer":0,
			"byteLength":21036,
			"byteOffset":0,
			"target":34962
		},
		{
			"buffer":0,
			"byteLength":21036,
			"byteOffset":21036,
			"target":34962
		},
		{
			"buffer":0,
			"byteLength":14024,
			"byteOffset":42072,
			"target":34962
		},
		{
			"buffer":0,
			"byteLength":10440,
			"byteOffset":56096,
			"target":34963
		},
		{
			"buffer":0,
			"byteLength":10416,
			"byteOffset":66536,
			"target":34962
		},
		{
			"buffer":0,
			"byteLength":10416,
			"byteOffset":76952,
			"target":34962
		},
		{
			"buffer":0,
			"byteLength":6944,
			"byteOffset":87368,
			"target":34962
		},
		{
			"buffer":0,
			"byteLength":5184,
			"byteOffset":94312,
			"target":34963
		}
	],
	"buffers":[
		{
			"byteLength":99496,
			"uri":"sayi5.bin"
		}
	]
}
