{
	"asset":{
		"generator":"Khronos glTF Blender I/O v4.2.60",
		"version":"2.0"
	},
	"scene":0,
	"scenes":[
		{
			"name":"Scene",
			"nodes":[
				0,
				1
			]
		}
	],
	"nodes":[
		{
			"mesh":0,
			"name":"Text.062",
			"rotation":[
				0.7071068286895752,
				0,
				0,
				0.7071068286895752
			],
			"scale":[
				5.247999668121338,
				2.17391300201416,
				5.248000621795654
			],
			"translation":[
				0,
				0,
				0.002173925982788205
			]
		},
		{
			"mesh":1,
			"name":"Text.063",
			"rotation":[
				0.7071068286895752,
				0,
				0,
				0.7071068286895752
			],
			"scale":[
				5.247999668121338,
				2.17391300201416,
				5.248000621795654
			],
			"translation":[
				0,
				0,
				0.002173926215618849
			]
		}
	],
	"materials":[
		{
			"doubleSided":true,
			"name":"Material.001",
			"pbrMetallicRoughness":{
				"metallicFactor":0,
				"roughnessFactor":0.5
			}
		}
	],
	"meshes":[
		{
			"name":"Text.069",
			"primitives":[
				{
					"attributes":{
						"POSITION":0,
						"NORMAL":1,
						"TEXCOORD_0":2
					},
					"indices":3,
					"material":0
				}
			]
		},
		{
			"name":"Text.070",
			"primitives":[
				{
					"attributes":{
						"POSITION":4,
						"NORMAL":5,
						"TEXCOORD_0":6
					},
					"indices":7,
					"material":0
				}
			]
		}
	],
	"accessors":[
		{
			"bufferView":0,
			"componentType":5126,
			"count":1712,
			"max":[
				-0.062085047364234924,
				0.0010000000474974513,
				0.04391060397028923
			],
			"min":[
				-0.07050445675849915,
				-0.0010000000474974513,
				0.036794424057006836
			],
			"type":"VEC3"
		},
		{
			"bufferView":1,
			"componentType":5126,
			"count":1712,
			"type":"VEC3"
		},
		{
			"bufferView":2,
			"componentType":5126,
			"count":1712,
			"type":"VEC2"
		},
		{
			"bufferView":3,
			"componentType":5123,
			"count":5112,
			"type":"SCALAR"
		},
		{
			"bufferView":4,
			"componentType":5126,
			"count":1274,
			"max":[
				0.06946839392185211,
				0.0010000000474974513,
				0.043779339641332626
			],
			"min":[
				0.06470552831888199,
				-0.0010000000474974513,
				0.03671941161155701
			],
			"type":"VEC3"
		},
		{
			"bufferView":5,
			"componentType":5126,
			"count":1274,
			"type":"VEC3"
		},
		{
			"bufferView":6,
			"componentType":5126,
			"count":1274,
			"type":"VEC2"
		},
		{
			"bufferView":7,
			"componentType":5123,
			"count":3804,
			"type":"SCALAR"
		}
	],
	"bufferViews":[
		{
			"buffer":0,
			"byteLength":20544,
			"byteOffset":0,
			"target":34962
		},
		{
			"buffer":0,
			"byteLength":20544,
			"byteOffset":20544,
			"target":34962
		},
		{
			"buffer":0,
			"byteLength":13696,
			"byteOffset":41088,
			"target":34962
		},
		{
			"buffer":0,
			"byteLength":10224,
			"byteOffset":54784,
			"target":34963
		},
		{
			"buffer":0,
			"byteLength":15288,
			"byteOffset":65008,
			"target":34962
		},
		{
			"buffer":0,
			"byteLength":15288,
			"byteOffset":80296,
			"target":34962
		},
		{
			"buffer":0,
			"byteLength":10192,
			"byteOffset":95584,
			"target":34962
		},
		{
			"buffer":0,
			"byteLength":7608,
			"byteOffset":105776,
			"target":34963
		}
	],
	"buffers":[
		{
			"byteLength":113384,
			"uri":"sayi4.bin"
		}
	]
}
