{
	"asset":{
		"generator":"Khronos glTF Blender I/O v4.2.60",
		"version":"2.0"
	},
	"scene":0,
	"scenes":[
		{
			"name":"Scene",
			"nodes":[
				0,
				1
			]
		}
	],
	"nodes":[
		{
			"mesh":0,
			"name":"Text.058",
			"rotation":[
				0.7071068286895752,
				0,
				0,
				0.7071068286895752
			],
			"scale":[
				5.247999668121338,
				2.17391300201416,
				5.248000621795654
			],
			"translation":[
				0,
				0,
				0.002173925982788205
			]
		},
		{
			"mesh":1,
			"name":"Text.059",
			"rotation":[
				0.7071068286895752,
				0,
				0,
				0.7071068286895752
			],
			"scale":[
				5.247999668121338,
				2.17391300201416,
				5.248000621795654
			],
			"translation":[
				0,
				0,
				0.002173926215618849
			]
		}
	],
	"materials":[
		{
			"doubleSided":true,
			"name":"Material.001",
			"pbrMetallicRoughness":{
				"metallicFactor":0,
				"roughnessFactor":0.5
			}
		}
	],
	"meshes":[
		{
			"name":"Text.057",
			"primitives":[
				{
					"attributes":{
						"POSITION":0,
						"NORMAL":1,
						"TEXCOORD_0":2
					},
					"indices":3,
					"material":0
				}
			]
		},
		{
			"name":"Text.058",
			"primitives":[
				{
					"attributes":{
						"POSITION":4,
						"NORMAL":5,
						"TEXCOORD_0":6
					},
					"indices":7,
					"material":0
				}
			]
		}
	],
	"accessors":[
		{
			"bufferView":0,
			"componentType":5126,
			"count":1716,
			"max":[
				-0.06117091327905655,
				0.0010000000474974513,
				0.04391060397028923
			],
			"min":[
				-0.07149359583854675,
				-0.0010000000474974513,
				0.036794424057006836
			],
			"type":"VEC3"
		},
		{
			"bufferView":1,
			"componentType":5126,
			"count":1716,
			"type":"VEC3"
		},
		{
			"bufferView":2,
			"componentType":5126,
			"count":1716,
			"type":"VEC2"
		},
		{
			"bufferView":3,
			"componentType":5123,
			"count":5124,
			"type":"SCALAR"
		},
		{
			"bufferView":4,
			"componentType":5126,
			"count":1256,
			"max":[
				0.06964652985334396,
				0.0010000000474974513,
				0.04376058652997017
			],
			"min":[
				0.06474301964044571,
				-0.0010000000474974513,
				0.036738164722919464
			],
			"type":"VEC3"
		},
		{
			"bufferView":5,
			"componentType":5126,
			"count":1256,
			"type":"VEC3"
		},
		{
			"bufferView":6,
			"componentType":5126,
			"count":1256,
			"type":"VEC2"
		},
		{
			"bufferView":7,
			"componentType":5123,
			"count":3756,
			"type":"SCALAR"
		}
	],
	"bufferViews":[
		{
			"buffer":0,
			"byteLength":20592,
			"byteOffset":0,
			"target":34962
		},
		{
			"buffer":0,
			"byteLength":20592,
			"byteOffset":20592,
			"target":34962
		},
		{
			"buffer":0,
			"byteLength":13728,
			"byteOffset":41184,
			"target":34962
		},
		{
			"buffer":0,
			"byteLength":10248,
			"byteOffset":54912,
			"target":34963
		},
		{
			"buffer":0,
			"byteLength":15072,
			"byteOffset":65160,
			"target":34962
		},
		{
			"buffer":0,
			"byteLength":15072,
			"byteOffset":80232,
			"target":34962
		},
		{
			"buffer":0,
			"byteLength":10048,
			"byteOffset":95304,
			"target":34962
		},
		{
			"buffer":0,
			"byteLength":7512,
			"byteOffset":105352,
			"target":34963
		}
	],
	"buffers":[
		{
			"byteLength":112864,
			"uri":"sayi3.bin"
		}
	]
}
