{
	"asset":{
		"generator":"Khronos glTF Blender I/O v4.2.60",
		"version":"2.0"
	},
	"scene":0,
	"scenes":[
		{
			"name":"Scene",
			"nodes":[
				0,
				1
			]
		}
	],
	"nodes":[
		{
			"mesh":0,
			"name":"Simsek1.3ghost.003",
			"scale":[
				1.3200000524520874,
				1.3200000524520874,
				1.3200000524520874
			]
		},
		{
			"mesh":1,
			"name":"Simsek1.3ghost.001",
			"scale":[
				1.2899999618530273,
				1.2899999618530273,
				1.2899999618530273
			]
		}
	],
	"materials":[
		{
			"alphaMode":"BLEND",
			"doubleSided":true,
			"name":"Material.003",
			"pbrMetallicRoughness":{
				"baseColorFactor":[
					0.9822452664375305,
					0.38132646679878235,
					0.0030353753827512264,
					0.20000000298023224
				],
				"metallicFactor":0,
				"roughnessFactor":0.5
			}
		}
	],
	"meshes":[
		{
			"name":"Plane.047",
			"primitives":[
				{
					"attributes":{
						"POSITION":0,
						"NORMAL":1,
						"TEXCOORD_0":2
					},
					"indices":3,
					"material":0
				}
			]
		},
		{
			"name":"Plane.025",
			"primitives":[
				{
					"attributes":{
						"POSITION":4,
						"NORMAL":5,
						"TEXCOORD_0":6
					},
					"indices":3,
					"material":0
				}
			]
		}
	],
	"accessors":[
		{
			"bufferView":0,
			"componentType":5126,
			"count":54,
			"max":[
				-0.11055109649896622,
				0.2811141312122345,
				0.01616024225950241
			],
			"min":[
				-0.13261635601520538,
				0.241358682513237,
				0.008551547303795815
			],
			"type":"VEC3"
		},
		{
			"bufferView":1,
			"componentType":5126,
			"count":54,
			"type":"VEC3"
		},
		{
			"bufferView":2,
			"componentType":5126,
			"count":54,
			"type":"VEC2"
		},
		{
			"bufferView":3,
			"componentType":5123,
			"count":96,
			"type":"SCALAR"
		},
		{
			"bufferView":4,
			"componentType":5126,
			"count":54,
			"max":[
				0.14744219183921814,
				0.21047340333461761,
				0.01635911874473095
			],
			"min":[
				0.12537693977355957,
				0.17071793973445892,
				0.008750422857701778
			],
			"type":"VEC3"
		},
		{
			"bufferView":5,
			"componentType":5126,
			"count":54,
			"type":"VEC3"
		},
		{
			"bufferView":6,
			"componentType":5126,
			"count":54,
			"type":"VEC2"
		}
	],
	"bufferViews":[
		{
			"buffer":0,
			"byteLength":648,
			"byteOffset":0,
			"target":34962
		},
		{
			"buffer":0,
			"byteLength":648,
			"byteOffset":648,
			"target":34962
		},
		{
			"buffer":0,
			"byteLength":432,
			"byteOffset":1296,
			"target":34962
		},
		{
			"buffer":0,
			"byteLength":192,
			"byteOffset":1728,
			"target":34963
		},
		{
			"buffer":0,
			"byteLength":648,
			"byteOffset":1920,
			"target":34962
		},
		{
			"buffer":0,
			"byteLength":648,
			"byteOffset":2568,
			"target":34962
		},
		{
			"buffer":0,
			"byteLength":432,
			"byteOffset":3216,
			"target":34962
		}
	],
	"buffers":[
		{
			"byteLength":3648,
			"uri":"simsekhayalet.bin"
		}
	]
}
