{
	"asset":{
		"generator":"Khronos glTF Blender I/O v4.2.60",
		"version":"2.0"
	},
	"scene":0,
	"scenes":[
		{
			"name":"Scene",
			"nodes":[
				1,
				3
			]
		}
	],
	"nodes":[
		{
			"mesh":0,
			"name":"Simsek1.3ghost.002",
			"scale":[
				1.3200000524520874,
				1.3200000524520874,
				1.3200000524520874
			],
			"translation":[
				0.16088110208511353,
				-0.3710707426071167,
				-0.011288044042885303
			]
		},
		{
			"children":[
				0
			],
			"name":"simsek.001",
			"translation":[
				-0.16088108718395233,
				0.3710707128047943,
				0.011288044042885303
			]
		},
		{
			"mesh":1,
			"name":"Simsek1.3ghost",
			"scale":[
				1.2899999618530273,
				1.2899999618530273,
				1.2899999618530273
			],
			"translation":[
				-175.5866241455078,
				-271.510498046875,
				-11.288043975830078
			]
		},
		{
			"children":[
				2
			],
			"name":"simsek",
			"translation":[
				0.17558662593364716,
				0.271510511636734,
				0.011288044042885303
			]
		}
	],
	"animations":[
		{
			"channels":[
				{
					"sampler":0,
					"target":{
						"node":1,
						"path":"scale"
					}
				}
			],
			"name":"EmptyAction.001",
			"samplers":[
				{
					"input":8,
					"interpolation":"LINEAR",
					"output":9
				}
			]
		},
		{
			"channels":[
				{
					"sampler":0,
					"target":{
						"node":3,
						"path":"scale"
					}
				}
			],
			"name":"EmptyAction",
			"samplers":[
				{
					"input":8,
					"interpolation":"LINEAR",
					"output":10
				}
			]
		}
	],
	"materials":[
		{
			"doubleSided":true,
			"name":"Material.002",
			"pbrMetallicRoughness":{
				"baseColorFactor":[
					0.9822452664375305,
					0.38132646679878235,
					0.0030353753827512264,
					1
				],
				"metallicFactor":0,
				"roughnessFactor":0.5
			}
		}
	],
	"meshes":[
		{
			"name":"Plane.027",
			"primitives":[
				{
					"attributes":{
						"POSITION":0,
						"NORMAL":1,
						"TEXCOORD_0":2
					},
					"indices":3,
					"material":0
				}
			]
		},
		{
			"name":"Plane.064",
			"primitives":[
				{
					"attributes":{
						"POSITION":4,
						"NORMAL":5,
						"TEXCOORD_0":6
					},
					"indices":7,
					"material":0
				}
			]
		}
	],
	"accessors":[
		{
			"bufferView":0,
			"componentType":5126,
			"count":54,
			"max":[
				-0.11055111140012741,
				0.2811141610145569,
				0.01616024225950241
			],
			"min":[
				-0.13261637091636658,
				0.2413587123155594,
				0.008551547303795815
			],
			"type":"VEC3"
		},
		{
			"bufferView":1,
			"componentType":5126,
			"count":54,
			"type":"VEC3"
		},
		{
			"bufferView":2,
			"componentType":5126,
			"count":54,
			"type":"VEC2"
		},
		{
			"bufferView":3,
			"componentType":5123,
			"count":96,
			"type":"SCALAR"
		},
		{
			"bufferView":4,
			"componentType":5126,
			"count":52,
			"max":[
				136.125,
				210.4732666015625,
				8.758030891418457
			],
			"min":[
				136.10293579101562,
				210.43350219726562,
				8.750421524047852
			],
			"type":"VEC3"
		},
		{
			"bufferView":5,
			"componentType":5126,
			"count":52,
			"type":"VEC3"
		},
		{
			"bufferView":6,
			"componentType":5126,
			"count":52,
			"type":"VEC2"
		},
		{
			"bufferView":7,
			"componentType":5123,
			"count":96,
			"type":"SCALAR"
		},
		{
			"bufferView":8,
			"componentType":5126,
			"count":77,
			"max":[
				3.1666666666666665
			],
			"min":[
				0
			],
			"type":"SCALAR"
		},
		{
			"bufferView":9,
			"componentType":5126,
			"count":77,
			"type":"VEC3"
		},
		{
			"bufferView":10,
			"componentType":5126,
			"count":77,
			"type":"VEC3"
		}
	],
	"bufferViews":[
		{
			"buffer":0,
			"byteLength":648,
			"byteOffset":0,
			"target":34962
		},
		{
			"buffer":0,
			"byteLength":648,
			"byteOffset":648,
			"target":34962
		},
		{
			"buffer":0,
			"byteLength":432,
			"byteOffset":1296,
			"target":34962
		},
		{
			"buffer":0,
			"byteLength":192,
			"byteOffset":1728,
			"target":34963
		},
		{
			"buffer":0,
			"byteLength":624,
			"byteOffset":1920,
			"target":34962
		},
		{
			"buffer":0,
			"byteLength":624,
			"byteOffset":2544,
			"target":34962
		},
		{
			"buffer":0,
			"byteLength":416,
			"byteOffset":3168,
			"target":34962
		},
		{
			"buffer":0,
			"byteLength":192,
			"byteOffset":3584,
			"target":34963
		},
		{
			"buffer":0,
			"byteLength":308,
			"byteOffset":3776
		},
		{
			"buffer":0,
			"byteLength":924,
			"byteOffset":4084
		},
		{
			"buffer":0,
			"byteLength":924,
			"byteOffset":5008
		}
	],
	"buffers":[
		{
			"byteLength":5932,
			"uri":"simsek1.bin"
		}
	]
}
