{
	"asset":{
		"generator":"Khronos glTF Blender I/O v4.2.60",
		"version":"2.0"
	},
	"scene":0,
	"scenes":[
		{
			"name":"Scene",
			"nodes":[
				0
			]
		}
	],
	"nodes":[
		{
			"mesh":0,
			"name":"simsekyazihayalet",
			"rotation":[
				0.7071068286895752,
				0,
				0,
				0.7071068286895752
			],
			"scale":[
				3.00931978225708,
				1.5178192853927612,
				3.0093204975128174
			],
			"translation":[
				0,
				0,
				0.012805883772671223
			]
		}
	],
	"materials":[
		{
			"alphaMode":"BLEND",
			"doubleSided":true,
			"name":"Material.003",
			"pbrMetallicRoughness":{
				"baseColorFactor":[
					0.9822452664375305,
					0.38132646679878235,
					0.0030353753827512264,
					0.20000000298023224
				],
				"metallicFactor":0,
				"roughnessFactor":0.5
			}
		}
	],
	"meshes":[
		{
			"name":"Text.001",
			"primitives":[
				{
					"attributes":{
						"POSITION":0,
						"NORMAL":1,
						"TEXCOORD_0":2
					},
					"indices":3,
					"material":0
				}
			]
		}
	],
	"accessors":[
		{
			"bufferView":0,
			"componentType":5126,
			"count":3837,
			"max":[
				0.11757390946149826,
				0.0010000000474974513,
				-0.0832289531826973
			],
			"min":[
				0.06697309017181396,
				-0.0010000000474974513,
				-0.09022325277328491
			],
			"type":"VEC3"
		},
		{
			"bufferView":1,
			"componentType":5126,
			"count":3837,
			"type":"VEC3"
		},
		{
			"bufferView":2,
			"componentType":5126,
			"count":3837,
			"type":"VEC2"
		},
		{
			"bufferView":3,
			"componentType":5123,
			"count":11340,
			"type":"SCALAR"
		}
	],
	"bufferViews":[
		{
			"buffer":0,
			"byteLength":46044,
			"byteOffset":0,
			"target":34962
		},
		{
			"buffer":0,
			"byteLength":46044,
			"byteOffset":46044,
			"target":34962
		},
		{
			"buffer":0,
			"byteLength":30696,
			"byteOffset":92088,
			"target":34962
		},
		{
			"buffer":0,
			"byteLength":22680,
			"byteOffset":122784,
			"target":34963
		}
	],
	"buffers":[
		{
			"byteLength":145464,
			"uri":"simsekhayaletyazi.bin"
		}
	]
}
