{
	"asset":{
		"generator":"Khronos glTF Blender I/O v4.2.60",
		"version":"2.0"
	},
	"scene":0,
	"scenes":[
		{
			"name":"Scene",
			"nodes":[
				0
			]
		}
	],
	"nodes":[
		{
			"mesh":0,
			"name":"simsekyazi.001",
			"rotation":[
				0.7071068286895752,
				0,
				0,
				0.7071068286895752
			],
			"scale":[
				3.00931978225708,
				1.5178192853927612,
				3.0093204975128174
			],
			"translation":[
				0,
				0,
				0.012805875390768051
			]
		}
	],
	"materials":[
		{
			"doubleSided":true,
			"name":"PencereSolar.005",
			"pbrMetallicRoughness":{
				"baseColorFactor":[
					0.9822452664375305,
					0.38132646679878235,
					0.0030353753827512264,
					1
				],
				"metallicFactor":0,
				"roughnessFactor":0.5
			}
		}
	],
	"meshes":[
		{
			"name":"Text.002",
			"primitives":[
				{
					"attributes":{
						"POSITION":0,
						"NORMAL":1,
						"TEXCOORD_0":2
					},
					"indices":3,
					"material":0
				}
			]
		}
	],
	"accessors":[
		{
			"bufferView":0,
			"componentType":5126,
			"count":3900,
			"max":[
				0.1172889992594719,
				0.0010000000474974513,
				-0.04520292207598686
			],
			"min":[
				0.09829377382993698,
				-0.0010000000474974513,
				-0.052309729158878326
			],
			"type":"VEC3"
		},
		{
			"bufferView":1,
			"componentType":5126,
			"count":3900,
			"type":"VEC3"
		},
		{
			"bufferView":2,
			"componentType":5126,
			"count":3900,
			"type":"VEC2"
		},
		{
			"bufferView":3,
			"componentType":5123,
			"count":11628,
			"type":"SCALAR"
		}
	],
	"bufferViews":[
		{
			"buffer":0,
			"byteLength":46800,
			"byteOffset":0,
			"target":34962
		},
		{
			"buffer":0,
			"byteLength":46800,
			"byteOffset":46800,
			"target":34962
		},
		{
			"buffer":0,
			"byteLength":31200,
			"byteOffset":93600,
			"target":34962
		},
		{
			"buffer":0,
			"byteLength":23256,
			"byteOffset":124800,
			"target":34963
		}
	],
	"buffers":[
		{
			"byteLength":148056,
			"uri":"yuzdeyazi.bin"
		}
	]
}
