{
	"asset":{
		"generator":"Khronos glTF Blender I/O v4.2.60",
		"version":"2.0"
	},
	"scene":0,
	"scenes":[
		{
			"name":"Scene",
			"nodes":[
				0,
				1
			]
		}
	],
	"nodes":[
		{
			"mesh":0,
			"name":"simsekyazi.002",
			"rotation":[
				0.7071068286895752,
				0,
				0,
				0.7071068286895752
			],
			"scale":[
				4.513979911804199,
				2.276728630065918,
				4.513980865478516
			],
			"translation":[
				0,
				0,
				0.012805858626961708
			]
		},
		{
			"mesh":1,
			"name":"simsekyazi.001",
			"rotation":[
				0.7071068286895752,
				0,
				0,
				0.7071068286895752
			],
			"scale":[
				4.513979911804199,
				2.276728630065918,
				4.513980865478516
			],
			"translation":[
				0,
				0,
				0.012805857695639133
			]
		}
	],
	"materials":[
		{
			"doubleSided":true,
			"name":"PencereSolar.005",
			"pbrMetallicRoughness":{
				"baseColorFactor":[
					0.9822452664375305,
					0.38132646679878235,
					0.0030353753827512264,
					1
				],
				"metallicFactor":0,
				"roughnessFactor":0.5
			}
		}
	],
	"meshes":[
		{
			"name":"Text.003",
			"primitives":[
				{
					"attributes":{
						"POSITION":0,
						"NORMAL":1,
						"TEXCOORD_0":2
					},
					"indices":3,
					"material":0
				}
			]
		},
		{
			"name":"Text.002",
			"primitives":[
				{
					"attributes":{
						"POSITION":4,
						"NORMAL":5,
						"TEXCOORD_0":6
					},
					"indices":7,
					"material":0
				}
			]
		}
	],
	"accessors":[
		{
			"bufferView":0,
			"componentType":5126,
			"count":3882,
			"max":[
				-0.009518089704215527,
				0.0010000000474974513,
				0.002987990388646722
			],
			"min":[
				-0.03073536418378353,
				-0.0010000000474974513,
				-0.0041000619530677795
			],
			"type":"VEC3"
		},
		{
			"bufferView":1,
			"componentType":5126,
			"count":3882,
			"type":"VEC3"
		},
		{
			"bufferView":2,
			"componentType":5126,
			"count":3882,
			"type":"VEC2"
		},
		{
			"bufferView":3,
			"componentType":5123,
			"count":11580,
			"type":"SCALAR"
		},
		{
			"bufferView":4,
			"componentType":5126,
			"count":3900,
			"max":[
				0.03790596127510071,
				0.0010000000474974513,
				0.007696734741330147
			],
			"min":[
				0.016988711431622505,
				-0.0010000000474974513,
				0.0005899320240132511
			],
			"type":"VEC3"
		},
		{
			"bufferView":5,
			"componentType":5126,
			"count":3900,
			"type":"VEC3"
		},
		{
			"bufferView":6,
			"componentType":5126,
			"count":3900,
			"type":"VEC2"
		},
		{
			"bufferView":7,
			"componentType":5123,
			"count":11628,
			"type":"SCALAR"
		}
	],
	"bufferViews":[
		{
			"buffer":0,
			"byteLength":46584,
			"byteOffset":0,
			"target":34962
		},
		{
			"buffer":0,
			"byteLength":46584,
			"byteOffset":46584,
			"target":34962
		},
		{
			"buffer":0,
			"byteLength":31056,
			"byteOffset":93168,
			"target":34962
		},
		{
			"buffer":0,
			"byteLength":23160,
			"byteOffset":124224,
			"target":34963
		},
		{
			"buffer":0,
			"byteLength":46800,
			"byteOffset":147384,
			"target":34962
		},
		{
			"buffer":0,
			"byteLength":46800,
			"byteOffset":194184,
			"target":34962
		},
		{
			"buffer":0,
			"byteLength":31200,
			"byteOffset":240984,
			"target":34962
		},
		{
			"buffer":0,
			"byteLength":23256,
			"byteOffset":272184,
			"target":34963
		}
	],
	"buffers":[
		{
			"byteLength":295440,
			"uri":"yuzdeyazi.bin"
		}
	]
}
