{
	"asset":{
		"generator":"Khronos glTF Blender I/O v4.2.60",
		"version":"2.0"
	},
	"scene":0,
	"scenes":[
		{
			"name":"Scene",
			"nodes":[
				0,
				1,
				2,
				3,
				4,
				5,
				6,
				7,
				8,
				9,
				10,
				11,
				12,
				13,
				14,
				15,
				16,
				17,
				18,
				19,
				20,
				21,
				22,
				23,
				24
			]
		}
	],
	"nodes":[
		{
			"mesh":0,
			"name":"Building_018.013"
		},
		{
			"mesh":1,
			"name":"Building_018.014"
		},
		{
			"mesh":2,
			"name":"Building_018.015"
		},
		{
			"mesh":3,
			"name":"Building_018_RoofCap_0.003"
		},
		{
			"mesh":4,
			"name":"Building_024.003"
		},
		{
			"mesh":5,
			"name":"Building_024.004"
		},
		{
			"mesh":6,
			"name":"Building_024.005"
		},
		{
			"mesh":7,
			"name":"Building_024_RoofCap_0.001"
		},
		{
			"mesh":8,
			"name":"Building_033.003"
		},
		{
			"mesh":9,
			"name":"Building_033.004"
		},
		{
			"mesh":10,
			"name":"Building_033.005"
		},
		{
			"mesh":11,
			"name":"Building_033_RoofCap_0.001"
		},
		{
			"mesh":12,
			"name":"Building_037.003"
		},
		{
			"mesh":13,
			"name":"Building_037.004"
		},
		{
			"mesh":14,
			"name":"Building_037.005"
		},
		{
			"mesh":15,
			"name":"Building_037_RoofCap_0.001"
		},
		{
			"mesh":16,
			"name":"Building_037_RoofCap_1.001"
		},
		{
			"mesh":17,
			"name":"Building_055.003"
		},
		{
			"mesh":18,
			"name":"Building_055.004"
		},
		{
			"mesh":19,
			"name":"Building_055.005"
		},
		{
			"mesh":20,
			"name":"Building_055_RoofCap_0.001"
		},
		{
			"mesh":21,
			"name":"Building_057.003"
		},
		{
			"mesh":22,
			"name":"Building_057.004"
		},
		{
			"mesh":23,
			"name":"Building_057.005"
		},
		{
			"mesh":24,
			"name":"Building_057_RoofCap_0.001"
		}
	],
	"materials":[
		{
			"doubleSided":true,
			"name":"BinaSolar",
			"pbrMetallicRoughness":{
				"baseColorFactor":[
					0,
					0.08021967113018036,
					0.7230553030967712,
					1
				],
				"metallicFactor":0,
				"roughnessFactor":0.699999988079071
			}
		},
		{
			"doubleSided":true,
			"name":"PencereSolarKapal\u0131",
			"pbrMetallicRoughness":{
				"baseColorFactor":[
					0,
					0.04817177355289459,
					0.3185468912124634,
					1
				],
				"metallicFactor":0,
				"roughnessFactor":0.699999988079071
			}
		},
		{
			"doubleSided":true,
			"name":"Mat_Roof_Cap",
			"pbrMetallicRoughness":{
				"baseColorFactor":[
					0.9822452664375305,
					0.38132646679878235,
					0.0030353753827512264,
					1
				],
				"metallicFactor":0,
				"roughnessFactor":0.699999988079071
			}
		}
	],
	"meshes":[
		{
			"name":"Building_018_Mesh.015",
			"primitives":[
				{
					"attributes":{
						"POSITION":0,
						"NORMAL":1
					},
					"indices":2,
					"material":0
				}
			]
		},
		{
			"name":"Building_018_Mesh.016",
			"primitives":[
				{
					"attributes":{
						"POSITION":3,
						"NORMAL":4
					},
					"indices":5,
					"material":1
				}
			]
		},
		{
			"name":"Building_018_Mesh.017",
			"primitives":[
				{
					"attributes":{
						"POSITION":6,
						"NORMAL":7
					},
					"indices":8,
					"material":1
				}
			]
		},
		{
			"name":"Building_018_RoofCap_0_Mesh.003",
			"primitives":[
				{
					"attributes":{
						"POSITION":9,
						"NORMAL":10
					},
					"indices":11,
					"material":2
				}
			]
		},
		{
			"name":"Building_024_Mesh.003",
			"primitives":[
				{
					"attributes":{
						"POSITION":12,
						"NORMAL":13
					},
					"indices":14,
					"material":0
				}
			]
		},
		{
			"name":"Building_024_Mesh.004",
			"primitives":[
				{
					"attributes":{
						"POSITION":15,
						"NORMAL":16
					},
					"indices":5,
					"material":1
				}
			]
		},
		{
			"name":"Building_024_Mesh.005",
			"primitives":[
				{
					"attributes":{
						"POSITION":17,
						"NORMAL":18
					},
					"indices":19,
					"material":1
				}
			]
		},
		{
			"name":"Building_024_RoofCap_0_Mesh.001",
			"primitives":[
				{
					"attributes":{
						"POSITION":20,
						"NORMAL":21
					},
					"indices":22,
					"material":2
				}
			]
		},
		{
			"name":"Building_033_Mesh.003",
			"primitives":[
				{
					"attributes":{
						"POSITION":23,
						"NORMAL":24
					},
					"indices":25,
					"material":0
				}
			]
		},
		{
			"name":"Building_033_Mesh.004",
			"primitives":[
				{
					"attributes":{
						"POSITION":26,
						"NORMAL":27
					},
					"indices":5,
					"material":1
				}
			]
		},
		{
			"name":"Building_033_Mesh.005",
			"primitives":[
				{
					"attributes":{
						"POSITION":28,
						"NORMAL":29
					},
					"indices":30,
					"material":1
				}
			]
		},
		{
			"name":"Building_033_RoofCap_0_Mesh.001",
			"primitives":[
				{
					"attributes":{
						"POSITION":31,
						"NORMAL":32
					},
					"indices":33,
					"material":2
				}
			]
		},
		{
			"name":"Building_037_Mesh.003",
			"primitives":[
				{
					"attributes":{
						"POSITION":34,
						"NORMAL":35
					},
					"indices":36,
					"material":0
				}
			]
		},
		{
			"name":"Building_037_Mesh.004",
			"primitives":[
				{
					"attributes":{
						"POSITION":37,
						"NORMAL":38
					},
					"indices":5,
					"material":1
				}
			]
		},
		{
			"name":"Building_037_Mesh.005",
			"primitives":[
				{
					"attributes":{
						"POSITION":39,
						"NORMAL":40
					},
					"indices":41,
					"material":1
				}
			]
		},
		{
			"name":"Building_037_RoofCap_0_Mesh.001",
			"primitives":[
				{
					"attributes":{
						"POSITION":42,
						"NORMAL":43
					},
					"indices":11,
					"material":2
				}
			]
		},
		{
			"name":"Building_037_RoofCap_1_Mesh.001",
			"primitives":[
				{
					"attributes":{
						"POSITION":44,
						"NORMAL":45
					},
					"indices":46,
					"material":2
				}
			]
		},
		{
			"name":"Building_055_Mesh.003",
			"primitives":[
				{
					"attributes":{
						"POSITION":47,
						"NORMAL":48
					},
					"indices":49,
					"material":0
				}
			]
		},
		{
			"name":"Building_055_Mesh.004",
			"primitives":[
				{
					"attributes":{
						"POSITION":50,
						"NORMAL":51
					},
					"indices":5,
					"material":1
				}
			]
		},
		{
			"name":"Building_055_Mesh.005",
			"primitives":[
				{
					"attributes":{
						"POSITION":52,
						"NORMAL":53
					},
					"indices":54,
					"material":1
				}
			]
		},
		{
			"name":"Building_055_RoofCap_0_Mesh.001",
			"primitives":[
				{
					"attributes":{
						"POSITION":55,
						"NORMAL":56
					},
					"indices":22,
					"material":2
				}
			]
		},
		{
			"name":"Building_057_Mesh.003",
			"primitives":[
				{
					"attributes":{
						"POSITION":57,
						"NORMAL":58
					},
					"indices":59,
					"material":0
				}
			]
		},
		{
			"name":"Building_057_Mesh.004",
			"primitives":[
				{
					"attributes":{
						"POSITION":60,
						"NORMAL":61
					},
					"indices":5,
					"material":1
				}
			]
		},
		{
			"name":"Building_057_Mesh.005",
			"primitives":[
				{
					"attributes":{
						"POSITION":62,
						"NORMAL":63
					},
					"indices":64,
					"material":1
				}
			]
		},
		{
			"name":"Building_057_RoofCap_0_Mesh.001",
			"primitives":[
				{
					"attributes":{
						"POSITION":65,
						"NORMAL":66
					},
					"indices":22,
					"material":2
				}
			]
		}
	],
	"accessors":[
		{
			"bufferView":0,
			"componentType":5126,
			"count":505,
			"max":[
				-0.2418479323387146,
				-0.707608699798584,
				0.05434786155819893
			],
			"min":[
				-0.29076099395751953,
				-0.7445651888847351,
				2.9802322387695312e-08
			],
			"type":"VEC3"
		},
		{
			"bufferView":1,
			"componentType":5126,
			"count":505,
			"type":"VEC3"
		},
		{
			"bufferView":2,
			"componentType":5123,
			"count":1476,
			"type":"SCALAR"
		},
		{
			"bufferView":3,
			"componentType":5126,
			"count":4,
			"max":[
				-0.24673926830291748,
				-0.730434775352478,
				0.05217394232749939
			],
			"min":[
				-0.253260999917984,
				-0.7445651888847351,
				0.05217394232749939
			],
			"type":"VEC3"
		},
		{
			"bufferView":4,
			"componentType":5126,
			"count":4,
			"type":"VEC3"
		},
		{
			"bufferView":5,
			"componentType":5123,
			"count":6,
			"type":"SCALAR"
		},
		{
			"bufferView":6,
			"componentType":5126,
			"count":32,
			"max":[
				-0.24673926830291748,
				-0.7141304016113281,
				0.05217394232749939
			],
			"min":[
				-0.28586968779563904,
				-0.741304337978363,
				0.05217394232749939
			],
			"type":"VEC3"
		},
		{
			"bufferView":7,
			"componentType":5126,
			"count":32,
			"type":"VEC3"
		},
		{
			"bufferView":8,
			"componentType":5123,
			"count":48,
			"type":"SCALAR"
		},
		{
			"bufferView":9,
			"componentType":5126,
			"count":24,
			"max":[
				-0.2463260293006897,
				-0.7020061016082764,
				0.0490756593644619
			],
			"min":[
				-0.27567386627197266,
				-0.7074347734451294,
				0.005434809252619743
			],
			"type":"VEC3"
		},
		{
			"bufferView":10,
			"componentType":5126,
			"count":24,
			"type":"VEC3"
		},
		{
			"bufferView":11,
			"componentType":5123,
			"count":36,
			"type":"SCALAR"
		},
		{
			"bufferView":12,
			"componentType":5126,
			"count":831,
			"max":[
				-0.16576102375984192,
				-0.5934782028198242,
				0.043478287756443024
			],
			"min":[
				-0.21467405557632446,
				-0.64673912525177,
				2.9802322387695312e-08
			],
			"type":"VEC3"
		},
		{
			"bufferView":13,
			"componentType":5126,
			"count":831,
			"type":"VEC3"
		},
		{
			"bufferView":14,
			"componentType":5123,
			"count":2724,
			"type":"SCALAR"
		},
		{
			"bufferView":15,
			"componentType":5126,
			"count":4,
			"max":[
				-0.18152187764644623,
				-0.6326086521148682,
				0.04130437597632408
			],
			"min":[
				-0.19891318678855896,
				-0.64673912525177,
				0.04130437597632408
			],
			"type":"VEC3"
		},
		{
			"bufferView":16,
			"componentType":5126,
			"count":4,
			"type":"VEC3"
		},
		{
			"bufferView":17,
			"componentType":5126,
			"count":56,
			"max":[
				-0.17065231502056122,
				-0.5999999642372131,
				0.04130437597632408
			],
			"min":[
				-0.20978274941444397,
				-0.6413042545318604,
				0.04130437597632408
			],
			"type":"VEC3"
		},
		{
			"bufferView":18,
			"componentType":5126,
			"count":56,
			"type":"VEC3"
		},
		{
			"bufferView":19,
			"componentType":5123,
			"count":84,
			"type":"SCALAR"
		},
		{
			"bufferView":20,
			"componentType":5126,
			"count":24,
			"max":[
				-0.17247268557548523,
				-0.5879297852516174,
				0.03505227714776993
			],
			"min":[
				-0.21160313487052917,
				-0.5933477878570557,
				0.008695680648088455
			],
			"type":"VEC3"
		},
		{
			"bufferView":21,
			"componentType":5126,
			"count":24,
			"type":"VEC3"
		},
		{
			"bufferView":22,
			"componentType":5123,
			"count":36,
			"type":"SCALAR"
		},
		{
			"bufferView":23,
			"componentType":5126,
			"count":481,
			"max":[
				-0.09782621264457703,
				-0.789130449295044,
				0.043478287756443024
			],
			"min":[
				-0.13043490052223206,
				-0.8423912525177002,
				2.9802322387695312e-08
			],
			"type":"VEC3"
		},
		{
			"bufferView":24,
			"componentType":5126,
			"count":481,
			"type":"VEC3"
		},
		{
			"bufferView":25,
			"componentType":5123,
			"count":1392,
			"type":"SCALAR"
		},
		{
			"bufferView":26,
			"componentType":5126,
			"count":4,
			"max":[
				-0.10326099395751953,
				-0.8282608389854431,
				0.04130437597632408
			],
			"min":[
				-0.1119566559791565,
				-0.8423912525177002,
				0.04130437597632408
			],
			"type":"VEC3"
		},
		{
			"bufferView":27,
			"componentType":5126,
			"count":4,
			"type":"VEC3"
		},
		{
			"bufferView":28,
			"componentType":5126,
			"count":38,
			"max":[
				-0.10326102375984192,
				-0.7956521511077881,
				0.04130437225103378
			],
			"min":[
				-0.12500014901161194,
				-0.834782600402832,
				0.04130437225103378
			],
			"type":"VEC3"
		},
		{
			"bufferView":29,
			"componentType":5126,
			"count":38,
			"type":"VEC3"
		},
		{
			"bufferView":30,
			"componentType":5123,
			"count":60,
			"type":"SCALAR"
		},
		{
			"bufferView":31,
			"componentType":5126,
			"count":24,
			"max":[
				-0.09817799925804138,
				-0.7835311889648438,
				0.03933337703347206
			],
			"min":[
				-0.12426495552062988,
				-0.7889565229415894,
				0.004347854293882847
			],
			"type":"VEC3"
		},
		{
			"bufferView":32,
			"componentType":5126,
			"count":24,
			"type":"VEC3"
		},
		{
			"bufferView":33,
			"componentType":5123,
			"count":36,
			"type":"SCALAR"
		},
		{
			"bufferView":34,
			"componentType":5126,
			"count":1258,
			"max":[
				-0.013587117195129395,
				-0.47065216302871704,
				0.05434786155819893
			],
			"min":[
				-0.06250011920928955,
				-0.5489130020141602,
				2.9802322387695312e-08
			],
			"type":"VEC3"
		},
		{
			"bufferView":35,
			"componentType":5126,
			"count":1258,
			"type":"VEC3"
		},
		{
			"bufferView":36,
			"componentType":5123,
			"count":4458,
			"type":"SCALAR"
		},
		{
			"bufferView":37,
			"componentType":5126,
			"count":4,
			"max":[
				-0.05108711123466492,
				-0.5347825288772583,
				0.05217394232749939
			],
			"min":[
				-0.05760881304740906,
				-0.5489130020141602,
				0.05217394232749939
			],
			"type":"VEC3"
		},
		{
			"bufferView":38,
			"componentType":5126,
			"count":4,
			"type":"VEC3"
		},
		{
			"bufferView":39,
			"componentType":5126,
			"count":60,
			"max":[
				-0.018478423357009888,
				-0.48586955666542053,
				0.05217394232749939
			],
			"min":[
				-0.057608842849731445,
				-0.541304349899292,
				0.05217394232749939
			],
			"type":"VEC3"
		},
		{
			"bufferView":40,
			"componentType":5126,
			"count":60,
			"type":"VEC3"
		},
		{
			"bufferView":41,
			"componentType":5123,
			"count":90,
			"type":"SCALAR"
		},
		{
			"bufferView":42,
			"componentType":5126,
			"count":24,
			"max":[
				-0.028216570615768433,
				-0.4692773222923279,
				0.052293017506599426
			],
			"min":[
				-0.05756440758705139,
				-0.47830432653427124,
				0.029891332611441612
			],
			"type":"VEC3"
		},
		{
			"bufferView":43,
			"componentType":5126,
			"count":24,
			"type":"VEC3"
		},
		{
			"bufferView":44,
			"componentType":5126,
			"count":24,
			"max":[
				-0.020952701568603516,
				-0.4692773222923279,
				0.024456551298499107
			],
			"min":[
				-0.04051792621612549,
				-0.47830432653427124,
				0.002054864540696144
			],
			"type":"VEC3"
		},
		{
			"bufferView":45,
			"componentType":5126,
			"count":24,
			"type":"VEC3"
		},
		{
			"bufferView":46,
			"componentType":5123,
			"count":36,
			"type":"SCALAR"
		},
		{
			"bufferView":47,
			"componentType":5126,
			"count":492,
			"max":[
				0.13858681917190552,
				-0.9032608270645142,
				0.05434785410761833
			],
			"min":[
				0.08967381715774536,
				-0.9402173757553101,
				2.9802322387695312e-08
			],
			"type":"VEC3"
		},
		{
			"bufferView":48,
			"componentType":5126,
			"count":492,
			"type":"VEC3"
		},
		{
			"bufferView":49,
			"componentType":5123,
			"count":1422,
			"type":"SCALAR"
		},
		{
			"bufferView":50,
			"componentType":5126,
			"count":4,
			"max":[
				0.12282592058181763,
				-0.9260869026184082,
				0.05217394232749939
			],
			"min":[
				0.10543465614318848,
				-0.9402173757553101,
				0.05217394232749939
			],
			"type":"VEC3"
		},
		{
			"bufferView":51,
			"componentType":5126,
			"count":4,
			"type":"VEC3"
		},
		{
			"bufferView":52,
			"componentType":5126,
			"count":30,
			"max":[
				0.1336955428123474,
				-0.9097825884819031,
				0.05217394232749939
			],
			"min":[
				0.09456509351730347,
				-0.9326087236404419,
				0.05217394232749939
			],
			"type":"VEC3"
		},
		{
			"bufferView":53,
			"componentType":5126,
			"count":30,
			"type":"VEC3"
		},
		{
			"bufferView":54,
			"componentType":5123,
			"count":48,
			"type":"SCALAR"
		},
		{
			"bufferView":55,
			"componentType":5126,
			"count":24,
			"max":[
				0.12881338596343994,
				-0.8977631330490112,
				0.038365982472896576
			],
			"min":[
				0.09946560859680176,
				-0.9031739234924316,
				0.01630437560379505
			],
			"type":"VEC3"
		},
		{
			"bufferView":56,
			"componentType":5126,
			"count":24,
			"type":"VEC3"
		},
		{
			"bufferView":57,
			"componentType":5126,
			"count":477,
			"max":[
				0.20652151107788086,
				-0.39782607555389404,
				0.06521742045879364
			],
			"min":[
				0.1739128828048706,
				-0.45108696818351746,
				2.9802322387695312e-08
			],
			"type":"VEC3"
		},
		{
			"bufferView":58,
			"componentType":5126,
			"count":477,
			"type":"VEC3"
		},
		{
			"bufferView":59,
			"componentType":5123,
			"count":1386,
			"type":"SCALAR"
		},
		{
			"bufferView":60,
			"componentType":5126,
			"count":4,
			"max":[
				0.18804329633712769,
				-0.436956524848938,
				0.0630435049533844
			],
			"min":[
				0.17934763431549072,
				-0.45108696818351746,
				0.0630435049533844
			],
			"type":"VEC3"
		},
		{
			"bufferView":61,
			"componentType":5126,
			"count":4,
			"type":"VEC3"
		},
		{
			"bufferView":62,
			"componentType":5126,
			"count":36,
			"max":[
				0.20108675956726074,
				-0.40434783697128296,
				0.0630435049533844
			],
			"min":[
				0.17934763431549072,
				-0.44565218687057495,
				0.0630435049533844
			],
			"type":"VEC3"
		},
		{
			"bufferView":63,
			"componentType":5126,
			"count":36,
			"type":"VEC3"
		},
		{
			"bufferView":64,
			"componentType":5123,
			"count":54,
			"type":"SCALAR"
		},
		{
			"bufferView":65,
			"componentType":5126,
			"count":24,
			"max":[
				0.19801676273345947,
				-0.3922683596611023,
				0.05235447734594345
			],
			"min":[
				0.1784515380859375,
				-0.3976956605911255,
				0.013043506070971489
			],
			"type":"VEC3"
		},
		{
			"bufferView":66,
			"componentType":5126,
			"count":24,
			"type":"VEC3"
		}
	],
	"bufferViews":[
		{
			"buffer":0,
			"byteLength":6060,
			"byteOffset":0,
			"target":34962
		},
		{
			"buffer":0,
			"byteLength":6060,
			"byteOffset":6060,
			"target":34962
		},
		{
			"buffer":0,
			"byteLength":2952,
			"byteOffset":12120,
			"target":34963
		},
		{
			"buffer":0,
			"byteLength":48,
			"byteOffset":15072,
			"target":34962
		},
		{
			"buffer":0,
			"byteLength":48,
			"byteOffset":15120,
			"target":34962
		},
		{
			"buffer":0,
			"byteLength":12,
			"byteOffset":15168,
			"target":34963
		},
		{
			"buffer":0,
			"byteLength":384,
			"byteOffset":15180,
			"target":34962
		},
		{
			"buffer":0,
			"byteLength":384,
			"byteOffset":15564,
			"target":34962
		},
		{
			"buffer":0,
			"byteLength":96,
			"byteOffset":15948,
			"target":34963
		},
		{
			"buffer":0,
			"byteLength":288,
			"byteOffset":16044,
			"target":34962
		},
		{
			"buffer":0,
			"byteLength":288,
			"byteOffset":16332,
			"target":34962
		},
		{
			"buffer":0,
			"byteLength":72,
			"byteOffset":16620,
			"target":34963
		},
		{
			"buffer":0,
			"byteLength":9972,
			"byteOffset":16692,
			"target":34962
		},
		{
			"buffer":0,
			"byteLength":9972,
			"byteOffset":26664,
			"target":34962
		},
		{
			"buffer":0,
			"byteLength":5448,
			"byteOffset":36636,
			"target":34963
		},
		{
			"buffer":0,
			"byteLength":48,
			"byteOffset":42084,
			"target":34962
		},
		{
			"buffer":0,
			"byteLength":48,
			"byteOffset":42132,
			"target":34962
		},
		{
			"buffer":0,
			"byteLength":672,
			"byteOffset":42180,
			"target":34962
		},
		{
			"buffer":0,
			"byteLength":672,
			"byteOffset":42852,
			"target":34962
		},
		{
			"buffer":0,
			"byteLength":168,
			"byteOffset":43524,
			"target":34963
		},
		{
			"buffer":0,
			"byteLength":288,
			"byteOffset":43692,
			"target":34962
		},
		{
			"buffer":0,
			"byteLength":288,
			"byteOffset":43980,
			"target":34962
		},
		{
			"buffer":0,
			"byteLength":72,
			"byteOffset":44268,
			"target":34963
		},
		{
			"buffer":0,
			"byteLength":5772,
			"byteOffset":44340,
			"target":34962
		},
		{
			"buffer":0,
			"byteLength":5772,
			"byteOffset":50112,
			"target":34962
		},
		{
			"buffer":0,
			"byteLength":2784,
			"byteOffset":55884,
			"target":34963
		},
		{
			"buffer":0,
			"byteLength":48,
			"byteOffset":58668,
			"target":34962
		},
		{
			"buffer":0,
			"byteLength":48,
			"byteOffset":58716,
			"target":34962
		},
		{
			"buffer":0,
			"byteLength":456,
			"byteOffset":58764,
			"target":34962
		},
		{
			"buffer":0,
			"byteLength":456,
			"byteOffset":59220,
			"target":34962
		},
		{
			"buffer":0,
			"byteLength":120,
			"byteOffset":59676,
			"target":34963
		},
		{
			"buffer":0,
			"byteLength":288,
			"byteOffset":59796,
			"target":34962
		},
		{
			"buffer":0,
			"byteLength":288,
			"byteOffset":60084,
			"target":34962
		},
		{
			"buffer":0,
			"byteLength":72,
			"byteOffset":60372,
			"target":34963
		},
		{
			"buffer":0,
			"byteLength":15096,
			"byteOffset":60444,
			"target":34962
		},
		{
			"buffer":0,
			"byteLength":15096,
			"byteOffset":75540,
			"target":34962
		},
		{
			"buffer":0,
			"byteLength":8916,
			"byteOffset":90636,
			"target":34963
		},
		{
			"buffer":0,
			"byteLength":48,
			"byteOffset":99552,
			"target":34962
		},
		{
			"buffer":0,
			"byteLength":48,
			"byteOffset":99600,
			"target":34962
		},
		{
			"buffer":0,
			"byteLength":720,
			"byteOffset":99648,
			"target":34962
		},
		{
			"buffer":0,
			"byteLength":720,
			"byteOffset":100368,
			"target":34962
		},
		{
			"buffer":0,
			"byteLength":180,
			"byteOffset":101088,
			"target":34963
		},
		{
			"buffer":0,
			"byteLength":288,
			"byteOffset":101268,
			"target":34962
		},
		{
			"buffer":0,
			"byteLength":288,
			"byteOffset":101556,
			"target":34962
		},
		{
			"buffer":0,
			"byteLength":288,
			"byteOffset":101844,
			"target":34962
		},
		{
			"buffer":0,
			"byteLength":288,
			"byteOffset":102132,
			"target":34962
		},
		{
			"buffer":0,
			"byteLength":72,
			"byteOffset":102420,
			"target":34963
		},
		{
			"buffer":0,
			"byteLength":5904,
			"byteOffset":102492,
			"target":34962
		},
		{
			"buffer":0,
			"byteLength":5904,
			"byteOffset":108396,
			"target":34962
		},
		{
			"buffer":0,
			"byteLength":2844,
			"byteOffset":114300,
			"target":34963
		},
		{
			"buffer":0,
			"byteLength":48,
			"byteOffset":117144,
			"target":34962
		},
		{
			"buffer":0,
			"byteLength":48,
			"byteOffset":117192,
			"target":34962
		},
		{
			"buffer":0,
			"byteLength":360,
			"byteOffset":117240,
			"target":34962
		},
		{
			"buffer":0,
			"byteLength":360,
			"byteOffset":117600,
			"target":34962
		},
		{
			"buffer":0,
			"byteLength":96,
			"byteOffset":117960,
			"target":34963
		},
		{
			"buffer":0,
			"byteLength":288,
			"byteOffset":118056,
			"target":34962
		},
		{
			"buffer":0,
			"byteLength":288,
			"byteOffset":118344,
			"target":34962
		},
		{
			"buffer":0,
			"byteLength":5724,
			"byteOffset":118632,
			"target":34962
		},
		{
			"buffer":0,
			"byteLength":5724,
			"byteOffset":124356,
			"target":34962
		},
		{
			"buffer":0,
			"byteLength":2772,
			"byteOffset":130080,
			"target":34963
		},
		{
			"buffer":0,
			"byteLength":48,
			"byteOffset":132852,
			"target":34962
		},
		{
			"buffer":0,
			"byteLength":48,
			"byteOffset":132900,
			"target":34962
		},
		{
			"buffer":0,
			"byteLength":432,
			"byteOffset":132948,
			"target":34962
		},
		{
			"buffer":0,
			"byteLength":432,
			"byteOffset":133380,
			"target":34962
		},
		{
			"buffer":0,
			"byteLength":108,
			"byteOffset":133812,
			"target":34963
		},
		{
			"buffer":0,
			"byteLength":288,
			"byteOffset":133920,
			"target":34962
		},
		{
			"buffer":0,
			"byteLength":288,
			"byteOffset":134208,
			"target":34962
		}
	],
	"buffers":[
		{
			"byteLength":134496,
			"uri":"BinaGrup1.bin"
		}
	]
}
