{
	"asset":{
		"generator":"Khronos glTF Blender I/O v4.2.60",
		"version":"2.0"
	},
	"scene":0,
	"scenes":[
		{
			"name":"Scene",
			"nodes":[
				0,
				1,
				2,
				3,
				4,
				5,
				6,
				7,
				8,
				9,
				10,
				11,
				12
			]
		}
	],
	"nodes":[
		{
			"mesh":0,
			"name":"Building_032.003"
		},
		{
			"mesh":1,
			"name":"Building_032.004"
		},
		{
			"mesh":2,
			"name":"Building_032.005"
		},
		{
			"mesh":3,
			"name":"Building_032_RoofCap_0.001"
		},
		{
			"mesh":4,
			"name":"Building_032_RoofCap_1.001"
		},
		{
			"mesh":5,
			"name":"Building_038.003"
		},
		{
			"mesh":6,
			"name":"Building_038.004"
		},
		{
			"mesh":7,
			"name":"Building_038.005"
		},
		{
			"mesh":8,
			"name":"Building_038_RoofCap_0.001"
		},
		{
			"mesh":9,
			"name":"Building_047.003"
		},
		{
			"mesh":10,
			"name":"Building_047.004"
		},
		{
			"mesh":11,
			"name":"Building_047.005"
		},
		{
			"mesh":12,
			"name":"Building_047_RoofCap_0.001"
		}
	],
	"materials":[
		{
			"doubleSided":true,
			"name":"BinaSolar",
			"pbrMetallicRoughness":{
				"baseColorFactor":[
					0,
					0.08021967113018036,
					0.7230553030967712,
					1
				],
				"metallicFactor":0,
				"roughnessFactor":0.699999988079071
			}
		},
		{
			"doubleSided":true,
			"name":"PencereSolarKapal\u0131",
			"pbrMetallicRoughness":{
				"baseColorFactor":[
					0,
					0.04817177355289459,
					0.3185468912124634,
					1
				],
				"metallicFactor":0,
				"roughnessFactor":0.699999988079071
			}
		},
		{
			"doubleSided":true,
			"name":"Mat_Roof_Cap",
			"pbrMetallicRoughness":{
				"baseColorFactor":[
					0.9822452664375305,
					0.38132646679878235,
					0.0030353753827512264,
					1
				],
				"metallicFactor":0,
				"roughnessFactor":0.699999988079071
			}
		}
	],
	"meshes":[
		{
			"name":"Building_032_Mesh.003",
			"primitives":[
				{
					"attributes":{
						"POSITION":0,
						"NORMAL":1
					},
					"indices":2,
					"material":0
				}
			]
		},
		{
			"name":"Building_032_Mesh.004",
			"primitives":[
				{
					"attributes":{
						"POSITION":3,
						"NORMAL":4
					},
					"indices":5,
					"material":1
				}
			]
		},
		{
			"name":"Building_032_Mesh.005",
			"primitives":[
				{
					"attributes":{
						"POSITION":6,
						"NORMAL":7
					},
					"indices":8,
					"material":1
				}
			]
		},
		{
			"name":"Building_032_RoofCap_0_Mesh.001",
			"primitives":[
				{
					"attributes":{
						"POSITION":9,
						"NORMAL":10
					},
					"indices":11,
					"material":2
				}
			]
		},
		{
			"name":"Building_032_RoofCap_1_Mesh.001",
			"primitives":[
				{
					"attributes":{
						"POSITION":12,
						"NORMAL":13
					},
					"indices":14,
					"material":2
				}
			]
		},
		{
			"name":"Building_038_Mesh.003",
			"primitives":[
				{
					"attributes":{
						"POSITION":15,
						"NORMAL":16
					},
					"indices":17,
					"material":0
				}
			]
		},
		{
			"name":"Building_038_Mesh.004",
			"primitives":[
				{
					"attributes":{
						"POSITION":18,
						"NORMAL":19
					},
					"indices":5,
					"material":1
				}
			]
		},
		{
			"name":"Building_038_Mesh.005",
			"primitives":[
				{
					"attributes":{
						"POSITION":20,
						"NORMAL":21
					},
					"indices":22,
					"material":1
				}
			]
		},
		{
			"name":"Building_038_RoofCap_0_Mesh.001",
			"primitives":[
				{
					"attributes":{
						"POSITION":23,
						"NORMAL":24
					},
					"indices":25,
					"material":2
				}
			]
		},
		{
			"name":"Building_047_Mesh.003",
			"primitives":[
				{
					"attributes":{
						"POSITION":26,
						"NORMAL":27
					},
					"indices":28,
					"material":0
				}
			]
		},
		{
			"name":"Building_047_Mesh.004",
			"primitives":[
				{
					"attributes":{
						"POSITION":29,
						"NORMAL":30
					},
					"indices":5,
					"material":1
				}
			]
		},
		{
			"name":"Building_047_Mesh.005",
			"primitives":[
				{
					"attributes":{
						"POSITION":31,
						"NORMAL":32
					},
					"indices":33,
					"material":1
				}
			]
		},
		{
			"name":"Building_047_RoofCap_0_Mesh.001",
			"primitives":[
				{
					"attributes":{
						"POSITION":34,
						"NORMAL":35
					},
					"indices":36,
					"material":2
				}
			]
		}
	],
	"accessors":[
		{
			"bufferView":0,
			"componentType":5126,
			"count":496,
			"max":[
				-0.08967408537864685,
				-0.6989129781723022,
				0.043478287756443024
			],
			"min":[
				-0.1385871171951294,
				-0.7445651888847351,
				2.9802322387695312e-08
			],
			"type":"VEC3"
		},
		{
			"bufferView":1,
			"componentType":5126,
			"count":496,
			"type":"VEC3"
		},
		{
			"bufferView":2,
			"componentType":5123,
			"count":1416,
			"type":"SCALAR"
		},
		{
			"bufferView":3,
			"componentType":5126,
			"count":4,
			"max":[
				-0.12717404961585999,
				-0.730434775352478,
				0.04130437597632408
			],
			"min":[
				-0.1336957812309265,
				-0.7445651888847351,
				0.04130437597632408
			],
			"type":"VEC3"
		},
		{
			"bufferView":4,
			"componentType":5126,
			"count":4,
			"type":"VEC3"
		},
		{
			"bufferView":5,
			"componentType":5123,
			"count":6,
			"type":"SCALAR"
		},
		{
			"bufferView":6,
			"componentType":5126,
			"count":24,
			"max":[
				-0.09456536173820496,
				-0.7141304016113281,
				0.04130437225103378
			],
			"min":[
				-0.1336958110332489,
				-0.741304337978363,
				0.04130437225103378
			],
			"type":"VEC3"
		},
		{
			"bufferView":7,
			"componentType":5126,
			"count":24,
			"type":"VEC3"
		},
		{
			"bufferView":8,
			"componentType":5123,
			"count":36,
			"type":"SCALAR"
		},
		{
			"bufferView":9,
			"componentType":5126,
			"count":24,
			"max":[
				-0.11496090888977051,
				-0.698503315448761,
				0.039937831461429596
			],
			"min":[
				-0.13452613353729248,
				-0.7057391405105591,
				0.02608698420226574
			],
			"type":"VEC3"
		},
		{
			"bufferView":10,
			"componentType":5126,
			"count":24,
			"type":"VEC3"
		},
		{
			"bufferView":11,
			"componentType":5123,
			"count":36,
			"type":"SCALAR"
		},
		{
			"bufferView":12,
			"componentType":5126,
			"count":24,
			"max":[
				-0.09796181321144104,
				-0.6975902318954468,
				0.019565245136618614
			],
			"min":[
				-0.13709226250648499,
				-0.7065652012825012,
				0.0013665715232491493
			],
			"type":"VEC3"
		},
		{
			"bufferView":13,
			"componentType":5126,
			"count":24,
			"type":"VEC3"
		},
		{
			"bufferView":14,
			"componentType":5123,
			"count":36,
			"type":"SCALAR"
		},
		{
			"bufferView":15,
			"componentType":5126,
			"count":292,
			"max":[
				-0.021739304065704346,
				-0.6097825765609741,
				0.043478287756443024
			],
			"min":[
				-0.054347991943359375,
				-0.64673912525177,
				2.9802322387695312e-08
			],
			"type":"VEC3"
		},
		{
			"bufferView":16,
			"componentType":5126,
			"count":292,
			"type":"VEC3"
		},
		{
			"bufferView":17,
			"componentType":5123,
			"count":732,
			"type":"SCALAR"
		},
		{
			"bufferView":18,
			"componentType":5126,
			"count":4,
			"max":[
				-0.027174055576324463,
				-0.6326086521148682,
				0.04130437597632408
			],
			"min":[
				-0.035869717597961426,
				-0.64673912525177,
				0.04130437597632408
			],
			"type":"VEC3"
		},
		{
			"bufferView":19,
			"componentType":5126,
			"count":4,
			"type":"VEC3"
		},
		{
			"bufferView":20,
			"componentType":5126,
			"count":18,
			"max":[
				-0.02717408537864685,
				-0.616304337978363,
				0.04130437597632408
			],
			"min":[
				-0.04891321063041687,
				-0.643478274345398,
				0.04130437597632408
			],
			"type":"VEC3"
		},
		{
			"bufferView":21,
			"componentType":5126,
			"count":18,
			"type":"VEC3"
		},
		{
			"bufferView":22,
			"componentType":5123,
			"count":30,
			"type":"SCALAR"
		},
		{
			"bufferView":23,
			"componentType":5126,
			"count":24,
			"max":[
				-0.026050686836242676,
				-0.6041833758354187,
				0.03933337703347206
			],
			"min":[
				-0.04561591148376465,
				-0.6096086502075195,
				0.004347854293882847
			],
			"type":"VEC3"
		},
		{
			"bufferView":24,
			"componentType":5126,
			"count":24,
			"type":"VEC3"
		},
		{
			"bufferView":25,
			"componentType":5123,
			"count":36,
			"type":"SCALAR"
		},
		{
			"bufferView":26,
			"componentType":5126,
			"count":831,
			"max":[
				0.06249985098838806,
				-0.789130449295044,
				0.05434785410761833
			],
			"min":[
				0.01358678936958313,
				-0.8423912525177002,
				2.9802322387695312e-08
			],
			"type":"VEC3"
		},
		{
			"bufferView":27,
			"componentType":5126,
			"count":831,
			"type":"VEC3"
		},
		{
			"bufferView":28,
			"componentType":5123,
			"count":2718,
			"type":"SCALAR"
		},
		{
			"bufferView":29,
			"componentType":5126,
			"count":4,
			"max":[
				0.04673895239830017,
				-0.8282608389854431,
				0.05217394232749939
			],
			"min":[
				0.02934768795967102,
				-0.8423912525177002,
				0.05217394232749939
			],
			"type":"VEC3"
		},
		{
			"bufferView":30,
			"componentType":5126,
			"count":4,
			"type":"VEC3"
		},
		{
			"bufferView":31,
			"componentType":5126,
			"count":60,
			"max":[
				0.05760854482650757,
				-0.7956521511077881,
				0.05217394232749939
			],
			"min":[
				0.018478095531463623,
				-0.8391304016113281,
				0.05217394232749939
			],
			"type":"VEC3"
		},
		{
			"bufferView":32,
			"componentType":5126,
			"count":60,
			"type":"VEC3"
		},
		{
			"bufferView":33,
			"componentType":5123,
			"count":90,
			"type":"SCALAR"
		},
		{
			"bufferView":34,
			"componentType":5126,
			"count":24,
			"max":[
				0.047445148229599,
				-0.7835278511047363,
				0.0490756593644619
			],
			"min":[
				0.01809731125831604,
				-0.7889565229415894,
				0.005434809252619743
			],
			"type":"VEC3"
		},
		{
			"bufferView":35,
			"componentType":5126,
			"count":24,
			"type":"VEC3"
		},
		{
			"bufferView":36,
			"componentType":5123,
			"count":36,
			"type":"SCALAR"
		}
	],
	"bufferViews":[
		{
			"buffer":0,
			"byteLength":5952,
			"byteOffset":0,
			"target":34962
		},
		{
			"buffer":0,
			"byteLength":5952,
			"byteOffset":5952,
			"target":34962
		},
		{
			"buffer":0,
			"byteLength":2832,
			"byteOffset":11904,
			"target":34963
		},
		{
			"buffer":0,
			"byteLength":48,
			"byteOffset":14736,
			"target":34962
		},
		{
			"buffer":0,
			"byteLength":48,
			"byteOffset":14784,
			"target":34962
		},
		{
			"buffer":0,
			"byteLength":12,
			"byteOffset":14832,
			"target":34963
		},
		{
			"buffer":0,
			"byteLength":288,
			"byteOffset":14844,
			"target":34962
		},
		{
			"buffer":0,
			"byteLength":288,
			"byteOffset":15132,
			"target":34962
		},
		{
			"buffer":0,
			"byteLength":72,
			"byteOffset":15420,
			"target":34963
		},
		{
			"buffer":0,
			"byteLength":288,
			"byteOffset":15492,
			"target":34962
		},
		{
			"buffer":0,
			"byteLength":288,
			"byteOffset":15780,
			"target":34962
		},
		{
			"buffer":0,
			"byteLength":72,
			"byteOffset":16068,
			"target":34963
		},
		{
			"buffer":0,
			"byteLength":288,
			"byteOffset":16140,
			"target":34962
		},
		{
			"buffer":0,
			"byteLength":288,
			"byteOffset":16428,
			"target":34962
		},
		{
			"buffer":0,
			"byteLength":72,
			"byteOffset":16716,
			"target":34963
		},
		{
			"buffer":0,
			"byteLength":3504,
			"byteOffset":16788,
			"target":34962
		},
		{
			"buffer":0,
			"byteLength":3504,
			"byteOffset":20292,
			"target":34962
		},
		{
			"buffer":0,
			"byteLength":1464,
			"byteOffset":23796,
			"target":34963
		},
		{
			"buffer":0,
			"byteLength":48,
			"byteOffset":25260,
			"target":34962
		},
		{
			"buffer":0,
			"byteLength":48,
			"byteOffset":25308,
			"target":34962
		},
		{
			"buffer":0,
			"byteLength":216,
			"byteOffset":25356,
			"target":34962
		},
		{
			"buffer":0,
			"byteLength":216,
			"byteOffset":25572,
			"target":34962
		},
		{
			"buffer":0,
			"byteLength":60,
			"byteOffset":25788,
			"target":34963
		},
		{
			"buffer":0,
			"byteLength":288,
			"byteOffset":25848,
			"target":34962
		},
		{
			"buffer":0,
			"byteLength":288,
			"byteOffset":26136,
			"target":34962
		},
		{
			"buffer":0,
			"byteLength":72,
			"byteOffset":26424,
			"target":34963
		},
		{
			"buffer":0,
			"byteLength":9972,
			"byteOffset":26496,
			"target":34962
		},
		{
			"buffer":0,
			"byteLength":9972,
			"byteOffset":36468,
			"target":34962
		},
		{
			"buffer":0,
			"byteLength":5436,
			"byteOffset":46440,
			"target":34963
		},
		{
			"buffer":0,
			"byteLength":48,
			"byteOffset":51876,
			"target":34962
		},
		{
			"buffer":0,
			"byteLength":48,
			"byteOffset":51924,
			"target":34962
		},
		{
			"buffer":0,
			"byteLength":720,
			"byteOffset":51972,
			"target":34962
		},
		{
			"buffer":0,
			"byteLength":720,
			"byteOffset":52692,
			"target":34962
		},
		{
			"buffer":0,
			"byteLength":180,
			"byteOffset":53412,
			"target":34963
		},
		{
			"buffer":0,
			"byteLength":288,
			"byteOffset":53592,
			"target":34962
		},
		{
			"buffer":0,
			"byteLength":288,
			"byteOffset":53880,
			"target":34962
		},
		{
			"buffer":0,
			"byteLength":72,
			"byteOffset":54168,
			"target":34963
		}
	],
	"buffers":[
		{
			"byteLength":54240,
			"uri":"BinaGrup9.bin"
		}
	]
}
