{
	"asset":{
		"generator":"Khronos glTF Blender I/O v4.2.60",
		"version":"2.0"
	},
	"scene":0,
	"scenes":[
		{
			"name":"Scene",
			"nodes":[
				0,
				1,
				2,
				3,
				4,
				5
			]
		}
	],
	"nodes":[
		{
			"mesh":0,
			"name":"Building_021.022"
		},
		{
			"mesh":1,
			"name":"Building_021_RoofCap_0.003"
		},
		{
			"mesh":2,
			"name":"Building_021_RoofCap_1.003"
		},
		{
			"mesh":3,
			"name":"Building_021.023"
		},
		{
			"mesh":4,
			"name":"Building_021.024"
		},
		{
			"mesh":5,
			"name":"Simsek3.005",
			"scale":[
				0.0014100000262260437,
				0.0014100000262260437,
				0.0014100000262260437
			]
		}
	],
	"materials":[
		{
			"doubleSided":true,
			"name":"BinaSolar",
			"pbrMetallicRoughness":{
				"baseColorFactor":[
					0,
					0.08021967113018036,
					0.7230553030967712,
					1
				],
				"metallicFactor":0,
				"roughnessFactor":0.699999988079071
			}
		},
		{
			"doubleSided":true,
			"name":"Mat_Roof_Cap",
			"pbrMetallicRoughness":{
				"baseColorFactor":[
					0.9822452664375305,
					0.38132646679878235,
					0.0030353753827512264,
					1
				],
				"metallicFactor":0,
				"roughnessFactor":0.699999988079071
			}
		},
		{
			"doubleSided":true,
			"name":"PencereSolarKapal\u0131",
			"pbrMetallicRoughness":{
				"baseColorFactor":[
					0,
					0.04817177355289459,
					0.3185468912124634,
					1
				],
				"metallicFactor":0,
				"roughnessFactor":0.699999988079071
			}
		},
		{
			"doubleSided":true,
			"name":"PencereSolar.009",
			"pbrMetallicRoughness":{
				"baseColorFactor":[
					0.9822452664375305,
					0.38132646679878235,
					0.0030353753827512264,
					1
				],
				"metallicFactor":0,
				"roughnessFactor":0.5
			}
		}
	],
	"meshes":[
		{
			"name":"Building_021_Mesh.025",
			"primitives":[
				{
					"attributes":{
						"POSITION":0,
						"NORMAL":1
					},
					"indices":2,
					"material":0
				}
			]
		},
		{
			"name":"Building_021_RoofCap_0_Mesh.006",
			"primitives":[
				{
					"attributes":{
						"POSITION":3,
						"NORMAL":4
					},
					"indices":5,
					"material":1
				}
			]
		},
		{
			"name":"Building_021_RoofCap_1_Mesh.006",
			"primitives":[
				{
					"attributes":{
						"POSITION":6,
						"NORMAL":7
					},
					"indices":8,
					"material":1
				}
			]
		},
		{
			"name":"Building_021_Mesh.026",
			"primitives":[
				{
					"attributes":{
						"POSITION":9,
						"NORMAL":10
					},
					"indices":11,
					"material":2
				}
			]
		},
		{
			"name":"Building_021_Mesh.027",
			"primitives":[
				{
					"attributes":{
						"POSITION":12,
						"NORMAL":13
					},
					"indices":14,
					"material":2
				}
			]
		},
		{
			"name":"Plane.051",
			"primitives":[
				{
					"attributes":{
						"POSITION":15,
						"NORMAL":16,
						"TEXCOORD_0":17
					},
					"indices":18,
					"material":3
				}
			]
		}
	],
	"accessors":[
		{
			"bufferView":0,
			"componentType":5126,
			"count":497,
			"max":[
				-0.2500000596046448,
				-0.28913038969039917,
				0.04227645322680473
			],
			"min":[
				-0.2826087474822998,
				-0.3532608151435852,
				-0.001201803795993328
			],
			"type":"VEC3"
		},
		{
			"bufferView":1,
			"componentType":5126,
			"count":497,
			"type":"VEC3"
		},
		{
			"bufferView":2,
			"componentType":5123,
			"count":1398,
			"type":"SCALAR"
		},
		{
			"bufferView":3,
			"componentType":5126,
			"count":24,
			"max":[
				-0.2527666985988617,
				-0.2880990505218506,
				0.04107474535703659
			],
			"min":[
				-0.26581019163131714,
				-0.29873913526535034,
				0.022711236029863358
			],
			"type":"VEC3"
		},
		{
			"bufferView":4,
			"componentType":5126,
			"count":24,
			"type":"VEC3"
		},
		{
			"bufferView":5,
			"componentType":5123,
			"count":36,
			"type":"SCALAR"
		},
		{
			"bufferView":6,
			"componentType":5126,
			"count":24,
			"max":[
				-0.25848275423049927,
				-0.2880990505218506,
				0.018363412469625473
			],
			"min":[
				-0.27804797887802124,
				-0.29873913526535034,
				-9.406358003616333e-08
			],
			"type":"VEC3"
		},
		{
			"bufferView":7,
			"componentType":5126,
			"count":24,
			"type":"VEC3"
		},
		{
			"bufferView":8,
			"componentType":5123,
			"count":36,
			"type":"SCALAR"
		},
		{
			"bufferView":9,
			"componentType":5126,
			"count":36,
			"max":[
				-0.2554348409175873,
				-0.3065217137336731,
				0.04010253772139549
			],
			"min":[
				-0.2771739661693573,
				-0.3500000238418579,
				0.04010253772139549
			],
			"type":"VEC3"
		},
		{
			"bufferView":10,
			"componentType":5126,
			"count":36,
			"type":"VEC3"
		},
		{
			"bufferView":11,
			"componentType":5123,
			"count":54,
			"type":"SCALAR"
		},
		{
			"bufferView":12,
			"componentType":5126,
			"count":4,
			"max":[
				-0.26847830414772034,
				-0.3391304016113281,
				0.04010254144668579
			],
			"min":[
				-0.2771739661693573,
				-0.3532608151435852,
				0.04010254144668579
			],
			"type":"VEC3"
		},
		{
			"bufferView":13,
			"componentType":5126,
			"count":4,
			"type":"VEC3"
		},
		{
			"bufferView":14,
			"componentType":5123,
			"count":6,
			"type":"SCALAR"
		},
		{
			"bufferView":15,
			"componentType":5126,
			"count":54,
			"max":[
				-215.84085083007812,
				-259.87310791015625,
				11.956602096557617
			],
			"min":[
				-215.8629150390625,
				-259.912841796875,
				11.948992729187012
			],
			"type":"VEC3"
		},
		{
			"bufferView":16,
			"componentType":5126,
			"count":54,
			"type":"VEC3"
		},
		{
			"bufferView":17,
			"componentType":5126,
			"count":54,
			"type":"VEC2"
		},
		{
			"bufferView":18,
			"componentType":5123,
			"count":96,
			"type":"SCALAR"
		}
	],
	"bufferViews":[
		{
			"buffer":0,
			"byteLength":5964,
			"byteOffset":0,
			"target":34962
		},
		{
			"buffer":0,
			"byteLength":5964,
			"byteOffset":5964,
			"target":34962
		},
		{
			"buffer":0,
			"byteLength":2796,
			"byteOffset":11928,
			"target":34963
		},
		{
			"buffer":0,
			"byteLength":288,
			"byteOffset":14724,
			"target":34962
		},
		{
			"buffer":0,
			"byteLength":288,
			"byteOffset":15012,
			"target":34962
		},
		{
			"buffer":0,
			"byteLength":72,
			"byteOffset":15300,
			"target":34963
		},
		{
			"buffer":0,
			"byteLength":288,
			"byteOffset":15372,
			"target":34962
		},
		{
			"buffer":0,
			"byteLength":288,
			"byteOffset":15660,
			"target":34962
		},
		{
			"buffer":0,
			"byteLength":72,
			"byteOffset":15948,
			"target":34963
		},
		{
			"buffer":0,
			"byteLength":432,
			"byteOffset":16020,
			"target":34962
		},
		{
			"buffer":0,
			"byteLength":432,
			"byteOffset":16452,
			"target":34962
		},
		{
			"buffer":0,
			"byteLength":108,
			"byteOffset":16884,
			"target":34963
		},
		{
			"buffer":0,
			"byteLength":48,
			"byteOffset":16992,
			"target":34962
		},
		{
			"buffer":0,
			"byteLength":48,
			"byteOffset":17040,
			"target":34962
		},
		{
			"buffer":0,
			"byteLength":12,
			"byteOffset":17088,
			"target":34963
		},
		{
			"buffer":0,
			"byteLength":648,
			"byteOffset":17100,
			"target":34962
		},
		{
			"buffer":0,
			"byteLength":648,
			"byteOffset":17748,
			"target":34962
		},
		{
			"buffer":0,
			"byteLength":432,
			"byteOffset":18396,
			"target":34962
		},
		{
			"buffer":0,
			"byteLength":192,
			"byteOffset":18828,
			"target":34963
		}
	],
	"buffers":[
		{
			"byteLength":19020,
			"uri":"binaacilacak1.bin"
		}
	]
}
