{
	"asset":{
		"generator":"Khronos glTF Blender I/O v4.2.60",
		"version":"2.0"
	},
	"scene":0,
	"scenes":[
		{
			"name":"Scene",
			"nodes":[
				0,
				1,
				2,
				3
			]
		}
	],
	"nodes":[
		{
			"mesh":0,
			"name":"Building_024.022"
		},
		{
			"mesh":1,
			"name":"Building_024_RoofCap_0.003"
		},
		{
			"mesh":2,
			"name":"Building_024.023"
		},
		{
			"mesh":3,
			"name":"Building_024.024"
		}
	],
	"materials":[
		{
			"doubleSided":true,
			"name":"BinaSolar",
			"pbrMetallicRoughness":{
				"baseColorFactor":[
					0,
					0.08021967113018036,
					0.7230553030967712,
					1
				],
				"metallicFactor":0,
				"roughnessFactor":0.699999988079071
			}
		},
		{
			"doubleSided":true,
			"name":"Mat_Roof_Cap",
			"pbrMetallicRoughness":{
				"baseColorFactor":[
					0.9822452664375305,
					0.38132646679878235,
					0.0030353753827512264,
					1
				],
				"metallicFactor":0,
				"roughnessFactor":0.699999988079071
			}
		},
		{
			"doubleSided":true,
			"name":"PencereSolarKapal\u0131",
			"pbrMetallicRoughness":{
				"baseColorFactor":[
					0,
					0.04817177355289459,
					0.3185468912124634,
					1
				],
				"metallicFactor":0,
				"roughnessFactor":0.699999988079071
			}
		}
	],
	"meshes":[
		{
			"name":"Building_024_Mesh.025",
			"primitives":[
				{
					"attributes":{
						"POSITION":0,
						"NORMAL":1
					},
					"indices":2,
					"material":0
				}
			]
		},
		{
			"name":"Building_024_RoofCap_0_Mesh.006",
			"primitives":[
				{
					"attributes":{
						"POSITION":3,
						"NORMAL":4
					},
					"indices":5,
					"material":1
				}
			]
		},
		{
			"name":"Building_024_Mesh.026",
			"primitives":[
				{
					"attributes":{
						"POSITION":6,
						"NORMAL":7
					},
					"indices":8,
					"material":2
				}
			]
		},
		{
			"name":"Building_024_Mesh.027",
			"primitives":[
				{
					"attributes":{
						"POSITION":9,
						"NORMAL":10
					},
					"indices":11,
					"material":2
				}
			]
		}
	],
	"accessors":[
		{
			"bufferView":0,
			"componentType":5126,
			"count":831,
			"max":[
				-0.16576096415519714,
				-0.299999862909317,
				0.043478164821863174
			],
			"min":[
				-0.2146739959716797,
				-0.3532607853412628,
				-9.313225746154785e-08
			],
			"type":"VEC3"
		},
		{
			"bufferView":1,
			"componentType":5126,
			"count":831,
			"type":"VEC3"
		},
		{
			"bufferView":2,
			"componentType":5123,
			"count":2724,
			"type":"SCALAR"
		},
		{
			"bufferView":3,
			"componentType":5126,
			"count":24,
			"max":[
				-0.17247262597084045,
				-0.29445144534111023,
				0.03505215421319008
			],
			"min":[
				-0.2116030752658844,
				-0.29986944794654846,
				0.008695557713508606
			],
			"type":"VEC3"
		},
		{
			"bufferView":4,
			"componentType":5126,
			"count":24,
			"type":"VEC3"
		},
		{
			"bufferView":5,
			"componentType":5123,
			"count":36,
			"type":"SCALAR"
		},
		{
			"bufferView":6,
			"componentType":5126,
			"count":56,
			"max":[
				-0.17065224051475525,
				-0.30652162432670593,
				0.04130425676703453
			],
			"min":[
				-0.2097826898097992,
				-0.34782591462135315,
				0.04130425676703453
			],
			"type":"VEC3"
		},
		{
			"bufferView":7,
			"componentType":5126,
			"count":56,
			"type":"VEC3"
		},
		{
			"bufferView":8,
			"componentType":5123,
			"count":84,
			"type":"SCALAR"
		},
		{
			"bufferView":9,
			"componentType":5126,
			"count":4,
			"max":[
				-0.18152180314064026,
				-0.33913031220436096,
				0.04130425676703453
			],
			"min":[
				-0.19891312718391418,
				-0.3532607853412628,
				0.04130425676703453
			],
			"type":"VEC3"
		},
		{
			"bufferView":10,
			"componentType":5126,
			"count":4,
			"type":"VEC3"
		},
		{
			"bufferView":11,
			"componentType":5123,
			"count":6,
			"type":"SCALAR"
		}
	],
	"bufferViews":[
		{
			"buffer":0,
			"byteLength":9972,
			"byteOffset":0,
			"target":34962
		},
		{
			"buffer":0,
			"byteLength":9972,
			"byteOffset":9972,
			"target":34962
		},
		{
			"buffer":0,
			"byteLength":5448,
			"byteOffset":19944,
			"target":34963
		},
		{
			"buffer":0,
			"byteLength":288,
			"byteOffset":25392,
			"target":34962
		},
		{
			"buffer":0,
			"byteLength":288,
			"byteOffset":25680,
			"target":34962
		},
		{
			"buffer":0,
			"byteLength":72,
			"byteOffset":25968,
			"target":34963
		},
		{
			"buffer":0,
			"byteLength":672,
			"byteOffset":26040,
			"target":34962
		},
		{
			"buffer":0,
			"byteLength":672,
			"byteOffset":26712,
			"target":34962
		},
		{
			"buffer":0,
			"byteLength":168,
			"byteOffset":27384,
			"target":34963
		},
		{
			"buffer":0,
			"byteLength":48,
			"byteOffset":27552,
			"target":34962
		},
		{
			"buffer":0,
			"byteLength":48,
			"byteOffset":27600,
			"target":34962
		},
		{
			"buffer":0,
			"byteLength":12,
			"byteOffset":27648,
			"target":34963
		}
	],
	"buffers":[
		{
			"byteLength":27660,
			"uri":"binaacilacak2.bin"
		}
	]
}
