{
	"asset":{
		"generator":"Khronos glTF Blender I/O v4.2.60",
		"version":"2.0"
	},
	"scene":0,
	"scenes":[
		{
			"name":"Scene",
			"nodes":[
				0,
				1,
				2
			]
		}
	],
	"nodes":[
		{
			"mesh":0,
			"name":"Building_042.010"
		},
		{
			"mesh":1,
			"name":"Building_042.014"
		},
		{
			"mesh":2,
			"name":"Building_042.015"
		}
	],
	"materials":[
		{
			"doubleSided":true,
			"name":"BinaGrid.001",
			"pbrMetallicRoughness":{
				"baseColorFactor":[
					0.2874388098716736,
					0.3371638357639313,
					0.4178852438926697,
					1
				],
				"metallicFactor":0,
				"roughnessFactor":0.5
			}
		},
		{
			"doubleSided":true,
			"name":"PencereGrid",
			"pbrMetallicRoughness":{
				"baseColorFactor":[
					0.1499587893486023,
					0.17464761435985565,
					0.2122308313846588,
					1
				],
				"metallicFactor":0,
				"roughnessFactor":0.699999988079071
			}
		}
	],
	"meshes":[
		{
			"name":"Building_042_Mesh.024",
			"primitives":[
				{
					"attributes":{
						"POSITION":0,
						"NORMAL":1
					},
					"indices":2,
					"material":0
				}
			]
		},
		{
			"name":"Building_042_Mesh.025",
			"primitives":[
				{
					"attributes":{
						"POSITION":3,
						"NORMAL":4
					},
					"indices":5,
					"material":1
				}
			]
		},
		{
			"name":"Building_042_Mesh.026",
			"primitives":[
				{
					"attributes":{
						"POSITION":6,
						"NORMAL":7
					},
					"indices":8,
					"material":1
				}
			]
		}
	],
	"accessors":[
		{
			"bufferView":0,
			"componentType":5126,
			"count":515,
			"max":[
				-0.08967399597167969,
				-0.3054347038269043,
				0.05434782803058624
			],
			"min":[
				-0.13858702778816223,
				-0.3532608151435852,
				3.725290298461914e-09
			],
			"type":"VEC3"
		},
		{
			"bufferView":1,
			"componentType":5126,
			"count":515,
			"type":"VEC3"
		},
		{
			"bufferView":2,
			"componentType":5123,
			"count":1434,
			"type":"SCALAR"
		},
		{
			"bufferView":3,
			"componentType":5126,
			"count":28,
			"max":[
				-0.09456530213356018,
				-0.322826087474823,
				0.0521739199757576
			],
			"min":[
				-0.13369575142860413,
				-0.34999996423721313,
				0.0521739199757576
			],
			"type":"VEC3"
		},
		{
			"bufferView":4,
			"componentType":5126,
			"count":28,
			"type":"VEC3"
		},
		{
			"bufferView":5,
			"componentType":5123,
			"count":42,
			"type":"SCALAR"
		},
		{
			"bufferView":6,
			"componentType":5126,
			"count":4,
			"max":[
				-0.10543489456176758,
				-0.3391304016113281,
				0.0521739199757576
			],
			"min":[
				-0.12282615900039673,
				-0.3532608151435852,
				0.0521739199757576
			],
			"type":"VEC3"
		},
		{
			"bufferView":7,
			"componentType":5126,
			"count":4,
			"type":"VEC3"
		},
		{
			"bufferView":8,
			"componentType":5123,
			"count":6,
			"type":"SCALAR"
		}
	],
	"bufferViews":[
		{
			"buffer":0,
			"byteLength":6180,
			"byteOffset":0,
			"target":34962
		},
		{
			"buffer":0,
			"byteLength":6180,
			"byteOffset":6180,
			"target":34962
		},
		{
			"buffer":0,
			"byteLength":2868,
			"byteOffset":12360,
			"target":34963
		},
		{
			"buffer":0,
			"byteLength":336,
			"byteOffset":15228,
			"target":34962
		},
		{
			"buffer":0,
			"byteLength":336,
			"byteOffset":15564,
			"target":34962
		},
		{
			"buffer":0,
			"byteLength":84,
			"byteOffset":15900,
			"target":34963
		},
		{
			"buffer":0,
			"byteLength":48,
			"byteOffset":15984,
			"target":34962
		},
		{
			"buffer":0,
			"byteLength":48,
			"byteOffset":16032,
			"target":34962
		},
		{
			"buffer":0,
			"byteLength":12,
			"byteOffset":16080,
			"target":34963
		}
	],
	"buffers":[
		{
			"byteLength":16092,
			"uri":"binakapanacak3.bin"
		}
	]
}
