{
	"asset":{
		"generator":"Khronos glTF Blender I/O v4.2.60",
		"version":"2.0"
	},
	"scene":0,
	"scenes":[
		{
			"name":"Scene",
			"nodes":[
				0,
				1,
				2,
				3
			]
		}
	],
	"nodes":[
		{
			"mesh":0,
			"name":"Plane.022",
			"rotation":[
				0.7071068286895752,
				0,
				0,
				0.7071068286895752
			],
			"scale":[
				0.03999999910593033,
				1,
				0.03500000014901161
			],
			"translation":[
				-0.5182240009307861,
				-0.7648651599884033,
				-0.032906949520111084
			]
		},
		{
			"mesh":1,
			"name":"Plane.023",
			"rotation":[
				0.7071068286895752,
				0,
				0,
				0.7071068286895752
			],
			"scale":[
				0.03999999910593033,
				1,
				0.03500000014901161
			],
			"translation":[
				-0.5182239413261414,
				-0.7648651599884033,
				-0.032906949520111084
			]
		},
		{
			"mesh":2,
			"name":"Text.073",
			"rotation":[
				0.7071068286895752,
				0,
				0,
				0.7071068286895752
			],
			"scale":[
				5.247999668121338,
				2.17391300201416,
				5.248000621795654
			],
			"translation":[
				-0.5182240009307861,
				-0.7648651003837585,
				0.0021739837247878313
			]
		},
		{
			"mesh":3,
			"name":"Text.074",
			"rotation":[
				0.7071068286895752,
				0,
				0,
				0.7071068286895752
			],
			"scale":[
				5.247999668121338,
				2.17391300201416,
				5.248000621795654
			],
			"translation":[
				-0.5182239413261414,
				-0.7648651003837585,
				0.002173983957618475
			]
		}
	],
	"materials":[
		{
			"doubleSided":true,
			"name":"PencereSolar.001",
			"pbrMetallicRoughness":{
				"baseColorFactor":[
					0.9822452664375305,
					0.38132646679878235,
					0.0030353753827512264,
					1
				],
				"metallicFactor":0,
				"roughnessFactor":0.5
			}
		},
		{
			"doubleSided":true,
			"name":"BinaGrid.001",
			"pbrMetallicRoughness":{
				"baseColorFactor":[
					0.2874388098716736,
					0.3371638357639313,
					0.4178852438926697,
					1
				],
				"metallicFactor":0,
				"roughnessFactor":0.5
			}
		},
		{
			"doubleSided":true,
			"name":"Material.001",
			"pbrMetallicRoughness":{
				"metallicFactor":0,
				"roughnessFactor":0.5
			}
		}
	],
	"meshes":[
		{
			"name":"Plane.079",
			"primitives":[
				{
					"attributes":{
						"POSITION":0,
						"NORMAL":1,
						"TEXCOORD_0":2
					},
					"indices":3,
					"material":0
				}
			]
		},
		{
			"name":"Plane.080",
			"primitives":[
				{
					"attributes":{
						"POSITION":4,
						"NORMAL":5,
						"TEXCOORD_0":6
					},
					"indices":3,
					"material":1
				}
			]
		},
		{
			"name":"Text.082",
			"primitives":[
				{
					"attributes":{
						"POSITION":7,
						"NORMAL":8,
						"TEXCOORD_0":9
					},
					"indices":10,
					"material":2
				}
			]
		},
		{
			"name":"Text.083",
			"primitives":[
				{
					"attributes":{
						"POSITION":11,
						"NORMAL":12,
						"TEXCOORD_0":13
					},
					"indices":14,
					"material":2
				}
			]
		}
	],
	"accessors":[
		{
			"bufferView":0,
			"componentType":5126,
			"count":4,
			"max":[
				5.2786407470703125,
				0.035080935806035995,
				-14.811153411865234
			],
			"min":[
				3.2786407470703125,
				0.035080935806035995,
				-16.811153411865234
			],
			"type":"VEC3"
		},
		{
			"bufferView":1,
			"componentType":5126,
			"count":4,
			"type":"VEC3"
		},
		{
			"bufferView":2,
			"componentType":5126,
			"count":4,
			"type":"VEC2"
		},
		{
			"bufferView":3,
			"componentType":5123,
			"count":6,
			"type":"SCALAR"
		},
		{
			"bufferView":4,
			"componentType":5126,
			"count":4,
			"max":[
				13.179879188537598,
				0.035080935806035995,
				-14.818183898925781
			],
			"min":[
				11.179879188537598,
				0.035080935806035995,
				-16.81818389892578
			],
			"type":"VEC3"
		},
		{
			"bufferView":5,
			"componentType":5126,
			"count":4,
			"type":"VEC3"
		},
		{
			"bufferView":6,
			"componentType":5126,
			"count":4,
			"type":"VEC2"
		},
		{
			"bufferView":7,
			"componentType":5126,
			"count":1256,
			"max":[
				0.035035211592912674,
				0.0010000000474974513,
				-0.1019272580742836
			],
			"min":[
				0.030131706967949867,
				-0.0010000000474974513,
				-0.108949676156044
			],
			"type":"VEC3"
		},
		{
			"bufferView":8,
			"componentType":5126,
			"count":1256,
			"type":"VEC3"
		},
		{
			"bufferView":9,
			"componentType":5126,
			"count":1256,
			"type":"VEC2"
		},
		{
			"bufferView":10,
			"componentType":5123,
			"count":3756,
			"type":"SCALAR"
		},
		{
			"bufferView":11,
			"componentType":5126,
			"count":26,
			"max":[
				0.09384234994649887,
				0.0010000000474974513,
				-0.10202101618051529
			],
			"min":[
				0.09124527126550674,
				-0.0010000000474974513,
				-0.10886529833078384
			],
			"type":"VEC3"
		},
		{
			"bufferView":12,
			"componentType":5126,
			"count":26,
			"type":"VEC3"
		},
		{
			"bufferView":13,
			"componentType":5126,
			"count":26,
			"type":"VEC2"
		},
		{
			"bufferView":14,
			"componentType":5123,
			"count":60,
			"type":"SCALAR"
		}
	],
	"bufferViews":[
		{
			"buffer":0,
			"byteLength":48,
			"byteOffset":0,
			"target":34962
		},
		{
			"buffer":0,
			"byteLength":48,
			"byteOffset":48,
			"target":34962
		},
		{
			"buffer":0,
			"byteLength":32,
			"byteOffset":96,
			"target":34962
		},
		{
			"buffer":0,
			"byteLength":12,
			"byteOffset":128,
			"target":34963
		},
		{
			"buffer":0,
			"byteLength":48,
			"byteOffset":140,
			"target":34962
		},
		{
			"buffer":0,
			"byteLength":48,
			"byteOffset":188,
			"target":34962
		},
		{
			"buffer":0,
			"byteLength":32,
			"byteOffset":236,
			"target":34962
		},
		{
			"buffer":0,
			"byteLength":15072,
			"byteOffset":268,
			"target":34962
		},
		{
			"buffer":0,
			"byteLength":15072,
			"byteOffset":15340,
			"target":34962
		},
		{
			"buffer":0,
			"byteLength":10048,
			"byteOffset":30412,
			"target":34962
		},
		{
			"buffer":0,
			"byteLength":7512,
			"byteOffset":40460,
			"target":34963
		},
		{
			"buffer":0,
			"byteLength":312,
			"byteOffset":47972,
			"target":34962
		},
		{
			"buffer":0,
			"byteLength":312,
			"byteOffset":48284,
			"target":34962
		},
		{
			"buffer":0,
			"byteLength":208,
			"byteOffset":48596,
			"target":34962
		},
		{
			"buffer":0,
			"byteLength":120,
			"byteOffset":48804,
			"target":34963
		}
	],
	"buffers":[
		{
			"byteLength":48924,
			"uri":"sayi5.bin"
		}
	]
}
