{
	"asset":{
		"generator":"Khronos glTF Blender I/O v4.2.60",
		"version":"2.0"
	},
	"scene":0,
	"scenes":[
		{
			"name":"Scene",
			"nodes":[
				0,
				1,
				3,
				4,
				5
			]
		}
	],
	"nodes":[
		{
			"mesh":0,
			"name":"Text.064",
			"rotation":[
				0.7071068286895752,
				0,
				0,
				0.7071068286895752
			],
			"scale":[
				4.310130596160889,
				2.17391300201416,
				4.310131549835205
			],
			"translation":[
				0,
				0,
				0.01604345254600048
			]
		},
		{
			"mesh":1,
			"name":"Text.065",
			"rotation":[
				0.7071068286895752,
				0,
				0,
				0.7071068286895752
			],
			"scale":[
				4.310130596160889,
				2.17391300201416,
				4.310131549835205
			],
			"translation":[
				0,
				0,
				0.01604345254600048
			]
		},
		{
			"mesh":2,
			"name":"G\u00fcnes.006",
			"rotation":[
				0.7071068286895752,
				0,
				0,
				0.7071068286895752
			],
			"translation":[
				-0.22826123237609863,
				-0.3176184892654419,
				-0.0108695849776268
			]
		},
		{
			"children":[
				2
			],
			"name":"G\u00fcne\u015f.006",
			"translation":[
				0.22826123237609863,
				0.3176184892654419,
				0.0108695849776268
			]
		},
		{
			"mesh":3,
			"name":"Plane.036",
			"rotation":[
				0.7071068286895752,
				0,
				0,
				0.7071068286895752
			],
			"scale":[
				1.3528070449829102,
				2.17391300201416,
				0.02362949587404728
			],
			"translation":[
				0,
				0,
				0.0020000000949949026
			]
		},
		{
			"mesh":4,
			"name":"Plane.037",
			"rotation":[
				0.7071068286895752,
				0,
				0,
				0.7071068286895752
			],
			"scale":[
				1.05745267868042,
				2.17391300201416,
				0.02362949587404728
			],
			"translation":[
				0,
				0,
				0.0020000000949949026
			]
		}
	],
	"materials":[
		{
			"doubleSided":true,
			"name":"Material.002",
			"pbrMetallicRoughness":{
				"baseColorFactor":[
					0.7758182287216187,
					0.18116439878940582,
					0.0030353262554854155,
					1
				],
				"metallicFactor":0,
				"roughnessFactor":0.5
			}
		},
		{
			"doubleSided":true,
			"name":"PencereSolar.001",
			"pbrMetallicRoughness":{
				"baseColorFactor":[
					0.9822452664375305,
					0.38132646679878235,
					0.0030353753827512264,
					1
				],
				"metallicFactor":0,
				"roughnessFactor":0.5
			}
		}
	],
	"meshes":[
		{
			"name":"Text.001",
			"primitives":[
				{
					"attributes":{
						"POSITION":0,
						"NORMAL":1,
						"TEXCOORD_0":2
					},
					"indices":3,
					"material":0
				}
			]
		},
		{
			"name":"Text.016",
			"primitives":[
				{
					"attributes":{
						"POSITION":4,
						"NORMAL":5,
						"TEXCOORD_0":6
					},
					"indices":7,
					"material":0
				}
			]
		},
		{
			"name":"Circle.004",
			"primitives":[
				{
					"attributes":{
						"POSITION":8,
						"NORMAL":9,
						"TEXCOORD_0":10
					},
					"indices":11,
					"material":1
				}
			]
		},
		{
			"name":"Plane.043",
			"primitives":[
				{
					"attributes":{
						"POSITION":12,
						"NORMAL":13,
						"TEXCOORD_0":14
					},
					"indices":15,
					"material":0
				}
			]
		},
		{
			"name":"Plane.046",
			"primitives":[
				{
					"attributes":{
						"POSITION":16,
						"NORMAL":17,
						"TEXCOORD_0":18
					},
					"indices":19,
					"material":0
				}
			]
		}
	],
	"accessors":[
		{
			"bufferView":0,
			"componentType":5126,
			"count":13672,
			"max":[
				0.003198156598955393,
				0.0010000000474974513,
				0.02546527609229088
			],
			"min":[
				-0.10391954332590103,
				-0.0010000000474974513,
				0.015939533710479736
			],
			"type":"VEC3"
		},
		{
			"bufferView":1,
			"componentType":5126,
			"count":13672,
			"type":"VEC3"
		},
		{
			"bufferView":2,
			"componentType":5126,
			"count":13672,
			"type":"VEC2"
		},
		{
			"bufferView":3,
			"componentType":5123,
			"count":40656,
			"type":"SCALAR"
		},
		{
			"bufferView":4,
			"componentType":5126,
			"count":11944,
			"max":[
				0.019549448043107986,
				0.0010000000474974513,
				-0.02738683857023716
			],
			"min":[
				-0.10426643490791321,
				-0.0010000000474974513,
				-0.03747512400150299
			],
			"type":"VEC3"
		},
		{
			"bufferView":5,
			"componentType":5126,
			"count":11944,
			"type":"VEC3"
		},
		{
			"bufferView":6,
			"componentType":5126,
			"count":11944,
			"type":"VEC2"
		},
		{
			"bufferView":7,
			"componentType":5123,
			"count":35256,
			"type":"SCALAR"
		},
		{
			"bufferView":8,
			"componentType":5126,
			"count":224,
			"max":[
				0.36956536769866943,
				0.01086960919201374,
				-0.035009801387786865
			],
			"min":[
				0.08695706725120544,
				4.4366050389044176e-08,
				-0.3176184892654419
			],
			"type":"VEC3"
		},
		{
			"bufferView":9,
			"componentType":5126,
			"count":224,
			"type":"VEC3"
		},
		{
			"bufferView":10,
			"componentType":5126,
			"count":224,
			"type":"VEC2"
		},
		{
			"bufferView":11,
			"componentType":5123,
			"count":564,
			"type":"SCALAR"
		},
		{
			"bufferView":12,
			"componentType":5126,
			"count":24,
			"max":[
				0.12423738092184067,
				0.006380016449838877,
				1.8135045766830444
			],
			"min":[
				-0.335762619972229,
				0.005920016206800938,
				1.3535045385360718
			],
			"type":"VEC3"
		},
		{
			"bufferView":13,
			"componentType":5126,
			"count":24,
			"type":"VEC3"
		},
		{
			"bufferView":14,
			"componentType":5126,
			"count":24,
			"type":"VEC2"
		},
		{
			"bufferView":15,
			"componentType":5123,
			"count":36,
			"type":"SCALAR"
		},
		{
			"bufferView":16,
			"componentType":5126,
			"count":24,
			"max":[
				0.030456364154815674,
				0.006380019243806601,
				-1.5116511583328247
			],
			"min":[
				-0.429543673992157,
				0.0059200190007686615,
				-1.9716511964797974
			],
			"type":"VEC3"
		},
		{
			"bufferView":17,
			"componentType":5126,
			"count":24,
			"type":"VEC3"
		},
		{
			"bufferView":18,
			"componentType":5126,
			"count":24,
			"type":"VEC2"
		},
		{
			"bufferView":19,
			"componentType":5123,
			"count":36,
			"type":"SCALAR"
		}
	],
	"bufferViews":[
		{
			"buffer":0,
			"byteLength":164064,
			"byteOffset":0,
			"target":34962
		},
		{
			"buffer":0,
			"byteLength":164064,
			"byteOffset":164064,
			"target":34962
		},
		{
			"buffer":0,
			"byteLength":109376,
			"byteOffset":328128,
			"target":34962
		},
		{
			"buffer":0,
			"byteLength":81312,
			"byteOffset":437504,
			"target":34963
		},
		{
			"buffer":0,
			"byteLength":143328,
			"byteOffset":518816,
			"target":34962
		},
		{
			"buffer":0,
			"byteLength":143328,
			"byteOffset":662144,
			"target":34962
		},
		{
			"buffer":0,
			"byteLength":95552,
			"byteOffset":805472,
			"target":34962
		},
		{
			"buffer":0,
			"byteLength":70512,
			"byteOffset":901024,
			"target":34963
		},
		{
			"buffer":0,
			"byteLength":2688,
			"byteOffset":971536,
			"target":34962
		},
		{
			"buffer":0,
			"byteLength":2688,
			"byteOffset":974224,
			"target":34962
		},
		{
			"buffer":0,
			"byteLength":1792,
			"byteOffset":976912,
			"target":34962
		},
		{
			"buffer":0,
			"byteLength":1128,
			"byteOffset":978704,
			"target":34963
		},
		{
			"buffer":0,
			"byteLength":288,
			"byteOffset":979832,
			"target":34962
		},
		{
			"buffer":0,
			"byteLength":288,
			"byteOffset":980120,
			"target":34962
		},
		{
			"buffer":0,
			"byteLength":192,
			"byteOffset":980408,
			"target":34962
		},
		{
			"buffer":0,
			"byteLength":72,
			"byteOffset":980600,
			"target":34963
		},
		{
			"buffer":0,
			"byteLength":288,
			"byteOffset":980672,
			"target":34962
		},
		{
			"buffer":0,
			"byteLength":288,
			"byteOffset":980960,
			"target":34962
		},
		{
			"buffer":0,
			"byteLength":192,
			"byteOffset":981248,
			"target":34962
		},
		{
			"buffer":0,
			"byteLength":72,
			"byteOffset":981440,
			"target":34963
		}
	],
	"buffers":[
		{
			"byteLength":981512,
			"uri":"yazi.bin"
		}
	]
}
