{
	"asset":{
		"generator":"Khronos glTF Blender I/O v4.2.60",
		"version":"2.0"
	},
	"scene":0,
	"scenes":[
		{
			"name":"Scene",
			"nodes":[
				0,
				1,
				2,
				3,
				4
			]
		}
	],
	"nodes":[
		{
			"mesh":0,
			"name":"Cube.101",
			"rotation":[
				0,
				1,
				0,
				9.854354880928576e-14
			],
			"scale":[
				0.7407240867614746,
				11.848663330078125,
				1.333332896232605
			]
		},
		{
			"mesh":1,
			"name":"Plane.062",
			"rotation":[
				0.2705979347229004,
				-0.6532815098762512,
				-0.6532816290855408,
				0.2705979347229004
			],
			"scale":[
				0.028264129534363747,
				0.023094622418284416,
				0.0282639991492033
			]
		},
		{
			"mesh":2,
			"name":"Cube.102",
			"rotation":[
				0,
				0,
				-0.7071068286895752,
				0.7071068286895752
			],
			"scale":[
				0.7407355308532715,
				21.225534439086914,
				1.3333334922790527
			]
		},
		{
			"mesh":3,
			"name":"Text.084",
			"rotation":[
				0.7071068286895752,
				0,
				0,
				0.7071068286895752
			],
			"scale":[
				3.00931978225708,
				1.5178192853927612,
				3.0093204975128174
			],
			"translation":[
				0,
				0,
				0.03822369873523712
			]
		},
		{
			"mesh":4,
			"name":"Simsek3.005",
			"scale":[
				0.0014100000262260437,
				0.0014100000262260437,
				0.0014100000262260437
			]
		}
	],
	"materials":[
		{
			"doubleSided":true,
			"name":"PencereSolar.008",
			"pbrMetallicRoughness":{
				"baseColorFactor":[
					0.9822452664375305,
					0.38132646679878235,
					0.0030353753827512264,
					1
				],
				"metallicFactor":0,
				"roughnessFactor":0.5
			}
		},
		{
			"doubleSided":true,
			"name":"PencereSolar.003",
			"pbrMetallicRoughness":{
				"baseColorFactor":[
					0.9822452664375305,
					0.38132646679878235,
					0.0030353753827512264,
					1
				],
				"metallicFactor":0,
				"roughnessFactor":0.5
			}
		},
		{
			"doubleSided":true,
			"name":"Material.002",
			"pbrMetallicRoughness":{
				"baseColorFactor":[
					0.7758182287216187,
					0.18116439878940582,
					0.0030353262554854155,
					1
				],
				"metallicFactor":0,
				"roughnessFactor":0.5
			}
		},
		{
			"doubleSided":true,
			"name":"PencereSolar.009",
			"pbrMetallicRoughness":{
				"baseColorFactor":[
					0.9822452664375305,
					0.38132646679878235,
					0.0030353753827512264,
					1
				],
				"metallicFactor":0,
				"roughnessFactor":0.5
			}
		}
	],
	"meshes":[
		{
			"name":"Cube.106",
			"primitives":[
				{
					"attributes":{
						"POSITION":0,
						"NORMAL":1
					},
					"indices":2,
					"material":0
				}
			]
		},
		{
			"name":"Plane.090",
			"primitives":[
				{
					"attributes":{
						"POSITION":3,
						"NORMAL":4,
						"TEXCOORD_0":5
					},
					"indices":6,
					"material":1
				}
			]
		},
		{
			"name":"Cube.107",
			"primitives":[
				{
					"attributes":{
						"POSITION":7,
						"NORMAL":8
					},
					"indices":9,
					"material":0
				}
			]
		},
		{
			"name":"Text.092",
			"primitives":[
				{
					"attributes":{
						"POSITION":10,
						"NORMAL":11,
						"TEXCOORD_0":12
					},
					"indices":13,
					"material":2
				}
			]
		},
		{
			"name":"Plane.051",
			"primitives":[
				{
					"attributes":{
						"POSITION":14,
						"NORMAL":15,
						"TEXCOORD_0":16
					},
					"indices":17,
					"material":3
				}
			]
		}
	],
	"accessors":[
		{
			"bufferView":0,
			"componentType":5126,
			"count":24,
			"max":[
				0.10646986961364746,
				-0.031484536826610565,
				-0.02078613080084324
			],
			"min":[
				0.09296951442956924,
				-0.03454214334487915,
				-0.028286317363381386
			],
			"type":"VEC3"
		},
		{
			"bufferView":1,
			"componentType":5126,
			"count":24,
			"type":"VEC3"
		},
		{
			"bufferView":2,
			"componentType":5123,
			"count":36,
			"type":"SCALAR"
		},
		{
			"bufferView":3,
			"componentType":5126,
			"count":22,
			"max":[
				8.62418270111084,
				1.5893700122833252,
				-11.604171752929688
			],
			"min":[
				7.624183177947998,
				1.2429687976837158,
				-12.604171752929688
			],
			"type":"VEC3"
		},
		{
			"bufferView":4,
			"componentType":5126,
			"count":22,
			"type":"VEC3"
		},
		{
			"bufferView":5,
			"componentType":5126,
			"count":22,
			"type":"VEC2"
		},
		{
			"bufferView":6,
			"componentType":5123,
			"count":36,
			"type":"SCALAR"
		},
		{
			"bufferView":7,
			"componentType":5126,
			"count":24,
			"max":[
				0.5525295734405518,
				0.003747452050447464,
				0.028286494314670563
			],
			"min":[
				0.5390294790267944,
				-0.003244418650865555,
				0.020786497741937637
			],
			"type":"VEC3"
		},
		{
			"bufferView":8,
			"componentType":5126,
			"count":24,
			"type":"VEC3"
		},
		{
			"bufferView":9,
			"componentType":5123,
			"count":36,
			"type":"SCALAR"
		},
		{
			"bufferView":10,
			"componentType":5126,
			"count":10759,
			"max":[
				0.09429958462715149,
				0.0010000000474974513,
				0.15230311453342438
			],
			"min":[
				0.04010786488652229,
				-0.0010000000474974513,
				0.13096582889556885
			],
			"type":"VEC3"
		},
		{
			"bufferView":11,
			"componentType":5126,
			"count":10759,
			"type":"VEC3"
		},
		{
			"bufferView":12,
			"componentType":5126,
			"count":10759,
			"type":"VEC2"
		},
		{
			"bufferView":13,
			"componentType":5123,
			"count":31884,
			"type":"SCALAR"
		},
		{
			"bufferView":14,
			"componentType":5126,
			"count":52,
			"max":[
				-215.84085083007812,
				-259.8730773925781,
				11.956602096557617
			],
			"min":[
				-215.8629150390625,
				-259.9128112792969,
				11.948992729187012
			],
			"type":"VEC3"
		},
		{
			"bufferView":15,
			"componentType":5126,
			"count":52,
			"type":"VEC3"
		},
		{
			"bufferView":16,
			"componentType":5126,
			"count":52,
			"type":"VEC2"
		},
		{
			"bufferView":17,
			"componentType":5123,
			"count":96,
			"type":"SCALAR"
		}
	],
	"bufferViews":[
		{
			"buffer":0,
			"byteLength":288,
			"byteOffset":0,
			"target":34962
		},
		{
			"buffer":0,
			"byteLength":288,
			"byteOffset":288,
			"target":34962
		},
		{
			"buffer":0,
			"byteLength":72,
			"byteOffset":576,
			"target":34963
		},
		{
			"buffer":0,
			"byteLength":264,
			"byteOffset":648,
			"target":34962
		},
		{
			"buffer":0,
			"byteLength":264,
			"byteOffset":912,
			"target":34962
		},
		{
			"buffer":0,
			"byteLength":176,
			"byteOffset":1176,
			"target":34962
		},
		{
			"buffer":0,
			"byteLength":72,
			"byteOffset":1352,
			"target":34963
		},
		{
			"buffer":0,
			"byteLength":288,
			"byteOffset":1424,
			"target":34962
		},
		{
			"buffer":0,
			"byteLength":288,
			"byteOffset":1712,
			"target":34962
		},
		{
			"buffer":0,
			"byteLength":72,
			"byteOffset":2000,
			"target":34963
		},
		{
			"buffer":0,
			"byteLength":129108,
			"byteOffset":2072,
			"target":34962
		},
		{
			"buffer":0,
			"byteLength":129108,
			"byteOffset":131180,
			"target":34962
		},
		{
			"buffer":0,
			"byteLength":86072,
			"byteOffset":260288,
			"target":34962
		},
		{
			"buffer":0,
			"byteLength":63768,
			"byteOffset":346360,
			"target":34963
		},
		{
			"buffer":0,
			"byteLength":624,
			"byteOffset":410128,
			"target":34962
		},
		{
			"buffer":0,
			"byteLength":624,
			"byteOffset":410752,
			"target":34962
		},
		{
			"buffer":0,
			"byteLength":416,
			"byteOffset":411376,
			"target":34962
		},
		{
			"buffer":0,
			"byteLength":192,
			"byteOffset":411792,
			"target":34963
		}
	],
	"buffers":[
		{
			"byteLength":411984,
			"uri":"yazison.bin"
		}
	]
}
