{
	"asset":{
		"generator":"Khronos glTF Blender I/O v4.2.60",
		"version":"2.0"
	},
	"scene":0,
	"scenes":[
		{
			"name":"Scene",
			"nodes":[
				0,
				1,
				2
			]
		}
	],
	"nodes":[
		{
			"mesh":0,
			"name":"Building_051.010"
		},
		{
			"mesh":1,
			"name":"Building_051.014"
		},
		{
			"mesh":2,
			"name":"Building_051.015"
		}
	],
	"materials":[
		{
			"doubleSided":true,
			"name":"BinaGrid.001",
			"pbrMetallicRoughness":{
				"baseColorFactor":[
					0.2874388098716736,
					0.3371638357639313,
					0.4178852438926697,
					1
				],
				"metallicFactor":0,
				"roughnessFactor":0.5
			}
		},
		{
			"doubleSided":true,
			"name":"PencereGrid",
			"pbrMetallicRoughness":{
				"baseColorFactor":[
					0.1499587893486023,
					0.17464761435985565,
					0.2122308313846588,
					1
				],
				"metallicFactor":0,
				"roughnessFactor":0.699999988079071
			}
		}
	],
	"meshes":[
		{
			"name":"Building_051_Mesh.024",
			"primitives":[
				{
					"attributes":{
						"POSITION":0,
						"NORMAL":1
					},
					"indices":2,
					"material":0
				}
			]
		},
		{
			"name":"Building_051_Mesh.025",
			"primitives":[
				{
					"attributes":{
						"POSITION":3,
						"NORMAL":4
					},
					"indices":5,
					"material":1
				}
			]
		},
		{
			"name":"Building_051_Mesh.027",
			"primitives":[
				{
					"attributes":{
						"POSITION":6,
						"NORMAL":7
					},
					"indices":8,
					"material":1
				}
			]
		}
	],
	"accessors":[
		{
			"bufferView":0,
			"componentType":5126,
			"count":879,
			"max":[
				-0.013587027788162231,
				-0.29347819089889526,
				0.05434776097536087
			],
			"min":[
				-0.06250002980232239,
				-0.3532607853412628,
				-5.960464477539063e-08
			],
			"type":"VEC3"
		},
		{
			"bufferView":1,
			"componentType":5126,
			"count":879,
			"type":"VEC3"
		},
		{
			"bufferView":2,
			"componentType":5123,
			"count":2829,
			"type":"SCALAR"
		},
		{
			"bufferView":3,
			"componentType":5126,
			"count":63,
			"max":[
				-0.018478363752365112,
				-0.3065216839313507,
				0.05217385292053223
			],
			"min":[
				-0.05760875344276428,
				-0.34565213322639465,
				0.05217385292053223
			],
			"type":"VEC3"
		},
		{
			"bufferView":4,
			"componentType":5126,
			"count":63,
			"type":"VEC3"
		},
		{
			"bufferView":5,
			"componentType":5123,
			"count":93,
			"type":"SCALAR"
		},
		{
			"bufferView":6,
			"componentType":5126,
			"count":4,
			"max":[
				-0.018478333950042725,
				-0.33913034200668335,
				0.05217385292053223
			],
			"min":[
				-0.02500009536743164,
				-0.3532608151435852,
				0.05217385292053223
			],
			"type":"VEC3"
		},
		{
			"bufferView":7,
			"componentType":5126,
			"count":4,
			"type":"VEC3"
		},
		{
			"bufferView":8,
			"componentType":5123,
			"count":6,
			"type":"SCALAR"
		}
	],
	"bufferViews":[
		{
			"buffer":0,
			"byteLength":10548,
			"byteOffset":0,
			"target":34962
		},
		{
			"buffer":0,
			"byteLength":10548,
			"byteOffset":10548,
			"target":34962
		},
		{
			"buffer":0,
			"byteLength":5658,
			"byteOffset":21096,
			"target":34963
		},
		{
			"buffer":0,
			"byteLength":756,
			"byteOffset":26756,
			"target":34962
		},
		{
			"buffer":0,
			"byteLength":756,
			"byteOffset":27512,
			"target":34962
		},
		{
			"buffer":0,
			"byteLength":186,
			"byteOffset":28268,
			"target":34963
		},
		{
			"buffer":0,
			"byteLength":48,
			"byteOffset":28456,
			"target":34962
		},
		{
			"buffer":0,
			"byteLength":48,
			"byteOffset":28504,
			"target":34962
		},
		{
			"buffer":0,
			"byteLength":12,
			"byteOffset":28552,
			"target":34963
		}
	],
	"buffers":[
		{
			"byteLength":28564,
			"uri":"binakapanacak4.bin"
		}
	]
}
