{
	"asset":{
		"generator":"Khronos glTF Blender I/O v4.2.60",
		"version":"2.0"
	},
	"scene":0,
	"scenes":[
		{
			"name":"Scene",
			"nodes":[
				0,
				1,
				2,
				3,
				4
			]
		}
	],
	"nodes":[
		{
			"mesh":0,
			"name":"Building_051.023"
		},
		{
			"mesh":1,
			"name":"Building_051_RoofCap_0.003"
		},
		{
			"mesh":2,
			"name":"Building_051_RoofCap_1.003"
		},
		{
			"mesh":3,
			"name":"Building_051.024"
		},
		{
			"mesh":4,
			"name":"Building_051.025"
		}
	],
	"materials":[
		{
			"doubleSided":true,
			"name":"BinaSolar",
			"pbrMetallicRoughness":{
				"baseColorFactor":[
					0,
					0.08021967113018036,
					0.7230553030967712,
					1
				],
				"metallicFactor":0,
				"roughnessFactor":0.699999988079071
			}
		},
		{
			"doubleSided":true,
			"name":"Mat_Roof_Cap",
			"pbrMetallicRoughness":{
				"baseColorFactor":[
					0.9822452664375305,
					0.38132646679878235,
					0.0030353753827512264,
					1
				],
				"metallicFactor":0,
				"roughnessFactor":0.699999988079071
			}
		},
		{
			"doubleSided":true,
			"name":"PencereSolarKapal\u0131",
			"pbrMetallicRoughness":{
				"baseColorFactor":[
					0,
					0.04817177355289459,
					0.3185468912124634,
					1
				],
				"metallicFactor":0,
				"roughnessFactor":0.699999988079071
			}
		}
	],
	"meshes":[
		{
			"name":"Building_051_Mesh.018",
			"primitives":[
				{
					"attributes":{
						"POSITION":0,
						"NORMAL":1
					},
					"indices":2,
					"material":0
				}
			]
		},
		{
			"name":"Building_051_RoofCap_0_Mesh.006",
			"primitives":[
				{
					"attributes":{
						"POSITION":3,
						"NORMAL":4
					},
					"indices":5,
					"material":1
				}
			]
		},
		{
			"name":"Building_051_RoofCap_1_Mesh.006",
			"primitives":[
				{
					"attributes":{
						"POSITION":6,
						"NORMAL":7
					},
					"indices":8,
					"material":1
				}
			]
		},
		{
			"name":"Building_051_Mesh.019",
			"primitives":[
				{
					"attributes":{
						"POSITION":9,
						"NORMAL":10
					},
					"indices":11,
					"material":2
				}
			]
		},
		{
			"name":"Building_051_Mesh.020",
			"primitives":[
				{
					"attributes":{
						"POSITION":12,
						"NORMAL":13
					},
					"indices":14,
					"material":2
				}
			]
		}
	],
	"accessors":[
		{
			"bufferView":0,
			"componentType":5126,
			"count":879,
			"max":[
				-0.013587027788162231,
				-0.29347819089889526,
				0.05434776097536087
			],
			"min":[
				-0.06250002980232239,
				-0.3532607853412628,
				-5.960464477539063e-08
			],
			"type":"VEC3"
		},
		{
			"bufferView":1,
			"componentType":5126,
			"count":879,
			"type":"VEC3"
		},
		{
			"bufferView":2,
			"componentType":5123,
			"count":2829,
			"type":"SCALAR"
		},
		{
			"bufferView":3,
			"componentType":5126,
			"count":24,
			"max":[
				-0.02128949761390686,
				-0.2918425500392914,
				0.05213770270347595
			],
			"min":[
				-0.05063733458518982,
				-0.29917386174201965,
				0.0298912450671196
			],
			"type":"VEC3"
		},
		{
			"bufferView":4,
			"componentType":5126,
			"count":24,
			"type":"VEC3"
		},
		{
			"bufferView":5,
			"componentType":5123,
			"count":36,
			"type":"SCALAR"
		},
		{
			"bufferView":6,
			"componentType":5126,
			"count":24,
			"max":[
				-0.015781313180923462,
				-0.29323387145996094,
				0.01902167685329914
			],
			"min":[
				-0.05491176247596741,
				-0.2979564368724823,
				0.007644781842827797
			],
			"type":"VEC3"
		},
		{
			"bufferView":7,
			"componentType":5126,
			"count":24,
			"type":"VEC3"
		},
		{
			"bufferView":8,
			"componentType":5123,
			"count":36,
			"type":"SCALAR"
		},
		{
			"bufferView":9,
			"componentType":5126,
			"count":63,
			"max":[
				-0.018478363752365112,
				-0.3065216839313507,
				0.05217385292053223
			],
			"min":[
				-0.05760875344276428,
				-0.34565213322639465,
				0.05217385292053223
			],
			"type":"VEC3"
		},
		{
			"bufferView":10,
			"componentType":5126,
			"count":63,
			"type":"VEC3"
		},
		{
			"bufferView":11,
			"componentType":5123,
			"count":93,
			"type":"SCALAR"
		},
		{
			"bufferView":12,
			"componentType":5126,
			"count":4,
			"max":[
				-0.018478333950042725,
				-0.33913034200668335,
				0.05217385292053223
			],
			"min":[
				-0.02500009536743164,
				-0.3532608151435852,
				0.05217385292053223
			],
			"type":"VEC3"
		},
		{
			"bufferView":13,
			"componentType":5126,
			"count":4,
			"type":"VEC3"
		},
		{
			"bufferView":14,
			"componentType":5123,
			"count":6,
			"type":"SCALAR"
		}
	],
	"bufferViews":[
		{
			"buffer":0,
			"byteLength":10548,
			"byteOffset":0,
			"target":34962
		},
		{
			"buffer":0,
			"byteLength":10548,
			"byteOffset":10548,
			"target":34962
		},
		{
			"buffer":0,
			"byteLength":5658,
			"byteOffset":21096,
			"target":34963
		},
		{
			"buffer":0,
			"byteLength":288,
			"byteOffset":26756,
			"target":34962
		},
		{
			"buffer":0,
			"byteLength":288,
			"byteOffset":27044,
			"target":34962
		},
		{
			"buffer":0,
			"byteLength":72,
			"byteOffset":27332,
			"target":34963
		},
		{
			"buffer":0,
			"byteLength":288,
			"byteOffset":27404,
			"target":34962
		},
		{
			"buffer":0,
			"byteLength":288,
			"byteOffset":27692,
			"target":34962
		},
		{
			"buffer":0,
			"byteLength":72,
			"byteOffset":27980,
			"target":34963
		},
		{
			"buffer":0,
			"byteLength":756,
			"byteOffset":28052,
			"target":34962
		},
		{
			"buffer":0,
			"byteLength":756,
			"byteOffset":28808,
			"target":34962
		},
		{
			"buffer":0,
			"byteLength":186,
			"byteOffset":29564,
			"target":34963
		},
		{
			"buffer":0,
			"byteLength":48,
			"byteOffset":29752,
			"target":34962
		},
		{
			"buffer":0,
			"byteLength":48,
			"byteOffset":29800,
			"target":34962
		},
		{
			"buffer":0,
			"byteLength":12,
			"byteOffset":29848,
			"target":34963
		}
	],
	"buffers":[
		{
			"byteLength":29860,
			"uri":"binaacilacak4.bin"
		}
	]
}
