{
	"asset":{
		"generator":"Khronos glTF Blender I/O v4.2.60",
		"version":"2.0"
	},
	"scene":0,
	"scenes":[
		{
			"name":"Scene",
			"nodes":[
				0,
				1,
				2,
				3,
				4
			]
		}
	],
	"nodes":[
		{
			"mesh":0,
			"name":"Building_056.023"
		},
		{
			"mesh":1,
			"name":"Building_056_RoofCap_0.003"
		},
		{
			"mesh":2,
			"name":"Building_056_RoofCap_1.003"
		},
		{
			"mesh":3,
			"name":"Building_056.024"
		},
		{
			"mesh":4,
			"name":"Building_056.025"
		}
	],
	"materials":[
		{
			"doubleSided":true,
			"name":"BinaSolar",
			"pbrMetallicRoughness":{
				"baseColorFactor":[
					0,
					0.08021967113018036,
					0.7230553030967712,
					1
				],
				"metallicFactor":0,
				"roughnessFactor":0.699999988079071
			}
		},
		{
			"doubleSided":true,
			"name":"Mat_Roof_Cap",
			"pbrMetallicRoughness":{
				"baseColorFactor":[
					0.9822452664375305,
					0.38132646679878235,
					0.0030353753827512264,
					1
				],
				"metallicFactor":0,
				"roughnessFactor":0.699999988079071
			}
		},
		{
			"doubleSided":true,
			"name":"PencereSolarKapal\u0131",
			"pbrMetallicRoughness":{
				"baseColorFactor":[
					0,
					0.04817177355289459,
					0.3185468912124634,
					1
				],
				"metallicFactor":0,
				"roughnessFactor":0.699999988079071
			}
		}
	],
	"meshes":[
		{
			"name":"Building_056_Mesh.018",
			"primitives":[
				{
					"attributes":{
						"POSITION":0,
						"NORMAL":1
					},
					"indices":2,
					"material":0
				}
			]
		},
		{
			"name":"Building_056_RoofCap_0_Mesh.006",
			"primitives":[
				{
					"attributes":{
						"POSITION":3,
						"NORMAL":4
					},
					"indices":5,
					"material":1
				}
			]
		},
		{
			"name":"Building_056_RoofCap_1_Mesh.006",
			"primitives":[
				{
					"attributes":{
						"POSITION":6,
						"NORMAL":7
					},
					"indices":8,
					"material":1
				}
			]
		},
		{
			"name":"Building_056_Mesh.019",
			"primitives":[
				{
					"attributes":{
						"POSITION":9,
						"NORMAL":10
					},
					"indices":11,
					"material":2
				}
			]
		},
		{
			"name":"Building_056_Mesh.020",
			"primitives":[
				{
					"attributes":{
						"POSITION":12,
						"NORMAL":13
					},
					"indices":14,
					"material":2
				}
			]
		}
	],
	"accessors":[
		{
			"bufferView":0,
			"componentType":5126,
			"count":857,
			"max":[
				0.06249985098838806,
				-0.28913044929504395,
				0.04347819834947586
			],
			"min":[
				0.013586848974227905,
				-0.3532608151435852,
				-6.332993507385254e-08
			],
			"type":"VEC3"
		},
		{
			"bufferView":1,
			"componentType":5126,
			"count":857,
			"type":"VEC3"
		},
		{
			"bufferView":2,
			"componentType":5123,
			"count":2736,
			"type":"SCALAR"
		},
		{
			"bufferView":3,
			"componentType":5126,
			"count":24,
			"max":[
				0.05846086144447327,
				-0.28922945261001587,
				0.04010257124900818
			],
			"min":[
				0.01933041214942932,
				-0.2976956367492676,
				0.026086894795298576
			],
			"type":"VEC3"
		},
		{
			"bufferView":4,
			"componentType":5126,
			"count":24,
			"type":"VEC3"
		},
		{
			"bufferView":5,
			"componentType":5123,
			"count":36,
			"type":"SCALAR"
		},
		{
			"bufferView":6,
			"componentType":5126,
			"count":24,
			"max":[
				0.06075289845466614,
				-0.2880990505218506,
				0.019565153867006302
			],
			"min":[
				0.021622449159622192,
				-0.29873913526535034,
				0.0012016482651233673
			],
			"type":"VEC3"
		},
		{
			"bufferView":7,
			"componentType":5126,
			"count":24,
			"type":"VEC3"
		},
		{
			"bufferView":8,
			"componentType":5123,
			"count":36,
			"type":"SCALAR"
		},
		{
			"bufferView":9,
			"componentType":5126,
			"count":56,
			"max":[
				0.057608574628829956,
				-0.3065217137336731,
				0.04130428284406662
			],
			"min":[
				0.01847812533378601,
				-0.34565216302871704,
				0.04130428284406662
			],
			"type":"VEC3"
		},
		{
			"bufferView":10,
			"componentType":5126,
			"count":56,
			"type":"VEC3"
		},
		{
			"bufferView":11,
			"componentType":5123,
			"count":84,
			"type":"SCALAR"
		},
		{
			"bufferView":12,
			"componentType":5126,
			"count":4,
			"max":[
				0.046739012002944946,
				-0.3391304016113281,
				0.04130428284406662
			],
			"min":[
				0.02934768795967102,
				-0.3532608151435852,
				0.04130428284406662
			],
			"type":"VEC3"
		},
		{
			"bufferView":13,
			"componentType":5126,
			"count":4,
			"type":"VEC3"
		},
		{
			"bufferView":14,
			"componentType":5123,
			"count":6,
			"type":"SCALAR"
		}
	],
	"bufferViews":[
		{
			"buffer":0,
			"byteLength":10284,
			"byteOffset":0,
			"target":34962
		},
		{
			"buffer":0,
			"byteLength":10284,
			"byteOffset":10284,
			"target":34962
		},
		{
			"buffer":0,
			"byteLength":5472,
			"byteOffset":20568,
			"target":34963
		},
		{
			"buffer":0,
			"byteLength":288,
			"byteOffset":26040,
			"target":34962
		},
		{
			"buffer":0,
			"byteLength":288,
			"byteOffset":26328,
			"target":34962
		},
		{
			"buffer":0,
			"byteLength":72,
			"byteOffset":26616,
			"target":34963
		},
		{
			"buffer":0,
			"byteLength":288,
			"byteOffset":26688,
			"target":34962
		},
		{
			"buffer":0,
			"byteLength":288,
			"byteOffset":26976,
			"target":34962
		},
		{
			"buffer":0,
			"byteLength":72,
			"byteOffset":27264,
			"target":34963
		},
		{
			"buffer":0,
			"byteLength":672,
			"byteOffset":27336,
			"target":34962
		},
		{
			"buffer":0,
			"byteLength":672,
			"byteOffset":28008,
			"target":34962
		},
		{
			"buffer":0,
			"byteLength":168,
			"byteOffset":28680,
			"target":34963
		},
		{
			"buffer":0,
			"byteLength":48,
			"byteOffset":28848,
			"target":34962
		},
		{
			"buffer":0,
			"byteLength":48,
			"byteOffset":28896,
			"target":34962
		},
		{
			"buffer":0,
			"byteLength":12,
			"byteOffset":28944,
			"target":34963
		}
	],
	"buffers":[
		{
			"byteLength":28956,
			"uri":"binaacilacak5.bin"
		}
	]
}
