{
	"asset":{
		"generator":"Khronos glTF Blender I/O v4.2.60",
		"version":"2.0"
	},
	"scene":0,
	"scenes":[
		{
			"name":"Scene",
			"nodes":[
				0,
				1,
				2,
				3,
				4,
				5
			]
		}
	],
	"nodes":[
		{
			"mesh":0,
			"name":"Building_042.023"
		},
		{
			"mesh":1,
			"name":"Building_042_RoofCap_0.003"
		},
		{
			"mesh":2,
			"name":"Building_042_RoofCap_1.003"
		},
		{
			"mesh":3,
			"name":"Building_042.024"
		},
		{
			"mesh":4,
			"name":"Building_042.025"
		},
		{
			"mesh":5,
			"name":"Simsek3.005",
			"scale":[
				0.0014100000262260437,
				0.0014100000262260437,
				0.0014100000262260437
			]
		}
	],
	"materials":[
		{
			"doubleSided":true,
			"name":"BinaSolar",
			"pbrMetallicRoughness":{
				"baseColorFactor":[
					0,
					0.08021967113018036,
					0.7230553030967712,
					1
				],
				"metallicFactor":0,
				"roughnessFactor":0.699999988079071
			}
		},
		{
			"doubleSided":true,
			"name":"Mat_Roof_Cap",
			"pbrMetallicRoughness":{
				"baseColorFactor":[
					0.9822452664375305,
					0.38132646679878235,
					0.0030353753827512264,
					1
				],
				"metallicFactor":0,
				"roughnessFactor":0.699999988079071
			}
		},
		{
			"doubleSided":true,
			"name":"PencereSolarKapal\u0131",
			"pbrMetallicRoughness":{
				"baseColorFactor":[
					0,
					0.04817177355289459,
					0.3185468912124634,
					1
				],
				"metallicFactor":0,
				"roughnessFactor":0.699999988079071
			}
		},
		{
			"doubleSided":true,
			"name":"PencereSolar.009",
			"pbrMetallicRoughness":{
				"baseColorFactor":[
					0.9822452664375305,
					0.38132646679878235,
					0.0030353753827512264,
					1
				],
				"metallicFactor":0,
				"roughnessFactor":0.5
			}
		}
	],
	"meshes":[
		{
			"name":"Building_042_Mesh.018",
			"primitives":[
				{
					"attributes":{
						"POSITION":0,
						"NORMAL":1
					},
					"indices":2,
					"material":0
				}
			]
		},
		{
			"name":"Building_042_RoofCap_0_Mesh.006",
			"primitives":[
				{
					"attributes":{
						"POSITION":3,
						"NORMAL":4
					},
					"indices":5,
					"material":1
				}
			]
		},
		{
			"name":"Building_042_RoofCap_1_Mesh.006",
			"primitives":[
				{
					"attributes":{
						"POSITION":6,
						"NORMAL":7
					},
					"indices":8,
					"material":1
				}
			]
		},
		{
			"name":"Building_042_Mesh.019",
			"primitives":[
				{
					"attributes":{
						"POSITION":9,
						"NORMAL":10
					},
					"indices":11,
					"material":2
				}
			]
		},
		{
			"name":"Building_042_Mesh.020",
			"primitives":[
				{
					"attributes":{
						"POSITION":12,
						"NORMAL":13
					},
					"indices":14,
					"material":2
				}
			]
		},
		{
			"name":"Plane.051",
			"primitives":[
				{
					"attributes":{
						"POSITION":15,
						"NORMAL":16,
						"TEXCOORD_0":17
					},
					"indices":18,
					"material":3
				}
			]
		}
	],
	"accessors":[
		{
			"bufferView":0,
			"componentType":5126,
			"count":515,
			"max":[
				-0.08967399597167969,
				-0.3054347038269043,
				0.05434782803058624
			],
			"min":[
				-0.13858702778816223,
				-0.3532608151435852,
				3.725290298461914e-09
			],
			"type":"VEC3"
		},
		{
			"bufferView":1,
			"componentType":5126,
			"count":515,
			"type":"VEC3"
		},
		{
			"bufferView":2,
			"componentType":5123,
			"count":1434,
			"type":"SCALAR"
		},
		{
			"bufferView":3,
			"componentType":5126,
			"count":24,
			"max":[
				-0.09718874096870422,
				-0.30545979738235474,
				0.04972041770815849
			],
			"min":[
				-0.12653657793998718,
				-0.3139999508857727,
				0.03260870277881622
			],
			"type":"VEC3"
		},
		{
			"bufferView":4,
			"componentType":5126,
			"count":24,
			"type":"VEC3"
		},
		{
			"bufferView":5,
			"componentType":5123,
			"count":36,
			"type":"SCALAR"
		},
		{
			"bufferView":6,
			"componentType":5126,
			"count":24,
			"max":[
				-0.10014387965202332,
				-0.30545979738235474,
				0.021739136427640915
			],
			"min":[
				-0.12949171662330627,
				-0.3139999508857727,
				0.0046274177730083466
			],
			"type":"VEC3"
		},
		{
			"bufferView":7,
			"componentType":5126,
			"count":24,
			"type":"VEC3"
		},
		{
			"bufferView":8,
			"componentType":5123,
			"count":36,
			"type":"SCALAR"
		},
		{
			"bufferView":9,
			"componentType":5126,
			"count":28,
			"max":[
				-0.09456530213356018,
				-0.322826087474823,
				0.0521739199757576
			],
			"min":[
				-0.13369575142860413,
				-0.34999996423721313,
				0.0521739199757576
			],
			"type":"VEC3"
		},
		{
			"bufferView":10,
			"componentType":5126,
			"count":28,
			"type":"VEC3"
		},
		{
			"bufferView":11,
			"componentType":5123,
			"count":42,
			"type":"SCALAR"
		},
		{
			"bufferView":12,
			"componentType":5126,
			"count":4,
			"max":[
				-0.10543489456176758,
				-0.3391304016113281,
				0.0521739199757576
			],
			"min":[
				-0.12282615900039673,
				-0.3532608151435852,
				0.0521739199757576
			],
			"type":"VEC3"
		},
		{
			"bufferView":13,
			"componentType":5126,
			"count":4,
			"type":"VEC3"
		},
		{
			"bufferView":14,
			"componentType":5123,
			"count":6,
			"type":"SCALAR"
		},
		{
			"bufferView":15,
			"componentType":5126,
			"count":54,
			"max":[
				-215.84085083007812,
				-259.87310791015625,
				11.956602096557617
			],
			"min":[
				-215.8629150390625,
				-259.912841796875,
				11.948992729187012
			],
			"type":"VEC3"
		},
		{
			"bufferView":16,
			"componentType":5126,
			"count":54,
			"type":"VEC3"
		},
		{
			"bufferView":17,
			"componentType":5126,
			"count":54,
			"type":"VEC2"
		},
		{
			"bufferView":18,
			"componentType":5123,
			"count":96,
			"type":"SCALAR"
		}
	],
	"bufferViews":[
		{
			"buffer":0,
			"byteLength":6180,
			"byteOffset":0,
			"target":34962
		},
		{
			"buffer":0,
			"byteLength":6180,
			"byteOffset":6180,
			"target":34962
		},
		{
			"buffer":0,
			"byteLength":2868,
			"byteOffset":12360,
			"target":34963
		},
		{
			"buffer":0,
			"byteLength":288,
			"byteOffset":15228,
			"target":34962
		},
		{
			"buffer":0,
			"byteLength":288,
			"byteOffset":15516,
			"target":34962
		},
		{
			"buffer":0,
			"byteLength":72,
			"byteOffset":15804,
			"target":34963
		},
		{
			"buffer":0,
			"byteLength":288,
			"byteOffset":15876,
			"target":34962
		},
		{
			"buffer":0,
			"byteLength":288,
			"byteOffset":16164,
			"target":34962
		},
		{
			"buffer":0,
			"byteLength":72,
			"byteOffset":16452,
			"target":34963
		},
		{
			"buffer":0,
			"byteLength":336,
			"byteOffset":16524,
			"target":34962
		},
		{
			"buffer":0,
			"byteLength":336,
			"byteOffset":16860,
			"target":34962
		},
		{
			"buffer":0,
			"byteLength":84,
			"byteOffset":17196,
			"target":34963
		},
		{
			"buffer":0,
			"byteLength":48,
			"byteOffset":17280,
			"target":34962
		},
		{
			"buffer":0,
			"byteLength":48,
			"byteOffset":17328,
			"target":34962
		},
		{
			"buffer":0,
			"byteLength":12,
			"byteOffset":17376,
			"target":34963
		},
		{
			"buffer":0,
			"byteLength":648,
			"byteOffset":17388,
			"target":34962
		},
		{
			"buffer":0,
			"byteLength":648,
			"byteOffset":18036,
			"target":34962
		},
		{
			"buffer":0,
			"byteLength":432,
			"byteOffset":18684,
			"target":34962
		},
		{
			"buffer":0,
			"byteLength":192,
			"byteOffset":19116,
			"target":34963
		}
	],
	"buffers":[
		{
			"byteLength":19308,
			"uri":"binaacilacak3.bin"
		}
	]
}
