{
	"asset":{
		"generator":"Khronos glTF Blender I/O v4.2.60",
		"version":"2.0"
	},
	"scene":0,
	"scenes":[
		{
			"name":"Scene",
			"nodes":[
				0
			]
		}
	],
	"nodes":[
		{
			"mesh":0,
			"name":"Text.065",
			"rotation":[
				0.7071068286895752,
				0,
				0,
				0.7071068286895752
			],
			"scale":[
				4.310130596160889,
				2.17391300201416,
				4.310131549835205
			],
			"translation":[
				0,
				0,
				0.01604345254600048
			]
		}
	],
	"materials":[
		{
			"doubleSided":true,
			"name":"Material.002",
			"pbrMetallicRoughness":{
				"baseColorFactor":[
					0.7758182287216187,
					0.18116439878940582,
					0.0030353262554854155,
					1
				],
				"metallicFactor":0,
				"roughnessFactor":0.5
			}
		}
	],
	"meshes":[
		{
			"name":"Text.016",
			"primitives":[
				{
					"attributes":{
						"POSITION":0,
						"NORMAL":1,
						"TEXCOORD_0":2
					},
					"indices":3,
					"material":0
				}
			]
		}
	],
	"accessors":[
		{
			"bufferView":0,
			"componentType":5126,
			"count":10318,
			"max":[
				-0.006805736105889082,
				0.0010000000474974513,
				-0.02738683857023716
			],
			"min":[
				-0.10208188742399216,
				-0.0010000000474974513,
				-0.03747512400150299
			],
			"type":"VEC3"
		},
		{
			"bufferView":1,
			"componentType":5126,
			"count":10318,
			"type":"VEC3"
		},
		{
			"bufferView":2,
			"componentType":5126,
			"count":10318,
			"type":"VEC2"
		},
		{
			"bufferView":3,
			"componentType":5123,
			"count":30492,
			"type":"SCALAR"
		}
	],
	"bufferViews":[
		{
			"buffer":0,
			"byteLength":123816,
			"byteOffset":0,
			"target":34962
		},
		{
			"buffer":0,
			"byteLength":123816,
			"byteOffset":123816,
			"target":34962
		},
		{
			"buffer":0,
			"byteLength":82544,
			"byteOffset":247632,
			"target":34962
		},
		{
			"buffer":0,
			"byteLength":60984,
			"byteOffset":330176,
			"target":34963
		}
	],
	"buffers":[
		{
			"byteLength":391160,
			"uri":"yazi1.bin"
		}
	]
}
