{
	"asset":{
		"generator":"Khronos glTF Blender I/O v4.2.60",
		"version":"2.0"
	},
	"scene":0,
	"scenes":[
		{
			"name":"Scene",
			"nodes":[
				0,
				1,
				2
			]
		}
	],
	"nodes":[
		{
			"mesh":0,
			"name":"simsekyazi.003",
			"rotation":[
				0.7071068286895752,
				0,
				0,
				0.7071068286895752
			],
			"scale":[
				4.513979911804199,
				2.276728630065918,
				4.513980865478516
			],
			"translation":[
				0,
				0,
				0.012805881910026073
			]
		},
		{
			"mesh":1,
			"name":"simsekyazi.004",
			"rotation":[
				0.7071068286895752,
				0,
				0,
				0.7071068286895752
			],
			"scale":[
				4.513979911804199,
				2.276728630065918,
				4.513980865478516
			],
			"translation":[
				0,
				0,
				0.012805881910026073
			]
		},
		{
			"mesh":2,
			"name":"simsekyazi.005",
			"rotation":[
				0.7071068286895752,
				0,
				0,
				0.7071068286895752
			],
			"scale":[
				4.513979911804199,
				2.276728630065918,
				4.513980865478516
			],
			"translation":[
				0,
				0,
				0.012805881910026073
			]
		}
	],
	"materials":[
		{
			"doubleSided":true,
			"name":"PencereSolar.005",
			"pbrMetallicRoughness":{
				"baseColorFactor":[
					0.9822452664375305,
					0.38132646679878235,
					0.0030353753827512264,
					1
				],
				"metallicFactor":0,
				"roughnessFactor":0.5
			}
		}
	],
	"meshes":[
		{
			"name":"Text.008",
			"primitives":[
				{
					"attributes":{
						"POSITION":0,
						"NORMAL":1,
						"TEXCOORD_0":2
					},
					"indices":3,
					"material":0
				}
			]
		},
		{
			"name":"Text.009",
			"primitives":[
				{
					"attributes":{
						"POSITION":4,
						"NORMAL":5,
						"TEXCOORD_0":6
					},
					"indices":7,
					"material":0
				}
			]
		},
		{
			"name":"Text.010",
			"primitives":[
				{
					"attributes":{
						"POSITION":8,
						"NORMAL":9,
						"TEXCOORD_0":10
					},
					"indices":11,
					"material":0
				}
			]
		}
	],
	"accessors":[
		{
			"bufferView":0,
			"componentType":5126,
			"count":2300,
			"max":[
				-0.06484884768724442,
				0.0010000000474974513,
				-0.06473343819379807
			],
			"min":[
				-0.085550457239151,
				-0.0010000000474974513,
				-0.07169023156166077
			],
			"type":"VEC3"
		},
		{
			"bufferView":1,
			"componentType":5126,
			"count":2300,
			"type":"VEC3"
		},
		{
			"bufferView":2,
			"componentType":5126,
			"count":2300,
			"type":"VEC2"
		},
		{
			"bufferView":3,
			"componentType":5123,
			"count":6804,
			"type":"SCALAR"
		},
		{
			"bufferView":4,
			"componentType":5126,
			"count":2290,
			"max":[
				-0.009635282680392265,
				0.0010000000474974513,
				-0.06473344564437866
			],
			"min":[
				-0.032399553805589676,
				-0.0010000000474974513,
				-0.07182149589061737
			],
			"type":"VEC3"
		},
		{
			"bufferView":5,
			"componentType":5126,
			"count":2290,
			"type":"VEC3"
		},
		{
			"bufferView":6,
			"componentType":5126,
			"count":2290,
			"type":"VEC2"
		},
		{
			"bufferView":7,
			"componentType":5123,
			"count":6780,
			"type":"SCALAR"
		},
		{
			"bufferView":8,
			"componentType":5126,
			"count":3526,
			"max":[
				0.042912665754556656,
				0.0010000000474974513,
				-0.06473344564437866
			],
			"min":[
				0.02157350815832615,
				-0.0010000000474974513,
				-0.07182149589061737
			],
			"type":"VEC3"
		},
		{
			"bufferView":9,
			"componentType":5126,
			"count":3526,
			"type":"VEC3"
		},
		{
			"bufferView":10,
			"componentType":5126,
			"count":3526,
			"type":"VEC2"
		},
		{
			"bufferView":11,
			"componentType":5123,
			"count":10488,
			"type":"SCALAR"
		}
	],
	"bufferViews":[
		{
			"buffer":0,
			"byteLength":27600,
			"byteOffset":0,
			"target":34962
		},
		{
			"buffer":0,
			"byteLength":27600,
			"byteOffset":27600,
			"target":34962
		},
		{
			"buffer":0,
			"byteLength":18400,
			"byteOffset":55200,
			"target":34962
		},
		{
			"buffer":0,
			"byteLength":13608,
			"byteOffset":73600,
			"target":34963
		},
		{
			"buffer":0,
			"byteLength":27480,
			"byteOffset":87208,
			"target":34962
		},
		{
			"buffer":0,
			"byteLength":27480,
			"byteOffset":114688,
			"target":34962
		},
		{
			"buffer":0,
			"byteLength":18320,
			"byteOffset":142168,
			"target":34962
		},
		{
			"buffer":0,
			"byteLength":13560,
			"byteOffset":160488,
			"target":34963
		},
		{
			"buffer":0,
			"byteLength":42312,
			"byteOffset":174048,
			"target":34962
		},
		{
			"buffer":0,
			"byteLength":42312,
			"byteOffset":216360,
			"target":34962
		},
		{
			"buffer":0,
			"byteLength":28208,
			"byteOffset":258672,
			"target":34962
		},
		{
			"buffer":0,
			"byteLength":20976,
			"byteOffset":286880,
			"target":34963
		}
	],
	"buffers":[
		{
			"byteLength":307856,
			"uri":"acyuzde.bin"
		}
	]
}
