{
	"asset":{
		"generator":"Khronos glTF Blender I/O v4.2.60",
		"version":"2.0"
	},
	"scene":0,
	"scenes":[
		{
			"name":"Scene",
			"nodes":[
				0
			]
		}
	],
	"nodes":[
		{
			"mesh":0,
			"name":"simsekyazi.010",
			"rotation":[
				0.7071068286895752,
				0,
				0,
				0.7071068286895752
			],
			"scale":[
				2.772603988647461,
				1.3984259366989136,
				2.7726047039031982
			],
			"translation":[
				0,
				0,
				0.012805838137865067
			]
		}
	],
	"materials":[
		{
			"doubleSided":true,
			"name":"PencereSolar.005",
			"pbrMetallicRoughness":{
				"baseColorFactor":[
					0.9822452664375305,
					0.38132646679878235,
					0.0030353753827512264,
					1
				],
				"metallicFactor":0,
				"roughnessFactor":0.5
			}
		}
	],
	"meshes":[
		{
			"name":"Text.005",
			"primitives":[
				{
					"attributes":{
						"POSITION":0,
						"NORMAL":1,
						"TEXCOORD_0":2
					},
					"indices":3,
					"material":0
				}
			]
		}
	],
	"accessors":[
		{
			"bufferView":0,
			"componentType":5126,
			"count":37501,
			"max":[
				0.11444468051195145,
				0.0010000000474974513,
				0.13290603458881378
			],
			"min":[
				0.015136964619159698,
				-0.0010000000474974513,
				0.09157407283782959
			],
			"type":"VEC3"
		},
		{
			"bufferView":1,
			"componentType":5126,
			"count":37501,
			"type":"VEC3"
		},
		{
			"bufferView":2,
			"componentType":5126,
			"count":37501,
			"type":"VEC2"
		},
		{
			"bufferView":3,
			"componentType":5123,
			"count":111396,
			"type":"SCALAR"
		}
	],
	"bufferViews":[
		{
			"buffer":0,
			"byteLength":450012,
			"byteOffset":0,
			"target":34962
		},
		{
			"buffer":0,
			"byteLength":450012,
			"byteOffset":450012,
			"target":34962
		},
		{
			"buffer":0,
			"byteLength":300008,
			"byteOffset":900024,
			"target":34962
		},
		{
			"buffer":0,
			"byteLength":222792,
			"byteOffset":1200032,
			"target":34963
		}
	],
	"buffers":[
		{
			"byteLength":1422824,
			"uri":"Becauseexpl.bin"
		}
	]
}
