{
	"asset":{
		"generator":"Khronos glTF Blender I/O v4.2.60",
		"version":"2.0"
	},
	"scene":0,
	"scenes":[
		{
			"name":"Scene",
			"nodes":[
				0
			]
		}
	],
	"nodes":[
		{
			"mesh":0,
			"name":"simsekyazi.009",
			"rotation":[
				0.7071068286895752,
				0,
				0,
				0.7071068286895752
			],
			"scale":[
				5.807597637176514,
				2.929194211959839,
				5.807599067687988
			],
			"translation":[
				0,
				0,
				0.012805890291929245
			]
		}
	],
	"materials":[
		{
			"doubleSided":true,
			"name":"PencereSolar.005",
			"pbrMetallicRoughness":{
				"baseColorFactor":[
					0.9822452664375305,
					0.38132646679878235,
					0.0030353753827512264,
					1
				],
				"metallicFactor":0,
				"roughnessFactor":0.5
			}
		}
	],
	"meshes":[
		{
			"name":"Text.004",
			"primitives":[
				{
					"attributes":{
						"POSITION":0,
						"NORMAL":1,
						"TEXCOORD_0":2
					},
					"indices":3,
					"material":0
				}
			]
		}
	],
	"accessors":[
		{
			"bufferView":0,
			"componentType":5126,
			"count":6302,
			"max":[
				-0.02516450360417366,
				0.0010000000474974513,
				-0.06809544563293457
			],
			"min":[
				-0.06563952565193176,
				-0.0010000000474974513,
				-0.07475221157073975
			],
			"type":"VEC3"
		},
		{
			"bufferView":1,
			"componentType":5126,
			"count":6302,
			"type":"VEC3"
		},
		{
			"bufferView":2,
			"componentType":5126,
			"count":6302,
			"type":"VEC2"
		},
		{
			"bufferView":3,
			"componentType":5123,
			"count":18792,
			"type":"SCALAR"
		}
	],
	"bufferViews":[
		{
			"buffer":0,
			"byteLength":75624,
			"byteOffset":0,
			"target":34962
		},
		{
			"buffer":0,
			"byteLength":75624,
			"byteOffset":75624,
			"target":34962
		},
		{
			"buffer":0,
			"byteLength":50416,
			"byteOffset":151248,
			"target":34962
		},
		{
			"buffer":0,
			"byteLength":37584,
			"byteOffset":201664,
			"target":34963
		}
	],
	"buffers":[
		{
			"byteLength":239248,
			"uri":"Because.bin"
		}
	]
}
