{
	"asset":{
		"generator":"Khronos glTF Blender I/O v4.2.60",
		"version":"2.0"
	},
	"scene":0,
	"scenes":[
		{
			"name":"Scene",
			"nodes":[
				0
			]
		}
	],
	"nodes":[
		{
			"mesh":0,
			"name":"simsekyazi.004",
			"rotation":[
				0.7071068286895752,
				0,
				0,
				0.7071068286895752
			],
			"scale":[
				4.513979911804199,
				2.276728630065918,
				4.513980865478516
			],
			"translation":[
				0,
				0,
				0.012805881910026073
			]
		}
	],
	"materials":[
		{
			"doubleSided":true,
			"name":"PencereSolar.005",
			"pbrMetallicRoughness":{
				"baseColorFactor":[
					0.9822452664375305,
					0.38132646679878235,
					0.0030353753827512264,
					1
				],
				"metallicFactor":0,
				"roughnessFactor":0.5
			}
		}
	],
	"meshes":[
		{
			"name":"Text.009",
			"primitives":[
				{
					"attributes":{
						"POSITION":0,
						"NORMAL":1,
						"TEXCOORD_0":2
					},
					"indices":3,
					"material":0
				}
			]
		}
	],
	"accessors":[
		{
			"bufferView":0,
			"componentType":5126,
			"count":2290,
			"max":[
				-0.009635282680392265,
				0.0010000000474974513,
				-0.06473344564437866
			],
			"min":[
				-0.032399553805589676,
				-0.0010000000474974513,
				-0.07182149589061737
			],
			"type":"VEC3"
		},
		{
			"bufferView":1,
			"componentType":5126,
			"count":2290,
			"type":"VEC3"
		},
		{
			"bufferView":2,
			"componentType":5126,
			"count":2290,
			"type":"VEC2"
		},
		{
			"bufferView":3,
			"componentType":5123,
			"count":6780,
			"type":"SCALAR"
		}
	],
	"bufferViews":[
		{
			"buffer":0,
			"byteLength":27480,
			"byteOffset":0,
			"target":34962
		},
		{
			"buffer":0,
			"byteLength":27480,
			"byteOffset":27480,
			"target":34962
		},
		{
			"buffer":0,
			"byteLength":18320,
			"byteOffset":54960,
			"target":34962
		},
		{
			"buffer":0,
			"byteLength":13560,
			"byteOffset":73280,
			"target":34963
		}
	],
	"buffers":[
		{
			"byteLength":86840,
			"uri":"Bina2yuzde.bin"
		}
	]
}
