{
	"asset":{
		"generator":"Khronos glTF Blender I/O v4.2.60",
		"version":"2.0"
	},
	"scene":0,
	"scenes":[
		{
			"name":"Scene",
			"nodes":[
				0,
				1,
				2,
				3,
				4,
				5,
				6,
				7,
				8
			]
		}
	],
	"nodes":[
		{
			"mesh":0,
			"name":"Plane.045",
			"rotation":[
				0.7071068286895752,
				0,
				0,
				0.7071068286895752
			],
			"scale":[
				0.02500000037252903,
				1,
				0.02500000037252903
			]
		},
		{
			"mesh":1,
			"name":"Plane.055",
			"rotation":[
				0.7071068286895752,
				0,
				0,
				0.7071068286895752
			],
			"scale":[
				0.02500000037252903,
				1,
				0.02500000037252903
			]
		},
		{
			"mesh":2,
			"name":"Plane.097",
			"rotation":[
				0.7071068286895752,
				0,
				0,
				0.7071068286895752
			],
			"scale":[
				0.02500000037252903,
				1,
				0.02500000037252903
			]
		},
		{
			"mesh":3,
			"name":"Plane.098",
			"rotation":[
				0.7071068286895752,
				0,
				0,
				0.7071068286895752
			],
			"scale":[
				0.02500000037252903,
				1,
				0.02500000037252903
			]
		},
		{
			"mesh":4,
			"name":"Plane.099",
			"rotation":[
				0.7071068286895752,
				0,
				0,
				0.7071068286895752
			],
			"scale":[
				0.02500000037252903,
				1,
				0.02500000037252903
			]
		},
		{
			"mesh":5,
			"name":"Plane.096",
			"rotation":[
				0.7071068286895752,
				0,
				0,
				0.7071068286895752
			],
			"scale":[
				0.02500000037252903,
				1,
				0.02500000037252903
			]
		},
		{
			"mesh":6,
			"name":"simsekyazi.006",
			"rotation":[
				0.7071068286895752,
				0,
				0,
				0.7071068286895752
			],
			"scale":[
				2.708388090133667,
				1.3660372495651245,
				2.708388566970825
			],
			"translation":[
				0,
				0,
				0.012805846519768238
			]
		},
		{
			"mesh":7,
			"name":"simsekyazi.007",
			"rotation":[
				0.7071068286895752,
				0,
				0,
				0.7071068286895752
			],
			"scale":[
				2.708388090133667,
				1.3660372495651245,
				2.708388566970825
			],
			"translation":[
				0,
				0,
				0.012805846519768238
			]
		},
		{
			"mesh":8,
			"name":"simsekyazi.008",
			"rotation":[
				0.7071068286895752,
				0,
				0,
				0.7071068286895752
			],
			"scale":[
				2.708388090133667,
				1.3660372495651245,
				2.708388566970825
			],
			"translation":[
				0,
				0,
				0.012805846519768238
			]
		}
	],
	"materials":[
		{
			"alphaMode":"BLEND",
			"doubleSided":true,
			"name":"Material.005",
			"pbrMetallicRoughness":{
				"baseColorFactor":[
					0.800000011920929,
					0.800000011920929,
					0.800000011920929,
					0.5
				],
				"metallicFactor":0,
				"roughnessFactor":0.5
			}
		},
		{
			"doubleSided":true,
			"name":"PencereSolar.005",
			"pbrMetallicRoughness":{
				"baseColorFactor":[
					0.9822452664375305,
					0.38132646679878235,
					0.0030353753827512264,
					1
				],
				"metallicFactor":0,
				"roughnessFactor":0.5
			}
		}
	],
	"meshes":[
		{
			"name":"Plane.089",
			"primitives":[
				{
					"attributes":{
						"POSITION":0,
						"NORMAL":1,
						"TEXCOORD_0":2
					},
					"indices":3,
					"material":0
				}
			]
		},
		{
			"name":"Plane.090",
			"primitives":[
				{
					"attributes":{
						"POSITION":4,
						"NORMAL":5,
						"TEXCOORD_0":6
					},
					"indices":3,
					"material":0
				}
			]
		},
		{
			"name":"Plane.117",
			"primitives":[
				{
					"attributes":{
						"POSITION":7,
						"NORMAL":8,
						"TEXCOORD_0":9
					},
					"indices":3,
					"material":0
				}
			]
		},
		{
			"name":"Plane.118",
			"primitives":[
				{
					"attributes":{
						"POSITION":10,
						"NORMAL":11,
						"TEXCOORD_0":12
					},
					"indices":3,
					"material":0
				}
			]
		},
		{
			"name":"Plane.119",
			"primitives":[
				{
					"attributes":{
						"POSITION":13,
						"NORMAL":14,
						"TEXCOORD_0":15
					},
					"indices":3,
					"material":0
				}
			]
		},
		{
			"name":"Plane.116",
			"primitives":[
				{
					"attributes":{
						"POSITION":16,
						"NORMAL":17,
						"TEXCOORD_0":18
					},
					"indices":3,
					"material":0
				}
			]
		},
		{
			"name":"Text.011",
			"primitives":[
				{
					"attributes":{
						"POSITION":19,
						"NORMAL":20,
						"TEXCOORD_0":21
					},
					"indices":22,
					"material":1
				}
			]
		},
		{
			"name":"Text.014",
			"primitives":[
				{
					"attributes":{
						"POSITION":23,
						"NORMAL":24,
						"TEXCOORD_0":25
					},
					"indices":26,
					"material":1
				}
			]
		},
		{
			"name":"Text.015",
			"primitives":[
				{
					"attributes":{
						"POSITION":27,
						"NORMAL":28,
						"TEXCOORD_0":29
					},
					"indices":30,
					"material":1
				}
			]
		}
	],
	"accessors":[
		{
			"bufferView":0,
			"componentType":5126,
			"count":4,
			"max":[
				-16.371564865112305,
				0.001999997766688466,
				-0.3441021740436554
			],
			"min":[
				-17.62834930419922,
				0.001999997766688466,
				-2.4487125873565674
			],
			"type":"VEC3"
		},
		{
			"bufferView":1,
			"componentType":5126,
			"count":4,
			"type":"VEC3"
		},
		{
			"bufferView":2,
			"componentType":5126,
			"count":4,
			"type":"VEC2"
		},
		{
			"bufferView":3,
			"componentType":5123,
			"count":6,
			"type":"SCALAR"
		},
		{
			"bufferView":4,
			"componentType":5126,
			"count":4,
			"max":[
				-16.543989181518555,
				0.0019999947398900986,
				-4.091253757476807
			],
			"min":[
				-17.80077362060547,
				0.001999993808567524,
				-5.30983829498291
			],
			"type":"VEC3"
		},
		{
			"bufferView":5,
			"componentType":5126,
			"count":4,
			"type":"VEC3"
		},
		{
			"bufferView":6,
			"componentType":5126,
			"count":4,
			"type":"VEC2"
		},
		{
			"bufferView":7,
			"componentType":5126,
			"count":4,
			"max":[
				4.094266891479492,
				0.0019999949727207422,
				-3.956555128097534
			],
			"min":[
				3.0201759338378906,
				0.0019999940413981676,
				-5.175139904022217
			],
			"type":"VEC3"
		},
		{
			"bufferView":8,
			"componentType":5126,
			"count":4,
			"type":"VEC3"
		},
		{
			"bufferView":9,
			"componentType":5126,
			"count":4,
			"type":"VEC2"
		},
		{
			"bufferView":10,
			"componentType":5126,
			"count":4,
			"max":[
				4.07108211517334,
				0.0020000010263174772,
				1.0575804710388184
			],
			"min":[
				2.9860029220581055,
				0.0019999996293336153,
				0.39395418763160706
			],
			"type":"VEC3"
		},
		{
			"bufferView":11,
			"componentType":5126,
			"count":4,
			"type":"VEC3"
		},
		{
			"bufferView":12,
			"componentType":5126,
			"count":4,
			"type":"VEC2"
		},
		{
			"bufferView":13,
			"componentType":5126,
			"count":4,
			"max":[
				4.07108211517334,
				0.002000002423301339,
				2.3972535133361816
			],
			"min":[
				2.9860029220581055,
				0.0020000010263174772,
				1.733627200126648
			],
			"type":"VEC3"
		},
		{
			"bufferView":14,
			"componentType":5126,
			"count":4,
			"type":"VEC3"
		},
		{
			"bufferView":15,
			"componentType":5126,
			"count":4,
			"type":"VEC2"
		},
		{
			"bufferView":16,
			"componentType":5126,
			"count":4,
			"max":[
				4.141382217407227,
				0.0019999979995191097,
				-0.20942144095897675
			],
			"min":[
				2.8845977783203125,
				0.0019999979995191097,
				-2.3524043560028076
			],
			"type":"VEC3"
		},
		{
			"bufferView":17,
			"componentType":5126,
			"count":4,
			"type":"VEC3"
		},
		{
			"bufferView":18,
			"componentType":5126,
			"count":4,
			"type":"VEC2"
		},
		{
			"bufferView":19,
			"componentType":5126,
			"count":4766,
			"max":[
				-0.10094061493873596,
				0.0010000000474974513,
				0.06488443166017532
			],
			"min":[
				-0.14504404366016388,
				-0.0010000000474974513,
				0.05479615181684494
			],
			"type":"VEC3"
		},
		{
			"bufferView":20,
			"componentType":5126,
			"count":4766,
			"type":"VEC3"
		},
		{
			"bufferView":21,
			"componentType":5126,
			"count":4766,
			"type":"VEC2"
		},
		{
			"bufferView":22,
			"componentType":5123,
			"count":14088,
			"type":"SCALAR"
		},
		{
			"bufferView":23,
			"componentType":5126,
			"count":5482,
			"max":[
				-0.009402485564351082,
				0.0010000000474974513,
				0.06488443166017532
			],
			"min":[
				-0.055727966129779816,
				-0.0010000000474974513,
				0.05479615181684494
			],
			"type":"VEC3"
		},
		{
			"bufferView":24,
			"componentType":5126,
			"count":5482,
			"type":"VEC3"
		},
		{
			"bufferView":25,
			"componentType":5126,
			"count":5482,
			"type":"VEC2"
		},
		{
			"bufferView":26,
			"componentType":5123,
			"count":16236,
			"type":"SCALAR"
		},
		{
			"bufferView":27,
			"componentType":5126,
			"count":6014,
			"max":[
				0.08879568427801132,
				0.0010000000474974513,
				0.06488443166017532
			],
			"min":[
				0.042385831475257874,
				-0.0010000000474974513,
				0.05479615181684494
			],
			"type":"VEC3"
		},
		{
			"bufferView":28,
			"componentType":5126,
			"count":6014,
			"type":"VEC3"
		},
		{
			"bufferView":29,
			"componentType":5126,
			"count":6014,
			"type":"VEC2"
		},
		{
			"bufferView":30,
			"componentType":5123,
			"count":17832,
			"type":"SCALAR"
		}
	],
	"bufferViews":[
		{
			"buffer":0,
			"byteLength":48,
			"byteOffset":0,
			"target":34962
		},
		{
			"buffer":0,
			"byteLength":48,
			"byteOffset":48,
			"target":34962
		},
		{
			"buffer":0,
			"byteLength":32,
			"byteOffset":96,
			"target":34962
		},
		{
			"buffer":0,
			"byteLength":12,
			"byteOffset":128,
			"target":34963
		},
		{
			"buffer":0,
			"byteLength":48,
			"byteOffset":140,
			"target":34962
		},
		{
			"buffer":0,
			"byteLength":48,
			"byteOffset":188,
			"target":34962
		},
		{
			"buffer":0,
			"byteLength":32,
			"byteOffset":236,
			"target":34962
		},
		{
			"buffer":0,
			"byteLength":48,
			"byteOffset":268,
			"target":34962
		},
		{
			"buffer":0,
			"byteLength":48,
			"byteOffset":316,
			"target":34962
		},
		{
			"buffer":0,
			"byteLength":32,
			"byteOffset":364,
			"target":34962
		},
		{
			"buffer":0,
			"byteLength":48,
			"byteOffset":396,
			"target":34962
		},
		{
			"buffer":0,
			"byteLength":48,
			"byteOffset":444,
			"target":34962
		},
		{
			"buffer":0,
			"byteLength":32,
			"byteOffset":492,
			"target":34962
		},
		{
			"buffer":0,
			"byteLength":48,
			"byteOffset":524,
			"target":34962
		},
		{
			"buffer":0,
			"byteLength":48,
			"byteOffset":572,
			"target":34962
		},
		{
			"buffer":0,
			"byteLength":32,
			"byteOffset":620,
			"target":34962
		},
		{
			"buffer":0,
			"byteLength":48,
			"byteOffset":652,
			"target":34962
		},
		{
			"buffer":0,
			"byteLength":48,
			"byteOffset":700,
			"target":34962
		},
		{
			"buffer":0,
			"byteLength":32,
			"byteOffset":748,
			"target":34962
		},
		{
			"buffer":0,
			"byteLength":57192,
			"byteOffset":780,
			"target":34962
		},
		{
			"buffer":0,
			"byteLength":57192,
			"byteOffset":57972,
			"target":34962
		},
		{
			"buffer":0,
			"byteLength":38128,
			"byteOffset":115164,
			"target":34962
		},
		{
			"buffer":0,
			"byteLength":28176,
			"byteOffset":153292,
			"target":34963
		},
		{
			"buffer":0,
			"byteLength":65784,
			"byteOffset":181468,
			"target":34962
		},
		{
			"buffer":0,
			"byteLength":65784,
			"byteOffset":247252,
			"target":34962
		},
		{
			"buffer":0,
			"byteLength":43856,
			"byteOffset":313036,
			"target":34962
		},
		{
			"buffer":0,
			"byteLength":32472,
			"byteOffset":356892,
			"target":34963
		},
		{
			"buffer":0,
			"byteLength":72168,
			"byteOffset":389364,
			"target":34962
		},
		{
			"buffer":0,
			"byteLength":72168,
			"byteOffset":461532,
			"target":34962
		},
		{
			"buffer":0,
			"byteLength":48112,
			"byteOffset":533700,
			"target":34962
		},
		{
			"buffer":0,
			"byteLength":35664,
			"byteOffset":581812,
			"target":34963
		}
	],
	"buffers":[
		{
			"byteLength":617476,
			"uri":"mevcutcam.bin"
		}
	]
}
