{
	"asset":{
		"generator":"Khronos glTF Blender I/O v4.2.60",
		"version":"2.0"
	},
	"scene":0,
	"scenes":[
		{
			"name":"Scene",
			"nodes":[
				0,
				1,
				2
			]
		}
	],
	"nodes":[
		{
			"mesh":0,
			"name":"Pencere11.005"
		},
		{
			"mesh":1,
			"name":"Pencere5.001"
		},
		{
			"mesh":2,
			"name":"Pencere9.005"
		}
	],
	"materials":[
		{
			"doubleSided":true,
			"name":"PencereSolar",
			"pbrMetallicRoughness":{
				"baseColorFactor":[
					0.9822452664375305,
					0.38132646679878235,
					0.0030353753827512264,
					1
				],
				"metallicFactor":0,
				"roughnessFactor":0.5
			}
		}
	],
	"meshes":[
		{
			"name":"Building_079_Mesh.001",
			"primitives":[
				{
					"attributes":{
						"POSITION":0,
						"NORMAL":1
					},
					"indices":2,
					"material":0
				}
			]
		},
		{
			"name":"Building_075_Mesh.001",
			"primitives":[
				{
					"attributes":{
						"POSITION":3,
						"NORMAL":4
					},
					"indices":5,
					"material":0
				}
			]
		},
		{
			"name":"Building_073_Mesh.001",
			"primitives":[
				{
					"attributes":{
						"POSITION":6,
						"NORMAL":7
					},
					"indices":8,
					"material":0
				}
			]
		}
	],
	"accessors":[
		{
			"bufferView":0,
			"componentType":5126,
			"count":36,
			"max":[
				0.4293476939201355,
				-0.502173900604248,
				0.0423913300037384
			],
			"min":[
				0.4076085090637207,
				-0.5456521511077881,
				0.0423913300037384
			],
			"type":"VEC3"
		},
		{
			"bufferView":1,
			"componentType":5126,
			"count":36,
			"type":"VEC3"
		},
		{
			"bufferView":2,
			"componentType":5123,
			"count":54,
			"type":"SCALAR"
		},
		{
			"bufferView":3,
			"componentType":5126,
			"count":32,
			"max":[
				0.36195629835128784,
				-0.811956524848938,
				0.05326090008020401
			],
			"min":[
				0.32282590866088867,
				-0.834782600402832,
				0.05326090008020401
			],
			"type":"VEC3"
		},
		{
			"bufferView":4,
			"componentType":5126,
			"count":32,
			"type":"VEC3"
		},
		{
			"bufferView":5,
			"componentType":5123,
			"count":48,
			"type":"SCALAR"
		},
		{
			"bufferView":6,
			"componentType":5126,
			"count":16,
			"max":[
				0.35326069593429565,
				-0.616304337978363,
				0.05326090008020401
			],
			"min":[
				0.33152157068252563,
				-0.6391304135322571,
				0.05326090008020401
			],
			"type":"VEC3"
		},
		{
			"bufferView":7,
			"componentType":5126,
			"count":16,
			"type":"VEC3"
		},
		{
			"bufferView":8,
			"componentType":5123,
			"count":24,
			"type":"SCALAR"
		}
	],
	"bufferViews":[
		{
			"buffer":0,
			"byteLength":432,
			"byteOffset":0,
			"target":34962
		},
		{
			"buffer":0,
			"byteLength":432,
			"byteOffset":432,
			"target":34962
		},
		{
			"buffer":0,
			"byteLength":108,
			"byteOffset":864,
			"target":34963
		},
		{
			"buffer":0,
			"byteLength":384,
			"byteOffset":972,
			"target":34962
		},
		{
			"buffer":0,
			"byteLength":384,
			"byteOffset":1356,
			"target":34962
		},
		{
			"buffer":0,
			"byteLength":96,
			"byteOffset":1740,
			"target":34963
		},
		{
			"buffer":0,
			"byteLength":192,
			"byteOffset":1836,
			"target":34962
		},
		{
			"buffer":0,
			"byteLength":192,
			"byteOffset":2028,
			"target":34962
		},
		{
			"buffer":0,
			"byteLength":48,
			"byteOffset":2220,
			"target":34963
		}
	],
	"buffers":[
		{
			"byteLength":2268,
			"uri":"Penceregrup5.bin"
		}
	]
}
