{
	"asset":{
		"generator":"Khronos glTF Blender I/O v4.2.60",
		"version":"2.0"
	},
	"scene":0,
	"scenes":[
		{
			"name":"Scene",
			"nodes":[
				0,
				1,
				2
			]
		}
	],
	"nodes":[
		{
			"mesh":0,
			"name":"Pencere1.001"
		},
		{
			"mesh":1,
			"name":"Pencere13.005"
		},
		{
			"mesh":2,
			"name":"Pencere7.005"
		}
	],
	"materials":[
		{
			"doubleSided":true,
			"name":"PencereSolar",
			"pbrMetallicRoughness":{
				"baseColorFactor":[
					0.9822452664375305,
					0.38132646679878235,
					0.0030353753827512264,
					1
				],
				"metallicFactor":0,
				"roughnessFactor":0.5
			}
		}
	],
	"meshes":[
		{
			"name":"Building_069_Mesh.001",
			"primitives":[
				{
					"attributes":{
						"POSITION":0,
						"NORMAL":1
					},
					"indices":2,
					"material":0
				}
			]
		},
		{
			"name":"Building_071_Mesh.001",
			"primitives":[
				{
					"attributes":{
						"POSITION":3,
						"NORMAL":4
					},
					"indices":5,
					"material":0
				}
			]
		},
		{
			"name":"Building_081_Mesh.001",
			"primitives":[
				{
					"attributes":{
						"POSITION":6,
						"NORMAL":7
					},
					"indices":8,
					"material":0
				}
			]
		}
	],
	"accessors":[
		{
			"bufferView":0,
			"componentType":5126,
			"count":36,
			"max":[
				0.2771737575531006,
				-0.893478274345398,
				0.0423913300037384
			],
			"min":[
				0.2554345726966858,
				-0.936956524848938,
				0.0423913300037384
			],
			"type":"VEC3"
		},
		{
			"bufferView":1,
			"componentType":5126,
			"count":36,
			"type":"VEC3"
		},
		{
			"bufferView":2,
			"componentType":5123,
			"count":54,
			"type":"SCALAR"
		},
		{
			"bufferView":3,
			"componentType":5126,
			"count":76,
			"max":[
				0.36195629835128784,
				-0.38804346323013306,
				0.05326090008020401
			],
			"min":[
				0.32282590866088867,
				-0.4434782564640045,
				0.05326090008020401
			],
			"type":"VEC3"
		},
		{
			"bufferView":4,
			"componentType":5126,
			"count":76,
			"type":"VEC3"
		},
		{
			"bufferView":5,
			"componentType":5123,
			"count":114,
			"type":"SCALAR"
		},
		{
			"bufferView":6,
			"componentType":5126,
			"count":38,
			"max":[
				0.4293476343154907,
				-0.697826087474823,
				0.0423913300037384
			],
			"min":[
				0.4076085090637207,
				-0.7369564771652222,
				0.0423913300037384
			],
			"type":"VEC3"
		},
		{
			"bufferView":7,
			"componentType":5126,
			"count":38,
			"type":"VEC3"
		},
		{
			"bufferView":8,
			"componentType":5123,
			"count":60,
			"type":"SCALAR"
		}
	],
	"bufferViews":[
		{
			"buffer":0,
			"byteLength":432,
			"byteOffset":0,
			"target":34962
		},
		{
			"buffer":0,
			"byteLength":432,
			"byteOffset":432,
			"target":34962
		},
		{
			"buffer":0,
			"byteLength":108,
			"byteOffset":864,
			"target":34963
		},
		{
			"buffer":0,
			"byteLength":912,
			"byteOffset":972,
			"target":34962
		},
		{
			"buffer":0,
			"byteLength":912,
			"byteOffset":1884,
			"target":34962
		},
		{
			"buffer":0,
			"byteLength":228,
			"byteOffset":2796,
			"target":34963
		},
		{
			"buffer":0,
			"byteLength":456,
			"byteOffset":3024,
			"target":34962
		},
		{
			"buffer":0,
			"byteLength":456,
			"byteOffset":3480,
			"target":34962
		},
		{
			"buffer":0,
			"byteLength":120,
			"byteOffset":3936,
			"target":34963
		}
	],
	"buffers":[
		{
			"byteLength":4056,
			"uri":"Penceregrup1.bin"
		}
	]
}
