{
	"asset":{
		"generator":"Khronos glTF Blender I/O v4.2.60",
		"version":"2.0"
	},
	"scene":0,
	"scenes":[
		{
			"name":"Scene",
			"nodes":[
				0,
				1,
				2
			]
		}
	],
	"nodes":[
		{
			"mesh":0,
			"name":"Pencere12.005"
		},
		{
			"mesh":1,
			"name":"Pencere14.005"
		},
		{
			"mesh":2,
			"name":"Pencere2.005"
		}
	],
	"materials":[
		{
			"doubleSided":true,
			"name":"PencereSolar",
			"pbrMetallicRoughness":{
				"baseColorFactor":[
					0.9822452664375305,
					0.38132646679878235,
					0.0030353753827512264,
					1
				],
				"metallicFactor":0,
				"roughnessFactor":0.5
			}
		}
	],
	"meshes":[
		{
			"name":"Building_078_Mesh.001",
			"primitives":[
				{
					"attributes":{
						"POSITION":0,
						"NORMAL":1
					},
					"indices":2,
					"material":0
				}
			]
		},
		{
			"name":"Building_070_Mesh.001",
			"primitives":[
				{
					"attributes":{
						"POSITION":3,
						"NORMAL":4
					},
					"indices":5,
					"material":0
				}
			]
		},
		{
			"name":"Building_076_Mesh.001",
			"primitives":[
				{
					"attributes":{
						"POSITION":6,
						"NORMAL":7
					},
					"indices":8,
					"material":0
				}
			]
		}
	],
	"accessors":[
		{
			"bufferView":0,
			"componentType":5126,
			"count":24,
			"max":[
				0.4380432367324829,
				-0.42065221071243286,
				0.05326090008020401
			],
			"min":[
				0.39891284704208374,
				-0.4478260576725006,
				0.05326090008020401
			],
			"type":"VEC3"
		},
		{
			"bufferView":1,
			"componentType":5126,
			"count":24,
			"type":"VEC3"
		},
		{
			"bufferView":2,
			"componentType":5123,
			"count":36,
			"type":"SCALAR"
		},
		{
			"bufferView":3,
			"componentType":5126,
			"count":38,
			"max":[
				0.3532606363296509,
				-0.3065217137336731,
				0.0423913300037384
			],
			"min":[
				0.33152157068252563,
				-0.34565210342407227,
				0.0423913300037384
			],
			"type":"VEC3"
		},
		{
			"bufferView":4,
			"componentType":5126,
			"count":38,
			"type":"VEC3"
		},
		{
			"bufferView":5,
			"componentType":5123,
			"count":60,
			"type":"SCALAR"
		},
		{
			"bufferView":6,
			"componentType":5126,
			"count":68,
			"max":[
				0.36195629835128784,
				-0.893478274345398,
				0.06413046270608902
			],
			"min":[
				0.32282590866088867,
				-0.936956524848938,
				0.06413046270608902
			],
			"type":"VEC3"
		},
		{
			"bufferView":7,
			"componentType":5126,
			"count":68,
			"type":"VEC3"
		},
		{
			"bufferView":8,
			"componentType":5123,
			"count":102,
			"type":"SCALAR"
		}
	],
	"bufferViews":[
		{
			"buffer":0,
			"byteLength":288,
			"byteOffset":0,
			"target":34962
		},
		{
			"buffer":0,
			"byteLength":288,
			"byteOffset":288,
			"target":34962
		},
		{
			"buffer":0,
			"byteLength":72,
			"byteOffset":576,
			"target":34963
		},
		{
			"buffer":0,
			"byteLength":456,
			"byteOffset":648,
			"target":34962
		},
		{
			"buffer":0,
			"byteLength":456,
			"byteOffset":1104,
			"target":34962
		},
		{
			"buffer":0,
			"byteLength":120,
			"byteOffset":1560,
			"target":34963
		},
		{
			"buffer":0,
			"byteLength":816,
			"byteOffset":1680,
			"target":34962
		},
		{
			"buffer":0,
			"byteLength":816,
			"byteOffset":2496,
			"target":34962
		},
		{
			"buffer":0,
			"byteLength":204,
			"byteOffset":3312,
			"target":34963
		}
	],
	"buffers":[
		{
			"byteLength":3516,
			"uri":"Penceregrup4.bin"
		}
	]
}
