{
	"asset":{
		"generator":"Khronos glTF Blender I/O v4.2.60",
		"version":"2.0"
	},
	"scene":0,
	"scenes":[
		{
			"name":"Scene",
			"nodes":[
				0,
				1,
				2
			]
		}
	],
	"nodes":[
		{
			"mesh":0,
			"name":"Pencere15.005"
		},
		{
			"mesh":1,
			"name":"Pencere3.005"
		},
		{
			"mesh":2,
			"name":"Pencere6.001"
		}
	],
	"materials":[
		{
			"doubleSided":true,
			"name":"PencereSolar",
			"pbrMetallicRoughness":{
				"baseColorFactor":[
					0.9822452664375305,
					0.38132646679878235,
					0.0030353753827512264,
					1
				],
				"metallicFactor":0,
				"roughnessFactor":0.5
			}
		}
	],
	"meshes":[
		{
			"name":"Building_077_Mesh.001",
			"primitives":[
				{
					"attributes":{
						"POSITION":0,
						"NORMAL":1
					},
					"indices":2,
					"material":0
				}
			]
		},
		{
			"name":"Building_083_Mesh.001",
			"primitives":[
				{
					"attributes":{
						"POSITION":3,
						"NORMAL":4
					},
					"indices":5,
					"material":0
				}
			]
		},
		{
			"name":"Building_074_Mesh.001",
			"primitives":[
				{
					"attributes":{
						"POSITION":6,
						"NORMAL":7
					},
					"indices":8,
					"material":0
				}
			]
		}
	],
	"accessors":[
		{
			"bufferView":0,
			"componentType":5126,
			"count":32,
			"max":[
				0.4380432963371277,
				-0.322826087474823,
				0.06413046270608902
			],
			"min":[
				0.39891284704208374,
				-0.34999996423721313,
				0.06413046270608902
			],
			"type":"VEC3"
		},
		{
			"bufferView":1,
			"componentType":5126,
			"count":32,
			"type":"VEC3"
		},
		{
			"bufferView":2,
			"componentType":5123,
			"count":48,
			"type":"SCALAR"
		},
		{
			"bufferView":3,
			"componentType":5126,
			"count":28,
			"max":[
				0.4380432963371277,
				-0.9097825884819031,
				0.05326090008020401
			],
			"min":[
				0.39891284704208374,
				-0.9347826242446899,
				0.05326090008020401
			],
			"type":"VEC3"
		},
		{
			"bufferView":4,
			"componentType":5126,
			"count":28,
			"type":"VEC3"
		},
		{
			"bufferView":5,
			"componentType":5123,
			"count":42,
			"type":"SCALAR"
		},
		{
			"bufferView":6,
			"componentType":5126,
			"count":52,
			"max":[
				0.36195629835128784,
				-0.697826087474823,
				0.0423913300037384
			],
			"min":[
				0.32282590866088867,
				-0.741304337978363,
				0.0423913300037384
			],
			"type":"VEC3"
		},
		{
			"bufferView":7,
			"componentType":5126,
			"count":52,
			"type":"VEC3"
		},
		{
			"bufferView":8,
			"componentType":5123,
			"count":78,
			"type":"SCALAR"
		}
	],
	"bufferViews":[
		{
			"buffer":0,
			"byteLength":384,
			"byteOffset":0,
			"target":34962
		},
		{
			"buffer":0,
			"byteLength":384,
			"byteOffset":384,
			"target":34962
		},
		{
			"buffer":0,
			"byteLength":96,
			"byteOffset":768,
			"target":34963
		},
		{
			"buffer":0,
			"byteLength":336,
			"byteOffset":864,
			"target":34962
		},
		{
			"buffer":0,
			"byteLength":336,
			"byteOffset":1200,
			"target":34962
		},
		{
			"buffer":0,
			"byteLength":84,
			"byteOffset":1536,
			"target":34963
		},
		{
			"buffer":0,
			"byteLength":624,
			"byteOffset":1620,
			"target":34962
		},
		{
			"buffer":0,
			"byteLength":624,
			"byteOffset":2244,
			"target":34962
		},
		{
			"buffer":0,
			"byteLength":156,
			"byteOffset":2868,
			"target":34963
		}
	],
	"buffers":[
		{
			"byteLength":3024,
			"uri":"Penceregrup2.bin"
		}
	]
}
