{
	"asset":{
		"generator":"Khronos glTF Blender I/O v4.2.60",
		"version":"2.0"
	},
	"scene":0,
	"scenes":[
		{
			"name":"Scene",
			"nodes":[
				0,
				1,
				2
			]
		}
	],
	"nodes":[
		{
			"mesh":0,
			"name":"Pencere13.003"
		},
		{
			"mesh":1,
			"name":"Pencere3.003"
		},
		{
			"mesh":2,
			"name":"Pencere9.003"
		}
	],
	"materials":[
		{
			"doubleSided":true,
			"name":"PencereSolar",
			"pbrMetallicRoughness":{
				"baseColorFactor":[
					0.9822452664375305,
					0.38132646679878235,
					0.0030353753827512264,
					1
				],
				"metallicFactor":0,
				"roughnessFactor":0.5
			}
		}
	],
	"meshes":[
		{
			"name":"Building_012_Mesh.006",
			"primitives":[
				{
					"attributes":{
						"POSITION":0,
						"NORMAL":1
					},
					"indices":2,
					"material":0
				}
			]
		},
		{
			"name":"Building_002_Mesh.006",
			"primitives":[
				{
					"attributes":{
						"POSITION":3,
						"NORMAL":4
					},
					"indices":5,
					"material":0
				}
			]
		},
		{
			"name":"Building_008_Mesh.006",
			"primitives":[
				{
					"attributes":{
						"POSITION":6,
						"NORMAL":7
					},
					"indices":8,
					"material":0
				}
			]
		}
	],
	"accessors":[
		{
			"bufferView":0,
			"componentType":5126,
			"count":24,
			"max":[
				-0.32282620668411255,
				-0.811956524848938,
				0.05326090008020401
			],
			"min":[
				-0.3619566261768341,
				-0.8391304016113281,
				0.05326090008020401
			],
			"type":"VEC3"
		},
		{
			"bufferView":1,
			"componentType":5126,
			"count":24,
			"type":"VEC3"
		},
		{
			"bufferView":2,
			"componentType":5123,
			"count":36,
			"type":"SCALAR"
		},
		{
			"bufferView":3,
			"componentType":5126,
			"count":38,
			"max":[
				-0.4076088070869446,
				-0.502173900604248,
				0.0423913300037384
			],
			"min":[
				-0.4293479323387146,
				-0.541304349899292,
				0.0423913300037384
			],
			"type":"VEC3"
		},
		{
			"bufferView":4,
			"componentType":5126,
			"count":38,
			"type":"VEC3"
		},
		{
			"bufferView":5,
			"componentType":5123,
			"count":60,
			"type":"SCALAR"
		},
		{
			"bufferView":6,
			"componentType":5126,
			"count":56,
			"max":[
				-0.32282620668411255,
				-0.40434783697128296,
				0.0423913300037384
			],
			"min":[
				-0.3619566261768341,
				-0.4434782564640045,
				0.0423913300037384
			],
			"type":"VEC3"
		},
		{
			"bufferView":7,
			"componentType":5126,
			"count":56,
			"type":"VEC3"
		},
		{
			"bufferView":8,
			"componentType":5123,
			"count":84,
			"type":"SCALAR"
		}
	],
	"bufferViews":[
		{
			"buffer":0,
			"byteLength":288,
			"byteOffset":0,
			"target":34962
		},
		{
			"buffer":0,
			"byteLength":288,
			"byteOffset":288,
			"target":34962
		},
		{
			"buffer":0,
			"byteLength":72,
			"byteOffset":576,
			"target":34963
		},
		{
			"buffer":0,
			"byteLength":456,
			"byteOffset":648,
			"target":34962
		},
		{
			"buffer":0,
			"byteLength":456,
			"byteOffset":1104,
			"target":34962
		},
		{
			"buffer":0,
			"byteLength":120,
			"byteOffset":1560,
			"target":34963
		},
		{
			"buffer":0,
			"byteLength":672,
			"byteOffset":1680,
			"target":34962
		},
		{
			"buffer":0,
			"byteLength":672,
			"byteOffset":2352,
			"target":34962
		},
		{
			"buffer":0,
			"byteLength":168,
			"byteOffset":3024,
			"target":34963
		}
	],
	"buffers":[
		{
			"byteLength":3192,
			"uri":"Pencere3.bin"
		}
	]
}
