{
	"asset":{
		"generator":"Khronos glTF Blender I/O v4.2.60",
		"version":"2.0"
	},
	"scene":0,
	"scenes":[
		{
			"name":"Scene",
			"nodes":[
				0,
				1,
				2
			]
		}
	],
	"nodes":[
		{
			"mesh":0,
			"name":"Pencere1.003"
		},
		{
			"mesh":1,
			"name":"Pencere18.002"
		},
		{
			"mesh":2,
			"name":"Pencere5.003"
		}
	],
	"materials":[
		{
			"doubleSided":true,
			"name":"PencereSolar",
			"pbrMetallicRoughness":{
				"baseColorFactor":[
					0.9822452664375305,
					0.38132646679878235,
					0.0030353753827512264,
					1
				],
				"metallicFactor":0,
				"roughnessFactor":0.5
			}
		}
	],
	"meshes":[
		{
			"name":"Building_000_Mesh.011",
			"primitives":[
				{
					"attributes":{
						"POSITION":0,
						"NORMAL":1
					},
					"indices":2,
					"material":0
				}
			]
		},
		{
			"name":"Building_017_Mesh.006",
			"primitives":[
				{
					"attributes":{
						"POSITION":3,
						"NORMAL":4
					},
					"indices":5,
					"material":0
				}
			]
		},
		{
			"name":"Building_004_Mesh.006",
			"primitives":[
				{
					"attributes":{
						"POSITION":6,
						"NORMAL":7
					},
					"indices":8,
					"material":0
				}
			]
		}
	],
	"accessors":[
		{
			"bufferView":0,
			"componentType":5126,
			"count":48,
			"max":[
				-0.3989131450653076,
				-0.3065217137336731,
				0.06413046270608902
			],
			"min":[
				-0.43804359436035156,
				-0.3478260636329651,
				0.06413046270608902
			],
			"type":"VEC3"
		},
		{
			"bufferView":1,
			"componentType":5126,
			"count":48,
			"type":"VEC3"
		},
		{
			"bufferView":2,
			"componentType":5123,
			"count":72,
			"type":"SCALAR"
		},
		{
			"bufferView":3,
			"componentType":5126,
			"count":64,
			"max":[
				-0.24673926830291748,
				-0.5999999642372131,
				0.06413046270608902
			],
			"min":[
				-0.28586968779563904,
				-0.6413043737411499,
				0.06413046270608902
			],
			"type":"VEC3"
		},
		{
			"bufferView":4,
			"componentType":5126,
			"count":64,
			"type":"VEC3"
		},
		{
			"bufferView":5,
			"componentType":5123,
			"count":96,
			"type":"SCALAR"
		},
		{
			"bufferView":6,
			"componentType":5126,
			"count":39,
			"max":[
				-0.4076088070869446,
				-0.697826087474823,
				0.05326090008020401
			],
			"min":[
				-0.4293479323387146,
				-0.739130437374115,
				0.05326090008020401
			],
			"type":"VEC3"
		},
		{
			"bufferView":7,
			"componentType":5126,
			"count":39,
			"type":"VEC3"
		},
		{
			"bufferView":8,
			"componentType":5123,
			"count":63,
			"type":"SCALAR"
		}
	],
	"bufferViews":[
		{
			"buffer":0,
			"byteLength":576,
			"byteOffset":0,
			"target":34962
		},
		{
			"buffer":0,
			"byteLength":576,
			"byteOffset":576,
			"target":34962
		},
		{
			"buffer":0,
			"byteLength":144,
			"byteOffset":1152,
			"target":34963
		},
		{
			"buffer":0,
			"byteLength":768,
			"byteOffset":1296,
			"target":34962
		},
		{
			"buffer":0,
			"byteLength":768,
			"byteOffset":2064,
			"target":34962
		},
		{
			"buffer":0,
			"byteLength":192,
			"byteOffset":2832,
			"target":34963
		},
		{
			"buffer":0,
			"byteLength":468,
			"byteOffset":3024,
			"target":34962
		},
		{
			"buffer":0,
			"byteLength":468,
			"byteOffset":3492,
			"target":34962
		},
		{
			"buffer":0,
			"byteLength":126,
			"byteOffset":3960,
			"target":34963
		}
	],
	"buffers":[
		{
			"byteLength":4088,
			"uri":"Pencere1.bin"
		}
	]
}
