{
	"asset":{
		"generator":"Khronos glTF Blender I/O v4.2.60",
		"version":"2.0"
	},
	"scene":0,
	"scenes":[
		{
			"name":"Scene",
			"nodes":[
				0,
				1,
				2
			]
		}
	],
	"nodes":[
		{
			"mesh":0,
			"name":"Pencere14.003"
		},
		{
			"mesh":1,
			"name":"Pencere17.002"
		},
		{
			"mesh":2,
			"name":"Pencere8.003"
		}
	],
	"materials":[
		{
			"doubleSided":true,
			"name":"PencereSolar",
			"pbrMetallicRoughness":{
				"baseColorFactor":[
					0.9822452664375305,
					0.38132646679878235,
					0.0030353753827512264,
					1
				],
				"metallicFactor":0,
				"roughnessFactor":0.5
			}
		}
	],
	"meshes":[
		{
			"name":"Building_013_Mesh.006",
			"primitives":[
				{
					"attributes":{
						"POSITION":0,
						"NORMAL":1
					},
					"indices":2,
					"material":0
				}
			]
		},
		{
			"name":"Building_016_Mesh.006",
			"primitives":[
				{
					"attributes":{
						"POSITION":3,
						"NORMAL":4
					},
					"indices":5,
					"material":0
				}
			]
		},
		{
			"name":"Building_007_Mesh.006",
			"primitives":[
				{
					"attributes":{
						"POSITION":6,
						"NORMAL":7
					},
					"indices":8,
					"material":0
				}
			]
		}
	],
	"accessors":[
		{
			"bufferView":0,
			"componentType":5126,
			"count":48,
			"max":[
				-0.32282620668411255,
				-0.893478274345398,
				0.0423913300037384
			],
			"min":[
				-0.3619566261768341,
				-0.9347826242446899,
				0.0423913300037384
			],
			"type":"VEC3"
		},
		{
			"bufferView":1,
			"componentType":5126,
			"count":48,
			"type":"VEC3"
		},
		{
			"bufferView":2,
			"componentType":5123,
			"count":72,
			"type":"SCALAR"
		},
		{
			"bufferView":3,
			"componentType":5126,
			"count":44,
			"max":[
				-0.25543493032455444,
				-0.48586955666542053,
				0.06413046270608902
			],
			"min":[
				-0.27717405557632446,
				-0.54347825050354,
				0.06413046270608902
			],
			"type":"VEC3"
		},
		{
			"bufferView":4,
			"componentType":5126,
			"count":44,
			"type":"VEC3"
		},
		{
			"bufferView":5,
			"componentType":5123,
			"count":66,
			"type":"SCALAR"
		},
		{
			"bufferView":6,
			"componentType":5126,
			"count":28,
			"max":[
				-0.32282620668411255,
				-0.3228260278701782,
				0.05326090008020401
			],
			"min":[
				-0.3619566261768341,
				-0.34565210342407227,
				0.05326090008020401
			],
			"type":"VEC3"
		},
		{
			"bufferView":7,
			"componentType":5126,
			"count":28,
			"type":"VEC3"
		},
		{
			"bufferView":8,
			"componentType":5123,
			"count":42,
			"type":"SCALAR"
		}
	],
	"bufferViews":[
		{
			"buffer":0,
			"byteLength":576,
			"byteOffset":0,
			"target":34962
		},
		{
			"buffer":0,
			"byteLength":576,
			"byteOffset":576,
			"target":34962
		},
		{
			"buffer":0,
			"byteLength":144,
			"byteOffset":1152,
			"target":34963
		},
		{
			"buffer":0,
			"byteLength":528,
			"byteOffset":1296,
			"target":34962
		},
		{
			"buffer":0,
			"byteLength":528,
			"byteOffset":1824,
			"target":34962
		},
		{
			"buffer":0,
			"byteLength":132,
			"byteOffset":2352,
			"target":34963
		},
		{
			"buffer":0,
			"byteLength":336,
			"byteOffset":2484,
			"target":34962
		},
		{
			"buffer":0,
			"byteLength":336,
			"byteOffset":2820,
			"target":34962
		},
		{
			"buffer":0,
			"byteLength":84,
			"byteOffset":3156,
			"target":34963
		}
	],
	"buffers":[
		{
			"byteLength":3240,
			"uri":"Pencere4.bin"
		}
	]
}
