{
	"asset":{
		"generator":"Khronos glTF Blender I/O v4.2.60",
		"version":"2.0"
	},
	"scene":0,
	"scenes":[
		{
			"name":"Scene",
			"nodes":[
				0,
				1,
				2
			]
		}
	],
	"nodes":[
		{
			"mesh":0,
			"name":"Pencere12.003"
		},
		{
			"mesh":1,
			"name":"Pencere16.002"
		},
		{
			"mesh":2,
			"name":"Pencere4.003"
		}
	],
	"materials":[
		{
			"doubleSided":true,
			"name":"PencereSolar",
			"pbrMetallicRoughness":{
				"baseColorFactor":[
					0.9822452664375305,
					0.38132646679878235,
					0.0030353753827512264,
					1
				],
				"metallicFactor":0,
				"roughnessFactor":0.5
			}
		}
	],
	"meshes":[
		{
			"name":"Building_011_Mesh.006",
			"primitives":[
				{
					"attributes":{
						"POSITION":0,
						"NORMAL":1
					},
					"indices":2,
					"material":0
				}
			]
		},
		{
			"name":"Building_015_Mesh.006",
			"primitives":[
				{
					"attributes":{
						"POSITION":3,
						"NORMAL":4
					},
					"indices":5,
					"material":0
				}
			]
		},
		{
			"name":"Building_003_Mesh.006",
			"primitives":[
				{
					"attributes":{
						"POSITION":6,
						"NORMAL":7
					},
					"indices":8,
					"material":0
				}
			]
		}
	],
	"accessors":[
		{
			"bufferView":0,
			"componentType":5126,
			"count":60,
			"max":[
				-0.32282620668411255,
				-0.697826087474823,
				0.0423913300037384
			],
			"min":[
				-0.3619566261768341,
				-0.741304337978363,
				0.0423913300037384
			],
			"type":"VEC3"
		},
		{
			"bufferView":1,
			"componentType":5126,
			"count":60,
			"type":"VEC3"
		},
		{
			"bufferView":2,
			"componentType":5123,
			"count":90,
			"type":"SCALAR"
		},
		{
			"bufferView":3,
			"componentType":5126,
			"count":36,
			"max":[
				-0.25543490052223206,
				-0.40434783697128296,
				0.05326090008020401
			],
			"min":[
				-0.2771740257740021,
				-0.44565218687057495,
				0.05326090008020401
			],
			"type":"VEC3"
		},
		{
			"bufferView":4,
			"componentType":5126,
			"count":36,
			"type":"VEC3"
		},
		{
			"bufferView":5,
			"componentType":5123,
			"count":54,
			"type":"SCALAR"
		},
		{
			"bufferView":6,
			"componentType":5126,
			"count":39,
			"max":[
				-0.4076088070869446,
				-0.6000000238418579,
				0.06413046270608902
			],
			"min":[
				-0.4293479323387146,
				-0.6413043737411499,
				0.06413046270608902
			],
			"type":"VEC3"
		},
		{
			"bufferView":7,
			"componentType":5126,
			"count":39,
			"type":"VEC3"
		},
		{
			"bufferView":8,
			"componentType":5123,
			"count":63,
			"type":"SCALAR"
		}
	],
	"bufferViews":[
		{
			"buffer":0,
			"byteLength":720,
			"byteOffset":0,
			"target":34962
		},
		{
			"buffer":0,
			"byteLength":720,
			"byteOffset":720,
			"target":34962
		},
		{
			"buffer":0,
			"byteLength":180,
			"byteOffset":1440,
			"target":34963
		},
		{
			"buffer":0,
			"byteLength":432,
			"byteOffset":1620,
			"target":34962
		},
		{
			"buffer":0,
			"byteLength":432,
			"byteOffset":2052,
			"target":34962
		},
		{
			"buffer":0,
			"byteLength":108,
			"byteOffset":2484,
			"target":34963
		},
		{
			"buffer":0,
			"byteLength":468,
			"byteOffset":2592,
			"target":34962
		},
		{
			"buffer":0,
			"byteLength":468,
			"byteOffset":3060,
			"target":34962
		},
		{
			"buffer":0,
			"byteLength":126,
			"byteOffset":3528,
			"target":34963
		}
	],
	"buffers":[
		{
			"byteLength":3656,
			"uri":"Pencere6.bin"
		}
	]
}
