{
	"asset":{
		"generator":"Khronos glTF Blender I/O v4.2.60",
		"version":"2.0"
	},
	"scene":0,
	"scenes":[
		{
			"name":"Scene",
			"nodes":[
				0,
				1,
				2,
				3,
				4,
				5,
				6,
				7,
				8
			]
		}
	],
	"nodes":[
		{
			"mesh":0,
			"name":"Building_069.003"
		},
		{
			"mesh":1,
			"name":"Building_069.004"
		},
		{
			"mesh":2,
			"name":"Building_069.005"
		},
		{
			"mesh":3,
			"name":"Building_071.003"
		},
		{
			"mesh":4,
			"name":"Building_071.004"
		},
		{
			"mesh":5,
			"name":"Building_071.005"
		},
		{
			"mesh":6,
			"name":"Building_081.003"
		},
		{
			"mesh":7,
			"name":"Building_081.004"
		},
		{
			"mesh":8,
			"name":"Building_081.005"
		}
	],
	"materials":[
		{
			"doubleSided":true,
			"name":"BinaGrid",
			"pbrMetallicRoughness":{
				"baseColorFactor":[
					0.2874388098716736,
					0.3371638357639313,
					0.4178852438926697,
					1
				],
				"metallicFactor":0,
				"roughnessFactor":0.5
			}
		},
		{
			"doubleSided":true,
			"name":"Kap\u0131Grid",
			"pbrMetallicRoughness":{
				"baseColorFactor":[
					0.2874388098716736,
					0.3371638357639313,
					0.4178852438926697,
					1
				],
				"metallicFactor":0,
				"roughnessFactor":0.699999988079071
			}
		},
		{
			"doubleSided":true,
			"name":"PencereGrid",
			"pbrMetallicRoughness":{
				"baseColorFactor":[
					0.1499587893486023,
					0.17464761435985565,
					0.2122308313846588,
					1
				],
				"metallicFactor":0,
				"roughnessFactor":0.699999988079071
			}
		}
	],
	"meshes":[
		{
			"name":"Building_069_Mesh.003",
			"primitives":[
				{
					"attributes":{
						"POSITION":0,
						"NORMAL":1
					},
					"indices":2,
					"material":0
				}
			]
		},
		{
			"name":"Building_069_Mesh.004",
			"primitives":[
				{
					"attributes":{
						"POSITION":3,
						"NORMAL":4
					},
					"indices":5,
					"material":1
				}
			]
		},
		{
			"name":"Building_069_Mesh.005",
			"primitives":[
				{
					"attributes":{
						"POSITION":6,
						"NORMAL":7
					},
					"indices":8,
					"material":2
				}
			]
		},
		{
			"name":"Building_071_Mesh.003",
			"primitives":[
				{
					"attributes":{
						"POSITION":9,
						"NORMAL":10
					},
					"indices":11,
					"material":0
				}
			]
		},
		{
			"name":"Building_071_Mesh.004",
			"primitives":[
				{
					"attributes":{
						"POSITION":12,
						"NORMAL":13
					},
					"indices":5,
					"material":1
				}
			]
		},
		{
			"name":"Building_071_Mesh.005",
			"primitives":[
				{
					"attributes":{
						"POSITION":14,
						"NORMAL":15
					},
					"indices":16,
					"material":2
				}
			]
		},
		{
			"name":"Building_081_Mesh.003",
			"primitives":[
				{
					"attributes":{
						"POSITION":17,
						"NORMAL":18
					},
					"indices":19,
					"material":0
				}
			]
		},
		{
			"name":"Building_081_Mesh.004",
			"primitives":[
				{
					"attributes":{
						"POSITION":20,
						"NORMAL":21
					},
					"indices":5,
					"material":1
				}
			]
		},
		{
			"name":"Building_081_Mesh.005",
			"primitives":[
				{
					"attributes":{
						"POSITION":22,
						"NORMAL":23
					},
					"indices":24,
					"material":2
				}
			]
		}
	],
	"accessors":[
		{
			"bufferView":0,
			"componentType":5126,
			"count":497,
			"max":[
				0.28294432163238525,
				-0.876086950302124,
				0.043478287756443024
			],
			"min":[
				0.2503356337547302,
				-0.9402173757553101,
				2.9802322387695312e-08
			],
			"type":"VEC3"
		},
		{
			"bufferView":1,
			"componentType":5126,
			"count":497,
			"type":"VEC3"
		},
		{
			"bufferView":2,
			"componentType":5123,
			"count":1398,
			"type":"SCALAR"
		},
		{
			"bufferView":3,
			"componentType":5126,
			"count":4,
			"max":[
				0.2644661068916321,
				-0.9260869026184082,
				0.04130437970161438
			],
			"min":[
				0.2557704448699951,
				-0.9402173757553101,
				0.04130437970161438
			],
			"type":"VEC3"
		},
		{
			"bufferView":4,
			"componentType":5126,
			"count":4,
			"type":"VEC3"
		},
		{
			"bufferView":5,
			"componentType":5123,
			"count":6,
			"type":"SCALAR"
		},
		{
			"bufferView":6,
			"componentType":5126,
			"count":36,
			"max":[
				0.2775096297264099,
				-0.893478274345398,
				0.04130437225103378
			],
			"min":[
				0.2557704448699951,
				-0.936956524848938,
				0.04130437225103378
			],
			"type":"VEC3"
		},
		{
			"bufferView":7,
			"componentType":5126,
			"count":36,
			"type":"VEC3"
		},
		{
			"bufferView":8,
			"componentType":5123,
			"count":54,
			"type":"SCALAR"
		},
		{
			"bufferView":9,
			"componentType":5126,
			"count":1288,
			"max":[
				0.3671834468841553,
				-0.3728260397911072,
				0.05434785410761833
			],
			"min":[
				0.31827038526535034,
				-0.45108696818351746,
				2.9802322387695312e-08
			],
			"type":"VEC3"
		},
		{
			"bufferView":10,
			"componentType":5126,
			"count":1288,
			"type":"VEC3"
		},
		{
			"bufferView":11,
			"componentType":5123,
			"count":4650,
			"type":"SCALAR"
		},
		{
			"bufferView":12,
			"componentType":5126,
			"count":4,
			"max":[
				0.36229217052459717,
				-0.436956524848938,
				0.05217394232749939
			],
			"min":[
				0.35577040910720825,
				-0.45108696818351746,
				0.05217394232749939
			],
			"type":"VEC3"
		},
		{
			"bufferView":13,
			"componentType":5126,
			"count":4,
			"type":"VEC3"
		},
		{
			"bufferView":14,
			"componentType":5126,
			"count":76,
			"max":[
				0.36229217052459717,
				-0.38804346323013306,
				0.05217394232749939
			],
			"min":[
				0.3231617212295532,
				-0.4434782564640045,
				0.05217394232749939
			],
			"type":"VEC3"
		},
		{
			"bufferView":15,
			"componentType":5126,
			"count":76,
			"type":"VEC3"
		},
		{
			"bufferView":16,
			"componentType":5123,
			"count":114,
			"type":"SCALAR"
		},
		{
			"bufferView":17,
			"componentType":5126,
			"count":487,
			"max":[
				0.43511831760406494,
				-0.6847826242446899,
				0.043478287756443024
			],
			"min":[
				0.4025096297264099,
				-0.7445651888847351,
				2.9802322387695312e-08
			],
			"type":"VEC3"
		},
		{
			"bufferView":18,
			"componentType":5126,
			"count":487,
			"type":"VEC3"
		},
		{
			"bufferView":19,
			"componentType":5123,
			"count":1404,
			"type":"SCALAR"
		},
		{
			"bufferView":20,
			"componentType":5126,
			"count":4,
			"max":[
				0.4296834468841553,
				-0.730434775352478,
				0.04130437970161438
			],
			"min":[
				0.4209877848625183,
				-0.7445651888847351,
				0.04130437970161438
			],
			"type":"VEC3"
		},
		{
			"bufferView":21,
			"componentType":5126,
			"count":4,
			"type":"VEC3"
		},
		{
			"bufferView":22,
			"componentType":5126,
			"count":38,
			"max":[
				0.42968350648880005,
				-0.697826087474823,
				0.04130437225103378
			],
			"min":[
				0.4079444408416748,
				-0.7369564771652222,
				0.04130437225103378
			],
			"type":"VEC3"
		},
		{
			"bufferView":23,
			"componentType":5126,
			"count":38,
			"type":"VEC3"
		},
		{
			"bufferView":24,
			"componentType":5123,
			"count":60,
			"type":"SCALAR"
		}
	],
	"bufferViews":[
		{
			"buffer":0,
			"byteLength":5964,
			"byteOffset":0,
			"target":34962
		},
		{
			"buffer":0,
			"byteLength":5964,
			"byteOffset":5964,
			"target":34962
		},
		{
			"buffer":0,
			"byteLength":2796,
			"byteOffset":11928,
			"target":34963
		},
		{
			"buffer":0,
			"byteLength":48,
			"byteOffset":14724,
			"target":34962
		},
		{
			"buffer":0,
			"byteLength":48,
			"byteOffset":14772,
			"target":34962
		},
		{
			"buffer":0,
			"byteLength":12,
			"byteOffset":14820,
			"target":34963
		},
		{
			"buffer":0,
			"byteLength":432,
			"byteOffset":14832,
			"target":34962
		},
		{
			"buffer":0,
			"byteLength":432,
			"byteOffset":15264,
			"target":34962
		},
		{
			"buffer":0,
			"byteLength":108,
			"byteOffset":15696,
			"target":34963
		},
		{
			"buffer":0,
			"byteLength":15456,
			"byteOffset":15804,
			"target":34962
		},
		{
			"buffer":0,
			"byteLength":15456,
			"byteOffset":31260,
			"target":34962
		},
		{
			"buffer":0,
			"byteLength":9300,
			"byteOffset":46716,
			"target":34963
		},
		{
			"buffer":0,
			"byteLength":48,
			"byteOffset":56016,
			"target":34962
		},
		{
			"buffer":0,
			"byteLength":48,
			"byteOffset":56064,
			"target":34962
		},
		{
			"buffer":0,
			"byteLength":912,
			"byteOffset":56112,
			"target":34962
		},
		{
			"buffer":0,
			"byteLength":912,
			"byteOffset":57024,
			"target":34962
		},
		{
			"buffer":0,
			"byteLength":228,
			"byteOffset":57936,
			"target":34963
		},
		{
			"buffer":0,
			"byteLength":5844,
			"byteOffset":58164,
			"target":34962
		},
		{
			"buffer":0,
			"byteLength":5844,
			"byteOffset":64008,
			"target":34962
		},
		{
			"buffer":0,
			"byteLength":2808,
			"byteOffset":69852,
			"target":34963
		},
		{
			"buffer":0,
			"byteLength":48,
			"byteOffset":72660,
			"target":34962
		},
		{
			"buffer":0,
			"byteLength":48,
			"byteOffset":72708,
			"target":34962
		},
		{
			"buffer":0,
			"byteLength":456,
			"byteOffset":72756,
			"target":34962
		},
		{
			"buffer":0,
			"byteLength":456,
			"byteOffset":73212,
			"target":34962
		},
		{
			"buffer":0,
			"byteLength":120,
			"byteOffset":73668,
			"target":34963
		}
	],
	"buffers":[
		{
			"byteLength":73788,
			"uri":"Penceregrup1.bin"
		}
	]
}
