{
	"asset":{
		"generator":"Khronos glTF Blender I/O v4.2.60",
		"version":"2.0"
	},
	"scene":0,
	"scenes":[
		{
			"name":"Scene",
			"nodes":[
				0,
				1,
				2,
				3,
				4,
				5,
				6,
				7,
				8
			]
		}
	],
	"nodes":[
		{
			"mesh":0,
			"name":"Building_070.003"
		},
		{
			"mesh":1,
			"name":"Building_070.004"
		},
		{
			"mesh":2,
			"name":"Building_070.005"
		},
		{
			"mesh":3,
			"name":"Building_076.003"
		},
		{
			"mesh":4,
			"name":"Building_076.004"
		},
		{
			"mesh":5,
			"name":"Building_076.005"
		},
		{
			"mesh":6,
			"name":"Building_078.003"
		},
		{
			"mesh":7,
			"name":"Building_078.004"
		},
		{
			"mesh":8,
			"name":"Building_078.005"
		}
	],
	"materials":[
		{
			"doubleSided":true,
			"name":"BinaGrid",
			"pbrMetallicRoughness":{
				"baseColorFactor":[
					0.2874388098716736,
					0.3371638357639313,
					0.4178852438926697,
					1
				],
				"metallicFactor":0,
				"roughnessFactor":0.5
			}
		},
		{
			"doubleSided":true,
			"name":"Kap\u0131Grid",
			"pbrMetallicRoughness":{
				"baseColorFactor":[
					0.2874388098716736,
					0.3371638357639313,
					0.4178852438926697,
					1
				],
				"metallicFactor":0,
				"roughnessFactor":0.699999988079071
			}
		},
		{
			"doubleSided":true,
			"name":"PencereGrid",
			"pbrMetallicRoughness":{
				"baseColorFactor":[
					0.1499587893486023,
					0.17464761435985565,
					0.2122308313846588,
					1
				],
				"metallicFactor":0,
				"roughnessFactor":0.699999988079071
			}
		}
	],
	"meshes":[
		{
			"name":"Building_070_Mesh.003",
			"primitives":[
				{
					"attributes":{
						"POSITION":0,
						"NORMAL":1
					},
					"indices":2,
					"material":0
				}
			]
		},
		{
			"name":"Building_070_Mesh.004",
			"primitives":[
				{
					"attributes":{
						"POSITION":3,
						"NORMAL":4
					},
					"indices":5,
					"material":1
				}
			]
		},
		{
			"name":"Building_070_Mesh.005",
			"primitives":[
				{
					"attributes":{
						"POSITION":6,
						"NORMAL":7
					},
					"indices":8,
					"material":2
				}
			]
		},
		{
			"name":"Building_076_Mesh.003",
			"primitives":[
				{
					"attributes":{
						"POSITION":9,
						"NORMAL":10
					},
					"indices":11,
					"material":0
				}
			]
		},
		{
			"name":"Building_076_Mesh.004",
			"primitives":[
				{
					"attributes":{
						"POSITION":12,
						"NORMAL":13
					},
					"indices":5,
					"material":1
				}
			]
		},
		{
			"name":"Building_076_Mesh.005",
			"primitives":[
				{
					"attributes":{
						"POSITION":14,
						"NORMAL":15
					},
					"indices":16,
					"material":2
				}
			]
		},
		{
			"name":"Building_078_Mesh.003",
			"primitives":[
				{
					"attributes":{
						"POSITION":17,
						"NORMAL":18
					},
					"indices":19,
					"material":0
				}
			]
		},
		{
			"name":"Building_078_Mesh.004",
			"primitives":[
				{
					"attributes":{
						"POSITION":20,
						"NORMAL":21
					},
					"indices":5,
					"material":1
				}
			]
		},
		{
			"name":"Building_078_Mesh.005",
			"primitives":[
				{
					"attributes":{
						"POSITION":22,
						"NORMAL":23
					},
					"indices":24,
					"material":2
				}
			]
		}
	],
	"accessors":[
		{
			"bufferView":0,
			"componentType":5126,
			"count":501,
			"max":[
				0.3590313196182251,
				-0.291304349899292,
				0.043478287756443024
			],
			"min":[
				0.32642263174057007,
				-0.3532608151435852,
				2.9802322387695312e-08
			],
			"type":"VEC3"
		},
		{
			"bufferView":1,
			"componentType":5126,
			"count":501,
			"type":"VEC3"
		},
		{
			"bufferView":2,
			"componentType":5123,
			"count":1404,
			"type":"SCALAR"
		},
		{
			"bufferView":3,
			"componentType":5126,
			"count":4,
			"max":[
				0.353596568107605,
				-0.3391304016113281,
				0.04130437970161438
			],
			"min":[
				0.344900906085968,
				-0.3532608151435852,
				0.04130437970161438
			],
			"type":"VEC3"
		},
		{
			"bufferView":4,
			"componentType":5126,
			"count":4,
			"type":"VEC3"
		},
		{
			"bufferView":5,
			"componentType":5123,
			"count":6,
			"type":"SCALAR"
		},
		{
			"bufferView":6,
			"componentType":5126,
			"count":38,
			"max":[
				0.3535965085029602,
				-0.3065217137336731,
				0.04130437225103378
			],
			"min":[
				0.3318573832511902,
				-0.34565210342407227,
				0.04130437225103378
			],
			"type":"VEC3"
		},
		{
			"bufferView":7,
			"componentType":5126,
			"count":38,
			"type":"VEC3"
		},
		{
			"bufferView":8,
			"componentType":5123,
			"count":60,
			"type":"SCALAR"
		},
		{
			"bufferView":9,
			"componentType":5126,
			"count":873,
			"max":[
				0.36718350648880005,
				-0.8804347515106201,
				0.06521742045879364
			],
			"min":[
				0.3182705044746399,
				-0.9402173757553101,
				2.9802322387695312e-08
			],
			"type":"VEC3"
		},
		{
			"bufferView":10,
			"componentType":5126,
			"count":873,
			"type":"VEC3"
		},
		{
			"bufferView":11,
			"componentType":5123,
			"count":2820,
			"type":"SCALAR"
		},
		{
			"bufferView":12,
			"componentType":5126,
			"count":4,
			"max":[
				0.36229217052459717,
				-0.9260869026184082,
				0.0630435049533844
			],
			"min":[
				0.35577040910720825,
				-0.9402173757553101,
				0.0630435049533844
			],
			"type":"VEC3"
		},
		{
			"bufferView":13,
			"componentType":5126,
			"count":4,
			"type":"VEC3"
		},
		{
			"bufferView":14,
			"componentType":5126,
			"count":68,
			"max":[
				0.36229217052459717,
				-0.893478274345398,
				0.0630435049533844
			],
			"min":[
				0.3231617212295532,
				-0.936956524848938,
				0.0630435049533844
			],
			"type":"VEC3"
		},
		{
			"bufferView":15,
			"componentType":5126,
			"count":68,
			"type":"VEC3"
		},
		{
			"bufferView":16,
			"componentType":5123,
			"count":102,
			"type":"SCALAR"
		},
		{
			"bufferView":17,
			"componentType":5126,
			"count":511,
			"max":[
				0.44327056407928467,
				-0.40326088666915894,
				0.05434785038232803
			],
			"min":[
				0.39435750246047974,
				-0.45108696818351746,
				2.561137080192566e-08
			],
			"type":"VEC3"
		},
		{
			"bufferView":18,
			"componentType":5126,
			"count":511,
			"type":"VEC3"
		},
		{
			"bufferView":19,
			"componentType":5123,
			"count":1416,
			"type":"SCALAR"
		},
		{
			"bufferView":20,
			"componentType":5126,
			"count":4,
			"max":[
				0.40577054023742676,
				-0.436956524848938,
				0.05217394232749939
			],
			"min":[
				0.39924877882003784,
				-0.45108696818351746,
				0.05217394232749939
			],
			"type":"VEC3"
		},
		{
			"bufferView":21,
			"componentType":5126,
			"count":4,
			"type":"VEC3"
		},
		{
			"bufferView":22,
			"componentType":5126,
			"count":24,
			"max":[
				0.43837910890579224,
				-0.42065221071243286,
				0.05217394232749939
			],
			"min":[
				0.39924877882003784,
				-0.4478260576725006,
				0.05217394232749939
			],
			"type":"VEC3"
		},
		{
			"bufferView":23,
			"componentType":5126,
			"count":24,
			"type":"VEC3"
		},
		{
			"bufferView":24,
			"componentType":5123,
			"count":36,
			"type":"SCALAR"
		}
	],
	"bufferViews":[
		{
			"buffer":0,
			"byteLength":6012,
			"byteOffset":0,
			"target":34962
		},
		{
			"buffer":0,
			"byteLength":6012,
			"byteOffset":6012,
			"target":34962
		},
		{
			"buffer":0,
			"byteLength":2808,
			"byteOffset":12024,
			"target":34963
		},
		{
			"buffer":0,
			"byteLength":48,
			"byteOffset":14832,
			"target":34962
		},
		{
			"buffer":0,
			"byteLength":48,
			"byteOffset":14880,
			"target":34962
		},
		{
			"buffer":0,
			"byteLength":12,
			"byteOffset":14928,
			"target":34963
		},
		{
			"buffer":0,
			"byteLength":456,
			"byteOffset":14940,
			"target":34962
		},
		{
			"buffer":0,
			"byteLength":456,
			"byteOffset":15396,
			"target":34962
		},
		{
			"buffer":0,
			"byteLength":120,
			"byteOffset":15852,
			"target":34963
		},
		{
			"buffer":0,
			"byteLength":10476,
			"byteOffset":15972,
			"target":34962
		},
		{
			"buffer":0,
			"byteLength":10476,
			"byteOffset":26448,
			"target":34962
		},
		{
			"buffer":0,
			"byteLength":5640,
			"byteOffset":36924,
			"target":34963
		},
		{
			"buffer":0,
			"byteLength":48,
			"byteOffset":42564,
			"target":34962
		},
		{
			"buffer":0,
			"byteLength":48,
			"byteOffset":42612,
			"target":34962
		},
		{
			"buffer":0,
			"byteLength":816,
			"byteOffset":42660,
			"target":34962
		},
		{
			"buffer":0,
			"byteLength":816,
			"byteOffset":43476,
			"target":34962
		},
		{
			"buffer":0,
			"byteLength":204,
			"byteOffset":44292,
			"target":34963
		},
		{
			"buffer":0,
			"byteLength":6132,
			"byteOffset":44496,
			"target":34962
		},
		{
			"buffer":0,
			"byteLength":6132,
			"byteOffset":50628,
			"target":34962
		},
		{
			"buffer":0,
			"byteLength":2832,
			"byteOffset":56760,
			"target":34963
		},
		{
			"buffer":0,
			"byteLength":48,
			"byteOffset":59592,
			"target":34962
		},
		{
			"buffer":0,
			"byteLength":48,
			"byteOffset":59640,
			"target":34962
		},
		{
			"buffer":0,
			"byteLength":288,
			"byteOffset":59688,
			"target":34962
		},
		{
			"buffer":0,
			"byteLength":288,
			"byteOffset":59976,
			"target":34962
		},
		{
			"buffer":0,
			"byteLength":72,
			"byteOffset":60264,
			"target":34963
		}
	],
	"buffers":[
		{
			"byteLength":60336,
			"uri":"Penceregrup4.bin"
		}
	]
}
