{
	"asset":{
		"generator":"Khronos glTF Blender I/O v4.2.60",
		"version":"2.0"
	},
	"scene":0,
	"scenes":[
		{
			"name":"Scene",
			"nodes":[
				0,
				1,
				2,
				3,
				4,
				5,
				6,
				7,
				8
			]
		}
	],
	"nodes":[
		{
			"mesh":0,
			"name":"Building_074.003"
		},
		{
			"mesh":1,
			"name":"Building_074.004"
		},
		{
			"mesh":2,
			"name":"Building_074.005"
		},
		{
			"mesh":3,
			"name":"Building_077.003"
		},
		{
			"mesh":4,
			"name":"Building_077.004"
		},
		{
			"mesh":5,
			"name":"Building_077.005"
		},
		{
			"mesh":6,
			"name":"Building_083.003"
		},
		{
			"mesh":7,
			"name":"Building_083.004"
		},
		{
			"mesh":8,
			"name":"Building_083.005"
		}
	],
	"materials":[
		{
			"doubleSided":true,
			"name":"BinaGrid",
			"pbrMetallicRoughness":{
				"baseColorFactor":[
					0.2874388098716736,
					0.3371638357639313,
					0.4178852438926697,
					1
				],
				"metallicFactor":0,
				"roughnessFactor":0.5
			}
		},
		{
			"doubleSided":true,
			"name":"Kap\u0131Grid",
			"pbrMetallicRoughness":{
				"baseColorFactor":[
					0.2874388098716736,
					0.3371638357639313,
					0.4178852438926697,
					1
				],
				"metallicFactor":0,
				"roughnessFactor":0.699999988079071
			}
		},
		{
			"doubleSided":true,
			"name":"PencereGrid",
			"pbrMetallicRoughness":{
				"baseColorFactor":[
					0.1499587893486023,
					0.17464761435985565,
					0.2122308313846588,
					1
				],
				"metallicFactor":0,
				"roughnessFactor":0.699999988079071
			}
		}
	],
	"meshes":[
		{
			"name":"Building_074_Mesh.003",
			"primitives":[
				{
					"attributes":{
						"POSITION":0,
						"NORMAL":1
					},
					"indices":2,
					"material":0
				}
			]
		},
		{
			"name":"Building_074_Mesh.004",
			"primitives":[
				{
					"attributes":{
						"POSITION":3,
						"NORMAL":4
					},
					"indices":5,
					"material":1
				}
			]
		},
		{
			"name":"Building_074_Mesh.005",
			"primitives":[
				{
					"attributes":{
						"POSITION":6,
						"NORMAL":7
					},
					"indices":8,
					"material":2
				}
			]
		},
		{
			"name":"Building_077_Mesh.003",
			"primitives":[
				{
					"attributes":{
						"POSITION":9,
						"NORMAL":10
					},
					"indices":11,
					"material":0
				}
			]
		},
		{
			"name":"Building_077_Mesh.004",
			"primitives":[
				{
					"attributes":{
						"POSITION":12,
						"NORMAL":13
					},
					"indices":5,
					"material":1
				}
			]
		},
		{
			"name":"Building_077_Mesh.005",
			"primitives":[
				{
					"attributes":{
						"POSITION":14,
						"NORMAL":15
					},
					"indices":16,
					"material":2
				}
			]
		},
		{
			"name":"Building_083_Mesh.003",
			"primitives":[
				{
					"attributes":{
						"POSITION":17,
						"NORMAL":18
					},
					"indices":19,
					"material":0
				}
			]
		},
		{
			"name":"Building_083_Mesh.004",
			"primitives":[
				{
					"attributes":{
						"POSITION":20,
						"NORMAL":21
					},
					"indices":5,
					"material":1
				}
			]
		},
		{
			"name":"Building_083_Mesh.005",
			"primitives":[
				{
					"attributes":{
						"POSITION":22,
						"NORMAL":23
					},
					"indices":24,
					"material":2
				}
			]
		}
	],
	"accessors":[
		{
			"bufferView":0,
			"componentType":5126,
			"count":826,
			"max":[
				0.36718350648880005,
				-0.6847826242446899,
				0.043478287756443024
			],
			"min":[
				0.3182705044746399,
				-0.7445651888847351,
				2.9802322387695312e-08
			],
			"type":"VEC3"
		},
		{
			"bufferView":1,
			"componentType":5126,
			"count":826,
			"type":"VEC3"
		},
		{
			"bufferView":2,
			"componentType":5123,
			"count":2670,
			"type":"SCALAR"
		},
		{
			"bufferView":3,
			"componentType":5126,
			"count":4,
			"max":[
				0.3296835422515869,
				-0.730434775352478,
				0.04130437970161438
			],
			"min":[
				0.3231617212295532,
				-0.7445651888847351,
				0.04130437970161438
			],
			"type":"VEC3"
		},
		{
			"bufferView":4,
			"componentType":5126,
			"count":4,
			"type":"VEC3"
		},
		{
			"bufferView":5,
			"componentType":5123,
			"count":6,
			"type":"SCALAR"
		},
		{
			"bufferView":6,
			"componentType":5126,
			"count":52,
			"max":[
				0.36229217052459717,
				-0.697826087474823,
				0.04130437225103378
			],
			"min":[
				0.3231617212295532,
				-0.741304337978363,
				0.04130437225103378
			],
			"type":"VEC3"
		},
		{
			"bufferView":7,
			"componentType":5126,
			"count":52,
			"type":"VEC3"
		},
		{
			"bufferView":8,
			"componentType":5123,
			"count":78,
			"type":"SCALAR"
		},
		{
			"bufferView":9,
			"componentType":5126,
			"count":525,
			"max":[
				0.44327056407928467,
				-0.3076086640357971,
				0.06521742045879364
			],
			"min":[
				0.39435750246047974,
				-0.3532608151435852,
				2.9802322387695312e-08
			],
			"type":"VEC3"
		},
		{
			"bufferView":10,
			"componentType":5126,
			"count":525,
			"type":"VEC3"
		},
		{
			"bufferView":11,
			"componentType":5123,
			"count":1488,
			"type":"SCALAR"
		},
		{
			"bufferView":12,
			"componentType":5126,
			"count":4,
			"max":[
				0.4383792281150818,
				-0.3391304016113281,
				0.0630435049533844
			],
			"min":[
				0.4318574070930481,
				-0.3532608151435852,
				0.0630435049533844
			],
			"type":"VEC3"
		},
		{
			"bufferView":13,
			"componentType":5126,
			"count":4,
			"type":"VEC3"
		},
		{
			"bufferView":14,
			"componentType":5126,
			"count":32,
			"max":[
				0.4383792281150818,
				-0.322826087474823,
				0.0630435049533844
			],
			"min":[
				0.39924877882003784,
				-0.34999996423721313,
				0.0630435049533844
			],
			"type":"VEC3"
		},
		{
			"bufferView":15,
			"componentType":5126,
			"count":32,
			"type":"VEC3"
		},
		{
			"bufferView":16,
			"componentType":5123,
			"count":48,
			"type":"SCALAR"
		},
		{
			"bufferView":17,
			"componentType":5126,
			"count":524,
			"max":[
				0.4432704448699951,
				-0.89673912525177,
				0.05434786155819893
			],
			"min":[
				0.39435750246047974,
				-0.9402173757553101,
				3.3993273973464966e-08
			],
			"type":"VEC3"
		},
		{
			"bufferView":18,
			"componentType":5126,
			"count":524,
			"type":"VEC3"
		},
		{
			"bufferView":19,
			"componentType":5123,
			"count":1488,
			"type":"SCALAR"
		},
		{
			"bufferView":20,
			"componentType":5126,
			"count":4,
			"max":[
				0.4383792281150818,
				-0.9260869026184082,
				0.05217394232749939
			],
			"min":[
				0.4318574070930481,
				-0.9402173757553101,
				0.05217394232749939
			],
			"type":"VEC3"
		},
		{
			"bufferView":21,
			"componentType":5126,
			"count":4,
			"type":"VEC3"
		},
		{
			"bufferView":22,
			"componentType":5126,
			"count":28,
			"max":[
				0.43837910890579224,
				-0.9097825884819031,
				0.05217394232749939
			],
			"min":[
				0.3992486596107483,
				-0.9347826242446899,
				0.05217394232749939
			],
			"type":"VEC3"
		},
		{
			"bufferView":23,
			"componentType":5126,
			"count":28,
			"type":"VEC3"
		},
		{
			"bufferView":24,
			"componentType":5123,
			"count":42,
			"type":"SCALAR"
		}
	],
	"bufferViews":[
		{
			"buffer":0,
			"byteLength":9912,
			"byteOffset":0,
			"target":34962
		},
		{
			"buffer":0,
			"byteLength":9912,
			"byteOffset":9912,
			"target":34962
		},
		{
			"buffer":0,
			"byteLength":5340,
			"byteOffset":19824,
			"target":34963
		},
		{
			"buffer":0,
			"byteLength":48,
			"byteOffset":25164,
			"target":34962
		},
		{
			"buffer":0,
			"byteLength":48,
			"byteOffset":25212,
			"target":34962
		},
		{
			"buffer":0,
			"byteLength":12,
			"byteOffset":25260,
			"target":34963
		},
		{
			"buffer":0,
			"byteLength":624,
			"byteOffset":25272,
			"target":34962
		},
		{
			"buffer":0,
			"byteLength":624,
			"byteOffset":25896,
			"target":34962
		},
		{
			"buffer":0,
			"byteLength":156,
			"byteOffset":26520,
			"target":34963
		},
		{
			"buffer":0,
			"byteLength":6300,
			"byteOffset":26676,
			"target":34962
		},
		{
			"buffer":0,
			"byteLength":6300,
			"byteOffset":32976,
			"target":34962
		},
		{
			"buffer":0,
			"byteLength":2976,
			"byteOffset":39276,
			"target":34963
		},
		{
			"buffer":0,
			"byteLength":48,
			"byteOffset":42252,
			"target":34962
		},
		{
			"buffer":0,
			"byteLength":48,
			"byteOffset":42300,
			"target":34962
		},
		{
			"buffer":0,
			"byteLength":384,
			"byteOffset":42348,
			"target":34962
		},
		{
			"buffer":0,
			"byteLength":384,
			"byteOffset":42732,
			"target":34962
		},
		{
			"buffer":0,
			"byteLength":96,
			"byteOffset":43116,
			"target":34963
		},
		{
			"buffer":0,
			"byteLength":6288,
			"byteOffset":43212,
			"target":34962
		},
		{
			"buffer":0,
			"byteLength":6288,
			"byteOffset":49500,
			"target":34962
		},
		{
			"buffer":0,
			"byteLength":2976,
			"byteOffset":55788,
			"target":34963
		},
		{
			"buffer":0,
			"byteLength":48,
			"byteOffset":58764,
			"target":34962
		},
		{
			"buffer":0,
			"byteLength":48,
			"byteOffset":58812,
			"target":34962
		},
		{
			"buffer":0,
			"byteLength":336,
			"byteOffset":58860,
			"target":34962
		},
		{
			"buffer":0,
			"byteLength":336,
			"byteOffset":59196,
			"target":34962
		},
		{
			"buffer":0,
			"byteLength":84,
			"byteOffset":59532,
			"target":34963
		}
	],
	"buffers":[
		{
			"byteLength":59616,
			"uri":"Penceregrup2.bin"
		}
	]
}
