{
	"asset":{
		"generator":"Khronos glTF Blender I/O v4.2.60",
		"version":"2.0"
	},
	"scene":0,
	"scenes":[
		{
			"name":"Scene",
			"nodes":[
				0,
				1,
				2,
				3,
				4,
				5,
				6,
				7,
				8
			]
		}
	],
	"nodes":[
		{
			"mesh":0,
			"name":"Building_072.003"
		},
		{
			"mesh":1,
			"name":"Building_072.004"
		},
		{
			"mesh":2,
			"name":"Building_072.005"
		},
		{
			"mesh":3,
			"name":"Building_080.003"
		},
		{
			"mesh":4,
			"name":"Building_080.004"
		},
		{
			"mesh":5,
			"name":"Building_080.005"
		},
		{
			"mesh":6,
			"name":"Building_082.003"
		},
		{
			"mesh":7,
			"name":"Building_082.004"
		},
		{
			"mesh":8,
			"name":"Building_082.005"
		}
	],
	"materials":[
		{
			"doubleSided":true,
			"name":"BinaGrid",
			"pbrMetallicRoughness":{
				"baseColorFactor":[
					0.2874388098716736,
					0.3371638357639313,
					0.4178852438926697,
					1
				],
				"metallicFactor":0,
				"roughnessFactor":0.5
			}
		},
		{
			"doubleSided":true,
			"name":"Kap\u0131Grid",
			"pbrMetallicRoughness":{
				"baseColorFactor":[
					0.2874388098716736,
					0.3371638357639313,
					0.4178852438926697,
					1
				],
				"metallicFactor":0,
				"roughnessFactor":0.699999988079071
			}
		},
		{
			"doubleSided":true,
			"name":"PencereGrid",
			"pbrMetallicRoughness":{
				"baseColorFactor":[
					0.1499587893486023,
					0.17464761435985565,
					0.2122308313846588,
					1
				],
				"metallicFactor":0,
				"roughnessFactor":0.699999988079071
			}
		}
	],
	"meshes":[
		{
			"name":"Building_072_Mesh.003",
			"primitives":[
				{
					"attributes":{
						"POSITION":0,
						"NORMAL":1
					},
					"indices":2,
					"material":0
				}
			]
		},
		{
			"name":"Building_072_Mesh.004",
			"primitives":[
				{
					"attributes":{
						"POSITION":3,
						"NORMAL":4
					},
					"indices":5,
					"material":1
				}
			]
		},
		{
			"name":"Building_072_Mesh.005",
			"primitives":[
				{
					"attributes":{
						"POSITION":6,
						"NORMAL":7
					},
					"indices":8,
					"material":2
				}
			]
		},
		{
			"name":"Building_080_Mesh.003",
			"primitives":[
				{
					"attributes":{
						"POSITION":9,
						"NORMAL":10
					},
					"indices":11,
					"material":0
				}
			]
		},
		{
			"name":"Building_080_Mesh.004",
			"primitives":[
				{
					"attributes":{
						"POSITION":12,
						"NORMAL":13
					},
					"indices":5,
					"material":1
				}
			]
		},
		{
			"name":"Building_080_Mesh.005",
			"primitives":[
				{
					"attributes":{
						"POSITION":14,
						"NORMAL":15
					},
					"indices":16,
					"material":2
				}
			]
		},
		{
			"name":"Building_082_Mesh.003",
			"primitives":[
				{
					"attributes":{
						"POSITION":17,
						"NORMAL":18
					},
					"indices":19,
					"material":0
				}
			]
		},
		{
			"name":"Building_082_Mesh.004",
			"primitives":[
				{
					"attributes":{
						"POSITION":20,
						"NORMAL":21
					},
					"indices":5,
					"material":1
				}
			]
		},
		{
			"name":"Building_082_Mesh.005",
			"primitives":[
				{
					"attributes":{
						"POSITION":22,
						"NORMAL":23
					},
					"indices":24,
					"material":2
				}
			]
		}
	],
	"accessors":[
		{
			"bufferView":0,
			"componentType":5126,
			"count":1296,
			"max":[
				0.36718350648880005,
				-0.4728260636329651,
				0.05434785038232803
			],
			"min":[
				0.3182704448699951,
				-0.5489130020141602,
				2.561137080192566e-08
			],
			"type":"VEC3"
		},
		{
			"bufferView":1,
			"componentType":5126,
			"count":1296,
			"type":"VEC3"
		},
		{
			"bufferView":2,
			"componentType":5123,
			"count":4626,
			"type":"SCALAR"
		},
		{
			"bufferView":3,
			"componentType":5126,
			"count":4,
			"max":[
				0.36229217052459717,
				-0.5347825288772583,
				0.05217394232749939
			],
			"min":[
				0.35577040910720825,
				-0.5489130020141602,
				0.05217394232749939
			],
			"type":"VEC3"
		},
		{
			"bufferView":4,
			"componentType":5126,
			"count":4,
			"type":"VEC3"
		},
		{
			"bufferView":5,
			"componentType":5123,
			"count":6,
			"type":"SCALAR"
		},
		{
			"bufferView":6,
			"componentType":5126,
			"count":80,
			"max":[
				0.36229217052459717,
				-0.48586955666542053,
				0.05217394232749939
			],
			"min":[
				0.3231617212295532,
				-0.5456521511077881,
				0.05217394232749939
			],
			"type":"VEC3"
		},
		{
			"bufferView":7,
			"componentType":5126,
			"count":80,
			"type":"VEC3"
		},
		{
			"bufferView":8,
			"componentType":5123,
			"count":120,
			"type":"SCALAR"
		},
		{
			"bufferView":9,
			"componentType":5126,
			"count":501,
			"max":[
				0.43511831760406494,
				-0.5869565010070801,
				0.06521742045879364
			],
			"min":[
				0.4025096297264099,
				-0.64673912525177,
				2.9802322387695312e-08
			],
			"type":"VEC3"
		},
		{
			"bufferView":10,
			"componentType":5126,
			"count":501,
			"type":"VEC3"
		},
		{
			"bufferView":11,
			"componentType":5123,
			"count":1401,
			"type":"SCALAR"
		},
		{
			"bufferView":12,
			"componentType":5126,
			"count":4,
			"max":[
				0.4296834468841553,
				-0.6326086521148682,
				0.0630435049533844
			],
			"min":[
				0.4209877848625183,
				-0.64673912525177,
				0.0630435049533844
			],
			"type":"VEC3"
		},
		{
			"bufferView":13,
			"componentType":5126,
			"count":4,
			"type":"VEC3"
		},
		{
			"bufferView":14,
			"componentType":5126,
			"count":39,
			"max":[
				0.42968350648880005,
				-0.6000000238418579,
				0.0630435049533844
			],
			"min":[
				0.4079444408416748,
				-0.6413043737411499,
				0.0630435049533844
			],
			"type":"VEC3"
		},
		{
			"bufferView":15,
			"componentType":5126,
			"count":39,
			"type":"VEC3"
		},
		{
			"bufferView":16,
			"componentType":5123,
			"count":63,
			"type":"SCALAR"
		},
		{
			"bufferView":17,
			"componentType":5126,
			"count":308,
			"max":[
				0.43511831760406494,
				-0.7967391014099121,
				0.06521742045879364
			],
			"min":[
				0.4025096297264099,
				-0.8423912525177002,
				2.9802322387695312e-08
			],
			"type":"VEC3"
		},
		{
			"bufferView":18,
			"componentType":5126,
			"count":308,
			"type":"VEC3"
		},
		{
			"bufferView":19,
			"componentType":5123,
			"count":750,
			"type":"SCALAR"
		},
		{
			"bufferView":20,
			"componentType":5126,
			"count":4,
			"max":[
				0.4296834468841553,
				-0.8282608389854431,
				0.0630435049533844
			],
			"min":[
				0.4209877848625183,
				-0.8423912525177002,
				0.0630435049533844
			],
			"type":"VEC3"
		},
		{
			"bufferView":21,
			"componentType":5126,
			"count":4,
			"type":"VEC3"
		},
		{
			"bufferView":22,
			"componentType":5126,
			"count":16,
			"max":[
				0.42968350648880005,
				-0.811956524848938,
				0.0630435049533844
			],
			"min":[
				0.40794438123703003,
				-0.834782600402832,
				0.0630435049533844
			],
			"type":"VEC3"
		},
		{
			"bufferView":23,
			"componentType":5126,
			"count":16,
			"type":"VEC3"
		},
		{
			"bufferView":24,
			"componentType":5123,
			"count":24,
			"type":"SCALAR"
		}
	],
	"bufferViews":[
		{
			"buffer":0,
			"byteLength":15552,
			"byteOffset":0,
			"target":34962
		},
		{
			"buffer":0,
			"byteLength":15552,
			"byteOffset":15552,
			"target":34962
		},
		{
			"buffer":0,
			"byteLength":9252,
			"byteOffset":31104,
			"target":34963
		},
		{
			"buffer":0,
			"byteLength":48,
			"byteOffset":40356,
			"target":34962
		},
		{
			"buffer":0,
			"byteLength":48,
			"byteOffset":40404,
			"target":34962
		},
		{
			"buffer":0,
			"byteLength":12,
			"byteOffset":40452,
			"target":34963
		},
		{
			"buffer":0,
			"byteLength":960,
			"byteOffset":40464,
			"target":34962
		},
		{
			"buffer":0,
			"byteLength":960,
			"byteOffset":41424,
			"target":34962
		},
		{
			"buffer":0,
			"byteLength":240,
			"byteOffset":42384,
			"target":34963
		},
		{
			"buffer":0,
			"byteLength":6012,
			"byteOffset":42624,
			"target":34962
		},
		{
			"buffer":0,
			"byteLength":6012,
			"byteOffset":48636,
			"target":34962
		},
		{
			"buffer":0,
			"byteLength":2802,
			"byteOffset":54648,
			"target":34963
		},
		{
			"buffer":0,
			"byteLength":48,
			"byteOffset":57452,
			"target":34962
		},
		{
			"buffer":0,
			"byteLength":48,
			"byteOffset":57500,
			"target":34962
		},
		{
			"buffer":0,
			"byteLength":468,
			"byteOffset":57548,
			"target":34962
		},
		{
			"buffer":0,
			"byteLength":468,
			"byteOffset":58016,
			"target":34962
		},
		{
			"buffer":0,
			"byteLength":126,
			"byteOffset":58484,
			"target":34963
		},
		{
			"buffer":0,
			"byteLength":3696,
			"byteOffset":58612,
			"target":34962
		},
		{
			"buffer":0,
			"byteLength":3696,
			"byteOffset":62308,
			"target":34962
		},
		{
			"buffer":0,
			"byteLength":1500,
			"byteOffset":66004,
			"target":34963
		},
		{
			"buffer":0,
			"byteLength":48,
			"byteOffset":67504,
			"target":34962
		},
		{
			"buffer":0,
			"byteLength":48,
			"byteOffset":67552,
			"target":34962
		},
		{
			"buffer":0,
			"byteLength":192,
			"byteOffset":67600,
			"target":34962
		},
		{
			"buffer":0,
			"byteLength":192,
			"byteOffset":67792,
			"target":34962
		},
		{
			"buffer":0,
			"byteLength":48,
			"byteOffset":67984,
			"target":34963
		}
	],
	"buffers":[
		{
			"byteLength":68032,
			"uri":"Penceregrup3.bin"
		}
	]
}
