{
	"asset":{
		"generator":"Khronos glTF Blender I/O v4.2.60",
		"version":"2.0"
	},
	"scene":0,
	"scenes":[
		{
			"name":"Scene",
			"nodes":[
				0,
				1,
				2,
				3,
				4,
				5,
				6,
				7,
				8
			]
		}
	],
	"nodes":[
		{
			"mesh":0,
			"name":"Building_073.003"
		},
		{
			"mesh":1,
			"name":"Building_073.004"
		},
		{
			"mesh":2,
			"name":"Building_073.005"
		},
		{
			"mesh":3,
			"name":"Building_075.003"
		},
		{
			"mesh":4,
			"name":"Building_075.004"
		},
		{
			"mesh":5,
			"name":"Building_075.005"
		},
		{
			"mesh":6,
			"name":"Building_079.003"
		},
		{
			"mesh":7,
			"name":"Building_079.004"
		},
		{
			"mesh":8,
			"name":"Building_079.005"
		}
	],
	"materials":[
		{
			"doubleSided":true,
			"name":"BinaGrid",
			"pbrMetallicRoughness":{
				"baseColorFactor":[
					0.2874388098716736,
					0.3371638357639313,
					0.4178852438926697,
					1
				],
				"metallicFactor":0,
				"roughnessFactor":0.5
			}
		},
		{
			"doubleSided":true,
			"name":"Kap\u0131Grid",
			"pbrMetallicRoughness":{
				"baseColorFactor":[
					0.2874388098716736,
					0.3371638357639313,
					0.4178852438926697,
					1
				],
				"metallicFactor":0,
				"roughnessFactor":0.699999988079071
			}
		},
		{
			"doubleSided":true,
			"name":"PencereGrid",
			"pbrMetallicRoughness":{
				"baseColorFactor":[
					0.1499587893486023,
					0.17464761435985565,
					0.2122308313846588,
					1
				],
				"metallicFactor":0,
				"roughnessFactor":0.699999988079071
			}
		}
	],
	"meshes":[
		{
			"name":"Building_073_Mesh.003",
			"primitives":[
				{
					"attributes":{
						"POSITION":0,
						"NORMAL":1
					},
					"indices":2,
					"material":0
				}
			]
		},
		{
			"name":"Building_073_Mesh.004",
			"primitives":[
				{
					"attributes":{
						"POSITION":3,
						"NORMAL":4
					},
					"indices":5,
					"material":1
				}
			]
		},
		{
			"name":"Building_073_Mesh.005",
			"primitives":[
				{
					"attributes":{
						"POSITION":6,
						"NORMAL":7
					},
					"indices":8,
					"material":2
				}
			]
		},
		{
			"name":"Building_075_Mesh.003",
			"primitives":[
				{
					"attributes":{
						"POSITION":9,
						"NORMAL":10
					},
					"indices":11,
					"material":0
				}
			]
		},
		{
			"name":"Building_075_Mesh.004",
			"primitives":[
				{
					"attributes":{
						"POSITION":12,
						"NORMAL":13
					},
					"indices":5,
					"material":1
				}
			]
		},
		{
			"name":"Building_075_Mesh.005",
			"primitives":[
				{
					"attributes":{
						"POSITION":14,
						"NORMAL":15
					},
					"indices":16,
					"material":2
				}
			]
		},
		{
			"name":"Building_079_Mesh.003",
			"primitives":[
				{
					"attributes":{
						"POSITION":17,
						"NORMAL":18
					},
					"indices":19,
					"material":0
				}
			]
		},
		{
			"name":"Building_079_Mesh.004",
			"primitives":[
				{
					"attributes":{
						"POSITION":20,
						"NORMAL":21
					},
					"indices":5,
					"material":1
				}
			]
		},
		{
			"name":"Building_079_Mesh.005",
			"primitives":[
				{
					"attributes":{
						"POSITION":22,
						"NORMAL":23
					},
					"indices":24,
					"material":2
				}
			]
		}
	],
	"accessors":[
		{
			"bufferView":0,
			"componentType":5126,
			"count":308,
			"max":[
				0.3590313196182251,
				-0.60326087474823,
				0.05434785410761833
			],
			"min":[
				0.32642263174057007,
				-0.64673912525177,
				2.9802322387695312e-08
			],
			"type":"VEC3"
		},
		{
			"bufferView":1,
			"componentType":5126,
			"count":308,
			"type":"VEC3"
		},
		{
			"bufferView":2,
			"componentType":5123,
			"count":750,
			"type":"SCALAR"
		},
		{
			"bufferView":3,
			"componentType":5126,
			"count":4,
			"max":[
				0.353596568107605,
				-0.6326086521148682,
				0.05217394232749939
			],
			"min":[
				0.344900906085968,
				-0.64673912525177,
				0.05217394232749939
			],
			"type":"VEC3"
		},
		{
			"bufferView":4,
			"componentType":5126,
			"count":4,
			"type":"VEC3"
		},
		{
			"bufferView":5,
			"componentType":5123,
			"count":6,
			"type":"SCALAR"
		},
		{
			"bufferView":6,
			"componentType":5126,
			"count":16,
			"max":[
				0.35359662771224976,
				-0.616304337978363,
				0.05217394232749939
			],
			"min":[
				0.33185744285583496,
				-0.6391304135322571,
				0.05217394232749939
			],
			"type":"VEC3"
		},
		{
			"bufferView":7,
			"componentType":5126,
			"count":16,
			"type":"VEC3"
		},
		{
			"bufferView":8,
			"componentType":5123,
			"count":24,
			"type":"SCALAR"
		},
		{
			"bufferView":9,
			"componentType":5126,
			"count":514,
			"max":[
				0.3671834468841553,
				-0.7945652008056641,
				0.05434785038232803
			],
			"min":[
				0.31827038526535034,
				-0.8423912525177002,
				2.561137080192566e-08
			],
			"type":"VEC3"
		},
		{
			"bufferView":10,
			"componentType":5126,
			"count":514,
			"type":"VEC3"
		},
		{
			"bufferView":11,
			"componentType":5123,
			"count":1434,
			"type":"SCALAR"
		},
		{
			"bufferView":12,
			"componentType":5126,
			"count":4,
			"max":[
				0.35142260789871216,
				-0.8282608389854431,
				0.05217394232749939
			],
			"min":[
				0.33403128385543823,
				-0.8423912525177002,
				0.05217394232749939
			],
			"type":"VEC3"
		},
		{
			"bufferView":13,
			"componentType":5126,
			"count":4,
			"type":"VEC3"
		},
		{
			"bufferView":14,
			"componentType":5126,
			"count":32,
			"max":[
				0.36229217052459717,
				-0.811956524848938,
				0.05217394232749939
			],
			"min":[
				0.3231617212295532,
				-0.834782600402832,
				0.05217394232749939
			],
			"type":"VEC3"
		},
		{
			"bufferView":15,
			"componentType":5126,
			"count":32,
			"type":"VEC3"
		},
		{
			"bufferView":16,
			"componentType":5123,
			"count":48,
			"type":"SCALAR"
		},
		{
			"bufferView":17,
			"componentType":5126,
			"count":477,
			"max":[
				0.43511825799942017,
				-0.4956521689891815,
				0.043478287756443024
			],
			"min":[
				0.40250957012176514,
				-0.5489130020141602,
				2.9802322387695312e-08
			],
			"type":"VEC3"
		},
		{
			"bufferView":18,
			"componentType":5126,
			"count":477,
			"type":"VEC3"
		},
		{
			"bufferView":19,
			"componentType":5123,
			"count":1386,
			"type":"SCALAR"
		},
		{
			"bufferView":20,
			"componentType":5126,
			"count":4,
			"max":[
				0.416640043258667,
				-0.5347825288772583,
				0.04130437970161438
			],
			"min":[
				0.40794438123703003,
				-0.5489130020141602,
				0.04130437970161438
			],
			"type":"VEC3"
		},
		{
			"bufferView":21,
			"componentType":5126,
			"count":4,
			"type":"VEC3"
		},
		{
			"bufferView":22,
			"componentType":5126,
			"count":36,
			"max":[
				0.42968350648880005,
				-0.502173900604248,
				0.04130437225103378
			],
			"min":[
				0.40794438123703003,
				-0.5456521511077881,
				0.04130437225103378
			],
			"type":"VEC3"
		},
		{
			"bufferView":23,
			"componentType":5126,
			"count":36,
			"type":"VEC3"
		},
		{
			"bufferView":24,
			"componentType":5123,
			"count":54,
			"type":"SCALAR"
		}
	],
	"bufferViews":[
		{
			"buffer":0,
			"byteLength":3696,
			"byteOffset":0,
			"target":34962
		},
		{
			"buffer":0,
			"byteLength":3696,
			"byteOffset":3696,
			"target":34962
		},
		{
			"buffer":0,
			"byteLength":1500,
			"byteOffset":7392,
			"target":34963
		},
		{
			"buffer":0,
			"byteLength":48,
			"byteOffset":8892,
			"target":34962
		},
		{
			"buffer":0,
			"byteLength":48,
			"byteOffset":8940,
			"target":34962
		},
		{
			"buffer":0,
			"byteLength":12,
			"byteOffset":8988,
			"target":34963
		},
		{
			"buffer":0,
			"byteLength":192,
			"byteOffset":9000,
			"target":34962
		},
		{
			"buffer":0,
			"byteLength":192,
			"byteOffset":9192,
			"target":34962
		},
		{
			"buffer":0,
			"byteLength":48,
			"byteOffset":9384,
			"target":34963
		},
		{
			"buffer":0,
			"byteLength":6168,
			"byteOffset":9432,
			"target":34962
		},
		{
			"buffer":0,
			"byteLength":6168,
			"byteOffset":15600,
			"target":34962
		},
		{
			"buffer":0,
			"byteLength":2868,
			"byteOffset":21768,
			"target":34963
		},
		{
			"buffer":0,
			"byteLength":48,
			"byteOffset":24636,
			"target":34962
		},
		{
			"buffer":0,
			"byteLength":48,
			"byteOffset":24684,
			"target":34962
		},
		{
			"buffer":0,
			"byteLength":384,
			"byteOffset":24732,
			"target":34962
		},
		{
			"buffer":0,
			"byteLength":384,
			"byteOffset":25116,
			"target":34962
		},
		{
			"buffer":0,
			"byteLength":96,
			"byteOffset":25500,
			"target":34963
		},
		{
			"buffer":0,
			"byteLength":5724,
			"byteOffset":25596,
			"target":34962
		},
		{
			"buffer":0,
			"byteLength":5724,
			"byteOffset":31320,
			"target":34962
		},
		{
			"buffer":0,
			"byteLength":2772,
			"byteOffset":37044,
			"target":34963
		},
		{
			"buffer":0,
			"byteLength":48,
			"byteOffset":39816,
			"target":34962
		},
		{
			"buffer":0,
			"byteLength":48,
			"byteOffset":39864,
			"target":34962
		},
		{
			"buffer":0,
			"byteLength":432,
			"byteOffset":39912,
			"target":34962
		},
		{
			"buffer":0,
			"byteLength":432,
			"byteOffset":40344,
			"target":34962
		},
		{
			"buffer":0,
			"byteLength":108,
			"byteOffset":40776,
			"target":34963
		}
	],
	"buffers":[
		{
			"byteLength":40884,
			"uri":"Penceregrup5.bin"
		}
	]
}
