{
	"asset":{
		"generator":"Khronos glTF Blender I/O v4.2.60",
		"version":"2.0"
	},
	"scene":0,
	"scenes":[
		{
			"name":"Scene",
			"nodes":[
				1,
				3
			]
		}
	],
	"nodes":[
		{
			"mesh":0,
			"name":"Cube.046",
			"rotation":[
				0.7071074843406677,
				-0.7071061730384827,
				0,
				2.7535750746210397e-07
			],
			"scale":[
				1.6666550636291504,
				2.35760498046875,
				1.3333332538604736
			]
		},
		{
			"children":[
				0
			],
			"name":"Bar2.004",
			"scale":[
				2,
				1,
				1
			],
			"translation":[
				-0.5642954111099243,
				-0.4448920488357544,
				0.03138680383563042
			]
		},
		{
			"mesh":1,
			"name":"Cube.044",
			"rotation":[
				-0.38268348574638367,
				-0.9238795042037964,
				0,
				2.5215280174961663e-07
			],
			"scale":[
				1.6666679382324219,
				0.7921749949455261,
				1.3333345651626587
			],
			"translation":[
				0.46505099534988403,
				0.44485294818878174,
				-0.03223104029893875
			]
		},
		{
			"children":[
				2
			],
			"name":"Ok.001",
			"translation":[
				-0.46505096554756165,
				-0.44485294818878174,
				0.03223104029893875
			]
		}
	],
	"materials":[
		{
			"doubleSided":true,
			"name":"PencereSolar.008",
			"pbrMetallicRoughness":{
				"baseColorFactor":[
					0.9822452664375305,
					0.38132646679878235,
					0.0030353753827512264,
					1
				],
				"metallicFactor":0,
				"roughnessFactor":0.5
			}
		},
		{
			"doubleSided":true,
			"name":"PencereSolar.003",
			"pbrMetallicRoughness":{
				"baseColorFactor":[
					0.9822452664375305,
					0.38132646679878235,
					0.0030353753827512264,
					1
				],
				"metallicFactor":0,
				"roughnessFactor":0.5
			}
		}
	],
	"meshes":[
		{
			"name":"Cube.018",
			"primitives":[
				{
					"attributes":{
						"POSITION":0,
						"NORMAL":1
					},
					"indices":2,
					"material":0
				}
			]
		},
		{
			"name":"Cube.013",
			"primitives":[
				{
					"attributes":{
						"POSITION":3,
						"NORMAL":4
					},
					"indices":5,
					"material":1
				}
			]
		}
	],
	"accessors":[
		{
			"bufferView":0,
			"componentType":5126,
			"count":24,
			"max":[
				0.0037499964237213135,
				0,
				0.003749996656551957
			],
			"min":[
				-0.003750056494027376,
				-0.02496262639760971,
				-0.0037499982863664627
			],
			"type":"VEC3"
		},
		{
			"bufferView":1,
			"componentType":5126,
			"count":24,
			"type":"VEC3"
		},
		{
			"bufferView":2,
			"componentType":5123,
			"count":36,
			"type":"SCALAR"
		},
		{
			"bufferView":3,
			"componentType":5126,
			"count":48,
			"max":[
				0.01589040830731392,
				-0.7897956371307373,
				-0.01979021355509758
			],
			"min":[
				-0.002109598834067583,
				-0.8276660442352295,
				-0.027290206402540207
			],
			"type":"VEC3"
		},
		{
			"bufferView":4,
			"componentType":5126,
			"count":48,
			"type":"VEC3"
		},
		{
			"bufferView":5,
			"componentType":5123,
			"count":72,
			"type":"SCALAR"
		}
	],
	"bufferViews":[
		{
			"buffer":0,
			"byteLength":288,
			"byteOffset":0,
			"target":34962
		},
		{
			"buffer":0,
			"byteLength":288,
			"byteOffset":288,
			"target":34962
		},
		{
			"buffer":0,
			"byteLength":72,
			"byteOffset":576,
			"target":34963
		},
		{
			"buffer":0,
			"byteLength":576,
			"byteOffset":648,
			"target":34962
		},
		{
			"buffer":0,
			"byteLength":576,
			"byteOffset":1224,
			"target":34962
		},
		{
			"buffer":0,
			"byteLength":144,
			"byteOffset":1800,
			"target":34963
		}
	],
	"buffers":[
		{
			"byteLength":1944,
			"uri":"Barkapanacak.bin"
		}
	]
}
