{
	"asset":{
		"generator":"Khronos glTF Blender I/O v4.2.60",
		"version":"2.0"
	},
	"scene":0,
	"scenes":[
		{
			"name":"Scene",
			"nodes":[
				0,
				1,
				2,
				3,
				4,
				5,
				6
			]
		}
	],
	"nodes":[
		{
			"mesh":0,
			"name":"Cube.075",
			"rotation":[
				0,
				-0.8660253882408142,
				0,
				0.4999999701976776
			],
			"scale":[
				1.6666682958602905,
				1,
				1.3333332538604736
			]
		},
		{
			"mesh":1,
			"name":"Cube.077",
			"rotation":[
				-0.4999999701976776,
				0,
				-0.8660253882408142,
				2.165628387729157e-07
			],
			"scale":[
				1,
				3.8791191577911377,
				1
			]
		},
		{
			"mesh":2,
			"name":"Cube.079",
			"rotation":[
				0.6123725175857544,
				-0.6123724579811096,
				-0.3535534143447876,
				0.3535534143447876
			],
			"scale":[
				1.6666550636291504,
				4.020383834838867,
				1.3333332538604736
			]
		},
		{
			"mesh":3,
			"name":"Cube.080",
			"rotation":[
				0.6123725175857544,
				-0.6123724579811096,
				-0.3535534143447876,
				0.3535534143447876
			],
			"scale":[
				1.6666550636291504,
				3.9291837215423584,
				1.3333332538604736
			]
		},
		{
			"mesh":4,
			"name":"Cube.072",
			"rotation":[
				-0.7071068286895752,
				0.7071068286895752,
				0,
				1.1520234011186403e-07
			],
			"scale":[
				1.6666550636291504,
				4.634394645690918,
				1.3333332538604736
			]
		},
		{
			"mesh":5,
			"name":"Plane.053",
			"rotation":[
				0.2705981135368347,
				-0.6532815098762512,
				-0.6532815098762512,
				0.2705979347229004
			],
			"scale":[
				0.035330161452293396,
				0.028868278488516808,
				0.03533000126481056
			]
		},
		{
			"mesh":6,
			"name":"Simsek3.011",
			"scale":[
				1.9600000381469727,
				1.9600000381469727,
				1.9600000381469727
			],
			"translation":[
				-0.40633121132850647,
				-0.6108269095420837,
				0.06276915967464447
			]
		}
	],
	"materials":[
		{
			"alphaMode":"BLEND",
			"doubleSided":true,
			"name":"Material.004",
			"pbrMetallicRoughness":{
				"baseColorFactor":[
					0.9822452664375305,
					0.38132646679878235,
					0.0030353753827512264,
					0.5
				],
				"metallicFactor":0,
				"roughnessFactor":0.5
			}
		}
	],
	"meshes":[
		{
			"name":"Cube.073",
			"primitives":[
				{
					"attributes":{
						"POSITION":0,
						"NORMAL":1
					},
					"indices":2,
					"material":0
				}
			]
		},
		{
			"name":"Cube.075",
			"primitives":[
				{
					"attributes":{
						"POSITION":3,
						"NORMAL":4
					},
					"indices":5,
					"material":0
				}
			]
		},
		{
			"name":"Cube.084",
			"primitives":[
				{
					"attributes":{
						"POSITION":6,
						"NORMAL":7
					},
					"indices":8,
					"material":0
				}
			]
		},
		{
			"name":"Cube.085",
			"primitives":[
				{
					"attributes":{
						"POSITION":9,
						"NORMAL":10
					},
					"indices":2,
					"material":0
				}
			]
		},
		{
			"name":"Cube.067",
			"primitives":[
				{
					"attributes":{
						"POSITION":11,
						"NORMAL":12
					},
					"indices":13,
					"material":0
				}
			]
		},
		{
			"name":"Plane.071",
			"primitives":[
				{
					"attributes":{
						"POSITION":14,
						"NORMAL":15,
						"TEXCOORD_0":16
					},
					"indices":17,
					"material":0
				}
			]
		},
		{
			"name":"Plane.075",
			"primitives":[
				{
					"attributes":{
						"POSITION":18,
						"NORMAL":19,
						"TEXCOORD_0":20
					},
					"indices":21,
					"material":0
				}
			]
		}
	],
	"accessors":[
		{
			"bufferView":0,
			"componentType":5126,
			"count":24,
			"max":[
				-0.14252062141895294,
				-0.9685326814651489,
				0.3526861369609833
			],
			"min":[
				-0.15602059662342072,
				-1.009228229522705,
				0.34518614411354065
			],
			"type":"VEC3"
		},
		{
			"bufferView":1,
			"componentType":5126,
			"count":24,
			"type":"VEC3"
		},
		{
			"bufferView":2,
			"componentType":5123,
			"count":36,
			"type":"SCALAR"
		},
		{
			"bufferView":3,
			"componentType":5126,
			"count":30,
			"max":[
				0.24186372756958008,
				0.25436902046203613,
				-0.46024924516677856
			],
			"min":[
				0.21936380863189697,
				0.13998065888881683,
				-0.4702492356300354
			],
			"type":"VEC3"
		},
		{
			"bufferView":4,
			"componentType":5126,
			"count":30,
			"type":"VEC3"
		},
		{
			"bufferView":5,
			"componentType":5123,
			"count":54,
			"type":"SCALAR"
		},
		{
			"bufferView":6,
			"componentType":5126,
			"count":24,
			"max":[
				0.3393037021160126,
				0.08006112277507782,
				0.3526865541934967
			],
			"min":[
				0.3258035182952881,
				0.0601593554019928,
				0.3451865613460541
			],
			"type":"VEC3"
		},
		{
			"bufferView":7,
			"componentType":5126,
			"count":24,
			"type":"VEC3"
		},
		{
			"bufferView":8,
			"componentType":5123,
			"count":42,
			"type":"SCALAR"
		},
		{
			"bufferView":9,
			"componentType":5126,
			"count":24,
			"max":[
				0.6055412292480469,
				0.061555713415145874,
				0.3526862561702728
			],
			"min":[
				0.5920411348342896,
				-0.06045392155647278,
				0.3451862633228302
			],
			"type":"VEC3"
		},
		{
			"bufferView":10,
			"componentType":5126,
			"count":24,
			"type":"VEC3"
		},
		{
			"bufferView":11,
			"componentType":5126,
			"count":26,
			"max":[
				0.3393037021160126,
				0.12244275957345963,
				-0.03304110839962959
			],
			"min":[
				0.3258035480976105,
				0.08395437896251678,
				-0.04054110869765282
			],
			"type":"VEC3"
		},
		{
			"bufferView":12,
			"componentType":5126,
			"count":26,
			"type":"VEC3"
		},
		{
			"bufferView":13,
			"componentType":5123,
			"count":48,
			"type":"SCALAR"
		},
		{
			"bufferView":14,
			"componentType":5126,
			"count":18,
			"max":[
				19.38004493713379,
				1.8721489906311035,
				-2.805858850479126
			],
			"min":[
				18.38004493713379,
				1.5257477760314941,
				-3.805858850479126
			],
			"type":"VEC3"
		},
		{
			"bufferView":15,
			"componentType":5126,
			"count":18,
			"type":"VEC3"
		},
		{
			"bufferView":16,
			"componentType":5126,
			"count":18,
			"type":"VEC2"
		},
		{
			"bufferView":17,
			"componentType":5123,
			"count":24,
			"type":"SCALAR"
		},
		{
			"bufferView":18,
			"componentType":5126,
			"count":54,
			"max":[
				0.011328505352139473,
				0.018022537231445312,
				0.003804348409175873
			],
			"min":[
				-0.010736746713519096,
				-0.02173292636871338,
				-0.003804348409175873
			],
			"type":"VEC3"
		},
		{
			"bufferView":19,
			"componentType":5126,
			"count":54,
			"type":"VEC3"
		},
		{
			"bufferView":20,
			"componentType":5126,
			"count":54,
			"type":"VEC2"
		},
		{
			"bufferView":21,
			"componentType":5123,
			"count":96,
			"type":"SCALAR"
		}
	],
	"bufferViews":[
		{
			"buffer":0,
			"byteLength":288,
			"byteOffset":0,
			"target":34962
		},
		{
			"buffer":0,
			"byteLength":288,
			"byteOffset":288,
			"target":34962
		},
		{
			"buffer":0,
			"byteLength":72,
			"byteOffset":576,
			"target":34963
		},
		{
			"buffer":0,
			"byteLength":360,
			"byteOffset":648,
			"target":34962
		},
		{
			"buffer":0,
			"byteLength":360,
			"byteOffset":1008,
			"target":34962
		},
		{
			"buffer":0,
			"byteLength":108,
			"byteOffset":1368,
			"target":34963
		},
		{
			"buffer":0,
			"byteLength":288,
			"byteOffset":1476,
			"target":34962
		},
		{
			"buffer":0,
			"byteLength":288,
			"byteOffset":1764,
			"target":34962
		},
		{
			"buffer":0,
			"byteLength":84,
			"byteOffset":2052,
			"target":34963
		},
		{
			"buffer":0,
			"byteLength":288,
			"byteOffset":2136,
			"target":34962
		},
		{
			"buffer":0,
			"byteLength":288,
			"byteOffset":2424,
			"target":34962
		},
		{
			"buffer":0,
			"byteLength":312,
			"byteOffset":2712,
			"target":34962
		},
		{
			"buffer":0,
			"byteLength":312,
			"byteOffset":3024,
			"target":34962
		},
		{
			"buffer":0,
			"byteLength":96,
			"byteOffset":3336,
			"target":34963
		},
		{
			"buffer":0,
			"byteLength":216,
			"byteOffset":3432,
			"target":34962
		},
		{
			"buffer":0,
			"byteLength":216,
			"byteOffset":3648,
			"target":34962
		},
		{
			"buffer":0,
			"byteLength":144,
			"byteOffset":3864,
			"target":34962
		},
		{
			"buffer":0,
			"byteLength":48,
			"byteOffset":4008,
			"target":34963
		},
		{
			"buffer":0,
			"byteLength":648,
			"byteOffset":4056,
			"target":34962
		},
		{
			"buffer":0,
			"byteLength":648,
			"byteOffset":4704,
			"target":34962
		},
		{
			"buffer":0,
			"byteLength":432,
			"byteOffset":5352,
			"target":34962
		},
		{
			"buffer":0,
			"byteLength":192,
			"byteOffset":5784,
			"target":34963
		}
	],
	"buffers":[
		{
			"byteLength":5976,
			"uri":"Barkapanacak.bin"
		}
	]
}
