{
	"asset":{
		"generator":"Khronos glTF Blender I/O v4.2.60",
		"version":"2.0"
	},
	"scene":0,
	"scenes":[
		{
			"name":"Scene",
			"nodes":[
				0,
				1,
				2
			]
		}
	],
	"nodes":[
		{
			"mesh":0,
			"name":"Building_024.010"
		},
		{
			"mesh":1,
			"name":"Building_024.014"
		},
		{
			"mesh":2,
			"name":"Building_024.015"
		}
	],
	"materials":[
		{
			"doubleSided":true,
			"name":"BinaGrid.001",
			"pbrMetallicRoughness":{
				"baseColorFactor":[
					0.2874388098716736,
					0.3371638357639313,
					0.4178852438926697,
					1
				],
				"metallicFactor":0,
				"roughnessFactor":0.5
			}
		},
		{
			"doubleSided":true,
			"name":"PencereGrid",
			"pbrMetallicRoughness":{
				"baseColorFactor":[
					0.1499587893486023,
					0.17464761435985565,
					0.2122308313846588,
					1
				],
				"metallicFactor":0,
				"roughnessFactor":0.699999988079071
			}
		}
	],
	"meshes":[
		{
			"name":"Building_024_Mesh.014",
			"primitives":[
				{
					"attributes":{
						"POSITION":0,
						"NORMAL":1
					},
					"indices":2,
					"material":0
				}
			]
		},
		{
			"name":"Building_024_Mesh.016",
			"primitives":[
				{
					"attributes":{
						"POSITION":3,
						"NORMAL":4
					},
					"indices":5,
					"material":1
				}
			]
		},
		{
			"name":"Building_024_Mesh.017",
			"primitives":[
				{
					"attributes":{
						"POSITION":6,
						"NORMAL":7
					},
					"indices":8,
					"material":1
				}
			]
		}
	],
	"accessors":[
		{
			"bufferView":0,
			"componentType":5126,
			"count":831,
			"max":[
				-0.16576096415519714,
				-0.299999862909317,
				0.043478164821863174
			],
			"min":[
				-0.2146739959716797,
				-0.3532607853412628,
				-9.313225746154785e-08
			],
			"type":"VEC3"
		},
		{
			"bufferView":1,
			"componentType":5126,
			"count":831,
			"type":"VEC3"
		},
		{
			"bufferView":2,
			"componentType":5123,
			"count":2724,
			"type":"SCALAR"
		},
		{
			"bufferView":3,
			"componentType":5126,
			"count":56,
			"max":[
				-0.17065224051475525,
				-0.30652162432670593,
				0.04130425676703453
			],
			"min":[
				-0.2097826898097992,
				-0.34782591462135315,
				0.04130425676703453
			],
			"type":"VEC3"
		},
		{
			"bufferView":4,
			"componentType":5126,
			"count":56,
			"type":"VEC3"
		},
		{
			"bufferView":5,
			"componentType":5123,
			"count":84,
			"type":"SCALAR"
		},
		{
			"bufferView":6,
			"componentType":5126,
			"count":4,
			"max":[
				-0.18152180314064026,
				-0.33913031220436096,
				0.04130425676703453
			],
			"min":[
				-0.19891312718391418,
				-0.3532607853412628,
				0.04130425676703453
			],
			"type":"VEC3"
		},
		{
			"bufferView":7,
			"componentType":5126,
			"count":4,
			"type":"VEC3"
		},
		{
			"bufferView":8,
			"componentType":5123,
			"count":6,
			"type":"SCALAR"
		}
	],
	"bufferViews":[
		{
			"buffer":0,
			"byteLength":9972,
			"byteOffset":0,
			"target":34962
		},
		{
			"buffer":0,
			"byteLength":9972,
			"byteOffset":9972,
			"target":34962
		},
		{
			"buffer":0,
			"byteLength":5448,
			"byteOffset":19944,
			"target":34963
		},
		{
			"buffer":0,
			"byteLength":672,
			"byteOffset":25392,
			"target":34962
		},
		{
			"buffer":0,
			"byteLength":672,
			"byteOffset":26064,
			"target":34962
		},
		{
			"buffer":0,
			"byteLength":168,
			"byteOffset":26736,
			"target":34963
		},
		{
			"buffer":0,
			"byteLength":48,
			"byteOffset":26904,
			"target":34962
		},
		{
			"buffer":0,
			"byteLength":48,
			"byteOffset":26952,
			"target":34962
		},
		{
			"buffer":0,
			"byteLength":12,
			"byteOffset":27000,
			"target":34963
		}
	],
	"buffers":[
		{
			"byteLength":27012,
			"uri":"binakapanacak2.bin"
		}
	]
}
