{
	"asset":{
		"generator":"Khronos glTF Blender I/O v4.2.60",
		"version":"2.0"
	},
	"scene":0,
	"scenes":[
		{
			"name":"Scene",
			"nodes":[
				0,
				1,
				2
			]
		}
	],
	"nodes":[
		{
			"mesh":0,
			"name":"Building_056.010"
		},
		{
			"mesh":1,
			"name":"Building_056.014"
		},
		{
			"mesh":2,
			"name":"Building_056.015"
		}
	],
	"materials":[
		{
			"doubleSided":true,
			"name":"BinaGrid.001",
			"pbrMetallicRoughness":{
				"baseColorFactor":[
					0.2874388098716736,
					0.3371638357639313,
					0.4178852438926697,
					1
				],
				"metallicFactor":0,
				"roughnessFactor":0.5
			}
		},
		{
			"doubleSided":true,
			"name":"PencereGrid",
			"pbrMetallicRoughness":{
				"baseColorFactor":[
					0.1499587893486023,
					0.17464761435985565,
					0.2122308313846588,
					1
				],
				"metallicFactor":0,
				"roughnessFactor":0.699999988079071
			}
		}
	],
	"meshes":[
		{
			"name":"Building_056_Mesh.024",
			"primitives":[
				{
					"attributes":{
						"POSITION":0,
						"NORMAL":1
					},
					"indices":2,
					"material":0
				}
			]
		},
		{
			"name":"Building_056_Mesh.025",
			"primitives":[
				{
					"attributes":{
						"POSITION":3,
						"NORMAL":4
					},
					"indices":5,
					"material":1
				}
			]
		},
		{
			"name":"Building_056_Mesh.026",
			"primitives":[
				{
					"attributes":{
						"POSITION":6,
						"NORMAL":7
					},
					"indices":8,
					"material":1
				}
			]
		}
	],
	"accessors":[
		{
			"bufferView":0,
			"componentType":5126,
			"count":857,
			"max":[
				0.06249985098838806,
				-0.28913044929504395,
				0.04347819834947586
			],
			"min":[
				0.013586848974227905,
				-0.3532608151435852,
				-6.332993507385254e-08
			],
			"type":"VEC3"
		},
		{
			"bufferView":1,
			"componentType":5126,
			"count":857,
			"type":"VEC3"
		},
		{
			"bufferView":2,
			"componentType":5123,
			"count":2736,
			"type":"SCALAR"
		},
		{
			"bufferView":3,
			"componentType":5126,
			"count":56,
			"max":[
				0.057608574628829956,
				-0.3065217137336731,
				0.04130428284406662
			],
			"min":[
				0.01847812533378601,
				-0.34565216302871704,
				0.04130428284406662
			],
			"type":"VEC3"
		},
		{
			"bufferView":4,
			"componentType":5126,
			"count":56,
			"type":"VEC3"
		},
		{
			"bufferView":5,
			"componentType":5123,
			"count":84,
			"type":"SCALAR"
		},
		{
			"bufferView":6,
			"componentType":5126,
			"count":4,
			"max":[
				0.046739012002944946,
				-0.3391304016113281,
				0.04130428284406662
			],
			"min":[
				0.02934768795967102,
				-0.3532608151435852,
				0.04130428284406662
			],
			"type":"VEC3"
		},
		{
			"bufferView":7,
			"componentType":5126,
			"count":4,
			"type":"VEC3"
		},
		{
			"bufferView":8,
			"componentType":5123,
			"count":6,
			"type":"SCALAR"
		}
	],
	"bufferViews":[
		{
			"buffer":0,
			"byteLength":10284,
			"byteOffset":0,
			"target":34962
		},
		{
			"buffer":0,
			"byteLength":10284,
			"byteOffset":10284,
			"target":34962
		},
		{
			"buffer":0,
			"byteLength":5472,
			"byteOffset":20568,
			"target":34963
		},
		{
			"buffer":0,
			"byteLength":672,
			"byteOffset":26040,
			"target":34962
		},
		{
			"buffer":0,
			"byteLength":672,
			"byteOffset":26712,
			"target":34962
		},
		{
			"buffer":0,
			"byteLength":168,
			"byteOffset":27384,
			"target":34963
		},
		{
			"buffer":0,
			"byteLength":48,
			"byteOffset":27552,
			"target":34962
		},
		{
			"buffer":0,
			"byteLength":48,
			"byteOffset":27600,
			"target":34962
		},
		{
			"buffer":0,
			"byteLength":12,
			"byteOffset":27648,
			"target":34963
		}
	],
	"buffers":[
		{
			"byteLength":27660,
			"uri":"binakapanacak5.bin"
		}
	]
}
