{
	"asset":{
		"generator":"Khronos glTF Blender I/O v4.2.60",
		"version":"2.0"
	},
	"scene":0,
	"scenes":[
		{
			"name":"Scene",
			"nodes":[
				0,
				1,
				2,
				3,
				4,
				5,
				6,
				7,
				8,
				9,
				10,
				11,
				12,
				13,
				14
			]
		}
	],
	"nodes":[
		{
			"mesh":0,
			"name":"Building_024.010"
		},
		{
			"mesh":1,
			"name":"Building_024.014"
		},
		{
			"mesh":2,
			"name":"Building_024.015"
		},
		{
			"mesh":3,
			"name":"Building_042.010"
		},
		{
			"mesh":4,
			"name":"Building_042.014"
		},
		{
			"mesh":5,
			"name":"Building_042.015"
		},
		{
			"mesh":6,
			"name":"Building_051.010"
		},
		{
			"mesh":7,
			"name":"Building_051.014"
		},
		{
			"mesh":8,
			"name":"Building_056.010"
		},
		{
			"mesh":9,
			"name":"Building_056.014"
		},
		{
			"mesh":10,
			"name":"Building_056.015"
		},
		{
			"mesh":11,
			"name":"Building_021.010"
		},
		{
			"mesh":12,
			"name":"Building_021.014"
		},
		{
			"mesh":13,
			"name":"Building_021.015"
		},
		{
			"mesh":14,
			"name":"Building_051.015"
		}
	],
	"materials":[
		{
			"doubleSided":true,
			"name":"BinaGrid.001",
			"pbrMetallicRoughness":{
				"baseColorFactor":[
					0.2874388098716736,
					0.3371638357639313,
					0.4178852438926697,
					1
				],
				"metallicFactor":0,
				"roughnessFactor":0.5
			}
		},
		{
			"doubleSided":true,
			"name":"PencereGrid",
			"pbrMetallicRoughness":{
				"baseColorFactor":[
					0.1499587893486023,
					0.17464761435985565,
					0.2122308313846588,
					1
				],
				"metallicFactor":0,
				"roughnessFactor":0.699999988079071
			}
		}
	],
	"meshes":[
		{
			"name":"Building_024_Mesh.014",
			"primitives":[
				{
					"attributes":{
						"POSITION":0,
						"NORMAL":1
					},
					"indices":2,
					"material":0
				}
			]
		},
		{
			"name":"Building_024_Mesh.016",
			"primitives":[
				{
					"attributes":{
						"POSITION":3,
						"NORMAL":4
					},
					"indices":5,
					"material":1
				}
			]
		},
		{
			"name":"Building_024_Mesh.017",
			"primitives":[
				{
					"attributes":{
						"POSITION":6,
						"NORMAL":7
					},
					"indices":8,
					"material":1
				}
			]
		},
		{
			"name":"Building_042_Mesh.024",
			"primitives":[
				{
					"attributes":{
						"POSITION":9,
						"NORMAL":10
					},
					"indices":11,
					"material":0
				}
			]
		},
		{
			"name":"Building_042_Mesh.025",
			"primitives":[
				{
					"attributes":{
						"POSITION":12,
						"NORMAL":13
					},
					"indices":14,
					"material":1
				}
			]
		},
		{
			"name":"Building_042_Mesh.026",
			"primitives":[
				{
					"attributes":{
						"POSITION":15,
						"NORMAL":16
					},
					"indices":8,
					"material":1
				}
			]
		},
		{
			"name":"Building_051_Mesh.024",
			"primitives":[
				{
					"attributes":{
						"POSITION":17,
						"NORMAL":18
					},
					"indices":19,
					"material":0
				}
			]
		},
		{
			"name":"Building_051_Mesh.025",
			"primitives":[
				{
					"attributes":{
						"POSITION":20,
						"NORMAL":21
					},
					"indices":22,
					"material":1
				}
			]
		},
		{
			"name":"Building_056_Mesh.024",
			"primitives":[
				{
					"attributes":{
						"POSITION":23,
						"NORMAL":24
					},
					"indices":25,
					"material":0
				}
			]
		},
		{
			"name":"Building_056_Mesh.025",
			"primitives":[
				{
					"attributes":{
						"POSITION":26,
						"NORMAL":27
					},
					"indices":5,
					"material":1
				}
			]
		},
		{
			"name":"Building_056_Mesh.026",
			"primitives":[
				{
					"attributes":{
						"POSITION":28,
						"NORMAL":29
					},
					"indices":8,
					"material":1
				}
			]
		},
		{
			"name":"Building_021_Mesh.014",
			"primitives":[
				{
					"attributes":{
						"POSITION":30,
						"NORMAL":31
					},
					"indices":32,
					"material":0
				}
			]
		},
		{
			"name":"Building_021_Mesh.016",
			"primitives":[
				{
					"attributes":{
						"POSITION":33,
						"NORMAL":34
					},
					"indices":35,
					"material":1
				}
			]
		},
		{
			"name":"Building_021_Mesh.017",
			"primitives":[
				{
					"attributes":{
						"POSITION":36,
						"NORMAL":37
					},
					"indices":8,
					"material":1
				}
			]
		},
		{
			"name":"Building_051_Mesh.027",
			"primitives":[
				{
					"attributes":{
						"POSITION":38,
						"NORMAL":39
					},
					"indices":8,
					"material":1
				}
			]
		}
	],
	"accessors":[
		{
			"bufferView":0,
			"componentType":5126,
			"count":831,
			"max":[
				-0.16576096415519714,
				-0.299999862909317,
				0.043478164821863174
			],
			"min":[
				-0.2146739959716797,
				-0.3532607853412628,
				-9.313225746154785e-08
			],
			"type":"VEC3"
		},
		{
			"bufferView":1,
			"componentType":5126,
			"count":831,
			"type":"VEC3"
		},
		{
			"bufferView":2,
			"componentType":5123,
			"count":2724,
			"type":"SCALAR"
		},
		{
			"bufferView":3,
			"componentType":5126,
			"count":56,
			"max":[
				-0.17065224051475525,
				-0.30652162432670593,
				0.04130425676703453
			],
			"min":[
				-0.2097826898097992,
				-0.34782591462135315,
				0.04130425676703453
			],
			"type":"VEC3"
		},
		{
			"bufferView":4,
			"componentType":5126,
			"count":56,
			"type":"VEC3"
		},
		{
			"bufferView":5,
			"componentType":5123,
			"count":84,
			"type":"SCALAR"
		},
		{
			"bufferView":6,
			"componentType":5126,
			"count":4,
			"max":[
				-0.18152180314064026,
				-0.33913031220436096,
				0.04130425676703453
			],
			"min":[
				-0.19891312718391418,
				-0.3532607853412628,
				0.04130425676703453
			],
			"type":"VEC3"
		},
		{
			"bufferView":7,
			"componentType":5126,
			"count":4,
			"type":"VEC3"
		},
		{
			"bufferView":8,
			"componentType":5123,
			"count":6,
			"type":"SCALAR"
		},
		{
			"bufferView":9,
			"componentType":5126,
			"count":515,
			"max":[
				-0.08967399597167969,
				-0.3054347038269043,
				0.05434782803058624
			],
			"min":[
				-0.13858702778816223,
				-0.3532608151435852,
				3.725290298461914e-09
			],
			"type":"VEC3"
		},
		{
			"bufferView":10,
			"componentType":5126,
			"count":515,
			"type":"VEC3"
		},
		{
			"bufferView":11,
			"componentType":5123,
			"count":1434,
			"type":"SCALAR"
		},
		{
			"bufferView":12,
			"componentType":5126,
			"count":28,
			"max":[
				-0.09456530213356018,
				-0.322826087474823,
				0.0521739199757576
			],
			"min":[
				-0.13369575142860413,
				-0.34999996423721313,
				0.0521739199757576
			],
			"type":"VEC3"
		},
		{
			"bufferView":13,
			"componentType":5126,
			"count":28,
			"type":"VEC3"
		},
		{
			"bufferView":14,
			"componentType":5123,
			"count":42,
			"type":"SCALAR"
		},
		{
			"bufferView":15,
			"componentType":5126,
			"count":4,
			"max":[
				-0.10543489456176758,
				-0.3391304016113281,
				0.0521739199757576
			],
			"min":[
				-0.12282615900039673,
				-0.3532608151435852,
				0.0521739199757576
			],
			"type":"VEC3"
		},
		{
			"bufferView":16,
			"componentType":5126,
			"count":4,
			"type":"VEC3"
		},
		{
			"bufferView":17,
			"componentType":5126,
			"count":879,
			"max":[
				-0.013587027788162231,
				-0.29347819089889526,
				0.05434776097536087
			],
			"min":[
				-0.06250002980232239,
				-0.3532607853412628,
				-5.960464477539063e-08
			],
			"type":"VEC3"
		},
		{
			"bufferView":18,
			"componentType":5126,
			"count":879,
			"type":"VEC3"
		},
		{
			"bufferView":19,
			"componentType":5123,
			"count":2829,
			"type":"SCALAR"
		},
		{
			"bufferView":20,
			"componentType":5126,
			"count":63,
			"max":[
				-0.018478363752365112,
				-0.3065216839313507,
				0.05217385292053223
			],
			"min":[
				-0.05760875344276428,
				-0.34565213322639465,
				0.05217385292053223
			],
			"type":"VEC3"
		},
		{
			"bufferView":21,
			"componentType":5126,
			"count":63,
			"type":"VEC3"
		},
		{
			"bufferView":22,
			"componentType":5123,
			"count":93,
			"type":"SCALAR"
		},
		{
			"bufferView":23,
			"componentType":5126,
			"count":857,
			"max":[
				0.06249985098838806,
				-0.28913044929504395,
				0.04347819834947586
			],
			"min":[
				0.013586848974227905,
				-0.3532608151435852,
				-6.332993507385254e-08
			],
			"type":"VEC3"
		},
		{
			"bufferView":24,
			"componentType":5126,
			"count":857,
			"type":"VEC3"
		},
		{
			"bufferView":25,
			"componentType":5123,
			"count":2736,
			"type":"SCALAR"
		},
		{
			"bufferView":26,
			"componentType":5126,
			"count":56,
			"max":[
				0.057608574628829956,
				-0.3065217137336731,
				0.04130428284406662
			],
			"min":[
				0.01847812533378601,
				-0.34565216302871704,
				0.04130428284406662
			],
			"type":"VEC3"
		},
		{
			"bufferView":27,
			"componentType":5126,
			"count":56,
			"type":"VEC3"
		},
		{
			"bufferView":28,
			"componentType":5126,
			"count":4,
			"max":[
				0.046739012002944946,
				-0.3391304016113281,
				0.04130428284406662
			],
			"min":[
				0.02934768795967102,
				-0.3532608151435852,
				0.04130428284406662
			],
			"type":"VEC3"
		},
		{
			"bufferView":29,
			"componentType":5126,
			"count":4,
			"type":"VEC3"
		},
		{
			"bufferView":30,
			"componentType":5126,
			"count":497,
			"max":[
				-0.2500000596046448,
				-0.28913038969039917,
				0.04227645322680473
			],
			"min":[
				-0.2826087474822998,
				-0.3532608151435852,
				-0.001201803795993328
			],
			"type":"VEC3"
		},
		{
			"bufferView":31,
			"componentType":5126,
			"count":497,
			"type":"VEC3"
		},
		{
			"bufferView":32,
			"componentType":5123,
			"count":1398,
			"type":"SCALAR"
		},
		{
			"bufferView":33,
			"componentType":5126,
			"count":36,
			"max":[
				-0.2554348409175873,
				-0.3065217137336731,
				0.04010253772139549
			],
			"min":[
				-0.2771739661693573,
				-0.3500000238418579,
				0.04010253772139549
			],
			"type":"VEC3"
		},
		{
			"bufferView":34,
			"componentType":5126,
			"count":36,
			"type":"VEC3"
		},
		{
			"bufferView":35,
			"componentType":5123,
			"count":54,
			"type":"SCALAR"
		},
		{
			"bufferView":36,
			"componentType":5126,
			"count":4,
			"max":[
				-0.26847830414772034,
				-0.3391304016113281,
				0.04010254144668579
			],
			"min":[
				-0.2771739661693573,
				-0.3532608151435852,
				0.04010254144668579
			],
			"type":"VEC3"
		},
		{
			"bufferView":37,
			"componentType":5126,
			"count":4,
			"type":"VEC3"
		},
		{
			"bufferView":38,
			"componentType":5126,
			"count":4,
			"max":[
				-0.018478333950042725,
				-0.33913034200668335,
				0.05217385292053223
			],
			"min":[
				-0.02500009536743164,
				-0.3532608151435852,
				0.05217385292053223
			],
			"type":"VEC3"
		},
		{
			"bufferView":39,
			"componentType":5126,
			"count":4,
			"type":"VEC3"
		}
	],
	"bufferViews":[
		{
			"buffer":0,
			"byteLength":9972,
			"byteOffset":0,
			"target":34962
		},
		{
			"buffer":0,
			"byteLength":9972,
			"byteOffset":9972,
			"target":34962
		},
		{
			"buffer":0,
			"byteLength":5448,
			"byteOffset":19944,
			"target":34963
		},
		{
			"buffer":0,
			"byteLength":672,
			"byteOffset":25392,
			"target":34962
		},
		{
			"buffer":0,
			"byteLength":672,
			"byteOffset":26064,
			"target":34962
		},
		{
			"buffer":0,
			"byteLength":168,
			"byteOffset":26736,
			"target":34963
		},
		{
			"buffer":0,
			"byteLength":48,
			"byteOffset":26904,
			"target":34962
		},
		{
			"buffer":0,
			"byteLength":48,
			"byteOffset":26952,
			"target":34962
		},
		{
			"buffer":0,
			"byteLength":12,
			"byteOffset":27000,
			"target":34963
		},
		{
			"buffer":0,
			"byteLength":6180,
			"byteOffset":27012,
			"target":34962
		},
		{
			"buffer":0,
			"byteLength":6180,
			"byteOffset":33192,
			"target":34962
		},
		{
			"buffer":0,
			"byteLength":2868,
			"byteOffset":39372,
			"target":34963
		},
		{
			"buffer":0,
			"byteLength":336,
			"byteOffset":42240,
			"target":34962
		},
		{
			"buffer":0,
			"byteLength":336,
			"byteOffset":42576,
			"target":34962
		},
		{
			"buffer":0,
			"byteLength":84,
			"byteOffset":42912,
			"target":34963
		},
		{
			"buffer":0,
			"byteLength":48,
			"byteOffset":42996,
			"target":34962
		},
		{
			"buffer":0,
			"byteLength":48,
			"byteOffset":43044,
			"target":34962
		},
		{
			"buffer":0,
			"byteLength":10548,
			"byteOffset":43092,
			"target":34962
		},
		{
			"buffer":0,
			"byteLength":10548,
			"byteOffset":53640,
			"target":34962
		},
		{
			"buffer":0,
			"byteLength":5658,
			"byteOffset":64188,
			"target":34963
		},
		{
			"buffer":0,
			"byteLength":756,
			"byteOffset":69848,
			"target":34962
		},
		{
			"buffer":0,
			"byteLength":756,
			"byteOffset":70604,
			"target":34962
		},
		{
			"buffer":0,
			"byteLength":186,
			"byteOffset":71360,
			"target":34963
		},
		{
			"buffer":0,
			"byteLength":10284,
			"byteOffset":71548,
			"target":34962
		},
		{
			"buffer":0,
			"byteLength":10284,
			"byteOffset":81832,
			"target":34962
		},
		{
			"buffer":0,
			"byteLength":5472,
			"byteOffset":92116,
			"target":34963
		},
		{
			"buffer":0,
			"byteLength":672,
			"byteOffset":97588,
			"target":34962
		},
		{
			"buffer":0,
			"byteLength":672,
			"byteOffset":98260,
			"target":34962
		},
		{
			"buffer":0,
			"byteLength":48,
			"byteOffset":98932,
			"target":34962
		},
		{
			"buffer":0,
			"byteLength":48,
			"byteOffset":98980,
			"target":34962
		},
		{
			"buffer":0,
			"byteLength":5964,
			"byteOffset":99028,
			"target":34962
		},
		{
			"buffer":0,
			"byteLength":5964,
			"byteOffset":104992,
			"target":34962
		},
		{
			"buffer":0,
			"byteLength":2796,
			"byteOffset":110956,
			"target":34963
		},
		{
			"buffer":0,
			"byteLength":432,
			"byteOffset":113752,
			"target":34962
		},
		{
			"buffer":0,
			"byteLength":432,
			"byteOffset":114184,
			"target":34962
		},
		{
			"buffer":0,
			"byteLength":108,
			"byteOffset":114616,
			"target":34963
		},
		{
			"buffer":0,
			"byteLength":48,
			"byteOffset":114724,
			"target":34962
		},
		{
			"buffer":0,
			"byteLength":48,
			"byteOffset":114772,
			"target":34962
		},
		{
			"buffer":0,
			"byteLength":48,
			"byteOffset":114820,
			"target":34962
		},
		{
			"buffer":0,
			"byteLength":48,
			"byteOffset":114868,
			"target":34962
		}
	],
	"buffers":[
		{
			"byteLength":114916,
			"uri":"binagrid.bin"
		}
	]
}
