{
	"asset":{
		"generator":"Khronos glTF Blender I/O v4.2.60",
		"version":"2.0"
	},
	"scene":0,
	"scenes":[
		{
			"name":"Scene",
			"nodes":[
				0,
				1,
				2,
				3,
				4
			]
		}
	],
	"nodes":[
		{
			"mesh":0,
			"name":"\u015fimsek1"
		},
		{
			"mesh":1,
			"name":"Building_001.010"
		},
		{
			"mesh":2,
			"name":"Building_001_RoofCap_0.004"
		},
		{
			"mesh":3,
			"name":"Building_007.012"
		},
		{
			"mesh":4,
			"name":"Building_007_RoofCap_0.004"
		}
	],
	"materials":[
		{
			"alphaMode":"BLEND",
			"doubleSided":true,
			"name":"Material.006",
			"pbrMetallicRoughness":{
				"baseColorFactor":[
					0.9822452664375305,
					0.38132646679878235,
					0.0030353753827512264,
					0.20000000298023224
				],
				"metallicFactor":0,
				"roughnessFactor":0.5
			}
		},
		{
			"doubleSided":true,
			"name":"PencereSolar.009",
			"pbrMetallicRoughness":{
				"baseColorFactor":[
					0.9822452664375305,
					0.38132646679878235,
					0.0030353753827512264,
					1
				],
				"metallicFactor":0,
				"roughnessFactor":0.5
			}
		},
		{
			"doubleSided":true,
			"name":"Mat_Roof_Cap",
			"pbrMetallicRoughness":{
				"baseColorFactor":[
					0.9822452664375305,
					0.38132646679878235,
					0.0030353753827512264,
					1
				],
				"metallicFactor":0,
				"roughnessFactor":0.699999988079071
			}
		},
		{
			"doubleSided":true,
			"name":"BinaSolar",
			"pbrMetallicRoughness":{
				"baseColorFactor":[
					0,
					0.08021967113018036,
					0.7230553030967712,
					1
				],
				"metallicFactor":0,
				"roughnessFactor":0.699999988079071
			}
		},
		{
			"doubleSided":true,
			"name":"PencereSolarKapal\u0131",
			"pbrMetallicRoughness":{
				"baseColorFactor":[
					0,
					0.04817177355289459,
					0.3185468912124634,
					1
				],
				"metallicFactor":0,
				"roughnessFactor":0.699999988079071
			}
		}
	],
	"meshes":[
		{
			"name":"Plane.073",
			"primitives":[
				{
					"attributes":{
						"POSITION":0,
						"NORMAL":1,
						"TEXCOORD_0":2
					},
					"indices":3,
					"material":0
				}
			]
		},
		{
			"name":"Building_001_Mesh.010",
			"primitives":[
				{
					"attributes":{
						"POSITION":4,
						"NORMAL":5
					},
					"indices":6,
					"material":1
				}
			]
		},
		{
			"name":"Building_001_RoofCap_0_Mesh.004",
			"primitives":[
				{
					"attributes":{
						"POSITION":7,
						"NORMAL":8
					},
					"indices":9,
					"material":2
				},
				{
					"attributes":{
						"POSITION":10,
						"NORMAL":11
					},
					"indices":12,
					"material":3
				},
				{
					"attributes":{
						"POSITION":13,
						"NORMAL":14
					},
					"indices":15,
					"material":4
				}
			]
		},
		{
			"name":"Building_007_Mesh.012",
			"primitives":[
				{
					"attributes":{
						"POSITION":16,
						"NORMAL":17
					},
					"indices":18,
					"material":1
				}
			]
		},
		{
			"name":"Building_007_RoofCap_0_Mesh.004",
			"primitives":[
				{
					"attributes":{
						"POSITION":19,
						"NORMAL":20
					},
					"indices":21,
					"material":2
				},
				{
					"attributes":{
						"POSITION":22,
						"NORMAL":23
					},
					"indices":24,
					"material":3
				},
				{
					"attributes":{
						"POSITION":25,
						"NORMAL":26
					},
					"indices":27,
					"material":4
				}
			]
		}
	],
	"accessors":[
		{
			"bufferView":0,
			"componentType":5126,
			"count":54,
			"max":[
				-0.3630390763282776,
				-0.3917785882949829,
				0.031974900513887405
			],
			"min":[
				-0.40690702199935913,
				-0.470816433429718,
				0.016848046332597733
			],
			"type":"VEC3"
		},
		{
			"bufferView":1,
			"componentType":5126,
			"count":54,
			"type":"VEC3"
		},
		{
			"bufferView":2,
			"componentType":5126,
			"count":54,
			"type":"VEC2"
		},
		{
			"bufferView":3,
			"componentType":5123,
			"count":96,
			"type":"SCALAR"
		},
		{
			"bufferView":4,
			"componentType":5126,
			"count":48,
			"max":[
				-0.3989131450653076,
				-0.3065216541290283,
				0.042304277420043945
			],
			"min":[
				-0.43804359436035156,
				-0.3456520438194275,
				0.042304277420043945
			],
			"type":"VEC3"
		},
		{
			"bufferView":5,
			"componentType":5126,
			"count":48,
			"type":"VEC3"
		},
		{
			"bufferView":6,
			"componentType":5123,
			"count":72,
			"type":"SCALAR"
		},
		{
			"bufferView":7,
			"componentType":5126,
			"count":24,
			"max":[
				-0.39808568358421326,
				-0.294400691986084,
				0.03933337703347206
			],
			"min":[
				-0.4372161030769348,
				-0.2998259663581848,
				0.004347854293882847
			],
			"type":"VEC3"
		},
		{
			"bufferView":8,
			"componentType":5126,
			"count":24,
			"type":"VEC3"
		},
		{
			"bufferView":9,
			"componentType":5123,
			"count":36,
			"type":"SCALAR"
		},
		{
			"bufferView":10,
			"componentType":5126,
			"count":820,
			"max":[
				-0.3940218389034271,
				-0.2999998927116394,
				0.043478287756443024
			],
			"min":[
				-0.44293490052223206,
				-0.3532607853412628,
				2.9802322387695312e-08
			],
			"type":"VEC3"
		},
		{
			"bufferView":11,
			"componentType":5126,
			"count":820,
			"type":"VEC3"
		},
		{
			"bufferView":12,
			"componentType":5123,
			"count":2664,
			"type":"SCALAR"
		},
		{
			"bufferView":13,
			"componentType":5126,
			"count":52,
			"max":[
				-0.3989131450653076,
				-0.3065216541290283,
				0.04130437597632408
			],
			"min":[
				-0.43804359436035156,
				-0.3532607853412628,
				0.04130437597632408
			],
			"type":"VEC3"
		},
		{
			"bufferView":14,
			"componentType":5126,
			"count":52,
			"type":"VEC3"
		},
		{
			"bufferView":15,
			"componentType":5123,
			"count":78,
			"type":"SCALAR"
		},
		{
			"bufferView":16,
			"componentType":5126,
			"count":28,
			"max":[
				-0.32282620668411255,
				-0.3228260278701782,
				0.05317385494709015
			],
			"min":[
				-0.3619566261768341,
				-0.34565210342407227,
				0.05317385494709015
			],
			"type":"VEC3"
		},
		{
			"bufferView":17,
			"componentType":5126,
			"count":28,
			"type":"VEC3"
		},
		{
			"bufferView":18,
			"componentType":5123,
			"count":42,
			"type":"SCALAR"
		},
		{
			"bufferView":19,
			"componentType":5126,
			"count":24,
			"max":[
				-0.3209688067436218,
				-0.310749888420105,
				0.04369460791349411
			],
			"min":[
				-0.3600992262363434,
				-0.3161739110946655,
				0.010869596153497696
			],
			"type":"VEC3"
		},
		{
			"bufferView":20,
			"componentType":5126,
			"count":24,
			"type":"VEC3"
		},
		{
			"bufferView":21,
			"componentType":5123,
			"count":36,
			"type":"SCALAR"
		},
		{
			"bufferView":22,
			"componentType":5126,
			"count":248,
			"max":[
				-0.31793490052223206,
				-0.3163043260574341,
				0.05434786155819893
			],
			"min":[
				-0.3668479323387146,
				-0.3532608151435852,
				2.9802322387695312e-08
			],
			"type":"VEC3"
		},
		{
			"bufferView":23,
			"componentType":5126,
			"count":248,
			"type":"VEC3"
		},
		{
			"bufferView":24,
			"componentType":5123,
			"count":561,
			"type":"SCALAR"
		},
		{
			"bufferView":25,
			"componentType":5126,
			"count":32,
			"max":[
				-0.32282620668411255,
				-0.3228260278701782,
				0.05217394232749939
			],
			"min":[
				-0.3619566261768341,
				-0.3532608151435852,
				0.05217394232749939
			],
			"type":"VEC3"
		},
		{
			"bufferView":26,
			"componentType":5126,
			"count":32,
			"type":"VEC3"
		},
		{
			"bufferView":27,
			"componentType":5123,
			"count":48,
			"type":"SCALAR"
		}
	],
	"bufferViews":[
		{
			"buffer":0,
			"byteLength":648,
			"byteOffset":0,
			"target":34962
		},
		{
			"buffer":0,
			"byteLength":648,
			"byteOffset":648,
			"target":34962
		},
		{
			"buffer":0,
			"byteLength":432,
			"byteOffset":1296,
			"target":34962
		},
		{
			"buffer":0,
			"byteLength":192,
			"byteOffset":1728,
			"target":34963
		},
		{
			"buffer":0,
			"byteLength":576,
			"byteOffset":1920,
			"target":34962
		},
		{
			"buffer":0,
			"byteLength":576,
			"byteOffset":2496,
			"target":34962
		},
		{
			"buffer":0,
			"byteLength":144,
			"byteOffset":3072,
			"target":34963
		},
		{
			"buffer":0,
			"byteLength":288,
			"byteOffset":3216,
			"target":34962
		},
		{
			"buffer":0,
			"byteLength":288,
			"byteOffset":3504,
			"target":34962
		},
		{
			"buffer":0,
			"byteLength":72,
			"byteOffset":3792,
			"target":34963
		},
		{
			"buffer":0,
			"byteLength":9840,
			"byteOffset":3864,
			"target":34962
		},
		{
			"buffer":0,
			"byteLength":9840,
			"byteOffset":13704,
			"target":34962
		},
		{
			"buffer":0,
			"byteLength":5328,
			"byteOffset":23544,
			"target":34963
		},
		{
			"buffer":0,
			"byteLength":624,
			"byteOffset":28872,
			"target":34962
		},
		{
			"buffer":0,
			"byteLength":624,
			"byteOffset":29496,
			"target":34962
		},
		{
			"buffer":0,
			"byteLength":156,
			"byteOffset":30120,
			"target":34963
		},
		{
			"buffer":0,
			"byteLength":336,
			"byteOffset":30276,
			"target":34962
		},
		{
			"buffer":0,
			"byteLength":336,
			"byteOffset":30612,
			"target":34962
		},
		{
			"buffer":0,
			"byteLength":84,
			"byteOffset":30948,
			"target":34963
		},
		{
			"buffer":0,
			"byteLength":288,
			"byteOffset":31032,
			"target":34962
		},
		{
			"buffer":0,
			"byteLength":288,
			"byteOffset":31320,
			"target":34962
		},
		{
			"buffer":0,
			"byteLength":72,
			"byteOffset":31608,
			"target":34963
		},
		{
			"buffer":0,
			"byteLength":2976,
			"byteOffset":31680,
			"target":34962
		},
		{
			"buffer":0,
			"byteLength":2976,
			"byteOffset":34656,
			"target":34962
		},
		{
			"buffer":0,
			"byteLength":1122,
			"byteOffset":37632,
			"target":34963
		},
		{
			"buffer":0,
			"byteLength":384,
			"byteOffset":38756,
			"target":34962
		},
		{
			"buffer":0,
			"byteLength":384,
			"byteOffset":39140,
			"target":34962
		},
		{
			"buffer":0,
			"byteLength":96,
			"byteOffset":39524,
			"target":34963
		}
	],
	"buffers":[
		{
			"byteLength":39620,
			"uri":"binamevcut.bin"
		}
	]
}
