{
	"asset":{
		"generator":"Khronos glTF Blender I/O v4.2.60",
		"version":"2.0"
	},
	"scene":0,
	"scenes":[
		{
			"name":"Scene",
			"nodes":[
				0,
				1,
				2,
				3,
				4,
				5,
				6,
				7,
				8,
				9,
				10,
				11,
				12,
				13,
				14,
				15,
				16,
				17,
				18,
				19
			]
		}
	],
	"nodes":[
		{
			"mesh":0,
			"name":"Plane.035",
			"rotation":[
				0.7071068286895752,
				0,
				0,
				0.7071068286895752
			],
			"scale":[
				0.4891304075717926,
				2.17391300201416,
				0.23999999463558197
			]
		},
		{
			"mesh":1,
			"name":"Simsek3.010",
			"scale":[
				2.4251999855041504,
				2.4251999855041504,
				2.4251999855041504
			]
		},
		{
			"mesh":2,
			"name":"Simsek3.015",
			"scale":[
				0.6626999974250793,
				0.6626999974250793,
				0.6626999974250793
			]
		},
		{
			"mesh":3,
			"name":"Building_024.010"
		},
		{
			"mesh":4,
			"name":"Building_024.014"
		},
		{
			"mesh":5,
			"name":"Building_024.015"
		},
		{
			"mesh":6,
			"name":"Building_042.010"
		},
		{
			"mesh":7,
			"name":"Building_042.014"
		},
		{
			"mesh":8,
			"name":"Building_042.015"
		},
		{
			"mesh":9,
			"name":"Building_051.010"
		},
		{
			"mesh":10,
			"name":"Building_051.014"
		},
		{
			"mesh":11,
			"name":"Building_056.010"
		},
		{
			"mesh":12,
			"name":"Building_056.014"
		},
		{
			"mesh":13,
			"name":"Building_056.015"
		},
		{
			"mesh":14,
			"name":"Building_021.010"
		},
		{
			"mesh":15,
			"name":"Building_021.014"
		},
		{
			"mesh":16,
			"name":"Building_021.015"
		},
		{
			"mesh":17,
			"name":"Building_051.015"
		},
		{
			"mesh":18,
			"name":"Building_001.010"
		},
		{
			"mesh":19,
			"name":"Building_007.012"
		}
	],
	"materials":[
		{
			"alphaMode":"BLEND",
			"doubleSided":true,
			"name":"Material.004",
			"pbrMetallicRoughness":{
				"baseColorFactor":[
					0.9822452664375305,
					0.38132646679878235,
					0.0030353753827512264,
					0.5
				],
				"metallicFactor":0,
				"roughnessFactor":0.5
			}
		},
		{
			"alphaMode":"BLEND",
			"doubleSided":true,
			"name":"Material.006",
			"pbrMetallicRoughness":{
				"baseColorFactor":[
					0.9822452664375305,
					0.38132646679878235,
					0.0030353753827512264,
					0.20000000298023224
				],
				"metallicFactor":0,
				"roughnessFactor":0.5
			}
		},
		{
			"doubleSided":true,
			"name":"PencereSolar.009",
			"pbrMetallicRoughness":{
				"baseColorFactor":[
					0.9822452664375305,
					0.38132646679878235,
					0.0030353753827512264,
					1
				],
				"metallicFactor":0,
				"roughnessFactor":0.5
			}
		},
		{
			"doubleSided":true,
			"name":"BinaGrid.001",
			"pbrMetallicRoughness":{
				"baseColorFactor":[
					0.2874388098716736,
					0.3371638357639313,
					0.4178852438926697,
					1
				],
				"metallicFactor":0,
				"roughnessFactor":0.5
			}
		},
		{
			"doubleSided":true,
			"name":"PencereGrid",
			"pbrMetallicRoughness":{
				"baseColorFactor":[
					0.1499587893486023,
					0.17464761435985565,
					0.2122308313846588,
					1
				],
				"metallicFactor":0,
				"roughnessFactor":0.699999988079071
			}
		}
	],
	"meshes":[
		{
			"name":"Plane.042",
			"primitives":[
				{
					"attributes":{
						"POSITION":0,
						"NORMAL":1,
						"TEXCOORD_0":2
					},
					"indices":3,
					"material":0
				}
			]
		},
		{
			"name":"Plane.074",
			"primitives":[
				{
					"attributes":{
						"POSITION":4,
						"NORMAL":5,
						"TEXCOORD_0":6
					},
					"indices":7,
					"material":1
				}
			]
		},
		{
			"name":"Plane.008",
			"primitives":[
				{
					"attributes":{
						"POSITION":8,
						"NORMAL":9,
						"TEXCOORD_0":10
					},
					"indices":7,
					"material":2
				}
			]
		},
		{
			"name":"Building_024_Mesh.014",
			"primitives":[
				{
					"attributes":{
						"POSITION":11,
						"NORMAL":12
					},
					"indices":13,
					"material":3
				}
			]
		},
		{
			"name":"Building_024_Mesh.016",
			"primitives":[
				{
					"attributes":{
						"POSITION":14,
						"NORMAL":15
					},
					"indices":16,
					"material":4
				}
			]
		},
		{
			"name":"Building_024_Mesh.017",
			"primitives":[
				{
					"attributes":{
						"POSITION":17,
						"NORMAL":18
					},
					"indices":19,
					"material":4
				}
			]
		},
		{
			"name":"Building_042_Mesh.024",
			"primitives":[
				{
					"attributes":{
						"POSITION":20,
						"NORMAL":21
					},
					"indices":22,
					"material":3
				}
			]
		},
		{
			"name":"Building_042_Mesh.025",
			"primitives":[
				{
					"attributes":{
						"POSITION":23,
						"NORMAL":24
					},
					"indices":25,
					"material":4
				}
			]
		},
		{
			"name":"Building_042_Mesh.026",
			"primitives":[
				{
					"attributes":{
						"POSITION":26,
						"NORMAL":27
					},
					"indices":19,
					"material":4
				}
			]
		},
		{
			"name":"Building_051_Mesh.024",
			"primitives":[
				{
					"attributes":{
						"POSITION":28,
						"NORMAL":29
					},
					"indices":30,
					"material":3
				}
			]
		},
		{
			"name":"Building_051_Mesh.025",
			"primitives":[
				{
					"attributes":{
						"POSITION":31,
						"NORMAL":32
					},
					"indices":33,
					"material":4
				}
			]
		},
		{
			"name":"Building_056_Mesh.024",
			"primitives":[
				{
					"attributes":{
						"POSITION":34,
						"NORMAL":35
					},
					"indices":36,
					"material":3
				}
			]
		},
		{
			"name":"Building_056_Mesh.025",
			"primitives":[
				{
					"attributes":{
						"POSITION":37,
						"NORMAL":38
					},
					"indices":16,
					"material":4
				}
			]
		},
		{
			"name":"Building_056_Mesh.026",
			"primitives":[
				{
					"attributes":{
						"POSITION":39,
						"NORMAL":40
					},
					"indices":19,
					"material":4
				}
			]
		},
		{
			"name":"Building_021_Mesh.014",
			"primitives":[
				{
					"attributes":{
						"POSITION":41,
						"NORMAL":42
					},
					"indices":43,
					"material":3
				}
			]
		},
		{
			"name":"Building_021_Mesh.016",
			"primitives":[
				{
					"attributes":{
						"POSITION":44,
						"NORMAL":45
					},
					"indices":46,
					"material":4
				}
			]
		},
		{
			"name":"Building_021_Mesh.017",
			"primitives":[
				{
					"attributes":{
						"POSITION":47,
						"NORMAL":48
					},
					"indices":19,
					"material":4
				}
			]
		},
		{
			"name":"Building_051_Mesh.027",
			"primitives":[
				{
					"attributes":{
						"POSITION":49,
						"NORMAL":50
					},
					"indices":19,
					"material":4
				}
			]
		},
		{
			"name":"Building_001_Mesh.010",
			"primitives":[
				{
					"attributes":{
						"POSITION":51,
						"NORMAL":52
					},
					"indices":53,
					"material":2
				}
			]
		},
		{
			"name":"Building_007_Mesh.012",
			"primitives":[
				{
					"attributes":{
						"POSITION":54,
						"NORMAL":55
					},
					"indices":56,
					"material":2
				}
			]
		}
	],
	"accessors":[
		{
			"bufferView":0,
			"componentType":5126,
			"count":4,
			"max":[
				-0.6222224831581116,
				-4.6268109343827746e-08,
				1.5490773916244507
			],
			"min":[
				-0.9333337545394897,
				-4.81307544930587e-08,
				1.1911228895187378
			],
			"type":"VEC3"
		},
		{
			"bufferView":1,
			"componentType":5126,
			"count":4,
			"type":"VEC3"
		},
		{
			"bufferView":2,
			"componentType":5126,
			"count":4,
			"type":"VEC2"
		},
		{
			"bufferView":3,
			"componentType":5123,
			"count":6,
			"type":"SCALAR"
		},
		{
			"bufferView":4,
			"componentType":5126,
			"count":54,
			"max":[
				-0.14811746776103973,
				-0.16154485940933228,
				0.014555774629116058
			],
			"min":[
				-0.1701827198266983,
				-0.20130032300949097,
				0.006947074551135302
			],
			"type":"VEC3"
		},
		{
			"bufferView":5,
			"componentType":5126,
			"count":54,
			"type":"VEC3"
		},
		{
			"bufferView":6,
			"componentType":5126,
			"count":54,
			"type":"VEC2"
		},
		{
			"bufferView":7,
			"componentType":5123,
			"count":96,
			"type":"SCALAR"
		},
		{
			"bufferView":8,
			"componentType":5126,
			"count":54,
			"max":[
				-0.5653181076049805,
				-0.591185450553894,
				0.03303203731775284
			],
			"min":[
				-0.5873833298683167,
				-0.6309409141540527,
				0.025423340499401093
			],
			"type":"VEC3"
		},
		{
			"bufferView":9,
			"componentType":5126,
			"count":54,
			"type":"VEC3"
		},
		{
			"bufferView":10,
			"componentType":5126,
			"count":54,
			"type":"VEC2"
		},
		{
			"bufferView":11,
			"componentType":5126,
			"count":831,
			"max":[
				-0.16576096415519714,
				-0.299999862909317,
				0.043478164821863174
			],
			"min":[
				-0.2146739959716797,
				-0.3532607853412628,
				-9.313225746154785e-08
			],
			"type":"VEC3"
		},
		{
			"bufferView":12,
			"componentType":5126,
			"count":831,
			"type":"VEC3"
		},
		{
			"bufferView":13,
			"componentType":5123,
			"count":2724,
			"type":"SCALAR"
		},
		{
			"bufferView":14,
			"componentType":5126,
			"count":56,
			"max":[
				-0.17065224051475525,
				-0.30652162432670593,
				0.04130425676703453
			],
			"min":[
				-0.2097826898097992,
				-0.34782591462135315,
				0.04130425676703453
			],
			"type":"VEC3"
		},
		{
			"bufferView":15,
			"componentType":5126,
			"count":56,
			"type":"VEC3"
		},
		{
			"bufferView":16,
			"componentType":5123,
			"count":84,
			"type":"SCALAR"
		},
		{
			"bufferView":17,
			"componentType":5126,
			"count":4,
			"max":[
				-0.18152180314064026,
				-0.33913031220436096,
				0.04130425676703453
			],
			"min":[
				-0.19891312718391418,
				-0.3532607853412628,
				0.04130425676703453
			],
			"type":"VEC3"
		},
		{
			"bufferView":18,
			"componentType":5126,
			"count":4,
			"type":"VEC3"
		},
		{
			"bufferView":19,
			"componentType":5123,
			"count":6,
			"type":"SCALAR"
		},
		{
			"bufferView":20,
			"componentType":5126,
			"count":515,
			"max":[
				-0.08967399597167969,
				-0.3054347038269043,
				0.05434782803058624
			],
			"min":[
				-0.13858702778816223,
				-0.3532608151435852,
				3.725290298461914e-09
			],
			"type":"VEC3"
		},
		{
			"bufferView":21,
			"componentType":5126,
			"count":515,
			"type":"VEC3"
		},
		{
			"bufferView":22,
			"componentType":5123,
			"count":1434,
			"type":"SCALAR"
		},
		{
			"bufferView":23,
			"componentType":5126,
			"count":28,
			"max":[
				-0.09456530213356018,
				-0.322826087474823,
				0.0521739199757576
			],
			"min":[
				-0.13369575142860413,
				-0.34999996423721313,
				0.0521739199757576
			],
			"type":"VEC3"
		},
		{
			"bufferView":24,
			"componentType":5126,
			"count":28,
			"type":"VEC3"
		},
		{
			"bufferView":25,
			"componentType":5123,
			"count":42,
			"type":"SCALAR"
		},
		{
			"bufferView":26,
			"componentType":5126,
			"count":4,
			"max":[
				-0.10543489456176758,
				-0.3391304016113281,
				0.0521739199757576
			],
			"min":[
				-0.12282615900039673,
				-0.3532608151435852,
				0.0521739199757576
			],
			"type":"VEC3"
		},
		{
			"bufferView":27,
			"componentType":5126,
			"count":4,
			"type":"VEC3"
		},
		{
			"bufferView":28,
			"componentType":5126,
			"count":879,
			"max":[
				-0.013587027788162231,
				-0.29347819089889526,
				0.05434776097536087
			],
			"min":[
				-0.06250002980232239,
				-0.3532607853412628,
				-5.960464477539063e-08
			],
			"type":"VEC3"
		},
		{
			"bufferView":29,
			"componentType":5126,
			"count":879,
			"type":"VEC3"
		},
		{
			"bufferView":30,
			"componentType":5123,
			"count":2829,
			"type":"SCALAR"
		},
		{
			"bufferView":31,
			"componentType":5126,
			"count":63,
			"max":[
				-0.018478363752365112,
				-0.3065216839313507,
				0.05217385292053223
			],
			"min":[
				-0.05760875344276428,
				-0.34565213322639465,
				0.05217385292053223
			],
			"type":"VEC3"
		},
		{
			"bufferView":32,
			"componentType":5126,
			"count":63,
			"type":"VEC3"
		},
		{
			"bufferView":33,
			"componentType":5123,
			"count":93,
			"type":"SCALAR"
		},
		{
			"bufferView":34,
			"componentType":5126,
			"count":857,
			"max":[
				0.06249985098838806,
				-0.28913044929504395,
				0.04347819834947586
			],
			"min":[
				0.013586848974227905,
				-0.3532608151435852,
				-6.332993507385254e-08
			],
			"type":"VEC3"
		},
		{
			"bufferView":35,
			"componentType":5126,
			"count":857,
			"type":"VEC3"
		},
		{
			"bufferView":36,
			"componentType":5123,
			"count":2736,
			"type":"SCALAR"
		},
		{
			"bufferView":37,
			"componentType":5126,
			"count":56,
			"max":[
				0.057608574628829956,
				-0.3065217137336731,
				0.04130428284406662
			],
			"min":[
				0.01847812533378601,
				-0.34565216302871704,
				0.04130428284406662
			],
			"type":"VEC3"
		},
		{
			"bufferView":38,
			"componentType":5126,
			"count":56,
			"type":"VEC3"
		},
		{
			"bufferView":39,
			"componentType":5126,
			"count":4,
			"max":[
				0.046739012002944946,
				-0.3391304016113281,
				0.04130428284406662
			],
			"min":[
				0.02934768795967102,
				-0.3532608151435852,
				0.04130428284406662
			],
			"type":"VEC3"
		},
		{
			"bufferView":40,
			"componentType":5126,
			"count":4,
			"type":"VEC3"
		},
		{
			"bufferView":41,
			"componentType":5126,
			"count":497,
			"max":[
				-0.2500000596046448,
				-0.28913038969039917,
				0.04227645322680473
			],
			"min":[
				-0.2826087474822998,
				-0.3532608151435852,
				-0.001201803795993328
			],
			"type":"VEC3"
		},
		{
			"bufferView":42,
			"componentType":5126,
			"count":497,
			"type":"VEC3"
		},
		{
			"bufferView":43,
			"componentType":5123,
			"count":1398,
			"type":"SCALAR"
		},
		{
			"bufferView":44,
			"componentType":5126,
			"count":36,
			"max":[
				-0.2554348409175873,
				-0.3065217137336731,
				0.04010253772139549
			],
			"min":[
				-0.2771739661693573,
				-0.3500000238418579,
				0.04010253772139549
			],
			"type":"VEC3"
		},
		{
			"bufferView":45,
			"componentType":5126,
			"count":36,
			"type":"VEC3"
		},
		{
			"bufferView":46,
			"componentType":5123,
			"count":54,
			"type":"SCALAR"
		},
		{
			"bufferView":47,
			"componentType":5126,
			"count":4,
			"max":[
				-0.26847830414772034,
				-0.3391304016113281,
				0.04010254144668579
			],
			"min":[
				-0.2771739661693573,
				-0.3532608151435852,
				0.04010254144668579
			],
			"type":"VEC3"
		},
		{
			"bufferView":48,
			"componentType":5126,
			"count":4,
			"type":"VEC3"
		},
		{
			"bufferView":49,
			"componentType":5126,
			"count":4,
			"max":[
				-0.018478333950042725,
				-0.33913034200668335,
				0.05217385292053223
			],
			"min":[
				-0.02500009536743164,
				-0.3532608151435852,
				0.05217385292053223
			],
			"type":"VEC3"
		},
		{
			"bufferView":50,
			"componentType":5126,
			"count":4,
			"type":"VEC3"
		},
		{
			"bufferView":51,
			"componentType":5126,
			"count":48,
			"max":[
				-0.3989131450653076,
				-0.3065216541290283,
				0.042304277420043945
			],
			"min":[
				-0.43804359436035156,
				-0.3456520438194275,
				0.042304277420043945
			],
			"type":"VEC3"
		},
		{
			"bufferView":52,
			"componentType":5126,
			"count":48,
			"type":"VEC3"
		},
		{
			"bufferView":53,
			"componentType":5123,
			"count":72,
			"type":"SCALAR"
		},
		{
			"bufferView":54,
			"componentType":5126,
			"count":28,
			"max":[
				-0.32282620668411255,
				-0.3228260278701782,
				0.05317385494709015
			],
			"min":[
				-0.3619566261768341,
				-0.34565210342407227,
				0.05317385494709015
			],
			"type":"VEC3"
		},
		{
			"bufferView":55,
			"componentType":5126,
			"count":28,
			"type":"VEC3"
		},
		{
			"bufferView":56,
			"componentType":5123,
			"count":42,
			"type":"SCALAR"
		}
	],
	"bufferViews":[
		{
			"buffer":0,
			"byteLength":48,
			"byteOffset":0,
			"target":34962
		},
		{
			"buffer":0,
			"byteLength":48,
			"byteOffset":48,
			"target":34962
		},
		{
			"buffer":0,
			"byteLength":32,
			"byteOffset":96,
			"target":34962
		},
		{
			"buffer":0,
			"byteLength":12,
			"byteOffset":128,
			"target":34963
		},
		{
			"buffer":0,
			"byteLength":648,
			"byteOffset":140,
			"target":34962
		},
		{
			"buffer":0,
			"byteLength":648,
			"byteOffset":788,
			"target":34962
		},
		{
			"buffer":0,
			"byteLength":432,
			"byteOffset":1436,
			"target":34962
		},
		{
			"buffer":0,
			"byteLength":192,
			"byteOffset":1868,
			"target":34963
		},
		{
			"buffer":0,
			"byteLength":648,
			"byteOffset":2060,
			"target":34962
		},
		{
			"buffer":0,
			"byteLength":648,
			"byteOffset":2708,
			"target":34962
		},
		{
			"buffer":0,
			"byteLength":432,
			"byteOffset":3356,
			"target":34962
		},
		{
			"buffer":0,
			"byteLength":9972,
			"byteOffset":3788,
			"target":34962
		},
		{
			"buffer":0,
			"byteLength":9972,
			"byteOffset":13760,
			"target":34962
		},
		{
			"buffer":0,
			"byteLength":5448,
			"byteOffset":23732,
			"target":34963
		},
		{
			"buffer":0,
			"byteLength":672,
			"byteOffset":29180,
			"target":34962
		},
		{
			"buffer":0,
			"byteLength":672,
			"byteOffset":29852,
			"target":34962
		},
		{
			"buffer":0,
			"byteLength":168,
			"byteOffset":30524,
			"target":34963
		},
		{
			"buffer":0,
			"byteLength":48,
			"byteOffset":30692,
			"target":34962
		},
		{
			"buffer":0,
			"byteLength":48,
			"byteOffset":30740,
			"target":34962
		},
		{
			"buffer":0,
			"byteLength":12,
			"byteOffset":30788,
			"target":34963
		},
		{
			"buffer":0,
			"byteLength":6180,
			"byteOffset":30800,
			"target":34962
		},
		{
			"buffer":0,
			"byteLength":6180,
			"byteOffset":36980,
			"target":34962
		},
		{
			"buffer":0,
			"byteLength":2868,
			"byteOffset":43160,
			"target":34963
		},
		{
			"buffer":0,
			"byteLength":336,
			"byteOffset":46028,
			"target":34962
		},
		{
			"buffer":0,
			"byteLength":336,
			"byteOffset":46364,
			"target":34962
		},
		{
			"buffer":0,
			"byteLength":84,
			"byteOffset":46700,
			"target":34963
		},
		{
			"buffer":0,
			"byteLength":48,
			"byteOffset":46784,
			"target":34962
		},
		{
			"buffer":0,
			"byteLength":48,
			"byteOffset":46832,
			"target":34962
		},
		{
			"buffer":0,
			"byteLength":10548,
			"byteOffset":46880,
			"target":34962
		},
		{
			"buffer":0,
			"byteLength":10548,
			"byteOffset":57428,
			"target":34962
		},
		{
			"buffer":0,
			"byteLength":5658,
			"byteOffset":67976,
			"target":34963
		},
		{
			"buffer":0,
			"byteLength":756,
			"byteOffset":73636,
			"target":34962
		},
		{
			"buffer":0,
			"byteLength":756,
			"byteOffset":74392,
			"target":34962
		},
		{
			"buffer":0,
			"byteLength":186,
			"byteOffset":75148,
			"target":34963
		},
		{
			"buffer":0,
			"byteLength":10284,
			"byteOffset":75336,
			"target":34962
		},
		{
			"buffer":0,
			"byteLength":10284,
			"byteOffset":85620,
			"target":34962
		},
		{
			"buffer":0,
			"byteLength":5472,
			"byteOffset":95904,
			"target":34963
		},
		{
			"buffer":0,
			"byteLength":672,
			"byteOffset":101376,
			"target":34962
		},
		{
			"buffer":0,
			"byteLength":672,
			"byteOffset":102048,
			"target":34962
		},
		{
			"buffer":0,
			"byteLength":48,
			"byteOffset":102720,
			"target":34962
		},
		{
			"buffer":0,
			"byteLength":48,
			"byteOffset":102768,
			"target":34962
		},
		{
			"buffer":0,
			"byteLength":5964,
			"byteOffset":102816,
			"target":34962
		},
		{
			"buffer":0,
			"byteLength":5964,
			"byteOffset":108780,
			"target":34962
		},
		{
			"buffer":0,
			"byteLength":2796,
			"byteOffset":114744,
			"target":34963
		},
		{
			"buffer":0,
			"byteLength":432,
			"byteOffset":117540,
			"target":34962
		},
		{
			"buffer":0,
			"byteLength":432,
			"byteOffset":117972,
			"target":34962
		},
		{
			"buffer":0,
			"byteLength":108,
			"byteOffset":118404,
			"target":34963
		},
		{
			"buffer":0,
			"byteLength":48,
			"byteOffset":118512,
			"target":34962
		},
		{
			"buffer":0,
			"byteLength":48,
			"byteOffset":118560,
			"target":34962
		},
		{
			"buffer":0,
			"byteLength":48,
			"byteOffset":118608,
			"target":34962
		},
		{
			"buffer":0,
			"byteLength":48,
			"byteOffset":118656,
			"target":34962
		},
		{
			"buffer":0,
			"byteLength":576,
			"byteOffset":118704,
			"target":34962
		},
		{
			"buffer":0,
			"byteLength":576,
			"byteOffset":119280,
			"target":34962
		},
		{
			"buffer":0,
			"byteLength":144,
			"byteOffset":119856,
			"target":34963
		},
		{
			"buffer":0,
			"byteLength":336,
			"byteOffset":120000,
			"target":34962
		},
		{
			"buffer":0,
			"byteLength":336,
			"byteOffset":120336,
			"target":34962
		},
		{
			"buffer":0,
			"byteLength":84,
			"byteOffset":120672,
			"target":34963
		}
	],
	"buffers":[
		{
			"byteLength":120756,
			"uri":"binaisikmevcut.bin"
		}
	]
}
