{
	"asset":{
		"generator":"Khronos glTF Blender I/O v4.2.60",
		"version":"2.0"
	},
	"scene":0,
	"scenes":[
		{
			"name":"Scene",
			"nodes":[
				0,
				1,
				2
			]
		}
	],
	"nodes":[
		{
			"mesh":0,
			"name":"Plane.035",
			"rotation":[
				0.7071068286895752,
				0,
				0,
				0.7071068286895752
			],
			"scale":[
				0.4891304075717926,
				2.17391300201416,
				0.23999999463558197
			]
		},
		{
			"mesh":1,
			"name":"Building_001.010"
		},
		{
			"mesh":2,
			"name":"Building_007.012"
		}
	],
	"materials":[
		{
			"alphaMode":"BLEND",
			"doubleSided":true,
			"name":"Material.004",
			"pbrMetallicRoughness":{
				"baseColorFactor":[
					0.9822452664375305,
					0.38132646679878235,
					0.0030353753827512264,
					0.5
				],
				"metallicFactor":0,
				"roughnessFactor":0.5
			}
		},
		{
			"doubleSided":true,
			"name":"PencereSolar.009",
			"pbrMetallicRoughness":{
				"baseColorFactor":[
					0.9822452664375305,
					0.38132646679878235,
					0.0030353753827512264,
					1
				],
				"metallicFactor":0,
				"roughnessFactor":0.5
			}
		}
	],
	"meshes":[
		{
			"name":"Plane.042",
			"primitives":[
				{
					"attributes":{
						"POSITION":0,
						"NORMAL":1,
						"TEXCOORD_0":2
					},
					"indices":3,
					"material":0
				}
			]
		},
		{
			"name":"Building_001_Mesh.010",
			"primitives":[
				{
					"attributes":{
						"POSITION":4,
						"NORMAL":5
					},
					"indices":6,
					"material":1
				}
			]
		},
		{
			"name":"Building_007_Mesh.012",
			"primitives":[
				{
					"attributes":{
						"POSITION":7,
						"NORMAL":8
					},
					"indices":9,
					"material":1
				}
			]
		}
	],
	"accessors":[
		{
			"bufferView":0,
			"componentType":5126,
			"count":4,
			"max":[
				-0.6055557727813721,
				-4.284083843231201e-08,
				1.5490769147872925
			],
			"min":[
				-0.9333337545394897,
				-4.470348358154297e-08,
				1.1911224126815796
			],
			"type":"VEC3"
		},
		{
			"bufferView":1,
			"componentType":5126,
			"count":4,
			"type":"VEC3"
		},
		{
			"bufferView":2,
			"componentType":5126,
			"count":4,
			"type":"VEC2"
		},
		{
			"bufferView":3,
			"componentType":5123,
			"count":6,
			"type":"SCALAR"
		},
		{
			"bufferView":4,
			"componentType":5126,
			"count":48,
			"max":[
				-0.3989131450653076,
				-0.3065216541290283,
				0.042304277420043945
			],
			"min":[
				-0.43804359436035156,
				-0.3456520438194275,
				0.042304277420043945
			],
			"type":"VEC3"
		},
		{
			"bufferView":5,
			"componentType":5126,
			"count":48,
			"type":"VEC3"
		},
		{
			"bufferView":6,
			"componentType":5123,
			"count":72,
			"type":"SCALAR"
		},
		{
			"bufferView":7,
			"componentType":5126,
			"count":28,
			"max":[
				-0.32282620668411255,
				-0.3228260278701782,
				0.05317385494709015
			],
			"min":[
				-0.3619566261768341,
				-0.34565210342407227,
				0.05317385494709015
			],
			"type":"VEC3"
		},
		{
			"bufferView":8,
			"componentType":5126,
			"count":28,
			"type":"VEC3"
		},
		{
			"bufferView":9,
			"componentType":5123,
			"count":42,
			"type":"SCALAR"
		}
	],
	"bufferViews":[
		{
			"buffer":0,
			"byteLength":48,
			"byteOffset":0,
			"target":34962
		},
		{
			"buffer":0,
			"byteLength":48,
			"byteOffset":48,
			"target":34962
		},
		{
			"buffer":0,
			"byteLength":32,
			"byteOffset":96,
			"target":34962
		},
		{
			"buffer":0,
			"byteLength":12,
			"byteOffset":128,
			"target":34963
		},
		{
			"buffer":0,
			"byteLength":576,
			"byteOffset":140,
			"target":34962
		},
		{
			"buffer":0,
			"byteLength":576,
			"byteOffset":716,
			"target":34962
		},
		{
			"buffer":0,
			"byteLength":144,
			"byteOffset":1292,
			"target":34963
		},
		{
			"buffer":0,
			"byteLength":336,
			"byteOffset":1436,
			"target":34962
		},
		{
			"buffer":0,
			"byteLength":336,
			"byteOffset":1772,
			"target":34962
		},
		{
			"buffer":0,
			"byteLength":84,
			"byteOffset":2108,
			"target":34963
		}
	],
	"buffers":[
		{
			"byteLength":2192,
			"uri":"mevcutisik.bin"
		}
	]
}
