{
	"asset":{
		"generator":"Khronos glTF Blender I/O v4.2.60",
		"version":"2.0"
	},
	"scene":0,
	"scenes":[
		{
			"name":"Scene",
			"nodes":[
				0
			]
		}
	],
	"nodes":[
		{
			"mesh":0,
			"name":"Text.066",
			"rotation":[
				0.7071068286895752,
				0,
				0,
				0.7071068286895752
			],
			"scale":[
				3.00931978225708,
				1.5178192853927612,
				3.0093204975128174
			],
			"translation":[
				0,
				0,
				0.03072839230298996
			]
		}
	],
	"materials":[
		{
			"doubleSided":true,
			"name":"Material.002",
			"pbrMetallicRoughness":{
				"baseColorFactor":[
					0.7758182287216187,
					0.18116439878940582,
					0.0030353262554854155,
					1
				],
				"metallicFactor":0,
				"roughnessFactor":0.5
			}
		}
	],
	"meshes":[
		{
			"name":"Text.061",
			"primitives":[
				{
					"attributes":{
						"POSITION":0,
						"NORMAL":1,
						"TEXCOORD_0":2
					},
					"indices":3,
					"material":0
				}
			]
		}
	],
	"accessors":[
		{
			"bufferView":0,
			"componentType":5126,
			"count":3147,
			"max":[
				0.016766497865319252,
				0.0010000000474974513,
				0.14770899713039398
			],
			"min":[
				-0.024308571591973305,
				-0.0010000000474974513,
				0.13898958265781403
			],
			"type":"VEC3"
		},
		{
			"bufferView":1,
			"componentType":5126,
			"count":3147,
			"type":"VEC3"
		},
		{
			"bufferView":2,
			"componentType":5126,
			"count":3147,
			"type":"VEC2"
		},
		{
			"bufferView":3,
			"componentType":5123,
			"count":9276,
			"type":"SCALAR"
		}
	],
	"bufferViews":[
		{
			"buffer":0,
			"byteLength":37764,
			"byteOffset":0,
			"target":34962
		},
		{
			"buffer":0,
			"byteLength":37764,
			"byteOffset":37764,
			"target":34962
		},
		{
			"buffer":0,
			"byteLength":25176,
			"byteOffset":75528,
			"target":34962
		},
		{
			"buffer":0,
			"byteLength":18552,
			"byteOffset":100704,
			"target":34963
		}
	],
	"buffers":[
		{
			"byteLength":119256,
			"uri":"yazison1.bin"
		}
	]
}
