{
	"asset":{
		"generator":"Khronos glTF Blender I/O v4.2.60",
		"version":"2.0"
	},
	"scene":0,
	"scenes":[
		{
			"name":"Scene",
			"nodes":[
				0,
				1,
				3,
				4,
				5
			]
		}
	],
	"nodes":[
		{
			"mesh":0,
			"name":"Text.012",
			"rotation":[
				0.7071068286895752,
				0,
				0,
				0.7071068286895752
			],
			"scale":[
				4.310130596160889,
				2.17391300201416,
				4.310131549835205
			],
			"translation":[
				0,
				0,
				0.01604345254600048
			]
		},
		{
			"mesh":1,
			"name":"Text.013",
			"rotation":[
				0.7071068286895752,
				0,
				0,
				0.7071068286895752
			],
			"scale":[
				4.310130596160889,
				2.17391300201416,
				4.310131549835205
			],
			"translation":[
				0,
				0,
				0.01604345254600048
			]
		},
		{
			"mesh":2,
			"name":"G\u00fcnes.004",
			"rotation":[
				0.7071068286895752,
				0,
				0,
				0.7071068286895752
			],
			"translation":[
				-0.22826123237609863,
				-0.3176184892654419,
				-0.0108695849776268
			]
		},
		{
			"children":[
				2
			],
			"name":"G\u00fcne\u015f.004",
			"translation":[
				0.22826123237609863,
				0.3176184892654419,
				0.0108695849776268
			]
		},
		{
			"mesh":3,
			"name":"Plane.016",
			"rotation":[
				0.7071068286895752,
				0,
				0,
				0.7071068286895752
			],
			"scale":[
				1.3528070449829102,
				2.17391300201416,
				0.02362949587404728
			],
			"translation":[
				0,
				0,
				0.0020000000949949026
			]
		},
		{
			"mesh":4,
			"name":"Plane.019",
			"rotation":[
				0.7071068286895752,
				0,
				0,
				0.7071068286895752
			],
			"scale":[
				1.05745267868042,
				2.17391300201416,
				0.02362949587404728
			],
			"translation":[
				0,
				0,
				0.0020000000949949026
			]
		}
	],
	"materials":[
		{
			"doubleSided":true,
			"name":"Material.002",
			"pbrMetallicRoughness":{
				"baseColorFactor":[
					0.7758182287216187,
					0.18116439878940582,
					0.0030353262554854155,
					1
				],
				"metallicFactor":0,
				"roughnessFactor":0.5
			}
		},
		{
			"doubleSided":true,
			"name":"PencereSolar.001",
			"pbrMetallicRoughness":{
				"baseColorFactor":[
					0.9822452664375305,
					0.38132646679878235,
					0.0030353753827512264,
					1
				],
				"metallicFactor":0,
				"roughnessFactor":0.5
			}
		}
	],
	"meshes":[
		{
			"name":"Text.006",
			"primitives":[
				{
					"attributes":{
						"POSITION":0,
						"NORMAL":1,
						"TEXCOORD_0":2
					},
					"indices":3,
					"material":0
				}
			]
		},
		{
			"name":"Text.007",
			"primitives":[
				{
					"attributes":{
						"POSITION":4,
						"NORMAL":5,
						"TEXCOORD_0":6
					},
					"indices":7,
					"material":0
				}
			]
		},
		{
			"name":"Circle.002",
			"primitives":[
				{
					"attributes":{
						"POSITION":8,
						"NORMAL":9,
						"TEXCOORD_0":10
					},
					"indices":11,
					"material":1
				}
			]
		},
		{
			"name":"Plane.002",
			"primitives":[
				{
					"attributes":{
						"POSITION":12,
						"NORMAL":13,
						"TEXCOORD_0":14
					},
					"indices":15,
					"material":0
				}
			]
		},
		{
			"name":"Plane.012",
			"primitives":[
				{
					"attributes":{
						"POSITION":16,
						"NORMAL":17,
						"TEXCOORD_0":18
					},
					"indices":19,
					"material":0
				}
			]
		}
	],
	"accessors":[
		{
			"bufferView":0,
			"componentType":5126,
			"count":10172,
			"max":[
				-0.0211506150662899,
				0.0010000000474974513,
				0.02546527609229088
			],
			"min":[
				-0.10391954332590103,
				-0.0010000000474974513,
				0.015939533710479736
			],
			"type":"VEC3"
		},
		{
			"bufferView":1,
			"componentType":5126,
			"count":10172,
			"type":"VEC3"
		},
		{
			"bufferView":2,
			"componentType":5126,
			"count":10172,
			"type":"VEC2"
		},
		{
			"bufferView":3,
			"componentType":5123,
			"count":30252,
			"type":"SCALAR"
		},
		{
			"bufferView":4,
			"componentType":5126,
			"count":11944,
			"max":[
				0.019549448043107986,
				0.0010000000474974513,
				-0.02738683857023716
			],
			"min":[
				-0.10426643490791321,
				-0.0010000000474974513,
				-0.03747512400150299
			],
			"type":"VEC3"
		},
		{
			"bufferView":5,
			"componentType":5126,
			"count":11944,
			"type":"VEC3"
		},
		{
			"bufferView":6,
			"componentType":5126,
			"count":11944,
			"type":"VEC2"
		},
		{
			"bufferView":7,
			"componentType":5123,
			"count":35256,
			"type":"SCALAR"
		},
		{
			"bufferView":8,
			"componentType":5126,
			"count":224,
			"max":[
				0.36956536769866943,
				0.01086960919201374,
				-0.035009801387786865
			],
			"min":[
				0.08695706725120544,
				4.4366050389044176e-08,
				-0.3176184892654419
			],
			"type":"VEC3"
		},
		{
			"bufferView":9,
			"componentType":5126,
			"count":224,
			"type":"VEC3"
		},
		{
			"bufferView":10,
			"componentType":5126,
			"count":224,
			"type":"VEC2"
		},
		{
			"bufferView":11,
			"componentType":5123,
			"count":564,
			"type":"SCALAR"
		},
		{
			"bufferView":12,
			"componentType":5126,
			"count":24,
			"max":[
				0.12423738092184067,
				0.006380016449838877,
				1.8135045766830444
			],
			"min":[
				-0.335762619972229,
				0.005920016206800938,
				1.3535045385360718
			],
			"type":"VEC3"
		},
		{
			"bufferView":13,
			"componentType":5126,
			"count":24,
			"type":"VEC3"
		},
		{
			"bufferView":14,
			"componentType":5126,
			"count":24,
			"type":"VEC2"
		},
		{
			"bufferView":15,
			"componentType":5123,
			"count":36,
			"type":"SCALAR"
		},
		{
			"bufferView":16,
			"componentType":5126,
			"count":24,
			"max":[
				0.030456364154815674,
				0.006380019243806601,
				-1.5116511583328247
			],
			"min":[
				-0.429543673992157,
				0.0059200190007686615,
				-1.9716511964797974
			],
			"type":"VEC3"
		},
		{
			"bufferView":17,
			"componentType":5126,
			"count":24,
			"type":"VEC3"
		},
		{
			"bufferView":18,
			"componentType":5126,
			"count":24,
			"type":"VEC2"
		},
		{
			"bufferView":19,
			"componentType":5123,
			"count":36,
			"type":"SCALAR"
		}
	],
	"bufferViews":[
		{
			"buffer":0,
			"byteLength":122064,
			"byteOffset":0,
			"target":34962
		},
		{
			"buffer":0,
			"byteLength":122064,
			"byteOffset":122064,
			"target":34962
		},
		{
			"buffer":0,
			"byteLength":81376,
			"byteOffset":244128,
			"target":34962
		},
		{
			"buffer":0,
			"byteLength":60504,
			"byteOffset":325504,
			"target":34963
		},
		{
			"buffer":0,
			"byteLength":143328,
			"byteOffset":386008,
			"target":34962
		},
		{
			"buffer":0,
			"byteLength":143328,
			"byteOffset":529336,
			"target":34962
		},
		{
			"buffer":0,
			"byteLength":95552,
			"byteOffset":672664,
			"target":34962
		},
		{
			"buffer":0,
			"byteLength":70512,
			"byteOffset":768216,
			"target":34963
		},
		{
			"buffer":0,
			"byteLength":2688,
			"byteOffset":838728,
			"target":34962
		},
		{
			"buffer":0,
			"byteLength":2688,
			"byteOffset":841416,
			"target":34962
		},
		{
			"buffer":0,
			"byteLength":1792,
			"byteOffset":844104,
			"target":34962
		},
		{
			"buffer":0,
			"byteLength":1128,
			"byteOffset":845896,
			"target":34963
		},
		{
			"buffer":0,
			"byteLength":288,
			"byteOffset":847024,
			"target":34962
		},
		{
			"buffer":0,
			"byteLength":288,
			"byteOffset":847312,
			"target":34962
		},
		{
			"buffer":0,
			"byteLength":192,
			"byteOffset":847600,
			"target":34962
		},
		{
			"buffer":0,
			"byteLength":72,
			"byteOffset":847792,
			"target":34963
		},
		{
			"buffer":0,
			"byteLength":288,
			"byteOffset":847864,
			"target":34962
		},
		{
			"buffer":0,
			"byteLength":288,
			"byteOffset":848152,
			"target":34962
		},
		{
			"buffer":0,
			"byteLength":192,
			"byteOffset":848440,
			"target":34962
		},
		{
			"buffer":0,
			"byteLength":72,
			"byteOffset":848632,
			"target":34963
		}
	],
	"buffers":[
		{
			"byteLength":848704,
			"uri":"yazi.bin"
		}
	]
}
