{
	"asset":{
		"generator":"Khronos glTF Blender I/O v4.2.60",
		"version":"2.0"
	},
	"scene":0,
	"scenes":[
		{
			"name":"Scene",
			"nodes":[
				0
			]
		}
	],
	"nodes":[
		{
			"mesh":0,
			"name":"Text.083",
			"rotation":[
				0.7071068286895752,
				0,
				0,
				0.7071068286895752
			],
			"scale":[
				4.310130596160889,
				2.17391300201416,
				4.310131549835205
			],
			"translation":[
				0,
				0,
				0.01604345254600048
			]
		}
	],
	"materials":[
		{
			"doubleSided":true,
			"name":"Material.002",
			"pbrMetallicRoughness":{
				"baseColorFactor":[
					0.7758182287216187,
					0.18116439878940582,
					0.0030353262554854155,
					1
				],
				"metallicFactor":0,
				"roughnessFactor":0.5
			}
		}
	],
	"meshes":[
		{
			"name":"Text.091",
			"primitives":[
				{
					"attributes":{
						"POSITION":0,
						"NORMAL":1,
						"TEXCOORD_0":2
					},
					"indices":3,
					"material":0
				}
			]
		}
	],
	"accessors":[
		{
			"bufferView":0,
			"componentType":5126,
			"count":4742,
			"max":[
				-0.015478279441595078,
				0.0010000000474974513,
				-0.02748059667646885
			],
			"min":[
				-0.06073492765426636,
				-0.0010000000474974513,
				-0.03690320625901222
			],
			"type":"VEC3"
		},
		{
			"bufferView":1,
			"componentType":5126,
			"count":4742,
			"type":"VEC3"
		},
		{
			"bufferView":2,
			"componentType":5126,
			"count":4742,
			"type":"VEC2"
		},
		{
			"bufferView":3,
			"componentType":5123,
			"count":14100,
			"type":"SCALAR"
		}
	],
	"bufferViews":[
		{
			"buffer":0,
			"byteLength":56904,
			"byteOffset":0,
			"target":34962
		},
		{
			"buffer":0,
			"byteLength":56904,
			"byteOffset":56904,
			"target":34962
		},
		{
			"buffer":0,
			"byteLength":37936,
			"byteOffset":113808,
			"target":34962
		},
		{
			"buffer":0,
			"byteLength":28200,
			"byteOffset":151744,
			"target":34963
		}
	],
	"buffers":[
		{
			"byteLength":179944,
			"uri":"yazi2.bin"
		}
	]
}
