{
	"asset":{
		"generator":"Khronos glTF Blender I/O v4.2.60",
		"version":"2.0"
	},
	"scene":0,
	"scenes":[
		{
			"name":"Scene",
			"nodes":[
				0,
				1
			]
		}
	],
	"nodes":[
		{
			"mesh":0,
			"name":"Text.066",
			"rotation":[
				0.7071068286895752,
				0,
				0,
				0.7071068286895752
			],
			"scale":[
				3.00931978225708,
				1.5178192853927612,
				3.0093204975128174
			],
			"translation":[
				0,
				0,
				0.03072839044034481
			]
		},
		{
			"mesh":1,
			"name":"Text.067",
			"rotation":[
				0.7071068286895752,
				0,
				0,
				0.7071068286895752
			],
			"scale":[
				3.00931978225708,
				1.5178192853927612,
				3.0093204975128174
			],
			"translation":[
				0,
				0,
				0.03072838857769966
			]
		}
	],
	"materials":[
		{
			"doubleSided":true,
			"name":"Material.002",
			"pbrMetallicRoughness":{
				"baseColorFactor":[
					0.7758182287216187,
					0.18116439878940582,
					0.0030353262554854155,
					1
				],
				"metallicFactor":0,
				"roughnessFactor":0.5
			}
		}
	],
	"meshes":[
		{
			"name":"Text.061",
			"primitives":[
				{
					"attributes":{
						"POSITION":0,
						"NORMAL":1,
						"TEXCOORD_0":2
					},
					"indices":3,
					"material":0
				}
			]
		},
		{
			"name":"Text.062",
			"primitives":[
				{
					"attributes":{
						"POSITION":4,
						"NORMAL":5,
						"TEXCOORD_0":6
					},
					"indices":7,
					"material":0
				}
			]
		}
	],
	"accessors":[
		{
			"bufferView":0,
			"componentType":5126,
			"count":6248,
			"max":[
				0.051100414246320724,
				0.0010000000474974513,
				0.1551930159330368
			],
			"min":[
				-0.024852365255355835,
				-0.0010000000474974513,
				0.14518912136554718
			],
			"type":"VEC3"
		},
		{
			"bufferView":1,
			"componentType":5126,
			"count":6248,
			"type":"VEC3"
		},
		{
			"bufferView":2,
			"componentType":5126,
			"count":6248,
			"type":"VEC2"
		},
		{
			"bufferView":3,
			"componentType":5123,
			"count":18408,
			"type":"SCALAR"
		},
		{
			"bufferView":4,
			"componentType":5126,
			"count":11832,
			"max":[
				0.06922369450330734,
				0.0010000000474974513,
				0.16690397262573242
			],
			"min":[
				-0.024730481207370758,
				-0.0010000000474974513,
				0.15681569278240204
			],
			"type":"VEC3"
		},
		{
			"bufferView":5,
			"componentType":5126,
			"count":11832,
			"type":"VEC3"
		},
		{
			"bufferView":6,
			"componentType":5126,
			"count":11832,
			"type":"VEC2"
		},
		{
			"bufferView":7,
			"componentType":5123,
			"count":35160,
			"type":"SCALAR"
		}
	],
	"bufferViews":[
		{
			"buffer":0,
			"byteLength":74976,
			"byteOffset":0,
			"target":34962
		},
		{
			"buffer":0,
			"byteLength":74976,
			"byteOffset":74976,
			"target":34962
		},
		{
			"buffer":0,
			"byteLength":49984,
			"byteOffset":149952,
			"target":34962
		},
		{
			"buffer":0,
			"byteLength":36816,
			"byteOffset":199936,
			"target":34963
		},
		{
			"buffer":0,
			"byteLength":141984,
			"byteOffset":236752,
			"target":34962
		},
		{
			"buffer":0,
			"byteLength":141984,
			"byteOffset":378736,
			"target":34962
		},
		{
			"buffer":0,
			"byteLength":94656,
			"byteOffset":520720,
			"target":34962
		},
		{
			"buffer":0,
			"byteLength":70320,
			"byteOffset":615376,
			"target":34963
		}
	],
	"buffers":[
		{
			"byteLength":685696,
			"uri":"yazison.bin"
		}
	]
}
