{
	"asset":{
		"generator":"Khronos glTF Blender I/O v4.2.60",
		"version":"2.0"
	},
	"scene":0,
	"scenes":[
		{
			"name":"Scene",
			"nodes":[
				0
			]
		}
	],
	"nodes":[
		{
			"mesh":0,
			"name":"Text.067",
			"rotation":[
				0.7071068286895752,
				0,
				0,
				0.7071068286895752
			],
			"scale":[
				3.00931978225708,
				1.5178192853927612,
				3.0093204975128174
			],
			"translation":[
				0,
				0,
				0.03072839044034481
			]
		}
	],
	"materials":[
		{
			"doubleSided":true,
			"name":"Material.002",
			"pbrMetallicRoughness":{
				"baseColorFactor":[
					0.7758182287216187,
					0.18116439878940582,
					0.0030353262554854155,
					1
				],
				"metallicFactor":0,
				"roughnessFactor":0.5
			}
		}
	],
	"meshes":[
		{
			"name":"Text.062",
			"primitives":[
				{
					"attributes":{
						"POSITION":0,
						"NORMAL":1,
						"TEXCOORD_0":2
					},
					"indices":3,
					"material":0
				}
			]
		}
	],
	"accessors":[
		{
			"bufferView":0,
			"componentType":5126,
			"count":35444,
			"max":[
				0.10279819369316101,
				0.0010000000474974513,
				0.18218490481376648
			],
			"min":[
				-0.024852365255355835,
				-0.0010000000474974513,
				0.149598628282547
			],
			"type":"VEC3"
		},
		{
			"bufferView":1,
			"componentType":5126,
			"count":35444,
			"type":"VEC3"
		},
		{
			"bufferView":2,
			"componentType":5126,
			"count":35444,
			"type":"VEC2"
		},
		{
			"bufferView":3,
			"componentType":5123,
			"count":105348,
			"type":"SCALAR"
		}
	],
	"bufferViews":[
		{
			"buffer":0,
			"byteLength":425328,
			"byteOffset":0,
			"target":34962
		},
		{
			"buffer":0,
			"byteLength":425328,
			"byteOffset":425328,
			"target":34962
		},
		{
			"buffer":0,
			"byteLength":283552,
			"byteOffset":850656,
			"target":34962
		},
		{
			"buffer":0,
			"byteLength":210696,
			"byteOffset":1134208,
			"target":34963
		}
	],
	"buffers":[
		{
			"byteLength":1344904,
			"uri":"yazison2.bin"
		}
	]
}
