{
	"asset":{
		"generator":"Khronos glTF Blender I/O v4.2.60",
		"version":"2.0"
	},
	"scene":0,
	"scenes":[
		{
			"name":"Scene",
			"nodes":[
				0,
				1,
				2,
				3,
				4,
				5,
				6
			]
		}
	],
	"nodes":[
		{
			"mesh":0,
			"name":"Building_000.006"
		},
		{
			"mesh":1,
			"name":"Pencere13.001"
		},
		{
			"mesh":2,
			"name":"Pencere14.001"
		},
		{
			"mesh":3,
			"name":"Pencere24.001"
		},
		{
			"mesh":4,
			"name":"Pencere36.001"
		},
		{
			"mesh":5,
			"name":"Pencere49.001"
		},
		{
			"mesh":6,
			"name":"Pencere7.001"
		}
	],
	"materials":[
		{
			"doubleSided":true,
			"name":"PencereSolar",
			"pbrMetallicRoughness":{
				"baseColorFactor":[
					0.9822452664375305,
					0.38132646679878235,
					0.0030353753827512264,
					1
				],
				"metallicFactor":0,
				"roughnessFactor":0.5
			}
		}
	],
	"meshes":[
		{
			"name":"Building_000_Mesh.015",
			"primitives":[
				{
					"attributes":{
						"POSITION":0,
						"NORMAL":1
					},
					"indices":2,
					"material":0
				}
			]
		},
		{
			"name":"Building_030_Mesh.015",
			"primitives":[
				{
					"attributes":{
						"POSITION":3,
						"NORMAL":4
					},
					"indices":5,
					"material":0
				}
			]
		},
		{
			"name":"Building_031_Mesh.015",
			"primitives":[
				{
					"attributes":{
						"POSITION":6,
						"NORMAL":7
					},
					"indices":8,
					"material":0
				}
			]
		},
		{
			"name":"Building_041_Mesh.015",
			"primitives":[
				{
					"attributes":{
						"POSITION":9,
						"NORMAL":10
					},
					"indices":11,
					"material":0
				}
			]
		},
		{
			"name":"Building_053_Mesh.015",
			"primitives":[
				{
					"attributes":{
						"POSITION":12,
						"NORMAL":13
					},
					"indices":14,
					"material":0
				}
			]
		},
		{
			"name":"Building_066_Mesh.015",
			"primitives":[
				{
					"attributes":{
						"POSITION":15,
						"NORMAL":16
					},
					"indices":11,
					"material":0
				}
			]
		},
		{
			"name":"Building_024_Mesh.015",
			"primitives":[
				{
					"attributes":{
						"POSITION":17,
						"NORMAL":18
					},
					"indices":19,
					"material":0
				}
			]
		}
	],
	"accessors":[
		{
			"bufferView":0,
			"componentType":5126,
			"count":48,
			"max":[
				-0.3989131450653076,
				-0.3065217137336731,
				0.06413046270608902
			],
			"min":[
				-0.43804359436035156,
				-0.3478260636329651,
				0.06413046270608902
			],
			"type":"VEC3"
		},
		{
			"bufferView":1,
			"componentType":5126,
			"count":48,
			"type":"VEC3"
		},
		{
			"bufferView":2,
			"componentType":5123,
			"count":72,
			"type":"SCALAR"
		},
		{
			"bufferView":3,
			"componentType":5126,
			"count":37,
			"max":[
				-0.10326102375984192,
				-0.502173900604248,
				0.0423913300037384
			],
			"min":[
				-0.12500014901161194,
				-0.54347825050354,
				0.0423913300037384
			],
			"type":"VEC3"
		},
		{
			"bufferView":4,
			"componentType":5126,
			"count":37,
			"type":"VEC3"
		},
		{
			"bufferView":5,
			"componentType":5123,
			"count":63,
			"type":"SCALAR"
		},
		{
			"bufferView":6,
			"componentType":5126,
			"count":28,
			"max":[
				-0.09456536173820496,
				-0.616304337978363,
				0.0423913300037384
			],
			"min":[
				-0.1336958110332489,
				-0.643478274345398,
				0.0423913300037384
			],
			"type":"VEC3"
		},
		{
			"bufferView":7,
			"componentType":5126,
			"count":28,
			"type":"VEC3"
		},
		{
			"bufferView":8,
			"componentType":5123,
			"count":42,
			"type":"SCALAR"
		},
		{
			"bufferView":9,
			"componentType":5126,
			"count":36,
			"max":[
				-0.02717408537864685,
				-0.893478274345398,
				0.0423913300037384
			],
			"min":[
				-0.04891321063041687,
				-0.936956524848938,
				0.0423913300037384
			],
			"type":"VEC3"
		},
		{
			"bufferView":10,
			"componentType":5126,
			"count":36,
			"type":"VEC3"
		},
		{
			"bufferView":11,
			"componentType":5123,
			"count":54,
			"type":"SCALAR"
		},
		{
			"bufferView":12,
			"componentType":5126,
			"count":52,
			"max":[
				0.13369548320770264,
				-0.697826087474823,
				0.05326090008020401
			],
			"min":[
				0.09456509351730347,
				-0.741304337978363,
				0.05326090008020401
			],
			"type":"VEC3"
		},
		{
			"bufferView":13,
			"componentType":5126,
			"count":52,
			"type":"VEC3"
		},
		{
			"bufferView":14,
			"componentType":5123,
			"count":78,
			"type":"SCALAR"
		},
		{
			"bufferView":15,
			"componentType":5126,
			"count":36,
			"max":[
				0.2771737575531006,
				-0.6000000238418579,
				0.05326090008020401
			],
			"min":[
				0.2554345726966858,
				-0.6391304135322571,
				0.05326090008020401
			],
			"type":"VEC3"
		},
		{
			"bufferView":16,
			"componentType":5126,
			"count":36,
			"type":"VEC3"
		},
		{
			"bufferView":17,
			"componentType":5126,
			"count":56,
			"max":[
				-0.17065231502056122,
				-0.5999999642372131,
				0.0423913300037384
			],
			"min":[
				-0.20978274941444397,
				-0.6413042545318604,
				0.0423913300037384
			],
			"type":"VEC3"
		},
		{
			"bufferView":18,
			"componentType":5126,
			"count":56,
			"type":"VEC3"
		},
		{
			"bufferView":19,
			"componentType":5123,
			"count":84,
			"type":"SCALAR"
		}
	],
	"bufferViews":[
		{
			"buffer":0,
			"byteLength":576,
			"byteOffset":0,
			"target":34962
		},
		{
			"buffer":0,
			"byteLength":576,
			"byteOffset":576,
			"target":34962
		},
		{
			"buffer":0,
			"byteLength":144,
			"byteOffset":1152,
			"target":34963
		},
		{
			"buffer":0,
			"byteLength":444,
			"byteOffset":1296,
			"target":34962
		},
		{
			"buffer":0,
			"byteLength":444,
			"byteOffset":1740,
			"target":34962
		},
		{
			"buffer":0,
			"byteLength":126,
			"byteOffset":2184,
			"target":34963
		},
		{
			"buffer":0,
			"byteLength":336,
			"byteOffset":2312,
			"target":34962
		},
		{
			"buffer":0,
			"byteLength":336,
			"byteOffset":2648,
			"target":34962
		},
		{
			"buffer":0,
			"byteLength":84,
			"byteOffset":2984,
			"target":34963
		},
		{
			"buffer":0,
			"byteLength":432,
			"byteOffset":3068,
			"target":34962
		},
		{
			"buffer":0,
			"byteLength":432,
			"byteOffset":3500,
			"target":34962
		},
		{
			"buffer":0,
			"byteLength":108,
			"byteOffset":3932,
			"target":34963
		},
		{
			"buffer":0,
			"byteLength":624,
			"byteOffset":4040,
			"target":34962
		},
		{
			"buffer":0,
			"byteLength":624,
			"byteOffset":4664,
			"target":34962
		},
		{
			"buffer":0,
			"byteLength":156,
			"byteOffset":5288,
			"target":34963
		},
		{
			"buffer":0,
			"byteLength":432,
			"byteOffset":5444,
			"target":34962
		},
		{
			"buffer":0,
			"byteLength":432,
			"byteOffset":5876,
			"target":34962
		},
		{
			"buffer":0,
			"byteLength":672,
			"byteOffset":6308,
			"target":34962
		},
		{
			"buffer":0,
			"byteLength":672,
			"byteOffset":6980,
			"target":34962
		},
		{
			"buffer":0,
			"byteLength":168,
			"byteOffset":7652,
			"target":34963
		}
	],
	"buffers":[
		{
			"byteLength":7820,
			"uri":"Pencere1.bin"
		}
	]
}
