{
	"asset":{
		"generator":"Khronos glTF Blender I/O v4.2.60",
		"version":"2.0"
	},
	"scene":0,
	"scenes":[
		{
			"name":"Scene",
			"nodes":[
				0,
				1,
				2,
				3,
				4,
				5,
				6
			]
		}
	],
	"nodes":[
		{
			"mesh":0,
			"name":"Building_013.006"
		},
		{
			"mesh":1,
			"name":"Building_018.003"
		},
		{
			"mesh":2,
			"name":"Pencere18.001"
		},
		{
			"mesh":3,
			"name":"Pencere28.001"
		},
		{
			"mesh":4,
			"name":"Pencere29.001"
		},
		{
			"mesh":5,
			"name":"Pencere41.001"
		},
		{
			"mesh":6,
			"name":"Pencere46.001"
		}
	],
	"materials":[
		{
			"doubleSided":true,
			"name":"PencereSolar",
			"pbrMetallicRoughness":{
				"baseColorFactor":[
					0.9822452664375305,
					0.38132646679878235,
					0.0030353753827512264,
					1
				],
				"metallicFactor":0,
				"roughnessFactor":0.5
			}
		}
	],
	"meshes":[
		{
			"name":"Building_013_Mesh.015",
			"primitives":[
				{
					"attributes":{
						"POSITION":0,
						"NORMAL":1
					},
					"indices":2,
					"material":0
				}
			]
		},
		{
			"name":"Building_018_Mesh.019",
			"primitives":[
				{
					"attributes":{
						"POSITION":3,
						"NORMAL":4
					},
					"indices":5,
					"material":0
				}
			]
		},
		{
			"name":"Building_035_Mesh.015",
			"primitives":[
				{
					"attributes":{
						"POSITION":6,
						"NORMAL":7
					},
					"indices":8,
					"material":0
				}
			]
		},
		{
			"name":"Building_045_Mesh.015",
			"primitives":[
				{
					"attributes":{
						"POSITION":9,
						"NORMAL":10
					},
					"indices":8,
					"material":0
				}
			]
		},
		{
			"name":"Building_046_Mesh.015",
			"primitives":[
				{
					"attributes":{
						"POSITION":11,
						"NORMAL":12
					},
					"indices":13,
					"material":0
				}
			]
		},
		{
			"name":"Building_058_Mesh.015",
			"primitives":[
				{
					"attributes":{
						"POSITION":14,
						"NORMAL":15
					},
					"indices":16,
					"material":0
				}
			]
		},
		{
			"name":"Building_063_Mesh.015",
			"primitives":[
				{
					"attributes":{
						"POSITION":17,
						"NORMAL":18
					},
					"indices":19,
					"material":0
				}
			]
		}
	],
	"accessors":[
		{
			"bufferView":0,
			"componentType":5126,
			"count":48,
			"max":[
				-0.32282620668411255,
				-0.893478274345398,
				0.0423913300037384
			],
			"min":[
				-0.3619566261768341,
				-0.9347826242446899,
				0.0423913300037384
			],
			"type":"VEC3"
		},
		{
			"bufferView":1,
			"componentType":5126,
			"count":48,
			"type":"VEC3"
		},
		{
			"bufferView":2,
			"componentType":5123,
			"count":72,
			"type":"SCALAR"
		},
		{
			"bufferView":3,
			"componentType":5126,
			"count":32,
			"max":[
				-0.24673926830291748,
				-0.7141304016113281,
				0.05267394334077835
			],
			"min":[
				-0.28586968779563904,
				-0.741304337978363,
				0.05267394334077835
			],
			"type":"VEC3"
		},
		{
			"bufferView":4,
			"componentType":5126,
			"count":32,
			"type":"VEC3"
		},
		{
			"bufferView":5,
			"componentType":5123,
			"count":48,
			"type":"SCALAR"
		},
		{
			"bufferView":6,
			"componentType":5126,
			"count":20,
			"max":[
				-0.027174055576324463,
				-0.322826087474823,
				0.05326090008020401
			],
			"min":[
				-0.04891318082809448,
				-0.3500000238418579,
				0.05326090008020401
			],
			"type":"VEC3"
		},
		{
			"bufferView":7,
			"componentType":5126,
			"count":20,
			"type":"VEC3"
		},
		{
			"bufferView":8,
			"componentType":5123,
			"count":30,
			"type":"SCALAR"
		},
		{
			"bufferView":9,
			"componentType":5126,
			"count":20,
			"max":[
				0.04891291260719299,
				-0.616304337978363,
				0.06413046270608902
			],
			"min":[
				0.027173757553100586,
				-0.643478274345398,
				0.06413046270608902
			],
			"type":"VEC3"
		},
		{
			"bufferView":10,
			"componentType":5126,
			"count":20,
			"type":"VEC3"
		},
		{
			"bufferView":11,
			"componentType":5126,
			"count":18,
			"max":[
				0.048912882804870605,
				-0.7141304016113281,
				0.05326090008020401
			],
			"min":[
				0.027173727750778198,
				-0.739130437374115,
				0.05326090008020401
			],
			"type":"VEC3"
		},
		{
			"bufferView":12,
			"componentType":5126,
			"count":18,
			"type":"VEC3"
		},
		{
			"bufferView":13,
			"componentType":5123,
			"count":30,
			"type":"SCALAR"
		},
		{
			"bufferView":14,
			"componentType":5126,
			"count":16,
			"max":[
				0.20108681917190552,
				-0.518478274345398,
				0.0423913337290287
			],
			"min":[
				0.17934763431549072,
				-0.541304349899292,
				0.0423913337290287
			],
			"type":"VEC3"
		},
		{
			"bufferView":15,
			"componentType":5126,
			"count":16,
			"type":"VEC3"
		},
		{
			"bufferView":16,
			"componentType":5123,
			"count":24,
			"type":"SCALAR"
		},
		{
			"bufferView":17,
			"componentType":5126,
			"count":63,
			"max":[
				0.2858693599700928,
				-0.3065217137336731,
				0.0423913300037384
			],
			"min":[
				0.24673891067504883,
				-0.34565210342407227,
				0.0423913300037384
			],
			"type":"VEC3"
		},
		{
			"bufferView":18,
			"componentType":5126,
			"count":63,
			"type":"VEC3"
		},
		{
			"bufferView":19,
			"componentType":5123,
			"count":93,
			"type":"SCALAR"
		}
	],
	"bufferViews":[
		{
			"buffer":0,
			"byteLength":576,
			"byteOffset":0,
			"target":34962
		},
		{
			"buffer":0,
			"byteLength":576,
			"byteOffset":576,
			"target":34962
		},
		{
			"buffer":0,
			"byteLength":144,
			"byteOffset":1152,
			"target":34963
		},
		{
			"buffer":0,
			"byteLength":384,
			"byteOffset":1296,
			"target":34962
		},
		{
			"buffer":0,
			"byteLength":384,
			"byteOffset":1680,
			"target":34962
		},
		{
			"buffer":0,
			"byteLength":96,
			"byteOffset":2064,
			"target":34963
		},
		{
			"buffer":0,
			"byteLength":240,
			"byteOffset":2160,
			"target":34962
		},
		{
			"buffer":0,
			"byteLength":240,
			"byteOffset":2400,
			"target":34962
		},
		{
			"buffer":0,
			"byteLength":60,
			"byteOffset":2640,
			"target":34963
		},
		{
			"buffer":0,
			"byteLength":240,
			"byteOffset":2700,
			"target":34962
		},
		{
			"buffer":0,
			"byteLength":240,
			"byteOffset":2940,
			"target":34962
		},
		{
			"buffer":0,
			"byteLength":216,
			"byteOffset":3180,
			"target":34962
		},
		{
			"buffer":0,
			"byteLength":216,
			"byteOffset":3396,
			"target":34962
		},
		{
			"buffer":0,
			"byteLength":60,
			"byteOffset":3612,
			"target":34963
		},
		{
			"buffer":0,
			"byteLength":192,
			"byteOffset":3672,
			"target":34962
		},
		{
			"buffer":0,
			"byteLength":192,
			"byteOffset":3864,
			"target":34962
		},
		{
			"buffer":0,
			"byteLength":48,
			"byteOffset":4056,
			"target":34963
		},
		{
			"buffer":0,
			"byteLength":756,
			"byteOffset":4104,
			"target":34962
		},
		{
			"buffer":0,
			"byteLength":756,
			"byteOffset":4860,
			"target":34962
		},
		{
			"buffer":0,
			"byteLength":186,
			"byteOffset":5616,
			"target":34963
		}
	],
	"buffers":[
		{
			"byteLength":5804,
			"uri":"Pencere9.bin"
		}
	]
}
