{
	"asset":{
		"generator":"Khronos glTF Blender I/O v4.2.60",
		"version":"2.0"
	},
	"scene":0,
	"scenes":[
		{
			"name":"Scene",
			"nodes":[
				0,
				1,
				2,
				3,
				4,
				5,
				6
			]
		}
	],
	"nodes":[
		{
			"mesh":0,
			"name":"Building_004.005"
		},
		{
			"mesh":1,
			"name":"Building_005.005"
		},
		{
			"mesh":2,
			"name":"Building_009.005"
		},
		{
			"mesh":3,
			"name":"Pencere21.001"
		},
		{
			"mesh":4,
			"name":"Pencere31.001"
		},
		{
			"mesh":5,
			"name":"Pencere5.005"
		},
		{
			"mesh":6,
			"name":"Pencere8.005"
		}
	],
	"materials":[
		{
			"doubleSided":true,
			"name":"PencereSolar",
			"pbrMetallicRoughness":{
				"baseColorFactor":[
					0.9822452664375305,
					0.38132646679878235,
					0.0030353753827512264,
					1
				],
				"metallicFactor":0,
				"roughnessFactor":0.5
			}
		}
	],
	"meshes":[
		{
			"name":"Building_004_Mesh.015",
			"primitives":[
				{
					"attributes":{
						"POSITION":0,
						"NORMAL":1
					},
					"indices":2,
					"material":0
				}
			]
		},
		{
			"name":"Building_005_Mesh.015",
			"primitives":[
				{
					"attributes":{
						"POSITION":3,
						"NORMAL":4
					},
					"indices":5,
					"material":0
				}
			]
		},
		{
			"name":"Building_009_Mesh.015",
			"primitives":[
				{
					"attributes":{
						"POSITION":6,
						"NORMAL":7
					},
					"indices":8,
					"material":0
				}
			]
		},
		{
			"name":"Building_038_Mesh.015",
			"primitives":[
				{
					"attributes":{
						"POSITION":9,
						"NORMAL":10
					},
					"indices":11,
					"material":0
				}
			]
		},
		{
			"name":"Building_048_Mesh.015",
			"primitives":[
				{
					"attributes":{
						"POSITION":12,
						"NORMAL":13
					},
					"indices":5,
					"material":0
				}
			]
		},
		{
			"name":"Building_022_Mesh.015",
			"primitives":[
				{
					"attributes":{
						"POSITION":14,
						"NORMAL":15
					},
					"indices":16,
					"material":0
				}
			]
		},
		{
			"name":"Building_025_Mesh.015",
			"primitives":[
				{
					"attributes":{
						"POSITION":17,
						"NORMAL":18
					},
					"indices":8,
					"material":0
				}
			]
		}
	],
	"accessors":[
		{
			"bufferView":0,
			"componentType":5126,
			"count":39,
			"max":[
				-0.4076088070869446,
				-0.697826087474823,
				0.05326090008020401
			],
			"min":[
				-0.4293479323387146,
				-0.739130437374115,
				0.05326090008020401
			],
			"type":"VEC3"
		},
		{
			"bufferView":1,
			"componentType":5126,
			"count":39,
			"type":"VEC3"
		},
		{
			"bufferView":2,
			"componentType":5123,
			"count":63,
			"type":"SCALAR"
		},
		{
			"bufferView":3,
			"componentType":5126,
			"count":48,
			"max":[
				-0.3989131450653076,
				-0.7956521511077881,
				0.06413046270608902
			],
			"min":[
				-0.43804359436035156,
				-0.834782600402832,
				0.06413046270608902
			],
			"type":"VEC3"
		},
		{
			"bufferView":4,
			"componentType":5126,
			"count":48,
			"type":"VEC3"
		},
		{
			"bufferView":5,
			"componentType":5123,
			"count":72,
			"type":"SCALAR"
		},
		{
			"bufferView":6,
			"componentType":5126,
			"count":36,
			"max":[
				-0.3315218687057495,
				-0.502173900604248,
				0.0423913300037384
			],
			"min":[
				-0.35326099395751953,
				-0.5456521511077881,
				0.0423913300037384
			],
			"type":"VEC3"
		},
		{
			"bufferView":7,
			"componentType":5126,
			"count":36,
			"type":"VEC3"
		},
		{
			"bufferView":8,
			"componentType":5123,
			"count":54,
			"type":"SCALAR"
		},
		{
			"bufferView":9,
			"componentType":5126,
			"count":18,
			"max":[
				-0.02717408537864685,
				-0.616304337978363,
				0.0423913337290287
			],
			"min":[
				-0.04891321063041687,
				-0.643478274345398,
				0.0423913337290287
			],
			"type":"VEC3"
		},
		{
			"bufferView":10,
			"componentType":5126,
			"count":18,
			"type":"VEC3"
		},
		{
			"bufferView":11,
			"componentType":5123,
			"count":30,
			"type":"SCALAR"
		},
		{
			"bufferView":12,
			"componentType":5126,
			"count":48,
			"max":[
				0.05760854482650757,
				-0.893478274345398,
				0.05326090008020401
			],
			"min":[
				0.018478095531463623,
				-0.9347826242446899,
				0.05326090008020401
			],
			"type":"VEC3"
		},
		{
			"bufferView":13,
			"componentType":5126,
			"count":48,
			"type":"VEC3"
		},
		{
			"bufferView":14,
			"componentType":5126,
			"count":60,
			"max":[
				-0.17065230011940002,
				-0.40434783697128296,
				0.06413046270608902
			],
			"min":[
				-0.20978273451328278,
				-0.4478261172771454,
				0.06413046270608902
			],
			"type":"VEC3"
		},
		{
			"bufferView":15,
			"componentType":5126,
			"count":60,
			"type":"VEC3"
		},
		{
			"bufferView":16,
			"componentType":5123,
			"count":90,
			"type":"SCALAR"
		},
		{
			"bufferView":17,
			"componentType":5126,
			"count":36,
			"max":[
				-0.179347962141037,
				-0.6978260278701782,
				0.06413046270608902
			],
			"min":[
				-0.201087087392807,
				-0.7369564771652222,
				0.06413046270608902
			],
			"type":"VEC3"
		},
		{
			"bufferView":18,
			"componentType":5126,
			"count":36,
			"type":"VEC3"
		}
	],
	"bufferViews":[
		{
			"buffer":0,
			"byteLength":468,
			"byteOffset":0,
			"target":34962
		},
		{
			"buffer":0,
			"byteLength":468,
			"byteOffset":468,
			"target":34962
		},
		{
			"buffer":0,
			"byteLength":126,
			"byteOffset":936,
			"target":34963
		},
		{
			"buffer":0,
			"byteLength":576,
			"byteOffset":1064,
			"target":34962
		},
		{
			"buffer":0,
			"byteLength":576,
			"byteOffset":1640,
			"target":34962
		},
		{
			"buffer":0,
			"byteLength":144,
			"byteOffset":2216,
			"target":34963
		},
		{
			"buffer":0,
			"byteLength":432,
			"byteOffset":2360,
			"target":34962
		},
		{
			"buffer":0,
			"byteLength":432,
			"byteOffset":2792,
			"target":34962
		},
		{
			"buffer":0,
			"byteLength":108,
			"byteOffset":3224,
			"target":34963
		},
		{
			"buffer":0,
			"byteLength":216,
			"byteOffset":3332,
			"target":34962
		},
		{
			"buffer":0,
			"byteLength":216,
			"byteOffset":3548,
			"target":34962
		},
		{
			"buffer":0,
			"byteLength":60,
			"byteOffset":3764,
			"target":34963
		},
		{
			"buffer":0,
			"byteLength":576,
			"byteOffset":3824,
			"target":34962
		},
		{
			"buffer":0,
			"byteLength":576,
			"byteOffset":4400,
			"target":34962
		},
		{
			"buffer":0,
			"byteLength":720,
			"byteOffset":4976,
			"target":34962
		},
		{
			"buffer":0,
			"byteLength":720,
			"byteOffset":5696,
			"target":34962
		},
		{
			"buffer":0,
			"byteLength":180,
			"byteOffset":6416,
			"target":34963
		},
		{
			"buffer":0,
			"byteLength":432,
			"byteOffset":6596,
			"target":34962
		},
		{
			"buffer":0,
			"byteLength":432,
			"byteOffset":7028,
			"target":34962
		}
	],
	"buffers":[
		{
			"byteLength":7460,
			"uri":"Pencere5.bin"
		}
	]
}
