{
	"asset":{
		"generator":"Khronos glTF Blender I/O v4.2.60",
		"version":"2.0"
	},
	"scene":0,
	"scenes":[
		{
			"name":"Scene",
			"nodes":[
				0,
				1,
				2,
				3,
				4,
				5,
				6
			]
		}
	],
	"nodes":[
		{
			"mesh":0,
			"name":"Building_011.006"
		},
		{
			"mesh":1,
			"name":"Building_012.006"
		},
		{
			"mesh":2,
			"name":"Building_015.005"
		},
		{
			"mesh":3,
			"name":"Pencere15.001"
		},
		{
			"mesh":4,
			"name":"Pencere23.001"
		},
		{
			"mesh":5,
			"name":"Pencere25.001"
		},
		{
			"mesh":6,
			"name":"Pencere26.001"
		}
	],
	"materials":[
		{
			"doubleSided":true,
			"name":"PencereSolar",
			"pbrMetallicRoughness":{
				"baseColorFactor":[
					0.9822452664375305,
					0.38132646679878235,
					0.0030353753827512264,
					1
				],
				"metallicFactor":0,
				"roughnessFactor":0.5
			}
		}
	],
	"meshes":[
		{
			"name":"Building_011_Mesh.015",
			"primitives":[
				{
					"attributes":{
						"POSITION":0,
						"NORMAL":1
					},
					"indices":2,
					"material":0
				}
			]
		},
		{
			"name":"Building_012_Mesh.015",
			"primitives":[
				{
					"attributes":{
						"POSITION":3,
						"NORMAL":4
					},
					"indices":5,
					"material":0
				}
			]
		},
		{
			"name":"Building_015_Mesh.015",
			"primitives":[
				{
					"attributes":{
						"POSITION":6,
						"NORMAL":7
					},
					"indices":8,
					"material":0
				}
			]
		},
		{
			"name":"Building_032_Mesh.015",
			"primitives":[
				{
					"attributes":{
						"POSITION":9,
						"NORMAL":10
					},
					"indices":5,
					"material":0
				}
			]
		},
		{
			"name":"Building_040_Mesh.015",
			"primitives":[
				{
					"attributes":{
						"POSITION":11,
						"NORMAL":12
					},
					"indices":13,
					"material":0
				}
			]
		},
		{
			"name":"Building_042_Mesh.015",
			"primitives":[
				{
					"attributes":{
						"POSITION":14,
						"NORMAL":15
					},
					"indices":16,
					"material":0
				}
			]
		},
		{
			"name":"Building_043_Mesh.015",
			"primitives":[
				{
					"attributes":{
						"POSITION":17,
						"NORMAL":18
					},
					"indices":13,
					"material":0
				}
			]
		}
	],
	"accessors":[
		{
			"bufferView":0,
			"componentType":5126,
			"count":60,
			"max":[
				-0.32282620668411255,
				-0.697826087474823,
				0.0423913300037384
			],
			"min":[
				-0.3619566261768341,
				-0.741304337978363,
				0.0423913300037384
			],
			"type":"VEC3"
		},
		{
			"bufferView":1,
			"componentType":5126,
			"count":60,
			"type":"VEC3"
		},
		{
			"bufferView":2,
			"componentType":5123,
			"count":90,
			"type":"SCALAR"
		},
		{
			"bufferView":3,
			"componentType":5126,
			"count":24,
			"max":[
				-0.32282620668411255,
				-0.811956524848938,
				0.05326090008020401
			],
			"min":[
				-0.3619566261768341,
				-0.8391304016113281,
				0.05326090008020401
			],
			"type":"VEC3"
		},
		{
			"bufferView":4,
			"componentType":5126,
			"count":24,
			"type":"VEC3"
		},
		{
			"bufferView":5,
			"componentType":5123,
			"count":36,
			"type":"SCALAR"
		},
		{
			"bufferView":6,
			"componentType":5126,
			"count":36,
			"max":[
				-0.25543490052223206,
				-0.40434783697128296,
				0.05326089262962341
			],
			"min":[
				-0.2771740257740021,
				-0.44565218687057495,
				0.05326089262962341
			],
			"type":"VEC3"
		},
		{
			"bufferView":7,
			"componentType":5126,
			"count":36,
			"type":"VEC3"
		},
		{
			"bufferView":8,
			"componentType":5123,
			"count":54,
			"type":"SCALAR"
		},
		{
			"bufferView":9,
			"componentType":5126,
			"count":24,
			"max":[
				-0.09456536173820496,
				-0.7141304016113281,
				0.0423913300037384
			],
			"min":[
				-0.1336958110332489,
				-0.741304337978363,
				0.0423913300037384
			],
			"type":"VEC3"
		},
		{
			"bufferView":10,
			"componentType":5126,
			"count":24,
			"type":"VEC3"
		},
		{
			"bufferView":11,
			"componentType":5126,
			"count":39,
			"max":[
				-0.02717408537864685,
				-0.7956521511077881,
				0.06413046270608902
			],
			"min":[
				-0.04891318082809448,
				-0.8369565010070801,
				0.06413046270608902
			],
			"type":"VEC3"
		},
		{
			"bufferView":12,
			"componentType":5126,
			"count":39,
			"type":"VEC3"
		},
		{
			"bufferView":13,
			"componentType":5123,
			"count":63,
			"type":"SCALAR"
		},
		{
			"bufferView":14,
			"componentType":5126,
			"count":28,
			"max":[
				0.05760854482650757,
				-0.322826087474823,
				0.05326090008020401
			],
			"min":[
				0.018478095531463623,
				-0.34999996423721313,
				0.05326090008020401
			],
			"type":"VEC3"
		},
		{
			"bufferView":15,
			"componentType":5126,
			"count":28,
			"type":"VEC3"
		},
		{
			"bufferView":16,
			"componentType":5123,
			"count":42,
			"type":"SCALAR"
		},
		{
			"bufferView":17,
			"componentType":5126,
			"count":39,
			"max":[
				0.048912882804870605,
				-0.40434783697128296,
				0.06413046270608902
			],
			"min":[
				0.027173757553100586,
				-0.44565218687057495,
				0.06413046270608902
			],
			"type":"VEC3"
		},
		{
			"bufferView":18,
			"componentType":5126,
			"count":39,
			"type":"VEC3"
		}
	],
	"bufferViews":[
		{
			"buffer":0,
			"byteLength":720,
			"byteOffset":0,
			"target":34962
		},
		{
			"buffer":0,
			"byteLength":720,
			"byteOffset":720,
			"target":34962
		},
		{
			"buffer":0,
			"byteLength":180,
			"byteOffset":1440,
			"target":34963
		},
		{
			"buffer":0,
			"byteLength":288,
			"byteOffset":1620,
			"target":34962
		},
		{
			"buffer":0,
			"byteLength":288,
			"byteOffset":1908,
			"target":34962
		},
		{
			"buffer":0,
			"byteLength":72,
			"byteOffset":2196,
			"target":34963
		},
		{
			"buffer":0,
			"byteLength":432,
			"byteOffset":2268,
			"target":34962
		},
		{
			"buffer":0,
			"byteLength":432,
			"byteOffset":2700,
			"target":34962
		},
		{
			"buffer":0,
			"byteLength":108,
			"byteOffset":3132,
			"target":34963
		},
		{
			"buffer":0,
			"byteLength":288,
			"byteOffset":3240,
			"target":34962
		},
		{
			"buffer":0,
			"byteLength":288,
			"byteOffset":3528,
			"target":34962
		},
		{
			"buffer":0,
			"byteLength":468,
			"byteOffset":3816,
			"target":34962
		},
		{
			"buffer":0,
			"byteLength":468,
			"byteOffset":4284,
			"target":34962
		},
		{
			"buffer":0,
			"byteLength":126,
			"byteOffset":4752,
			"target":34963
		},
		{
			"buffer":0,
			"byteLength":336,
			"byteOffset":4880,
			"target":34962
		},
		{
			"buffer":0,
			"byteLength":336,
			"byteOffset":5216,
			"target":34962
		},
		{
			"buffer":0,
			"byteLength":84,
			"byteOffset":5552,
			"target":34963
		},
		{
			"buffer":0,
			"byteLength":468,
			"byteOffset":5636,
			"target":34962
		},
		{
			"buffer":0,
			"byteLength":468,
			"byteOffset":6104,
			"target":34962
		}
	],
	"buffers":[
		{
			"byteLength":6572,
			"uri":"Pencere2.bin"
		}
	]
}
