{
	"asset":{
		"generator":"Khronos glTF Blender I/O v4.2.60",
		"version":"2.0"
	},
	"scene":0,
	"scenes":[
		{
			"name":"Scene",
			"nodes":[
				0,
				1,
				2,
				3,
				4,
				5,
				6
			]
		}
	],
	"nodes":[
		{
			"mesh":0,
			"name":"Building_017.005"
		},
		{
			"mesh":1,
			"name":"Pencere17.001"
		},
		{
			"mesh":2,
			"name":"Pencere35.001"
		},
		{
			"mesh":3,
			"name":"Pencere37.001"
		},
		{
			"mesh":4,
			"name":"Pencere4.005"
		},
		{
			"mesh":5,
			"name":"Pencere51.001"
		},
		{
			"mesh":6,
			"name":"Pencere9.001"
		}
	],
	"materials":[
		{
			"doubleSided":true,
			"name":"PencereSolar",
			"pbrMetallicRoughness":{
				"baseColorFactor":[
					0.9822452664375305,
					0.38132646679878235,
					0.0030353753827512264,
					1
				],
				"metallicFactor":0,
				"roughnessFactor":0.5
			}
		}
	],
	"meshes":[
		{
			"name":"Building_017_Mesh.015",
			"primitives":[
				{
					"attributes":{
						"POSITION":0,
						"NORMAL":1
					},
					"indices":2,
					"material":0
				}
			]
		},
		{
			"name":"Building_034_Mesh.015",
			"primitives":[
				{
					"attributes":{
						"POSITION":3,
						"NORMAL":4
					},
					"indices":5,
					"material":0
				}
			]
		},
		{
			"name":"Building_052_Mesh.015",
			"primitives":[
				{
					"attributes":{
						"POSITION":6,
						"NORMAL":7
					},
					"indices":8,
					"material":0
				}
			]
		},
		{
			"name":"Building_054_Mesh.015",
			"primitives":[
				{
					"attributes":{
						"POSITION":9,
						"NORMAL":10
					},
					"indices":11,
					"material":0
				}
			]
		},
		{
			"name":"Building_021_Mesh.015",
			"primitives":[
				{
					"attributes":{
						"POSITION":12,
						"NORMAL":13
					},
					"indices":11,
					"material":0
				}
			]
		},
		{
			"name":"Building_068_Mesh.015",
			"primitives":[
				{
					"attributes":{
						"POSITION":14,
						"NORMAL":15
					},
					"indices":2,
					"material":0
				}
			]
		},
		{
			"name":"Building_026_Mesh.015",
			"primitives":[
				{
					"attributes":{
						"POSITION":16,
						"NORMAL":17
					},
					"indices":18,
					"material":0
				}
			]
		}
	],
	"accessors":[
		{
			"bufferView":0,
			"componentType":5126,
			"count":64,
			"max":[
				-0.24673926830291748,
				-0.5999999642372131,
				0.06413045525550842
			],
			"min":[
				-0.28586968779563904,
				-0.6413043737411499,
				0.06413045525550842
			],
			"type":"VEC3"
		},
		{
			"bufferView":1,
			"componentType":5126,
			"count":64,
			"type":"VEC3"
		},
		{
			"bufferView":2,
			"componentType":5123,
			"count":96,
			"type":"SCALAR"
		},
		{
			"bufferView":3,
			"componentType":5126,
			"count":48,
			"max":[
				-0.10326102375984192,
				-0.877173900604248,
				0.05326090008020401
			],
			"min":[
				-0.12500017881393433,
				-0.936956524848938,
				0.05326090008020401
			],
			"type":"VEC3"
		},
		{
			"bufferView":4,
			"componentType":5126,
			"count":48,
			"type":"VEC3"
		},
		{
			"bufferView":5,
			"componentType":5123,
			"count":72,
			"type":"SCALAR"
		},
		{
			"bufferView":6,
			"componentType":5126,
			"count":24,
			"max":[
				0.13369548320770264,
				-0.616304337978363,
				0.0423913300037384
			],
			"min":[
				0.09456509351730347,
				-0.643478274345398,
				0.0423913300037384
			],
			"type":"VEC3"
		},
		{
			"bufferView":7,
			"componentType":5126,
			"count":24,
			"type":"VEC3"
		},
		{
			"bufferView":8,
			"componentType":5123,
			"count":36,
			"type":"SCALAR"
		},
		{
			"bufferView":9,
			"componentType":5126,
			"count":36,
			"max":[
				0.12499982118606567,
				-0.7956521511077881,
				0.05326090008020401
			],
			"min":[
				0.10326069593429565,
				-0.834782600402832,
				0.05326090008020401
			],
			"type":"VEC3"
		},
		{
			"bufferView":10,
			"componentType":5126,
			"count":36,
			"type":"VEC3"
		},
		{
			"bufferView":11,
			"componentType":5123,
			"count":54,
			"type":"SCALAR"
		},
		{
			"bufferView":12,
			"componentType":5126,
			"count":36,
			"max":[
				-0.179347962141037,
				-0.3065217137336731,
				0.0423913300037384
			],
			"min":[
				-0.201087087392807,
				-0.3500000238418579,
				0.0423913300037384
			],
			"type":"VEC3"
		},
		{
			"bufferView":13,
			"componentType":5126,
			"count":36,
			"type":"VEC3"
		},
		{
			"bufferView":14,
			"componentType":5126,
			"count":64,
			"max":[
				0.2858693599700928,
				-0.7956521511077881,
				0.06413046270608902
			],
			"min":[
				0.24673891067504883,
				-0.8369565010070801,
				0.06413046270608902
			],
			"type":"VEC3"
		},
		{
			"bufferView":15,
			"componentType":5126,
			"count":64,
			"type":"VEC3"
		},
		{
			"bufferView":16,
			"componentType":5126,
			"count":20,
			"max":[
				-0.17934797704219818,
				-0.811956524848938,
				0.05326090008020401
			],
			"min":[
				-0.2010871022939682,
				-0.8369565010070801,
				0.05326090008020401
			],
			"type":"VEC3"
		},
		{
			"bufferView":17,
			"componentType":5126,
			"count":20,
			"type":"VEC3"
		},
		{
			"bufferView":18,
			"componentType":5123,
			"count":30,
			"type":"SCALAR"
		}
	],
	"bufferViews":[
		{
			"buffer":0,
			"byteLength":768,
			"byteOffset":0,
			"target":34962
		},
		{
			"buffer":0,
			"byteLength":768,
			"byteOffset":768,
			"target":34962
		},
		{
			"buffer":0,
			"byteLength":192,
			"byteOffset":1536,
			"target":34963
		},
		{
			"buffer":0,
			"byteLength":576,
			"byteOffset":1728,
			"target":34962
		},
		{
			"buffer":0,
			"byteLength":576,
			"byteOffset":2304,
			"target":34962
		},
		{
			"buffer":0,
			"byteLength":144,
			"byteOffset":2880,
			"target":34963
		},
		{
			"buffer":0,
			"byteLength":288,
			"byteOffset":3024,
			"target":34962
		},
		{
			"buffer":0,
			"byteLength":288,
			"byteOffset":3312,
			"target":34962
		},
		{
			"buffer":0,
			"byteLength":72,
			"byteOffset":3600,
			"target":34963
		},
		{
			"buffer":0,
			"byteLength":432,
			"byteOffset":3672,
			"target":34962
		},
		{
			"buffer":0,
			"byteLength":432,
			"byteOffset":4104,
			"target":34962
		},
		{
			"buffer":0,
			"byteLength":108,
			"byteOffset":4536,
			"target":34963
		},
		{
			"buffer":0,
			"byteLength":432,
			"byteOffset":4644,
			"target":34962
		},
		{
			"buffer":0,
			"byteLength":432,
			"byteOffset":5076,
			"target":34962
		},
		{
			"buffer":0,
			"byteLength":768,
			"byteOffset":5508,
			"target":34962
		},
		{
			"buffer":0,
			"byteLength":768,
			"byteOffset":6276,
			"target":34962
		},
		{
			"buffer":0,
			"byteLength":240,
			"byteOffset":7044,
			"target":34962
		},
		{
			"buffer":0,
			"byteLength":240,
			"byteOffset":7284,
			"target":34962
		},
		{
			"buffer":0,
			"byteLength":60,
			"byteOffset":7524,
			"target":34963
		}
	],
	"buffers":[
		{
			"byteLength":7584,
			"uri":"Pencere6.bin"
		}
	]
}
