{
	"asset":{
		"generator":"Khronos glTF Blender I/O v4.2.60",
		"version":"2.0"
	},
	"scene":0,
	"scenes":[
		{
			"name":"Scene",
			"nodes":[
				1
			]
		}
	],
	"nodes":[
		{
			"mesh":0,
			"name":"Cube.078",
			"rotation":[
				0.5000001192092896,
				-0.5000001192092896,
				-0.4999999403953552,
				0.49999988079071045
			],
			"scale":[
				1.6666550636291504,
				4.7152099609375,
				1.3333332538604736
			],
			"translation":[
				-0.04905452951788902,
				0.5542522072792053,
				-0.5773433446884155
			]
		},
		{
			"children":[
				0
			],
			"name":"Bar5.005",
			"rotation":[
				0,
				-0.7071067094802856,
				0,
				0.7071068286895752
			],
			"scale":[
				1,
				1,
				0.9828607439994812
			],
			"translation":[
				-0.5674480199813843,
				-0.5542522072792053,
				0.04905456304550171
			]
		}
	],
	"animations":[
		{
			"channels":[
				{
					"sampler":0,
					"target":{
						"node":1,
						"path":"scale"
					}
				}
			],
			"name":"Bar5.005Action.001",
			"samplers":[
				{
					"input":3,
					"interpolation":"LINEAR",
					"output":4
				}
			]
		}
	],
	"materials":[
		{
			"doubleSided":true,
			"name":"PencereSolar.008",
			"pbrMetallicRoughness":{
				"baseColorFactor":[
					0.9822452664375305,
					0.38132646679878235,
					0.0030353753827512264,
					1
				],
				"metallicFactor":0,
				"roughnessFactor":0.5
			}
		}
	],
	"meshes":[
		{
			"name":"Cube.076",
			"primitives":[
				{
					"attributes":{
						"POSITION":0,
						"NORMAL":1
					},
					"indices":2,
					"material":0
				}
			]
		}
	],
	"accessors":[
		{
			"bufferView":0,
			"componentType":5126,
			"count":24,
			"max":[
				0.3393037021160126,
				0.12244275957345963,
				-0.03304110839962959
			],
			"min":[
				0.3258035480976105,
				0.0832134485244751,
				-0.04054110869765282
			],
			"type":"VEC3"
		},
		{
			"bufferView":1,
			"componentType":5126,
			"count":24,
			"type":"VEC3"
		},
		{
			"bufferView":2,
			"componentType":5123,
			"count":36,
			"type":"SCALAR"
		},
		{
			"bufferView":3,
			"componentType":5126,
			"count":45,
			"max":[
				1.8333333333333333
			],
			"min":[
				0
			],
			"type":"SCALAR"
		},
		{
			"bufferView":4,
			"componentType":5126,
			"count":45,
			"type":"VEC3"
		}
	],
	"bufferViews":[
		{
			"buffer":0,
			"byteLength":288,
			"byteOffset":0,
			"target":34962
		},
		{
			"buffer":0,
			"byteLength":288,
			"byteOffset":288,
			"target":34962
		},
		{
			"buffer":0,
			"byteLength":72,
			"byteOffset":576,
			"target":34963
		},
		{
			"buffer":0,
			"byteLength":180,
			"byteOffset":648
		},
		{
			"buffer":0,
			"byteLength":540,
			"byteOffset":828
		}
	],
	"buffers":[
		{
			"byteLength":1368,
			"uri":"Bar2.bin"
		}
	]
}
