{
	"asset":{
		"generator":"Khronos glTF Blender I/O v4.2.60",
		"version":"2.0"
	},
	"scene":0,
	"scenes":[
		{
			"name":"Scene",
			"nodes":[
				0
			]
		}
	],
	"nodes":[
		{
			"mesh":0,
			"name":"Cube.057",
			"rotation":[
				-0.7071068286895752,
				0.7071068286895752,
				0,
				1.3767879636361613e-07
			],
			"scale":[
				1.6666550636291504,
				4.634394645690918,
				1.3333334922790527
			]
		}
	],
	"materials":[
		{
			"alphaMode":"BLEND",
			"doubleSided":true,
			"name":"Material.004",
			"pbrMetallicRoughness":{
				"baseColorFactor":[
					0.9822452664375305,
					0.38132646679878235,
					0.0030353753827512264,
					0.5
				],
				"metallicFactor":0,
				"roughnessFactor":0.5
			}
		}
	],
	"meshes":[
		{
			"name":"Cube.064",
			"primitives":[
				{
					"attributes":{
						"POSITION":0,
						"NORMAL":1,
						"COLOR_0":2,
						"COLOR_1":3
					},
					"indices":4,
					"material":0
				}
			]
		}
	],
	"accessors":[
		{
			"bufferView":0,
			"componentType":5126,
			"count":103,
			"max":[
				0.3452814221382141,
				0.12244278192520142,
				-0.033041391521692276
			],
			"min":[
				0.3198254406452179,
				0.09560518711805344,
				-0.040541768074035645
			],
			"type":"VEC3"
		},
		{
			"bufferView":1,
			"componentType":5126,
			"count":103,
			"type":"VEC3"
		},
		{
			"bufferView":2,
			"componentType":5121,
			"count":103,
			"normalized":true,
			"type":"VEC4"
		},
		{
			"bufferView":3,
			"componentType":5126,
			"count":103,
			"type":"VEC3"
		},
		{
			"bufferView":4,
			"componentType":5123,
			"count":195,
			"type":"SCALAR"
		}
	],
	"bufferViews":[
		{
			"buffer":0,
			"byteLength":1236,
			"byteOffset":0,
			"target":34962
		},
		{
			"buffer":0,
			"byteLength":1236,
			"byteOffset":1236,
			"target":34962
		},
		{
			"buffer":0,
			"byteLength":412,
			"byteOffset":2472,
			"target":34962
		},
		{
			"buffer":0,
			"byteLength":1236,
			"byteOffset":2884,
			"target":34962
		},
		{
			"buffer":0,
			"byteLength":390,
			"byteOffset":4120,
			"target":34963
		}
	],
	"buffers":[
		{
			"byteLength":4512,
			"uri":"Barkapanacak.bin"
		}
	]
}
