{
	"asset":{
		"generator":"Khronos glTF Blender I/O v4.2.60",
		"version":"2.0"
	},
	"scene":0,
	"scenes":[
		{
			"name":"Scene",
			"nodes":[
				0,
				1,
				2
			]
		}
	],
	"nodes":[
		{
			"mesh":0,
			"name":"Cube.062",
			"rotation":[
				0,
				-0.8660255074501038,
				0,
				0.5
			],
			"scale":[
				1.6666686534881592,
				1,
				1.3333332538604736
			]
		},
		{
			"mesh":1,
			"name":"Cube.064",
			"rotation":[
				0.6123725175857544,
				-0.6123724579811096,
				-0.3535534143447876,
				0.3535534143447876
			],
			"scale":[
				1.6666550636291504,
				3.9291844367980957,
				1.3333332538604736
			]
		},
		{
			"mesh":2,
			"name":"Cube.056",
			"rotation":[
				-0.4999999701976776,
				0,
				-0.8660253882408142,
				2.165628387729157e-07
			],
			"scale":[
				1,
				3.8791191577911377,
				1
			]
		}
	],
	"materials":[
		{
			"alphaMode":"BLEND",
			"doubleSided":true,
			"name":"Material.004",
			"pbrMetallicRoughness":{
				"baseColorFactor":[
					0.9822452664375305,
					0.38132646679878235,
					0.0030353753827512264,
					0.5
				],
				"metallicFactor":0,
				"roughnessFactor":0.5
			}
		}
	],
	"meshes":[
		{
			"name":"Cube.037",
			"primitives":[
				{
					"attributes":{
						"POSITION":0,
						"NORMAL":1
					},
					"indices":2,
					"material":0
				}
			]
		},
		{
			"name":"Cube.047",
			"primitives":[
				{
					"attributes":{
						"POSITION":3,
						"NORMAL":4
					},
					"indices":2,
					"material":0
				}
			]
		},
		{
			"name":"Cube.071",
			"primitives":[
				{
					"attributes":{
						"POSITION":5,
						"NORMAL":6
					},
					"indices":7,
					"material":0
				}
			]
		}
	],
	"accessors":[
		{
			"bufferView":0,
			"componentType":5126,
			"count":24,
			"max":[
				-0.1455203741788864,
				-0.9664782881736755,
				0.3526861071586609
			],
			"min":[
				-0.15302036702632904,
				-1.0071742534637451,
				0.34518611431121826
			],
			"type":"VEC3"
		},
		{
			"bufferView":1,
			"componentType":5126,
			"count":24,
			"type":"VEC3"
		},
		{
			"bufferView":2,
			"componentType":5123,
			"count":36,
			"type":"SCALAR"
		},
		{
			"bufferView":3,
			"componentType":5126,
			"count":24,
			"max":[
				0.6043087244033813,
				0.057443395256996155,
				0.3526861071586609
			],
			"min":[
				0.596808671951294,
				-0.06490768492221832,
				0.34518611431121826
			],
			"type":"VEC3"
		},
		{
			"bufferView":4,
			"componentType":5126,
			"count":24,
			"type":"VEC3"
		},
		{
			"bufferView":5,
			"componentType":5126,
			"count":62,
			"max":[
				0.3218768835067749,
				0.25963979959487915,
				-0.4602491557598114
			],
			"min":[
				0.22436407208442688,
				0.14126963913440704,
				-0.470249205827713
			],
			"type":"VEC3"
		},
		{
			"bufferView":6,
			"componentType":5126,
			"count":62,
			"type":"VEC3"
		},
		{
			"bufferView":7,
			"componentType":5123,
			"count":108,
			"type":"SCALAR"
		}
	],
	"bufferViews":[
		{
			"buffer":0,
			"byteLength":288,
			"byteOffset":0,
			"target":34962
		},
		{
			"buffer":0,
			"byteLength":288,
			"byteOffset":288,
			"target":34962
		},
		{
			"buffer":0,
			"byteLength":72,
			"byteOffset":576,
			"target":34963
		},
		{
			"buffer":0,
			"byteLength":288,
			"byteOffset":648,
			"target":34962
		},
		{
			"buffer":0,
			"byteLength":288,
			"byteOffset":936,
			"target":34962
		},
		{
			"buffer":0,
			"byteLength":744,
			"byteOffset":1224,
			"target":34962
		},
		{
			"buffer":0,
			"byteLength":744,
			"byteOffset":1968,
			"target":34962
		},
		{
			"buffer":0,
			"byteLength":216,
			"byteOffset":2712,
			"target":34963
		}
	],
	"buffers":[
		{
			"byteLength":2928,
			"uri":"Barsabit.bin"
		}
	]
}
