{
	"asset":{
		"generator":"Khronos glTF Blender I/O v4.2.60",
		"version":"2.0"
	},
	"scene":0,
	"scenes":[
		{
			"name":"Scene",
			"nodes":[
				1
			]
		}
	],
	"nodes":[
		{
			"mesh":0,
			"name":"Plane.052",
			"rotation":[
				0.27059808373451233,
				-0.653281569480896,
				-0.6532815098762512,
				0.270597904920578
			],
			"scale":[
				0.035330161452293396,
				0.028868278488516808,
				0.035329997539520264
			],
			"translation":[
				0.3890778422355652,
				0.554252028465271,
				-0.049050331115722656
			]
		},
		{
			"children":[
				0
			],
			"name":"Ok1.004",
			"translation":[
				-0.3890778422355652,
				-0.554252028465271,
				0.049050331115722656
			]
		}
	],
	"materials":[
		{
			"doubleSided":true,
			"name":"PencereSolar.003",
			"pbrMetallicRoughness":{
				"baseColorFactor":[
					0.9822452664375305,
					0.38132646679878235,
					0.0030353753827512264,
					1
				],
				"metallicFactor":0,
				"roughnessFactor":0.5
			}
		}
	],
	"meshes":[
		{
			"name":"Plane.072",
			"primitives":[
				{
					"attributes":{
						"POSITION":0,
						"NORMAL":1,
						"TEXCOORD_0":2
					},
					"indices":3,
					"material":0
				}
			]
		}
	],
	"accessors":[
		{
			"bufferView":0,
			"componentType":5126,
			"count":22,
			"max":[
				19.38004493713379,
				1.8721489906311035,
				-2.805858850479126
			],
			"min":[
				18.38004493713379,
				1.5257477760314941,
				-3.805858850479126
			],
			"type":"VEC3"
		},
		{
			"bufferView":1,
			"componentType":5126,
			"count":22,
			"type":"VEC3"
		},
		{
			"bufferView":2,
			"componentType":5126,
			"count":22,
			"type":"VEC2"
		},
		{
			"bufferView":3,
			"componentType":5123,
			"count":36,
			"type":"SCALAR"
		}
	],
	"bufferViews":[
		{
			"buffer":0,
			"byteLength":264,
			"byteOffset":0,
			"target":34962
		},
		{
			"buffer":0,
			"byteLength":264,
			"byteOffset":264,
			"target":34962
		},
		{
			"buffer":0,
			"byteLength":176,
			"byteOffset":528,
			"target":34962
		},
		{
			"buffer":0,
			"byteLength":72,
			"byteOffset":704,
			"target":34963
		}
	],
	"buffers":[
		{
			"byteLength":776,
			"uri":"Ok.bin"
		}
	]
}
