{
	"asset":{
		"generator":"Khronos glTF Blender I/O v4.2.60",
		"version":"2.0"
	},
	"scene":0,
	"scenes":[
		{
			"name":"Scene",
			"nodes":[
				1
			]
		}
	],
	"nodes":[
		{
			"mesh":0,
			"name":"Cube.063",
			"rotation":[
				-0.3826833963394165,
				-0.9238795638084412,
				0,
				1.7988600120588671e-07
			],
			"scale":[
				1.666668176651001,
				0.7921750545501709,
				1.3333349227905273
			],
			"translation":[
				0.47312429547309875,
				0.5542519688606262,
				-0.04905499890446663
			]
		},
		{
			"children":[
				0
			],
			"name":"Ok.002",
			"translation":[
				-0.47312429547309875,
				-0.5542519688606262,
				0.04905499890446663
			]
		}
	],
	"animations":[
		{
			"channels":[
				{
					"sampler":0,
					"target":{
						"node":1,
						"path":"translation"
					}
				},
				{
					"sampler":1,
					"target":{
						"node":1,
						"path":"rotation"
					}
				}
			],
			"name":"Empty.009Action",
			"samplers":[
				{
					"input":3,
					"interpolation":"LINEAR",
					"output":4
				},
				{
					"input":3,
					"interpolation":"LINEAR",
					"output":5
				}
			]
		}
	],
	"materials":[
		{
			"doubleSided":true,
			"name":"PencereSolar.003",
			"pbrMetallicRoughness":{
				"baseColorFactor":[
					0.9822452664375305,
					0.38132646679878235,
					0.0030353753827512264,
					1
				],
				"metallicFactor":0,
				"roughnessFactor":0.5
			}
		}
	],
	"meshes":[
		{
			"name":"Cube.045",
			"primitives":[
				{
					"attributes":{
						"POSITION":0,
						"NORMAL":1
					},
					"indices":2,
					"material":0
				}
			]
		}
	],
	"accessors":[
		{
			"bufferView":0,
			"componentType":5126,
			"count":48,
			"max":[
				-0.029169509187340736,
				-0.890225887298584,
				-0.03304145485162735
			],
			"min":[
				-0.0471695140004158,
				-0.9280962944030762,
				-0.04054144769906998
			],
			"type":"VEC3"
		},
		{
			"bufferView":1,
			"componentType":5126,
			"count":48,
			"type":"VEC3"
		},
		{
			"bufferView":2,
			"componentType":5123,
			"count":72,
			"type":"SCALAR"
		},
		{
			"bufferView":3,
			"componentType":5126,
			"count":64,
			"max":[
				2.625
			],
			"min":[
				0
			],
			"type":"SCALAR"
		},
		{
			"bufferView":4,
			"componentType":5126,
			"count":64,
			"type":"VEC3"
		},
		{
			"bufferView":5,
			"componentType":5126,
			"count":64,
			"type":"VEC4"
		}
	],
	"bufferViews":[
		{
			"buffer":0,
			"byteLength":576,
			"byteOffset":0,
			"target":34962
		},
		{
			"buffer":0,
			"byteLength":576,
			"byteOffset":576,
			"target":34962
		},
		{
			"buffer":0,
			"byteLength":144,
			"byteOffset":1152,
			"target":34963
		},
		{
			"buffer":0,
			"byteLength":256,
			"byteOffset":1296
		},
		{
			"buffer":0,
			"byteLength":768,
			"byteOffset":1552
		},
		{
			"buffer":0,
			"byteLength":1024,
			"byteOffset":2320
		}
	],
	"buffers":[
		{
			"byteLength":3344,
			"uri":"Ok.bin"
		}
	]
}
