{
	"asset":{
		"generator":"Khronos glTF Blender I/O v4.2.60",
		"version":"2.0"
	},
	"scene":0,
	"scenes":[
		{
			"name":"Scene",
			"nodes":[
				0
			]
		}
	],
	"nodes":[
		{
			"mesh":0,
			"name":"Text.001",
			"rotation":[
				0.7071068286895752,
				0,
				0,
				0.7071068286895752
			],
			"scale":[
				4.310130596160889,
				2.17391300201416,
				4.310131549835205
			],
			"translation":[
				-0.21368682384490967,
				0.1393776834011078,
				0.016043340787291527
			]
		}
	],
	"materials":[
		{
			"doubleSided":true,
			"name":"Material.002",
			"pbrMetallicRoughness":{
				"baseColorFactor":[
					0.7758182287216187,
					0.18116439878940582,
					0.0030353262554854155,
					1
				],
				"metallicFactor":0,
				"roughnessFactor":0.5
			}
		}
	],
	"meshes":[
		{
			"name":"Text.004",
			"primitives":[
				{
					"attributes":{
						"POSITION":0,
						"NORMAL":1,
						"TEXCOORD_0":2
					},
					"indices":3,
					"material":0
				}
			]
		}
	],
	"accessors":[
		{
			"bufferView":0,
			"componentType":5126,
			"count":11919,
			"max":[
				0.06912725418806076,
				0.0010000000474974513,
				0.005044142249971628
			],
			"min":[
				-0.05468863248825073,
				-0.0010000000474974513,
				-0.005044143181294203
			],
			"type":"VEC3"
		},
		{
			"bufferView":1,
			"componentType":5126,
			"count":11919,
			"type":"VEC3"
		},
		{
			"bufferView":2,
			"componentType":5126,
			"count":11919,
			"type":"VEC2"
		},
		{
			"bufferView":3,
			"componentType":5123,
			"count":35256,
			"type":"SCALAR"
		}
	],
	"bufferViews":[
		{
			"buffer":0,
			"byteLength":143028,
			"byteOffset":0,
			"target":34962
		},
		{
			"buffer":0,
			"byteLength":143028,
			"byteOffset":143028,
			"target":34962
		},
		{
			"buffer":0,
			"byteLength":95352,
			"byteOffset":286056,
			"target":34962
		},
		{
			"buffer":0,
			"byteLength":70512,
			"byteOffset":381408,
			"target":34963
		}
	],
	"buffers":[
		{
			"byteLength":451920,
			"uri":"Soru1.1.bin"
		}
	]
}
