{
	"asset":{
		"generator":"Khronos glTF Blender I/O v4.2.60",
		"version":"2.0"
	},
	"scene":0,
	"scenes":[
		{
			"name":"Scene",
			"nodes":[
				0,
				1,
				2,
				3
			]
		}
	],
	"nodes":[
		{
			"mesh":0,
			"name":"Building_019.006"
		},
		{
			"mesh":1,
			"name":"Building_019.007"
		},
		{
			"mesh":2,
			"name":"Building_019.008"
		},
		{
			"mesh":3,
			"name":"Building_019.017"
		}
	],
	"materials":[
		{
			"doubleSided":true,
			"name":"BinaGrid",
			"pbrMetallicRoughness":{
				"baseColorFactor":[
					0.2874388098716736,
					0.3371638357639313,
					0.4178852438926697,
					1
				],
				"metallicFactor":0,
				"roughnessFactor":0.5
			}
		},
		{
			"doubleSided":true,
			"name":"Kap\u0131Grid",
			"pbrMetallicRoughness":{
				"baseColorFactor":[
					0.2874388098716736,
					0.3371638357639313,
					0.4178852438926697,
					1
				],
				"metallicFactor":0,
				"roughnessFactor":0.699999988079071
			}
		},
		{
			"doubleSided":true,
			"name":"PencereGrid",
			"pbrMetallicRoughness":{
				"baseColorFactor":[
					0.1499587893486023,
					0.17464761435985565,
					0.2122308313846588,
					1
				],
				"metallicFactor":0,
				"roughnessFactor":0.699999988079071
			}
		}
	],
	"meshes":[
		{
			"name":"Building_019_Mesh.006",
			"primitives":[
				{
					"attributes":{
						"POSITION":0,
						"NORMAL":1
					},
					"indices":2,
					"material":0
				}
			]
		},
		{
			"name":"Building_019_Mesh.007",
			"primitives":[
				{
					"attributes":{
						"POSITION":3,
						"NORMAL":4
					},
					"indices":5,
					"material":1
				}
			]
		},
		{
			"name":"Building_019_Mesh.008",
			"primitives":[
				{
					"attributes":{
						"POSITION":6,
						"NORMAL":7
					},
					"indices":8,
					"material":2
				}
			]
		},
		{
			"name":"Building_019_Mesh.018",
			"primitives":[
				{
					"attributes":{
						"POSITION":9,
						"NORMAL":10
					},
					"indices":2,
					"material":0
				}
			]
		}
	],
	"accessors":[
		{
			"bufferView":0,
			"componentType":5126,
			"count":513,
			"max":[
				-0.2418479323387146,
				-0.894565224647522,
				0.043478287756443024
			],
			"min":[
				-0.29076099395751953,
				-0.9402173757553101,
				2.9802322387695312e-08
			],
			"type":"VEC3"
		},
		{
			"bufferView":1,
			"componentType":5126,
			"count":513,
			"type":"VEC3"
		},
		{
			"bufferView":2,
			"componentType":5123,
			"count":1434,
			"type":"SCALAR"
		},
		{
			"bufferView":3,
			"componentType":5126,
			"count":4,
			"max":[
				-0.2576088309288025,
				-0.9260869026184082,
				0.04130437597632408
			],
			"min":[
				-0.27500012516975403,
				-0.9402173757553101,
				0.04130437597632408
			],
			"type":"VEC3"
		},
		{
			"bufferView":4,
			"componentType":5126,
			"count":4,
			"type":"VEC3"
		},
		{
			"bufferView":5,
			"componentType":5123,
			"count":6,
			"type":"SCALAR"
		},
		{
			"bufferView":6,
			"componentType":5126,
			"count":30,
			"max":[
				-0.24673926830291748,
				-0.9097825884819031,
				0.04130437225103378
			],
			"min":[
				-0.2858697175979614,
				-0.9326087236404419,
				0.04130437225103378
			],
			"type":"VEC3"
		},
		{
			"bufferView":7,
			"componentType":5126,
			"count":30,
			"type":"VEC3"
		},
		{
			"bufferView":8,
			"componentType":5123,
			"count":48,
			"type":"SCALAR"
		},
		{
			"bufferView":9,
			"componentType":5126,
			"count":513,
			"max":[
				-0.241847962141037,
				-0.894565224647522,
				0.043478287756443024
			],
			"min":[
				-0.2907610237598419,
				-0.9402173757553101,
				2.9802322387695312e-08
			],
			"type":"VEC3"
		},
		{
			"bufferView":10,
			"componentType":5126,
			"count":513,
			"type":"VEC3"
		}
	],
	"bufferViews":[
		{
			"buffer":0,
			"byteLength":6156,
			"byteOffset":0,
			"target":34962
		},
		{
			"buffer":0,
			"byteLength":6156,
			"byteOffset":6156,
			"target":34962
		},
		{
			"buffer":0,
			"byteLength":2868,
			"byteOffset":12312,
			"target":34963
		},
		{
			"buffer":0,
			"byteLength":48,
			"byteOffset":15180,
			"target":34962
		},
		{
			"buffer":0,
			"byteLength":48,
			"byteOffset":15228,
			"target":34962
		},
		{
			"buffer":0,
			"byteLength":12,
			"byteOffset":15276,
			"target":34963
		},
		{
			"buffer":0,
			"byteLength":360,
			"byteOffset":15288,
			"target":34962
		},
		{
			"buffer":0,
			"byteLength":360,
			"byteOffset":15648,
			"target":34962
		},
		{
			"buffer":0,
			"byteLength":96,
			"byteOffset":16008,
			"target":34963
		},
		{
			"buffer":0,
			"byteLength":6156,
			"byteOffset":16104,
			"target":34962
		},
		{
			"buffer":0,
			"byteLength":6156,
			"byteOffset":22260,
			"target":34962
		}
	],
	"buffers":[
		{
			"byteLength":28416,
			"uri":"Binakapanacak1.bin"
		}
	]
}
