{
	"asset":{
		"generator":"Khronos glTF Blender I/O v4.2.60",
		"version":"2.0"
	},
	"scene":0,
	"scenes":[
		{
			"name":"Scene",
			"nodes":[
				1,
				3,
				5
			]
		}
	],
	"nodes":[
		{
			"mesh":0,
			"name":"G\u00fcnes",
			"translation":[
				-0.23394775390625,
				-0.1997833251953125,
				-0.009998321533203125
			]
		},
		{
			"children":[
				0
			],
			"name":"g\u00fcne\u015f1",
			"scale":[
				0.0009999871253967285,
				0.0009999871253967285,
				0.0009999871253967285
			],
			"translation":[
				0.23396806418895721,
				0.19979427754878998,
				0.009999990463256836
			]
		},
		{
			"mesh":1,
			"name":"G\u00fcnes.007",
			"translation":[
				-0.23396873474121094,
				-0.199798583984375,
				-0.004999637603759766
			]
		},
		{
			"children":[
				2
			],
			"name":"g\u00fcne\u015f2",
			"scale":[
				0.009999990463256836,
				0.0010000001639127731,
				0.0009999871253967285
			],
			"translation":[
				0.23396806418895721,
				0.19979417324066162,
				0.0049999854527413845
			]
		},
		{
			"mesh":2,
			"name":"G\u00fcnes.008",
			"translation":[
				-0.23396682739257812,
				-0.19979476928710938,
				-0.0009999796748161316
			]
		},
		{
			"children":[
				4
			],
			"name":"g\u00fcne\u015f3",
			"scale":[
				0.009999999776482582,
				0.009999999776482582,
				0.009999999776482582
			],
			"translation":[
				0.23396804928779602,
				0.19979427754878998,
				0.0009999850299209356
			]
		}
	],
	"animations":[
		{
			"channels":[
				{
					"sampler":0,
					"target":{
						"node":1,
						"path":"scale"
					}
				}
			],
			"name":"g\u00fcne\u015f1Action",
			"samplers":[
				{
					"input":10,
					"interpolation":"LINEAR",
					"output":11
				}
			]
		},
		{
			"channels":[
				{
					"sampler":0,
					"target":{
						"node":3,
						"path":"scale"
					}
				}
			],
			"name":"g\u00fcne\u015f2Action",
			"samplers":[
				{
					"input":12,
					"interpolation":"LINEAR",
					"output":13
				}
			]
		},
		{
			"channels":[
				{
					"sampler":0,
					"target":{
						"node":5,
						"path":"scale"
					}
				}
			],
			"name":"g\u00fcne\u015f3Action.001",
			"samplers":[
				{
					"input":14,
					"interpolation":"LINEAR",
					"output":15
				}
			]
		}
	],
	"materials":[
		{
			"alphaMode":"BLEND",
			"doubleSided":true,
			"name":"Material.004",
			"pbrMetallicRoughness":{
				"baseColorFactor":[
					0.9822452664375305,
					0.38132646679878235,
					0.0030353753827512264,
					0.5
				],
				"metallicFactor":0,
				"roughnessFactor":0.5
			}
		},
		{
			"alphaMode":"BLEND",
			"doubleSided":true,
			"name":"Material.006",
			"pbrMetallicRoughness":{
				"baseColorFactor":[
					0.9822452664375305,
					0.38132646679878235,
					0.0030353753827512264,
					0.20000000298023224
				],
				"metallicFactor":0,
				"roughnessFactor":0.5
			}
		}
	],
	"meshes":[
		{
			"name":"Circle",
			"primitives":[
				{
					"attributes":{
						"POSITION":0,
						"NORMAL":1,
						"TEXCOORD_0":2
					},
					"indices":3,
					"material":0
				}
			]
		},
		{
			"name":"Circle.006",
			"primitives":[
				{
					"attributes":{
						"POSITION":4,
						"NORMAL":5,
						"TEXCOORD_0":6
					},
					"indices":3,
					"material":0
				}
			]
		},
		{
			"name":"Circle.007",
			"primitives":[
				{
					"attributes":{
						"POSITION":7,
						"NORMAL":8,
						"TEXCOORD_0":9
					},
					"indices":3,
					"material":1
				}
			]
		}
	],
	"accessors":[
		{
			"bufferView":0,
			"componentType":5126,
			"count":160,
			"max":[
				0.3328809440135956,
				0.2987072765827179,
				0.009999992325901985
			],
			"min":[
				0.13505515456199646,
				0.10088121891021729,
				0.009999977424740791
			],
			"type":"VEC3"
		},
		{
			"bufferView":1,
			"componentType":5126,
			"count":160,
			"type":"VEC3"
		},
		{
			"bufferView":2,
			"componentType":5126,
			"count":160,
			"type":"VEC2"
		},
		{
			"bufferView":3,
			"componentType":5123,
			"count":564,
			"type":"SCALAR"
		},
		{
			"bufferView":4,
			"componentType":5126,
			"count":160,
			"max":[
				0.34701138734817505,
				0.31283771991729736,
				0.004999993368983269
			],
			"min":[
				0.12092474848031998,
				0.08675076812505722,
				0.004999976139515638
			],
			"type":"VEC3"
		},
		{
			"bufferView":5,
			"componentType":5126,
			"count":160,
			"type":"VEC3"
		},
		{
			"bufferView":6,
			"componentType":5126,
			"count":160,
			"type":"VEC2"
		},
		{
			"bufferView":7,
			"componentType":5126,
			"count":160,
			"max":[
				0.36114177107810974,
				0.32696813344955444,
				0.000999994808807969
			],
			"min":[
				0.10679435729980469,
				0.07262034714221954,
				0.0009999756002798676
			],
			"type":"VEC3"
		},
		{
			"bufferView":8,
			"componentType":5126,
			"count":160,
			"type":"VEC3"
		},
		{
			"bufferView":9,
			"componentType":5126,
			"count":160,
			"type":"VEC2"
		},
		{
			"bufferView":10,
			"componentType":5126,
			"count":13,
			"max":[
				0.5
			],
			"min":[
				0
			],
			"type":"SCALAR"
		},
		{
			"bufferView":11,
			"componentType":5126,
			"count":13,
			"type":"VEC3"
		},
		{
			"bufferView":12,
			"componentType":5126,
			"count":13,
			"max":[
				0.6666666666666666
			],
			"min":[
				0.16666666666666666
			],
			"type":"SCALAR"
		},
		{
			"bufferView":13,
			"componentType":5126,
			"count":13,
			"type":"VEC3"
		},
		{
			"bufferView":14,
			"componentType":5126,
			"count":13,
			"max":[
				0.8333333333333334
			],
			"min":[
				0.3333333333333333
			],
			"type":"SCALAR"
		},
		{
			"bufferView":15,
			"componentType":5126,
			"count":13,
			"type":"VEC3"
		}
	],
	"bufferViews":[
		{
			"buffer":0,
			"byteLength":1920,
			"byteOffset":0,
			"target":34962
		},
		{
			"buffer":0,
			"byteLength":1920,
			"byteOffset":1920,
			"target":34962
		},
		{
			"buffer":0,
			"byteLength":1280,
			"byteOffset":3840,
			"target":34962
		},
		{
			"buffer":0,
			"byteLength":1128,
			"byteOffset":5120,
			"target":34963
		},
		{
			"buffer":0,
			"byteLength":1920,
			"byteOffset":6248,
			"target":34962
		},
		{
			"buffer":0,
			"byteLength":1920,
			"byteOffset":8168,
			"target":34962
		},
		{
			"buffer":0,
			"byteLength":1280,
			"byteOffset":10088,
			"target":34962
		},
		{
			"buffer":0,
			"byteLength":1920,
			"byteOffset":11368,
			"target":34962
		},
		{
			"buffer":0,
			"byteLength":1920,
			"byteOffset":13288,
			"target":34962
		},
		{
			"buffer":0,
			"byteLength":1280,
			"byteOffset":15208,
			"target":34962
		},
		{
			"buffer":0,
			"byteLength":52,
			"byteOffset":16488
		},
		{
			"buffer":0,
			"byteLength":156,
			"byteOffset":16540
		},
		{
			"buffer":0,
			"byteLength":52,
			"byteOffset":16696
		},
		{
			"buffer":0,
			"byteLength":156,
			"byteOffset":16748
		},
		{
			"buffer":0,
			"byteLength":52,
			"byteOffset":16904
		},
		{
			"buffer":0,
			"byteLength":156,
			"byteOffset":16956
		}
	],
	"buffers":[
		{
			"byteLength":17112,
			"uri":"gunes.bin"
		}
	]
}
