{
	"asset":{
		"generator":"Khronos glTF Blender I/O v4.2.60",
		"version":"2.0"
	},
	"scene":0,
	"scenes":[
		{
			"name":"Scene",
			"nodes":[
				0
			]
		}
	],
	"nodes":[
		{
			"mesh":0,
			"name":"1 yedek.001",
			"rotation":[
				0.7071068286895752,
				0,
				0,
				0.7071068286895752
			],
			"scale":[
				4.310130596160889,
				2.17391300201416,
				4.310131549835205
			],
			"translation":[
				0,
				0,
				0.0160435251891613
			]
		}
	],
	"materials":[
		{
			"doubleSided":true,
			"name":"Material.002",
			"pbrMetallicRoughness":{
				"baseColorFactor":[
					0.7758182287216187,
					0.18116439878940582,
					0.0030353262554854155,
					1
				],
				"metallicFactor":0,
				"roughnessFactor":0.5
			}
		}
	],
	"meshes":[
		{
			"name":"Text.064",
			"primitives":[
				{
					"attributes":{
						"POSITION":0,
						"NORMAL":1,
						"TEXCOORD_0":2
					},
					"indices":3,
					"material":0
				}
			]
		}
	],
	"accessors":[
		{
			"bufferView":0,
			"componentType":5126,
			"count":21638,
			"max":[
				0.09130191802978516,
				0.0010000000474974513,
				-0.02729308046400547
			],
			"min":[
				-0.10427580773830414,
				-0.0010000000474974513,
				-0.0373813658952713
			],
			"type":"VEC3"
		},
		{
			"bufferView":1,
			"componentType":5126,
			"count":21638,
			"type":"VEC3"
		},
		{
			"bufferView":2,
			"componentType":5126,
			"count":21638,
			"type":"VEC2"
		},
		{
			"bufferView":3,
			"componentType":5123,
			"count":64260,
			"type":"SCALAR"
		}
	],
	"bufferViews":[
		{
			"buffer":0,
			"byteLength":259656,
			"byteOffset":0,
			"target":34962
		},
		{
			"buffer":0,
			"byteLength":259656,
			"byteOffset":259656,
			"target":34962
		},
		{
			"buffer":0,
			"byteLength":173104,
			"byteOffset":519312,
			"target":34962
		},
		{
			"buffer":0,
			"byteLength":128520,
			"byteOffset":692416,
			"target":34963
		}
	],
	"buffers":[
		{
			"byteLength":820936,
			"uri":"Soru1.1.bin"
		}
	]
}
