{
	"asset":{
		"generator":"Khronos glTF Blender I/O v4.2.60",
		"version":"2.0"
	},
	"scene":0,
	"scenes":[
		{
			"name":"Scene",
			"nodes":[
				1
			]
		}
	],
	"nodes":[
		{
			"mesh":0,
			"name":"Cube.015",
			"rotation":[
				0,
				0,
				-0.7071068286895752,
				0.7071068286895752
			],
			"scale":[
				1.6666550636291504,
				97.7345199584961,
				1.3333332538604736
			],
			"translation":[
				-0.311431884765625,
				0.2626194953918457,
				-0.03223533183336258
			]
		},
		{
			"children":[
				0
			],
			"name":"Bar5.001",
			"scale":[
				0.0009999871253967285,
				1,
				1
			],
			"translation":[
				0.3114350140094757,
				-0.2626194953918457,
				0.03223533183336258
			]
		}
	],
	"animations":[
		{
			"channels":[
				{
					"sampler":0,
					"target":{
						"node":1,
						"path":"scale"
					}
				}
			],
			"name":"Bar5.001Action.001",
			"samplers":[
				{
					"input":3,
					"interpolation":"LINEAR",
					"output":4
				}
			]
		}
	],
	"materials":[
		{
			"doubleSided":true,
			"name":"Mat_Roof_Cap.002",
			"pbrMetallicRoughness":{
				"baseColorFactor":[
					0.9822452664375305,
					0.38132646679878235,
					0.0030353753827512264,
					1
				],
				"metallicFactor":0,
				"roughnessFactor":0.699999988079071
			}
		}
	],
	"meshes":[
		{
			"name":"Cube.055",
			"primitives":[
				{
					"attributes":{
						"POSITION":0,
						"NORMAL":1
					},
					"indices":2,
					"material":0
				}
			]
		}
	],
	"accessors":[
		{
			"bufferView":0,
			"componentType":5126,
			"count":24,
			"max":[
				0.16132280230522156,
				0.003186540212482214,
				0.027926500886678696
			],
			"min":[
				0.15382274985313416,
				-0.004726422484964132,
				0.020426500588655472
			],
			"type":"VEC3"
		},
		{
			"bufferView":1,
			"componentType":5126,
			"count":24,
			"type":"VEC3"
		},
		{
			"bufferView":2,
			"componentType":5123,
			"count":36,
			"type":"SCALAR"
		},
		{
			"bufferView":3,
			"componentType":5126,
			"count":41,
			"max":[
				1.6666666666666667
			],
			"min":[
				0
			],
			"type":"SCALAR"
		},
		{
			"bufferView":4,
			"componentType":5126,
			"count":41,
			"type":"VEC3"
		}
	],
	"bufferViews":[
		{
			"buffer":0,
			"byteLength":288,
			"byteOffset":0,
			"target":34962
		},
		{
			"buffer":0,
			"byteLength":288,
			"byteOffset":288,
			"target":34962
		},
		{
			"buffer":0,
			"byteLength":72,
			"byteOffset":576,
			"target":34963
		},
		{
			"buffer":0,
			"byteLength":164,
			"byteOffset":648
		},
		{
			"buffer":0,
			"byteLength":492,
			"byteOffset":812
		}
	],
	"buffers":[
		{
			"byteLength":1304,
			"uri":"BarV2-5.bin"
		}
	]
}
