{
	"asset":{
		"generator":"Khronos glTF Blender I/O v4.2.60",
		"version":"2.0"
	},
	"scene":0,
	"scenes":[
		{
			"name":"Scene",
			"nodes":[
				1
			]
		}
	],
	"nodes":[
		{
			"mesh":0,
			"name":"Cube.016",
			"scale":[
				1.6666682958602905,
				94.34786987304688,
				1.3333332538604736
			],
			"translation":[
				0.4556846022605896,
				0.25634765625,
				-0.03223533183336258
			]
		},
		{
			"children":[
				0
			],
			"name":"Bar6.001",
			"scale":[
				1,
				0.0009999871253967285,
				1
			],
			"translation":[
				-0.4556846022605896,
				-0.2563695013523102,
				0.03223533183336258
			]
		}
	],
	"animations":[
		{
			"channels":[
				{
					"sampler":0,
					"target":{
						"node":1,
						"path":"scale"
					}
				}
			],
			"name":"Bar6.001Action.001",
			"samplers":[
				{
					"input":3,
					"interpolation":"LINEAR",
					"output":4
				}
			]
		}
	],
	"materials":[
		{
			"doubleSided":true,
			"name":"Mat_Roof_Cap.002",
			"pbrMetallicRoughness":{
				"baseColorFactor":[
					0.9822452664375305,
					0.38132646679878235,
					0.0030353753827512264,
					1
				],
				"metallicFactor":0,
				"roughnessFactor":0.699999988079071
			}
		}
	],
	"meshes":[
		{
			"name":"Cube.054",
			"primitives":[
				{
					"attributes":{
						"POSITION":0,
						"NORMAL":1
					},
					"indices":2,
					"material":0
				}
			]
		}
	],
	"accessors":[
		{
			"bufferView":0,
			"componentType":5126,
			"count":24,
			"max":[
				-0.26966050267219543,
				-0.0027172791305929422,
				0.027926500886678696
			],
			"min":[
				-0.27716049551963806,
				-0.010243773460388184,
				0.020426500588655472
			],
			"type":"VEC3"
		},
		{
			"bufferView":1,
			"componentType":5126,
			"count":24,
			"type":"VEC3"
		},
		{
			"bufferView":2,
			"componentType":5123,
			"count":36,
			"type":"SCALAR"
		},
		{
			"bufferView":3,
			"componentType":5126,
			"count":29,
			"max":[
				1.1666666666666667
			],
			"min":[
				0
			],
			"type":"SCALAR"
		},
		{
			"bufferView":4,
			"componentType":5126,
			"count":29,
			"type":"VEC3"
		}
	],
	"bufferViews":[
		{
			"buffer":0,
			"byteLength":288,
			"byteOffset":0,
			"target":34962
		},
		{
			"buffer":0,
			"byteLength":288,
			"byteOffset":288,
			"target":34962
		},
		{
			"buffer":0,
			"byteLength":72,
			"byteOffset":576,
			"target":34963
		},
		{
			"buffer":0,
			"byteLength":116,
			"byteOffset":648
		},
		{
			"buffer":0,
			"byteLength":348,
			"byteOffset":764
		}
	],
	"buffers":[
		{
			"byteLength":1112,
			"uri":"BarV2-6.bin"
		}
	]
}
