{
	"asset":{
		"generator":"Khronos glTF Blender I/O v4.2.60",
		"version":"2.0"
	},
	"scene":0,
	"scenes":[
		{
			"name":"Scene",
			"nodes":[
				1
			]
		}
	],
	"nodes":[
		{
			"mesh":0,
			"name":"Plane.015",
			"translation":[
				0.03386688232421875,
				0.30267333984375,
				-0.008106231689453125
			]
		},
		{
			"children":[
				0
			],
			"name":"Simsek2.1",
			"scale":[
				0.0009999275207519531,
				0.0009999275207519531,
				0.0009999275207519531
			],
			"translation":[
				-0.11379468441009521,
				-1.017174243927002,
				0.027235649526119232
			]
		}
	],
	"animations":[
		{
			"channels":[
				{
					"sampler":0,
					"target":{
						"node":1,
						"path":"scale"
					}
				}
			],
			"name":"Simsek1.001Action",
			"samplers":[
				{
					"input":4,
					"interpolation":"LINEAR",
					"output":5
				}
			]
		}
	],
	"materials":[
		{
			"doubleSided":true,
			"name":"PencereSolar.005",
			"pbrMetallicRoughness":{
				"baseColorFactor":[
					0.9822452664375305,
					0.38132646679878235,
					0.0030353753827512264,
					1
				],
				"metallicFactor":0,
				"roughnessFactor":0.5
			}
		}
	],
	"meshes":[
		{
			"name":"Plane.015",
			"primitives":[
				{
					"attributes":{
						"POSITION":0,
						"NORMAL":1,
						"TEXCOORD_0":2
					},
					"indices":3,
					"material":0
				}
			]
		}
	],
	"accessors":[
		{
			"bufferView":0,
			"componentType":5126,
			"count":54,
			"max":[
				-0.022538961842656136,
				-0.3027304708957672,
				0.015714546665549278
			],
			"min":[
				-0.044604212045669556,
				-0.3424859344959259,
				0.008105849847197533
			],
			"type":"VEC3"
		},
		{
			"bufferView":1,
			"componentType":5126,
			"count":54,
			"type":"VEC3"
		},
		{
			"bufferView":2,
			"componentType":5126,
			"count":54,
			"type":"VEC2"
		},
		{
			"bufferView":3,
			"componentType":5123,
			"count":96,
			"type":"SCALAR"
		},
		{
			"bufferView":4,
			"componentType":5126,
			"count":109,
			"max":[
				4.5
			],
			"min":[
				0
			],
			"type":"SCALAR"
		},
		{
			"bufferView":5,
			"componentType":5126,
			"count":109,
			"type":"VEC3"
		}
	],
	"bufferViews":[
		{
			"buffer":0,
			"byteLength":648,
			"byteOffset":0,
			"target":34962
		},
		{
			"buffer":0,
			"byteLength":648,
			"byteOffset":648,
			"target":34962
		},
		{
			"buffer":0,
			"byteLength":432,
			"byteOffset":1296,
			"target":34962
		},
		{
			"buffer":0,
			"byteLength":192,
			"byteOffset":1728,
			"target":34963
		},
		{
			"buffer":0,
			"byteLength":436,
			"byteOffset":1920
		},
		{
			"buffer":0,
			"byteLength":1308,
			"byteOffset":2356
		}
	],
	"buffers":[
		{
			"byteLength":3664,
			"uri":"Simsek1.bin"
		}
	]
}
